<svg xmlns="http://www.w3.org/2000/svg" width="146.1" height="104.311" viewBox="0 0 146.1 104.311"><g transform="translate(0 0)"><path d="M2554.016,1628.264v-.452c.648-.416,1.343-.793,1.938-1.253,7.334-5.66,14.635-11.346,22-16.984a11.052,11.052,0,0,1,3.239-1.731c8.223-2.655,16.485-5.233,24.722-7.832,14.144,9.989,26.726,9.989,41.859.016,8.078,2.541,16.172,5.053,24.218,7.654a12.8,12.8,0,0,1,3.736,1.932c6.97,5.307,13.849,10.691,20.8,16.014a37.214,37.214,0,0,0,3.59,2.128l-27.743,17.574-8.13-5.846.01,64.829-75.031.01-.01-64.711-7.88,5.695c-.967-.581-1.792-1.061-2.594-1.564Q2566.373,1636.007,2554.016,1628.264Z" transform="translate(-2554.016 -1600.013)" fill="#618226"/></g></svg>