<svg xmlns="http://www.w3.org/2000/svg" width="68.838" height="143.582" viewBox="0 0 68.838 143.582"><g transform="translate(-134.483 -912.068)"><path d="M152.616,1032.687s-17.553-62.677,0-88.159" transform="translate(7.222 22.69)" fill="none" stroke="#618226" stroke-miterlimit="10" stroke-width="2.03"/><path d="M146.192,992.294s-2.528-19.865,13.723-23.475C159.915,968.819,165.333,985.432,146.192,992.294Z" transform="translate(8.085 39.67)" fill="#618226"/><path d="M152.1,980.129s-.887-20.006-17.517-20.8C134.585,959.33,132.072,976.623,152.1,980.129Z" transform="translate(0 33.037)" fill="#618226"/><path d="M169.688,912.068A29.958,29.958,0,1,0,199.65,942.03,29.957,29.957,0,0,0,169.688,912.068Zm18.519,22.3c-.855.629-1.707,1.247-2.571,1.849a1.5,1.5,0,0,1-2.283-.192c-1.142-1.108-2.239-2.266-3.434-3.311a12.584,12.584,0,0,0-7-3.242,8.15,8.15,0,0,0-5.316,1.385c-.19.122-.374.253-.557.375a.694.694,0,0,0-.061.1c.122.078.245.148.367.228q3.071,1.843,6.144,3.7a1.254,1.254,0,0,1,.5,2.02c-.365.62-.741,1.247-1.115,1.857a1.208,1.208,0,0,1-1.849.454c-2.414-1.448-4.818-2.9-7.233-4.349-.122-.078-.245-.156-.392-.243-.365.61-.724,1.193-1.089,1.813.139.087.262.165.384.234q3.542,2.131,7.076,4.261c.967.584,1.106,1.142.532,2.1-.35.583-.707,1.176-1.055,1.76a1.234,1.234,0,0,1-1.927.479c-2.178-1.308-4.348-2.623-6.528-3.931-.112-.07-.226-.139-.374-.226a10.645,10.645,0,0,0-.114,4.445,8.952,8.952,0,0,0,3.52,5.2,18.515,18.515,0,0,0,6.624,3.077c.583.173,1.167.348,1.743.54a1.4,1.4,0,0,1,1.142,1.708c-.131,1.194-.289,2.37-.489,3.547-.173,1.053-.844,1.473-1.961,1.325a23.173,23.173,0,0,1-5.437-1.4,20.228,20.228,0,0,1-9.02-6.754,15.64,15.64,0,0,1-3.1-10.841,19,19,0,0,1,.758-4.141.509.509,0,0,0-.279-.705c-.924-.515-1.821-1.081-2.72-1.631a1.241,1.241,0,0,1-.488-1.969c.376-.619.749-1.245,1.125-1.855a1.211,1.211,0,0,1,1.864-.471c.855.5,1.709,1.028,2.581,1.551.365-.6.714-1.186,1.089-1.813-.105-.061-.217-.131-.331-.2-.758-.454-1.516-.907-2.267-1.369a1.2,1.2,0,0,1-.46-1.811c.4-.68.8-1.351,1.22-2.022a1.189,1.189,0,0,1,1.786-.437c1.047.61,2.075,1.237,3.1,1.874a.387.387,0,0,0,.549-.053,18.725,18.725,0,0,1,5.255-3.355,15.911,15.911,0,0,1,9.989-.766,20.544,20.544,0,0,1,4.626,1.76c.1.053.2.078.306.122l1.925,1.15c.6.479,1.211.95,1.8,1.446a21.128,21.128,0,0,1,3.87,4.21A1.61,1.61,0,0,1,188.207,934.369Z" transform="translate(3.672 0)" fill="#618226"/></g></svg>