<svg xmlns="http://www.w3.org/2000/svg" width="124.66" height="107.133" viewBox="0 0 124.66 107.133"><path d="M396.876,651.537c-.006-6.336-3.869-10.233-10.154-10.238q-13.355-.009-26.7-.006h-2.039c0-1.454.02-2.685,0-3.922a13.552,13.552,0,0,0-13.423-13.562q-10.053-.146-20.116.01a13.284,13.284,0,0,0-13.1,11.91c-.213,1.761-.207,3.541-.316,5.564h-2.063c-9.017,0-18.037-.014-27.054.006a9.4,9.4,0,0,0-9.666,9.669q-.028,21.449-.009,42.9a9.97,9.97,0,0,0,2.977,7.186,3.425,3.425,0,0,1,.891,2.108c.069,6.113,0,12.226.055,18.335a8.513,8.513,0,0,0,4.574,7.913,12.869,12.869,0,0,0,5.752,1.4q48.061.125,96.122.059c.415,0,.83-.01,1.246-.034a9.34,9.34,0,0,0,9.116-9.65c.016-5.994-.019-11.989.04-17.979a3.056,3.056,0,0,1,.757-2,10.205,10.205,0,0,0,3.13-7.656C396.85,679.542,396.876,665.54,396.876,651.537Zm-77.386,24.395a11.809,11.809,0,0,1-1.682-7.518c.05-.5.149-1.008.233-1.573a9.254,9.254,0,0,0,4.309,1.761c1.661.409,3.347.771,4.975,1.3a7.555,7.555,0,0,1,4.62,3.715,17.283,17.283,0,0,1,.875,2.408c.1.3-.085.4-.351.435a12.443,12.443,0,0,1-4.126-.2,12.82,12.82,0,0,1-3.422-1.138.242.242,0,0,0-.237.014,5.841,5.841,0,0,0,.4.461,7.915,7.915,0,0,0,3.872,1.855,12.059,12.059,0,0,0,9.794-2.008c.144-.1.286-.2.425-.3a1.445,1.445,0,0,1-.342,2.167,13.738,13.738,0,0,1-5.574,1.964c-.267.03-.533.035-.8.085a.716.716,0,0,0-.381.182,5.781,5.781,0,0,1-6.406,1.46A11.072,11.072,0,0,1,319.489,675.931Zm5.965-18.063a5.9,5.9,0,0,1,1.924-6.01,10.594,10.594,0,0,1,5.846-2.755,12.024,12.024,0,0,1,9.927,2.83c.114.093.213.2.351.331-1.889.648-2.977,2.2-4.263,3.517-1.083,1.113-2.167,2.235-3.339,3.26a7.493,7.493,0,0,1-3.9,1.8,7.9,7.9,0,0,1-4.165-.539,15.307,15.307,0,0,1,5.2-6.425,3.013,3.013,0,0,0-.441.059,7.405,7.405,0,0,0-3.372,2.108,11.749,11.749,0,0,0-3.458,7.231,25.893,25.893,0,0,0,0,2.853c0,.089.01.178.014.263a1.443,1.443,0,0,1-1.7-1.435,14.312,14.312,0,0,1,1.306-6.291A1.3,1.3,0,0,0,325.454,657.868ZM341.346,709a2.1,2.1,0,0,1-2.363,2.424c-2.964.016-5.921.024-8.879,0-1.588-.01-2.355-.832-2.349-2.454.024-4.852-.006-9.7.014-14.556,0-1.8.672-2.462,2.458-2.483,2.9-.03,5.8-.024,8.7,0,1.76.02,2.394.693,2.408,2.517.02,2.424.006,4.853.006,7.277S341.317,706.571,341.346,709Zm9.116-34.726a12.018,12.018,0,0,1-7.443,7,2.041,2.041,0,0,1-.233.069c-.024.006-.049-.014-.089-.03.366-1.983-.49-3.748-1-5.583a42.126,42.126,0,0,1-1.1-4.442,7.544,7.544,0,0,1,2.76-7.36c.039-.034.083-.055.2-.134a14.448,14.448,0,0,1,2.883,7.7.726.726,0,0,0,.109.006,6.837,6.837,0,0,0,.2-.664,8.53,8.53,0,0,0-.51-4.659,11.992,11.992,0,0,0-6.465-6.988c-.158-.075-.31-.154-.464-.228a1.436,1.436,0,0,1,2.062-.766,13.641,13.641,0,0,1,4.714,4.189,1.469,1.469,0,0,0,.881.613,5.458,5.458,0,0,1,3.744,3.437A10.14,10.14,0,0,1,350.461,674.269Zm3.62-35.77c-.045.826,0,1.658,0,2.705H315.3c-1.7-8.725,3.982-13.814,10.312-13.557,5.866.233,11.758.237,17.624-.006A10.078,10.078,0,0,1,354.082,638.5Z" transform="translate(-272.23 -623.737)" fill="#618226"/></svg>