<?xml version="1.0" encoding="utf-8"?>
<!-- Generator: Adobe Illustrator 19.2.1, SVG Export Plug-In . SVG Version: 6.00 Build 0)  -->
<svg version="1.1" xmlns="http://www.w3.org/2000/svg" xmlns:xlink="http://www.w3.org/1999/xlink" x="0px" y="0px"
	 viewBox="0 0 897.9 363.9" style="enable-background:new 0 0 897.9 363.9;" xml:space="preserve">
<style type="text/css">
	.st0{fill:none;}
	.st1{fill:#323234;}
	.st2{font-family:'Avenir-Heavy';}
	.st3{font-size:178.5881px;}
	.st4{letter-spacing:-10;}
	.st5{letter-spacing:3;}
	.st6{fill:#262626;}
	.st7{font-family:'Avenir-Roman';}
	.st8{font-size:45.3239px;}
	.st9{fill:#83A028;}
</style>
<g id="Calque_1">
	<rect y="130.8" class="st0" width="959.1" height="161.4"/>
	<text transform="matrix(1 0 0 1 4.843750e-005 265.8574)"><tspan x="0" y="0" class="st1 st2 st3">eco</tspan><tspan x="297.5" y="0" class="st1 st2 st3 st4"> </tspan><tspan x="339.7" y="0" class="st1 st2 st3 st5"> </tspan><tspan x="396.1" y="0" class="st1 st2 st3">minds</tspan></text>
</g>
<g id="logo_français">
	<rect x="45.5" y="311.6" class="st0" width="805.9" height="51.3"/>
	<text transform="matrix(1 0 0 1 45.4615 345.8935)" class="st6 st7 st8">agence de communication responsable</text>
	<g>
		<path class="st9" d="M341.2,139.6c0.8,1,2,1.7,3.4,1.7c2.4,0,4.4-2,4.4-4.4v-10.4c0-34.6-27.1-62.5-61.7-63.4
			c-1.8-0.1-3.4,1-4.1,2.6c-3.9,8.8-5.9,17.9-5.9,27.3c0,35.7,27.9,64.9,62.9,67.2l0,33.9l-19.4,11.6l0-28.8c0-1.9-1.2-3.5-3-4.1
			c-34.3-11.5-57.4-43.6-57.4-79.8c0-46.4,37.8-84.2,84.2-84.2c46.4,0,84.2,37.8,84.2,84.2c0,36.2-23,68.2-57.3,79.8
			c-1.8,0.6-3,2.3-3,4.1l0,26.3L315.4,234c-1.7,1-2.5,3-2,4.9c0.5,1.9,2.2,3.2,4.2,3.2h35.9l-35.2,24.7c-0.4,0.3-0.5,0.8-0.3,1.2
			c0.2,0.3,0.5,0.5,0.8,0.5c0.1,0,0.3,0,0.4-0.1l55.8-26.8c0,0,0-0.1,0.1-0.1c1.4-0.7,2.3-2.2,2.3-3.8c0-2.4-2-4.4-4.4-4.4h-39.2
			l41.3-23.9c1.4-0.8,2.2-2.2,2.2-3.8l0-25.8c36.2-13.6,60.3-48.1,60.3-87c0-51.2-41.7-92.9-92.9-92.9c-51.2,0-92.9,41.7-92.9,92.9
			c0,38.9,24.1,73.5,60.4,87l0,33.4c0,1.6,0.8,3,2.2,3.8c1.4,0.8,3,0.8,4.4-0.1l28.1-16.8c1.3-0.8,2.1-2.2,2.1-3.8l0-40.6
			c0-2.4-2-4.4-4.4-4.4c-32.3,0-58.6-26.3-58.6-58.6c0-7.1,1.3-14.2,4-21c27.5,2.2,48.9,24.3,50.1,52l-41-30.1
			c-0.4-0.3-0.9-0.2-1.3,0.1c-0.3,0.4-0.3,0.9,0,1.3L341.2,139.6z"/>
		<g>
			<path class="st9" d="M354.7,110.6l39.1-36.9c0.3-0.2,0.6-0.2,0.9,0c0.3,0.2,0.3,0.6,0.1,0.9L354.7,130
				c29.7,0,53.8-24.1,53.8-53.8c0-7.8-1.7-15.2-4.7-21.8c-27.2,0.8-49.1,23.1-49.1,50.5V110.6z"/>
		</g>
		<g>
			<path class="st9" d="M359.3,54.2c0-12.8-5.9-24.2-15.1-31.7c-9.2,7.5-15.1,19-15.1,31.7c0,11.4,4.7,21.7,12.2,29.1l2-40.8
				c0-0.5,0.4-0.8,0.9-0.8c0.5,0,0.9,0.4,0.9,0.8l2,40.8C354.7,75.8,359.3,65.5,359.3,54.2z"/>
		</g>
	</g>
</g>
</svg>
