<?xml version="1.0" encoding="utf-8"?>
<!-- Generator: Adobe Illustrator 19.2.1, SVG Export Plug-In . SVG Version: 6.00 Build 0)  -->
<svg version="1.1" id="Calque_1" xmlns="http://www.w3.org/2000/svg" xmlns:xlink="http://www.w3.org/1999/xlink" x="0px" y="0px"
	 viewBox="0 0 541.4 163.9" enable-background="new 0 0 541.4 163.9" xml:space="preserve">
<g>
	<rect x="255.4" y="127.3" fill="#98984B" width="3.7" height="3.7"/>
	<path fill="#98984B" d="M270.7,113.8c5.1,0,8.5,3.7,8.5,8.8c0,4.8-3.5,8.8-8.5,8.8c-5.1,0-8.5-4-8.5-8.8
		C262.2,117.5,265.6,113.8,270.7,113.8 M270.7,128.8c3.6,0,5.2-3.3,5.2-6.3c0-3.2-1.9-6.3-5.2-6.3c-3.3,0-5.3,3.1-5.3,6.3
		C265.5,125.6,267.1,128.8,270.7,128.8"/>
	<path fill="#98984B" d="M283.4,114.2h2.9v2.6h0.1c0.8-1.7,2.6-3,4.4-3c0.9,0,1.4,0.1,2,0.2v2.8c-0.6-0.2-1.2-0.3-1.7-0.3
		c-2.8,0-4.6,2.6-4.6,6.8v7.6h-3.1V114.2z"/>
	<path fill="#98984B" d="M310.9,130.2c0,5.1-2.6,8-8.6,8c-1.8,0-3.3-0.2-6-1.2l0.3-2.9c2.4,1.1,3.8,1.5,6,1.5c3.3,0,5.2-2.2,5.2-5.7
		v-1.6h-0.1c-1.3,1.7-3.5,2.6-5.6,2.6c-4.8,0-7.2-3.9-7.2-8.2c0-4.3,2.4-8.9,7.5-8.9c3,0,4.6,1.1,5.5,2.9h0.1v-2.5h2.9V130.2z
		 M307.8,122.8c0-3.5-1.6-6.5-4.9-6.5c-3.1,0-4.7,3.4-4.7,6.2c0,3.2,1.8,5.9,4.7,5.9C305.8,128.5,307.8,125.9,307.8,122.8"/>
</g>
<path fill="#1B181B" d="M248.9,99.3c0,20.1-10.4,31.7-34.1,31.7c-7,0-13.1-0.9-23.7-4.5l1.3-11.3c9.3,4.3,14.9,6,23.9,6
	c12.8,0,20.5-8.7,20.5-22.7v-6.5h-0.3c-5.2,6.9-13.8,10.3-22.2,10.3c-18.9,0-28.3-15.4-28.3-32.6c0-17,9.6-35.2,29.6-35.2
	c11.7,0,18.2,4.3,21.8,11.4h0.3V36h11.3V99.3z M236.7,69.8c0-13.8-6.4-25.6-19.3-25.6c-12.3,0-18.4,13.4-18.4,24.6
	c0,12.5,7,23.4,18.4,23.4C228.8,92.3,236.7,82.2,236.7,69.8"/>
<path fill="#1B181B" d="M264.6,40.7c6.1-3.6,13.4-6.2,21.8-6.2c18.9,0,26.6,9.3,26.6,27.4v27.4c0,7.5,0.3,11,0.5,13h-11.4v-8.6h-0.3
	c-2.9,4-9.3,10.1-20.5,10.1c-14.3,0-24.3-6.2-24.3-20.6c0-16.6,18.2-21.8,30.8-21.8c4.8,0,8.2,0,13,0.3c0-11.4-4.2-17.3-16.4-17.3
	c-6.9,0-14.3,2.6-19.2,6.7L264.6,40.7z M300.8,70.6c-2.6,0-5.2-0.3-7.8-0.3c-6.6,0-23,1-23,12.7c0,7,6.7,10.8,12.3,10.8
	c12.1,0,18.4-7.5,18.4-17.4V70.6z"/>
<path fill="#1B181B" d="M376.8,99.4c-4.7,1.7-10,4.3-20.9,4.3c-23.5,0-34.3-14.3-34.3-35.8c0-19.6,12.3-33.5,31-33.5
	c22,0,29.2,16.1,29.2,37.4h-47.2c0,13.1,10.2,22,21.8,22c8,0,17.4-4.1,20.4-6.6V99.4z M368.9,62.7c0-10.1-6-18.4-16.5-18.4
	c-11.9,0-16.9,9.9-17.8,18.4H368.9z"/>
<path fill="#1B181B" d="M395.8,40.7c6.1-3.6,13.4-6.2,21.8-6.2c18.9,0,26.6,9.3,26.6,27.4v27.4c0,7.5,0.3,11,0.5,13h-11.4v-8.6H433
	c-2.9,4-9.3,10.1-20.5,10.1c-14.3,0-24.3-6.2-24.3-20.6c0-16.6,18.2-21.8,30.8-21.8c4.8,0,8.2,0,13,0.3c0-11.4-4.2-17.3-16.4-17.3
	c-6.9,0-14.3,2.6-19.2,6.7L395.8,40.7z M432,70.6c-2.6,0-5.2-0.3-7.8-0.3c-6.6,0-23,1-23,12.7c0,7,6.7,10.8,12.3,10.8
	c12.1,0,18.4-7.5,18.4-17.4V70.6z"/>
<g>
	<path fill="#98984B" d="M476.5,92.3c2.7-2.4,5.7-5,8.3-7.6l0.2-0.2c7.7-7.7,19.3-19.3,19.3-30.7c0-12.2-8.9-20.1-22.7-20.1
		c-5.7,0-11.7,1.3-17.8,4l-0.9,0.4l1.3,10.9l1.6-0.9c2.2-1.2,8.1-4.1,14.5-4.1c6.6,0,11.4,3.9,11.4,9.2c0,9.9-10.9,20-18.1,26.8
		l-0.5,0.5c-3.1,2.9-6.3,5.7-9.1,8.2l-3.1,2.8v11.9h44.3V93.1h-29.7C475.9,92.9,476.2,92.6,476.5,92.3"/>
	<polygon fill="#98984B" points="529.9,34.9 512.4,49.2 519,57.5 528,49.7 528,103.4 540,103.4 540,34.9 	"/>
</g>
<g>
	<path fill="#98984B" d="M38.1,39.9L24,25.7C11.2,39.1,2.9,56.8,1.6,76.4L38.1,39.9z"/>
	<polygon fill="#98984B" points="80.2,81.9 40.8,42.5 1.4,81.9 40.8,121.4 	"/>
	<path fill="#98984B" d="M122.8,124.6H44l38.9,38.9c21.8,0,41.6-8.6,56.2-22.6L122.8,124.6z"/>
	<path fill="#98984B" d="M82.9,79.3L139.1,23C124.5,9,104.7,0.4,82.9,0.4C61,0.4,41.2,9,26.6,23L82.9,79.3z"/>
	<path fill="#98984B" d="M1.6,87.5c2.7,40.6,35.1,73.1,75.7,75.8L1.6,87.5z"/>
	<path fill="#98984B" d="M141.8,25.7L85.5,81.9l56.3,56.3c14-14.6,22.5-34.4,22.5-56.3C164.3,60.1,155.7,40.3,141.8,25.7"/>
	<polygon fill="#98984B" points="82.9,84.6 46.6,120.8 119.1,120.8 	"/>
</g>
</svg>
