<?xml version="1.0" encoding="utf-8"?>
<!-- Generator: Adobe Illustrator 19.2.1, SVG Export Plug-In . SVG Version: 6.00 Build 0)  -->
<svg version="1.1" id="Calque_1" xmlns="http://www.w3.org/2000/svg" xmlns:xlink="http://www.w3.org/1999/xlink" x="0px" y="0px"
	 viewBox="0 0 340.2 166.3" enable-background="new 0 0 340.2 166.3" xml:space="preserve">
<g>
	<g>
		<g>
			<rect fill="#FFFFFF" width="340.2" height="118.5"/>
			<g>
				<path fill="#FF7900" d="M17.9,2.6H2.6v16.6C6.4,12.6,11.7,7,17.9,2.6z"/>
				<path fill="#FF7900" d="M48.5,83.7c20.6,0,37.3-16.7,37.3-37.4c0-20.7-16.7-37.4-37.3-37.4c-20.6,0-37.3,16.7-37.3,37.4
					C11.2,67,27.9,83.7,48.5,83.7z M48.5,30.1c13,0,23.6,10.7,23.6,23.9c0,13.1-10.6,23.8-23.6,23.8c-13,0-23.6-10.7-23.6-23.8
					C24.9,40.8,35.5,30.1,48.5,30.1z"/>
				<path fill="#FF7900" d="M79.2,2.6c13.7,9.7,22.7,25.6,22.7,43.7c0,29.5-23.9,53.5-53.3,53.5c-19.6,0-36.7-10.6-46-26.3V116h335
					V2.6H79.2z"/>
				<path fill="#FFFFFF" d="M48.5,99.8c29.5,0,53.3-23.9,53.3-53.5c0-18.1-9-34.1-22.7-43.7H17.9C11.7,7,6.4,12.6,2.6,19.2v54.2
					C11.9,89.2,29,99.8,48.5,99.8z M48.5,8.9c20.6,0,37.3,16.7,37.3,37.4c0,20.7-16.7,37.4-37.3,37.4c-20.6,0-37.3-16.7-37.3-37.4
					C11.2,25.6,27.9,8.9,48.5,8.9z"/>
				<path fill="#FFFFFF" d="M48.5,77.8c13,0,23.6-10.7,23.6-23.8c0-13.2-10.6-23.9-23.6-23.9c-13,0-23.6,10.7-23.6,23.9
					C24.9,67.1,35.5,77.8,48.5,77.8z"/>
			</g>
		</g>
		<g>
			<path fill="#FFFFFF" d="M151.3,23.9h9.4v19.8h9.2v8.1h-18.7V23.9z"/>
			<path fill="#FFFFFF" d="M173.4,37.7c0-2.2,0.4-4.2,1.2-6c0.8-1.8,1.9-3.3,3.2-4.6c1.4-1.3,3-2.2,4.9-2.9c1.9-0.7,3.9-1,6.1-1
				c2.2,0,4.2,0.3,6.1,1c1.9,0.7,3.5,1.7,4.9,2.9c1.4,1.3,2.5,2.8,3.3,4.6c0.8,1.8,1.2,3.8,1.2,6c0,2.2-0.4,4.3-1.2,6.1
				c-0.8,1.8-1.9,3.4-3.3,4.7c-1.4,1.3-3,2.3-4.9,3c-1.9,0.7-3.9,1.1-6.1,1.1c-2.2,0-4.2-0.4-6.1-1.1c-1.9-0.7-3.5-1.7-4.9-3
				c-1.4-1.3-2.5-2.9-3.2-4.7C173.8,41.9,173.4,39.9,173.4,37.7z M183.4,37.7c0,0.9,0.1,1.8,0.4,2.5c0.3,0.8,0.7,1.4,1.1,2
				c0.5,0.5,1.1,1,1.7,1.3c0.7,0.3,1.4,0.5,2.2,0.5c0.8,0,1.5-0.1,2.2-0.5c0.7-0.3,1.3-0.7,1.8-1.3c0.5-0.6,0.9-1.2,1.2-2
				c0.3-0.8,0.4-1.6,0.4-2.5c0-0.9-0.1-1.7-0.4-2.5c-0.3-0.7-0.7-1.4-1.2-1.9s-1.1-0.9-1.8-1.2c-0.7-0.3-1.4-0.4-2.2-0.4
				c-0.8,0-1.5,0.1-2.2,0.4c-0.7,0.3-1.3,0.7-1.7,1.2c-0.5,0.5-0.9,1.1-1.1,1.9C183.5,36,183.4,36.8,183.4,37.7z"/>
			<path fill="#FFFFFF" d="M223.6,51.8h-9.4V31.8h-6.8v-7.9h23v7.9h-6.8V51.8z"/>
			<path fill="#FFFFFF" d="M235.6,23.9h19.2v7.8h-10.3v2.4h9.7v7.3h-9.7V44h11v7.8h-19.8V23.9z"/>
			<path fill="#FFFFFF" d="M261.6,23.9h12c1.4,0,2.7,0.1,4.1,0.4c1.4,0.3,2.6,0.8,3.6,1.5c1.1,0.7,1.9,1.6,2.6,2.8
				c0.7,1.2,1,2.6,1,4.4c0,1.7-0.4,3.2-1.3,4.5c-0.8,1.3-2,2.3-3.6,3l7.1,11.3h-10.7l-5.3-10h-0.3v10h-9.1V23.9z M270.6,35.7h1.8
				c0.3,0,0.7,0,1-0.1c0.4-0.1,0.7-0.2,1.1-0.3c0.3-0.2,0.6-0.4,0.8-0.7c0.2-0.3,0.3-0.7,0.3-1.2c0-0.5-0.1-0.9-0.3-1.2
				c-0.2-0.3-0.4-0.5-0.7-0.7c-0.3-0.1-0.6-0.2-0.9-0.3c-0.3,0-0.7-0.1-0.9-0.1h-2.2V35.7z"/>
			<path fill="#FFFFFF" d="M290.6,23.9h9.4v27.8h-9.4V23.9z"/>
			<path fill="#FFFFFF" d="M306,23.9h19.2v7.8h-10.3v2.4h9.7v7.3h-9.7V44h11v7.8H306V23.9z"/>
			<path fill="#FFFFFF" d="M109.7,64.6h12c1.4,0,2.7,0.1,4.1,0.4c1.3,0.3,2.5,0.8,3.6,1.5c1.1,0.7,1.9,1.6,2.6,2.8
				c0.7,1.2,1,2.6,1,4.4c0,1.7-0.4,3.2-1.3,4.5c-0.8,1.3-2,2.3-3.6,3l7,11.3h-10.7l-5.3-9.9h-0.3v9.9h-9.1V64.6z M118.7,76.3h1.8
				c0.3,0,0.7,0,1-0.1c0.4-0.1,0.7-0.2,1-0.3c0.3-0.2,0.6-0.4,0.8-0.7c0.2-0.3,0.3-0.7,0.3-1.2c0-0.5-0.1-0.9-0.3-1.2
				c-0.2-0.3-0.4-0.5-0.7-0.6c-0.3-0.1-0.6-0.2-0.9-0.3c-0.3,0-0.7-0.1-0.9-0.1h-2.2V76.3z"/>
			<path fill="#FFFFFF" d="M136.5,78.3c0-2.2,0.4-4.2,1.2-6c0.8-1.8,1.9-3.3,3.2-4.6c1.4-1.3,3-2.2,4.9-2.9c1.9-0.7,3.9-1,6.1-1
				c2.2,0,4.2,0.3,6.1,1c1.9,0.7,3.5,1.6,4.9,2.9c1.4,1.3,2.5,2.8,3.3,4.6c0.8,1.8,1.2,3.8,1.2,6c0,2.2-0.4,4.2-1.2,6.1
				c-0.8,1.8-1.9,3.4-3.3,4.7c-1.4,1.3-3,2.3-4.9,3c-1.9,0.7-3.9,1.1-6.1,1.1c-2.2,0-4.2-0.4-6.1-1.1c-1.9-0.7-3.5-1.7-4.9-3
				c-1.4-1.3-2.5-2.9-3.2-4.7C136.9,82.5,136.5,80.5,136.5,78.3z M146.5,78.3c0,0.9,0.1,1.8,0.4,2.5c0.3,0.8,0.7,1.4,1.1,2
				c0.5,0.5,1.1,1,1.7,1.3c0.7,0.3,1.4,0.5,2.2,0.5c0.8,0,1.5-0.2,2.2-0.5c0.7-0.3,1.2-0.7,1.7-1.3c0.5-0.5,0.9-1.2,1.2-2
				c0.3-0.8,0.4-1.6,0.4-2.5c0-0.9-0.1-1.7-0.4-2.5c-0.3-0.7-0.7-1.4-1.2-1.9c-0.5-0.5-1.1-0.9-1.7-1.2c-0.7-0.3-1.4-0.4-2.2-0.4
				c-0.8,0-1.5,0.1-2.2,0.4c-0.7,0.3-1.3,0.7-1.7,1.2c-0.5,0.5-0.9,1.1-1.1,1.9C146.6,76.6,146.5,77.4,146.5,78.3z"/>
			<path fill="#FFFFFF" d="M179.6,76.6l0.4,15.7h-8.7V64.6h12.2l5,14.9h0.2l4.4-14.9h12.6v27.8h-9.1l0.3-15.6l-0.2,0l-5.2,15.7h-6.6
				l-5.1-15.7H179.6z"/>
			<path fill="#FFFFFF" d="M220,64.6h9.9l10.8,27.8h-10.2l-1.5-4.1h-8.8l-1.4,4.1h-9.9L220,64.6z M224.8,74.2l-2.3,6.9h4.5
				L224.8,74.2z"/>
			<path fill="#FFFFFF" d="M244.1,64.6h9.3l7.9,14.1h0.2L261,64.6h8.9v27.8h-9.5l-7.7-13.3h-0.2l0.4,13.3h-8.9V64.6z"/>
			<path fill="#FFFFFF" d="M275.1,92.3V64.6h10.4c2.2,0,4.3,0.2,6.3,0.6c2,0.4,3.8,1.2,5.3,2.2c1.5,1.1,2.8,2.5,3.7,4.2
				c0.9,1.8,1.4,4,1.4,6.6c0,2.4-0.4,4.5-1.3,6.3c-0.9,1.8-2.1,3.2-3.5,4.4c-1.5,1.1-3.2,2-5.1,2.5c-1.9,0.5-3.9,0.8-6,0.8H275.1z
				 M284.1,72.5v11.8h1.7c2.2,0,3.9-0.5,5.1-1.4c1.2-0.9,1.8-2.5,1.8-4.7c0-1.8-0.6-3.2-1.8-4.2c-1.2-1-2.7-1.5-4.7-1.5H284.1z"/>
			<path fill="#FFFFFF" d="M306,64.6h19.1v7.8h-10.3v2.4h9.7V82h-9.7v2.6h11v7.8H306V64.6z"/>
		</g>
	</g>
	<g>
		<path fill="#1D1D1B" d="M0,145.5h6.7l4.1,12.7h0.1l3.5-12.7h6.9l3.8,12.7H25l3.8-12.7h6.3L28,165.8h-6.2l-4.2-13.5h-0.1l-3.8,13.5
			H7.4L0,145.5z"/>
		<path fill="#1D1D1B" d="M37.5,145.5h6.7l4.1,12.7h0.1l3.5-12.7h6.8l3.8,12.7h0.1l3.8-12.7h6.3l-7.2,20.3h-6.2L55,152.3H55
			l-3.8,13.5h-6.3L37.5,145.5z"/>
		<path fill="#1D1D1B" d="M74.9,145.5h6.7l4.1,12.7h0.1l3.5-12.7h6.8l3.8,12.7h0.1l3.8-12.7h6.3l-7.2,20.3h-6.2l-4.2-13.5h-0.1
			l-3.8,13.5h-6.3L74.9,145.5z"/>
		<path fill="#1D1D1B" d="M109.2,163c0-0.4,0.1-0.8,0.2-1.2c0.2-0.4,0.4-0.7,0.7-1c0.3-0.3,0.6-0.5,1-0.7c0.4-0.2,0.8-0.2,1.2-0.2
			c0.4,0,0.8,0.1,1.2,0.2c0.4,0.2,0.7,0.4,1,0.7c0.3,0.3,0.5,0.6,0.7,1c0.2,0.4,0.2,0.8,0.2,1.2c0,0.4-0.1,0.8-0.2,1.2
			c-0.2,0.4-0.4,0.7-0.7,1c-0.3,0.3-0.6,0.5-1,0.7c-0.4,0.2-0.8,0.2-1.2,0.2c-0.4,0-0.8-0.1-1.2-0.2c-0.4-0.2-0.7-0.4-1-0.7
			c-0.3-0.3-0.5-0.6-0.7-1C109.2,163.8,109.2,163.4,109.2,163z"/>
		<path fill="#1D1D1B" d="M138.8,162.3c-1,1.3-2.3,2.3-3.8,3c-1.5,0.7-3.1,1-4.8,1c-1.6,0-3-0.3-4.4-0.8c-1.4-0.5-2.6-1.2-3.6-2.1
			c-1-0.9-1.8-2.1-2.4-3.4c-0.6-1.3-0.9-2.8-0.9-4.4s0.3-3.1,0.9-4.4c0.6-1.3,1.4-2.4,2.4-3.4c1-0.9,2.2-1.6,3.6-2.1
			c1.4-0.5,2.8-0.8,4.4-0.8c1.4,0,2.8,0.2,3.9,0.8c1.2,0.5,2.2,1.2,3,2.1c0.8,0.9,1.5,2,1.9,3.4c0.4,1.3,0.7,2.8,0.7,4.4v2h-14.5
			c0.3,1.2,0.8,2.1,1.6,2.9c0.8,0.7,1.9,1.1,3.1,1.1c1,0,1.9-0.2,2.6-0.7c0.7-0.5,1.3-1,1.9-1.8L138.8,162.3z M133.5,153.4
			c0-1.1-0.3-2-1-2.7c-0.7-0.7-1.7-1.1-2.8-1.1c-0.7,0-1.3,0.1-1.8,0.3c-0.5,0.2-1,0.5-1.4,0.9c-0.4,0.3-0.7,0.8-0.9,1.2
			c-0.2,0.5-0.3,0.9-0.4,1.4H133.5z"/>
		<path fill="#1D1D1B" d="M143.5,145.5h6v2.8h0.1c0.2-0.4,0.5-0.8,0.8-1.2c0.4-0.4,0.8-0.7,1.3-1c0.5-0.3,1.1-0.6,1.7-0.8
			c0.6-0.2,1.3-0.3,2.1-0.3c1.6,0,2.9,0.2,3.8,0.7c1,0.5,1.7,1.2,2.3,2c0.5,0.9,0.9,1.9,1.1,3c0.2,1.2,0.3,2.4,0.3,3.8v11.2h-6.3
			v-9.9c0-0.6,0-1.2-0.1-1.8c0-0.6-0.2-1.2-0.4-1.7c-0.2-0.5-0.5-1-1-1.3c-0.4-0.3-1.1-0.5-1.9-0.5c-0.8,0-1.5,0.1-2,0.4
			c-0.5,0.3-0.9,0.7-1.1,1.2c-0.3,0.5-0.4,1-0.5,1.6c-0.1,0.6-0.1,1.3-0.1,1.9v10.1h-6.3V145.5z"/>
		<path fill="#1D1D1B" d="M181.3,150.5h-5.5v6.8c0,0.6,0,1.1,0.1,1.5c0.1,0.5,0.2,0.9,0.4,1.2c0.2,0.3,0.5,0.6,0.9,0.8
			c0.4,0.2,0.9,0.3,1.6,0.3c0.3,0,0.8,0,1.3-0.1c0.5-0.1,1-0.2,1.2-0.5v5.2c-0.7,0.2-1.4,0.4-2.2,0.5c-0.7,0.1-1.5,0.1-2.2,0.1
			c-1.1,0-2-0.1-2.9-0.3c-0.9-0.2-1.7-0.6-2.3-1.1c-0.7-0.5-1.2-1.1-1.6-1.9c-0.4-0.8-0.6-1.7-0.6-2.8v-9.6h-4v-5h4v-6h6.3v6h5.5
			V150.5z"/>
		<path fill="#1D1D1B" d="M186.3,145.5h6.3v3.3h0.1c0.7-1.3,1.5-2.2,2.4-2.8c0.9-0.6,2.1-0.9,3.5-0.9c0.4,0,0.7,0,1.1,0
			c0.4,0,0.7,0.1,1,0.2v5.7c-0.4-0.1-0.9-0.2-1.3-0.3c-0.4-0.1-0.9-0.1-1.4-0.1c-1.2,0-2.1,0.2-2.8,0.5c-0.7,0.3-1.2,0.8-1.6,1.4
			c-0.4,0.6-0.6,1.3-0.7,2.2c-0.1,0.8-0.2,1.8-0.2,2.8v8.5h-6.3V145.5z"/>
		<path fill="#1D1D1B" d="M216,163.3L216,163.3c-0.8,1.1-1.7,1.9-2.9,2.3c-1.2,0.5-2.4,0.7-3.7,0.7c-0.9,0-1.9-0.1-2.7-0.4
			c-0.9-0.3-1.6-0.7-2.3-1.2c-0.7-0.5-1.2-1.2-1.6-2c-0.4-0.8-0.6-1.7-0.6-2.7c0-1.2,0.2-2.2,0.6-3c0.4-0.8,1-1.5,1.8-2
			c0.7-0.5,1.6-0.9,2.5-1.2c0.9-0.3,1.9-0.5,2.9-0.6c1-0.1,2-0.2,3-0.2c1,0,2,0,2.8,0c0-1.1-0.4-2-1.2-2.6c-0.8-0.7-1.7-1-2.8-1
			c-1,0-2,0.2-2.8,0.6c-0.8,0.4-1.6,1-2.3,1.8l-3.3-3.4c1.2-1.1,2.5-1.9,4.1-2.4c1.6-0.5,3.2-0.8,4.8-0.8c1.8,0,3.3,0.2,4.5,0.7
			c1.2,0.5,2.1,1.1,2.8,2c0.7,0.9,1.2,2,1.5,3.3c0.3,1.3,0.4,2.8,0.4,4.5v10.3H216V163.3z M214.5,156.9c-0.5,0-1.1,0-1.8,0.1
			c-0.7,0-1.4,0.2-2,0.4c-0.7,0.2-1.2,0.5-1.7,0.9c-0.5,0.4-0.7,0.9-0.7,1.6c0,0.8,0.3,1.3,1,1.7c0.6,0.4,1.3,0.5,2,0.5
			c0.6,0,1.2-0.1,1.8-0.2c0.6-0.2,1.1-0.4,1.5-0.7c0.4-0.3,0.8-0.7,1.1-1.2c0.3-0.5,0.4-1,0.4-1.7v-1.3H214.5z"/>
		<path fill="#1D1D1B" d="M227.1,139.1c0-1,0.4-1.9,1.1-2.6c0.7-0.7,1.6-1.1,2.6-1.1c1,0,1.9,0.4,2.6,1.1c0.7,0.7,1.1,1.6,1.1,2.6
			c0,1-0.4,1.9-1.1,2.6c-0.7,0.7-1.6,1.1-2.6,1.1c-1,0-1.9-0.4-2.6-1.1C227.5,141,227.1,140.1,227.1,139.1z M227.6,145.5h6.3v20.3
			h-6.3V145.5z"/>
		<path fill="#1D1D1B" d="M259.7,165.8h-5.8v-2.7h-0.1c-0.2,0.4-0.6,0.7-1,1.1c-0.4,0.4-0.9,0.7-1.4,1c-0.5,0.3-1.1,0.6-1.8,0.8
			c-0.7,0.2-1.3,0.3-2,0.3c-1.5,0-2.9-0.3-4.1-0.8c-1.2-0.5-2.3-1.2-3.2-2.2c-0.9-0.9-1.5-2-2-3.3c-0.5-1.3-0.7-2.7-0.7-4.2
			c0-1.4,0.2-2.8,0.6-4.1c0.4-1.3,1-2.4,1.8-3.4c0.8-1,1.8-1.8,2.9-2.4c1.1-0.6,2.4-0.9,3.9-0.9c1.3,0,2.5,0.2,3.7,0.6
			c1.1,0.4,2.1,1.1,2.8,2.1h0.1v-13.4h6.3V165.8z M253.9,155.7c0-1.5-0.4-2.8-1.3-3.7c-0.9-0.9-2.1-1.4-3.7-1.4
			c-1.6,0-2.8,0.5-3.7,1.4c-0.9,0.9-1.3,2.2-1.3,3.7c0,1.5,0.4,2.8,1.3,3.7c0.9,0.9,2.1,1.4,3.7,1.4c1.6,0,2.8-0.5,3.7-1.4
			C253.5,158.4,253.9,157.2,253.9,155.7z"/>
		<path fill="#1D1D1B" d="M283.9,162.3c-1,1.3-2.3,2.3-3.8,3c-1.5,0.7-3.1,1-4.8,1c-1.6,0-3-0.3-4.4-0.8c-1.4-0.5-2.6-1.2-3.6-2.1
			c-1-0.9-1.8-2.1-2.4-3.4c-0.6-1.3-0.9-2.8-0.9-4.4s0.3-3.1,0.9-4.4c0.6-1.3,1.4-2.4,2.4-3.4c1-0.9,2.2-1.6,3.6-2.1
			c1.4-0.5,2.8-0.8,4.4-0.8c1.4,0,2.8,0.2,3.9,0.8c1.2,0.5,2.2,1.2,3,2.1c0.8,0.9,1.5,2,1.9,3.4c0.4,1.3,0.7,2.8,0.7,4.4v2h-14.5
			c0.3,1.2,0.8,2.1,1.6,2.9c0.8,0.7,1.9,1.1,3.1,1.1c1,0,1.9-0.2,2.6-0.7c0.7-0.5,1.3-1,1.9-1.8L283.9,162.3z M278.6,153.4
			c0-1.1-0.3-2-1-2.7c-0.7-0.7-1.7-1.1-2.8-1.1c-0.7,0-1.3,0.1-1.8,0.3c-0.5,0.2-1,0.5-1.4,0.9c-0.4,0.3-0.7,0.8-0.9,1.2
			c-0.2,0.5-0.3,0.9-0.4,1.4H278.6z"/>
		<path fill="#1D1D1B" d="M288.7,163c0-0.4,0.1-0.8,0.2-1.2c0.2-0.4,0.4-0.7,0.7-1c0.3-0.3,0.6-0.5,1-0.7c0.4-0.2,0.8-0.2,1.2-0.2
			c0.4,0,0.8,0.1,1.2,0.2c0.4,0.2,0.7,0.4,1,0.7c0.3,0.3,0.5,0.6,0.7,1c0.2,0.4,0.2,0.8,0.2,1.2c0,0.4-0.1,0.8-0.2,1.2
			c-0.2,0.4-0.4,0.7-0.7,1c-0.3,0.3-0.6,0.5-1,0.7c-0.4,0.2-0.8,0.2-1.2,0.2c-0.4,0-0.8-0.1-1.2-0.2c-0.4-0.2-0.7-0.4-1-0.7
			c-0.3-0.3-0.5-0.6-0.7-1C288.8,163.8,288.7,163.4,288.7,163z"/>
		<path fill="#1D1D1B" d="M312.9,152.1c-0.3-0.4-0.7-0.8-1.3-1.1c-0.6-0.3-1.2-0.4-1.8-0.4c-1.6,0-2.8,0.5-3.7,1.4
			c-0.9,0.9-1.3,2.2-1.3,3.7c0,1.5,0.4,2.8,1.3,3.7c0.9,0.9,2.1,1.4,3.7,1.4c0.7,0,1.3-0.2,1.8-0.5c0.5-0.3,0.9-0.7,1.3-1.1l4.1,4.3
			c-1,1-2.1,1.7-3.4,2.1c-1.3,0.4-2.6,0.6-3.8,0.6c-1.6,0-3-0.3-4.4-0.8c-1.4-0.5-2.6-1.2-3.6-2.1c-1-0.9-1.8-2.1-2.4-3.4
			c-0.6-1.3-0.9-2.8-0.9-4.4s0.3-3.1,0.9-4.4c0.6-1.3,1.4-2.4,2.4-3.4c1-0.9,2.2-1.6,3.6-2.1c1.4-0.5,2.8-0.8,4.4-0.8
			c1.2,0,2.5,0.2,3.8,0.6c1.3,0.4,2.5,1.1,3.4,2.1L312.9,152.1z"/>
		<path fill="#1D1D1B" d="M326.9,134.3v14h0.1c0.1-0.4,0.4-0.8,0.7-1.2c0.3-0.4,0.7-0.7,1.2-1c0.5-0.3,1-0.6,1.7-0.8
			c0.6-0.2,1.3-0.3,2.1-0.3c1.6,0,2.9,0.2,3.8,0.7c1,0.5,1.7,1.2,2.3,2c0.5,0.9,0.9,1.9,1.1,3c0.2,1.2,0.3,2.4,0.3,3.8v11.2h-6.3
			v-9.9c0-0.6,0-1.2-0.1-1.8c0-0.6-0.2-1.2-0.4-1.7c-0.2-0.5-0.5-1-1-1.3c-0.4-0.3-1.1-0.5-1.9-0.5c-0.8,0-1.5,0.1-2,0.4
			c-0.5,0.3-0.9,0.7-1.2,1.2c-0.3,0.5-0.4,1-0.5,1.6c-0.1,0.6-0.1,1.3-0.1,1.9v10.1h-6.3v-31.6H326.9z"/>
	</g>
</g>
</svg>
