<svg xmlns="http://www.w3.org/2000/svg" width="107.459" height="114.687" viewBox="0 0 107.459 114.687"><g transform="translate(-221.162 -53.692)"><g transform="translate(221.162 53.692)"><path d="M750.906,274.711h-1.743L738.007,310.67H693.888L681.741,274.7h-1.6l.417-20.482h70.317Z" transform="translate(-662.044 -195.982)" fill="#618226"/><path d="M794.65,182.56c-43.158,11.1-39.267,37.155-38.927,37.358" transform="translate(-702.829 -157.194)" fill="none" stroke="#000" stroke-miterlimit="10" stroke-width="2"/><path d="M713.828,190.14s1.789-23.092-39.129-40.56" transform="translate(-659.099 -139.342)" fill="none" stroke="#000" stroke-miterlimit="10" stroke-width="2"/><path d="M689.011,160.99c-.014.037-.023.055-.023.055l.009.041c-42.413,16.766-48.307-30.812-48.307-30.812C707.323,115.591,689.731,159.256,689.011,160.99Z" transform="translate(-640.69 -127.262)" fill="#618226"/><path d="M820.653,162.89s-3.454,45.064-45.027,22.638l-.362-.2,0,.119S765.813,153.064,820.653,162.89Z" transform="translate(-713.194 -145.542)" fill="#618226"/></g><g transform="translate(221.162 53.692)"><path d="M750.906,274.711h-1.743L738.007,310.67H693.888L681.741,274.7h-1.6l.417-20.482h70.317Z" transform="translate(-662.044 -195.982)" fill="#618226"/><path d="M794.65,182.56c-43.158,11.1-39.267,37.155-38.927,37.358" transform="translate(-702.829 -157.194)" fill="none" stroke="#618226" stroke-miterlimit="10" stroke-width="2"/><path d="M713.828,190.14s1.789-23.092-39.129-40.56" transform="translate(-659.099 -139.342)" fill="none" stroke="#618226" stroke-miterlimit="10" stroke-width="2"/><path d="M820.653,162.89s-3.454,45.064-45.027,22.638l-.362-.2,0,.119S765.813,153.064,820.653,162.89Z" transform="translate(-713.194 -145.542)" fill="#618226"/></g></g></svg>