<?xml version="1.0" encoding="utf-8"?>
<!-- Generator: Adobe Illustrator 16.0.0, SVG Export Plug-In . SVG Version: 6.00 Build 0)  -->
<!DOCTYPE svg PUBLIC "-//W3C//DTD SVG 1.1//EN" "http://www.w3.org/Graphics/SVG/1.1/DTD/svg11.dtd">
<svg version="1.1" id="Calque_1" xmlns="http://www.w3.org/2000/svg" xmlns:xlink="http://www.w3.org/1999/xlink" x="0px" y="0px"
	 width="116.7px" height="36.6px" viewBox="0 0 116.7 36.6" style="enable-background:new 0 0 116.7 36.6;" xml:space="preserve">
<style type="text/css">
<![CDATA[
	.st0{fill:none;stroke:#6E8934;stroke-width:0.5;stroke-linecap:round;stroke-linejoin:round;stroke-miterlimit:10;}
	.st1{fill:#6E8934;}
]]>
</style>
<g>
	<g>
		<g>
			<path id="p2_3_" class="st1" d="M111.8,12.8c5.2,2.7,6.5,9.8,2.9,14.4c-2.7,3.7-7.1,4-11.3,2.9c-2.8-1.2-5.4-3.3-8-4.9
				c-0.5,3.1-0.1,7-2.5,9.3c-2.4,2.5-5.8,2-8.9,2.1c-11.4-0.2-22.9,0.1-34.3-0.2c0.4-1.9-0.4-5.6,1.6-6.6c6.3-0.9,12.9,0.3,19.3-0.6
				c4.6-0.7,9.1-1.9,13.6-2.8c-0.2-1.3-0.3-2.6-0.5-3.9c-4.3,1-8.7,2.1-13.1,2.8c-6.2,0.9-12.6-0.2-18.7,0.4
				c-2.5,0.3-4.9,1.6-5.7,4.2c-0.5,2.2-0.5,4.5-0.6,6.7c-13.9-0.1-27.8,0.1-41.7-0.1c-4.4,0.1-5.3-5.8-2.4-8.2
				c5.3-1.7,10.9-2.7,16.4-3.4c10.7-1.7,21.4-3.4,32.1-5c4.9-0.6,9.8-0.3,14.7-0.3c7.4,0.1,14.7-0.1,22.1,0c4-0.2,5.6,3,9.4,4.2
				c0.5-1.8,0.8-3.7,1.4-5.5C99.3,12.7,106.9,9.8,111.8,12.8z"/>
		</g>
		<path class="st0" d="M60.7,20.1"/>
		<path class="st0" d="M106,14.2"/>
		<path class="st0" d="M63.9,20"/>
		<path class="st0" d="M69.6,20"/>
		<path class="st0" d="M73.1,20.1"/>
		<path class="st0" d="M75.8,20"/>
		<path class="st0" d="M106.9,14.2"/>
		<path class="st0" d="M109.3,14.2"/>
		<path class="st0" d="M107.1,13.5"/>
	</g>
</g>
<path class="st1" d="M65.1,11.9c0,0-5.3-0.6-7.1,2.1c0,0-0.4-5.2-4-6.3c-3.5-1.1-6.1-0.6-6.1-0.6s-0.4,2.7,0.7,4.1s2.8,3.7,8.4,3.1
	l0,6.5c0,0,0.5,0.6,1,0v-3.5c0,0,2.5,1,5.2-1.1C66,14.2,65.1,11.9,65.1,11.9z M56.1,13.4c0,0-2.1,0.5-4.9-0.6s-2.6-4.7-2.6-4.7
	s1.4-0.6,4.5,0.3c3.2,0.9,3.6,4.2,3.6,4.2c-1.4-1.3-5.5-2.5-5.5-2.5C53.1,10.6,56.1,13.4,56.1,13.4z M61.6,16.3
	c-2.3,0.8-3.3,0.3-3.3,0.3s2.5-1.7,3.3-1.8c0,0-0.3-0.4-3.6,1.1c0,0,1.4-2.7,3.4-3c2.1-0.3,2.8,0,2.8,0S63.9,15.6,61.6,16.3z"/>
<path class="st1" d="M85,11.9c0,0-5.3-0.6-7.1,2.1c0,0-0.4-5.2-4-6.3c-3.5-1.1-6.1-0.6-6.1-0.6s-0.4,2.7,0.7,4.1s2.8,3.7,8.4,3.1
	l0,6.5c0,0,0.5,0.6,1,0v-3.5c0,0,2.5,1,5.2-1.1C85.9,14.2,85,11.9,85,11.9z M76,13.4c0,0-2.1,0.5-4.9-0.6s-2.6-4.7-2.6-4.7
	s1.4-0.6,4.5,0.3c3.2,0.9,3.6,4.2,3.6,4.2c-1.4-1.3-5.5-2.5-5.5-2.5C73.1,10.6,76,13.4,76,13.4z M81.5,16.3
	c-2.3,0.8-3.3,0.3-3.3,0.3s2.5-1.7,3.3-1.8c0,0-0.3-0.4-3.6,1.1c0,0,1.4-2.7,3.4-3c2.1-0.3,2.8,0,2.8,0S83.8,15.6,81.5,16.3z"/>
<path class="st1" d="M113.7,4.9c0,0-5.3-0.6-7.1,2.1c0,0-0.4-5.2-4-6.3c-3.5-1.1-6.1-0.6-6.1-0.6s-0.4,2.7,0.7,4.1s2.8,3.7,8.4,3.1
	l0,6.5c0,0,0.5,0.6,1,0v-3.5c0,0,2.5,1,5.2-1.1C114.6,7.1,113.7,4.9,113.7,4.9z M104.7,6.3c0,0-2.1,0.5-4.9-0.6S97.2,1,97.2,1
	s1.4-0.6,4.5,0.3c3.2,0.9,3.6,4.2,3.6,4.2C104,4.2,99.9,3,99.9,3C101.8,3.5,104.7,6.3,104.7,6.3z M110.2,9.3
	c-2.3,0.8-3.3,0.3-3.3,0.3s2.5-1.7,3.3-1.8c0,0-0.3-0.4-3.6,1.1c0,0,1.4-2.7,3.4-3c2.1-0.3,2.8,0,2.8,0S112.5,8.5,110.2,9.3z"/>
</svg>
