<?xml version="1.0" encoding="utf-8"?>
<!-- Generator: Adobe Illustrator 16.0.0, SVG Export Plug-In . SVG Version: 6.00 Build 0)  -->
<!DOCTYPE svg PUBLIC "-//W3C//DTD SVG 1.1//EN" "http://www.w3.org/Graphics/SVG/1.1/DTD/svg11.dtd">
<svg version="1.1" id="Calque_1" xmlns="http://www.w3.org/2000/svg" xmlns:xlink="http://www.w3.org/1999/xlink" x="0px" y="0px"
	 width="98px" height="148.2px" viewBox="0 0 98 148.2" style="enable-background:new 0 0 98 148.2;" xml:space="preserve">
<style type="text/css">
<![CDATA[
	.st0{fill:#6E8934;}
]]>
</style>
<path class="st0" d="M42.3,24c0,0-11.4-10.3-12.7-13.3c-1.3-3.1,0-8.1,2.7-9.3S40-2.5,44.9,5.2c4.9,7.7,5.2,13,5.2,13l-0.7,1.5
	c0,0,3.1,4,2,6c0,0,4.1,0.7,8.7,8c0,0,12.9,4,14.8,6.7c0,0,5.6-12.1,12.9-17.6c0,0-0.2-1.3,1.1-1.9c0,0-1.1-10.1,5.8-12.1
	c6.9-2,1.6,12.1-2.3,13.7c0,0,0.3,1.6-1,2.4c0,0-7,17.7-11.7,20.6c0,0-0.9,3.1-5.3,1.9c-4.4-1.2-10.7-2.9-10.7-2.9s-1.1,6-2.2,6.9
	h-1.2c0,0,2.7,4.8,0.9,8l1.2,0.6c0,0,2.9,4.9,1.3,9.5c-1.7,4.6-3.3,9.3-3.3,9.3h-2.1c0,0,0.5,0,1.2,1.4c0,0,11,3.3,15.4,6.5
	c4.4,3.2,11.1,5.9,11.1,5.9v0.5c0,0,4.3,1.2,2.9,3.5l1.7,0.9c0,0-1.8,24.8-4.6,33.5c0,0,0.6,3.2-2.3,3.7s0,0.5,0,0.5
	s10.2,6.7,8.7,12.9l-17.9-16.6c0,0,2.1-2.9,3.2-1.7c1.1,1.2,2,1.5,2,1.5l1.1-0.8l-1.1-0.1c0,0,1.1-14.9,1-21.4S83.6,98,83.6,98
	s-2.7,0.5-6.1-0.8c-3.5-1.3-18.7-4.9-20.7-6.9c0,0-0.1,4.8-2.4,9.2c-2.3,4.4-7.3,12.9-7,13.3c0.3,0.4-1.1,4.9-4.1,4.8
	c0,0-9.7,4-14.2,3.7c-4.5-0.3-18.1,2.1-18.1,2.1L9.9,123c0,0-1.9,0.8-3.2-0.1c0,0-1.2,13-6.7,13l4.7-22.6c0,0,2.8-0.9,2.7,0.8
	c-0.1,1.7-0.8,2.9-0.3,3.3s0.8,2.1,1.7,1.5l0.3-2c0,0,0.5,0.5,4-0.1c3.5-0.7,10.9-4.7,17.3-5.1c6.4-0.4,10.8-1.7,11.4-0.8
	c0.7,0.9,1.9-20.6,8.3-27.2c0,0-0.9-3.2,2.1-4.6L47.5,79c0,0-4.3-2.8-2.6-11.1c1.7-8.3,3.2-8.8,3.2-8.8H49c0,0-1.5-2.3-0.7-3.7
	L47.5,55c0,0-5.3-6.1-4.7-10.6c0,0-13.6,7.6-14.2,7.6c-0.7,0,1.7,4.3,1.9,8.7S31,72.1,31,74.1c0,1.9,0.3,3.5,0.3,3.5s4,5,3.9,9.2
	s-2,4-4,4s-4.4-2.1-4.4-11.6c0,0-1.2-2.5-1.2-3.8S20,60.2,20.8,52c0,0-0.9-4.4,2.5-5.5c0,0,15.8-10.2,16.8-10.8c0,0,0.2-6.4,4.8-7.5
	c0,0-2.4-1.6-1.6-4.2H42.3z"/>
</svg>
