<?xml version="1.0" encoding="utf-8"?>
<!-- Generator: Adobe Illustrator 19.2.1, SVG Export Plug-In . SVG Version: 6.00 Build 0)  -->
<svg version="1.1" id="Calque_1" xmlns="http://www.w3.org/2000/svg" xmlns:xlink="http://www.w3.org/1999/xlink" x="0px" y="0px"
	 viewBox="0 0 30 20" style="enable-background:new 0 0 30 20;" xml:space="preserve">
<style type="text/css">
	.st0{fill:#6E8935;}
</style>
<g>
	<path class="st0" d="M29.9,13.7c-0.2-0.9-0.5-1.6-1-2.4c-0.3-0.5-0.7-0.9-1.2-1.3c-0.4-0.4-0.9-0.7-1.3-1c-0.5-0.3-1-0.6-1.5-0.8
		c-0.8-0.4-1.7-0.6-2.5-0.8c-0.1,0-0.3,0-0.4-0.2c-0.6-0.5-1.2-0.9-1.9-1.3c-0.6-0.3-1.1-0.6-1.7-0.9c-0.6-0.2-1.1-0.5-1.7-0.7
		c-0.6-0.2-1.3-0.4-2-0.5c-0.3-0.1-0.7-0.1-1-0.2c-0.3,0-0.7-0.1-1-0.1c-0.1,0-0.2,0-0.3,0.1c-0.3,0.3-0.6,0.6-1,1
		c-0.1,0.1-0.1,0.1-0.2,0.2c0,0,0,0,0.1,0c0.6,0,1.2,0,1.8,0.1c0.4,0.1,0.8,0.1,1.2,0.2c0.7,0.1,1.3,0.3,1.9,0.5
		c1.5,0.5,2.9,1.2,4.2,2.1c0.3,0.2,0.6,0.5,1,0.8c0.1,0.1,0.2,0.1,0.3,0.2c0.2,0,0.4,0.1,0.5,0.1c1,0.2,2,0.6,2.9,1.1
		c0.6,0.3,1.2,0.8,1.7,1.3c0.6,0.5,1,1.1,1.4,1.8c0.3,0.7,0.5,1.3,0.4,2.1c-0.1,0.5-0.3,1-0.6,1.5c-0.1,0.2-0.3,0.3-0.4,0.5
		c0.3-2.4-1.3-4.2-3.4-4.4c-1.1-0.1-2,0.2-2.8,0.9c-1.1,1-1.5,2.2-1.2,3.6c-4.2,0-8.5,0-12.7,0c0.2-1.3-0.1-2.5-1.1-3.5
		c-1-1-2.2-1.2-3.5-1c0,0,0,0,0-0.1c-0.1-0.3-0.1-0.5-0.2-0.8c-0.1-0.5-0.1-1,0-1.4c0.1-0.5,0.2-1,0.4-1.4c0.1-0.3,0.3-0.6,0.5-0.8
		C3.7,7.9,3.8,7.7,4,7.6C4,7.5,4,7.4,3.9,7.4C3.8,7.2,3.6,7.1,3.5,7C3.4,6.8,3.3,6.6,3.2,6.4c-1.8,2-2.3,4.2-1.5,6.7
		c-0.2,0.2-0.5,0.4-0.7,0.7C0.4,14.3,0.2,15,0,15.7c-0.1,0.5-0.1,1,0.1,1.5c0.2,0.6,0.5,1.2,1,1.7c0.3,0.3,0.6,0.5,0.9,0.7
		C2.7,20,3.4,20.1,4.2,20c0.6-0.1,1.1-0.2,1.6-0.5c0.4-0.3,0.8-0.6,1-1c0-0.1,0.1-0.1,0.2-0.1c4.6,0,9.1,0,13.7,0c0,0,0,0,0.1,0
		c0,0,0.1,0,0.1,0c0.2,0.3,0.4,0.5,0.7,0.7C22.2,19.8,23,20,24,20c0.5,0,1-0.1,1.5-0.4c0.6-0.3,1-0.7,1.4-1.2c0-0.1,0.1-0.1,0.2-0.1
		c0.2,0,0.4,0,0.5,0c0.2,0,0.3-0.1,0.5-0.2c0.4-0.3,0.8-0.7,1.1-1.1c0.5-0.7,0.8-1.5,0.9-2.3C30,14.5,30,14.1,29.9,13.7z M3.7,18.7
		c-1.3,0-2.4-1.1-2.4-2.5c0-1.3,1.1-2.4,2.4-2.4c1.4,0,2.5,1.1,2.5,2.4C6.2,17.6,5.1,18.7,3.7,18.7z M23.8,18.7
		c-1.3,0-2.4-1-2.4-2.3c0-1.4,1.1-2.5,2.4-2.5c1.4,0,2.4,1,2.5,2.3C26.3,17.6,25.2,18.7,23.8,18.7z"/>
	<path class="st0" d="M4.4,7.1c0.4,0.3,0.9,0.4,1.4,0.5c0.4,0,0.8,0,1.2-0.1C7.5,7.4,8,7.3,8.4,7c0.4-0.2,0.8-0.5,1.2-0.9
		C9.6,6.1,9.6,6,9.6,6C9.5,5.9,9.4,5.8,9.4,5.7C8.6,4.9,7.8,4.1,7,3.3c-0.5-0.5-1-1-1.5-1.5C5.3,1.6,5.1,1.5,4.9,1.3c0,0,0,0-0.1,0
		C4.3,1.8,3.9,2.4,3.6,3.1c-0.2,0.5-0.3,1-0.4,1.6c0,0.3,0,0.6,0.1,0.9C3.5,6.2,3.9,6.8,4.4,7.1z"/>
	<path class="st0" d="M6.8,2.5c0.1,0.1,0.1,0.1,0.2,0C7.2,2.3,7.3,2.1,7.5,2c0.3-0.3,0.7-0.7,1-1c0.1-0.1,0.2-0.3,0.2-0.4
		c0-0.2-0.1-0.4-0.3-0.5C8.1,0,7.9,0,7.7,0.2c-0.5,0.5-1,1-1.5,1.5c0,0-0.1,0-0.1,0.1c0,0,0.1,0.1,0.1,0.1C6.4,2,6.6,2.2,6.8,2.5z"
		/>
	<path class="st0" d="M9.2,4.8C9.2,4.8,9.2,4.8,9.2,4.8c0.6-0.6,1.1-1.1,1.6-1.6C11,3,11,2.6,10.7,2.4c-0.2-0.2-0.6-0.2-0.8,0
		C9.5,2.8,9.1,3.3,8.7,3.7C8.6,3.8,8.5,3.9,8.4,4C8.7,4.3,8.9,4.5,9.2,4.8z"/>
</g>
</svg>
