<?xml version="1.0" encoding="utf-8"?>
<!-- Generator: Adobe Illustrator 19.2.1, SVG Export Plug-In . SVG Version: 6.00 Build 0)  -->
<svg version="1.1" id="Calque_1" xmlns="http://www.w3.org/2000/svg" xmlns:xlink="http://www.w3.org/1999/xlink" x="0px" y="0px"
	 viewBox="0 0 30 30.5" style="enable-background:new 0 0 30 30.5;" xml:space="preserve">
<style type="text/css">
	.st0{fill:#FFFFFF;stroke:#6E8935;stroke-width:0.1701;stroke-miterlimit:10;}
	.st1{fill:#6E8935;}
	.st2{fill:none;stroke:#FFFFFF;stroke-width:8.501168e-002;stroke-miterlimit:10;}
	.st3{fill:#6E8935;stroke:#FFFFFF;stroke-width:8.501168e-002;stroke-miterlimit:10;}
	.st4{fill:#6E8935;stroke:#FFFFFF;stroke-width:0.2551;stroke-miterlimit:10;}
</style>
<path class="st0" d="M9.3,25.4c0,0,2.3-0.6,2.5,1.7c0,0.1,0.1,0.9-0.9,1.7h6.2l0.8-12.2H9.3V25.4z"/>
<polygon class="st1" points="0,4.6 10.8,4.6 13.7,13.3 2.7,13.3 "/>
<polygon class="st2" points="1.5,5.4 9.6,5.4 11.7,12 3.5,12 "/>
<rect x="7" y="12.8" class="st1" width="1.4" height="15.9"/>
<polygon class="st3" points="2.5,6 3.9,6 4.3,7.5 2.9,7.5 "/>
<polygon class="st3" points="3,7.9 4.4,7.9 4.8,9.4 3.4,9.4 "/>
<polygon class="st3" points="3.5,9.8 4.9,9.8 5.4,11.2 3.9,11.2 "/>
<polygon class="st3" points="4.3,6 5.7,6 6.1,7.5 4.7,7.5 "/>
<polygon class="st3" points="4.8,7.9 6.1,7.9 6.6,9.3 5.2,9.3 "/>
<polygon class="st3" points="5.5,9.7 6.8,9.7 7.3,11.2 5.9,11.2 "/>
<polygon class="st3" points="6.1,6 7.4,6 7.9,7.5 6.7,7.5 "/>
<polygon class="st3" points="6.6,7.9 7.9,7.9 8.4,9.3 7.1,9.3 "/>
<polygon class="st3" points="7.2,9.7 8.5,9.7 9,11.2 7.7,11.2 "/>
<polygon class="st3" points="7.9,6 9.3,6 9.7,7.5 8.3,7.5 7.7,6 "/>
<polygon class="st3" points="8.4,7.9 9.8,7.9 10.3,9.4 8.8,9.4 8.3,7.9 "/>
<polygon class="st3" points="9.1,9.8 10.5,9.8 10.9,11.2 9.4,11.2 8.9,9.8 "/>
<polygon class="st0" points="9.4,15.9 9.4,14.1 17.3,15.4 17.3,15.8 18,15.8 18,16.2 9.3,16.2 "/>
<circle class="st3" cx="9.7" cy="27.3" r="1.6"/>
<circle class="st4" cx="9.7" cy="27.3" r="0.6"/>
<g>
	<polygon class="st1" points="22.3,9.1 21.9,9.9 29,13.5 29.2,13.3 	"/>
	<polygon class="st1" points="20.7,10.3 21.7,10.3 22.1,26.9 20.4,26.9 	"/>
	<polygon class="st1" points="20.8,8 21.7,8 21.4,0 21.2,0 	"/>
	<polygon class="st1" points="20.5,10 20.1,9.2 13.4,13.6 13.5,13.8 	"/>
	<circle class="st1" cx="21.1" cy="9" r="0.6"/>
	<path class="st1" d="M20.8,28.2l0.1-0.4l0.5,1l-1,0.3l0.1-0.3c0,0-0.6-0.1-0.8,0.6c0,0,0.1,0.8,1,0.8c0,0,0.4-0.1,0.6-0.4
		c0,0-0.1,0.4-0.3,0.5c-0.2,0.1-0.8,0.4-1.5-0.3c-0.1-0.1-0.6-0.6,0-1.5C19.6,28.5,20.1,28,20.8,28.2L20.8,28.2z"/>
	<path class="st1" d="M21.4,27.9c0,0,0.4,0.2,0.4,0.8c0,0,0.1,0.1,0.4-0.1c0,0,0.6-0.7,1.5,0c0.4,0.3,0.4,0.3,0.4,0.3
		s0.5,0.2,0.9-0.1c0,0,0.8-1,1.8-0.1c0,0,0.8,0.6,1.4-0.1c0,0,0.8-0.6,1.6,0v-1c0,0-0.6-0.7-1.6,0c0,0-0.6,0.6-1.5-0.1
		c0,0-0.6-0.6-1.4,0c0,0-0.5,0.6-1.5,0.1c0,0-0.6-0.8-1.7-0.1c0,0-0.1,0.3-0.6,0.2C21.5,27.8,21.4,27.9,21.4,27.9z"/>
	<path class="st1" d="M21.4,29.6c0,0,0.4,0.1,0.4,0.6c0,0,0.1,0.1,0.4-0.1c0,0,0.6-0.5,1.5,0c0.4,0.2,0.4,0.2,0.4,0.2
		s0.5,0.1,0.9-0.1c0,0,0.8-0.6,1.8-0.1c0,0,0.8,0.4,1.4-0.1c0,0,0.8-0.4,1.6,0v-0.6c0,0-0.6-0.5-1.6,0c0,0-0.6,0.4-1.5,0
		c0,0-0.6-0.4-1.4,0c0,0-0.5,0.4-1.5,0.1c0,0-0.6-0.5-1.7,0c0,0-0.1,0.2-0.6,0.1C21.5,29.5,21.4,29.6,21.4,29.6z"/>
	<path class="st1" d="M19,29.1c0,0-0.5-0.6,0.1-1.1c0,0,0.5-0.2,0.4,0.3c0,0-0.1,0.1-0.1,0.2C19.3,28.5,19,28.7,19,29.1
		C19,28.9,19,29.1,19,29.1z"/>
	<g>
		<path class="st1" d="M11.3,24.2c0.1-0.2,0.2-0.4,0.4-0.6c-0.1-0.1-0.2-0.1-0.3-0.1l0,0c0.3,0,0.6,0,0.9,0c0,0,0.1,0,0.1,0.1
			c0.1,0.3,0.3,0.6,0.5,0.8c-0.1-0.1-0.2-0.1-0.3-0.1l0,0c-0.2,0.3-0.4,0.6-0.5,0.9C12,25.2,12,25.4,12,25.4
			c-0.2-0.4-0.4-0.7-0.6-1.1C11.3,24.2,11.3,24.2,11.3,24.2z"/>
		<path class="st1" d="M14.5,21.6c0.1,0.1,0.1,0.1,0.2,0.2c0.1,0.1,0.1,0.3,0.3,0.4c0.1-0.1,0.2-0.1,0.3-0.1l0,0
			c-0.1,0.1-0.1,0.2-0.2,0.4c-0.1,0.1-0.1,0.4-0.3,0.5L14.7,23c-0.3,0-0.6,0-0.9,0l0,0c0.1-0.1,0.2-0.1,0.3-0.1c0,0,0-0.1-0.1-0.1
			c-0.1-0.2-0.3-0.4-0.4-0.7c-0.1-0.1-0.2-0.3-0.4-0.4C13.6,21.6,14.1,21.6,14.5,21.6z"/>
		<path class="st1" d="M16,24.2L16,24.2c-0.1,0.3-0.3,0.4-0.5,0.4c-0.1,0-0.2,0-0.3,0c0,0-0.1,0-0.1-0.1c-0.2-0.3-0.4-0.6-0.6-0.9
			c0.3-0.1,0.6-0.4,0.9-0.6c0.1,0.3,0.4,0.6,0.5,0.9C16,24.1,16,24.2,16,24.2z"/>
		<path class="st1" d="M16,24.8c-0.2,0.4-0.4,0.6-0.6,1c-0.1,0.1-0.1,0.1-0.2,0.1c-0.2,0-0.4,0-0.6,0c0,0.1,0,0.2,0,0.4l0,0
			c-0.1-0.1-0.1-0.3-0.3-0.4c-0.1-0.1-0.1-0.3-0.2-0.4v-0.1c0.1-0.3,0.4-0.6,0.5-0.8c0,0.1,0,0.2,0,0.4c0.1,0,0.1,0,0.1,0
			c0.3,0,0.6,0,0.9,0C15.8,24.9,15.9,24.8,16,24.8z"/>
		<path class="st1" d="M12.9,23.1c-0.3-0.2-0.6-0.4-0.9-0.6c0.1-0.3,0.3-0.6,0.5-0.8c0.1-0.2,0.6-0.3,0.7,0c0.1,0.1,0.1,0.3,0.3,0.4
			v0.1C13.2,22.5,13.1,22.8,12.9,23.1z"/>
		<path class="st1" d="M13.5,24.9c0,0.4,0,0.7,0,1.1c-0.1,0-0.2,0-0.3,0c-0.2,0-0.4,0-0.6,0c-0.4,0-0.6-0.4-0.5-0.7
			c0.1-0.1,0.1-0.2,0.1-0.3l0.1-0.1c0.4,0,0.7,0,1,0C13.4,24.9,13.5,24.9,13.5,24.9z"/>
	</g>
</g>
</svg>
