<?xml version="1.0" encoding="UTF-8" standalone="no"?>
<!DOCTYPE svg PUBLIC "-//W3C//DTD SVG 1.1//EN" "http://www.w3.org/Graphics/SVG/1.1/DTD/svg11.dtd">
<svg viewBox="0 0 1280 720" height="720.0pt" width="1280.0pt" xmlns="http://www.w3.org/2000/svg" version="1.1">
<path d="M 0.00 0.00 L 1280.00 0.00 L 1280.00 720.00 L 0.00 720.00 L 0.00 0.00 Z" fill="#ffffff" />
<path d="M 284.00 168.83 C 531.00 168.83 778.00 168.84 1025.00 168.83 C 1028.07 168.80 1030.74 169.22 1033.63 170.22 C 1034.94 181.87 1033.66 194.28 1033.85 206.00 C 1033.86 321.67 1033.85 437.33 1033.85 553.00 C 1033.93 562.07 1034.85 571.50 1033.41 580.48 C 1026.83 581.77 1020.72 580.98 1014.00 581.16 C 765.96 581.15 517.91 581.18 269.87 581.14 C 268.24 580.97 266.04 580.34 265.52 578.57 C 264.43 574.27 264.90 569.42 264.82 565.00 C 264.83 438.00 264.83 311.00 264.82 184.00 C 264.96 178.80 264.01 174.27 266.61 169.50 C 272.44 168.90 278.13 168.70 284.00 168.83 Z" fill="#70ac48" />
<path d="M 273.30 177.37 C 279.83 176.44 286.59 177.03 293.00 177.14 C 527.67 177.15 762.33 177.13 997.00 177.15 C 1006.70 177.34 1016.17 176.26 1025.86 177.32 C 1025.91 301.21 1025.87 425.11 1025.88 549.00 C 1025.87 556.92 1025.93 564.83 1025.71 572.75 C 774.89 572.83 524.05 572.77 273.23 572.78 C 273.26 565.18 272.73 557.60 272.85 550.00 C 272.87 431.67 272.85 313.33 272.86 195.00 C 273.12 189.13 273.04 183.24 273.30 177.37 Z" fill="#ffffff" />
<path d="M 321.00 234.81 C 386.00 234.80 451.00 234.82 516.00 234.80 C 522.02 234.68 528.02 235.07 534.04 235.23 C 537.79 234.96 541.05 238.41 542.43 241.58 C 543.71 245.78 543.11 250.64 543.23 255.01 C 543.42 261.07 539.64 266.41 533.34 266.93 C 533.24 339.94 533.31 412.98 533.31 486.00 C 533.53 492.10 532.86 498.11 532.60 504.19 C 530.93 506.00 529.21 507.75 527.45 509.47 C 522.52 509.91 517.10 510.57 512.19 509.83 C 507.46 509.19 503.87 504.81 503.89 500.05 C 503.05 493.91 505.49 486.01 500.71 481.33 C 496.78 477.35 492.07 478.34 487.00 478.25 C 443.70 478.27 400.26 478.28 356.97 478.24 C 351.23 477.77 346.09 483.37 346.31 488.97 C 346.04 495.41 347.06 501.24 344.13 507.29 C 337.19 511.04 327.89 511.13 320.62 508.29 C 318.59 505.30 316.50 502.88 316.68 499.02 C 316.67 428.35 316.68 357.67 316.68 287.00 C 316.67 280.30 316.75 273.61 316.51 266.92 C 312.67 266.16 309.46 264.59 307.93 260.76 C 305.92 254.45 307.21 247.04 307.57 240.55 C 309.19 238.95 310.94 236.96 313.01 235.98 C 315.47 235.00 318.38 234.91 321.00 234.81 Z" fill="#70ac48" />
<path d="M 858.00 249.80 C 868.00 249.89 878.00 249.82 888.00 249.84 C 894.12 249.93 900.16 249.67 906.25 250.53 C 909.71 257.57 912.00 264.93 914.96 272.20 C 918.80 282.54 923.20 292.63 926.82 303.05 C 927.78 305.63 927.58 308.13 927.61 310.83 C 923.06 311.81 918.61 311.52 914.00 311.51 C 885.82 311.47 857.64 311.55 829.46 311.47 C 828.79 310.80 828.12 310.15 827.45 309.49 C 827.01 302.46 830.60 297.39 832.90 290.89 C 838.37 277.49 842.84 263.80 848.74 250.61 C 851.79 250.00 854.89 249.76 858.00 249.80 Z" fill="#70ac48" />
<path d="M 336.46 266.77 C 362.46 266.42 388.72 266.81 414.75 266.58 C 415.44 271.05 415.30 275.50 415.25 280.00 C 415.26 338.88 415.20 397.77 415.27 456.65 C 411.52 456.99 407.77 457.28 404.00 457.23 C 381.43 457.21 358.87 457.27 336.30 457.20 C 336.45 398.14 336.32 339.06 336.37 280.00 C 336.45 275.60 336.09 271.15 336.46 266.77 Z" fill="#ffffff" />
<path d="M 435.48 266.57 C 461.48 266.73 487.49 266.59 513.49 266.63 C 513.62 271.75 513.65 276.88 513.63 282.00 C 513.62 340.25 513.63 398.49 513.63 456.74 C 507.73 457.54 501.92 457.18 496.00 457.23 C 476.64 457.23 457.28 457.24 437.92 457.24 C 436.34 457.28 434.77 457.05 434.80 455.10 C 434.70 435.46 434.91 415.65 434.70 396.00 C 434.65 355.99 434.91 316.02 434.75 276.00 C 434.70 272.83 435.06 269.70 435.48 266.57 Z" fill="#ffffff" />
<path d="M 881.03 316.37 C 884.83 316.23 886.66 318.71 889.40 320.83 C 889.89 324.68 890.24 328.37 889.51 332.23 C 888.90 335.31 887.46 338.35 886.24 341.23 C 883.98 346.45 882.51 351.97 882.25 357.66 C 881.67 357.92 881.09 358.17 880.51 358.42 C 885.45 358.77 890.38 358.85 895.33 358.57 C 896.97 360.04 898.14 361.40 899.08 363.41 C 902.97 363.39 906.73 363.44 910.48 364.61 C 911.05 367.34 911.48 370.05 911.79 372.82 C 909.19 373.03 906.60 373.20 904.00 373.20 C 890.00 373.14 876.00 373.18 862.00 373.17 C 855.80 373.13 849.70 373.51 843.53 372.71 C 843.56 370.71 843.59 368.71 843.60 366.71 C 844.56 365.66 845.51 364.61 846.47 363.56 C 849.63 363.54 852.78 363.49 855.93 363.40 C 856.91 361.83 857.11 359.61 859.22 359.28 C 863.60 358.23 868.43 358.80 872.91 358.66 C 872.70 354.38 872.10 350.16 870.74 346.08 C 868.94 340.43 865.88 336.07 865.22 330.02 C 864.65 325.80 864.37 321.89 867.90 318.87 C 871.18 315.16 876.62 316.49 881.03 316.37 Z" fill="#70ac48" />
<path d="M 620.00 337.23 C 656.34 337.28 692.68 337.15 729.01 337.30 C 738.10 337.21 746.68 340.59 753.93 345.91 C 757.44 348.45 759.52 351.67 763.42 353.07 C 762.96 353.24 762.50 353.41 762.04 353.59 C 763.59 355.50 765.26 357.36 766.46 359.53 C 769.88 366.45 772.26 373.59 771.71 381.43 C 760.17 380.68 749.09 385.79 742.51 395.30 C 739.05 401.02 736.44 407.31 734.09 413.56 C 729.47 412.55 724.86 411.57 720.18 410.91 C 697.52 408.11 675.36 406.37 652.53 408.32 C 638.80 409.40 624.76 410.55 611.37 413.91 C 606.81 406.08 604.76 395.52 597.38 389.63 C 590.76 383.75 582.13 380.79 573.28 381.44 C 572.52 362.20 586.13 345.04 604.03 339.12 C 609.24 337.54 614.58 337.16 620.00 337.23 Z" fill="#70ac48" />
<path d="M 402.89 355.13 C 406.28 359.32 405.12 364.01 405.31 369.00 C 405.14 374.48 405.76 380.17 404.93 385.60 C 404.29 389.38 401.69 391.12 399.05 393.50 C 396.32 393.37 393.07 393.84 390.71 392.31 C 387.30 390.21 385.32 385.97 385.58 382.00 C 385.66 375.33 385.59 368.65 385.64 361.98 C 385.55 359.37 386.62 357.16 388.12 355.11 C 391.30 350.21 399.68 350.19 402.89 355.13 Z" fill="#70ac48" />
<path d="M 452.95 351.64 C 458.20 350.64 464.13 355.05 464.26 360.47 C 464.57 365.96 464.26 371.49 464.39 377.00 C 464.35 380.55 464.68 384.86 463.26 388.19 C 461.70 391.01 458.40 393.70 455.03 393.58 C 450.19 394.05 445.67 389.58 444.86 385.03 C 444.45 381.05 444.78 376.99 444.72 373.00 C 444.82 368.69 444.40 364.27 444.92 359.99 C 445.93 355.98 448.45 352.06 452.95 351.64 Z" fill="#70ac48" />
<path d="M 816.00 378.44 C 859.33 378.42 902.67 378.41 946.00 378.45 C 950.87 378.38 955.63 378.14 960.42 379.28 C 963.89 385.31 961.99 392.32 962.42 399.42 C 961.28 400.69 960.14 401.95 959.01 403.23 C 955.91 403.36 952.81 403.47 949.72 403.55 C 949.41 437.90 949.90 472.27 949.46 506.61 C 948.46 507.57 947.47 508.54 946.48 509.51 C 942.21 509.95 938.18 509.94 933.91 509.43 C 933.13 508.65 932.35 507.87 931.57 507.10 C 931.12 503.74 930.96 500.36 930.65 496.99 C 930.61 494.97 928.78 493.13 927.72 491.49 C 898.82 491.08 869.91 491.36 841.00 491.30 C 837.77 491.24 834.82 491.52 831.78 492.64 C 829.74 497.56 830.05 502.42 829.52 507.62 C 824.25 510.97 815.92 511.79 811.49 506.58 C 811.25 472.24 811.40 437.89 811.42 403.55 C 807.72 403.62 804.19 403.43 800.64 402.35 C 799.61 400.26 798.54 398.46 798.67 396.04 C 798.81 390.40 797.55 384.65 800.47 379.74 C 801.41 379.39 802.35 379.07 803.30 378.77 C 807.45 378.27 811.81 378.44 816.00 378.44 Z" fill="#70ac48" />
<path d="M 589.68 397.34 C 593.54 400.38 595.00 404.47 596.94 408.80 C 598.81 413.29 600.80 417.72 602.81 422.15 L 604.78 421.37 C 604.18 421.76 603.58 422.15 602.98 422.55 C 603.63 424.07 604.27 425.59 604.90 427.12 C 605.53 427.58 606.17 428.04 606.81 428.50 C 616.22 425.43 625.84 423.65 635.58 422.03 C 644.31 420.22 653.14 419.56 662.03 419.17 C 674.15 418.07 686.65 419.11 698.75 420.27 C 712.36 422.13 726.12 424.49 739.24 428.64 C 741.84 422.79 744.74 417.10 747.11 411.15 C 749.38 405.98 750.94 401.10 755.50 397.42 C 760.76 392.61 768.16 391.39 774.95 393.01 C 779.62 394.31 783.00 397.23 786.35 400.56 C 787.88 403.66 789.59 406.49 790.14 409.94 C 790.93 414.56 789.98 419.16 788.09 423.38 C 785.41 428.57 780.87 431.96 775.37 433.73 C 773.61 441.69 773.09 449.94 772.11 458.03 C 771.54 462.13 771.55 467.04 769.76 470.81 C 766.90 476.10 761.37 479.25 755.75 480.87 C 751.60 482.34 747.35 482.43 743.00 482.42 C 695.33 482.41 647.67 482.40 600.00 482.42 C 591.78 482.27 582.94 480.04 577.27 473.69 C 573.80 470.17 573.92 465.63 573.33 461.03 C 572.28 452.65 571.34 444.25 570.33 435.87 C 570.42 433.72 567.96 433.35 566.54 432.39 C 562.35 430.48 558.95 426.90 556.76 422.90 C 555.06 419.01 554.28 413.18 554.96 409.02 C 556.31 403.99 559.34 398.77 563.87 395.98 C 571.42 390.75 582.77 391.12 589.68 397.34 Z" fill="#70ac48" />
<path d="M 824.05 403.55 C 827.01 403.27 830.03 403.42 833.00 403.43 C 867.76 403.50 902.56 403.30 937.32 403.54 C 937.11 413.90 937.87 424.39 936.85 434.70 C 899.18 434.69 861.50 434.72 823.82 434.69 C 823.52 427.11 823.73 419.58 823.65 412.00 C 823.66 409.22 823.54 406.29 824.05 403.55 Z" fill="#ffffff" />
<path d="M 874.00 416.21 C 879.15 415.87 884.34 416.06 889.48 416.37 C 890.50 417.31 891.51 418.23 892.54 419.15 C 892.59 421.13 892.79 423.26 892.39 425.20 C 891.36 427.19 889.28 428.28 887.09 428.41 C 882.28 428.73 877.44 428.39 872.62 428.47 C 871.21 427.38 869.80 426.28 868.37 425.19 C 868.38 423.34 868.16 421.31 868.63 419.51 C 869.66 417.44 871.72 416.29 874.00 416.21 Z" fill="#70ac48" />
<path d="M 823.76 441.16 C 857.16 441.17 890.59 441.19 924.00 441.17 C 928.47 441.02 932.87 440.73 937.33 441.34 C 937.21 450.93 937.45 460.54 937.30 470.12 C 937.38 471.00 937.06 471.71 936.34 472.25 C 932.58 472.58 928.77 472.34 925.00 472.39 C 891.40 472.46 857.78 472.31 824.18 472.46 C 823.10 462.13 823.87 451.54 823.76 441.16 Z" fill="#ffffff" />
<path d="M 873.92 453.70 C 878.28 453.53 882.75 453.48 887.11 453.76 C 889.16 453.91 890.95 455.36 892.62 456.46 C 892.59 458.75 892.56 461.03 892.52 463.32 C 890.15 464.82 887.98 466.22 885.05 466.17 C 879.03 466.05 873.37 467.40 868.44 463.26 C 868.42 460.99 868.39 458.73 868.52 456.47 C 870.02 455.30 871.94 453.68 873.92 453.70 Z" fill="#70ac48" />
<path d="M 580.40 487.82 C 582.74 488.74 585.03 489.69 587.47 490.33 C 593.91 492.10 601.23 491.42 607.90 491.64 C 607.86 495.79 608.34 500.29 607.37 504.35 C 606.00 507.16 602.95 509.47 599.81 509.86 C 595.92 510.44 591.31 510.32 587.44 509.58 C 583.77 508.69 580.18 505.04 580.50 501.04 C 580.33 496.64 580.41 492.22 580.40 487.82 Z" fill="#70ac48" />
<path d="M 764.53 487.60 C 764.47 492.43 764.79 497.30 764.42 502.11 C 764.36 505.15 761.45 507.40 759.50 509.41 C 756.33 509.79 753.21 510.21 750.00 510.11 C 746.08 509.82 742.70 510.40 739.90 507.09 C 734.96 503.03 737.08 497.07 737.43 491.55 C 746.94 491.65 755.78 492.07 764.53 487.60 Z" fill="#70ac48" /></svg>