<?xml version="1.0" encoding="utf-8"?>
<!-- Generator: Adobe Illustrator 19.2.1, SVG Export Plug-In . SVG Version: 6.00 Build 0)  -->
<svg version="1.1" xmlns="http://www.w3.org/2000/svg" xmlns:xlink="http://www.w3.org/1999/xlink" x="0px" y="0px"
	 viewBox="0 0 30 74.3" style="enable-background:new 0 0 30 74.3;" xml:space="preserve">
<style type="text/css">
	.st0{fill:#6E8935;}
	.st1{fill:#FFFFFF;}
	.st2{fill:#CBBE28;}
</style>
<g id="Background">
</g>
<g id="Objects">
	<g id="element">
		<g id="elements">
			<g>
				<g>
					<path class="st0" d="M15,74.3c-8.3,0-15-6.7-15-15c0-6.7,4.4-12.5,10.7-14.4V28H10v-4.5h10V28h-0.7v17
						C25.6,46.8,30,52.6,30,59.3C30,67.6,23.3,74.3,15,74.3z M12,26h0.7v20.6L12,46.7C6.1,48.1,2,53.3,2,59.3c0,7.2,5.8,13,13,13
						c7.2,0,13-5.8,13-13c0-6-4.1-11.2-9.9-12.6l-0.8-0.2V26H18v-0.5h-6V26z"/>
				</g>
				<path class="st0" d="M3,59.3c0,6.6,5.4,12,12,12c6.6,0,12-5.4,12-12H3z"/>
				<g>
					<circle class="st0" cx="14.9" cy="49.5" r="1.6"/>
					<circle class="st0" cx="17.3" cy="52.3" r="1.3"/>
					<circle class="st0" cx="15.2" cy="28.5" r="1.3"/>
					<circle class="st0" cx="15.8" cy="55.9" r="0.8"/>
					<circle class="st0" cx="14.8" cy="39.6" r="0.8"/>
				</g>
				<g>
					<g>
						<circle class="st1" cx="14.5" cy="65.4" r="1.3"/>
						<circle class="st1" cx="15.9" cy="61.8" r="0.8"/>
					</g>
				</g>
			</g>
			<g>
				<g>
					<g>
						<g>
							<path class="st0" d="M12,22.4c-0.1,0-0.1,0-0.2,0c-1.8-0.4-2.1-1.2-2.1-1.7c0,0,0,0,0,0C9,20.4,8.7,19.8,8.9,19
								c0-0.1,0.1-0.2,0.1-0.2c-0.5-0.1-0.8-0.4-0.9-0.6c-0.6-1.5,1.6-2.5,3-3.2c0.4-0.2,0.7-0.3,0.9-0.5c0.1-0.1,0.2-0.2-0.1-0.8
								c-0.2-0.5-0.4-1.1-0.5-1.9c-0.1-1,0.2-1.8,0.6-2.6c0.5-1.1,1-2.2,0.5-4C12,3.3,11,1.9,9.6,1.3C8.2,0.6,6.5,0.7,4.7,1.5
								C1.1,3.1,0.4,6.1,1,8.1c0.8,3.1,2.7,3.7,4.2,4.1l0.2,0.1c1.8,0.6,3,2,3.5,2.9c0.1,0.2,0,0.4-0.2,0.5c-0.2,0.1-0.4,0-0.5-0.2
								c-0.3-0.7-1.5-2-3-2.5L4.9,13c-1.4-0.5-3.8-1.2-4.7-4.7C-0.4,6,0.3,2.6,4.4,0.7c2-0.9,4-1,5.6-0.2c1.6,0.8,2.8,2.3,3.3,4.5
								c0.5,2.1,0,3.4-0.5,4.5c-0.3,0.8-0.6,1.4-0.5,2.2c0.1,0.7,0.3,1.2,0.5,1.7c0.3,0.6,0.5,1.3-0.2,1.8c-0.2,0.1-0.6,0.3-1,0.5
								c-1,0.5-2.9,1.4-2.6,2.2c0,0,0.2,0.1,0.5,0.1c0,0,0,0,0,0c0.9-1.2,2.6-2.4,3.6-2.1c0.7,0.2,0.8,0.6,0.8,0.8
								c0,1-2.5,1.9-3.7,2.1c-0.1,0-0.1,0-0.2,0c-0.1,0.2-0.2,0.3-0.2,0.5c-0.1,0.3-0.1,0.5,0.4,0.7c0.7-1,2.3-1.8,3.6-1.9
								c0.2,0,0.9,0,1.1,0.4c0.1,0.2,0.1,0.5-0.2,0.9c-0.6,0.7-2.4,1.6-3.9,1.5c0,0.5,1,0.7,1.4,0.8c0.2,0,0.4,0.3,0.3,0.5
								C12.2,22.3,12.1,22.4,12,22.4z M11,20c1.2-0.1,2.5-0.8,2.8-1.2c-0.1,0-0.1,0-0.2,0C12.7,18.9,11.6,19.5,11,20z M10.7,17.8
								c1-0.3,1.9-0.8,2.2-1.1c0,0-0.1,0-0.1,0C12.4,16.5,11.5,17.1,10.7,17.8z"/>
						</g>
						<g>
							<path class="st2" d="M10.7,15.3c-0.8-1.5-1.9-3-3.1-4.2c-1-1-2-1.8-3.3-2.4C4.1,8.6,2.8,7.9,3.7,7.8c0.6,0,1.1,0.4,1.7,0.4
								c1.1,0,1.3-1.1,0.8-1.9c-0.2-0.4-1-1.2-0.7-1.7c0.3-0.5,1.2,0.4,1.4,0.6C7.2,5.5,7.9,7,8.5,6c0.2-0.4,0.2-0.8,0.5-1.2
								c0.2-0.4,0.6,0.1,0.7,0.3c0.2,0.4,0.2,1,0.2,1.4c0,0.3,0.4,0.2,0.4,0c0-0.6-0.1-2.6-1.3-2.2C8.6,4.4,8.5,4.7,8.4,5
								C8.3,5.2,8.2,5.4,8.2,5.6C8,6.1,7.8,5.7,7.6,5.5C7.2,4.9,6.1,3.7,5.3,4.1c-0.9,0.5,0,1.7,0.4,2.2c0.2,0.4,0.5,0.9,0.2,1.3
								c-0.3,0.4-1,0.1-1.3-0.1C4.2,7.5,3.8,7.4,3.4,7.5c-0.9,0.2-0.2,1,0.2,1.3c0.6,0.4,1.3,0.7,2,1.1c0.6,0.4,1.2,0.9,1.7,1.5
								c0.9,0.9,1.7,2,2.4,3.1c0.2,0.3,0.6,0.9,0.7,1.1C10.5,15.7,10.9,15.5,10.7,15.3L10.7,15.3z"/>
						</g>
					</g>
				</g>
			</g>
			<circle class="st0" cx="15.2" cy="12.3" r="1.4"/>
			<circle class="st0" cx="16.6" cy="15.2" r="0.8"/>
		</g>
	</g>
</g>
</svg>
