<?xml version="1.0" encoding="UTF-8" standalone="no"?>
<!DOCTYPE svg PUBLIC "-//W3C//DTD SVG 1.1//EN" "http://www.w3.org/Graphics/SVG/1.1/DTD/svg11.dtd">
<svg viewBox="0 0 1280 720" height="720.0pt" width="1280.0pt" xmlns="http://www.w3.org/2000/svg" version="1.1">
<path d="M 0.00 0.00 L 1280.00 0.00 L 1280.00 720.00 L 0.00 720.00 L 0.00 0.00 Z" fill="#ffffff" />
<path d="M 523.51 164.52 C 527.17 167.31 529.32 172.26 532.24 175.85 C 539.72 185.39 550.50 193.42 562.98 194.10 C 569.77 194.25 577.04 192.72 582.75 188.92 C 590.03 184.15 596.45 178.49 600.85 170.89 C 602.72 167.93 604.68 164.18 608.42 163.38 C 614.73 162.37 622.00 165.19 628.16 166.62 C 637.87 168.87 647.50 171.40 657.19 173.75 C 664.37 175.65 671.72 177.06 678.82 179.22 C 688.28 182.44 696.75 187.43 704.75 193.35 C 710.94 198.16 716.25 204.10 720.12 210.92 C 725.20 219.16 729.29 227.82 733.70 236.41 C 735.09 239.06 736.47 241.48 739.27 242.86 C 753.44 250.27 768.48 256.06 783.03 262.91 C 796.34 268.60 809.27 274.37 821.19 282.89 C 829.10 289.18 836.17 296.78 841.37 305.47 C 844.52 310.78 845.74 317.20 847.99 323.13 C 855.88 344.55 863.60 366.03 871.70 387.37 C 873.20 391.39 875.09 396.81 872.82 400.86 C 870.06 405.48 863.69 406.65 858.91 407.99 C 842.81 412.58 826.63 416.85 810.58 421.59 C 807.36 422.51 803.86 423.30 800.51 422.63 C 797.73 421.99 795.44 419.25 793.56 417.25 C 790.30 434.86 788.23 452.65 785.04 470.27 C 783.52 481.16 781.16 491.89 779.87 502.80 C 775.94 527.92 771.65 552.97 767.96 578.13 C 767.48 581.85 766.23 584.82 763.08 587.02 C 760.48 589.07 757.69 588.82 754.60 588.46 C 720.90 582.97 687.07 577.88 653.36 572.39 C 648.05 571.66 642.74 570.98 637.48 569.89 C 608.03 565.13 578.69 560.59 549.20 555.88 C 544.51 555.07 539.32 554.88 534.89 553.09 C 530.62 551.13 528.81 546.51 529.41 542.00 C 530.67 530.43 533.76 519.41 533.90 507.63 C 505.25 507.30 476.59 507.61 447.94 507.49 C 442.97 507.71 438.28 502.91 438.03 498.06 C 437.54 492.74 437.94 487.34 437.85 482.00 C 437.76 429.85 437.99 377.68 437.73 325.53 C 431.50 323.20 425.60 320.27 419.61 317.41 C 407.18 311.48 394.56 305.98 382.21 299.86 C 378.11 297.76 373.18 296.31 369.61 293.37 C 366.68 290.26 366.51 284.99 368.29 281.24 C 371.44 274.05 376.54 267.51 380.49 260.70 C 386.17 250.69 391.73 240.64 397.91 230.93 C 403.26 222.02 408.59 211.61 415.57 203.58 C 423.17 195.00 432.48 189.00 442.51 183.66 C 452.47 178.60 462.87 176.89 473.46 174.14 C 485.94 170.67 498.54 167.64 511.00 164.10 C 515.01 163.18 519.88 161.82 523.51 164.52 Z" fill="#71ac48" />
<path d="M 513.84 184.23 C 518.87 191.56 524.02 198.42 531.26 203.75 C 541.11 210.71 552.92 214.48 565.00 214.41 C 576.80 214.53 588.25 210.66 597.95 204.03 C 604.67 199.29 609.96 193.07 614.23 186.07 C 615.38 183.85 617.13 184.55 619.12 184.96 C 628.62 187.60 638.26 189.58 647.76 192.23 C 657.88 195.03 668.10 196.17 677.21 200.57 C 683.31 203.50 689.49 206.90 694.57 211.41 C 701.51 217.63 705.49 226.19 709.76 234.29 C 715.42 244.59 720.59 255.13 726.47 265.32 C 730.32 272.87 734.60 280.22 738.13 287.93 C 732.45 291.11 726.47 293.67 720.68 296.65 C 713.64 299.96 706.90 303.76 699.71 306.74 C 696.06 298.86 694.03 289.91 689.41 282.58 C 686.25 277.18 678.34 276.79 674.19 281.17 C 671.71 283.61 671.40 286.67 671.31 289.97 C 671.33 349.98 671.31 409.99 671.32 470.00 C 671.35 475.61 671.34 481.22 671.20 486.83 C 665.14 487.36 659.08 487.24 653.00 487.23 C 622.33 487.25 591.67 487.20 561.00 487.25 C 555.61 487.31 550.38 486.40 545.00 486.66 C 541.00 486.85 537.02 487.25 533.00 487.24 C 513.33 487.23 493.67 487.22 474.00 487.24 C 468.75 487.33 463.55 487.23 458.32 486.71 C 458.12 423.48 458.25 360.24 458.25 297.00 C 458.07 292.10 459.24 285.31 455.56 281.46 C 451.06 276.24 441.72 277.67 439.03 283.98 C 436.61 289.45 434.87 295.19 432.38 300.64 C 423.46 297.16 414.97 292.81 406.32 288.74 C 401.41 286.61 396.59 284.38 391.87 281.85 C 400.96 264.43 411.71 247.81 421.76 230.91 C 426.05 223.77 430.60 216.52 437.34 211.41 C 446.52 204.27 457.31 199.10 468.63 196.40 C 483.71 192.38 498.79 188.34 513.84 184.23 Z" fill="#ffffff" />
<path d="M 753.60 272.34 C 757.80 273.40 761.86 275.54 765.77 277.39 C 771.83 280.39 778.08 282.94 784.18 285.84 C 790.62 288.99 796.88 291.00 802.76 295.25 C 812.54 302.29 821.70 310.24 826.15 321.79 C 833.10 340.65 839.35 359.75 846.74 378.45 C 848.16 381.94 849.30 385.53 850.01 389.24 C 843.59 391.08 837.13 392.74 830.73 394.64 C 823.43 396.69 816.32 399.22 808.86 400.69 C 805.40 393.41 802.48 385.91 799.54 378.40 C 798.07 374.60 794.97 370.71 790.86 369.70 C 786.42 369.08 781.47 371.80 779.88 376.06 C 778.73 379.18 778.30 382.71 777.74 386.00 C 776.13 396.73 774.28 407.42 772.43 418.12 C 767.77 449.32 762.70 480.50 757.62 511.63 C 755.79 521.11 754.95 530.73 753.09 540.20 C 751.48 549.08 750.66 557.93 748.68 566.73 C 725.17 563.19 701.70 559.26 678.18 555.71 C 664.61 553.32 650.95 551.61 637.39 549.06 C 608.63 544.78 579.90 540.17 551.18 535.60 C 552.46 526.30 553.72 516.98 555.22 507.71 C 563.51 507.25 571.70 507.58 580.00 507.49 C 613.02 507.53 646.05 507.43 679.07 507.55 C 681.23 507.47 683.59 507.57 685.54 506.51 C 689.34 504.39 691.70 500.45 691.53 496.06 C 691.48 446.72 691.52 397.34 691.50 348.00 C 691.47 342.51 691.41 337.04 691.79 331.56 C 699.01 330.72 704.73 327.31 711.14 324.25 C 726.18 316.84 741.19 309.50 756.14 301.92 C 760.86 299.69 763.47 294.29 761.82 289.26 C 759.80 283.35 755.69 278.28 753.60 272.34 Z" fill="#ffffff" />
<path d="M 574.83 279.06 C 581.52 280.69 587.67 283.60 591.98 289.15 C 596.87 295.72 598.39 303.96 598.31 312.00 C 598.39 318.92 596.37 325.90 592.69 331.75 C 589.82 336.36 584.46 338.58 579.83 341.03 C 585.49 343.21 591.07 345.10 594.97 350.04 C 598.23 354.30 599.78 360.04 600.65 365.26 C 601.91 372.30 599.79 379.55 598.60 386.59 C 597.34 394.45 592.63 401.67 586.17 406.25 C 580.39 410.35 572.75 412.28 565.84 413.45 C 555.29 415.22 542.75 414.41 533.44 408.67 C 527.66 405.50 524.82 398.26 522.43 392.46 C 519.55 385.68 519.33 378.72 519.25 371.47 C 527.53 371.48 535.80 371.51 544.07 371.46 C 544.90 377.67 544.96 385.40 548.22 390.86 C 550.55 394.76 554.74 395.72 559.01 395.71 C 563.35 395.66 568.11 394.47 570.17 390.22 C 574.05 383.85 572.72 377.28 572.70 370.11 C 572.17 364.08 570.90 357.21 565.30 353.78 C 560.19 350.53 552.31 351.55 546.45 351.11 C 546.40 345.54 546.42 339.97 546.42 334.40 C 550.77 334.21 555.30 334.27 559.57 333.38 C 562.50 332.54 565.11 330.37 567.02 328.04 C 568.53 325.37 569.26 322.22 570.46 319.38 C 572.20 315.63 571.67 311.09 571.54 307.02 C 571.30 302.66 569.76 298.49 565.92 296.08 C 560.15 292.71 552.03 294.93 548.68 300.71 C 546.75 303.54 546.50 306.64 546.50 309.97 C 546.27 312.17 546.87 314.77 545.04 316.39 C 537.58 317.00 529.98 316.55 522.50 316.45 C 522.40 309.68 523.08 303.09 525.89 296.86 C 528.91 289.56 535.49 283.77 542.75 280.88 C 552.82 276.92 564.37 276.60 574.83 279.06 Z" fill="#71ac48" /></svg>