<?xml version="1.0" encoding="UTF-8" standalone="no"?>
<!DOCTYPE svg PUBLIC "-//W3C//DTD SVG 1.1//EN" "http://www.w3.org/Graphics/SVG/1.1/DTD/svg11.dtd">
<svg viewBox="0 0 199 182" xmlns:xlink="http://www.w3.org/1999/xlink" height="182.0pt" width="199.0pt" xmlns="http://www.w3.org/2000/svg" version="1.1"><defs>
<path d="M 0.00 0.00 L 199.00 0.00 L 199.00 182.00 L 0.00 182.00 L 0.00 0.00 Z" id="p0" />
<path d="M 108.46 7.53 C 112.44 6.69 116.12 12.38 115.65 15.94 C 114.78 24.53 107.18 32.14 98.76 33.59 C 95.88 34.04 93.30 32.30 92.46 29.54 C 90.59 21.76 93.96 13.04 101.12 9.17 C 103.34 8.09 106.04 7.89 108.46 7.53 Z" id="p1" />
<path d="M 106.12 11.88 C 112.00 16.26 109.51 24.53 104.45 28.47 C 102.29 30.73 99.37 28.96 98.42 26.45 C 96.51 21.80 99.03 16.11 101.16 11.94 C 103.05 11.33 104.37 10.27 106.12 11.88 Z" id="p2" />
<path d="M 157.65 22.10 C 155.34 25.14 153.66 25.69 149.92 26.04 C 141.49 26.83 133.87 29.85 126.18 33.17 C 116.02 37.40 105.17 41.25 94.09 41.81 C 85.26 42.57 76.56 41.38 68.10 38.83 C 61.57 36.90 55.23 35.72 48.47 37.43 C 46.71 37.96 44.38 38.77 43.44 40.48 C 42.45 41.87 43.36 43.66 43.57 45.22 C 42.08 45.98 40.58 46.71 39.05 47.40 C 38.66 45.06 37.30 42.35 39.33 40.39 C 42.98 36.47 49.09 34.62 54.16 33.44 C 66.93 31.22 78.18 38.16 90.99 38.21 C 101.52 38.31 112.17 35.83 121.95 32.06 C 133.81 27.56 144.45 20.85 157.65 22.10 Z" id="p3" />
<path d="M 97.36 42.42 C 97.39 44.73 96.96 46.98 96.14 49.13 C 93.93 54.90 91.22 60.90 89.88 66.94 C 87.73 75.65 90.13 85.35 93.37 93.50 C 98.15 105.60 103.04 116.72 103.49 129.99 C 103.29 142.53 98.98 155.24 93.20 166.28 C 91.63 169.24 88.91 169.65 85.87 169.99 C 88.47 164.38 91.34 158.98 93.12 153.01 C 97.29 141.47 97.68 128.68 94.20 116.91 C 91.13 105.31 85.39 95.30 83.53 83.81 C 82.98 79.45 82.89 74.88 83.64 70.54 C 85.21 63.57 88.85 56.81 91.05 49.99 C 91.80 47.80 92.40 45.45 93.47 43.38 C 94.29 42.00 95.98 41.59 97.36 42.42 Z" id="p4" />
<path d="M 107.18 45.77 C 106.18 50.27 103.50 53.26 101.52 57.55 C 98.77 63.31 96.48 68.78 98.66 75.23 C 106.18 96.72 114.13 118.10 122.71 139.20 C 123.87 142.27 125.71 144.97 127.02 147.95 C 126.68 149.62 123.80 150.54 122.44 151.34 C 118.31 144.04 115.19 135.89 112.03 128.07 C 106.55 114.01 101.58 99.74 96.53 85.52 C 95.04 80.83 92.68 75.95 93.03 70.99 C 93.26 65.52 96.71 59.93 99.15 55.11 C 101.43 51.26 102.58 47.40 107.18 45.77 Z" id="p5" /></defs><g stroke-width="10pt">
<use stroke="#607d44" xlink:href="#p0" />
<use stroke="#ffffff" xlink:href="#p1" />
<use stroke="#607d44" xlink:href="#p2" />
<use stroke="#ffffff" xlink:href="#p3" />
<use stroke="#ffffff" xlink:href="#p4" />
<use stroke="#ffffff" xlink:href="#p5" /></g>
<g>
<use xlink:href="#p0" fill="#607d44" />
<use xlink:href="#p1" fill="#ffffff" />
<use xlink:href="#p2" fill="#607d44" />
<use xlink:href="#p3" fill="#ffffff" />
<use xlink:href="#p4" fill="#ffffff" />
<use xlink:href="#p5" fill="#ffffff" /></g></svg>