<?xml version="1.0" encoding="utf-8"?>
<!-- Generator: Adobe Illustrator 19.2.1, SVG Export Plug-In . SVG Version: 6.00 Build 0)  -->
<svg version="1.1" id="Calque_1" xmlns="http://www.w3.org/2000/svg" xmlns:xlink="http://www.w3.org/1999/xlink" x="0px" y="0px"
	 viewBox="0 0 39 43.9" style="enable-background:new 0 0 39 43.9;" xml:space="preserve">
<style type="text/css">
	.st0{fill:#6E8935;}
	.st1{fill:#6E8935;stroke:#FFFFFF;stroke-width:8.239344e-002;stroke-miterlimit:10;}
	.st2{fill:#FFFFFF;}
	.st3{font-family:'Gotham-Bold';}
	.st4{font-size:5.9323px;}
	.st5{fill:#FFFFFF;stroke:#6E8935;stroke-width:0.1648;stroke-miterlimit:10;}
	.st6{fill:#FFFFFF;stroke:#6E8935;stroke-width:8.239344e-002;stroke-miterlimit:10;}
	.st7{fill:none;stroke:#FFFFFF;stroke-width:0.1133;stroke-miterlimit:10;}
	.st8{fill:none;stroke:#FFFFFF;stroke-width:5.255391e-002;stroke-miterlimit:10;}
</style>
<g>
	<path class="st0" d="M15.8,6.8h7.5L39,43.9h-8.5l-3.4-8.3H11.6c0,0-0.1,0-0.3,0.1c-0.3,0.1-0.2,0.1-0.3,0.1c-0.1,0-0.2,0-0.4,0
		c-2.2-0.3-4.6,0.5-5.2,2.7c-0.2,0.7-0.1,1.4,0.1,1.9C5.7,41,6,41.6,6.4,41.9c0.3,0.2,0.5,0.3,0.8,0.5c0.6,0.3,1.3,0.4,1.9,0.3
		c1-0.2,1.9-0.8,2.3-1.7c0.4-0.9,0.2-2.1-0.5-2.9c-0.3-0.3-0.7-0.5-1.2-0.6c-0.6-0.1-1.1,0-1.6,0.3c-0.8,0.5-1,1.8-0.3,2.5
		c-0.2-0.9,0-1.4,0.6-1.9c0.8-0.5,1.7-0.3,2.2,0.3c0.7,0.9,0.3,2-0.5,2.7c-0.4,0.3-0.9,0.5-1.5,0.5c-0.7-0.1-1.2-0.3-1.7-0.8
		c-0.4-0.4-0.7-1-0.8-1.6c-0.3-1.9,1.4-3.4,3.1-3.3c0.6,0.1,1.2,0.1,1.7,0.4c1.4,0.8,1.9,2.4,1.7,3.9c-0.3,1-0.8,1.8-1.5,2.4
		c-0.8,0.6-1.8,0.8-2.7,0.8c0,0-0.5,0-1,0c-2.1,0-7.4,0-7.4,0L15.8,6.8z M24.3,28.5l-4.9-11.9l-4.9,11.9H24.3z"/>
</g>
<path class="st1" d="M10.3,26.8L10,26.7c-0.2,0-0.3,0.1-0.5,0.1c0,0-0.1,0.1-0.1,0.1c-0.1,0.1-0.2,0.9-0.2,0.9
	c-0.2-0.4-0.9-0.2-0.9-0.2c-0.4,0.2-0.7,0.5-0.9,0.9c-0.5,0.8-0.8,1.7-1,2.7c-0.1,0.5-0.2,0.9-0.2,1.4C6,33,6,33.4,6,33.8
	c0.1,0.6,0.2,1.2,0.5,1.8c0.2,0.5,0.5,0.9,1,1.1h0.3c0.4-0.1,0.7-0.5,0.8-0.9c0.2-0.6,0.2-1.2,0.2-1.9c0-0.4-0.1-0.8-0.2-1.2
	c0-0.6,0-1.1,0.3-1.6c0.1-0.2,0.2-0.5,0.3-0.7c0,0,0-0.1,0.1-0.1c0.1,0.2,0.1,0.3,0.2,0.5c0.2,0.6,0.2,1.1,0.1,1.7
	c-0.1,0.7-0.2,1.4,0,2.2c0.1,0.4,0.2,0.8,0.5,1c0.2,0.2,0.5,0.3,0.7,0.3c0.4,0,0.6-0.3,0.8-0.6c0.5-0.8,0.7-1.6,0.8-2.5
	c0-0.8-0.1-1.6-0.3-2.4c-0.2-0.8-0.5-1.5-0.8-2.3C11.1,27.5,10.8,27.1,10.3,26.8"/>
<path class="st2" d="M7.3,34.3c-0.3,0.1-0.6,0-0.8-0.2c-0.2-0.3-0.4-0.9-0.3-1.2c0.3-0.1,0.7-0.2,1-0.2c0,0,0.1,0,0.1,0
	c0.3,0.2,0.6,0.4,0.9,0.5C8.1,33.7,7.8,34.1,7.3,34.3z"/>
<path class="st2" d="M8.3,32.8c-0.2-0.1-0.3-0.2-0.5-0.3c0.2-0.1,0.4-0.2,0.6-0.3C8.4,32.3,8.3,32.5,8.3,32.8z"/>
<path class="st2" d="M8.6,29.6c0,0.5-0.1,1.1-0.1,1.6c0,0.1,0,0.1-0.1,0.2c-0.3,0.2-0.7,0.4-1,0.6c0,0-0.1,0-0.1,0
	c-0.2-0.3-0.5-0.5-0.7-0.8c0,0,0-0.1,0-0.2c0.2-0.5,0.3-1,0.5-1.5c0.1-0.3,0.2-0.5,0.4-0.8c0.1-0.2,0.2-0.3,0.3-0.4
	c0.1-0.1,0.2-0.1,0.3-0.2c0.2-0.1,0.4,0,0.5,0.3c0,0.2,0.1,0.4,0.1,0.6C8.7,29.3,8.6,29.4,8.6,29.6C8.6,29.6,8.6,29.6,8.6,29.6z"/>
<path class="st2" d="M9.9,30.3c0-0.5-0.1-1.1-0.1-1.6c0,0,0,0,0,0c0-0.3,0-0.6,0-0.9c0-0.1,0-0.1,0-0.2c0.1-0.3,0.3-0.4,0.5-0.3
	c0.1,0.1,0.3,0.2,0.4,0.3c0.2,0.3,0.4,0.6,0.5,0.9c0.2,0.6,0.4,1.1,0.6,1.7c0,0.1,0,0.1,0,0.2c-0.2,0.3-0.4,0.5-0.7,0.8
	c0,0.1-0.1,0.1-0.1,0c-0.3-0.2-0.6-0.4-1-0.6C10,30.5,9.9,30.4,9.9,30.3z"/>
<path class="st2" d="M10.1,31.3c0.2,0.1,0.4,0.2,0.6,0.3c-0.2,0.1-0.3,0.2-0.5,0.3C10.1,31.7,10.1,31.5,10.1,31.3z"/>
<path class="st2" d="M6.6,31.7C6.7,31.9,6.8,32,7,32.3c-0.2,0-0.4,0-0.6,0.1C6.4,32.1,6.5,31.9,6.6,31.7z"/>
<path class="st2" d="M12.3,32.1c0,0.4-0.1,0.7-0.3,1.1c-0.2,0.4-0.5,0.5-0.9,0.3c-0.5-0.2-0.7-0.6-0.8-1.1c0.3-0.2,0.6-0.4,0.9-0.5
	c0,0,0.1,0,0.1,0C11.6,31.9,11.9,31.9,12.3,32.1C12.2,32,12.3,32.1,12.3,32.1z"/>
<path class="st2" d="M11.7,31.5c0.2-0.1,0.3-0.3,0.4-0.4c0,0.1,0.1,0.3,0.1,0.6C12,31.6,11.9,31.5,11.7,31.5z"/>
<g>
	<path class="st2" d="M20,34.6c-0.3,0.3-0.7,0.5-1.2,0.5c-0.8,0-1.4-0.5-1.4-1.2v0c0-0.5,0.3-0.9,0.8-1.1c-0.2-0.3-0.3-0.5-0.3-0.8
		v0c0-0.6,0.5-1.1,1.3-1.1c0.7,0,1.2,0.5,1.2,1v0c0,0.6-0.4,0.9-0.9,1.1l0.6,0.6c0.1-0.2,0.3-0.5,0.4-0.7l0.7,0.4
		c-0.2,0.3-0.3,0.6-0.5,0.9l0.6,0.6l-0.7,0.5L20,34.6z M19.5,34.1l-0.8-0.8c-0.3,0.1-0.4,0.3-0.4,0.5v0c0,0.3,0.2,0.5,0.6,0.5
		C19.1,34.3,19.3,34.2,19.5,34.1z M19.5,31.9L19.5,31.9c0-0.2-0.2-0.4-0.4-0.4c-0.2,0-0.4,0.2-0.4,0.4v0c0,0.2,0.1,0.3,0.2,0.5
		C19.4,32.3,19.5,32.1,19.5,31.9z"/>
</g>
<text transform="matrix(1 0 0 1 15.5212 28.5047)" class="st0 st3 st4">rts</text>
<g>
	<path class="st5" d="M8,40L8,40c0-0.8,0.6-1.4,1.4-1.4c0.5,0,0.8,0.2,1.1,0.5L10,39.5c-0.2-0.2-0.3-0.3-0.6-0.3
		c-0.4,0-0.7,0.3-0.7,0.7v0c0,0.4,0.3,0.7,0.7,0.7c0.3,0,0.4-0.1,0.6-0.3l0.5,0.5c-0.3,0.3-0.6,0.5-1.1,0.5C8.6,41.4,8,40.8,8,40z"
		/>
	<path class="st5" d="M11.3,40.4v-1.8h0.8v1.5c0,0.4,0.2,0.6,0.5,0.6c0.3,0,0.5-0.2,0.5-0.6v-1.5h0.8v2.7H13v-0.4
		c-0.2,0.2-0.4,0.4-0.8,0.4C11.6,41.4,11.3,41,11.3,40.4z"/>
	<path class="st5" d="M14.8,37.6h0.8v3.7h-0.8V37.6z"/>
	<path class="st5" d="M17.1,40.6v-1.3h-0.3v-0.7h0.3v-0.7h0.8v0.7h0.6v0.7h-0.6v1.2c0,0.2,0.1,0.3,0.2,0.3c0.1,0,0.3,0,0.4-0.1v0.6
		c-0.2,0.1-0.3,0.2-0.6,0.2C17.4,41.4,17.1,41.2,17.1,40.6z"/>
	<path class="st5" d="M19.7,40.4v-1.8h0.8v1.5c0,0.4,0.2,0.6,0.5,0.6c0.3,0,0.5-0.2,0.5-0.6v-1.5h0.8v2.7h-0.8v-0.4
		c-0.2,0.2-0.4,0.4-0.8,0.4C20.1,41.4,19.7,41,19.7,40.4z"/>
	<path class="st5" d="M23.5,38.6h0.8v0.5c0.2-0.4,0.4-0.6,0.9-0.6v0.8h0c-0.5,0-0.8,0.3-0.8,1v1h-0.8V38.6z"/>
	<path class="st5" d="M25.8,40L25.8,40c0-0.8,0.6-1.4,1.3-1.4c0.9,0,1.3,0.7,1.3,1.5c0,0.1,0,0.1,0,0.2h-1.9
		c0.1,0.3,0.3,0.5,0.7,0.5c0.3,0,0.4-0.1,0.7-0.3l0.4,0.4c-0.3,0.3-0.6,0.5-1.1,0.5C26.4,41.4,25.8,40.8,25.8,40z M27.7,39.8
		c0-0.3-0.2-0.6-0.6-0.6c-0.3,0-0.5,0.2-0.6,0.6H27.7z"/>
</g>
<path class="st6" d="M27,27c-0.3-0.5-0.6-1-0.8-1.5c-0.5-1-1-1.9-1.5-2.9c-0.6-1.2-1.2-2.4-1.8-3.7c-0.5-0.9-0.9-1.9-1.3-2.9
	c-0.4-0.8-0.7-1.7-1.1-2.5c-0.3-0.7-0.5-1.5-0.7-2.3c-0.1-0.2-0.1-0.5-0.2-0.7c0.1-0.1,0.2-0.3,0.3-0.4c0.1-0.3,0.3-0.6,0.4-0.9
	c0-0.1,0.1-0.1,0.1,0c0.3,0.5,0.6,0.9,0.8,1.4c0.3,0.7,0.6,1.4,0.9,2.1c0.6,1.7,1.3,3.4,1.9,5.1c0.5,1.4,1,2.8,1.5,4.2
	c0.4,1.2,0.8,2.4,1.2,3.7c0.1,0.4,0.2,0.7,0.3,1.1C27,26.9,27,27,27,27C27,27,27,27,27,27z"/>
<polygon class="st2" points="23.2,7.3 23.4,8.4 23.4,8.5 23.2,8.5 "/>
<path class="st2" d="M23.2,8.7l0.2,0.1l0-0.1l0.4,2.3c0,0-0.1,0.3-0.1,0.4c0,0,0,0.2,0,0.2l-0.1-0.1l-0.1-0.2c0,0-0.1-0.1-0.1,0.1
	c0,0.2,0,0.3,0,0.3l0,0.2c0,0-0.2-0.5-0.3-0.5C23.2,11.5,23.2,8.7,23.2,8.7z"/>
<path class="st6" d="M24.1,27.4l-0.9-15.5l0.3,0.6l0.1-0.7c0,0,0,0,0.1,0c0,0.1,0.1,0.3,0.1,0.4c0,0,0.1,0.1,0.1-0.1
	c0-0.2,0-0.4,0.1-0.4l0.9,16L24.1,27.4z"/>
<g>
	<path class="st2" d="M30.4,38.3c0.3,0,0.6,0,0.9,0c0,1.1,0,2.1,0,3.2c0.1,0,0.2,0,0.3,0c0,0.8,0,1.6,0,2.4c-0.4,0-0.8,0-1.2,0"/>
	<path class="st2" d="M30.4,43.9c0-1.8,0-3.7-0.1-5.6"/>
	<path class="st2" d="M34.2,43.9c-0.4,0-0.8,0-1.2,0c0-0.8,0-1.6,0-2.4c0.1,0,0.2,0,0.3,0c0-1.1,0-2.1,0-3.2c0.3,0,0.6,0,0.9,0
		C34.2,40.2,34.2,42,34.2,43.9z"/>
	<path class="st2" d="M35.2,41.5c0.1,0,0.2,0,0.3,0c0,0.8,0,1.6,0,2.4c-0.4,0-0.8,0-1.2,0c0-1.8,0-3.7-0.1-5.5c0.3,0,0.6,0,0.9,0
		C35.2,39.3,35.2,40.4,35.2,41.5z"/>
	<path class="st2" d="M32,38.3c0.2,0,0.4,0,0.6,0c0,1.1,0,2.1,0,3.2c0.1,0,0.2,0,0.3,0c0,0.8,0,1.6,0,2.4c-0.4,0-0.8,0-1.2,0
		c0-0.8,0-1.6,0-2.3c0.1,0,0.2,0,0.3,0C32,40.4,32,39.4,32,38.3z"/>
	<path class="st2" d="M35.8,38.3c0.2,0,0.4,0,0.6,0c0,1.1,0,2.1,0,3.2c0.1,0,0.2,0,0.3,0c0,0.8,0,1.6,0,2.3c-0.4,0-0.8,0-1.2,0
		c0-0.8,0-1.5,0-2.3c0.1,0,0.2,0,0.3,0C35.9,40.4,35.9,39.3,35.8,38.3z"/>
	<path class="st2" d="M37.2,38.3c0.2,0,0.4,0,0.6,0c0,1.1,0,2.1,0,3.2c0.1,0,0.2,0,0.3,0c0,0.8,0,1.6,0,2.3c-0.4,0-0.8,0-1.2,0
		c0-0.8,0-1.5,0-2.3c0.1,0,0.2,0,0.3,0C37.2,40.4,37.2,39.3,37.2,38.3z"/>
</g>
<path class="st1" d="M13.3,13.7c0,0,0.7-2.4,3.4-1.5c0,0,2.6,1,1.5,3.6L13.3,13.7z"/>
<path class="st7" d="M14.2,14c0,0,0.5-1.7,2.3-1c0,0,1.7,0.7,0.9,2.4L14.2,14z"/>
<polyline class="st8" points="14.1,14.1 13.5,13.6 14.2,13.7 13.8,13.2 14.4,13.4 14.2,12.7 14.7,13.1 14.7,12.4 15.1,12.9 
	15.2,12.3 15.5,12.8 15.7,12.2 16,12.8 16.2,12.3 16.3,12.9 16.7,12.5 16.7,13 17.1,12.7 17.1,13.3 17.5,13 17.3,13.5 17.9,13.4 
	17.6,13.9 18.2,13.9 17.8,14.4 18.4,14.4 17.8,14.7 18.4,15 17.7,15.1 18.3,15.6 17.6,15.5 "/>
<path class="st2" d="M16.4,17.3l0,0.2l0.7,0.1l-0.4,0.8l-0.5-0.2L16,18.1l-0.2,0.5c0,0,0.1,0.3-0.3,0.1c0,0-0.4,0.6-0.4,0.8
	c0,0.1,0.3,0.7-0.1,0.8c0,0-0.1,0.1-0.3,0c0,0-0.7,1.4-0.7,1.4l1.5,0.6c0,0-0.7,1.9-3.2,0.8l0,0c-2.7-1.1-1.9-2.9-1.9-2.9l1.6,0.7
	c0,0,0.5-1.5,0.5-1.5c-0.2-0.1-0.2-0.2-0.2-0.2c-0.3-0.4,0.4-0.6,0.5-0.6c0.2-0.2,0.3-0.9,0.4-0.8c-0.5-0.2-0.1-0.3-0.1-0.3l0.2-0.5
	L13.2,17l-0.6-0.2l0.4-0.8l0.6,0.5l0.2-0.1"/>
<path class="st2" d="M15.1,16.4c0.9,0.4,2-0.8,2-0.8l-2.9-1.2C14.3,14.3,14.2,16,15.1,16.4"/>
<ellipse transform="matrix(0.3872 -0.922 0.922 0.3872 -5.4599 22.4982)" class="st1" cx="14.2" cy="15.4" rx="0.3" ry="0.3"/>
<ellipse transform="matrix(0.3872 -0.922 0.922 0.3872 -4.9525 25.1513)" class="st1" cx="16.4" cy="16.3" rx="0.3" ry="0.3"/>
<path class="st2" d="M13.4,14l0.2,0.1l0-0.1l0.2,0.1l0,0.1l0.2,0.1l-0.3,0.4l0.3-0.1c0,0,0,0.5-0.6,0.5l-0.1,0.1l-0.1,0l0-0.2
	c0,0-0.4-0.2-0.1-0.7c0,0,0.2,0.3,0.2,0.3L13.4,14z"/>
<path class="st2" d="M17.6,15.7l0.2,0.1l0-0.1l0.2,0.1l0,0.1l0.2,0.1l-0.3,0.4l0.3-0.1c0,0,0,0.5-0.6,0.5l-0.1,0.1l-0.1,0l0-0.2
	c0,0-0.4-0.2-0.1-0.7c0,0,0.2,0.3,0.2,0.3L17.6,15.7z"/>
<path class="st2" d="M27.6,30.2c0,0,1.4,0.4,3.1-1.3c0,0,1.2,2.6,1.2,3c0,0-0.1,1.5-0.6,1.8c0,0-0.2,0-0.4,0.2c0,0-0.7,0.3-1.7-0.5
	c0,0-0.5-0.7-0.8-1.4C28.3,32,27.7,30.4,27.6,30.2C27.6,30.3,27.6,30.2,27.6,30.2z"/>
<path class="st2" d="M30.6,31.9c0,0,1,1,3.2,0.2c0,0-0.1,2.7-0.3,3c0,0-0.7,1.2-1.3,1.3c0,0-0.2-0.1-0.4,0c0,0-0.7-0.1-1.2-1.2
	c0,0-0.2-0.8,0-1.5C30.5,33.7,30.7,32,30.6,31.9C30.6,32,30.6,31.9,30.6,31.9z"/>
<path class="st0" d="M29.2,32.7c0,0,1.3,0.3,2.1-0.9c0,0,0,0.7-0.7,1.1C30.5,32.9,29.8,33.2,29.2,32.7
	C29.2,32.7,29.2,32.7,29.2,32.7z"/>
<path class="st0" d="M30.9,30.8c0,0-0.6-0.3-1,0.1c0,0-0.2-0.6,0.4-0.7c0,0,0.4,0,0.6,0.5C30.8,30.7,30.9,30.8,30.9,30.8z"/>
<path class="st0" d="M29.7,31.1c0,0-0.8,0.1-1.1,0.7c0,0-0.4-0.5,0.2-0.9C28.8,30.8,29.3,30.6,29.7,31.1
	C29.6,31,29.7,31.1,29.7,31.1z"/>
<path class="st0" d="M32.8,35.6c0,0-0.8-0.6-1.7-0.3c0,0,0.2-0.4,0.8-0.3C31.9,35,32.5,35.1,32.8,35.6
	C32.8,35.6,32.8,35.6,32.8,35.6z"/>
<path class="st0" d="M30.6,33.3c0,0,0.7,0.2,1.2-0.1c0,0,0.2,0.6-0.5,0.7c0,0-0.5,0-0.6-0.5C30.7,33.4,30.6,33.3,30.6,33.3z"/>
<path class="st0" d="M32.3,33.2c0,0,0.6,0.4,1.2,0.2c0,0,0,0.6-0.7,0.5c0,0-0.5-0.1-0.5-0.6C32.2,33.3,32.3,33.2,32.3,33.2z"/>
<g>
	<path class="st0" d="M23.2,2.3c0,1.5,0,3,0,4.6c-2.5,0-5,0-7.5,0c0-1.5,0-3,0-4.6c0,0,0.1,0,0.1,0c2.4,0,4.8,0,7.2,0
		C23.1,2.3,23.2,2.3,23.2,2.3z M16.7,3.3C16.7,3.2,16.7,3.2,16.7,3.3c-0.1-0.3-0.2-0.5-0.3-0.8c0,0,0,0,0,0c-0.2,0-0.3,0-0.5,0
		c0,0,0,0,0,0C16,2.7,16.1,3,16.2,3.2c0,0,0,0,0,0C16.4,3.3,16.6,3.3,16.7,3.3z M17,2.4C17,2.4,17,2.5,17,2.4
		C17,2.7,17.1,3,17.2,3.2c0,0,0,0,0,0c0.2,0,0.3,0,0.5,0c-0.1-0.3-0.2-0.5-0.3-0.8c0,0,0,0,0,0C17.3,2.4,17.1,2.4,17,2.4z M19.9,3.3
		C19.9,3.2,19.9,3.2,19.9,3.3c-0.1-0.3-0.2-0.5-0.3-0.8c0,0,0,0,0,0c-0.2,0-0.3,0-0.5,0c0,0,0,0,0,0c0.1,0.3,0.2,0.5,0.3,0.8
		c0,0,0,0,0,0C19.6,3.3,19.7,3.3,19.9,3.3z M21.2,2.4C21.2,2.5,21.2,2.5,21.2,2.4c0.1,0.3,0.2,0.5,0.3,0.8c0,0,0,0,0,0
		c0.2,0,0.3,0,0.5,0c-0.1-0.3-0.2-0.5-0.3-0.8c0,0,0,0,0,0C21.5,2.4,21.4,2.4,21.2,2.4z M18,2.4c0.1,0.3,0.2,0.5,0.3,0.8
		c0,0,0,0,0,0c0.2,0,0.3,0,0.5,0c-0.1-0.3-0.2-0.5-0.3-0.8c0,0,0,0-0.1,0C18.3,2.4,18.2,2.4,18,2.4z M22.3,2.4
		C22.3,2.5,22.3,2.5,22.3,2.4c0.1,0.3,0.2,0.5,0.3,0.8c0,0,0,0,0,0c0.2,0,0.3,0,0.5,0C23,3,22.9,2.7,22.8,2.5c0,0,0,0,0,0
		C22.6,2.4,22.4,2.4,22.3,2.4z M21,3.3c-0.1-0.3-0.2-0.5-0.3-0.8c0,0,0,0,0,0c-0.2,0-0.3,0-0.5,0c0,0,0,0,0,0
		c0.1,0.3,0.2,0.5,0.3,0.8c0,0,0,0,0,0C20.6,3.3,20.8,3.3,21,3.3z"/>
	<path class="st0" d="M22.9,0c0,0.1,0,0.3,0.1,0.4c0,0.2,0.1,0.4,0.1,0.6c-2.5,0.4-5,0.8-7.5,1.2c0-0.2-0.1-0.3-0.1-0.5
		c0-0.2-0.1-0.4-0.1-0.5c0,0,0,0,0,0c0,0,0,0,0,0c0,0,0,0,0.1,0C16,1.1,16.5,1,17,0.9c0.9-0.1,1.7-0.3,2.6-0.4
		c0.9-0.1,1.9-0.3,2.8-0.4C22.5,0.1,22.7,0,22.9,0C22.9,0,22.9,0,22.9,0z M18.5,0.8c-0.2,0-0.3,0-0.5,0.1C18,0.9,18,0.9,18,1
		c0,0.2-0.1,0.3-0.1,0.5c0,0.1,0,0.2-0.1,0.3c0.1,0,0.1,0,0.2,0c0,0,0.1,0,0.1,0c0.2,0,0.2,0,0.3-0.2c0,0,0,0,0,0
		C18.5,1.2,18.5,1,18.5,0.8z M17.5,1c-0.1,0-0.3,0.1-0.4,0.1c-0.1,0-0.1,0-0.1,0.1c0,0.2-0.1,0.4-0.1,0.5c0,0.1,0,0.1,0,0.2
		c0.2,0,0.3,0,0.5-0.1c0,0,0.1,0,0.1-0.1C17.4,1.5,17.5,1.3,17.5,1z M21.1,1.3c0.2,0,0.3-0.1,0.5-0.1c0,0,0,0,0-0.1
		c0-0.2,0.1-0.3,0.1-0.5c0-0.1,0-0.2,0.1-0.3c-0.1,0-0.1,0-0.2,0c0,0-0.1,0-0.1,0c-0.2,0-0.2,0-0.2,0.2c0,0,0,0,0,0
		C21.2,0.8,21.1,1,21.1,1.3z M18.9,1.6c0.2,0,0.3,0,0.5-0.1c0,0,0,0,0,0c0.1-0.3,0.1-0.5,0.2-0.8c-0.2,0-0.3,0-0.5,0.1c0,0,0,0,0,0
		C19.1,1.1,19,1.3,18.9,1.6z M16.4,1.2c-0.2,0-0.3,0-0.5,0.1c0,0,0,0-0.1,0.1c0,0.1,0,0.1,0,0.2c0,0.2-0.1,0.4-0.1,0.6
		c0.2,0,0.3-0.1,0.5-0.1c0,0,0,0,0,0C16.3,1.7,16.4,1.4,16.4,1.2z M22.1,1.1c0.2,0,0.3,0,0.5-0.1c0,0,0,0,0.1-0.1
		c0-0.1,0.1-0.2,0.1-0.4c0-0.1,0.1-0.3,0.1-0.4c-0.2,0-0.3,0-0.5,0.1c0,0,0,0,0,0.1c0,0.1,0,0.2-0.1,0.4C22.2,0.8,22.2,0.9,22.1,1.1
		z M20,1.4c0.2,0,0.3-0.1,0.5-0.1c0,0,0,0,0-0.1c0-0.2,0.1-0.5,0.1-0.7c0,0,0,0,0-0.1c-0.2,0-0.3,0-0.5,0.1c0,0,0,0,0,0
		c0,0.1,0,0.1,0,0.2C20.1,1,20,1.2,20,1.4z"/>
	<path class="st2" d="M16.7,3.3c-0.2,0-0.3,0-0.5,0c0,0,0,0,0,0C16,3,15.9,2.7,15.8,2.5c0,0,0,0,0,0c0.2,0,0.3,0,0.5,0c0,0,0,0,0,0
		C16.5,2.7,16.6,3,16.7,3.3C16.7,3.2,16.7,3.2,16.7,3.3z"/>
	<path class="st2" d="M16.8,2.4c0.2,0,0.3,0,0.5,0c0,0,0,0,0,0c0.1,0.3,0.2,0.5,0.3,0.8c-0.2,0-0.3,0-0.5,0c0,0,0,0,0,0
		C17,3,16.9,2.7,16.8,2.4C16.8,2.5,16.8,2.4,16.8,2.4z"/>
	<path class="st2" d="M19.8,3.3c-0.2,0-0.3,0-0.5,0c0,0,0,0,0,0C19.2,3,19.1,2.7,19,2.5c0,0,0,0,0,0c0.2,0,0.3,0,0.5,0c0,0,0,0,0,0
		C19.6,2.7,19.7,3,19.8,3.3C19.8,3.2,19.8,3.2,19.8,3.3z"/>
	<path class="st2" d="M21.2,2.4c0.2,0,0.3,0,0.5,0c0,0,0,0,0,0C21.8,2.7,21.9,3,22,3.3c-0.2,0-0.3,0-0.5,0c0,0,0,0,0,0
		C21.4,3,21.3,2.7,21.2,2.4C21.2,2.5,21.2,2.5,21.2,2.4z"/>
	<path class="st2" d="M17.9,2.4c0.2,0,0.3,0,0.5,0c0,0,0,0,0.1,0c0.1,0.3,0.2,0.5,0.3,0.8c-0.2,0-0.3,0-0.5,0c0,0,0,0,0,0
		C18.1,3,18,2.7,17.9,2.4z"/>
	<path class="st2" d="M22.3,2.4c0.2,0,0.3,0,0.5,0c0,0,0,0,0,0C22.9,2.7,23,3,23.1,3.3c-0.2,0-0.3,0-0.5,0c0,0,0,0,0,0
		C22.4,3,22.4,2.7,22.3,2.4C22.3,2.5,22.3,2.5,22.3,2.4z"/>
	<path class="st2" d="M20.9,3.3c-0.2,0-0.3,0-0.5,0c0,0,0,0,0,0c-0.1-0.3-0.2-0.5-0.3-0.8c0,0,0,0,0,0c0.2,0,0.3,0,0.5,0
		c0,0,0,0,0,0C20.7,2.7,20.8,3,20.9,3.3z"/>
	<path class="st2" d="M18.5,0.8c0,0.2-0.1,0.4-0.1,0.6c0,0,0,0,0,0c0,0.2,0,0.2-0.3,0.2c0,0-0.1,0-0.1,0c0,0-0.1,0-0.2,0
		c0-0.1,0-0.2,0.1-0.3C17.9,1.3,18,1.1,18,1c0,0,0-0.1,0.1-0.1C18.2,0.9,18.4,0.8,18.5,0.8z"/>
	<path class="st2" d="M17.5,1c-0.1,0.3-0.1,0.5-0.2,0.8c0,0,0,0.1-0.1,0.1c-0.2,0-0.3,0-0.5,0.1c0-0.1,0-0.1,0-0.2
		c0-0.2,0.1-0.4,0.1-0.5c0-0.1,0-0.1,0.1-0.1C17.2,1,17.4,1,17.5,1z"/>
	<path class="st2" d="M21.1,1.3c0-0.2,0.1-0.4,0.1-0.7c0,0,0,0,0,0c0-0.2,0-0.2,0.2-0.2c0,0,0.1,0,0.1,0c0,0,0.1,0,0.2,0
		c0,0.1,0,0.2-0.1,0.3c0,0.2-0.1,0.3-0.1,0.5c0,0,0,0.1,0,0.1C21.4,1.2,21.3,1.2,21.1,1.3z"/>
	<path class="st2" d="M18.9,1.6c0.1-0.3,0.1-0.5,0.2-0.8c0,0,0,0,0,0c0.2,0,0.3-0.1,0.5-0.1c-0.1,0.3-0.1,0.5-0.2,0.8c0,0,0,0,0,0
		C19.3,1.5,19.1,1.6,18.9,1.6z"/>
	<path class="st2" d="M16.4,1.2c-0.1,0.3-0.1,0.5-0.2,0.8c0,0,0,0,0,0c-0.2,0-0.3,0.1-0.5,0.1c0-0.2,0.1-0.4,0.1-0.6
		c0-0.1,0-0.2,0-0.2c0,0,0-0.1,0.1-0.1C16.1,1.2,16.3,1.2,16.4,1.2z"/>
	<path class="st2" d="M22.1,1.1c0-0.2,0.1-0.3,0.1-0.4c0-0.1,0-0.2,0.1-0.4c0,0,0-0.1,0-0.1c0.2,0,0.3-0.1,0.5-0.1
		c0,0.2-0.1,0.3-0.1,0.4c0,0.1,0,0.2-0.1,0.4c0,0,0,0.1-0.1,0.1C22.5,1,22.3,1.1,22.1,1.1z"/>
	<path class="st2" d="M20,1.4c0-0.2,0.1-0.4,0.1-0.6c0-0.1,0-0.1,0-0.2c0,0,0,0,0,0c0.2,0,0.3-0.1,0.5-0.1c0,0,0,0,0,0.1
		c0,0.2-0.1,0.5-0.1,0.7c0,0,0,0.1,0,0.1C20.3,1.4,20.2,1.4,20,1.4z"/>
</g>
<path class="st2" d="M28.2,24.1C28.2,24.1,28.3,24.1,28.2,24.1c0.1,0.1,0.1,0.2,0.1,0.3c0,0.1,0.1,0.2,0.2,0.2
	c0.2,0.2,0.4,0.3,0.5,0.5c0.2,0.2,0.3,0.4,0.3,0.7c0,0.1,0,0.3,0,0.4c0,0,0,0,0,0.1c0.1,0.3,0.1,0.6,0,0.9c0,0.1-0.1,0.1-0.1,0.2
	c0,0,0,0-0.1,0c0,0,0-0.1,0-0.1c0.1-0.2,0.2-0.5,0.1-0.7c0-0.2-0.1-0.3-0.2-0.4c-0.1-0.1-0.3-0.2-0.5-0.3c-0.1-0.1-0.2-0.1-0.2-0.1
	c0,0.1,0,0.1,0,0.2c0,0.5,0,1,0,1.6c0,0.1,0,0.2-0.1,0.3C28,27.9,27.8,28,27.5,28c-0.2,0-0.3-0.1-0.3-0.3c0-0.1,0-0.2,0-0.2
	c0.1-0.3,0.6-0.5,0.9-0.5c0.1,0,0.1,0,0.2,0.1C28.2,26.1,28.2,25.1,28.2,24.1z"/>
<path class="st0" d="M28.3,24.8C28.3,24.8,28.3,24.8,28.3,24.8c0.1,0.3,0.2,0.6,0.4,0.7c0.2,0.1,0.3,0.3,0.4,0.4c0,0,0,0,0,0.1
	c0,0,0,0,0,0c0-0.1,0-0.1,0-0.2c0-0.2,0-0.3-0.1-0.4C28.9,25.1,28.6,24.9,28.3,24.8z"/>
<path class="st6" d="M18.3,4.4c0,0.3,0.1,0.6,0.2,0.9c0.2,0.6,0.5,1,0.8,1.4c0.3,0.3,0.5,0.7,0.7,1.3c0.1,0.4,0.2,0.7,0.1,1.1
	c0,0.2-0.1,0.3-0.1,0.4c-0.1,0.3-0.3,0.5-0.5,0.6c-0.1,0-0.1,0-0.2-0.1c-0.2-0.2-0.5-0.5-0.7-0.9c-0.3-0.6-0.5-1.3-0.6-2.1
	C18,6.1,18.1,5.2,18.3,4.4C18.3,4.4,18.3,4.4,18.3,4.4z"/>
</svg>
