<?xml version="1.0" encoding="UTF-8" standalone="no"?>
<!DOCTYPE svg PUBLIC "-//W3C//DTD SVG 1.1//EN" "http://www.w3.org/Graphics/SVG/1.1/DTD/svg11.dtd">
<svg viewBox="0 0 1280 720" height="720.0pt" width="1280.0pt" xmlns="http://www.w3.org/2000/svg" version="1.1">
<path d="M 0.00 0.00 L 1280.00 0.00 L 1280.00 720.00 L 0.00 720.00 L 0.00 0.00 Z" fill="#ffffff" />
<path d="M 320.20 132.14 C 325.51 131.98 330.96 135.83 334.81 139.18 C 344.07 147.52 351.69 158.27 358.01 168.96 C 363.21 177.74 368.34 186.21 372.58 195.51 C 373.71 197.75 374.84 200.49 376.76 202.16 C 378.89 203.00 381.27 203.34 383.51 203.73 C 401.30 206.43 419.15 210.50 435.96 217.00 C 443.99 220.14 451.72 223.93 457.07 230.95 C 459.96 234.73 459.95 240.30 456.95 244.01 C 454.70 246.77 451.02 248.56 447.81 249.94 C 437.82 254.08 426.25 255.51 415.54 256.31 C 401.24 257.23 386.70 256.84 372.39 256.32 C 372.42 259.22 372.45 262.11 372.62 265.00 C 374.06 283.67 375.31 302.35 376.61 320.98 C 376.91 326.16 377.83 331.54 377.41 336.71 C 377.16 340.10 371.18 341.03 370.22 337.70 C 368.97 333.33 368.96 328.53 368.59 324.01 C 367.87 311.67 366.97 299.35 365.92 287.03 C 365.53 279.44 365.10 271.90 364.44 264.33 C 361.25 268.79 357.34 272.62 353.96 276.90 C 351.95 279.30 352.03 281.96 351.71 284.91 C 351.00 296.06 350.06 307.20 348.87 318.32 C 348.26 324.04 348.66 330.09 347.58 335.70 C 347.27 337.20 346.76 338.60 345.44 339.49 C 343.61 339.88 340.81 339.92 340.06 337.78 C 339.09 334.76 339.91 331.02 340.12 327.89 C 341.00 315.02 342.50 302.13 342.81 289.23 C 338.59 293.56 334.07 297.55 329.46 301.45 C 323.45 306.38 317.69 310.84 310.13 313.19 C 305.69 314.34 300.79 314.12 297.66 310.33 C 294.04 305.82 294.38 299.64 295.35 294.27 C 298.07 280.28 304.61 266.73 311.14 254.16 C 316.18 245.14 321.08 236.07 326.50 227.27 C 328.89 223.85 326.67 221.12 325.59 217.69 C 319.80 202.33 314.82 186.50 311.60 170.39 C 310.01 161.47 308.66 151.47 310.53 142.52 C 311.75 137.48 314.52 132.66 320.20 132.14 Z" fill="#70ac48" />
<path d="M 910.87 132.73 C 913.27 133.61 916.12 135.46 916.33 138.27 C 916.72 141.81 916.52 145.44 916.57 149.00 C 916.53 152.20 916.72 155.49 916.33 158.67 C 916.18 160.24 914.46 161.54 913.24 162.33 C 909.86 165.39 904.35 161.32 903.68 157.70 C 903.25 151.67 903.34 145.28 903.63 139.24 C 903.67 135.55 907.38 132.60 910.87 132.73 Z" fill="#efe33a" />
<path d="M 320.11 140.57 C 324.02 141.04 327.71 143.86 330.51 146.49 C 338.13 153.76 344.21 163.23 349.99 172.00 C 354.92 180.05 359.33 188.44 363.85 196.72 C 356.53 196.26 349.43 197.30 343.05 201.06 C 338.60 203.57 335.83 207.28 332.77 211.23 C 328.10 201.00 325.22 190.33 322.23 179.53 C 320.07 171.87 318.75 163.96 317.94 156.04 C 317.60 150.74 317.28 145.31 320.11 140.57 Z" fill="#ffffff" />
<path d="M 875.15 143.75 C 877.80 145.65 879.31 149.33 881.05 152.04 C 884.07 157.50 888.22 161.51 886.35 168.29 C 883.93 170.13 880.43 171.28 877.71 169.34 C 874.25 167.11 872.02 162.57 869.85 159.16 C 867.45 154.92 864.27 150.79 865.55 145.62 C 867.46 142.83 872.26 142.99 875.15 143.75 Z" fill="#efe33a" />
<path d="M 950.71 143.43 C 952.48 143.70 954.38 144.38 954.52 146.46 C 955.73 152.33 951.67 156.22 948.94 160.90 C 947.27 163.48 945.80 166.40 943.76 168.71 C 942.16 170.47 939.28 170.71 937.11 170.09 C 935.43 169.45 933.43 168.81 933.40 166.68 C 932.84 163.32 933.80 160.42 935.57 157.61 C 938.26 153.38 940.63 148.71 943.96 144.95 C 945.55 143.02 948.46 143.24 950.71 143.43 Z" fill="#efe33a" />
<path d="M 654.28 153.94 C 656.73 152.66 658.43 154.38 660.30 155.75 C 665.76 160.46 670.74 166.11 675.57 171.43 C 681.57 177.73 687.87 183.75 693.76 190.15 C 703.49 201.02 714.30 211.00 724.24 221.70 C 730.56 228.74 737.40 235.29 743.68 242.38 C 753.83 252.88 764.29 263.07 774.19 273.82 C 776.99 276.99 781.04 280.03 782.71 283.95 C 783.11 287.62 779.67 290.52 776.09 289.47 C 773.55 288.10 771.41 285.65 769.42 283.58 C 765.79 279.65 762.01 275.88 758.31 272.02 C 758.01 276.01 757.70 279.99 757.75 284.00 C 757.78 324.96 757.76 365.90 757.74 406.86 C 748.86 407.41 739.94 407.08 731.00 407.16 C 717.90 407.02 704.77 407.47 691.69 406.90 C 691.41 368.07 691.66 329.23 691.55 290.40 C 686.70 290.23 681.85 290.14 677.00 290.19 C 658.15 290.29 639.29 289.96 620.45 290.40 C 620.33 329.23 620.58 368.08 620.31 406.91 C 610.56 407.42 600.76 407.06 591.00 407.16 C 578.77 407.01 566.50 407.50 554.29 406.84 C 554.06 364.90 554.37 322.94 554.20 281.00 C 554.11 278.21 553.83 275.40 553.59 272.62 C 549.78 276.15 546.14 279.81 542.62 283.62 C 540.71 285.60 538.70 287.89 536.31 289.29 C 533.08 290.79 528.60 288.00 529.30 284.24 C 530.11 281.37 532.72 278.88 534.67 276.71 C 542.32 268.67 550.39 261.08 557.71 252.73 C 568.28 241.64 579.28 230.97 589.86 219.89 C 598.11 210.48 607.37 202.06 615.84 192.84 C 625.02 182.73 634.89 173.23 644.40 163.43 C 647.49 160.30 650.40 156.06 654.28 153.94 Z" fill="#70ac48" />
<path d="M 840.46 169.55 C 845.72 168.40 851.15 173.11 855.81 175.13 C 858.79 176.75 863.11 177.97 865.17 180.77 C 866.24 184.03 866.19 189.34 861.90 190.16 C 858.12 190.92 853.69 188.30 850.43 186.58 C 846.46 184.26 842.16 182.26 838.52 179.45 C 834.78 177.23 836.04 170.20 840.46 169.55 Z" fill="#efe33a" />
<path d="M 904.40 169.55 C 908.96 169.32 913.63 169.19 918.16 169.83 C 927.00 171.20 935.41 176.11 942.07 181.94 C 956.36 194.20 959.44 217.35 948.95 232.95 C 943.27 241.54 934.57 248.71 924.56 251.52 C 917.73 253.96 910.67 254.03 903.53 253.43 C 890.46 251.91 878.91 244.27 871.45 233.58 C 867.09 227.17 865.08 219.69 864.63 212.01 C 864.85 196.64 873.83 181.43 887.93 174.88 C 893.30 172.32 898.35 169.98 904.40 169.55 Z" fill="#efe33a" />
<path d="M 978.91 168.95 C 983.68 169.46 984.82 174.34 983.04 178.07 C 980.85 180.77 977.21 182.51 974.23 184.21 C 970.27 186.26 966.30 188.64 962.06 190.06 C 957.49 192.33 951.12 184.89 955.03 181.05 C 957.56 178.01 962.02 176.27 965.44 174.37 C 969.51 172.40 974.31 169.04 978.91 168.95 Z" fill="#efe33a" />
<path d="M 707.43 178.61 C 717.40 178.13 727.47 178.59 737.46 178.49 C 737.49 194.02 737.58 209.56 737.40 225.09 C 730.44 218.54 723.80 211.67 717.42 204.56 C 714.26 200.90 709.87 197.74 707.50 193.53 C 706.33 188.98 706.46 183.20 707.43 178.61 Z" fill="#70ac48" />
<path d="M 902.39 182.38 C 910.26 180.55 919.20 181.53 926.18 185.75 C 931.46 188.93 936.18 192.47 938.80 198.25 C 942.05 204.31 942.11 210.79 941.42 217.47 C 940.47 224.70 935.01 231.08 929.39 235.36 C 921.68 241.24 911.64 242.86 902.28 240.69 C 895.62 239.43 889.51 234.91 884.91 230.10 C 879.95 225.01 878.25 217.88 877.82 210.99 C 878.00 204.36 880.87 198.09 884.88 192.90 C 886.94 190.25 889.34 187.29 892.40 185.77 C 895.55 184.21 898.97 183.16 902.39 182.38 Z" fill="#ffffff" />
<path d="M 352.53 205.82 C 356.06 205.02 359.92 204.91 363.49 205.60 C 369.66 206.87 374.99 211.65 378.03 217.02 C 383.23 226.63 380.79 239.25 371.89 245.80 C 363.71 252.83 351.05 251.92 343.41 244.58 C 340.37 241.49 338.02 237.58 336.86 233.40 C 334.41 222.14 340.93 208.80 352.53 205.82 Z" fill="#ffffff" />
<path d="M 830.99 205.48 C 834.32 205.31 837.67 205.44 841.00 205.42 C 845.56 205.69 851.25 204.64 855.47 206.56 C 860.49 208.98 858.34 217.55 852.89 217.39 C 846.59 217.75 840.25 217.57 833.94 217.63 C 831.22 217.46 828.36 217.86 826.61 215.29 C 823.79 211.90 826.19 205.06 830.99 205.48 Z" fill="#efe33a" />
<path d="M 974.01 205.45 C 979.31 205.70 985.42 204.73 990.47 206.47 C 995.34 208.39 994.03 216.79 988.89 217.22 C 983.67 217.94 978.26 217.43 973.00 217.58 C 969.85 217.48 965.77 217.96 963.15 215.93 C 960.85 214.49 961.39 210.60 961.12 208.24 C 965.15 205.64 969.31 205.26 974.01 205.45 Z" fill="#efe33a" />
<path d="M 352.53 211.57 C 357.50 209.59 363.21 210.47 367.67 213.31 C 374.60 218.34 377.09 228.90 372.20 236.16 C 368.00 243.06 358.96 245.56 351.65 242.37 C 346.10 239.77 342.49 234.06 342.36 227.95 C 342.03 221.32 346.04 213.83 352.53 211.57 Z" fill="#70ac48" />
<path d="M 385.55 213.33 C 389.33 213.26 393.28 214.17 396.99 214.89 C 406.61 216.90 416.47 218.98 425.77 222.21 C 433.19 224.66 441.30 227.66 447.51 232.52 C 448.79 233.65 450.63 235.17 450.64 237.01 C 451.16 239.15 448.50 240.14 447.05 241.07 C 439.11 244.90 429.72 246.54 421.02 247.39 C 407.83 248.51 394.65 248.80 381.45 247.75 C 385.68 242.14 388.84 236.15 388.80 228.93 C 389.24 223.28 387.17 218.57 385.55 213.33 Z" fill="#ffffff" />
<path d="M 355.52 219.48 C 359.03 218.48 362.47 219.29 364.71 222.29 C 368.15 226.19 366.39 232.78 361.62 234.67 C 357.50 236.69 352.14 234.36 350.97 229.89 C 349.72 225.75 351.22 221.01 355.52 219.48 Z" fill="#ffffff" />
<path d="M 960.58 232.61 C 964.87 233.64 968.87 236.33 972.81 238.29 C 975.89 240.00 979.52 241.55 982.06 244.02 C 984.81 246.76 983.59 252.75 979.52 253.52 C 975.23 254.47 970.78 251.81 967.11 249.87 C 962.90 247.39 957.87 245.09 954.54 241.44 C 951.12 237.63 956.20 231.56 960.58 232.61 Z" fill="#efe33a" />
<path d="M 862.87 232.68 C 865.56 234.33 867.90 237.89 865.98 240.95 C 863.33 244.45 858.38 246.46 854.69 248.73 C 850.49 251.01 846.41 254.45 841.33 253.56 C 838.40 252.88 835.32 249.17 836.95 246.08 C 838.46 241.83 843.79 240.35 847.38 238.29 C 851.87 236.06 857.70 231.94 862.87 232.68 Z" fill="#efe33a" />
<path d="M 330.00 237.95 C 332.44 243.31 335.32 248.28 339.94 252.07 C 344.97 256.48 350.77 257.85 356.99 259.78 C 354.83 262.67 352.65 265.57 350.32 268.33 C 338.58 281.26 328.22 293.89 312.97 303.03 C 310.04 304.75 306.87 305.37 303.55 305.87 C 303.08 300.68 302.99 295.58 304.52 290.54 C 310.23 271.19 319.97 255.13 330.00 237.95 Z" fill="#ffffff" />
<path d="M 887.36 258.02 C 886.82 262.82 883.07 267.53 880.61 271.59 C 878.94 274.11 877.45 277.08 875.23 279.16 C 872.93 280.65 869.12 280.92 866.98 279.00 C 864.92 276.91 864.95 273.59 866.08 271.05 C 867.96 266.84 870.61 262.95 872.98 258.99 C 874.82 256.13 876.84 253.04 880.50 252.51 C 883.80 251.76 887.15 254.88 887.36 258.02 Z" fill="#efe33a" />
<path d="M 938.11 252.66 C 941.58 251.98 944.03 254.52 945.88 257.06 C 948.45 260.89 950.80 264.95 953.02 269.00 C 954.48 271.70 955.46 275.01 954.03 277.93 C 951.12 281.11 946.08 281.13 943.43 277.57 C 938.70 271.31 934.76 264.34 932.19 256.91 C 934.04 255.43 935.94 253.63 938.11 252.66 Z" fill="#efe33a" />
<path d="M 908.39 260.27 C 911.18 258.99 914.84 261.25 916.01 263.83 C 916.97 267.35 916.50 271.37 916.61 275.00 C 916.52 278.72 916.82 282.63 916.12 286.29 C 914.18 291.12 904.26 290.72 903.91 284.97 C 903.24 278.72 903.43 272.22 903.64 265.94 C 903.82 262.69 905.38 261.17 908.39 260.27 Z" fill="#efe33a" />
<path d="M 472.95 277.40 C 478.24 277.50 481.41 280.51 484.28 284.57 C 486.95 288.67 491.76 287.64 494.76 291.21 C 495.87 292.49 496.83 293.94 497.79 295.33 C 501.68 293.66 505.24 292.15 509.54 293.49 C 514.23 294.64 516.34 298.80 517.36 303.16 C 517.84 306.04 516.47 309.33 515.57 312.07 C 517.72 312.93 520.16 313.74 522.00 315.17 C 523.72 316.68 524.90 318.92 526.29 320.74 C 528.38 323.79 532.77 325.14 534.75 328.19 C 536.72 331.52 537.65 336.13 535.72 339.70 C 533.78 343.42 530.26 344.89 527.21 347.47 C 527.76 351.21 531.79 353.65 531.75 357.97 C 532.42 364.91 527.08 371.20 520.06 371.37 C 515.14 371.03 512.42 367.67 509.38 364.28 C 505.42 365.46 501.21 366.93 497.04 366.39 C 492.16 365.07 487.68 361.97 485.99 357.02 C 484.01 350.60 485.72 344.79 488.66 339.05 C 485.65 341.27 482.62 343.47 479.50 345.55 C 479.50 352.71 478.73 361.62 481.74 368.28 C 483.78 372.86 489.39 375.76 488.80 380.92 C 488.90 385.42 488.72 389.69 489.53 394.18 C 489.95 396.40 491.05 398.73 492.91 400.08 C 497.79 403.59 503.77 402.32 508.39 406.54 C 501.57 407.53 494.86 407.15 488.00 407.19 C 479.33 407.20 470.67 407.12 462.00 407.21 C 458.37 407.21 454.62 407.29 451.01 406.80 C 450.40 405.88 450.46 404.91 450.57 403.86 C 455.90 401.35 462.71 401.49 467.83 398.69 C 470.82 397.01 472.47 394.31 472.72 390.89 C 473.36 382.61 471.68 373.75 470.85 365.46 C 467.73 367.77 464.71 370.29 460.70 370.74 C 457.46 371.37 454.40 371.06 451.70 372.88 C 448.51 374.70 446.04 376.92 442.07 376.19 C 436.66 375.43 434.25 370.75 431.68 366.56 C 428.14 366.01 424.35 366.02 421.60 363.40 C 417.57 359.76 416.47 353.91 418.96 349.06 C 420.66 345.41 423.78 343.94 427.09 342.05 C 428.04 338.79 429.11 335.58 430.48 332.46 C 427.34 331.55 422.98 330.79 420.73 328.27 C 417.83 324.49 416.62 319.28 418.88 314.87 C 420.64 311.15 423.96 309.46 427.30 307.40 C 427.65 303.98 427.71 300.56 429.72 297.61 C 431.75 294.74 435.50 292.84 438.99 292.69 C 441.50 292.93 444.00 294.12 446.31 295.10 C 447.17 291.65 447.59 287.81 450.54 285.45 C 453.53 282.78 457.84 283.08 461.50 282.08 C 465.64 280.42 468.02 276.95 472.95 277.40 Z" fill="#70ac48" />
<path d="M 822.91 297.47 C 831.14 302.32 839.20 307.40 847.20 312.59 C 858.25 319.65 869.71 326.06 880.65 333.27 C 880.65 337.86 880.83 342.45 880.70 347.04 C 879.82 347.80 879.03 347.41 878.15 346.89 C 876.06 345.65 874.08 344.22 872.06 342.87 C 871.46 349.61 871.70 356.25 871.68 363.00 C 871.67 375.36 871.66 387.71 871.72 400.06 C 871.57 402.47 871.94 405.04 869.48 406.39 C 867.10 407.09 864.48 407.14 862.02 407.20 C 837.68 407.14 813.34 407.16 789.00 407.18 C 784.84 407.12 780.42 407.53 776.33 406.70 C 774.51 406.35 773.72 404.72 773.54 403.03 C 773.12 398.72 773.40 394.33 773.36 390.00 C 773.36 375.27 773.32 360.55 773.42 345.82 C 773.22 344.88 773.79 343.16 772.21 343.51 C 769.44 344.51 766.94 346.48 764.42 348.01 C 764.27 343.11 764.30 338.22 764.39 333.32 C 775.72 325.88 787.53 319.23 798.87 311.80 C 806.91 307.13 814.47 301.34 822.91 297.47 Z" fill="#70ac48" />
<path d="M 681.51 300.47 C 681.50 335.91 681.38 371.36 681.57 406.79 C 674.04 407.33 666.53 407.16 659.00 407.16 C 649.44 407.08 639.98 407.44 630.43 406.77 C 630.67 371.39 630.38 335.95 630.57 300.57 C 647.54 300.27 664.54 300.51 681.51 300.47 Z" fill="#70ac48" />
<path d="M 822.85 312.29 C 825.16 312.95 827.30 314.50 829.31 315.80 C 834.22 319.16 839.20 322.43 844.30 325.51 C 850.49 329.22 856.25 333.26 862.61 336.67 C 862.84 357.30 862.69 377.93 862.66 398.57 C 858.26 398.50 853.86 398.50 849.45 398.50 C 849.30 387.32 849.52 376.15 849.31 364.98 C 841.96 364.54 834.62 364.73 827.26 364.72 C 826.45 375.97 826.99 387.28 826.75 398.56 C 811.95 398.52 797.14 398.54 782.34 398.58 C 782.21 377.91 782.16 357.23 782.39 336.57 C 794.73 329.36 806.74 321.54 818.81 313.91 C 820.03 313.26 821.44 312.35 822.85 312.29 Z" fill="#ffffff" />
<path d="M 795.69 343.64 C 801.60 343.46 807.50 343.47 813.40 343.62 C 813.47 349.21 813.47 354.80 813.40 360.38 C 807.50 360.53 801.60 360.55 795.71 360.36 C 795.57 354.79 795.55 349.22 795.69 343.64 Z" fill="#70ac48" />
<path d="M 397.32 368.82 C 400.00 367.54 402.14 370.48 404.23 371.74 C 407.08 374.19 410.75 374.31 413.81 376.10 C 414.65 377.74 415.15 379.56 415.91 381.25 C 417.30 384.22 420.23 386.41 421.68 389.30 C 420.92 393.29 419.84 397.23 419.08 401.25 C 418.50 403.38 416.37 402.33 414.77 402.23 C 411.83 401.39 409.15 402.19 406.19 402.18 C 403.09 399.40 402.46 394.49 401.37 390.65 C 401.13 398.09 404.73 403.77 406.24 410.85 C 406.88 413.55 408.78 414.94 410.63 416.80 C 404.39 416.56 398.13 416.69 391.87 416.59 C 393.67 414.69 396.10 412.76 397.16 410.34 C 397.84 407.51 397.72 404.44 397.89 401.54 C 394.60 402.79 391.27 403.92 388.00 405.21 C 385.07 403.22 381.90 401.36 379.33 398.92 C 379.27 395.65 381.90 392.43 383.57 389.74 C 382.04 388.27 380.35 386.77 379.19 385.00 C 379.91 381.49 382.60 378.36 384.34 375.26 C 389.13 373.88 392.75 370.58 397.32 368.82 Z" fill="#70ac48" />
<path d="M 891.56 378.85 C 894.13 381.37 896.56 383.67 897.99 387.07 C 899.98 391.55 900.21 396.05 900.51 400.87 C 899.25 400.84 897.99 400.82 896.73 400.80 C 896.69 392.87 895.43 385.83 891.56 378.85 Z" fill="#70ac48" />
<path d="M 904.72 381.97 C 903.55 385.70 902.23 389.39 900.92 393.07 C 900.77 391.37 900.34 389.42 900.77 387.75 C 901.70 385.66 903.30 383.76 904.72 381.97 Z" fill="#70ac48" />
<path d="M 918.53 381.85 C 920.58 384.07 922.63 386.35 923.93 389.11 C 926.03 393.53 926.23 398.03 926.48 402.82 C 925.21 402.79 923.94 402.76 922.67 402.73 C 922.65 395.36 921.26 388.68 918.53 381.85 Z" fill="#70ac48" />
<path d="M 931.32 383.65 C 929.89 387.17 928.41 390.68 926.82 394.14 C 926.77 392.50 926.46 390.54 927.05 388.98 C 928.04 386.99 929.82 385.27 931.32 383.65 Z" fill="#70ac48" />
<path d="M 888.61 385.89 C 890.72 387.78 893.31 389.97 894.35 392.66 C 895.28 395.22 895.60 398.13 896.03 400.82 C 894.83 400.76 893.63 400.71 892.44 400.65 C 891.95 395.36 890.64 390.77 888.61 385.89 Z" fill="#70ac48" />
<path d="M 907.63 387.53 C 906.94 391.96 906.13 396.36 905.59 400.81 C 904.44 400.76 903.28 400.71 902.12 400.66 C 902.58 395.00 903.76 391.72 907.63 387.53 Z" fill="#70ac48" />
<path d="M 914.64 387.85 C 916.69 389.61 919.03 391.49 920.14 394.01 C 921.33 396.77 921.43 399.93 921.72 402.89 C 920.56 402.82 919.39 402.76 918.23 402.70 C 917.92 397.32 916.69 392.79 914.64 387.85 Z" fill="#70ac48" />
<path d="M 934.34 388.54 C 933.06 393.29 932.01 398.04 931.55 402.94 C 930.36 402.94 929.16 402.93 927.97 402.92 C 928.42 400.27 928.71 397.30 929.82 394.84 C 930.97 392.57 932.75 390.51 934.34 388.54 Z" fill="#70ac48" />
<path d="M 687.94 430.47 C 694.93 437.50 701.90 444.87 708.16 452.57 C 694.71 452.66 681.25 452.76 667.80 452.51 C 670.50 449.00 673.29 445.57 676.46 442.47 C 680.45 438.54 683.76 434.16 687.94 430.47 Z" fill="#70ac48" />
<path d="M 667.45 457.57 C 669.59 457.29 671.81 457.30 673.97 457.30 C 685.57 457.38 697.17 457.29 708.76 457.38 C 708.68 487.54 708.88 517.70 708.67 547.86 C 705.98 547.94 703.30 548.10 700.63 548.26 C 700.54 545.24 700.49 542.21 700.45 539.19 C 693.52 538.56 686.59 538.67 679.64 538.76 C 679.67 535.85 679.66 532.95 679.62 530.05 C 686.59 529.73 693.58 529.83 700.56 529.73 C 700.46 526.67 700.47 523.62 700.73 520.57 C 693.68 520.77 686.63 520.75 679.59 520.53 C 679.61 517.62 679.61 514.72 679.58 511.81 C 686.58 511.68 693.58 511.64 700.58 511.78 C 700.48 508.72 700.46 505.65 700.48 502.59 C 692.16 502.61 683.84 502.54 675.52 502.65 C 675.35 517.82 675.47 533.01 675.39 548.19 C 672.66 548.07 669.93 547.95 667.20 547.91 C 667.02 544.94 666.85 541.98 666.82 539.00 C 666.80 513.99 666.85 488.97 666.80 463.96 C 666.84 461.81 666.99 459.67 667.45 457.57 Z" fill="#70ac48" />
<path d="M 683.35 467.28 C 688.96 464.86 695.98 467.94 698.95 473.06 C 700.82 476.65 701.00 481.12 699.79 484.95 C 698.74 488.49 695.62 491.21 692.27 492.54 C 686.04 495.37 677.95 491.02 676.18 484.59 C 674.03 478.15 676.92 470.01 683.35 467.28 Z" fill="#ffffff" />
<path d="M 541.97 485.46 C 545.64 486.11 547.89 488.93 551.89 488.64 C 574.73 488.56 599.27 488.62 622.10 488.62 C 625.74 488.70 628.22 485.30 632.00 485.37 C 635.48 485.23 637.90 487.38 641.14 488.32 C 643.71 488.78 646.44 488.62 649.04 488.60 C 649.13 490.61 649.21 492.62 649.29 494.62 C 645.57 494.80 641.85 495.08 638.12 495.31 C 638.10 496.11 638.08 496.92 638.06 497.73 C 641.70 497.79 645.34 498.01 648.98 498.28 C 649.07 500.26 649.15 502.23 649.22 504.20 C 645.51 504.33 641.81 504.36 638.10 504.37 C 638.15 505.40 638.20 506.43 638.25 507.46 C 641.85 507.47 645.45 507.50 649.05 507.58 C 649.20 509.48 649.35 511.38 649.52 513.28 C 647.05 513.35 644.50 513.32 642.07 513.80 C 638.44 514.76 635.96 517.00 631.99 516.78 C 627.41 517.07 624.72 513.23 620.07 513.53 C 597.70 513.56 575.30 513.65 552.93 513.47 C 548.29 513.17 545.48 516.86 541.01 516.77 C 537.77 516.99 535.46 515.46 532.60 514.36 C 529.89 513.21 526.48 513.49 523.56 513.37 C 523.60 511.45 523.62 509.52 523.64 507.59 C 527.37 507.46 531.10 507.40 534.83 507.29 C 534.82 506.30 534.82 505.32 534.83 504.33 C 531.13 504.34 527.44 504.30 523.74 504.17 C 523.75 502.24 523.75 500.32 523.76 498.39 C 527.47 498.23 531.18 497.95 534.88 497.72 C 534.82 496.84 534.76 495.97 534.70 495.09 C 531.26 494.82 527.81 494.70 524.36 494.59 C 524.32 492.86 524.29 491.14 524.27 489.41 C 526.78 489.14 529.36 488.92 531.82 488.32 C 535.25 487.38 538.26 485.00 541.97 485.46 Z" fill="#70ac48" />
<path d="M 714.81 493.57 C 720.93 493.81 727.46 495.74 732.14 499.84 C 737.23 503.98 740.31 510.56 743.70 516.13 C 747.31 522.14 750.00 527.94 756.63 531.19 C 761.60 533.86 767.11 533.08 772.11 534.93 C 776.67 537.43 775.98 543.48 776.17 547.87 C 769.42 547.80 762.77 547.74 756.15 546.24 C 750.33 544.84 744.65 544.01 740.10 539.83 C 733.70 534.53 731.50 526.82 725.13 521.91 C 721.64 519.20 717.81 518.66 713.89 516.99 C 713.13 515.96 713.28 514.30 713.18 513.08 C 713.17 508.00 713.19 502.93 713.17 497.85 C 713.31 496.10 712.92 494.47 714.81 493.57 Z" fill="#70ac48" />
<path d="M 556.00 495.17 C 574.64 494.40 593.34 494.95 612.00 494.77 C 616.53 494.88 621.27 494.40 625.74 495.17 C 626.38 495.90 626.64 497.00 626.97 497.90 C 602.64 497.80 578.31 497.89 553.98 497.85 C 551.12 497.85 548.31 497.60 545.48 497.16 C 548.74 494.41 552.09 495.34 556.00 495.17 Z" fill="#ffffff" />
<path d="M 546.58 504.48 C 548.35 504.27 550.18 504.27 551.96 504.26 C 576.74 504.35 601.52 504.18 626.29 504.35 C 626.25 505.38 626.20 506.42 626.15 507.46 C 599.63 507.24 573.08 507.68 546.56 507.24 C 546.53 506.32 546.53 505.40 546.58 504.48 Z" fill="#ffffff" />
<path d="M 518.08 520.29 C 522.28 519.60 526.75 519.83 531.00 519.81 C 562.66 519.80 594.34 519.85 626.00 519.77 C 635.74 519.80 645.49 519.68 655.22 520.05 C 655.09 522.93 655.03 525.81 655.00 528.70 C 653.11 528.96 651.22 529.23 649.33 529.47 C 649.43 535.60 649.21 541.72 649.26 547.86 C 645.49 548.07 641.75 548.14 637.98 547.92 C 637.78 541.70 637.77 535.49 637.78 529.28 C 635.95 529.28 634.11 529.28 632.27 529.29 C 632.24 533.38 632.22 537.47 632.16 541.57 C 628.57 541.54 625.00 541.60 621.42 541.76 C 620.77 537.64 620.42 533.57 620.55 529.39 C 597.79 529.14 575.04 529.40 552.28 529.25 C 552.28 533.40 552.26 537.55 552.05 541.70 C 548.44 541.62 544.82 541.61 541.21 541.67 C 540.88 537.53 540.72 533.40 540.68 529.25 C 538.87 529.28 537.06 529.31 535.25 529.34 C 535.21 535.55 535.11 541.74 535.18 547.94 C 531.36 548.15 527.54 548.17 523.72 548.09 C 523.75 541.91 523.54 535.74 523.70 529.56 C 521.82 529.30 519.94 529.00 518.06 528.71 C 517.91 525.93 517.70 523.05 518.08 520.29 Z" fill="#70ac48" /></svg>