<?xml version="1.0" encoding="utf-8"?>
<!-- Generator: Adobe Illustrator 16.0.0, SVG Export Plug-In . SVG Version: 6.00 Build 0)  -->
<!DOCTYPE svg PUBLIC "-//W3C//DTD SVG 1.1//EN" "http://www.w3.org/Graphics/SVG/1.1/DTD/svg11.dtd">
<svg version="1.1" id="Calque_1" xmlns="http://www.w3.org/2000/svg" xmlns:xlink="http://www.w3.org/1999/xlink" x="0px" y="0px"
	 width="145.3px" height="91.7px" viewBox="0 0 145.3 91.7" style="enable-background:new 0 0 145.3 91.7;" xml:space="preserve">
<style type="text/css">
<![CDATA[
	.st0{fill:#6E8934;}
]]>
</style>
<g>
	<path class="st0" d="M72.9,13.1c13.8,0,11.2,13.5,11.2,13.5H61.7C61.7,26.6,59.1,13.1,72.9,13.1"/>
	<path class="st0" d="M79.2,6.2c0,3.5-2.8,6.2-6.3,6.2s-6.3-2.8-6.3-6.2c0-3.4,2.8-6.2,6.3-6.2S79.2,2.8,79.2,6.2z"/>
</g>
<g>
	<path class="st0" d="M133.9,63c13.8,0,11.2,13.5,11.2,13.5h-22.4C122.7,76.5,120.1,63,133.9,63"/>
	<path class="st0" d="M140.2,56.1c0,3.5-2.8,6.2-6.3,6.2s-6.3-2.8-6.3-6.2c0-3.4,2.8-6.2,6.3-6.2S140.2,52.7,140.2,56.1z"/>
</g>
<g>
	<path class="st0" d="M11.4,63c13.8,0,11.2,13.5,11.2,13.5H0.2C0.2,76.5-2.4,63,11.4,63"/>
	<path class="st0" d="M17.7,56.1c0,3.5-2.8,6.2-6.3,6.2s-6.3-2.8-6.3-6.2c0-3.4,2.8-6.2,6.3-6.2S17.7,52.7,17.7,56.1z"/>
</g>
<g>
	<path class="st0" d="M118.4,22.7c13.8,0,11.2,13.5,11.2,13.5h-22.4C107.2,36.2,104.6,22.7,118.4,22.7"/>
	<path class="st0" d="M124.7,15.8c0,3.5-2.8,6.2-6.3,6.2s-6.3-2.8-6.3-6.2c0-3.4,2.8-6.2,6.3-6.2S124.7,12.4,124.7,15.8z"/>
</g>
<g>
	<path class="st0" d="M29.1,22.7c13.8,0,11.2,13.5,11.2,13.5H17.9C17.9,36.2,15.3,22.7,29.1,22.7"/>
	<path class="st0" d="M35.4,15.8c0,3.5-2.8,6.2-6.3,6.2s-6.3-2.8-6.3-6.2c0-3.4,2.8-6.2,6.3-6.2S35.4,12.4,35.4,15.8z"/>
</g>
<g>
	<path class="st0" d="M100.6,57.4l-4.2-16.3c0,0-2.7-6.4-9.2-6.4s-14.2,0-14.2,0s-7.7,0-14.2,0s-9.2,6.4-9.2,6.4l-4.2,16.3
		c0,0-7.8-0.4-9,7.1v14.1c0,0,0,1.8,1.2,1.8c1.2,0,3.3,0,3.3,0l0.1,0.1v5.6h0.1c0.5,3.2,3.3,5.7,6.7,5.7s6.2-2.5,6.7-5.7h0.1v-5.7
		l14.9-0.1h6.8l14.9,0.1l0.1,0.1v5.6h0.1c0.5,3.2,3.3,5.7,6.7,5.7s6.2-2.5,6.7-5.7h0.1v-5.7l0,0c0,0,2.1,0,3.3,0
		c1.2,0,1.2-1.8,1.2-1.8V64.5C108.4,57,100.6,57.4,100.6,57.4z M47.9,74.7c-3.3,0-6-2.7-6-6c0-3.3,2.7-6,6-6c3.3,0,6,2.7,6,6
		C53.8,72.1,51.2,74.7,47.9,74.7z M50.7,57.4l3-15.8c0,0,0.2-2,2.4-2s15.4,0,15.4,0h3.1c0,0,13.2,0,15.4,0s2.4,2,2.4,2l3,15.8H50.7z
		 M98.2,74.7c-3.3,0-6-2.7-6-6c0-3.3,2.7-6,6-6c3.3,0,6,2.7,6,6C104.1,72.1,101.5,74.7,98.2,74.7z"/>
	<path class="st0" d="M72.6,51.8"/>
</g>
</svg>
