<?xml version="1.0" encoding="utf-8"?>
<!-- Generator: Adobe Illustrator 16.0.0, SVG Export Plug-In . SVG Version: 6.00 Build 0)  -->
<!DOCTYPE svg PUBLIC "-//W3C//DTD SVG 1.1//EN" "http://www.w3.org/Graphics/SVG/1.1/DTD/svg11.dtd">
<svg version="1.1" id="Calque_1" xmlns="http://www.w3.org/2000/svg" xmlns:xlink="http://www.w3.org/1999/xlink" x="0px" y="0px"
	 width="107.1px" height="53.7px" viewBox="0 0 107.1 53.7" style="enable-background:new 0 0 107.1 53.7;" xml:space="preserve">
<style type="text/css">
<![CDATA[
	.st0{fill:#6E8934;}
]]>
</style>
<g>
	<g>
		<path class="st0" d="M20.3,29.6c24.6,0,20,24,20,24h-40C0.3,53.7-4.3,29.6,20.3,29.6"/>
		<path class="st0" d="M31.6,17.3c0,6.2-5,11.1-11.3,11.1c-6.2,0-11.3-5-11.3-11.1c0-6.1,5-11.1,11.3-11.1
			C26.6,6.2,31.6,11.2,31.6,17.3z"/>
	</g>
	<g>
		<path class="st0" d="M86.8,29.6c24.6,0,20,24,20,24h-40C66.7,53.7,62.1,29.6,86.8,29.6"/>
		<path class="st0" d="M98,17.3c0,6.2-5,11.1-11.3,11.1c-6.2,0-11.3-5-11.3-11.1c0-6.1,5-11.1,11.3-11.1C93,6.2,98,11.2,98,17.3z"/>
	</g>
	<g>
		<path class="st0" d="M36,22.3c1.7-1.6,2.7-3.9,2.7-6.4c0-2.5-1-4.7-2.6-6.3l1.4-1.4c1.9,2,3.1,4.7,3.2,7.7c0,3.1-1.2,5.8-3.2,7.8
			L36,22.3z"/>
		<path class="st0" d="M40,26.7c2.8-2.7,4.6-6.5,4.5-10.7c0-4.1-1.7-7.8-4.4-10.5l1.3-1.4c3.2,3.3,5,6.9,5,12c0,5.1-1.7,8.8-5,12.1
			L40,26.7z"/>
		<path class="st0" d="M44.3,30.6c3.9-3.7,6.3-9,6.3-14.8c0-5.7-2.4-10.8-6.1-14.5L45.7,0c4.5,4.6,6.7,9,6.7,15.9
			c0,7-2.1,11.5-6.7,16.1L44.3,30.6z"/>
	</g>
</g>
</svg>
