<?xml version="1.0" encoding="utf-8"?>
<!-- Generator: Adobe Illustrator 16.0.0, SVG Export Plug-In . SVG Version: 6.00 Build 0)  -->
<!DOCTYPE svg PUBLIC "-//W3C//DTD SVG 1.1//EN" "http://www.w3.org/Graphics/SVG/1.1/DTD/svg11.dtd">
<svg version="1.1" id="Calque_1" xmlns="http://www.w3.org/2000/svg" xmlns:xlink="http://www.w3.org/1999/xlink" x="0px" y="0px"
	 width="186px" height="88.3px" viewBox="0 0 186 88.3" style="enable-background:new 0 0 186 88.3;" xml:space="preserve">
<style type="text/css">
<![CDATA[
	.st0{fill:#6E8934;}
]]>
</style>
<path class="st0" d="M124.6,48.9c0,0,2.8-1.2,2.4-4.9c-0.4-3.8-5.3-18.4-27.8-19.2c-22.4-0.8-27.6,17.3-27.6,17.3s-1.1,5.4,1.8,6.7
	c0,0-1.6-0.3-2.8,1.5c-1.2,1.8,0,3.7,0,3.7s-1.2,1.1-1.3,2c-0.1,0.9-0.6,3.1,0,3.7c0.6,0.6,1.8,1.3,1.8,1.3s-0.2,1.3,0.8,1.8
	l-0.1,2.3c0,0-2.6,1.4-1.5,4c0,0-0.2,1.2-0.2,1.3c0,0-0.9,0.5-0.9,2.2c0,0-0.4,1.7,0.1,2.9c0.5,1.1,1.9,1.7,1.9,1.7
	s-1.1,4.2,2.1,7.1c3.2,2.9,10.8,4.6,27.6,4.1c16.8-0.6,27-0.2,25.9-10.9c0,0,0.4-0.1,0.9-0.9c0.5-0.8,1.1-1.1,1.1-1.1
	s0.4-0.5,0.2-0.9c-0.2-0.4-0.2-1.3-0.2-1.8c0.1-0.5,0.3-0.6-0.3-1.4c-0.6-0.8-0.8-1.3-0.8-1.3l0-0.9c0,0,1.1-2.5-1.5-4l0-2.4
	c0,0,0.9-0.4,0.7-1.5c0,0,0.8-0.4,1-0.9c0.2-0.5,1-1.2,1-1.2s0.4-0.2,0.2-0.7c-0.2-0.5-0.2-1.2-0.2-1.8s0-0.6,0-0.6
	s-0.6-1.5-1.3-2.1c0,0,0.8-1.2,0.4-2.7C127.8,49.5,126.1,49,124.6,48.9z"/>
<g>
	<g>
		<path class="st0" d="M30.5,84.4c-11.8,0-15.6,3.2-15.6,3.2s-2.2,1.4-2.8-1.1c-0.6-2.4-12-54.7-12-54.7s-0.6-1.4,1.4-1.7
			c2-0.3,2.7,0.4,3,1.9c0.4,1.5,6.5,16.3,26.2,16.3h0c19.8,0,25.9-14.8,26.2-16.3c0.4-1.5,1-2.2,3-1.9c2,0.3,1.4,1.7,1.4,1.7
			S50,84.1,49.4,86.5c-0.6,2.4-2.8,1.1-2.8,1.1S42.2,84.4,30.5,84.4z"/>
		<path class="st0" d="M5.3,19.8c0,14.3,11.6,26,26,26c14.3,0,26-11.6,26-26v-1.9c0,0-0.2-0.3-1.8-0.3c-1.6,0-2.2-0.3-2.3,0.8
			c-0.1,1.1-0.5,1.7-0.6,2c-0.1,0.3-0.8,1.3-0.8,1.3s0.6-2.1,0.5-2.9c-0.2-0.8-2.9-1.2-2.9-1.2h-1.1L47,20.4c0,0,0.2-1.6,0.9-3.9
			c0.6-2.4,0.7-2.9,0.7-2.9s0.4-0.9-2.2-1c-2.6-0.1-2.5-0.5-3.1,1.1c-0.5,1.6-2,6.4-2,6.4s0.4-3.4,0.4-4.4s-0.2-1.5-1.7-1.8
			c-1.5-0.3-2.8-0.7-3.3,1s-0.9,4.3-1,3.9c-0.1-0.4-0.4-9.7-0.4-9.7s-0.7-1.1-3-0.9c-2.3,0.2-2.6,0.2-2.5,1s0.1,2.6,0.1,2.6
			s-3.1-0.1-3.1,0.6c0,0.7-0.2,5.3-0.2,5.3s0.1,0.6-0.4-1.3c-0.5-1.9-0.9-3.1-2.4-3.1c-1.5,0.1-2.9,0.4-2.7,1.7
			c0.2,1.2,0.1,5.6,0.1,5.6s-1.9-6.7-2.4-7.6s-0.9-1.1-3-0.6c-2.1,0.5-2.1,0.5-2.1,0.5s0.6,2.8,1.1,4.6c0.4,1.8,0.6,2.5,0.6,2.5
			s-0.6-0.6-1.1-1.8c-0.4-1.2-1.7-1.2-2.8-0.6c-1.1,0.5-1.6-0.2-1.3,1.6c0.3,1.8-0.1,2.5-0.1,2.5s-0.4-1.6-0.5-3
			c-0.1-1.4-0.4-1.8-1.5-1.7c-1.1,0.1-2.6,0.1-2.8,0.3S5.3,19.8,5.3,19.8z"/>
	</g>
</g>
<path class="st0" d="M162.4,88c10.8,0,17.7-1.8,17.7-1.8v-1.8c4.5-1,6-3,6-3V10.6l-4.8-7L181.1,0h-14.9h-6.8h-14.9l-0.2,3.6l-4.8,7
	v70.8c0,0,1.5,2,6,3v1.8c0,0,6.9,1.8,17.7,1.8H162.4z"/>
</svg>
