<?xml version="1.0" encoding="utf-8"?>
<!-- Generator: Adobe Illustrator 19.1.0, SVG Export Plug-In . SVG Version: 6.00 Build 0)  -->
<svg version="1.1" id="Calque_2" xmlns="http://www.w3.org/2000/svg" xmlns:xlink="http://www.w3.org/1999/xlink" x="0px" y="0px"
	 viewBox="0 0 299 224.2" style="enable-background:new 0 0 299 224.2;" xml:space="preserve">
<style type="text/css">
	.st0{fill:#63832E;}
</style>
<g>
	<path class="st0" d="M5.3,80.1h229.6v32c0,1.4,0.5,2.7,1.6,3.7s2.3,1.6,3.8,1.6c1.6,0,2.8-0.5,3.8-1.5l53.4-53.4
		c1-1,1.5-2.3,1.5-3.8c0-1.5-0.5-2.8-1.5-3.8L244.3,1.7c-1.3-1.1-2.7-1.7-4-1.7c-1.6,0-2.8,0.5-3.8,1.5c-1,1-1.5,2.3-1.5,3.8v32H5.3
		c-1.4,0-2.7,0.5-3.8,1.6C0.5,40,0,41.3,0,42.7v32c0,1.4,0.5,2.7,1.6,3.8C2.6,79.6,3.9,80.1,5.3,80.1L5.3,80.1z"/>
	<path class="st0" d="M293.7,144.2H64.1v-32c0-1.5-0.5-2.7-1.6-3.8c-1.1-1.1-2.3-1.6-3.8-1.6c-1.6,0-2.8,0.5-3.8,1.5L1.5,161.7
		c-1,1-1.5,2.3-1.5,3.8c0,1.4,0.5,2.7,1.5,3.7l53.2,53.4c1.3,1.1,2.7,1.7,4,1.7c1.5,0,2.7-0.5,3.8-1.6c1.1-1.1,1.6-2.3,1.6-3.8v-32
		h229.6c1.4,0,2.7-0.5,3.8-1.6c1.1-1.1,1.6-2.3,1.6-3.8v-32c0-1.4-0.5-2.7-1.6-3.8C296.4,144.7,295.1,144.2,293.7,144.2L293.7,144.2
		z"/>
</g>
</svg>
