<?xml version="1.0" encoding="utf-8"?>
<!-- Generator: Adobe Illustrator 19.2.1, SVG Export Plug-In . SVG Version: 6.00 Build 0)  -->
<svg version="1.1" id="Calque_1" xmlns="http://www.w3.org/2000/svg" xmlns:xlink="http://www.w3.org/1999/xlink" x="0px" y="0px"
	 viewBox="0 0 30.1 22.6" style="enable-background:new 0 0 30.1 22.6;" xml:space="preserve">
<style type="text/css">
	.st0{fill:#6E8935;stroke:#FFFFFF;stroke-width:6.161034e-002;stroke-miterlimit:10;}
	.st1{fill:#6E8935;}
	.st2{fill:#FFFFFF;}
	.st3{fill:none;stroke:#6E8935;stroke-width:0.1232;stroke-miterlimit:10;}
	.st4{fill:#6E8935;stroke:#FFFFFF;stroke-width:0.1232;stroke-miterlimit:10;}
	.st5{fill:none;stroke:#F6F6F6;stroke-width:0.1848;stroke-miterlimit:10;}
</style>
<polygon class="st0" points="10.3,19.2 10.3,9 8,9 8,5.4 1.9,5.4 1.9,18.9 1.9,19.2 "/>
<rect x="5.5" y="9.6" class="st0" width="1.3" height="1.6"/>
<rect x="5.5" y="12.5" class="st0" width="1.3" height="1.6"/>
<rect x="3.7" y="15.8" class="st0" width="1.3" height="1.6"/>
<rect x="2.9" y="12.5" class="st0" width="1.3" height="1.6"/>
<rect x="2.9" y="9.6" class="st0" width="1.3" height="1.6"/>
<rect x="7.9" y="12.5" class="st0" width="1.3" height="1.6"/>
<rect x="7.9" y="9.8" class="st0" width="1.3" height="1.6"/>
<rect x="2.9" y="6.9" class="st0" width="1.3" height="1.6"/>
<rect x="5.5" y="6.9" class="st0" width="1.3" height="1.6"/>
<path class="st1" d="M15.2,3.9c-0.1,0.1-0.3,0.1-0.6,0c-0.3-0.3-0.3-0.7,0-1c0.3-0.3,0.6-0.3,1-0.3c0.1,0,0.3,0.1,0.4,0.1
	c0.3,0.1,0.4,0.3,0.4,0.6c0,0.1,0.1,0.1,0.1,0.1c4.5,0,8.8,0,13.3,0c0,4.5,0.1,9-0.1,13.3c-0.3,4-4.6,6.7-8.5,5.5
	c-1.5-0.4-3-1.3-4.5-2.1c0,0,0,0-0.1-0.1c0-0.7-0.3-1.3-1-1.5c-0.6-0.1-1.2,0.1-1.5,0.6c-0.1,0.4-0.1,1,0.3,1.3
	c0.3,0.3,0.4,0.1,0.7,0.1c0.3,0,0.4-0.1,0.6-0.3c0.1-0.1,0-0.3,0-0.4c0-0.1-0.1-0.3-0.1-0.3c-0.3-0.3-0.7-0.1-1,0.1
	c0-0.1,0.1-0.3,0.1-0.3c0.4-0.3,1,0,1.2,0.4c0,0.3,0,0.4-0.1,0.7c-0.3,0.3-0.6,0.6-1,0.4c-0.3,0-0.6-0.3-0.7-0.4
	c-0.3-0.3-0.3-0.7-0.3-1.2c0.1-0.7,0.7-0.9,1.3-1.2c0-0.1,0-0.1,0-0.3c0-1.8,0-3.7,0-5.7c0,0,0,0,0.1,0c1,0,1.8-1.2,1.2-2.1
	c0-0.1-0.3-0.1-0.3-0.3c-0.1-0.1-0.3,0-0.4,0c-0.3,0-0.6,0-0.7,0.3c0,0.1-0.1,0.3-0.1,0.4s0.1,0.1,0.3,0.3c0-0.1,0-0.3,0-0.6
	c0.3-0.3,0.6-0.3,0.9,0c0.1,0.1,0.3,0.4,0.1,0.7c0,0.1,0,0.3-0.1,0.4c-0.4,0.4-1.2,0.3-1.6-0.1c-0.4-0.7,0-1.8,0.7-2.1l0,0
	c0-1.2,0-2.5,0-3.7l0,0c0.7-0.1,1.3-1.3,0.6-1.9c-0.1-0.1-0.3-0.1-0.4-0.1c-0.1,0-0.3,0-0.3,0.1s-0.1,0.3,0.1,0.4
	C15.2,3.8,15.2,3.8,15.2,3.9z"/>
<g>
	<g>
		<path class="st2" d="M16.7,19.8c0.6,0,0.7,1.3,1.8,0.9c0.6-0.3,1-1.6,0.4-2.1c-0.4-0.3-0.9-0.1-1,0.4c-0.3,1,1.5,0.4,1.6,0.6
			l0.1,0.1c0.9,0,1.5,1.5,2.4,0.9c0.4-0.3,0.4-1,0-1.3h-0.1c-0.6,0.4,0.6-0.4,0.9,0.4l0.1,0.1c1.3,0,0.7,0.3,1.6,0.9
			c0.1,0.1,0.3,0.3,0.6,0.3c0.7,0.1,1.3-0.6,1.2-1.3c-0.3-1.5-1.8-0.4-1,0.3h0.1c1.3-1.2,1.3,1.6,2.7,0.7c1.2-0.7-0.4-1.5-0.4-1.8
			c0-0.1-0.3-0.3-0.3-0.1c-0.1,0.3-0.1,0.3,0,0.7c0,0,0.1,0.1,0.1,0c0.7-0.1-0.6,0.1-0.7,0.1c-0.1-0.1-0.1-0.6-0.3-0.7
			c-0.4-0.3-0.4-0.9-1.2-0.7c-1.2,0.3-1,1.9,0,2.2h0.1c0.1-0.1,0.3-0.1,0.3-0.3v-0.1c0-0.3,0-0.4-0.3-0.6c-0.1,0-0.1,0-0.1,0
			c-0.3,0-0.6,0.1-1,0.1l-0.1-0.1c-0.3,0-0.9,0.1-1,0c-1.2-0.7,0-0.4-0.3-0.6c-0.3-0.1-0.1-0.3-0.4-0.4c-0.4-0.1-0.9-0.1-1.2,0.4
			c-0.1,0.6,0.3,0.6,0.3,0.9h0.3c0.1-0.1-0.9,0-1-0.3l-0.1-0.1c-1,0-0.6-0.3-1.2-0.9c-0.1-0.3-0.4-0.6-0.9-0.6c-0.6,0-1,0.6-1,1
			c-0.1,1,1.3,1.2,1,0.4c0-0.1-0.1-0.1-0.1-0.1c-0.3,0.1-0.7,0.1-1,0.3c0,0,0-0.1-0.1-0.1c-0.1,0-0.3,0-0.4,0
			C16.6,19.5,16.6,19.8,16.7,19.8L16.7,19.8z"/>
	</g>
</g>
<path class="st3" d="M0.5,6.9c0,0,1.3-4.5,5.4-5.8c0,0,2.1-0.7,3.6-0.1c0,0,1,0.3,1.2,1.2c0,0,0.3-0.4,0.7-0.3c0,0,0.4,0.1,0,0.7
	c0,0-0.3,0.4-0.7,0.1c0,0-0.1,0.6-0.6,0.9C10,3.6,10,3.8,9.8,3.8c0,0-0.6,0.1-0.6-0.6c0,0-1,1-1.6,0.1c0,0-0.3-0.6,0.6-1
	c0,0,0.6-0.3,0.7,0.1c0,0,0,0.3-0.3,0.3c0,0-0.3,0,0-0.1c0,0-0.1-0.1-0.3,0.1c0,0-0.3,0.4,0.4,0.3c0,0,0.6-0.1,0.6-0.7
	c0,0-0.1-0.4-0.9-0.1c0,0-1-1.2-3.7,0.1C4.9,2.3,2,3.8,0.5,6.9c0,0,1.5-2.5,3.7-3.7c0,0,2.1-1.2,2.5-0.3c0,0,0.3,0.4-0.3,0.7
	c0,0-0.6,0.3-0.4-0.1c0,0,0-0.1,0.1-0.1c0.1,0,0,0,0,0S6.1,3.6,6.4,3.6c0,0,0.4-0.3,0-0.6c0,0-0.4-0.1-0.7,0.6c0,0-0.1,0.6,0.6,0.6
	c0,0-0.6,0.6-0.1,0.7c0,0,0.3,0.1,0.6-0.1c0,0-0.3,0.3,0,0.4c0,0,0.3,0,0.4-0.3c0,0,0-0.6,0.7-0.7c0,0,0.6,0,0.3,0.6
	c0,0-0.1,0.1-0.4,0.3c0,0,0.6-0.4,0.1-0.6c0,0-0.6,0-0.6,0.4c0,0-0.1,0.7,0.9,0.4c0,0,0.6-0.1,0.7-0.7c0,0,0,0.6,0.7,0.3
	c0,0,0.6-0.3,0.4-1"/>
<path class="st4" d="M29.9,10.8c0,0-0.9-4.6-4.8-6.4c0,0-2.1-0.9-3.6-0.4c0,0-1,0.1-1.2,1.2c0,0-0.3-0.4-0.6-0.3
	c0,0-0.4,0.1-0.1,0.6c0,0,0.1,0.4,0.6,0.3c0,0,0,0.6,0.4,0.9c0,0,0.1,0.1,0.3,0.1c0,0,0.6,0.1,0.6-0.4c0,0,1,1,1.6,0.3
	c0,0,0.4-0.4-0.6-1c0,0-0.6-0.4-0.7,0c0,0,0,0.3,0.3,0.3c0,0,0.3,0,0-0.1c0,0,0.1-0.1,0.3,0.1c0,0,0.1,0.4-0.6,0.3
	c0,0-0.6-0.3-0.4-0.7c0,0,0.1-0.4,0.9-0.1c0,0,1.2-1,3.7,0.4C26,5.7,28.7,7.5,29.9,10.8c0,0-1.2-2.7-3.3-4c0,0-1.9-1.3-2.5-0.6
	c0,0-0.3,0.4,0.3,0.7c0,0,0.4,0.3,0.6-0.1c0,0,0-0.1-0.1-0.3c-0.1,0,0,0,0,0s0.1,0.4-0.1,0.1c0,0-0.4-0.3,0-0.6c0,0,0.4,0,0.7,0.6
	c0,0,0.1,0.7-0.6,0.6c0,0,0.4,0.7,0,0.7c0,0-0.3,0-0.6-0.1c0,0,0.3,0.3,0,0.4c0,0-0.3,0-0.4-0.4c0,0,0-0.6-0.6-0.7
	c0,0-0.6-0.1-0.4,0.4c0,0,0,0.1,0.4,0.3c0,0-0.6-0.4-0.1-0.6c0,0,0.6,0,0.6,0.6c0,0,0,0.7-0.9,0.3c0,0-0.6-0.3-0.6-0.7
	c0,0-0.1,0.6-0.7,0.1c0,0-0.6-0.4-0.3-1.2"/>
<rect x="6.1" y="15.5" class="st0" width="2.8" height="3.6"/>
<path class="st0" d="M5.2,15.8L5.2,15.8c-0.1,0-0.1,0-0.1,0.1l0,0l0,0C5,15.9,5.2,15.9,5.2,15.8C5.2,15.9,5.2,15.9,5.2,15.8
	c0,0.1,0,0.1,0.1,0.1l0,0l0,0l0,0l0,0l0,0c0,0,0,0-0.1,0c0,0,0,0-0.1,0l0,0l0,0c0,0,0,0,0-0.1l0,0l0,0c0,0,0,0-0.1,0l0,0
	c0,0,0,0-0.1,0H4.6l0,0l0,0H4.4l0,0l0,0c0,0,0,0,0,0.1l0,0l0,0l0,0l0,0l0,0l0,0c0,0,0,0,0,0.1c0,0,0.1-0.1,0.1,0l0,0l0,0l0,0l0,0
	l0,0l0,0l0,0c0,0,0,0,0,0.1l0,0l0,0c0,0-0.1,0-0.1,0.1c0,0,0,0,0.1,0l0,0l0,0l0,0l0,0l0,0l0,0l0,0l0,0l0,0l0,0l0,0c0,0,0,0,0.1,0
	l0,0c0,0,0.1,0,0.1,0.1l0,0l0,0c0,0,0,0.1-0.1,0.1l0,0v0.1c0,0,0,0,0,0.1l0,0l-0.1-0.1l0,0l0,0c0,0,0,0,0,0.1l0,0l0,0l0,0l0,0l0,0
	l0,0c0,0,0,0,0-0.1l0,0c0,0,0,0,0-0.1c0,0,0,0-0.1,0v-0.1l0,0l0,0l0,0l0,0l0,0l0,0l0,0c0,0,0,0,0,0.1v-0.1l0,0l0,0
	c0,0,0-0.1-0.1-0.1H4.1l0,0l0,0l0,0l0,0l0,0H4l0,0l0,0l0,0c0,0,0,0.1,0.1,0.1l0,0L4,16.4c0,0,0-0.1-0.1-0.1l0,0c0,0,0,0-0.1,0H3.5
	H3.4l0,0l0,0l0,0c0,0,0,0-0.1,0.1l0,0l0,0l0,0l0,0c0,0,0,0,0,0.1l0,0c0,0,0,0,0,0.1l0,0l0,0l0,0l0,0l0,0l0,0l0,0l0,0
	c0,0.3,0,0.4,0,0.7c0,0.1,0,0.3,0,0.4c0,0.3,0,0.6,0,0.7s0,0.3,0,0.6l0,0H3.1l0,0c0-0.1,0-0.3,0-0.4c0-0.3,0-0.6,0-0.9
	c0-0.1,0-0.4,0.1-0.6v-0.1c0-0.1,0-0.3,0-0.4l0,0v-0.1l0,0l0,0l0,0c0,0,0,0,0.1-0.1c0,0,0,0,0-0.1c0,0,0,0,0-0.1l0,0l0,0l0,0
	c0,0,0,0,0-0.1l0,0H3.2H3.1H2.9l0,0H2.8l0,0c0,0-0.1,0-0.1,0.1l0,0l0,0l0,0l0,0c0,0,0,0,0,0.1l0,0l0,0l0,0l0,0H2.5l0,0l0,0l0,0l0,0
	l0,0l0,0l0,0l0,0l0,0l0,0H2.3l0,0l0,0c0,0,0,0-0.1,0l0,0l0,0c0,0-0.1,0-0.1,0.1l0,0c0,0,0,0-0.1,0l0,0l0,0c0,0,0,0,0.1,0l0,0v0.1
	c0,0,0,0-0.1,0l0,0c0,0,0,0-0.1,0l0,0l0,0c0,0,0,0,0.1,0l0,0l0,0c0,0,0,0,0-0.1l0,0v-0.1l0,0l0,0c0,0,0,0,0-0.1c0,0,0,0,0-0.1l0,0
	l0,0c0,0,0,0,0.1,0l0,0l0,0l0,0c0,0,0,0,0-0.1l0,0l0,0c0,0,0,0-0.1,0c0,0,0,0,0-0.1l0,0l0,0l0,0l0,0l0,0l0,0l0,0c0,0,0,0,0,0.1l0,0
	l0,0l0,0l0,0l0,0l0,0c0,0,0,0,0,0.1l0,0l0,0v-0.1l0,0c0,0,0,0,0-0.1l-0.1,0.1l0,0l0,0l0,0c0,0-0.1,0-0.1,0.1c0,0,0,0-0.1,0
	c0,0,0,0,0-0.1l0,0l0,0l0,0l0,0c0,0,0,0-0.1,0l0,0c0,0,0,0,0,0.1l0,0v0.1l0,0l0,0l0,0v-0.1l0,0c0,0,0,0,0,0.1l0,0l0,0c0,0,0,0,0-0.1
	v-0.1l0,0c0,0,0,0,0.1,0.1v-0.1h0.1l0,0l0,0l0,0c0,0,0,0,0,0.1l0,0c0-0.1,0-0.1,0.1-0.1c0,0,0,0,0.1,0c0,0,0,0,0-0.1l0,0l0,0v-0.1
	l0,0c0,0,0,0-0.1,0l0,0c0,0,0,0,0,0.1c0,0,0,0-0.1-0.1c0,0,0,0,0,0.1l0,0c0,0,0,0,0,0.1l0,0l0,0v-0.1l0,0l0,0l0,0l0,0l0,0l0,0
	c0-0.1,0,0,0,0l0,0c0,0,0,0-0.1,0l0,0l0,0c0,0,0,0,0,0.1l0,0l0,0l0,0l0,0l0,0l0,0c0,0,0,0-0.1,0l0,0l0,0l0,0c0,0,0,0,0.1,0l0,0
	c0,0,0,0,0-0.1l0,0l0,0c0,0,0,0-0.1,0l0,0l0,0h0.1c0,0,0,0,0-0.1h0.1l0,0l0,0l0,0l0,0l0,0l0,0c0,0,0,0-0.1,0l0,0l0,0c0,0,0,0-0.1,0
	c0,0,0,0,0-0.1l0,0l0,0l0,0l0,0l0,0l0,0v-0.1l0,0c0,0,0,0,0-0.1l0,0l0,0c0,0,0,0,0.1,0l0,0c0,0,0,0,0.1,0c0,0,0,0,0.1,0l0,0l0,0
	c0,0,0.1,0,0.1,0.1l0,0l0,0V15H2l0,0l0,0l0,0c0,0.1,0,0.1,0.1,0.1V15c0,0,0,0-0.1,0c0,0,0,0,0.1,0l0,0l0,0l0,0c0,0,0,0,0,0.1l0,0
	l0,0l0,0c0,0,0,0-0.1,0l0,0l0,0l0,0l0,0l0,0l0,0c0,0,0,0,0-0.1c0,0,0,0,0.1-0.1c0,0,0,0-0.1,0v-0.1l0,0l0,0l0,0l0,0l0,0l0,0l0,0
	c0,0,0,0,0.1,0c0,0,0,0,0.1,0c0,0,0,0,0,0.1l0,0l0,0l0,0l0,0l0,0c0,0,0.1,0,0-0.1l0,0H2.2c0,0,0-0.1-0.1,0l0,0l0,0c0,0,0,0,0-0.1
	l0,0l0,0l0,0c0,0,0,0,0-0.1l0,0v0.1v0.1c0,0,0.1,0,0.1-0.1l0,0l0,0l0,0v-0.1h0.1l0,0l0,0l0,0l0,0v-0.1l0.1-0.1v0.1l0,0
	c0,0,0.1,0,0.1-0.1l0,0c0,0,0,0,0-0.1c0,0,0,0.1,0.1,0.1l0,0l0,0h0.1c0,0,0,0,0.1,0l0,0l0,0l0,0l0,0l0,0l0,0l0,0l0,0c0,0,0,0,0.1,0
	l0,0l0,0l0,0V14l0,0c0,0,0,0,0-0.1l0,0V14l0,0v-0.1l0,0l0,0c0,0,0,0,0,0.1l0,0l0,0c0,0,0,0,0,0.1l0,0V14l0,0l0,0l0,0v0.1
	c0,0,0,0,0-0.1l0,0l0,0l0,0l0,0c0,0,0,0,0.1-0.1c0,0,0,0,0,0.1l0,0l0,0l0,0l0,0v-0.1l0,0l0,0l0,0l0,0l0,0l0,0l0,0l0,0l0,0l0,0l0,0
	l0,0l0,0l0,0l0,0c0.1,0,0.1,0,0.1,0l0,0c0,0,0,0,0,0.1l0,0l0,0l0,0c0,0,0,0,0,0.1l0,0c0,0,0.1,0.1,0.1,0l0,0c0,0,0,0,0.1,0
	c0,0,0,0,0,0.1l0,0l0,0c0,0,0.1,0,0.1,0.1v-0.1h0.1c0,0,0,0,0,0.1l0,0l0,0c0,0,0,0,0,0.1l0,0l0,0l0,0v0.1c0,0,0,0,0,0.1l0,0
	c0,0,0,0-0.1,0l0,0l0,0l0,0c0,0,0.1,0,0.1-0.1c0.1,0,0.1,0,0.1,0s0,0,0.1,0l0,0c0,0-0.1-0.1,0-0.1l0,0l0,0l0,0l0,0l0,0l0,0v-0.1h0.1
	l0,0l0,0l0,0l0,0l0,0v0.1l0,0l0,0l0,0l0,0l0,0c0,0,0,0,0-0.1c0,0,0,0,0.1,0v-0.1c0,0,0,0-0.1,0l0,0v0.1l0,0l0,0c0,0,0,0,0-0.1
	c0,0,0,0,0.1-0.1c0,0,0,0,0.1,0l0,0c0,0,0,0-0.1,0L4.9,14c0,0,0,0,0,0.1c0,0,0,0,0.1,0l0,0v0.1c0,0,0,0,0,0.1c0,0,0,0,0.1,0v0.1l0,0
	l0,0h0.1l0,0l0,0l0,0l0,0l0,0l0,0l0,0l0,0l0,0l0,0l0,0l0,0l0,0c0,0,0,0,0,0.1l0,0l0,0l0,0H5.2l0,0l0,0c0,0,0,0,0.1,0c0,0,0,0,0,0.1
	c0,0,0,0-0.1,0l0,0l0,0l0,0l0,0l0,0c0,0,0,0,0-0.1l0,0l0,0l0,0l0,0c0,0-0.1,0-0.1,0.1l0,0l0,0l0,0V15l0,0l0,0h0.1c0,0,0,0,0-0.1l0,0
	l0,0l0,0c0,0,0,0-0.1,0.1h0.1h0.1c-0.1,0-0.1,0.1-0.3,0.1c0,0,0,0,0,0.1l0,0l0,0c0,0,0,0,0,0.1c0,0,0.1,0,0.1-0.1c0,0,0,0,0.1,0.1
	l0,0l0,0l0,0v0.1l0,0l0,0l0,0l0,0l0,0c0,0,0,0,0.1,0l0,0l0,0l0,0l0,0l0,0l0,0l0,0l0,0l0,0l0,0l0,0c0,0,0,0-0.1,0.1l0,0l0,0l0,0l0,0
	c0,0,0,0,0.1,0c0,0-0.1,0-0.1,0.1l0,0l0,0l0,0c0,0,0,0,0,0.1l0,0c0,0,0,0,0,0.1l0,0l0,0c0,0,0,0-0.1,0c0,0,0,0,0-0.1c0,0,0,0-0.1,0
	l0,0l0,0l0,0l0,0l0,0l0,0l0,0l0,0c0,0,0,0-0.1,0l0,0l0,0l0,0c0,0,0,0,0-0.1l0,0l0,0l0,0c0,0,0.1,0,0.1,0.1l0,0c0,0,0,0,0-0.1
	c0,0,0,0,0,0.1c0,0,0,0,0.1,0l0,0c0,0,0,0,0.1,0l0,0l0,0l0,0h0.1l0,0l0,0l0,0l0,0l0,0l0,0l0,0l0,0l0,0l0,0l0,0l0,0l0,0
	c0,0,0,0-0.1,0l0,0h0.1l0,0l0,0l0,0v0.1c0,0,0,0,0,0.1l0,0l0,0c0,0,0.1,0,0,0.1c0,0,0,0,0,0.1l0,0v-0.1l0,0l0,0l0,0c0,0,0,0-0.1,0
	c0,0,0,0.1,0.1,0.1c0,0,0,0,0-0.1l0,0l0,0c0,0,0,0,0-0.1H5.3l0,0l0,0l0,0l0,0l0,0l0,0c0,0-0.1,0,0,0C5.5,15.9,5.3,15.9,5.2,15.8
	C5.3,15.9,5.3,15.9,5.2,15.8C5.3,15.8,5.3,15.8,5.2,15.8C5.3,15.8,5.3,15.8,5.2,15.8C5.3,15.8,5.3,15.9,5.2,15.8
	C5.3,15.9,5.2,15.9,5.2,15.8C5.3,15.8,5.2,15.8,5.2,15.8S5.3,15.8,5.2,15.8C5.3,15.8,5.3,15.8,5.2,15.8C5.3,15.8,5.3,15.8,5.2,15.8
	C5.3,15.8,5.2,15.8,5.2,15.8L5.2,15.8z"/>
<path class="st3" d="M14.8,19.5c-0.1-0.1,0.1-0.3,0.1-0.3c0.3-0.3,0.9-0.3,1.2,0.1c0.1,0.3,0.1,0.6,0,0.9c0,0.3-0.3,0.6-0.6,0.7
	c-0.3,0.1-0.7,0.1-1,0c-0.3-0.1-0.6-0.4-0.7-0.9c-0.1-0.3,0-0.6-0.1-0.9c-0.1,0-0.1,0-0.3,0c-4.3,0-8.7,0-13.2,0
	c0-4.5-0.1-9,0.1-13.3c0.3-4,4.6-6.7,8.5-5.5c1.6,0.4,3.1,1.3,4.6,2.2l0.1,0.1c0,0.6-0.3,1.5,0.6,1.8c0.3,0.1,0.6,0.1,0.7,0
	c0-0.1,0.3-0.3,0.1-0.4c0-0.1-0.4-0.1-0.3-0.4c0-0.1,0.1-0.3,0.3-0.3c0.6-0.1,1,0.4,0.9,1c0,0.3-0.3,0.4-0.4,0.7
	c-0.1,0.1-0.3,0.3-0.4,0.3c-0.1,0-0.1,0.1-0.1,0.1c0,1.2,0,2.4,0,3.6c0,0.1,0,0.1,0,0.3c-0.7,0.3-1.2,1-0.9,1.8
	c0.1,0.3,0.4,0.6,0.9,0.7c0.3,0,0.6,0,0.7-0.1s0.3-0.3,0.3-0.4c0-0.1,0-0.3,0-0.4c0-0.1-0.1-0.3-0.3-0.3c-0.1-0.1-0.3-0.1-0.6,0
	c-0.1,0-0.1,0.3-0.3,0.3c0,0,0.1,0.1,0.1,0.3s-0.1,0-0.3,0c-0.1-0.1-0.1-0.3-0.1-0.6c0.1-0.4,0.6-0.6,1-0.4c0.3,0,0.4,0.3,0.6,0.4
	c0,0.1,0.1,0.3,0.1,0.6c0,0.7-0.6,1.3-1.3,1.3c-0.1,0-0.1,0-0.3,0c0,1.9,0,3.7,0,5.7c0,0.1,0,0.1,0,0.3c-1,0.1-1.8,1.5-1,2.4
	c0.1,0.1,0.3,0.3,0.6,0.3c0.3,0,0.6,0,0.7-0.1c0.1,0,0.3-0.1,0.3-0.3c0.1-0.3,0.1-0.9-0.1-1.2c0.6-0.6,0.4-0.6,0.3-0.6
	C15.2,19.1,14.9,19.1,14.8,19.5C14.8,19.4,14.8,19.4,14.8,19.5z"/>
<path class="st0" d="M10.4,9.8c0.1,0,0.1,0,0.3,0l0,0c0.3,0,0.6,0.1,0.7,0.4l0.1,0.1l0,0c0.3-0.1,0.7-0.1,1-0.1
	c0.3,0.1,0.6,0.3,0.7,0.7c0,0.1,0,0.1,0.1,0.1c0.7,0.1,1.2,0.9,1,1.6c0,0.1,0,0.1,0,0.3l0,0c0.3,0.4,0.3,0.7,0.1,1.2
	c-0.1,0.3-0.4,0.6-0.7,0.7c0,0,0,0,0,0.1c0,0.3-0.1,0.4-0.3,0.7c-0.3,0.4-0.9,0.6-1.5,0.3c-0.1,0-0.1-0.1-0.3-0.1
	c-0.1,0.1-0.3,0.3-0.3,0.3c-0.1,0.1-0.3,0.3-0.3,0.4c0,0.3-0.1,0.6,0,0.9c0,0.3,0.1,0.7,0.1,1c-0.6,0-1,0-1.6,0l0,0
	c0-0.3,0.1-0.6,0.1-1c0.1-0.6,0-1.2,0-1.8l0,0H9.8c-0.1-0.1-0.3-0.1-0.6-0.3c0,0,0,0-0.1,0c-0.1,0-0.3,0.1-0.4,0.1
	c-0.7,0.1-1.5-0.6-1.5-1.3v-0.1C7,14.1,7,14.1,6.8,14c-0.3-0.4-0.3-0.9-0.1-1.3C6.8,12.5,7,12.2,7.1,12c0,0,0,0,0-0.1
	c0-0.3,0.1-0.6,0.3-0.9c0.3-0.3,0.6-0.6,1-0.4h0.1c0.1-0.6,0.4-0.9,0.9-1C10.3,9.8,10.3,9.8,10.4,9.8z M11.6,15.3
	C11.5,15.3,11.5,15.3,11.6,15.3c-0.1,0-0.1,0.1-0.1,0.1c0,0.1,0,0.3-0.1,0.4c0,0.1,0,0.3,0,0.3c0,0.1,0.1,0.1,0.1,0.1
	c0.1,0,0.3-0.1,0.4-0.3C11.8,15.8,11.6,15.5,11.6,15.3z M10.3,15.3C10.3,15.3,10.4,15.5,10.3,15.3c0.1,0.3,0.3,0.4,0.4,0.6
	c0.1,0.1,0.1,0.1,0.3,0c0-0.1,0.1-0.3,0.1-0.4c0,0,0,0,0-0.1C10.7,15.5,10.6,15.3,10.3,15.3z M10.4,15.9c-0.1-0.1-0.1-0.3-0.3-0.6
	c-0.1,0.1-0.1,0.3-0.3,0.3C10,15.8,10.1,15.9,10.4,15.9z"/>
<path class="st2" d="M27.8,14.4c0-0.1,0-0.1,0-0.3c0-0.3-0.1-0.7-0.3-1c-0.1-0.1-0.3-0.1-0.4-0.1h-0.1c-0.1,0-0.3,0-0.3-0.1
	c-0.1-0.1-0.1-0.3-0.3-0.4c-0.1-0.1-0.1-0.1-0.3-0.3s-0.1,0-0.3,0c0,0.1-0.1,0.3-0.1,0.3c0,0.1-0.1,0.1-0.1,0.1s-0.1,0-0.1,0.1
	c-0.1,0.1-0.1,0.1-0.3,0.3v0.1c0,0.1-0.1,0.3-0.1,0.4c0,0.1,0,0.3,0,0.3c0.1,0.1,0.1,0.4,0.3,0.6c-0.1-0.1-0.3-0.1-0.3-0.3L24.6,14
	l-0.1-0.1c-0.1-0.1-0.1-0.3-0.4-0.3c-0.1,0-0.1-0.1-0.3-0.1h-0.1c-0.1,0.1-0.3,0.1-0.4,0.3L23,13.8c0,0,0,0-0.1,0h-0.1
	c0,0-0.1,0-0.1,0.1c-0.1,0.1-0.3,0.3-0.4,0.4c0,0,0,0,0-0.1c0.1-0.1,0.1-0.3,0.3-0.4c0.1-0.1,0.3-0.3,0.4-0.4c0.1,0,0.3-0.1,0.3-0.3
	c0.1-0.1,0.1-0.1,0.3-0.3c0.1,0,0.1,0,0.3,0c0.1,0,0.3,0.1,0.4,0.1h0.1c0.1,0,0.1-0.1,0-0.1c0-0.1-0.1-0.3-0.1-0.4
	C24,12,23.7,12,23.4,11.9c0,0-0.1,0-0.1-0.1l0,0c0-0.3-0.3-0.4-0.4-0.7l0,0c-0.1-0.1-0.3-0.1-0.4,0c-0.1,0.1-0.3,0.4-0.6,0.6
	c-0.1,0.1-0.1,0.3-0.3,0.4c0,0.1-0.1,0.3-0.3,0.4c-0.1,0.1-0.1,0.3-0.3,0.3c0,0,0,0.1-0.1,0.3c0,0,0,0.1-0.1,0.1
	c-0.1,0.1-0.1,0.1-0.3,0.3c-0.1,0-0.1,0-0.3,0c0.1-0.1,0.3-0.3,0.4-0.6c0.1-0.3,0.3-0.4,0.4-0.7c-0.3,0-0.7,0.3-0.9,0.6
	s-0.3,0.4-0.6,0.6c-0.1,0.1-0.3,0.3-0.3,0.4c-0.1,0.3-0.3,0.4-0.6,0.6c-0.1,0-0.1,0.1-0.3,0.1l0,0c0,0,0-0.1,0.1-0.1
	c0.1-0.3,0.3-0.6,0.3-0.9c0-0.1,0-0.1-0.1-0.3c-0.1,0-0.1-0.1-0.3-0.1c0,0-0.1-0.1-0.1-0.3c-0.1-0.1-0.1-0.1-0.3,0
	c-0.1,0.1-0.3,0.1-0.3,0.3c-0.1,0.1-0.4,0.3-0.6,0.6c-0.1,0-0.1,0.1-0.3,0.1h-0.1c-0.4,0.3-0.9,0.6-1.3,0.7h-0.1
	c0.1,0,0.1-0.1,0.3-0.1c0.1-0.1,0.3-0.3,0.6-0.4l0.1-0.1c0,0,0.1-0.1,0.3-0.1c0.1,0,0.3-0.1,0.3-0.1c0.1,0,0.3-0.1,0.3-0.3
	c0.1-0.3,0.4-0.3,0.7-0.6c0.3-0.1,0.6-0.1,0.9,0c0.1,0.1,0.3,0.1,0.4,0.3c0.1,0,0.3,0,0.3,0c0.3-0.3,0.6-0.4,0.7-0.7
	c0.3-0.3,0.6-0.3,0.9-0.4c0.1,0,0.3-0.1,0.4-0.3c0.1-0.1,0.3-0.3,0.6-0.4c0,0,0.1,0,0.1-0.1l0.1-0.1c0.1-0.1,0.3-0.1,0.4,0
	c0.1,0.1,0.3,0.3,0.4,0.4c0,0.1,0.1,0.3,0.3,0.3l0.1,0.1c0.1,0.1,0.1,0.1,0.3,0.3L24,12c0,0.1,0.1,0.1,0.1,0.3
	c0.1,0.1,0.3,0.1,0.3,0c0-0.1,0.1-0.1,0.1-0.3l0.1-0.1c0,0,0.1,0,0.1-0.1c0.1,0,0.1-0.1,0.1-0.3c0.1-0.1,0.1-0.1,0.3-0.1
	s0.3,0.1,0.3,0.1c0.1,0.1,0.3,0.3,0.4,0.4c0.1,0.1,0.3,0.1,0.4,0.3c0.1,0,0.3,0,0.3,0.1c0.1,0,0.1,0.1,0.1,0.1
	c0,0.1,0.1,0.1,0.3,0.1c0.3,0,0.4,0,0.6,0.3c0,0.1,0.1,0.3,0.3,0.3l0.1,0.1c0.1,0.3,0.4,0.4,0.6,0.7c0,0.1,0.1,0.1,0.3,0.3
	c-0.4-0.1-0.6-0.3-0.9-0.6c-0.1-0.1-0.1-0.3-0.3-0.3c-0.1-0.1-0.1-0.1-0.3-0.3c0-0.1-0.1-0.1-0.1-0.3c0-0.1-0.1-0.1-0.1,0
	c0,0,0,0.1-0.1,0.1C27.9,13.8,27.9,14.1,27.8,14.4C27.9,14.3,27.8,14.3,27.8,14.4L27.8,14.4z"/>
<path class="st2" d="M27.8,15.5v0.1c0,0.3-0.1,0.6-0.3,0.9c-0.1,0.1-0.3,0.1-0.4,0.1h-0.1c-0.1,0-0.3,0-0.3,0.1
	c-0.1,0.1-0.1,0.3-0.3,0.4c-0.1,0.1-0.1,0.1-0.3,0.3c-0.1,0.1-0.1,0-0.3,0c0-0.1-0.1-0.1-0.1-0.3c0-0.1-0.1-0.1-0.1-0.1
	s-0.1,0-0.1-0.1c-0.1-0.1-0.1-0.1-0.3-0.3c0,0,0,0,0-0.1c0-0.1-0.1-0.3-0.1-0.3c0-0.1,0-0.1,0-0.3c0.1-0.1,0.1-0.3,0.3-0.6
	c-0.1,0.1-0.3,0.1-0.3,0.3l-0.1,0.1l-0.1,0.1c-0.1,0.1-0.1,0.1-0.4,0.3c-0.1,0-0.1,0.1-0.3,0.1h-0.1c-0.1-0.1-0.3-0.1-0.4-0.3
	L23,15.9c0,0,0,0-0.1,0h-0.1c0,0-0.1,0-0.1-0.1c-0.1-0.1-0.3-0.3-0.4-0.3l0,0c0.1,0.1,0.1,0.3,0.3,0.3c0.1,0.1,0.3,0.3,0.4,0.3
	c0.1,0,0.3,0.1,0.3,0.3c0.1,0.1,0.1,0.1,0.3,0.1s0.1,0,0.3,0c0.1,0,0.3,0,0.4-0.1h0.1c0.1,0,0.1,0,0,0.1c0,0.1-0.1,0.1-0.1,0.3
	c-0.1,0.1-0.4,0.3-0.7,0.3c0,0-0.1,0-0.1,0.1l0,0c0,0.3-0.3,0.4-0.4,0.6l0,0c-0.1,0.1-0.3,0.1-0.4,0c-0.1-0.1-0.3-0.3-0.6-0.4
	c0.1,0.1,0,0.1-0.1,0c0-0.1-0.1-0.3-0.3-0.4c-0.1-0.1-0.1-0.1-0.3-0.3c0,0,0-0.1-0.1-0.1c0,0,0-0.1-0.1-0.1
	c-0.1-0.1-0.1-0.1-0.3-0.3c-0.1,0-0.1,0-0.3,0c0.1,0.1,0.3,0.3,0.4,0.4c0.1,0.1,0.3,0.4,0.4,0.6c-0.3,0-0.7-0.1-0.9-0.4
	c-0.1-0.1-0.3-0.3-0.6-0.4c-0.1-0.1-0.3-0.1-0.3-0.3c-0.1-0.3-0.3-0.4-0.6-0.6c-0.1,0-0.1-0.1-0.3-0.1l0,0c0,0,0,0.1,0.1,0.1
	c0.1,0.1,0.3,0.4,0.3,0.7c0,0.1,0,0.1-0.1,0.1s-0.1,0.1-0.3,0.1l-0.1,0.1c-0.1,0.1-0.1,0.1-0.3,0c-0.1,0-0.3-0.1-0.3-0.3
	c-0.1-0.1-0.4-0.3-0.6-0.4c-0.1,0-0.1-0.1-0.3-0.1h-0.1c-0.4-0.3-0.9-0.4-1.3-0.6h-0.1c0.1,0,0.1,0.1,0.3,0.1
	c0.1,0.1,0.3,0.3,0.6,0.3l0.1,0.1c0,0,0.1,0.1,0.3,0.1c0.1,0,0.3,0.1,0.3,0.1c0.1,0,0.3,0.1,0.3,0.3c0.1,0.1,0.4,0.3,0.7,0.4
	c0.3,0.1,0.6,0.1,0.9,0c0.1-0.1,0.3-0.1,0.4-0.1c0.1,0,0.3,0,0.3,0c0.3,0.1,0.6,0.4,0.7,0.6c0.3,0.1,0.6,0.3,0.9,0.3
	c0.1,0,0.3,0.1,0.4,0.3c0.1,0.1,0.3,0.3,0.6,0.4c0,0,0.1,0,0.1,0.1l0.1,0.1c0.1,0.1,0.3,0.1,0.4,0c0.1-0.1,0.3-0.3,0.4-0.4
	c0-0.1,0.1-0.3,0.3-0.3l0.1-0.1c0.1-0.1,0.1-0.1,0.3-0.1l0.1-0.1l0.1-0.1c0.1-0.1,0.3-0.1,0.3,0c0,0.1,0.1,0.1,0.1,0.3l0.1,0.1
	c0,0,0.1,0,0.1,0.1c0.1,0,0.1,0.1,0.1,0.1c0.1,0.1,0.1,0.1,0.3,0c0.1,0,0.3-0.1,0.3-0.1c0.1-0.1,0.3-0.1,0.4-0.3
	c0.1-0.1,0.3-0.1,0.4-0.1c0.1,0,0.3,0,0.3-0.1c0.1,0,0.1-0.1,0.1-0.1c0-0.1,0.1-0.1,0.3-0.1c0.3,0,0.4,0,0.6-0.3
	c0-0.1,0.1-0.1,0.3-0.3l0.1-0.1c0.1-0.1,0.4-0.4,0.6-0.6c0-0.1,0.1-0.1,0.3-0.3c-0.4,0.1-0.6,0.3-0.9,0.4c-0.1,0.1-0.1,0.1-0.3,0.3
	c-0.1,0-0.1,0.1-0.3,0.3l-0.1,0.1h-0.1c0,0,0-0.1-0.1-0.1C27.9,15.9,27.9,15.8,27.8,15.5C27.9,15.6,27.9,15.6,27.8,15.5
	C27.9,15.5,27.8,15.5,27.8,15.5z"/>
<line class="st5" x1="15.1" y1="14.9" x2="30" y2="14.9"/>
<polygon class="st1" points="9.2,6.2 9.5,6.2 9.7,9.2 9.2,9.2 "/>
<polygon class="st0" points="9.7,5.9 9.5,6.2 11.3,7.1 11.5,6.9 "/>
<polygon class="st0" points="9.4,5.6 9.5,5.7 9.5,3.6 9.4,3.6 "/>
<polygon class="st0" points="9.2,6.2 9.1,5.9 7.4,7.1 7.4,7.1 "/>
<circle class="st0" cx="9.4" cy="5.9" r="0.1"/>
</svg>
