<?xml version="1.0" encoding="UTF-8" standalone="no"?>
<!DOCTYPE svg PUBLIC "-//W3C//DTD SVG 1.1//EN" "http://www.w3.org/Graphics/SVG/1.1/DTD/svg11.dtd">
<svg viewBox="0 0 1280 720" height="720.0pt" width="1280.0pt" xmlns="http://www.w3.org/2000/svg" version="1.1">
<path d="M 0.00 0.00 L 1280.00 0.00 L 1280.00 720.00 L 0.00 720.00 L 0.00 0.00 Z" fill="#ffffff" />
<path d="M 651.61 212.95 C 653.53 223.41 654.74 233.88 657.91 244.09 C 663.24 264.46 673.10 284.12 687.09 299.92 C 690.70 304.12 694.28 308.17 696.99 313.04 C 706.47 329.34 707.41 351.29 697.78 367.74 C 691.95 378.14 681.94 386.72 670.66 390.66 C 651.18 398.07 627.87 392.32 613.02 377.98 C 602.18 367.75 595.22 352.98 594.89 338.02 C 594.11 322.92 600.51 307.82 611.49 297.50 C 620.38 289.12 627.81 279.32 633.58 268.56 C 640.46 256.43 644.82 242.63 648.04 229.10 C 649.37 223.72 649.60 217.98 651.61 212.95 Z" fill="#4472c6" />
<path d="M 636.47 283.03 C 637.60 292.14 639.31 302.11 643.90 310.19 C 646.68 315.16 651.06 318.46 653.66 323.42 C 655.71 327.14 655.93 331.93 655.35 336.05 C 653.35 347.57 644.44 357.12 633.22 360.24 C 626.31 361.85 617.74 360.78 612.80 355.20 C 607.02 349.11 605.97 340.00 609.27 332.41 C 612.27 324.72 617.77 320.10 622.82 313.91 C 629.38 304.50 634.01 294.26 636.47 283.03 Z" fill="#ffffff" />
<path d="M 558.41 308.97 C 560.42 313.12 560.31 318.28 561.32 322.78 C 564.10 336.70 567.73 351.17 573.96 363.97 C 576.67 370.10 580.05 375.70 583.61 381.38 C 588.28 388.71 593.92 394.91 599.45 401.54 C 607.68 412.03 612.52 425.65 611.83 439.03 C 611.65 448.19 608.83 457.28 604.13 465.10 C 597.48 475.77 586.67 484.24 574.46 487.46 C 567.38 489.58 560.27 489.54 552.97 489.06 C 529.36 486.56 509.21 468.08 503.80 445.11 C 500.76 432.22 502.13 418.16 508.45 406.42 C 511.48 400.65 515.76 395.92 520.47 391.48 C 530.10 382.30 537.45 371.34 543.50 359.55 C 548.32 349.36 552.09 338.59 554.59 327.59 C 556.33 321.46 556.87 315.12 558.41 308.97 Z" fill="#4472c6" />
<path d="M 541.24 378.67 L 541.33 378.48 C 542.61 388.07 544.27 397.08 549.62 405.36 C 553.55 411.75 559.34 415.24 561.02 422.93 C 564.94 439.96 548.25 458.25 530.95 456.23 C 523.56 455.23 516.05 450.54 513.86 443.07 C 510.66 434.04 513.88 424.01 520.05 417.06 C 525.68 410.73 530.90 404.26 534.49 396.52 C 537.40 390.78 538.97 384.63 541.24 378.67 Z" fill="#ffffff" /></svg>