<?xml version="1.0" encoding="utf-8"?>
<!-- Generator: Adobe Illustrator 19.2.1, SVG Export Plug-In . SVG Version: 6.00 Build 0)  -->
<svg version="1.1" id="Capa_1" xmlns="http://www.w3.org/2000/svg" xmlns:xlink="http://www.w3.org/1999/xlink" x="0px" y="0px"
	 viewBox="28.1 27.6 37.5 50" enable-background="new 28.1 27.6 37.5 50" xml:space="preserve">
<path fill="#6E8935" d="M45.1,46.9c0,1,0,2,0,3c0,0.2,0.2,0.4,0.3,0.6c0.1,0,0.2-0.1,0.2-0.1c0-1.1,0-2.3,0-3.4
	c0.3-0.1,0.5-0.1,0.8-0.2c-0.1-2.9-0.2-5.8-0.3-8.6c-0.1,0-0.2,0-0.2,0c-0.5,0.5-1,0.9-1.5,1.4c-0.1,0.1-0.2,0.3-0.2,0.4
	c0,2.3,0,4.6,0,6.9C44.6,46.8,44.8,46.9,45.1,46.9z"/>
<path fill="#6E8935" d="M65.6,52.2c0,0.6,0,1.1,0,1.6c-0.3,0-0.6,0-1,0.1c0,7.7,0,15.3,0,23c-1.2,0-2.4,0-3.6,0c0-7.7,0-15.3,0-23
	c-5.7,0-11.4,0-17.1,0c0,7.7,0,15.3,0,23c-1.2,0-2.3,0-3.5,0c0-7.7,0-15.3,0-23c-0.3,0-0.6-0.1-0.9-0.1c0-0.5,0-1,0-1.6
	c4.6,0,9.2,0,13.8,0c0-0.5,0.1-0.9,0.1-1.4c0.6,0,1.3,0,1.9,0c0-4.3,0-8.6,0-12.8c0.9-0.4,1.8-0.8,2.7-1.1c0.2-0.1,0.4,0,0.6,0
	c1,0.2,1.8-0.2,2.1-1.1c0.3-0.8-0.1-1.7-0.9-2.1c-0.8-0.4-1.7-0.1-2.2,0.7c-0.1,0.2-0.3,0.3-0.6,0.5c0-1,0-2,0-2.9
	c-0.6-0.2-0.8-0.1-0.8,0.4c0,0.8,0,1.6,0,2.3c0,0.5-0.2,0.7-0.7,0.7c0-1.2,0-2.4,0-3.6c-0.3,0-0.5,0-0.8,0c0,1.3,0,2.7,0,3.9
	c-0.8-0.4-1.6-0.9-2.4-1.1c-0.8-0.1-1.7,0.1-2.5,0.1c-0.4-1.6-1.1-2.1-2.5-1.9c-0.7-0.6-1.2-1-1.8-1.5c0,0-0.1,0.1-0.1,0.1
	c0-0.1,0-0.2,0-0.4c0-1,0-1,0.9-1c1.2,0,2.3,0,3.6,0c0-0.9,0-1.8,0-2.7c3.2,0,6.3,0,9.6,0c0,0.9,0,1.8,0,2.7c0.6,0,1.1,0,1.7,0
	c0,2.7,0,5.3,0,7.9c-0.5,0-0.9,0-1.4,0.1c0,4.2,0,8.3,0,12.6c0.7,0,1.4,0,2.1,0c0,0.5,0.1,0.9,0.1,1.4
	C63.2,52.2,64.4,52.2,65.6,52.2z"/>
<path fill="#6E8935" d="M36.3,40.3c-0.8,0-1.5,0.1-2.2,0.1c-1.3,0-2.2,0.7-2.3,1.9c-0.1,1.2,0.8,2.1,2.1,2.1c0.9,0,1.8,0,2.8,0
	c-0.1,0.5-0.2,1.1-0.3,1.6c-0.3,2-0.5,4-0.8,6c-0.2,1.8,0.5,3.4,0.9,5.1c1.4,6.3,1.4,12.5-0.8,18.6c-0.5,1.5-1.9,2.2-3.3,1.7
	c-1.4-0.5-2.1-1.9-1.5-3.4c1.9-5.3,1.9-10.6,0.6-16.1c-0.1-0.5-0.3-0.7-0.8-0.9c-1.4-0.5-2-1.7-2.2-3.1c-0.4-2.8-0.4-5.5,0.2-8.3
	c0.3-1.1,0.6-2.2,0.9-3.2c0.8-2.3,2.7-3.7,4.8-3.5C35.3,39,35.9,39.4,36.3,40.3z"/>
<path fill="#6E8935" d="M44.1,35.3c-0.2,0.4-0.4,0.9-0.7,1.1c-1.4,1-2.9,2-4.4,2.9c-0.3,0.2-0.7,0.2-1,0.1c-1.9-0.6-3.2-2.5-3.2-4.4
	c0.1-2.1,1.5-4,3.6-4.4c2-0.5,4.1,0.4,5,2.2C43.7,33.4,43.8,34.3,44.1,35.3z"/>
<path fill="#6E8935" d="M34.6,44.1c-0.4-0.1-0.8-0.1-1.1-0.2c-0.8-0.2-1.3-0.9-1.2-1.7c0.1-0.9,0.8-1.5,1.6-1.5
	c3.8,0.3,6.6-1.7,9.4-3.8c1.2-0.9,2.2-2,3.2-3c0.8-0.7,1.7-0.8,2.4-0.2c0.7,0.6,0.7,1.6,0,2.4c-2,2.2-4.2,4.1-6.8,5.6
	C39.8,43.1,37.3,43.9,34.6,44.1z"/>
<g>
	<path fill="#6E8935" d="M59.6,34.2c-0.6-0.3-1.1-0.1-1.5,0.5c-0.1,0.2-0.3,0.4-0.4,0.5c-1.1,0.5-2.2,0.9-3.3,1.4
		c-0.1-0.1-0.1-0.1-0.2-0.2c-1.4-1.5-3.2-1.7-4.7-0.4c-1.1,1-1.4,3.8,0.8,5c0.2,0.1,0.5,0.4,0.5,0.6c-0.1,1.1-0.2,2.2-0.4,3.3
		c0,0.2-0.2,0.4-0.4,0.5c-0.5,0.5-0.6,1.2-0.1,1.6c0.4,0.4,1.1,0.5,1.5,0.2c0.5-0.3,0.6-1,0.3-1.6c-0.1-0.2-0.2-0.5-0.2-0.7
		c0.1-1,0.2-2,0.4-3c0-0.2,0.3-0.4,0.5-0.5c1.7-0.5,2.5-1.5,2.5-3.3c0-0.2,0.2-0.5,0.4-0.6c0.9-0.4,1.8-0.8,2.8-1.2
		c0.2-0.1,0.6-0.1,0.8,0c0.7,0.1,1.2-0.1,1.4-0.7C60.4,35.1,60.2,34.5,59.6,34.2z M51.7,40c-0.9,0-1.6-0.8-1.6-1.7
		c0-0.9,0.8-1.7,1.7-1.7c0.9,0,1.7,0.8,1.7,1.7C53.4,39.3,52.6,40,51.7,40z"/>
</g>
<path fill="#6E8935" d="M47.1,46.6c-0.3-0.1-0.5-0.1-0.7-0.2c0-2.3,0-4.6,0-6.9c0-0.1,0.1-0.3,0.2-0.4c0.5-0.5,1-0.9,1.5-1.4
	c0.1,0,0.2,0,0.2,0c0.1,2.9,0.2,5.7,0.3,8.6c-0.3,0.1-0.5,0.1-0.8,0.2c0,1.1,0,2.3,0,3.4c-0.1,0-0.2,0.1-0.2,0.1
	c-0.1-0.2-0.3-0.4-0.3-0.6C47,48.6,47.1,47.6,47.1,46.6z"/>
<path fill="#6E8935" d="M44.2,33.4c0-0.6,0.5-1.1,1.1-1.1c0.6,0,1.3,0.5,1.1,0.9c-0.3,0.5-0.7,1-1.2,1.3
	C44.8,34.7,44.2,34,44.2,33.4z"/>
<path fill="#6E8935" d="M44,51.2c0.2-0.1,0.3-0.4,0.5-0.4c1.4,0,2.9,0,4.3,0c0.1,0,0.3,0.2,0.4,0.3c-0.1,0.1-0.2,0.3-0.4,0.3
	c-1.4,0-2.8,0-4.1,0c-0.2,0-0.4,0-0.6,0C44.1,51.3,44.1,51.3,44,51.2z"/>
</svg>
