<?xml version="1.0" encoding="utf-8"?>
<!-- Generator: Adobe Illustrator 19.2.1, SVG Export Plug-In . SVG Version: 6.00 Build 0)  -->
<svg version="1.1" id="Calque_1" xmlns="http://www.w3.org/2000/svg" xmlns:xlink="http://www.w3.org/1999/xlink" x="0px" y="0px"
	 viewBox="0 0 30.2 42" style="enable-background:new 0 0 30.2 42;" xml:space="preserve">
<style type="text/css">
	.st0{fill:#6E8935;}
	.st1{fill:none;stroke:#6E8935;stroke-width:8.036193e-002;stroke-miterlimit:10;}
	.st2{fill:none;stroke:#6E8935;stroke-width:0.1607;stroke-miterlimit:10;}
	.st3{fill:#FFFFFF;stroke:#6E8935;stroke-width:0.1607;stroke-miterlimit:10;}
	.st4{fill:none;stroke:#FFFFFF;stroke-width:8.036193e-002;stroke-miterlimit:10;}
	.st5{fill:#6E8935;stroke:#FFFFFF;stroke-width:8.036193e-002;stroke-miterlimit:10;}
	.st6{fill:#3F521D;}
</style>
<path class="st0" d="M24,16.7c0,0,0,0.7-0.3,1c0,0-0.3,0.4-0.3,0.7c0-0.1-0.6-0.4-0.6-1c0,0,0-0.6,0.3-1c0.1-0.3,0.4-0.4,0.4-0.4
	s0.3-0.4,0.1-0.9c0,0,0.7,0.7,0.7,1.5c0,0,0.3,0.9-0.3,1.5c0,0-0.1,0.1-0.4,0.3c0,0-0.4,8.7-0.3,8.8c0.1,0-0.4,0.1-0.4,0.1
	c0-0.4,0.6-6.4,0.4-9c0,0,0.3-0.4,0.4-0.9C24.2,17.3,24.2,16.9,24,16.7L24,16.7L24,16.7z"/>
<path class="st0" d="M24,27.3c0,0.3-0.3,0.4-0.4,0.4c-0.3,0-0.4-0.1-0.4-0.4l0,0l0,0c0,0.1,0.1,0.1,0.4,0.1c-0.1,0-0.1-0.1-0.3,0
	c0-0.1-0.1-0.3,0-0.4c0.1-0.1,0.4,0,0.6,0l0,0C23.9,27,24,27.2,24,27.3z"/>
<path class="st1" d="M24.2,18.9c0,2.1,0,4,0,6.1c0,0.7,0,1.5,0,2.1c0,0.4-0.3,0.6-0.6,0.6s-0.7,0-0.7-0.6c0-2.7,0-5.5,0-8.2
	C23.3,18.9,23.7,18.9,24.2,18.9z"/>
<g>
	<path class="st2" d="M15,27.9c3.6,0,7,0,10.6,0c1.2,0,2.4-0.1,3.3-1c1.3-1.2,1.5-3.3,0.4-4.9c-3.1-4.6-6.1-9.4-9.3-14.1
		C20,7.6,19.8,7.3,19.8,7c0-1.2,0-2.4,0-3.6c0-0.1,0.3-0.4,0.4-0.6c1-0.4,1.2-1.6,0.4-2.2c-0.3-0.3-0.9-0.4-1.3-0.4
		c-2.8,0-5.5,0-8.4,0c-0.1,0-0.4,0-0.6,0C9.6,0.4,9.2,0.8,9,1.4c0,0.6,0.3,1,0.9,1.3c0.4,0.1,0.4,0.3,0.4,0.7c0,1,0,2.2,0,3.3
		c0,0.4-0.1,0.9-0.3,1.2c-3,4.6-6.1,9.3-9.1,13.8c-0.3,0.6-0.6,1.2-0.7,1.8c-0.3,1.2,0,2.4,1,3.4c0.9,0.7,1.9,0.9,3.1,0.9
		C8,27.9,11.6,27.9,15,27.9z"/>
	<path class="st3" d="M18.2,11.9H18c-0.6,0-1,0-1.6,0c-0.1,0-0.1,0-0.3,0l0,0l0,0c0.3,0.1,0.4,0.3,0.4,0.4c0,1.5,0,3,0,4.5
		c0,0.3,0,0.7,0,1c0,0.4,0,0.7,0,1.2c0,0.3-0.1,0.7-0.3,0.9c-0.1,0.3-0.4,0.4-0.7,0.6c-1.2,0.6-1.8,1.6-1.9,2.8
		c-0.1,1.5,0.4,2.7,1.6,3.4c1.3,0.9,3.4,0.9,4.6-0.3c1-0.9,1.3-1.9,1.2-3.3s-0.9-2.2-1.9-2.8c-0.1-0.1-0.4-0.3-0.6-0.4
		c-0.3-0.3-0.4-0.7-0.4-1.2c0-2.2,0-4.3,0-6.6C17.9,12.4,18,12.1,18.2,11.9L18.2,11.9z"/>
</g>
<path class="st0" d="M20.6,24c0,1.9-1.5,3.4-3.4,3.4c-1.8,0-3.4-1.5-3.4-3.4c0-1.8,1.5-3.3,3.4-3.3C19.1,20.6,20.6,22.1,20.6,24z
	 M19.2,24L19.2,24L19.2,24c-0.1-0.1-0.1-0.3-0.1-0.3l-0.1-0.1h-0.1l0,0c-0.1,0-0.3,0-0.3-0.1c0,0,0-0.1-0.1-0.1
	c-0.1,0-0.3,0-0.4,0.1l-0.1,0.1c0,0,0,0,0,0.1c-0.1,0.1-0.1,0.3-0.1,0.4c0,0.1,0,0.1,0.1,0.3l0.1,0.1c0.1,0,0.3,0,0.3,0l0,0
	c0,0,0,0,0,0.1v0.1c0.1,0.1,0.1,0.3,0,0.3v0.1c0,0.1,0.1,0.3,0.1,0.4V26l0,0h0.1c0,0,0,0,0.1,0c0,0,0-0.1,0.1-0.1l0.1-0.1
	c0-0.1,0-0.1,0.1-0.3l0,0c0-0.1,0-0.1,0-0.3c0-0.1,0-0.1,0-0.3l0.1-0.1c0.1-0.1,0.1-0.1,0.1-0.3h-0.1C19.2,24.3,19.2,24.2,19.2,24
	C19.2,24.2,19.2,24.2,19.2,24C19.2,24.2,19.2,24.2,19.2,24c0.1,0.1,0.1,0.1,0.1,0.1s0,0,0.1,0s0.1-0.1,0.3-0.3l0,0c0,0,0,0-0.1,0
	c0,0,0,0-0.1,0c0,0,0,0-0.1-0.1v-0.1l0,0l0,0l0,0h0.1h0.1l0,0l0,0c0-0.6-0.3-1-0.6-1.5l0,0l0,0l0,0c0,0,0,0,0-0.1h0.1l0,0l0,0h-0.1
	c-0.1,0-0.3,0-0.4,0l-0.1,0.1c0,0,0,0-0.1,0.1h-0.1c0,0.1,0,0.1,0.1,0.1c0,0,0,0,0,0.1l0,0l0,0c-0.1,0,0,0.1,0,0.1s-0.1,0-0.1,0.1
	l0,0c0,0,0,0-0.1,0c0,0,0.1,0.1,0,0.1h-0.1v0.1c0,0,0,0.1,0.1,0.1h0.1c0,0,0-0.1,0.1-0.1c0,0,0.1-0.1,0.1,0c0,0.1,0.1,0,0.1,0.1
	c0,0,0,0,0-0.1L18.5,23c0,0,0.1,0,0.1,0.1c0,0,0,0.1,0.1,0.1c0.1,0,0-0.1,0-0.1s0,0,0.1,0c0,0.1,0,0.1,0.1,0.1h0.1v0.1l0,0
	C19.1,23.7,19.1,23.9,19.2,24z M15.5,22.1C15.3,22.1,15.3,22.1,15.5,22.1c-0.1-0.1-0.1-0.1-0.1-0.1c-0.3,0.3-0.4,0.6-0.6,0.9l0,0V23
	c0,0.1,0,0.1,0.1,0.3c0,0,0,0,0.1,0l0,0c0,0.1,0.1,0.1,0.1,0.3c0,0,0,0,0.1,0c0-0.1-0.1-0.1-0.1-0.3l0,0l0,0c0.1,0,0.1,0.1,0.1,0.3
	c0,0,0,0.1,0.1,0.1s0.3,0.1,0.3,0.1c0.1,0,0.1,0.1,0.1,0.1c0,0.1,0.1,0.1,0.1,0v0.1l0,0c-0.1,0.1,0,0.1,0,0.3l0,0
	c0,0,0.1,0.1,0.1,0.3c0,0,0,0.1,0.1,0.1l0.1,0.1c0,0.1,0,0.3,0,0.4v0.1c0,0,0,0,0,0.1V26c0,0.1,0,0.1,0,0.3l0,0h0.1v-0.1
	c0,0,0,0,0-0.1v-0.1l0,0c0,0,0-0.1,0.1-0.1c0,0,0,0,0.1-0.1c0-0.1,0.1-0.1,0.1-0.1l0,0c0,0,0.1,0,0.1-0.1c0,0,0-0.1,0.1-0.1
	c0.1,0,0.1-0.1,0.1-0.1v-0.1v-0.1c0,0,0-0.1,0-0.3h-0.1l-0.1-0.1l0,0c0,0,0-0.1-0.1-0.1C17,24,17,24,17,23.9c0,0,0,0-0.1,0h-0.1l0,0
	l0,0c0,0-0.1,0-0.1,0.1l0,0c0,0,0,0-0.1,0l0,0c0,0,0,0,0-0.1v-0.1l0,0c0,0,0,0-0.1,0c0,0,0,0,0-0.1c0,0,0,0,0-0.1c0,0,0,0-0.1,0
	c0,0-0.1,0,0,0.1l0,0c-0.1-0.1-0.1-0.1-0.1-0.3s0.1-0.1,0.1-0.1h0.1c0.1,0,0.1,0,0.1,0.1l0,0l0,0v-0.1c0,0,0,0,0-0.1l0.1-0.1
	c0,0,0-0.1,0.1-0.1l0,0c0,0,0-0.1,0.1-0.1l0,0H17v-0.1h-0.1l0,0c0,0,0-0.1,0.1-0.1c0.1,0,0.1,0,0.3,0l0,0l0,0l-0.1-0.1
	c0,0,0,0,0-0.1c0,0.1-0.1,0.1-0.1,0c-0.1-0.1-0.1-0.1-0.3-0.1v0.1v0.1c-0.1,0,0,0.1-0.1,0.1c0,0,0,0,0-0.1c0,0,0-0.1-0.1-0.1l0,0
	h-0.1c0,0-0.1,0-0.1-0.1v-0.1c0,0,0.1,0,0.1-0.1l0,0c0,0,0,0,0,0.1h0.1c0,0,0,0-0.1,0c0,0,0.1,0,0.1-0.1c0,0,0,0-0.1,0v0.1v-0.1
	c0,0,0,0-0.1,0l0,0C15.6,22.1,15.6,22.2,15.5,22.1L15.5,22.1C15.5,22.2,15.5,22.2,15.5,22.1C15.5,22.2,15.3,22.2,15.5,22.1
	C15.5,22.2,15.5,22.2,15.5,22.1z M19.4,25.2L19.4,25.2c-0.1,0.1-0.1,0.3-0.1,0.3l0,0l0,0l0,0C19.4,25.5,19.4,25.4,19.4,25.2
	C19.5,25.2,19.5,25.2,19.4,25.2C19.5,25.2,19.5,25.2,19.4,25.2L19.4,25.2z M17.9,22.5C17.9,22.5,17.9,22.7,17.9,22.5
	c0,0.1,0,0.1,0,0.3c0.1,0,0.1,0,0.1,0C18,22.7,18,22.7,17.9,22.5z M17.4,22.4c0.1,0,0.3,0,0.3,0C17.6,22.2,17.6,22.2,17.4,22.4
	C17.4,22.2,17.4,22.4,17.4,22.4C17.4,22.2,17.4,22.2,17.4,22.4z M17.9,22.7C17.9,22.7,17.7,22.7,17.9,22.7
	C17.7,22.8,17.7,22.8,17.9,22.7C17.9,22.8,17.9,22.7,17.9,22.7z M16.2,24c0-0.1-0.1-0.1-0.1,0C16.1,23.9,16.1,24,16.2,24z M16.4,24
	h-0.1C16.4,24,16.4,24,16.4,24z"/>
<line class="st2" x1="10.7" y1="3.4" x2="19.5" y2="3.4"/>
<line class="st2" x1="10.7" y1="3.8" x2="19.5" y2="3.8"/>
<polygon class="st0" points="13.2,14.5 7.1,14.3 5.4,19.2 11.6,19.4 "/>
<polygon class="st4" points="12.3,14.9 7.8,14.9 6.5,18.5 11.1,18.6 "/>
<rect x="4.3" y="23.1" transform="matrix(1.915926e-002 -0.9998 0.9998 1.915926e-002 -14.8708 31.8359)" class="st0" width="9" height="0.7"/>
<polygon class="st5" points="11.9,15.4 11.1,15.2 10.8,16.1 11.6,16.1 "/>
<polygon class="st5" points="11.6,16.4 10.7,16.4 10.5,17.2 11.3,17.2 "/>
<polygon class="st5" points="11.1,17.3 10.4,17.3 10.1,18.2 11,18.2 "/>
<polygon class="st5" points="10.8,15.2 10.1,15.2 9.8,16.1 10.5,16.1 "/>
<polygon class="st5" points="10.5,16.3 9.8,16.3 9.5,17.2 10.2,17.2 "/>
<polygon class="st5" points="10.1,17.3 9.3,17.3 9,18.1 9.9,18.1 "/>
<polygon class="st5" points="9.8,15.2 9,15.2 8.7,16.1 9.5,16.1 "/>
<polygon class="st5" points="9.5,16.3 8.7,16.3 8.4,17 9.2,17.2 "/>
<polygon class="st5" points="9.2,17.3 8.4,17.3 8.1,18.1 8.9,18.1 "/>
<polygon class="st5" points="8.7,15.2 8,15.2 7.7,16 8.6,16.1 8.9,15.2 "/>
<polygon class="st5" points="8.4,16.3 7.7,16.3 7.4,17 8.3,17 8.6,16.3 "/>
<polygon class="st5" points="8,17.3 7.2,17.3 6.9,18.1 7.8,18.1 8.1,17.3 "/>
<line class="st1" x1="17.6" y1="13.7" x2="17.9" y2="13.7"/>
<line class="st1" x1="17.6" y1="14.6" x2="17.9" y2="14.6"/>
<path class="st6" d="M26.4,37.4c0.3,0,0.6-0.3,0.6-0.6c0-0.3-0.3-0.6-0.6-0.6h-0.9h-2.2H10.5c-1.2,0-2.1,0.9-2.1,2.1v1.6
	c0,1.2,0.9,2.1,2.1,2.1h12.9h2.1h0.9c0.3,0,0.6-0.3,0.6-0.6s-0.3-0.6-0.6-0.6h-0.3v-3.1h0.3V37.4z M24.9,40.7h-1.5H10.5
	c-0.4,0-0.7-0.3-0.7-0.7v-1.6c0-0.4,0.3-0.7,0.7-0.7h12.9h1.5V40.7z"/>
<path class="st0" d="M27.9,28.4h-5.5H7.8H2.4c-0.3,0-0.6,0.3-0.6,0.6c0,0.3,0.3,0.6,0.6,0.6H3V35c-0.3,0.1-0.4,0.6-0.4,0.9
	c0,0.6,0.4,1.2,1.2,1.2S5,36.6,5,35.9c0-0.4-0.1-0.7-0.4-0.9v-5.5h3v5.1c0,0.3,0.3,0.6,0.6,0.6h14.5c0.3,0,0.6-0.3,0.6-0.6v-5.1H28
	c0.3,0,0.6-0.3,0.6-0.6C28.5,28.7,28.2,28.4,27.9,28.4z"/>
</svg>
