<?xml version="1.0" encoding="utf-8"?>
<!-- Generator: Adobe Illustrator 19.2.1, SVG Export Plug-In . SVG Version: 6.00 Build 0)  -->
<svg version="1.1" id="Calque_1" xmlns="http://www.w3.org/2000/svg" xmlns:xlink="http://www.w3.org/1999/xlink" x="0px" y="0px"
	 viewBox="0 0 30.3 48.5" style="enable-background:new 0 0 30.3 48.5;" xml:space="preserve">
<style type="text/css">
	.st0{fill:none;stroke:#6E8935;stroke-width:0.3369;stroke-miterlimit:10;}
	.st1{fill:#648318;}
	.st2{fill:#84AB20;}
	.st3{fill:#6E8935;}
	.st4{fill:#6E8935;stroke:#FFFFFF;stroke-width:0.3369;stroke-miterlimit:10;}
</style>
<g>
	<path class="st0" d="M25.8,4.4C23.4,2,20,0.3,15.3,0.2h-1.1C9.9,0.2,6.9,2,4.5,4.4c-1.2,1.2-2.2,2.4-3,4s-1.2,3.5-1.4,5.7v1.1
		c0.2,2.5,0.6,4.6,1.4,6.5c0.9,1.8,1.8,3.4,2.7,5.1C5.1,28.4,6.3,30,6.8,32c0.5,1.2,0.5,2.4,0.8,3.6c0.2,0.9,0.8,1.7,1.4,2.3h0.4h12
		h0.5c1.3-1.3,1-4,1.6-5.7c0.6-1.9,1.6-3.8,2.5-5.4c1.8-3.5,3.9-6.8,4.2-11.7v-0.4C30,9.9,28.2,6.8,25.8,4.4z"/>
	<path class="st1" d="M19.1,47.4c0,0.6-0.5,1.1-1,1.1h-5.6c-0.6,0-1-0.5-1-1.1l0,0c0-0.6,0.4-1,1-1H18
		C18.6,46.4,19.1,46.8,19.1,47.4L19.1,47.4z"/>
	<path class="st1" d="M21.3,40.7c0,0.3-0.3,0.6-0.5,0.6H9.8c-0.3,0-0.4-0.3-0.4-0.6l0,0c0-0.3,0.3-0.6,0.4-0.6h11.1
		C21.2,40.1,21.3,40.4,21.3,40.7L21.3,40.7z"/>
	<path class="st2" d="M21.3,42.5c0,0.3-0.3,0.6-0.5,0.6H9.8c-0.3,0-0.4-0.3-0.4-0.6l0,0c0-0.3,0.3-0.6,0.4-0.6h11.1
		C21.2,41.9,21.3,42,21.3,42.5L21.3,42.5z"/>
	<path class="st1" d="M20.9,44.1c0,0.3-0.1,0.6-0.4,0.6H10.2c-0.3,0-0.5-0.3-0.5-0.6l0,0c0-0.3,0.1-0.6,0.5-0.6h10
		C20.6,43.5,20.9,43.8,20.9,44.1L20.9,44.1z"/>
	<path class="st2" d="M19.8,45.6c0,0.1-0.1,0.3-0.5,0.3h-8.2c-0.1,0-0.5-0.2-0.5-0.3l0,0c0-0.2,0.2-0.3,0.5-0.3h8.2
		C19.5,45.3,19.8,45.5,19.8,45.6L19.8,45.6z"/>
	<path class="st2" d="M21.5,39c0,0.3-0.3,0.6-0.5,0.6H9.6c-0.3,0-0.5-0.3-0.5-0.6l0,0c0-0.3,0.3-0.6,0.5-0.6h11.2
		C21.2,38.4,21.5,38.7,21.5,39L21.5,39z"/>
	<circle class="st0" cx="22.5" cy="9.8" r="5.1"/>
	<circle class="st0" cx="11.7" cy="6.5" r="5.1"/>
	<circle class="st0" cx="22.5" cy="20.7" r="5.1"/>
	<polygon class="st3" points="9.9,22.5 10.8,22.5 11.1,31.8 9.6,31.8 	"/>
	<polygon class="st3" points="11.3,21.5 11,22.2 16.7,25.1 16.8,24.9 	"/>
	<polygon class="st3" points="10.1,20.7 10.8,20.7 10.5,14.3 10.4,14.3 	"/>
	<polygon class="st3" points="9.8,22.2 9.5,21.6 4.1,25.2 4.2,25.4 	"/>
	<circle class="st3" cx="10.4" cy="21.5" r="0.5"/>
	<path class="st3" d="M23.9,10.5c0,0,0,0.8-0.3,1.2c0,0-0.3,0.6-0.5,0.8c0,0-0.6-0.5-0.6-1.2c0,0,0-0.6,0.3-1.2
		c0.2-0.3,0.5-0.5,0.5-0.6c0,0,0.3-0.5,0.1-1.1c0,0,0.9,0.8,0.9,1.7c0,0,0.3,1-0.2,1.6c0,0-0.1,0.3-0.4,0.4c0,0-0.5,0.6-0.3,0.7
		h-0.3c0,0,0-0.4,0.2-0.9c0,0,0.3-0.5,0.4-1.1C24,11,24,10.7,23.9,10.5L23.9,10.5L23.9,10.5z"/>
	<path class="st3" d="M10.5,33.5l0.1-0.4l0.6,1.3l-1.4,0.3l0.2-0.4c0,0-0.9-0.3-1.1,0.8c0,0,0.1,1,1.2,1c0,0,0.6,0,0.8-0.4
		c0,0-0.2,0.6-0.5,0.8S9.3,36.8,8.4,36c0-0.1-0.9-0.9,0-1.9c0,0,0.6-0.6,1.5-0.5L10.5,33.5z"/>
	<path class="st3" d="M11.4,33c0,0,0.5,0.3,0.5,1.2c0,0,0.3,0.2,0.6-0.3c0,0,0.8-0.9,2,0c0.6,0.5,0.6,0.5,0.6,0.5s0.6,0.3,1.2-0.2
		c0,0,1-1.3,2.4-0.2c0,0,1,0.8,1.8-0.1c0,0,1.1-0.8,2.1,0v-1.4c0,0-0.9-0.9-2.1,0c0,0-0.9,0.8-1.9,0c0,0-0.8-0.7-1.8,0
		c0,0-0.6,0.8-2.1,0.2c0,0-0.8-1.1-2.1,0C12.3,32.6,12.2,32.9,11.4,33C11.4,32.9,11.4,33,11.4,33z"/>
	<path class="st3" d="M11.4,35.1c0,0,0.5,0.2,0.5,0.8c0,0,0.3,0,0.6-0.2c0,0,0.8-0.6,2,0C15,36,15,36,15,36s0.6,0.1,1.2-0.2
		c0,0,1-0.9,2.4-0.2c0,0,1,0.5,1.8,0c0,0,1.1-0.6,2.1,0v-0.9c0,0-0.9-0.6-2.1,0c0,0-0.9,0.6-1.9,0c0,0-0.8-0.4-1.8,0
		c0,0-0.6,0.5-2.1,0.2c0,0-0.8-0.6-2.1,0C12.3,35,12.2,35.1,11.4,35.1L11.4,35.1z"/>
	<path class="st3" d="M8.3,34.5c0,0-0.6-0.9,0.1-1.5c0,0,0.8-0.3,0.6,0.3c0,0-0.1,0.2-0.1,0.3C8.6,33.8,8.3,33.9,8.3,34.5
		C8.3,34.4,8.3,34.5,8.3,34.5z"/>
	<path class="st3" d="M12.2,5.6L12.2,5.6C12,5.6,12,5.4,12.2,5.6L12,4.1c0,0,0-0.2,0.2-0.2l0,0c0,0,0.2,0,0.2,0.2L12.2,5.6
		C12.2,5.4,12.2,5.6,12.2,5.6z"/>
	<path class="st3" d="M10.2,5.6L10.2,5.6C10.2,5.6,10.1,5.4,10.2,5.6l-0.2-1.5c0,0,0-0.2,0.2-0.2l0,0c0,0,0.1,0,0.1,0.2L10.2,5.6
		C10.4,5.4,10.4,5.6,10.2,5.6z"/>
	<path class="st3" d="M12.2,7.7h-1.9c-0.2,0-0.3-0.1-0.3-0.3V5.9c0-0.1,0.2-0.3,0.3-0.3h1.9c0.2,0,0.3,0.1,0.3,0.3v1.5
		C12.5,7.5,12.3,7.7,12.2,7.7z"/>
	<rect x="9.6" y="5.3" class="st3" width="3" height="0.3"/>
	<rect x="10.5" y="7.7" class="st3" width="1.4" height="0.3"/>
	<rect x="11" y="8.1" class="st3" width="0.5" height="3"/>
	<path class="st3" d="M11.6,11.1c0,0-0.4-2.3,2.1-2.1C13.7,8.9,14.3,11.3,11.6,11.1C11.7,11.1,11.6,11.1,11.6,11.1z"/>
	<g>
		<path class="st3" d="M19.8,20.7c0.2-0.3,0.3-0.5,0.5-0.8c-0.2,0-0.3-0.1-0.3-0.1l0,0c0.4,0,0.8,0,1.2,0h0.2c0.1,0.3,0.5,0.8,0.6,1
			c-0.1,0-0.3-0.2-0.3-0.2l0,0c-0.3,0.5-0.5,0.8-0.8,1.2c0,0.2-0.1,0.3-0.1,0.5c-0.3-0.5-0.6-0.9-0.8-1.4
			C19.8,20.9,19.8,20.9,19.8,20.7z"/>
		<path class="st3" d="M23.9,17.4c0.2,0.1,0.2,0.1,0.3,0.3c0.2,0.2,0.2,0.3,0.3,0.6c0.2-0.2,0.3-0.2,0.3-0.2l0,0
			c-0.1,0.2-0.1,0.3-0.3,0.5c-0.1,0.1-0.3,0.5-0.3,0.6c0,0,0,0-0.1,0c-0.5,0-0.8,0-1.2,0l0,0c0.2,0,0.3-0.1,0.3-0.1s0,0,0-0.2
			c-0.1-0.3-0.3-0.6-0.4-0.9c-0.2-0.2-0.3-0.5-0.5-0.5C22.8,17.4,23.4,17.4,23.9,17.4z"/>
		<path class="st3" d="M26,20.9L26,20.9c-0.2,0.3-0.3,0.4-0.6,0.6c-0.1,0-0.3,0-0.4,0h-0.1c-0.3-0.5-0.4-0.8-0.8-1.2
			c0.4-0.3,0.8-0.4,1.2-0.8c0.1,0.5,0.4,0.8,0.6,1.2C26,20.7,26,20.7,26,20.9z"/>
		<path class="st3" d="M26,21.6c-0.3,0.4-0.4,0.9-0.8,1.3c0,0.2-0.2,0.2-0.3,0.2c-0.3,0-0.4,0-0.8,0c0,0.1,0,0.3,0,0.4l0,0
			C24,23.4,24,23.3,23.9,23c-0.2-0.2-0.2-0.3-0.3-0.5v-0.1c0.2-0.3,0.5-0.8,0.6-1.1c0,0.2,0,0.3,0,0.5h0.1c0.4,0,0.8,0,1.2,0
			C25.7,21.6,25.8,21.6,26,21.6z"/>
		<path class="st3" d="M21.8,19.4c-0.5-0.3-0.8-0.5-1.2-0.8c0.2-0.3,0.5-0.8,0.6-1.1c0.1-0.3,0.8-0.3,0.9,0c0.2,0.2,0.2,0.3,0.3,0.5
			c0,0,0,0,0,0.2C22.2,18.6,22.1,19.1,21.8,19.4z"/>
		<path class="st3" d="M22.7,21.8c0,0.5,0,0.9,0,1.4c-0.1,0-0.3,0-0.4,0c-0.3,0-0.5,0-0.8,0c-0.5,0-0.8-0.5-0.6-0.9
			c0-0.1,0.2-0.3,0.2-0.5c0,0,0,0,0.1,0C21.6,21.8,22.1,21.8,22.7,21.8C22.5,21.8,22.7,21.8,22.7,21.8z"/>
	</g>
	<path class="st4" d="M22.7,9.6L22.7,9.6c-0.1,0-0.3-0.2-0.3-0.3V6.9c0-0.1,0.2-0.3,0.3-0.3l0,0c0.2,0,0.3,0.2,0.3,0.3v2.3
		C23,9.5,22.8,9.6,22.7,9.6z"/>
</g>
</svg>
