<?xml version="1.0" encoding="UTF-8" standalone="no"?>
<!DOCTYPE svg PUBLIC "-//W3C//DTD SVG 1.1//EN" "http://www.w3.org/Graphics/SVG/1.1/DTD/svg11.dtd">
<svg viewBox="0 0 410 123" height="123.0pt" width="410.0pt" xmlns="http://www.w3.org/2000/svg" version="1.1">
<path d="M 0.00 0.00 L 410.00 0.00 L 410.00 123.00 L 0.00 123.00 L 0.00 0.00 Z" fill="#607d44" />
<path d="M 203.46 26.57 C 207.69 25.86 212.16 28.38 213.73 32.39 C 215.66 37.06 213.32 42.83 208.57 44.66 C 203.59 46.80 197.65 44.20 195.93 39.05 C 193.92 33.58 197.77 27.46 203.46 26.57 Z" fill="#ffffff" />
<path d="M 202.35 32.07 C 204.49 31.12 207.50 31.26 208.92 33.36 C 209.89 35.74 209.39 38.08 207.71 39.99 C 205.93 40.52 204.08 40.61 202.34 39.93 C 199.81 38.22 199.75 33.75 202.35 32.07 Z" fill="#536f1a" />
<path d="M 199.72 47.15 C 200.09 48.59 200.48 50.02 200.89 51.45 C 198.49 53.38 196.09 54.84 194.72 57.72 C 193.26 60.91 191.81 64.47 191.55 68.00 C 192.16 70.69 194.38 73.15 195.86 75.45 C 194.35 76.38 192.82 77.28 191.28 78.15 C 189.27 75.81 186.94 73.41 185.43 70.71 C 184.49 69.24 185.27 67.32 185.65 65.78 C 187.11 61.30 188.59 56.76 190.51 52.45 C 191.75 48.73 196.51 48.34 199.72 47.15 Z" fill="#ffffff" />
<path d="M 210.53 47.60 C 214.40 47.92 218.37 49.11 219.68 53.21 C 221.54 58.30 223.97 63.55 224.74 68.93 C 224.39 72.42 220.38 75.71 218.16 78.28 C 216.80 77.30 215.43 76.32 214.06 75.34 C 215.48 73.12 217.75 70.68 218.26 68.05 C 218.07 64.53 216.64 60.97 215.18 57.79 C 213.75 54.70 211.18 53.26 208.57 51.26 C 209.20 50.03 209.81 48.77 210.53 47.60 Z" fill="#ffffff" />
<path d="M 197.75 77.46 C 198.82 78.60 199.82 79.79 200.84 80.98 C 199.61 82.28 198.38 83.59 197.15 84.89 C 199.08 85.01 201.02 85.17 202.95 85.28 C 202.95 86.81 202.97 88.33 203.01 89.86 C 198.08 89.97 193.39 89.78 188.53 90.62 C 202.29 91.62 216.17 90.57 229.97 91.11 C 229.94 92.98 229.91 94.85 229.88 96.72 C 213.33 96.79 196.77 96.84 180.22 96.69 C 180.20 94.89 180.17 93.09 180.14 91.29 C 182.54 91.13 184.94 90.99 187.34 90.85 C 186.82 89.19 186.33 87.52 185.81 85.87 C 189.62 82.75 193.34 79.71 197.75 77.46 Z" fill="#ffffff" />
<path d="M 212.25 77.78 C 216.68 79.41 220.51 83.12 224.25 85.94 C 223.78 87.27 223.32 88.59 222.87 89.92 C 217.57 90.07 212.28 90.07 206.98 89.90 C 207.03 88.36 207.05 86.83 207.05 85.29 C 208.98 85.16 210.90 85.02 212.83 84.88 C 211.49 83.53 210.15 82.19 208.82 80.83 C 209.92 79.78 211.02 78.67 212.25 77.78 Z" fill="#ffffff" /></svg>