<?xml version="1.0" encoding="utf-8"?>
<!-- Generator: Adobe Illustrator 16.0.0, SVG Export Plug-In . SVG Version: 6.00 Build 0)  -->
<!DOCTYPE svg PUBLIC "-//W3C//DTD SVG 1.1//EN" "http://www.w3.org/Graphics/SVG/1.1/DTD/svg11.dtd">
<svg version="1.1" id="Calque_1" xmlns="http://www.w3.org/2000/svg" xmlns:xlink="http://www.w3.org/1999/xlink" x="0px" y="0px"
	 width="156.6px" height="182.5px" viewBox="0 0 156.6 182.5" style="enable-background:new 0 0 156.6 182.5;" xml:space="preserve"
	>
<style type="text/css">
<![CDATA[
	.st0{fill:#6E8934;}
]]>
</style>
<path class="st0" d="M149.7,169.9c-6.8,0.4-9.5-0.9-12.4-2.6s-7.6-13.4-9.4-22.4c-1.8-9-3.7-29.6-3.7-29.6s4-10.8,3.4-24.1
	s-1.3-21.5-1.3-21.5s1.9-16.3-1.1-20.2s-8.6-4.9-12.3-3.2c0,0-0.4-0.5-0.5-2.3c0,0,8.2-8.9,10.2-17.5c0,0,1.5,4-0.4,10.8
	c0,0,3.2-6.6,3.4-8.9c0,0,4.9-8.8,0.6-18c-4.3-9.3-26.3-18-44.2,0C64.2,28.5,83,43.2,83,43.2s-4.8,7.9-7.7,9.7
	c-2.9,1.8-11.9,0-16.6,11.9c-4.6,11.9-4.1,28.9-4.1,28.9s-1.3,15.2-2.6,17.5c0,0,0.1,5.1-1.3,8.2c-1.5,3-11.2,24.1-11.4,29.4
	c0,0-3.4,3.3-3.5,5.2c0,0-1.3-1.9-3.6-1.7c0,0-1.5-2.5-3.8-1.4c-2.4,1.1-4.2,4.8-6,6.7s-3.7,2.5-9.3,2.8c-5.7,0.4-15.3,5.4-12.4,13
	c0,0,3.2,1.6,8.4,0c0,0,4.2,9,13.6,9c9.4,0.1,11.9-6.1,12.8-6.9c0.9-0.7,4.8-2.8,6.6-2.9c1.8-0.1,9.1,7.2,17.8,5.1
	c8.7-2.1,9.6-3.2,9.6-3.2s4.2,6.4,14.5,5.4s15.6-4,15.6-4s17.5,5.4,22.8-0.1c5.2-5.5,5.4-6.6,5.4-6.6s5.6,1.6,9.3,4.5
	s9.7,4,13.3,2.9c3.5-1.1,6.5-4.6,6.5-4.6S156.6,169.5,149.7,169.9z M84,88.7c-1.6,0-2.9-1.3-2.9-2.9c0-1.6,1.3-2.9,2.9-2.9
	c1.6,0,2.9,1.3,2.9,2.9C86.9,87.4,85.6,88.7,84,88.7z M90.3,122.8c-1.6,0-2.9-1.3-2.9-2.9s1.3-2.9,2.9-2.9s2.9,1.3,2.9,2.9
	S91.9,122.8,90.3,122.8z M90.3,44.2c-1.7,0-3-1.4-3-3s1.4-3,3-3c1.7,0,3,1.4,3,3S92,44.2,90.3,44.2z M115.4,134.3
	c-1.6,0-2.9-1.3-2.9-2.9c0-1.6,1.3-2.9,2.9-2.9s2.9,1.3,2.9,2.9C118.3,133,117,134.3,115.4,134.3z"/>
</svg>
