<?xml version="1.0" encoding="utf-8"?>
<!-- Generator: Adobe Illustrator 19.2.1, SVG Export Plug-In . SVG Version: 6.00 Build 0)  -->
<svg version="1.1" id="Calque_1" xmlns="http://www.w3.org/2000/svg" xmlns:xlink="http://www.w3.org/1999/xlink" x="0px" y="0px"
	 viewBox="0 0 30 30" style="enable-background:new 0 0 30 30;" xml:space="preserve">
<style type="text/css">
	.st0{clip-path:url(#SVGID_2_);}
	.st1{fill:#6E8935;}
	.st2{opacity:0.1;}
</style>
<g>
	<defs>
		<rect id="SVGID_1_" width="30" height="30"/>
	</defs>
	<clipPath id="SVGID_2_">
		<use xlink:href="#SVGID_1_"  style="overflow:visible;"/>
	</clipPath>
	<g class="st0">
		<g>
			<g>
				<g>
					<path class="st1" d="M12.5,24.5c-0.1,0.1-0.2,0.1-0.3,0.1l-3.2,0l0-0.1l3.2,0C12.4,24.6,12.4,24.5,12.5,24.5c0-0.1,0-0.2,0-0.3
						l0-2.6c0-0.2-0.1-0.3-0.3-0.3l-1.8,0c-0.2,0-0.4-0.2-0.4-0.4l0-2.4c0-0.2-0.1-0.3-0.3-0.3l-1.6,0c-0.2,0-0.4-0.2-0.4-0.4l0-2
						c0-0.1,0-0.2,0.1-0.3c0.1-0.1,0.2-0.1,0.3-0.1l1.7,0c0.2,0,0.3-0.1,0.3-0.3l0-2c0-0.1,0-0.2-0.1-0.2c-0.1-0.1-0.1-0.1-0.2-0.1
						l-1.3,0c-0.2,0-0.4-0.2-0.4-0.4l0-2.7c0-0.1,0-0.2-0.1-0.2C8,9.4,7.9,9.3,7.9,9.3l-3.5,0l0-0.1l3.5,0c0.1,0,0.2,0,0.3,0.1
						c0.1,0.1,0.1,0.2,0.1,0.3l0,2.7c0,0.1,0,0.2,0.1,0.2c0.1,0.1,0.1,0.1,0.2,0.1l1.3,0c0.2,0,0.4,0.2,0.4,0.4l0,2
						c0,0.2-0.2,0.4-0.4,0.4l-1.7,0c-0.1,0-0.2,0-0.2,0.1c-0.1,0.1-0.1,0.1-0.1,0.2l0,2c0,0.2,0.1,0.3,0.3,0.3l1.6,0
						c0.2,0,0.4,0.2,0.4,0.4l0,2.4c0,0.2,0.1,0.3,0.3,0.3l1.8,0c0.2,0,0.4,0.2,0.4,0.4l0,2.6C12.7,24.3,12.6,24.4,12.5,24.5z"/>
				</g>
			</g>
			<g>
				<g>
					<path class="st1" d="M21.3,26.3l0-4.9c0-0.1,0-0.2-0.1-0.2c-0.1-0.1-0.1-0.1-0.2-0.1l-1,0c-0.2,0-0.4-0.2-0.4-0.4l0-3.5
						c0-0.1,0-0.2,0.1-0.3c0.1-0.1,0.2-0.1,0.3-0.1l1.8,0c0.1,0,0.2,0,0.2-0.1c0.1-0.1,0.1-0.1,0.1-0.2l0-1.3c0-0.2-0.1-0.3-0.3-0.3
						l-1.3,0c-0.2,0-0.4-0.2-0.4-0.4l0-4.1c0-0.2-0.1-0.3-0.3-0.3l-1.3,0c-0.2,0-0.4-0.2-0.4-0.4l0-5.3l0.1,0l0,5.3
						c0,0.2,0.1,0.3,0.3,0.3l1.3,0c0.2,0,0.4,0.2,0.4,0.4l0,4.1c0,0.2,0.1,0.3,0.3,0.3l1.3,0c0.2,0,0.4,0.2,0.4,0.4l0,1.3
						c0,0.1,0,0.2-0.1,0.3c-0.1,0.1-0.2,0.1-0.3,0.1l-1.8,0c-0.1,0-0.2,0-0.2,0.1c-0.1,0.1-0.1,0.1-0.1,0.2l0,3.5
						c0,0.2,0.1,0.3,0.3,0.3l1,0c0.1,0,0.2,0,0.3,0.1c0.1,0.1,0.1,0.2,0.1,0.3L21.3,26.3L21.3,26.3z"/>
				</g>
			</g>
			<g>
				<g>
					<path class="st1" d="M3.9,19.1L3.9,19.1L14.2,19c0.2,0,0.3-0.1,0.3-0.3l0-5.3c0-0.1,0-0.2,0.1-0.3c0.1-0.1,0.2-0.1,0.3-0.1
						l1.4,0c0.2,0,0.4,0.2,0.4,0.4l0,0.9c0,0.2,0.1,0.3,0.3,0.3l1.3,0c0.1,0,0.2,0,0.2-0.1c0.1-0.1,0.1-0.1,0.1-0.2l0-1.2
						c0-0.1,0-0.2,0.1-0.3c0.1-0.1,0.2-0.1,0.3-0.1l7.8,0l0,0.1l-7.8,0c-0.1,0-0.2,0-0.2,0.1c-0.1,0.1-0.1,0.1-0.1,0.2l0,1.2
						c0,0.1,0,0.2-0.1,0.3c-0.1,0.1-0.2,0.1-0.3,0.1l-1.3,0c-0.2,0-0.4-0.2-0.4-0.4l0-0.9c0-0.2-0.1-0.3-0.3-0.3l-1.4,0
						c-0.1,0-0.2,0-0.2,0.1c-0.1,0.1-0.1,0.1-0.1,0.2l0,5.3c0,0.2-0.2,0.4-0.4,0.4L3.9,19.1z"/>
				</g>
			</g>
			<g>
				<g>
					<path class="st1" d="M13.9,17.2c-0.1-0.1-0.1-0.2-0.1-0.3l0-2.6c0-0.1,0-0.2-0.1-0.2C13.6,14,13.6,14,13.5,14l-1.4,0
						c-0.1,0-0.2,0-0.3-0.1c-0.1-0.1-0.1-0.2-0.1-0.3l0-2.5c0-0.1,0-0.2-0.1-0.2c-0.1-0.1-0.1-0.1-0.2-0.1l-2,0
						c-0.1,0-0.2,0-0.3-0.1c-0.1-0.1-0.1-0.2-0.1-0.3l0-4.9l0.1,0l0,4.9c0,0.1,0,0.2,0.1,0.2c0.1,0.1,0.1,0.1,0.2,0.1l2,0
						c0.1,0,0.2,0,0.3,0.1c0.1,0.1,0.1,0.2,0.1,0.3l0,2.5c0,0.1,0,0.2,0.1,0.2c0.1,0.1,0.1,0.1,0.2,0.1l1.4,0c0.1,0,0.2,0,0.3,0.1
						c0.1,0.1,0.1,0.2,0.1,0.3l0,2.6c0,0.2,0.1,0.3,0.3,0.3l3.3,0c0.2,0,0.3-0.1,0.3-0.3l0-3.1c0-0.1,0-0.2,0.1-0.3
						c0.1-0.1,0.2-0.1,0.3-0.1l10.1,0l0,0.1l-10.1,0c-0.1,0-0.2,0-0.2,0.1c-0.1,0.1-0.1,0.1-0.1,0.2l0,3.1c0,0.2-0.2,0.4-0.4,0.4
						l-3.3,0C14.1,17.3,14,17.2,13.9,17.2z"/>
				</g>
			</g>
			<g>
				<g>
					<path class="st1" d="M12.6,16.9c0.1,0.1,0.1,0.2,0.1,0.3l0,2.6c0,0.1,0,0.2,0.1,0.2c0.1,0.1,0.1,0.1,0.2,0.1l1.4,0
						c0.1,0,0.2,0,0.3,0.1c0.1,0.1,0.1,0.2,0.1,0.3l0,2.5c0,0.1,0,0.2,0.1,0.2c0.1,0.1,0.1,0.1,0.2,0.1l2,0c0.1,0,0.2,0,0.3,0.1
						c0.1,0.1,0.1,0.2,0.1,0.3l0,4.9l-0.1,0l0-4.9c0-0.1,0-0.2-0.1-0.2c-0.1-0.1-0.1-0.1-0.2-0.1l-2,0c-0.1,0-0.2,0-0.3-0.1
						c-0.1-0.1-0.1-0.2-0.1-0.3l0-2.5c0-0.1,0-0.2-0.1-0.2c-0.1-0.1-0.1-0.1-0.2-0.1l-1.4,0c-0.1,0-0.2,0-0.3-0.1
						c-0.1-0.1-0.1-0.2-0.1-0.3l0-2.6c0-0.2-0.1-0.3-0.3-0.3l-3.3,0c-0.2,0-0.3,0.1-0.3,0.3l0,3.1c0,0.1,0,0.2-0.1,0.3
						c-0.1,0.1-0.2,0.1-0.3,0.1l-10.1,0l0-0.1l10.1,0c0.1,0,0.2,0,0.2-0.1c0.1-0.1,0.1-0.1,0.1-0.2l0-3.1c0-0.2,0.2-0.4,0.4-0.4
						l3.3,0C12.5,16.8,12.6,16.9,12.6,16.9z"/>
				</g>
			</g>
		</g>
		<g class="st2">
			<g>
				<g>
					<path class="st1" d="M6.5,14.7c-0.1-0.1-0.1-0.2-0.1-0.3l0-3l0.1,0l0,3C6.5,14.6,6.5,14.6,6.5,14.7c0.1,0,0.2,0,0.3,0l2.4,0
						c0.2,0,0.3-0.1,0.3-0.3l0-1.7c0-0.2,0.2-0.4,0.4-0.4l2.2,0c0.2,0,0.3-0.1,0.3-0.3l0-1.5c0-0.2,0.2-0.4,0.4-0.4l1.9,0
						c0.1,0,0.2,0,0.3,0.1c0.1,0.1,0.1,0.2,0.1,0.3l0,1.6c0,0.2,0.1,0.3,0.3,0.3l1.9,0c0.1,0,0.2,0,0.2-0.1c0.1-0.1,0.1-0.1,0.1-0.2
						l0-1.3c0-0.2,0.2-0.4,0.4-0.4l2.5,0c0.1,0,0.2,0,0.2-0.1c0.1-0.1,0.1-0.1,0.1-0.2l0-3.3l0.1,0l0,3.3c0,0.1,0,0.2-0.1,0.3
						c-0.1,0.1-0.2,0.1-0.3,0.1l-2.5,0c-0.1,0-0.2,0-0.2,0.1c-0.1,0.1-0.1,0.1-0.1,0.2l0,1.3c0,0.2-0.2,0.4-0.4,0.4l-1.9,0
						c-0.2,0-0.4-0.2-0.4-0.4l0-1.6c0-0.1,0-0.2-0.1-0.2c-0.1-0.1-0.1-0.1-0.2-0.1l-1.9,0c-0.2,0-0.3,0.1-0.3,0.3l0,1.5
						c0,0.2-0.2,0.4-0.4,0.4l-2.2,0c-0.2,0-0.3,0.1-0.3,0.3l0,1.7c0,0.2-0.2,0.4-0.4,0.4l-2.4,0C6.7,14.8,6.6,14.8,6.5,14.7z"/>
				</g>
			</g>
			<g>
				<g>
					<path class="st1" d="M4.9,22.9l4.6,0c0.1,0,0.2,0,0.2-0.1c0.1-0.1,0.1-0.1,0.1-0.2l0-1c0-0.2,0.2-0.4,0.4-0.4l3.3,0
						c0.1,0,0.2,0,0.3,0.1c0.1,0.1,0.1,0.2,0.1,0.3l0,1.7c0,0.1,0,0.2,0.1,0.2c0.1,0.1,0.1,0.1,0.2,0.1l1.3,0c0.2,0,0.3-0.1,0.3-0.3
						l0-1.2c0-0.2,0.2-0.4,0.4-0.4l3.9,0c0.2,0,0.3-0.1,0.3-0.3l0-1.2c0-0.2,0.2-0.4,0.4-0.4l5,0l0,0.1l-5,0c-0.2,0-0.3,0.1-0.3,0.3
						l0,1.2c0,0.2-0.2,0.4-0.4,0.4l-3.9,0c-0.2,0-0.3,0.1-0.3,0.3l0,1.2c0,0.2-0.2,0.4-0.4,0.4l-1.3,0c-0.1,0-0.2,0-0.3-0.1
						c-0.1-0.1-0.1-0.2-0.1-0.3l0-1.7c0-0.1,0-0.2-0.1-0.2c-0.1-0.1-0.1-0.1-0.2-0.1l-3.3,0c-0.2,0-0.3,0.1-0.3,0.3l0,1
						c0,0.1,0,0.2-0.1,0.3C9.6,23,9.6,23,9.5,23L4.9,22.9L4.9,22.9z"/>
				</g>
			</g>
			<g>
				<g>
					<path class="st1" d="M11.6,6.6L11.6,6.6l0.1,9.7c0,0.2,0.1,0.3,0.3,0.3l5,0c0.1,0,0.2,0,0.3,0.1c0.1,0.1,0.1,0.2,0.1,0.3l0,1.3
						c0,0.2-0.2,0.4-0.4,0.4l-0.8,0c-0.2,0-0.3,0.1-0.3,0.3l0,1.2c0,0.1,0,0.2,0.1,0.2c0.1,0.1,0.1,0.1,0.2,0.1l1.1,0
						c0.1,0,0.2,0,0.3,0.1c0.1,0.1,0.1,0.2,0.1,0.3l0,7.4l-0.1,0l0-7.4c0-0.1,0-0.2-0.1-0.2c-0.1-0.1-0.1-0.1-0.2-0.1l-1.1,0
						c-0.1,0-0.2,0-0.3-0.1c-0.1-0.1-0.1-0.2-0.1-0.3l0-1.2c0-0.2,0.2-0.4,0.4-0.4l0.8,0c0.2,0,0.3-0.1,0.3-0.3l0-1.3
						c0-0.1,0-0.2-0.1-0.2c-0.1-0.1-0.1-0.1-0.2-0.1l-5,0c-0.2,0-0.4-0.2-0.4-0.4L11.6,6.6z"/>
				</g>
			</g>
			<g>
				<g>
					<path class="st1" d="M13.5,16c0.1-0.1,0.2-0.1,0.3-0.1l2.4,0c0.1,0,0.2,0,0.2-0.1c0.1-0.1,0.1-0.1,0.1-0.2l0-1.3
						c0-0.1,0-0.2,0.1-0.3c0.1-0.1,0.2-0.1,0.3-0.1l2.3,0c0.1,0,0.2,0,0.2-0.1c0.1-0.1,0.1-0.1,0.1-0.2l0-1.9c0-0.1,0-0.2,0.1-0.3
						c0.1-0.1,0.2-0.1,0.3-0.1l4.6,0l0,0.1l-4.6,0c-0.1,0-0.2,0-0.2,0.1c-0.1,0.1-0.1,0.1-0.1,0.2l0,1.9c0,0.1,0,0.2-0.1,0.3
						c-0.1,0.1-0.2,0.1-0.3,0.1l-2.3,0c-0.1,0-0.2,0-0.2,0.1c-0.1,0.1-0.1,0.1-0.1,0.2l0,1.3c0,0.1,0,0.2-0.1,0.3
						C16.3,16,16.2,16,16.1,16l-2.4,0c-0.2,0-0.3,0.1-0.3,0.3l0,3.1c0,0.2,0.1,0.3,0.3,0.3l2.9,0c0.1,0,0.2,0,0.3,0.1
						C17,19.9,17,20,17,20.1l0,9.5l-0.1,0l0-9.5c0-0.1,0-0.2-0.1-0.2c-0.1-0.1-0.1-0.1-0.2-0.1l-2.9,0c-0.2,0-0.4-0.2-0.4-0.4l0-3.1
						C13.3,16.2,13.4,16.1,13.5,16z"/>
				</g>
			</g>
			<g>
				<g>
					<path class="st1" d="M13.7,14.8c-0.1,0.1-0.2,0.1-0.3,0.1l-2.4,0c-0.1,0-0.2,0-0.2,0.1c-0.1,0.1-0.1,0.1-0.1,0.2l0,1.3
						c0,0.1,0,0.2-0.1,0.3c-0.1,0.1-0.2,0.1-0.3,0.1l-2.3,0c-0.1,0-0.2,0-0.2,0.1c-0.1,0.1-0.1,0.1-0.1,0.2l0,1.9
						c0,0.1,0,0.2-0.1,0.3c-0.1,0.1-0.2,0.1-0.3,0.1l-4.6,0l0-0.1l4.6,0c0.1,0,0.2,0,0.2-0.1c0.1-0.1,0.1-0.1,0.1-0.2l0-1.9
						c0-0.1,0-0.2,0.1-0.3c0.1-0.1,0.2-0.1,0.3-0.1l2.3,0c0.1,0,0.2,0,0.2-0.1c0.1-0.1,0.1-0.1,0.1-0.2l0-1.3c0-0.1,0-0.2,0.1-0.3
						c0.1-0.1,0.2-0.1,0.3-0.1l2.4,0c0.2,0,0.3-0.1,0.3-0.3l0-3.1c0-0.2-0.1-0.3-0.3-0.3l-2.9,0c-0.1,0-0.2,0-0.3-0.1
						c-0.1-0.1-0.1-0.2-0.1-0.3l0-9.5l0.1,0l0,9.5c0,0.1,0,0.2,0.1,0.2c0.1,0.1,0.1,0.1,0.2,0.1l2.9,0c0.2,0,0.4,0.2,0.4,0.4l0,3.1
						C13.8,14.7,13.7,14.8,13.7,14.8z"/>
				</g>
			</g>
		</g>
		<g>
			
				<image style="overflow:visible;" width="397" height="410" xlink:href="BDD8FE8C.png"  transform="matrix(0.24 0 0 0.24 -33.6391 -33.4318)">
			</image>
		</g>
	</g>
</g>
</svg>
