<?xml version="1.0" encoding="utf-8"?>
<!-- Generator: Adobe Illustrator 19.2.1, SVG Export Plug-In . SVG Version: 6.00 Build 0)  -->
<svg version="1.1" id="Calque_1" xmlns="http://www.w3.org/2000/svg" xmlns:xlink="http://www.w3.org/1999/xlink" x="0px" y="0px"
	 viewBox="0 0 30.2 25.4" style="enable-background:new 0 0 30.2 25.4;" xml:space="preserve">
<style type="text/css">
	.st0{fill:#6E8935;}
	.st1{fill:none;stroke:#6E8935;stroke-width:0.1381;stroke-miterlimit:10;}
</style>
<path class="st0" d="M18.7,9.9c-0.3-0.1-0.7-0.1-1-0.3c-1.3-0.6-2.1-1.5-2.2-3c-0.1-0.7-0.1-1.5-0.3-2.2C15,3.5,15,2.5,14.8,1.6
	c0-0.3,0-0.6,0.1-0.9c0.1-0.1,0.4-0.3,0.7-0.3s0.6,0,1,0c0,0,0.1,0,0.1-0.1c0.3-0.1,0.7-0.1,1,0.1c0.3,0.3,0.3,0.7,0,1
	c-0.3,0.3-0.7,0.3-1,0c0,0-0.1,0-0.1-0.1c0,0,0,0-0.1,0c-0.3,0-0.6,0-0.9,0c0,0.1,0,0.3,0,0.4c0.1,1,0.1,2.1,0.3,3.1
	c0.1,0.7,0.4,1.3,1,1.6c0.7,0.6,1.6,0.6,2.7,0.4c0.6-0.1,1.2-0.3,1.6-0.7s0.7-1,0.7-1.6c0.1-1,0.1-2.1,0.3-3.1c0-0.1,0-0.1,0-0.3
	c-0.3,0-0.7,0-1,0c0,0-0.1,0-0.1,0.1c-0.3,0.3-0.7,0.3-1,0c-0.3-0.3-0.3-0.7,0-1c0.3-0.3,0.7-0.3,1,0l0.1,0.1c0.3,0,0.6,0,1,0
	c0.6,0,1,0.4,0.9,1c0,1.6-0.1,3.1-0.3,4.6c-0.1,1.2-0.6,2.4-1.6,3.1c-0.4,0.3-1,0.6-1.5,0.6c-0.1,0-0.1,0.1-0.1,0.1
	c0,0.9,0,1.8,0,2.5c-0.1,2.4-1.8,4.5-4.2,4.8c-1.6,0.3-3.1,0-4.3-0.9c-0.7-0.4-1.2-1.2-1.3-2.1c-0.1-1,0-1.9,0.6-2.8
	c0.3-0.3,0.4-0.6,0.7-1c0.1-0.1,0.3-0.4,0.4-0.6c0.3-0.4,0.3-1,0-1.5h-0.1c-0.6,0-1.2-0.3-1.3-1c-0.1-0.6,0.3-1.2,0.9-1.3
	c0.6-0.1,1.3,0.3,1.5,0.9c0,0.3,0,0.6-0.1,0.7c0,0,0,0.1,0,0.3c0.1,0.3,0.3,0.4,0.3,0.7c0.1,0.6,0.1,1-0.1,1.6
	c-0.3,0.3-0.4,0.6-0.7,1S11.3,12,11,12.5c-0.3,0.6-0.4,1.2-0.3,1.9c0.1,0.7,0.6,1.3,1.3,1.8c0.7,0.4,1.6,0.6,2.5,0.6
	c1.2,0,2.2-0.4,3-1.2c0.9-0.9,1.3-1.9,1.3-3.1C18.7,11.6,18.7,10.8,18.7,9.9C18.7,10.1,18.7,9.9,18.7,9.9z M22,6.8
	c-1.9,1.3-3.7,1.3-5.7,0c0.1,1,1,2.2,2.7,2.2C20.5,9,21.7,8.1,22,6.8z"/>
<path class="st0" d="M13.4,8.6c-0.1-0.3-0.1-0.4-0.3-0.6c0,0,0-0.1,0-0.3c0.3-0.9-0.3-1.9-1.3-2.2c-0.9-0.3-1.9,0.3-2.2,1.2
	C9.2,7.7,9.8,8.9,11,9c0.3,0,0.1,0.1,0.1,0.3c0,0.3-0.1,0.3-0.3,0.3C9.6,9.5,8.9,8.4,8.7,7.2C8.7,6,9.5,5,10.7,4.9
	c1-0.1,1.8,0.1,2.5,0.9c0.6,0.7,0.6,1.6,0.1,2.5C13.4,8.4,13.4,8.6,13.4,8.6z"/>
<path class="st0" d="M19.9,3.4c0.4,0,1,0,1.5,0c0,0.4,0,1,0,1.5c-0.4,0-1,0-1.5,0c0,0.4,0,1,0,1.5c-0.4,0-1,0-1.5,0c0-0.4,0-1,0-1.5
	c-0.4,0-1,0-1.5,0c0-0.4,0-1,0-1.5c0.4,0,1,0,1.5,0c0-0.4,0-1,0-1.5c0.4,0,1,0,1.5,0C19.9,2.3,19.9,2.8,19.9,3.4z"/>
<path class="st1" d="M10.1,24.7l0.1-6.4l0,0c0-0.1,0.3-2.1-1.2-3.6l0,0c-0.1-0.1-2.7-1.9-2.8-3.1L6,10.1c0,0,0,0,0-0.1
	c0.1-0.3,0.6-1.5,0.6-1.5s0.3-0.7-0.3-1.3l0,0l0,0V6.9C6.5,6.6,6.9,6,6.5,5.3V5.1c0-0.1,0.1-0.9-0.6-1.3c-0.1,0-0.1,0-0.3,0
	C5.4,4,5.1,4.4,5.1,4.6l0,0c0,0.1-0.3,0.3-0.3,0.1L4.7,4.6c-0.1-0.1-0.3-0.1-0.3,0L1.9,8.3l0,0c0,0.1-0.9,1.5-0.6,2.2l0,0v0.1
	c0,0.1,0,0.3-0.1,0.3s-0.4,0-0.9,0.1c-0.1,0-0.1,0.1-0.1,0.3c0.3,0.7,1.5,3.3,1.3,4c0,0,0,0,0,0.1c0,0.3,0.4,1.3,2.7,2.8
	c0,0,0,0,0.1,0c0.1,0,1.2,0.3,1.2,2.1l0,0c0,0.1-0.1,4.9-0.1,4.9"/>
<path class="st1" d="M1.9,11.1c0,0,0.7,0.4,0.9,1.8c0,0,0.1,1.6,2.4,1.9c0,0,3.4,0.3,3.7,1.9"/>
<g>
	<path class="st0" d="M5.3,4.7C4.7,6,4.1,7.4,3.5,8.7l0,0l0,0c-0.3,0.4-0.3,1-0.3,1.6l0,0c0,0.6,0,1,0,1.6c0-0.6,0-1-0.1-1.6l0,0
		c-0.1-0.6,0-1.2,0.3-1.8l0,0C3.9,7.2,4.5,6,5.3,4.7z"/>
</g>
<path class="st1" d="M6.5,5.1L4.5,8.9c0,0-0.6,0.7-0.3,1.6c0,0,0.3,1.3,0.3,1.5"/>
<g>
	<path class="st0" d="M2.6,12.2c0,0,0.1,0,0.6-0.1c0.3,0,0.7,0,1.2,0c0.4,0,0.9,0.1,1.2,0.3C5.9,12.5,6,12.6,6,12.6
		s-0.7-0.4-1.8-0.4C3.5,12,2.6,12.2,2.6,12.2z"/>
</g>
<g>
	<path class="st0" d="M6.2,7.2c0,0-0.7,1-0.9,2.4c-0.1,0.6-0.1,1.2,0,1.8c0,0.4,0.1,0.7,0.1,0.7l0,0c0,0-0.1-0.3-0.3-0.7
		C5,11,5,10.2,5.1,9.6C5.3,8.3,6.2,7.2,6.2,7.2L6.2,7.2z"/>
</g>
<path class="st1" d="M20.2,25l-0.3-6.9c0,0-0.6-2.1,1.6-3.9c0,0,1.9-1.3,1.9-1.8c0,0,0.6-0.6,0.6-2.1c0,0,0-0.9-0.1-1l-0.3-0.7
	c0,0-0.4-0.7,0.1-1.3l0.3-0.1l-0.4-0.7c0,0-0.4-0.6,0.1-1l0.3-0.1c0,0-0.7-1,0.6-1.6l0.4,0.7l0.1,0.3L25.6,4l2.7,3.7
	c0,0,0.7,1.5,0.6,2.2v0.6v0.1c0,0,0.9-0.3,1.2,0c0,0-1.3,2.8-1,3.1c0,0,0,2.2-2.4,3.4c0,0-2.2,0.4-1.9,2.8l0.3,4.3"/>
<g>
	<path class="st0" d="M25.1,4.9c-0.1,0.1,0,0.3,0,0.4s0.1,0.3,0.1,0.4l0.4,0.7l0.9,1.6v0.1c0,0,0.1-0.1,0-0.1l0,0l0,0l0,0v0.1
		l0.1,0.1c0,0.1,0.1,0.3,0.1,0.4c0.1,0.3,0.1,0.6,0.1,0.9c0,0.3,0,0.6,0,0.9v0.9v-0.9c0-0.3,0-0.6,0-0.9c0-0.3-0.1-0.6-0.1-0.9
		c0-0.1-0.1-0.3-0.1-0.4l-0.1-0.1V8.1l0,0l0,0l0,0V8v0.1l-0.9-1.6l-0.4-0.9c0-0.1-0.1-0.3-0.1-0.4C25.1,5.1,25.1,5,25.1,4.9z"/>
</g>
<path class="st1" d="M23.9,6.9c0,0,0.9,1.8,1,2.1c0,0,0.3,0.4,0.1,1.3v1.8"/>
<path class="st1" d="M24.1,5.1c0,0,1.8,3,1.8,3.4c0,0,0.4,0.7,0.3,1.9L26,12"/>
<g>
	<path class="st0" d="M27.8,12.3c0,0-0.3,0-0.6,0c-0.3,0-0.9,0-1.3,0c-0.4,0-0.9,0.1-1.2,0.3c-0.3,0.1-0.6,0.3-0.6,0.3
		s0.1-0.1,0.4-0.3c0.3-0.1,0.7-0.3,1.3-0.3c0.4,0,0.9-0.1,1.3,0C27.7,12.2,27.8,12.3,27.8,12.3z"/>
</g>
<g>
	<path class="st0" d="M28.7,11.1C28.3,11.4,28,12,28,12.6v-0.1c0,0,0.1,0.1,0,0.1l0,0l0,0v0.1v0.3c0,0.1-0.1,0.3-0.1,0.4
		c-0.1,0.3-0.3,0.6-0.6,0.7c-0.4,0.4-1,0.7-1.8,0.7v-0.1c0,0,0,0,0,0.1l0,0l0,0l0,0h-0.1H25c-0.1,0-0.3,0-0.6,0.1
		c-0.3,0-0.7,0.1-1,0.3c-0.6,0.3-1.3,0.7-1.6,1.3c0.1-0.3,0.3-0.6,0.6-0.9c0.3-0.3,0.6-0.4,0.9-0.6c0.3-0.1,0.7-0.3,1-0.3
		c0.1,0,0.3,0,0.6-0.1h0.3h0.1l0,0l0,0l0,0V15v-0.1c0.6,0,1.2-0.3,1.6-0.7c0.1-0.3,0.4-0.4,0.6-0.7c0-0.1,0.1-0.3,0.1-0.4v-0.3v-0.1
		l0,0l0,0c0,0,0,0.1,0,0v-0.1C28,11.9,28.3,11.3,28.7,11.1z"/>
</g>
</svg>
