<?xml version="1.0" encoding="UTF-8" standalone="no"?>
<!DOCTYPE svg PUBLIC "-//W3C//DTD SVG 1.1//EN" "http://www.w3.org/Graphics/SVG/1.1/DTD/svg11.dtd">
<svg viewBox="0 0 297 172" height="172.0pt" width="297.0pt" xmlns="http://www.w3.org/2000/svg" version="1.1">
<path d="M 0.00 0.00 L 297.00 0.00 L 297.00 172.00 L 13.42 172.00 C 18.10 169.12 22.58 165.98 27.52 163.51 C 33.06 160.66 39.09 156.48 45.23 155.27 C 49.44 154.73 53.79 154.94 58.01 155.25 C 70.64 156.65 83.34 162.96 96.02 163.20 C 98.92 163.57 101.03 160.96 103.26 159.49 C 102.35 154.03 100.24 149.14 98.78 143.79 C 100.44 141.73 100.80 139.63 103.99 140.01 C 114.90 141.35 125.76 148.05 134.79 154.03 C 140.54 157.52 146.69 160.39 152.90 162.94 C 156.99 164.55 162.14 165.88 166.32 163.93 C 168.91 162.71 169.52 159.70 168.83 157.11 C 167.42 151.84 164.80 146.83 161.45 142.53 C 159.68 140.41 159.14 137.93 158.37 135.35 C 161.29 135.74 164.09 136.07 166.79 137.31 C 174.31 140.72 182.11 143.51 189.80 146.51 C 202.18 151.36 215.26 153.09 227.91 148.05 C 231.77 146.57 234.47 142.30 232.77 138.24 C 230.05 132.35 224.54 129.10 222.23 122.91 C 223.19 121.61 224.15 120.32 225.13 119.03 C 225.03 117.07 224.92 115.10 224.81 113.14 C 215.92 112.80 207.02 113.18 198.12 112.93 C 197.96 116.61 197.93 120.29 197.94 123.97 C 194.98 123.95 192.02 123.93 189.07 123.90 C 189.08 120.21 189.07 116.52 188.98 112.83 C 187.66 113.02 186.35 113.22 185.04 113.42 C 185.28 108.36 184.41 103.14 185.19 98.15 C 186.17 95.81 188.76 94.21 189.97 91.93 C 191.54 88.95 192.42 85.45 193.23 82.20 C 195.05 80.59 196.29 78.98 198.96 79.06 C 206.63 78.79 214.34 79.03 222.02 78.98 C 224.52 78.86 226.55 79.82 228.71 80.91 C 230.11 86.85 231.54 92.80 236.79 96.50 C 237.06 102.34 236.95 108.09 236.95 113.95 C 235.58 113.98 234.21 114.01 232.83 114.03 C 232.79 115.48 232.73 116.93 232.68 118.38 C 233.39 117.95 234.09 117.52 234.80 117.09 C 239.22 117.47 243.58 116.97 248.00 117.10 C 252.81 117.22 257.90 116.40 262.24 114.27 C 264.89 112.86 266.14 109.88 265.52 106.97 C 264.30 102.28 261.54 97.88 259.73 93.38 C 259.22 92.10 259.06 90.73 259.37 89.38 C 260.53 87.70 262.63 87.19 264.46 86.56 C 271.01 84.66 277.96 83.29 284.34 80.85 C 287.08 79.75 290.58 76.91 289.36 73.56 C 287.69 69.78 283.28 67.61 281.04 63.98 C 279.68 62.13 279.64 60.13 279.31 57.95 C 282.70 55.11 286.78 53.82 290.50 51.57 C 292.69 50.24 293.52 48.07 294.72 45.92 C 292.39 44.33 289.91 42.84 287.80 40.96 C 289.13 36.99 293.66 34.70 295.09 30.69 C 296.20 28.13 295.50 24.50 293.38 22.64 C 288.28 20.62 284.85 23.50 279.98 24.01 C 277.57 24.46 275.70 21.80 273.93 20.50 C 270.66 22.32 267.97 24.80 265.03 27.07 C 263.24 28.55 261.46 27.81 259.39 27.67 C 259.16 23.91 258.89 20.16 258.23 16.45 C 251.16 16.79 247.33 23.36 242.75 27.79 C 241.69 28.67 240.36 30.63 238.99 29.08 C 234.92 24.53 235.87 16.01 234.61 10.35 C 234.04 9.26 232.17 9.01 231.07 8.90 C 226.69 9.39 222.94 12.94 219.79 15.76 C 213.66 21.17 209.29 27.84 202.87 32.80 C 201.36 34.06 199.57 33.84 197.71 34.04 C 194.02 26.05 195.26 17.35 191.62 9.44 C 190.72 7.40 189.07 5.73 187.01 4.86 C 184.06 4.13 181.35 5.16 179.20 7.19 C 174.93 11.12 171.91 16.59 169.89 21.98 C 167.18 29.39 165.14 37.10 162.70 44.59 C 161.88 46.92 161.00 49.50 159.46 51.46 C 157.50 53.70 153.65 53.58 152.25 50.80 C 149.42 45.31 148.17 38.84 146.14 33.02 C 145.21 30.56 143.82 27.82 141.32 26.65 C 138.24 25.19 134.26 25.30 131.40 27.25 C 126.25 30.43 122.54 36.28 120.13 41.71 C 113.59 54.76 111.46 70.80 109.01 85.02 C 108.35 88.23 107.73 92.83 105.07 95.05 C 102.29 96.68 98.75 95.69 96.90 93.10 C 93.58 88.68 91.15 83.55 88.39 78.77 C 86.58 75.62 85.08 70.92 81.47 69.51 C 79.13 68.19 76.89 69.51 75.14 71.12 C 71.52 74.81 70.14 79.92 69.89 84.97 C 69.70 90.31 69.90 95.68 70.39 101.00 C 70.72 105.32 70.88 110.13 69.32 114.25 C 68.13 116.61 64.77 118.66 62.13 117.69 C 58.47 116.27 56.25 110.09 52.04 109.93 C 49.14 110.02 48.11 111.79 47.22 114.25 C 44.45 122.26 45.59 131.73 43.22 140.01 C 41.94 144.78 40.46 149.21 35.88 151.76 C 30.66 154.52 25.29 157.36 19.62 159.03 C 15.33 160.36 10.89 161.11 6.55 162.26 C 4.37 163.01 2.19 163.72 0.00 164.43 L 0.00 0.00 Z" fill="#ffffff" />
<path d="M 187.01 4.86 C 189.07 5.73 190.72 7.40 191.62 9.44 C 195.26 17.35 194.02 26.05 197.71 34.04 C 199.57 33.84 201.36 34.06 202.87 32.80 C 209.29 27.84 213.66 21.17 219.79 15.76 C 222.94 12.94 226.69 9.39 231.07 8.90 C 232.17 9.01 234.04 9.26 234.61 10.35 C 235.87 16.01 234.92 24.53 238.99 29.08 C 240.36 30.63 241.69 28.67 242.75 27.79 C 247.33 23.36 251.16 16.79 258.23 16.45 C 258.89 20.16 259.16 23.91 259.39 27.67 C 261.46 27.81 263.24 28.55 265.03 27.07 C 267.97 24.80 270.66 22.32 273.93 20.50 C 275.70 21.80 277.57 24.46 279.98 24.01 C 284.85 23.50 288.28 20.62 293.38 22.64 C 295.50 24.50 296.20 28.13 295.09 30.69 C 293.66 34.70 289.13 36.99 287.80 40.96 C 289.91 42.84 292.39 44.33 294.72 45.92 C 293.52 48.07 292.69 50.24 290.50 51.57 C 286.78 53.82 282.70 55.11 279.31 57.95 C 279.64 60.13 279.68 62.13 281.04 63.98 C 283.28 67.61 287.69 69.78 289.36 73.56 C 290.58 76.91 287.08 79.75 284.34 80.85 C 277.96 83.29 271.01 84.66 264.46 86.56 C 262.63 87.19 260.53 87.70 259.37 89.38 C 259.06 90.73 259.22 92.10 259.73 93.38 C 261.54 97.88 264.30 102.28 265.52 106.97 C 266.14 109.88 264.89 112.86 262.24 114.27 C 257.90 116.40 252.81 117.22 248.00 117.10 C 243.58 116.97 239.22 117.47 234.80 117.09 C 234.09 117.52 233.39 117.95 232.68 118.38 C 232.73 116.93 232.79 115.48 232.83 114.03 C 234.21 114.01 235.58 113.98 236.95 113.95 C 236.95 108.09 237.06 102.34 236.79 96.50 C 231.54 92.80 230.11 86.85 228.71 80.91 C 226.55 79.82 224.52 78.86 222.02 78.98 C 214.34 79.03 206.63 78.79 198.96 79.06 C 196.29 78.98 195.05 80.59 193.23 82.20 C 192.42 85.45 191.54 88.95 189.97 91.93 C 188.76 94.21 186.17 95.81 185.19 98.15 C 184.41 103.14 185.28 108.36 185.04 113.42 C 186.35 113.22 187.66 113.02 188.98 112.83 C 189.07 116.52 189.08 120.21 189.07 123.90 C 192.02 123.93 194.98 123.95 197.94 123.97 C 197.93 120.29 197.96 116.61 198.12 112.93 C 207.02 113.18 215.92 112.80 224.81 113.14 C 224.92 115.10 225.03 117.07 225.13 119.03 C 224.15 120.32 223.19 121.61 222.23 122.91 C 224.54 129.10 230.05 132.35 232.77 138.24 C 234.47 142.30 231.77 146.57 227.91 148.05 C 215.26 153.09 202.18 151.36 189.80 146.51 C 182.11 143.51 174.31 140.72 166.79 137.31 C 164.09 136.07 161.29 135.74 158.37 135.35 C 159.14 137.93 159.68 140.41 161.45 142.53 C 164.80 146.83 167.42 151.84 168.83 157.11 C 169.52 159.70 168.91 162.71 166.32 163.93 C 162.14 165.88 156.99 164.55 152.90 162.94 C 146.69 160.39 140.54 157.52 134.79 154.03 C 125.76 148.05 114.90 141.35 103.99 140.01 C 100.80 139.63 100.44 141.73 98.78 143.79 C 100.24 149.14 102.35 154.03 103.26 159.49 C 101.03 160.96 98.92 163.57 96.02 163.20 C 83.34 162.96 70.64 156.65 58.01 155.25 C 53.79 154.94 49.44 154.73 45.23 155.27 C 39.09 156.48 33.06 160.66 27.52 163.51 C 22.58 165.98 18.10 169.12 13.42 172.00 L 8.93 172.00 C 6.82 170.12 4.52 168.50 2.28 166.78 C 1.50 166.05 0.74 165.30 0.00 164.53 L 0.00 164.43 C 2.19 163.72 4.37 163.01 6.55 162.26 C 10.89 161.11 15.33 160.36 19.62 159.03 C 25.29 157.36 30.66 154.52 35.88 151.76 C 40.46 149.21 41.94 144.78 43.22 140.01 C 45.59 131.73 44.45 122.26 47.22 114.25 C 48.11 111.79 49.14 110.02 52.04 109.93 C 56.25 110.09 58.47 116.27 62.13 117.69 C 64.77 118.66 68.13 116.61 69.32 114.25 C 70.88 110.13 70.72 105.32 70.39 101.00 C 69.90 95.68 69.70 90.31 69.89 84.97 C 70.14 79.92 71.52 74.81 75.14 71.12 C 76.89 69.51 79.13 68.19 81.47 69.51 C 85.08 70.92 86.58 75.62 88.39 78.77 C 91.15 83.55 93.58 88.68 96.90 93.10 C 98.75 95.69 102.29 96.68 105.07 95.05 C 107.73 92.83 108.35 88.23 109.01 85.02 C 111.46 70.80 113.59 54.76 120.13 41.71 C 122.54 36.28 126.25 30.43 131.40 27.25 C 134.26 25.30 138.24 25.19 141.32 26.65 C 143.82 27.82 145.21 30.56 146.14 33.02 C 148.17 38.84 149.42 45.31 152.25 50.80 C 153.65 53.58 157.50 53.70 159.46 51.46 C 161.00 49.50 161.88 46.92 162.70 44.59 C 165.14 37.10 167.18 29.39 169.89 21.98 C 171.91 16.59 174.93 11.12 179.20 7.19 C 181.35 5.16 184.06 4.13 187.01 4.86 Z" fill="#548d56" />
<path d="M 218.46 32.66 C 219.85 33.52 221.10 34.70 222.35 35.77 C 220.70 38.14 220.50 41.14 217.01 41.18 C 214.36 41.67 213.08 38.91 211.60 37.27 C 212.27 35.97 212.92 34.65 213.62 33.36 C 215.26 32.68 216.68 31.76 218.46 32.66 Z" fill="#ffffff" />
<path d="M 210.08 39.80 C 211.88 41.61 213.31 43.98 215.35 45.49 C 218.35 46.30 221.70 46.04 224.79 46.20 C 224.87 47.30 224.95 48.39 225.03 49.49 C 221.39 49.95 217.79 49.99 214.17 49.33 C 212.62 48.06 211.02 46.84 209.40 45.64 C 208.59 46.71 207.78 47.79 206.97 48.87 C 208.71 50.72 211.02 52.49 212.20 54.77 C 213.37 58.97 213.05 63.83 212.44 68.12 C 211.30 67.69 210.16 67.26 209.02 66.83 C 208.87 63.57 209.68 59.08 207.84 56.25 C 205.46 53.47 202.38 51.53 200.31 48.42 C 203.53 45.43 206.50 42.36 210.08 39.80 Z" fill="#ffffff" />
<path d="M 195.99 52.93 C 199.19 53.82 202.45 54.63 204.34 57.61 C 205.50 59.41 207.46 61.79 207.05 64.04 C 206.17 68.57 203.09 71.36 199.48 73.89 C 196.88 73.06 194.67 72.92 191.95 73.23 C 189.95 71.77 187.93 70.49 186.85 68.17 C 186.07 66.39 185.74 64.39 185.27 62.50 C 186.11 60.60 186.77 58.54 187.84 56.76 C 189.79 54.63 193.28 53.70 195.99 52.93 Z" fill="#ffffff" />
<path d="M 222.18 53.45 C 227.18 52.16 232.29 54.51 234.45 59.19 C 235.44 62.50 235.23 67.03 232.97 69.81 C 231.07 71.37 228.73 72.45 226.63 73.73 C 225.78 73.89 224.93 74.05 224.08 74.21 C 220.51 72.47 216.72 70.88 215.19 66.87 C 212.95 61.32 216.37 54.79 222.18 53.45 Z" fill="#ffffff" />
<path d="M 226.93 55.88 C 229.90 57.76 232.59 60.15 232.04 64.03 C 232.24 66.62 229.37 68.47 227.92 70.36 C 225.99 70.45 223.54 70.97 221.76 70.11 C 219.73 69.37 218.83 67.05 217.63 65.36 C 217.77 63.60 217.88 61.84 217.98 60.09 C 220.61 57.64 222.88 54.77 226.93 55.88 Z" fill="#548d56" />
<path d="M 193.07 57.00 C 195.26 56.70 197.54 56.91 199.75 56.95 C 200.84 58.05 201.93 59.14 203.02 60.23 C 203.05 62.45 203.10 64.67 203.17 66.88 C 200.94 68.99 199.39 71.14 196.00 71.05 C 191.15 71.29 186.88 65.54 189.69 61.19 C 189.48 60.86 189.26 60.53 189.05 60.19 C 190.30 59.10 191.55 57.69 193.07 57.00 Z" fill="#548d56" />
<path d="M 162.26 61.80 C 168.62 63.87 175.56 68.61 175.91 75.94 C 176.13 88.31 175.92 100.70 175.99 113.07 C 173.31 112.98 170.63 112.86 167.95 112.72 C 167.98 115.81 167.99 118.90 168.00 121.99 C 166.70 121.96 165.39 121.94 164.08 121.92 C 164.06 118.96 164.02 115.99 163.95 113.03 C 155.25 113.00 146.53 112.88 137.84 113.10 C 137.91 116.04 137.93 118.99 137.93 121.93 C 136.64 121.94 135.35 121.94 134.06 121.95 C 134.05 119.00 134.05 116.05 134.09 113.10 C 131.41 113.01 128.73 112.94 126.04 112.88 C 126.04 100.58 126.07 88.29 126.02 75.99 C 125.86 72.45 127.37 68.44 130.39 66.42 C 134.68 63.35 139.63 61.57 144.81 60.70 C 150.48 59.30 156.66 60.45 162.26 61.80 Z" fill="#ffffff" />
<path d="M 128.02 74.96 C 135.34 75.08 142.65 74.97 149.97 74.92 C 150.11 79.92 150.05 84.92 150.05 89.92 C 142.70 90.03 135.35 89.90 128.00 89.95 C 127.99 84.95 127.99 79.96 128.02 74.96 Z" fill="#548d56" />
<path d="M 152.02 74.97 C 159.37 74.97 166.73 74.99 174.09 75.11 C 174.06 80.05 174.04 84.99 174.05 89.92 C 166.71 90.03 159.36 89.86 152.02 90.05 C 151.98 85.02 151.99 80.00 152.02 74.97 Z" fill="#548d56" />
<path d="M 198.99 83.12 C 207.25 82.81 215.58 83.09 223.85 83.07 C 224.76 84.80 225.68 86.53 226.59 88.27 C 226.48 88.72 226.37 89.18 226.25 89.63 C 227.04 90.76 227.82 91.91 228.60 93.05 C 217.18 92.95 205.77 93.01 194.35 93.05 C 195.47 89.89 196.32 85.30 198.99 83.12 Z" fill="#548d56" />
<path d="M 133.97 96.02 C 137.31 96.00 140.66 96.00 144.00 96.00 C 144.00 98.66 144.00 101.33 144.00 104.00 C 140.66 104.00 137.31 104.00 133.97 103.98 C 133.97 101.33 133.97 98.67 133.97 96.02 Z" fill="#548d56" />
<path d="M 156.97 96.01 C 160.32 96.00 163.67 96.00 167.03 96.01 C 167.03 98.67 167.03 101.33 167.03 103.99 C 163.67 104.00 160.32 104.00 156.97 103.99 C 156.97 101.33 156.97 98.67 156.97 96.01 Z" fill="#548d56" />
<path d="M 194.04 98.94 C 196.67 98.94 199.29 98.92 201.92 98.91 C 201.99 101.26 202.05 103.61 202.12 105.97 C 199.38 105.97 196.63 105.97 193.89 105.92 C 193.93 103.60 193.98 101.27 194.04 98.94 Z" fill="#548d56" />
<path d="M 219.10 98.93 C 222.05 98.92 225.00 98.92 227.95 98.87 C 228.00 101.24 228.03 103.61 228.06 105.98 C 224.99 106.03 221.91 106.01 218.84 105.95 C 218.92 103.61 219.00 101.27 219.10 98.93 Z" fill="#548d56" />
<path d="M 0.00 164.53 C 0.74 165.30 1.50 166.05 2.28 166.78 C 4.52 168.50 6.82 170.12 8.93 172.00 L 0.00 172.00 L 0.00 164.53 Z" fill="#ffffff" /></svg>