<?xml version="1.0" encoding="utf-8"?>
<!-- Generator: Adobe Illustrator 16.0.0, SVG Export Plug-In . SVG Version: 6.00 Build 0)  -->
<!DOCTYPE svg PUBLIC "-//W3C//DTD SVG 1.1//EN" "http://www.w3.org/Graphics/SVG/1.1/DTD/svg11.dtd">
<svg version="1.1" id="Calque_1" xmlns="http://www.w3.org/2000/svg" xmlns:xlink="http://www.w3.org/1999/xlink" x="0px" y="0px"
	 width="110.4px" height="84px" viewBox="0 0 110.4 84" style="enable-background:new 0 0 110.4 84;" xml:space="preserve">
<style type="text/css">
<![CDATA[
	.st0{font-family:'MyriadPro-Regular';}
	.st1{fill:#6E8934;}
	.st2{font-size:12;}
]]>
</style>
<text transform="matrix(1 0 0 1 34.499 10.0439)" class="st1 st0 st2">SERVICE</text>
<path class="st1" d="M109.3,80.1c-0.2-0.4,0.1-0.7,0-1.5c-0.1-0.7-0.3-1.8-0.5-2.8c-0.1-1-0.2-4-0.1-5.1c0.2-1.1-0.1-2-0.5-3
	c-0.4-1.1-2.2-2.7-2.6-3.3c-0.5-0.6-0.6-1.4-0.5-2.1c0-0.7,0.2-4.5,0.2-5c0-0.5-0.1-2.8-0.7-3.8c-0.6-1.1-0.7-1.4-0.8-1.9
	c-0.1-0.5-0.3-1.2-1-1.9c-0.6-0.6-1.5-1.6-1.7-2.3c-0.2-0.7-1.5-2.2-1.6-3.3c-0.1-1.1-0.8-1.2-1.3-1.7c-0.5-0.5-0.8-1.4-0.8-2.9
	c-0.1-1.5-2.5-3.4-2.8-4.5c-0.4-1.1-0.3-3.1,0-3.4s0.4-0.3,0.4-1c0-0.7-0.7-2-1.4-2.8c-0.7-0.8-0.2-0.7-0.1-0.7s0.7,0.6,0.7,0.6
	s-0.1-0.5-0.4-1.4c-0.3-0.9-0.2-0.7,0.1-1.7S93.6,22,93.7,21c0.1-1,0.3-0.6,0.6-1.1c0.3-0.5-0.2-3.8-0.2-4.4s-1.1-1.5-1.5-1.3
	c-0.4,0.2-1.6,1.1-2.4,2.3c-0.8,1.2-1,1-1.1,0.7c-0.1-0.3-1.2-1.2-1.1-0.9c0.2,0.3,0.5,0.7,0.6,1c0.1,0.3-0.2-0.1-0.9-0.2
	c-0.8-0.2-2,0.9-1.6,0.8c0.3-0.1,0.8,0.1,0.7,0.2C86.5,18,86,19,86.4,18.7c0.4-0.3,0.9-0.7,1.4-0.8s0.4,0.7,0.2,0.9
	s-0.8,0.7-1.2,1.1s-0.3,1.1-0.3,1.1s-0.8-0.2-2.2-0.2c-1.4-0.1-3.2,0.7-3.2,0.7s0.1-0.2,0-0.9c-0.1-0.7-1-1.3-1.2-1.6
	c-0.2-0.4-0.4,0.3-0.4,0.2c-0.1-0.1-0.4-0.7-1.1-1.1c-0.6-0.5-2-1.3-3.2-2c-1.1-0.7-2-0.5-2.1,0c-0.1,0.5-0.2,1.8,0,2.9
	c0.2,1.2,0.1,2.3,0.1,2.5s0,0.7,0.1,0.7s0.5,0.1,0.5,0.3s-0.7,1.3-0.7,1.4c0,0.1,0.7-0.7,0.7-0.7s0,0.5-0.3,1.2
	c-0.3,0.7-0.3,2-0.3,1.9s0.8-0.8,1-0.8c0.2-0.1,0,0.2-0.1,0.6c-0.1,0.4-0.5,1.7-0.4,1.6s1.1-1.3,1.1-1.3s0,0.3-0.2,1.2
	c-0.2,0.8,0.1,1.4,0.1,1.3c0-0.1,0.3-0.7,0.3-0.7s0.1,0.8,0.1,1.1s-0.1,0.3-0.4,1c-0.4,0.7-1.3,2.1-1.1,1.9s1-0.8,1-0.8l-0.2,0.7
	c0,0,0.1,0.6,0.3,0.3c0.2-0.2,0.6-1,0.6-1s0.1,0.5,0.1,0.9c0,0.4-0.3,0.4-0.7,1.5c-0.3,1.1,0.2,2.1,0.3,1.8c0.1-0.3,0.7-2,0.7-2.1
	c0-0.1,0,0.1-0.1,0.4c0,0.3,0,0.6-0.2,1.7c-0.2,1.2,0.1,2.8,0.1,2.8s0.7-0.8,0.7-0.6s0,1.4,0,1.4s0.4-0.7,0.5-0.8
	c0.1-0.1,0.8,0.6,1.1,1.2c0.3,0.6-0.3,1.7-0.8,2.9c-0.6,1.2-0.6,3.8-0.6,3.8s0.7-0.3,0.7-0.2s0.2,1.4,0.3,2.6s0.3,3.4,0.2,3.6
	c-0.1,0.2-0.7,0.3-1.1,0.2c-0.3-0.1-0.9,0-1.2,0.1c-0.3,0.1-0.5,0-1.3-0.5c-0.8-0.4-2.9-0.1-3.6-0.2s-1.3,0.1-1.7,0.4
	c-0.4,0.3-1,0-1.4-0.4c-0.4-0.4-1.4,0.3-1.4,0.3s0-0.4,0-1.1c0-0.7-0.6-2-0.9-2.7c-0.2-0.6,0.2-1.3,0.4-2.2s-0.4-2.7-0.6-3.4
	c-0.2-0.6-0.2-1.9,0.2-2.6c0.4-0.8,0.4-3,0.6-3.3c0.2-0.3,0.1-0.7,0.1-0.7s-0.3,0.2-1.3,0.7c-1,0.5-3,2.5-3.2,2.9
	c-0.2,0.4-2.4,0.3-3.4,0.2c-1.1-0.1-1.5-0.4-1.9-0.3c-0.4,0-1-0.1-1.4-0.9c-0.4-0.7-1.5-1.5-2.1-2.2c-0.6-0.7-1.5-1.2-1.5-1.2
	s0.1,0.6,0.1,1.4c0,0.8,0.1,1.5,0.3,3.6s-0.2,3-0.6,3.7c-0.4,0.7-0.2,1.1,0.2,2c0.3,0.9,0.4,1.6,0.6,2.6c0.2,1,0.6,0.7,0.8,1.3
	c0.3,0.6-0.7,3.6-1.4,5.8c-0.7,2.2-0.5,5.9-0.6,6c-0.2,0.1-0.3,0.4-1,1.1c-0.7,0.7-2,2.8-2.3,3.3s0.2,1.8,0.4,2.1
	c0.2,0.2,0.4,0.3,0.4,0.5c0,0.3,0.3,0.6,0.5,0.4s0.4-0.1,0.5,0.1c0.1,0.2-0.2,0.9-0.5,1.5s-0.4,2.2-0.4,3.2c0,1-0.3,2.1-0.7,2.7
	c-0.5,0.5-0.3,1.2-0.3,1.8s-0.5,0.6-0.5,0.3c0-0.3-0.3-0.5-0.8-1.1c-0.5-0.6-0.7-0.7-0.8-1.2c-0.1-0.4-0.2-1-0.2-1.4
	c0-0.4,0.4-0.1,0.4-0.1s0-0.2-0.2-0.4c-0.2-0.2-0.5-1.2-0.4-1.3c0.1-0.1,0,0,0.5,0.3c0.5,0.3,0.7-0.1,0.8-0.3c0.1-0.2,0.5-0.9,1-1.4
	c0.4-0.5,0.4-0.7,0.5-1.2c0.1-0.5-0.2-1.2-0.6-1.6c-0.4-0.5-0.8-1.2-0.8-1.2s-0.3-0.4-0.3-1s-0.3-0.5-0.6-0.7
	c-0.3-0.2-1.1-1.3-1.6-1.9s-1-0.9-1.8-1.1c-0.8-0.2-2.8,0.2-3.3,0.7c-0.5,0.5-2.1,2.3-2.5,2.9c-0.4,0.6-0.4,1.1-1,1.6
	c-0.6,0.6-0.8,1.7-0.8,2s0.6,0.7,0.9,1.2c0.3,0.5-0.4,1-0.4,1s0.3,0,0.5-0.1s-0.1,0.5-0.1,0.5l0.6,0.1c0,0,0,0.2-0.1,0.5
	s-0.4,0.9-0.9,1.7c-0.5,0.7-0.5,2-0.5,2s-0.4-0.1-0.5-0.4c-0.1-0.2-0.9-0.9-1-1.3c-0.1-0.4-0.1-2.2-0.1-3.3c0.1-1.1-0.1-1.6-0.3-2.2
	c-0.2-0.6-0.2-1.7,0-2.1c0.2-0.4,0.2-1,0.3-1.1c0.2-0.1,0.3,0,0.3,0.2s0.2,0.6,0.4,0.6c0.2,0.1,0.4,0.2,0.7,0.2
	c0.4,0,0.8-0.2,1.2-0.6s0.3-1.3,0.2-2.1c-0.1-0.7,0.1-1.9,0.3-2.4s0.1-2.3,0.1-3c0-0.7-0.2-1.6-0.4-2.2c-0.3-0.6,0-0.8,0-1.6
	c0.1-0.8,0.1-2.8,0.2-3.9c0.1-1-0.1-1.7-0.4-2.4c-0.3-0.7-1.8-3.8-2.2-4.8c-0.4-0.9-0.4-2.5-0.4-3.1c0-0.6,0.2-0.7,0.6-1.2
	c0.4-0.5,1.3-1.5,1.4-2c0.2-0.5,0.4-1.3,0.7-1.4s1-1.1,1.2-1.4s0.2-1.5,0.2-2.1c0-0.6,0.2-1.6,0.3-2.4c0.2-0.7,0.2-1.2,0-1.9
	c-0.2-0.6-1.1-0.8-1.6-0.6c-0.5,0.2-2.2,2.3-2.8,2.9c-0.5,0.5-0.9,1.2-1.1,1.4c-0.2,0.2-0.8,0.6-1.2,0.5c-0.4-0.1-1.1-0.1-1.6-0.1
	c-0.5,0.1-1.1-0.2-1.1-0.5c-0.1-0.3-1.1-1.5-1.5-1.7s-2-2.2-2.7-2.5c-0.7-0.3-1.2,0.2-1.4,1.1c-0.2,0.8,0.4,3.2,0.6,3.8
	c0.2,0.6,0.1,2,0.1,2s0.4,0.1,0.5,0.4s0.8,1.1,1.2,1.3c0.4,0.3,0.6,1.3,0.8,2.1s1.1,1.4,1.1,1.4s0,1.9,0,2.7c0,0.8-0.7,2.5-1.7,3.4
	c-1,0.9-1.3,2.2-1.4,2.6c-0.1,0.4,0.1,3.1,0,3.2c-0.1,0.1-0.6,0.6-0.6,0.6s-1,0.1-2,0.1c-1-0.1-1.7,0.4-2.6,1
	c-1,0.6-2.1,2.7-2.1,3.3s0.7,1.1,1.4,1.8c0.6,0.7,0.1,1.3-0.2,1.8c-0.2,0.5-0.6,1.8-1,2.7s-0.5,2.4-0.5,2.4s-0.1-1.3,0-1.7
	c0.1-0.4-0.1-1.8-0.1-2.5s-0.7-1.7-0.6-2.1c0.1-0.3,0-1.1,0-1.1s-1.5,0.3-1.6,0.3s-0.3,0-0.4-0.3s-0.9-0.2-1.4-0.1
	c-0.5,0.1-0.6,0.1-1-0.1S9,58.6,8.9,58.4c-0.2-0.2-1.3-0.7-1.3-0.7l0-0.3c0,0,0.3-0.2,0.8-0.2c0.5-0.1,1.6-0.7,2.4-1.3
	s0.7-2.3,0.7-2.6c0.1-0.4,0.5-0.7,0.6-0.8c0.2-0.1,0.4-0.4,0.4-0.4s-0.2-0.1-0.4-0.2s-0.3-0.4-0.6-0.6s-1-0.3-1.5-0.1
	s-1.1,0.8-1.4,1.2c-0.3,0.5-1.3,0.8-2,1.2s-2.7,2.3-2.7,2.3S3.7,56,3.5,56.1c-0.2,0.1-0.3,0.3-0.3,0.3h0.5c0,0,0,0.3-0.1,0.5
	s-2.9,2.7-2.9,2.7s0,0,0.1,0c0.1,0,0.7,0.1,0.7,0.1s0.3-0.1,0.6-0.5c0.3-0.4,2.1-1.5,2.7-1.8c0.6-0.3,1.3,0.9,1.3,0.9s0,0-0.3,0.1
	c-0.3,0.1-0.4,0.3-0.5,0.7c-0.1,0.4-0.6,0.7-0.9,0.9c-0.3,0.2-0.5,0-0.5,0s0,0.7,0.2,1.2c0.2,0.4,0.4,0.5,0.2,0.7
	c-0.2,0.1-0.5,0-0.5,0s0,0,0.1,0.1C4,61.8,4.4,62,4,62.2s-0.7,2-0.9,2.6c-0.2,0.6-0.4,1.2-0.4,2c0,0.7-0.1,2.9-0.4,3.5
	c-0.3,0.6,0.1,1.9,0,2.3c-0.1,0.5-0.1,1.5,0,2.6s0.2,1.1,0,2.3s0.1,1.9,0,2c-0.1,0.1-1.2,0.7-1.3,0.8c-0.1,0.1-0.3,0.1-0.3,0.2
	c0,0.1,0,0.8-0.3,1S0,82.2,0,82.3c0,0.1,1,0.7,2,0.7c1,0,2.4-0.3,2.4-0.3S5.3,82.9,6,83c0.6,0.1,1.9,0.1,2.9,0.2
	c1,0.1,4.1,0.3,4.9,0.1s3.1-0.3,3.4-0.3c0.3,0,1.1,0.1,1.1,0.1s0,0.3,0.5,0.3c0.5,0.1,1.7,0.3,3.2,0.3c1.5,0,5.6-0.2,6.1-0.2
	s1.6-0.2,2.6-0.5c1-0.4,3.3-0.2,3.5-0.1s0.1,0.3,0.6,0.5s3.4,0,4.1,0c0.7,0,0.4-0.3,0.4-0.3l0.9,0.1c0,0,0,0,0.3,0.1
	c0.3,0.1,1.8,0,2.3,0c0.4,0,1.9-0.1,2.4-0.1c0.5-0.1,3.9-0.1,3.9,0s0.2,0.1,0.2,0.1s2.5,0.1,3.4,0s0.7-0.3,0.7-0.3s1.5,0,1.5,0.2
	s0.8,0.2,1.8,0.4c1,0.1,2.8-0.2,3.4-0.3c0.6-0.1,0.3-0.1,1-0.1c0.7,0,2.3-0.1,2.9,0.2c0.5,0.2,9.3,0.2,9.3,0.2s8.3,0.2,8.9,0.2
	c0.6,0,1.1,0.1,1.6-0.2c0.5-0.3,1.3-0.1,1.3-0.1s0.3,0.3,0.6,0.4s3.4,0,4.1,0c0.7,0,1.5-0.5,2-0.4s0.2,0.5,0.2,0.5s5.8-0.1,5.9-0.1
	c0.1,0,0.1-0.4,0.4-0.4s1.3-0.1,3.3-0.2c2-0.1,2.5,0.1,3.3,0c0.8-0.1,1.9-0.1,3.3-0.3c1.4-0.1,2.4-0.2,2.4-0.2
	S109.5,80.5,109.3,80.1z M7.6,58.4c-0.2,0-0.4,0.3-0.4,0.3l-1-0.8c0,0-0.1-0.2,0-0.3c0.1,0,0.7,0.1,0.7,0.3S7.8,58.4,7.6,58.4z
	 M33.9,79.2c-0.3,0.1-0.5,0.3-0.6,0.5c-0.1,0.2-0.3-0.1-0.5-0.5c-0.1-0.4-0.7-2-0.7-2c-0.1-0.3,0.2,0,0.2,0s0.8,1.1,1.4,1.3
	S34.2,79,33.9,79.2z M77.4,80.4c-0.2,0.5-0.5,0.4-0.8,0.2c-0.3-0.2-1.6-0.2-1.6-0.2s1.1-1.3,1.4-1.8c0.4-0.5,0.3-1.2,0.3-1.2
	s0.3,0.5,0.6,1C77.7,78.9,77.6,79.9,77.4,80.4z M80.9,65.7c-0.2,2.7-0.5,5.5-0.6,6.3s-0.4,1.2-0.4,1.2s-0.4-1.6-0.5-2
	c-0.2-0.3-0.1-2.9-0.5-4.1c-0.4-1.2-0.6-3.3-1.3-3.7s-1.1-1.2-0.5-1.6c0.7-0.3,2.1-0.7,2.4-1.3c0.3-0.5,0.9-1,0.9-1
	S81.1,63,80.9,65.7z"/>
</svg>
