<?xml version="1.0" encoding="UTF-8" standalone="no"?>
<!DOCTYPE svg PUBLIC "-//W3C//DTD SVG 1.1//EN" "http://www.w3.org/Graphics/SVG/1.1/DTD/svg11.dtd">
<svg viewBox="0 0 1280 720" height="720.0pt" width="1280.0pt" xmlns="http://www.w3.org/2000/svg" version="1.1">
<path d="M 0.00 0.00 L 1280.00 0.00 L 1280.00 720.00 L 0.00 720.00 L 0.00 0.00 Z" fill="#ffffff" />
<path d="M 670.00 268.94 C 707.27 268.91 744.71 268.94 782.00 268.93 C 785.15 268.79 788.06 270.43 789.69 273.09 C 790.22 275.16 790.28 277.42 790.46 279.56 C 791.91 282.98 790.58 287.65 792.08 291.00 C 793.57 295.74 793.16 300.84 795.25 305.00 C 795.01 307.69 796.74 308.85 796.46 311.55 C 797.17 312.30 797.50 313.30 797.45 314.55 C 798.57 315.91 798.79 318.09 799.34 319.69 C 800.56 321.26 800.63 323.66 801.59 325.39 C 802.22 325.90 802.56 326.44 802.60 327.00 C 802.46 328.76 803.89 329.18 803.76 331.00 C 805.73 336.60 808.64 340.09 811.06 345.94 C 813.07 347.63 813.37 349.62 814.10 351.88 C 816.41 353.80 816.79 357.72 818.94 360.06 C 819.74 361.78 820.44 363.87 821.94 365.06 C 822.81 366.62 823.01 368.78 824.94 369.06 C 825.47 371.58 827.93 372.05 828.45 374.55 C 830.72 376.99 833.28 379.02 835.55 381.45 C 836.19 384.12 838.90 386.45 840.37 388.64 C 841.17 389.23 842.50 389.97 842.74 391.00 C 843.40 393.47 845.59 394.00 847.09 395.94 C 852.20 401.15 857.41 406.28 862.56 411.45 C 864.85 414.95 868.55 416.64 871.17 419.85 C 875.00 421.58 877.06 426.41 881.00 428.39 C 884.04 429.66 886.12 434.92 889.55 435.45 C 891.55 437.45 893.56 439.44 895.55 441.45 C 896.33 442.85 897.90 444.30 899.55 444.45 C 902.54 447.46 905.56 450.44 908.56 453.44 C 909.11 454.07 909.78 454.41 910.55 454.45 C 912.30 458.77 918.11 462.42 920.95 466.05 C 922.30 467.75 925.08 469.37 925.46 471.54 C 927.54 471.98 926.88 473.45 928.46 474.55 C 929.73 476.10 932.09 477.52 932.45 479.55 C 934.92 481.58 936.30 484.28 938.55 486.45 C 938.79 488.14 940.28 490.27 941.55 491.45 C 942.30 494.70 944.64 497.34 945.39 500.73 C 946.39 502.21 945.71 503.66 947.54 504.45 C 947.69 505.99 947.30 507.22 948.54 508.44 C 948.75 510.02 948.13 511.24 949.55 512.45 C 949.65 517.27 949.58 522.17 949.61 527.00 C 948.70 530.51 948.01 534.61 944.95 536.95 C 942.48 539.68 938.41 540.92 935.00 541.94 C 902.35 541.97 869.64 542.13 837.00 541.85 C 832.68 542.09 829.53 540.79 825.00 540.68 C 822.85 539.97 820.72 539.55 818.42 539.55 C 815.20 537.19 810.92 537.49 808.05 534.90 C 805.18 533.06 800.90 532.01 798.54 529.46 C 796.47 529.19 796.23 527.37 794.06 526.93 C 790.50 525.49 788.52 521.09 785.00 519.97 C 782.24 516.93 779.02 513.86 776.02 511.00 C 774.77 506.90 768.93 504.60 767.54 500.45 C 766.57 499.26 764.63 498.07 764.54 496.46 C 763.46 495.23 761.77 494.12 761.54 492.45 C 757.68 489.65 757.02 485.66 753.45 482.55 C 752.99 480.26 751.05 478.20 749.45 476.56 C 749.04 474.45 747.36 474.20 746.94 472.06 C 745.00 470.39 744.67 468.16 742.45 466.55 C 742.16 464.10 739.40 463.61 738.95 461.05 C 736.50 458.83 736.46 455.81 733.45 453.55 C 732.52 450.20 728.68 449.14 727.89 446.00 C 726.14 444.14 724.44 442.24 722.65 440.40 C 720.19 438.97 718.79 436.25 716.55 434.46 C 715.18 434.39 714.47 433.30 713.55 432.46 C 712.32 432.23 711.35 431.26 710.05 430.86 C 705.88 428.23 701.75 428.55 697.00 428.59 C 694.18 427.63 691.43 427.60 688.45 427.55 L 687.62 426.42 C 682.67 425.47 678.37 423.52 673.91 421.26 C 671.48 420.00 670.62 417.62 668.07 416.93 C 665.14 415.43 663.55 413.05 661.31 410.75 C 659.70 407.87 656.55 405.24 655.74 402.00 C 655.33 400.61 654.32 399.66 653.45 398.55 C 653.53 397.25 653.20 396.25 652.45 395.56 C 652.27 393.05 651.24 390.24 650.41 388.00 C 650.54 385.61 649.73 383.39 649.86 381.00 C 649.18 374.85 650.03 368.14 650.05 362.00 C 649.98 361.07 650.15 360.26 650.55 359.56 C 650.81 351.74 652.93 344.36 652.46 336.45 C 654.63 336.21 653.63 333.49 654.13 332.00 C 654.29 329.16 654.93 327.15 655.45 324.38 C 656.71 319.28 656.93 313.67 658.58 309.00 C 658.65 307.35 658.42 305.61 658.81 304.00 C 660.53 301.60 658.63 298.92 660.54 296.56 C 660.78 293.80 660.09 289.98 661.54 287.56 C 661.57 282.84 662.39 278.18 662.45 273.45 C 664.13 270.64 666.69 269.03 670.00 268.94 Z" fill="#70ac48" />
<path d="M 355.00 280.41 C 391.32 280.12 427.67 280.38 464.00 280.26 C 467.07 280.33 469.61 280.89 471.59 283.41 C 473.47 289.74 472.65 294.94 474.59 301.00 C 474.38 302.92 475.03 304.58 475.55 306.39 C 475.87 309.39 476.24 312.70 477.55 315.42 C 477.73 317.47 478.05 319.21 479.03 321.00 C 479.58 325.92 482.09 329.92 483.19 334.00 C 483.36 336.17 484.98 338.13 485.59 340.26 C 488.20 345.67 490.56 352.99 494.55 357.44 C 495.76 362.61 499.30 366.65 501.95 371.05 C 504.42 373.14 504.67 376.06 506.90 378.06 C 507.43 380.55 510.04 381.11 510.46 383.54 C 512.09 384.14 512.28 384.93 512.46 386.55 C 514.35 388.73 517.45 390.85 518.45 393.55 C 521.72 396.67 523.58 399.02 526.85 402.00 C 528.81 404.11 532.06 406.07 533.18 408.88 C 535.65 409.82 537.50 412.69 539.55 414.45 C 539.55 415.87 541.34 417.06 542.55 417.45 C 544.74 419.87 547.53 421.95 549.35 424.64 C 550.97 425.75 551.36 427.32 553.55 427.45 C 556.34 430.17 558.82 432.73 561.44 435.56 C 564.04 436.53 566.82 439.32 568.28 441.73 C 570.55 443.37 572.38 445.64 574.44 447.54 C 576.38 447.93 575.90 449.00 576.96 450.04 C 579.54 451.77 582.98 452.51 584.17 455.83 C 587.79 457.67 590.98 462.38 593.82 465.09 C 599.75 471.10 602.95 474.29 608.31 481.00 C 608.88 482.67 611.17 483.45 611.46 485.55 C 613.24 487.46 615.32 489.53 616.24 492.00 C 616.17 494.91 619.75 495.34 619.46 498.55 C 621.52 500.49 621.65 502.60 622.74 505.00 C 624.15 507.08 623.47 509.29 624.37 511.66 C 625.31 512.80 624.62 514.20 625.54 515.44 C 625.66 520.82 626.88 527.79 624.61 532.75 C 623.87 535.74 620.49 538.70 618.00 540.31 C 614.93 542.64 610.77 542.56 607.00 542.83 C 578.33 542.84 549.67 542.84 521.00 542.83 C 518.36 542.55 515.66 542.61 513.00 542.60 C 509.96 541.74 506.00 541.40 503.00 540.41 C 500.59 540.60 499.54 538.94 497.00 539.28 C 495.01 537.81 492.73 537.70 490.42 536.55 C 486.74 534.35 481.66 532.56 478.55 529.46 C 475.66 528.55 473.62 526.65 471.54 524.46 C 469.38 524.08 467.78 521.28 466.04 519.96 C 464.19 518.58 465.41 517.45 463.05 516.96 C 458.82 512.65 455.04 509.46 451.58 504.38 C 450.81 503.74 449.52 503.02 449.25 502.00 C 447.40 498.96 445.05 496.00 442.46 493.55 C 442.41 491.77 441.30 491.01 440.36 489.73 C 439.88 487.51 438.37 488.34 437.94 486.06 C 435.83 484.48 435.76 481.39 433.35 479.64 C 431.85 477.40 431.03 474.80 429.19 472.92 C 426.91 470.40 426.90 468.05 424.00 465.91 C 421.98 464.83 422.47 462.93 420.46 461.55 C 420.48 459.58 417.65 458.57 417.33 457.00 C 415.63 453.73 411.10 451.48 409.95 448.07 C 408.17 446.48 406.37 443.39 404.00 442.62 C 402.03 442.10 400.70 438.61 398.44 438.55 C 396.53 436.16 394.00 436.40 391.88 434.24 C 388.34 433.42 384.56 434.44 381.00 433.11 C 378.51 433.08 375.78 432.55 373.55 431.46 C 370.03 431.56 366.82 428.59 364.00 428.24 C 360.49 425.89 356.64 424.11 352.95 422.05 C 351.45 420.55 349.95 419.05 348.45 417.55 C 347.76 414.62 344.87 412.13 343.56 409.40 C 343.07 408.25 342.36 407.38 341.45 406.55 C 341.38 404.63 341.01 402.83 339.45 401.56 C 339.55 400.25 339.22 399.25 338.46 398.56 C 338.66 393.18 336.70 388.37 336.97 383.00 C 336.79 370.77 339.77 357.06 340.45 345.44 C 341.95 343.05 341.20 340.14 341.46 337.44 C 343.32 335.46 341.57 333.21 343.17 331.00 C 343.66 327.20 344.91 321.79 345.33 318.00 C 345.66 315.82 344.84 313.91 346.20 312.00 C 346.40 310.26 346.78 307.62 345.95 306.05 C 345.46 305.73 345.30 305.20 345.46 304.46 C 348.34 304.35 347.12 301.29 347.46 299.44 C 348.89 297.72 348.19 294.55 348.46 292.43 C 349.60 290.52 349.16 287.62 349.45 285.44 C 351.07 283.03 351.72 280.76 355.00 280.41 Z" fill="#70ac48" />
<path d="M 664.06 431.20 C 666.82 431.47 670.23 433.81 672.45 435.54 C 673.66 435.53 674.65 435.86 675.43 436.54 C 683.37 439.82 694.16 441.83 703.00 442.01 C 704.23 442.42 705.46 443.67 706.44 444.54 C 708.88 445.09 709.50 447.49 711.88 448.19 C 712.35 449.12 712.82 450.06 713.31 451.00 C 713.50 478.94 713.41 507.05 713.37 535.00 C 713.53 538.76 710.83 542.09 707.00 541.98 C 700.34 541.92 693.65 542.13 687.00 541.88 C 683.15 540.79 681.55 537.76 681.40 534.00 C 681.37 526.10 681.37 517.92 680.68 510.08 C 679.87 500.59 679.60 493.57 677.40 484.00 C 676.71 478.95 674.81 471.26 673.89 466.00 C 673.02 461.93 671.13 456.38 670.55 452.43 C 669.44 451.21 669.63 449.96 669.54 448.46 C 668.63 447.94 668.15 447.12 668.10 446.00 C 667.23 443.67 666.59 441.31 665.68 439.00 C 665.24 436.83 662.88 433.26 664.06 431.20 Z" fill="#70ac48" />
<path d="M 350.62 435.43 C 351.56 436.08 352.54 436.42 353.56 436.45 C 355.56 438.44 358.43 439.76 361.00 440.85 C 365.68 442.80 369.90 444.43 375.00 445.01 C 377.92 446.49 381.52 445.47 384.43 446.54 C 388.97 446.38 393.51 449.24 396.44 452.55 C 399.68 454.06 398.67 457.06 398.77 460.00 C 398.56 486.12 398.96 512.49 398.56 538.58 C 397.48 539.95 395.78 542.30 394.00 542.65 C 387.71 542.99 381.30 542.94 375.00 542.75 C 372.22 542.88 370.20 541.62 368.46 539.55 C 367.40 534.53 368.58 528.84 367.41 524.00 C 367.51 517.47 367.15 510.81 366.61 504.30 C 365.49 501.78 366.54 498.18 365.34 495.72 C 364.75 492.92 365.03 489.65 364.02 487.00 C 362.82 484.64 363.87 481.69 362.45 479.56 C 361.95 474.68 360.51 469.73 359.27 465.00 C 357.89 463.39 358.99 461.89 357.46 460.56 C 357.66 457.55 356.34 455.76 355.75 453.00 C 354.19 447.88 352.13 443.22 350.75 438.06 C 350.27 437.66 350.01 435.52 350.62 435.43 Z" fill="#70ac48" /></svg>