<?xml version="1.0" encoding="utf-8"?>
<!-- Generator: Adobe Illustrator 16.0.0, SVG Export Plug-In . SVG Version: 6.00 Build 0)  -->
<!DOCTYPE svg PUBLIC "-//W3C//DTD SVG 1.1//EN" "http://www.w3.org/Graphics/SVG/1.1/DTD/svg11.dtd">
<svg version="1.1" id="Calque_1" xmlns="http://www.w3.org/2000/svg" xmlns:xlink="http://www.w3.org/1999/xlink" x="0px" y="0px"
	 width="17.3px" height="50.1px" viewBox="0 0 17.3 50.1" style="enable-background:new 0 0 17.3 50.1;" xml:space="preserve">
<style type="text/css">
<![CDATA[
	.st0{fill:#6E8934;}
]]>
</style>
<g>
	<path class="st0" d="M17.3,35.9c0,0-1.2,1-4.8,1c-3.6,0-5.2-1-5.2-1V1c0,0,1.1-1,5.2-1c4.1,0,4.8,1,4.8,1V35.9z"/>
	<circle class="st0" cx="15.1" cy="47.6" r="1"/>
	<path class="st0" d="M9.9,41.5C7.7,38,7,37.2,7,37.2l-7,4.3c0,0,0.6,1.5,2.6,4.5c1.9,3,2.7,4,2.7,4l7-4.3
		C12.3,45.7,12.1,45,9.9,41.5z M2.7,45c-0.3-0.5-0.1-1.1,0.3-1.4c0.5-0.3,1.1-0.2,1.4,0.3c0.3,0.5,0.1,1.1-0.3,1.4
		C3.6,45.6,3,45.4,2.7,45z M5.5,47.3C5,47.6,4.4,47.4,4.1,47c-0.3-0.5-0.1-1.1,0.3-1.4c0.5-0.3,1.1-0.1,1.4,0.3
		C6.1,46.4,6,47,5.5,47.3z M8.8,47.3c-0.5,0.3-1.1,0.1-1.4-0.3c-0.3-0.5-0.1-1.1,0.3-1.4c0.5-0.3,1.1-0.2,1.4,0.3S9.2,47,8.8,47.3z"
		/>
</g>
</svg>
