<?xml version="1.0" encoding="utf-8"?>
<!-- Generator: Adobe Illustrator 16.0.0, SVG Export Plug-In . SVG Version: 6.00 Build 0)  -->
<!DOCTYPE svg PUBLIC "-//W3C//DTD SVG 1.1//EN" "http://www.w3.org/Graphics/SVG/1.1/DTD/svg11.dtd">
<svg version="1.1" id="Calque_1" xmlns="http://www.w3.org/2000/svg" xmlns:xlink="http://www.w3.org/1999/xlink" x="0px" y="0px"
	 width="109px" height="129.3px" viewBox="0 0 109 129.3" style="enable-background:new 0 0 109 129.3;" xml:space="preserve">
<style type="text/css">
<![CDATA[
	.st0{fill:#6E8934;}
]]>
</style>
<path class="st0" d="M108.7,16.9C82.5,14.3,54.5,0,54.5,0s-28,14.3-54.2,16.9c0,0-7.5,85.7,54.2,112.5
	C116.2,102.6,108.7,16.9,108.7,16.9z M35.8,38c0.6-2.6,2.1-2.1,2.1-2.1c-0.8-0.8-0.6-3-0.2-3.5c0.3-0.6,0.8-2.2,1.9-2.5
	c1.1-0.3,2.8,1.7,2.8,1.7c0-1.3,1.6-2.6,1.9-3.5c0.3-1,1.1-0.9,2.3,2.3c1.3,3.2,2.8,12.7,2.8,12.7c0.2-0.2,0.8,0.3,0.8,0.3
	c0.7-0.8,2.2-1.6,2.8-1.9c0.6-0.3,1.5-1,1.9-1.4c0.4-0.4,0.4,0,0.2,0.3c-0.2,0.3-1.2,0.9-2.6,1.5s-2.1,1.7-2.1,1.7
	c0.5,0.6,0.4,1.4,0.4,1.4s0.3,0.5,0.2,1.6c-0.1,1-0.2,1.9-0.1,2.2s0.2,0.7-0.1,0.4c-0.3-0.4-0.1-1.9,0-2.6c0.1-0.7-0.2-1.4-0.2-1.4
	c-0.1,0.2-1,0.6-1.4,0.7c-0.5,0.1,0.1,0.2,0.3,0.4c0.3,0.2,0,0.2-0.3,0.7c-0.3,0.5-0.5,0.5-1.2,0.7s-0.4,0-0.4,0s0.9-0.4,1.1-0.7
	c0.3-0.3-0.3-0.6-0.6-0.7c-0.4-0.1-0.4-0.2-0.4-0.2s-0.4,0.4-0.6,1c-0.2,0.6-0.2,1.5-0.8,2.7c-0.6,1.2-1.1,1-1.1,1s0.3-0.4,0.8-1
	c0.4-0.5,0.8-2.5,0.9-3c0.1-0.4,0.5-0.7,0.3-0.7C47,46,47,45.8,47,45.8s-0.2,0.2-0.6,0.4c-0.4,0.2-0.2,0.6-0.5,1.6
	c-0.3,0.9-1.2,2-1.3,2.1c-0.1,0.1-0.3,0.3-0.6,0.5c-0.3,0.3-0.7,0.6-0.7,0.6s0-0.3,0.3-0.7c0.3-0.3,0.4-0.3,1.1-1.1
	c0.6-0.9,1.1-2.1,1.1-2.7C45.8,46.2,46,46,46,46c-0.2,0.1-0.8,0.6-1.3,0.9c-0.6,0.4-1.4,0.7-2.6,0.6c-1.2-0.1-1-1-0.4-1.4
	c0.6-0.3,1.1-1.1,1.1-1.1s-1.9-0.9-2.8-1.1c-0.9-0.1-0.9-0.7-1.3-0.9c-0.4-0.2-0.9-0.3-1.8-1.8C36.1,39.8,35.7,38.9,35.8,38z
	 M76,76.3c-2.5,0.2-1.4,0.6-3,2.5c-1.6,1.9,0.8,3,0.8,3s0,0-2.1-0.3c-2.1-0.3-3.2,0.7-3.2,0.7s0,0-0.7,1.9c-0.7,1.9,0.6,4.4,0.6,4.4
	s-3-0.6-4.4-2c-1.4-1.4-1.5-0.6-1.5-0.6s-1-0.1-2.5-2.6s-4.5,1.9-4.5,1.9c1.4-3.8-1.8-5.5-1.8-5.5s0.2-1.2,0.9-2.8
	c0.7-1.6,0-1.1,0-1.1s0.1-1.6,0.7-3c0.6-1.4-0.7-1.7-0.7-1.7c-1.3,0.8-3.8,7.3-4.6,9.2c-0.8,2-1.6,0.2-1.6,0.2l3.4-9.9
	c-1.3,0.8-3.5,4.1-3.5,4.1c-0.7-1.6-2.6,0.1-2.6,0.1c-1.1-0.5-4.8,1.3-4.8,1.3s0.2-0.4,0.3-1.9c0.1-1.5-2.6-1.9-6.4-3.7
	c-3.8-1.9-3.5-2.5-3.5-2.5s2.8-0.2,5-1.5c2.2-1.4,1.9-3.5,1.8-6.1c-0.1-2.5,0.5-3,0.6-3.9c0.2-0.9-0.2-3.9-0.6-7.1
	C38,46.4,39,48,39,48s1.9,3.7,6,3.7c4.2,0,5.7,2.2,5.7,2.2c0.1-0.1,0.2-0.1,0.3-0.2c4.3-3.1,2.9-4.6,2.9-4.6l1.8-1.6
	c0,0,0.2,0.5,0.9,1.6c0.7,1.1,4.9-4.2,7.6-5.5c2.7-1.3,1.6-0.6,2.9-2.4c1.3-1.9,3.4-2.4,2.7-1.8c-0.7,0.6-1.9,7.9-0.2,11.1
	s2,4.1,2.4,6.5c0.4,2.4,3,0,3,0c-0.5,3.1-1.9,4.4-4.3,6.2s4.1,4.5,5.4,5.2c1.3,0.6,3.5,1.1,4.2,2.7c0.6,1.6,3.3,1.6,3.3,1.6
	C81.6,75,78.5,76.1,76,76.3z"/>
</svg>
