<?xml version="1.0" encoding="utf-8"?>
<!-- Generator: Adobe Illustrator 19.2.1, SVG Export Plug-In . SVG Version: 6.00 Build 0)  -->
<svg version="1.1" id="Calque_1" xmlns="http://www.w3.org/2000/svg" xmlns:xlink="http://www.w3.org/1999/xlink" x="0px" y="0px"
	 viewBox="0 0 39.6 30.2" style="enable-background:new 0 0 39.6 30.2;" xml:space="preserve">
<style type="text/css">
	.st0{fill:none;stroke:#3F521D;stroke-width:0.4851;stroke-linecap:round;stroke-linejoin:round;stroke-miterlimit:10;}
	.st1{fill:#6E8935;}
</style>
<polyline class="st0" points="0,30.1 4.8,25.4 3.9,29.9 8.8,24 7.7,28.6 12.2,22.6 10.7,27.9 22.1,18.2 "/>
<g>
	<path class="st1" d="M26,16.9c0-0.1,0-0.3,0-0.4c0-2-2.1-3.7-2.1-3.7c-0.2-0.1-0.4-0.1-0.6,0c-0.1,0.2-0.1,0.4,0,0.6
		c0,0,0.1,0.1,0.3,0.3c0.5,0.5,1.6,1.8,1.6,2.9c0,0.1,0,0.2,0,0.3c-0.1,0.5-0.3,0.9-0.6,1.2c-0.3,0.4-0.6,0.6-0.7,1.2
		c0,0.3,0.1,0.5,0.3,0.7c0.2,0.2,0.5,0.4,0.9,0.6c0.4,0.2,0.7,0.3,1,0.3c1,0,1.4-0.8,1.7-1.3c0.3-0.6,0.6-1.1,0.7-1.1
		c0.9-0.2,2.9-1.3,2.9-3.8c0-0.8-0.2-1.6-0.6-2.6c-0.9-2-2.2-2.6-3.3-2.6c-1.3,0-2.2,0.7-2.3,0.7c0,0,0,0,0,0c-0.6-0.6-1-1.2-1-1.7
		c0-0.2,0.1-0.4,0.2-0.7c1.4-2.2,3.1-3.9,4.6-3.8c0.1,0,0.3,0,0.4,0C30,4,30.7,4.2,31.4,4.6c-0.1,0.1-0.1,0.1-0.1,0.2
		c0,0,0,0.2,0,0.6c0,0.7,0.1,2,0.7,3.1c0.7,1.2,1.4,3.2,1.4,5.4c0,0.4,0,0.8-0.1,1.2c-0.1,1.4-0.4,2.5-0.8,3.3
		c-0.5,0.8-1.2,1.4-2.6,1.9l0,0c0,0-0.1,0-0.1,0c-2.5,0.8-3.4,2-3.4,3.1c0,0.3,0,0.5,0.1,0.7c0.1,0.2,0.2,0.3,0.4,0.3
		c0,0,0.1,0,0.1,0c0.2-0.1,0.3-0.3,0.2-0.5c-0.1-0.1-0.1-0.3-0.1-0.5c0-0.6,0.5-1.6,2.9-2.4c0.1,0,0.2-0.1,0.3-0.1c0,0,0,0,0,0
		c1.4-0.5,2.3-1.2,2.8-2.2c0.6-1,0.8-2.2,1-3.7c0-0.4,0.1-0.8,0.1-1.2c0-2-0.5-3.7-1.1-5c0.2,0.1,0.4,0.1,0.5,0
		c0.2-0.2,0.4-0.4,0.5-0.7c0,0,0,0,0,0c0-0.1,0.1-0.1,0.1-0.2c0,0,0,0,0,0c0-0.1,0-0.1,0.1-0.2c0,0,0,0,0-0.1c0,0,0-0.1,0-0.1
		c0,0,0-0.1,0-0.1c0,0,0-0.1,0-0.1c0-0.1,0-0.1,0-0.2c0-1.1-0.8-2.1-1.8-2.8c-1-0.7-2.1-1.2-2.9-1.4C29.4,3,29.3,3,29.1,3
		c-2,0-3.8,1.9-5.3,4.2c-0.1,0.1-0.1,0.2-0.1,0.3c0,0.1-0.1,0.2-0.1,0.2c0,0,0,0.1,0,0.1c0,0.1,0,0.1,0,0.2c0,0,0,0,0,0.1
		c0,0.1,0,0.2,0,0.2c0,0.1,0,0.2,0,0.3c0,0,0,0.1,0,0.1c0,0.1,0,0.1,0,0.2c0,0,0,0.1,0,0.1c0,0.1,0,0.1,0.1,0.2c0,0,0,0.1,0,0.1
		c0,0.1,0.1,0.2,0.1,0.3c0,0,0,0,0,0c0,0.1,0.1,0.2,0.1,0.2c0,0,0,0.1,0.1,0.1c0,0.1,0.1,0.1,0.1,0.2c0,0,0,0.1,0.1,0.1
		c0.1,0.1,0.1,0.1,0.2,0.2c0,0,0,0,0,0.1c0.1,0.1,0.2,0.2,0.2,0.2c0,0,0,0,0,0l0,0c0.4,0.4,0.8,0.7,1.3,1.1c1.2,0.9,2.4,1.4,2.4,1.4
		c0.1,0,0.1,0,0.2,0c0.2,0,0.3-0.1,0.4-0.2c0.1-0.2,0-0.4-0.2-0.5c0,0-1.1-0.5-2.3-1.4c-0.2-0.1-0.4-0.3-0.6-0.4
		c0.3-0.2,0.9-0.5,1.7-0.5c0.8,0,1.8,0.4,2.6,2.1c0.4,0.9,0.6,1.6,0.6,2.3c0,2-1.6,2.8-2.3,3c-0.8,0.3-0.9,1-1.2,1.5
		c-0.3,0.6-0.5,0.9-1,0.9c-0.2,0-0.4,0-0.7-0.2c-0.3-0.2-0.6-0.3-0.7-0.4c-0.1-0.1-0.1-0.1-0.1-0.1c0,0,0.2-0.3,0.5-0.7
		C25.5,18.1,25.9,17.6,26,16.9z M32.1,5.1c0.9,0.6,1.5,1.4,1.4,2.1c0,0.4-0.1,0.7-0.5,1.1c-0.1,0.1-0.1,0.2-0.1,0.2
		c-0.1-0.2-0.2-0.3-0.2-0.5c-0.5-0.9-0.6-2-0.6-2.7C32.1,5.3,32.1,5.2,32.1,5.1z M23.3,13.3L23.3,13.3L23.3,13.3L23.3,13.3z
		 M38.4,9.1c0,0.9-0.1,1.7-0.3,2.3c-0.6,1.9-2.2,7.5-3.2,9.9c-0.3,0.8-0.6,2.2-1.1,3.6c-0.5,1.4-1.2,3-2.4,4
		c-0.8,0.7-1.9,1.2-3.1,1.2c0,0,0,0,0,0c-0.1,0-0.3,0-0.4,0c0,0-0.1,0-0.1,0c-0.1,0-0.2,0-0.3,0c0,0-0.1,0-0.1,0
		c-0.1,0-0.2,0-0.3-0.1c0,0-0.1,0-0.1,0c-0.1,0-0.2-0.1-0.3-0.1c0,0-0.1,0-0.1,0c-0.1,0-0.1-0.1-0.2-0.1c0,0-0.1,0-0.1-0.1
		c-0.1,0-0.1-0.1-0.2-0.1c0,0-0.1,0-0.1-0.1c-0.1,0-0.1-0.1-0.2-0.1c-0.1,0-0.1-0.1-0.2-0.1c0,0-0.1-0.1-0.1-0.1
		c0,0-0.1-0.1-0.1-0.1c0,0-0.1-0.1-0.1-0.1c-0.1,0-0.1-0.1-0.1-0.1c0,0,0,0,0,0c-0.2-0.2-0.3-0.4-0.5-0.6c0,0,0,0,0,0
		c-0.3-0.4-0.5-0.8-0.7-1.3c-0.7-1.6-0.7-3-0.7-3.1c0-0.4,0.3-0.8,0.8-0.9c0.4,0,0.8,0.3,0.8,0.8c0,0,0,0.1,0,0.2
		c0,0.1,0,0.3,0.1,0.6c0.1,0.5,0.2,1.1,0.5,1.7c0.1,0.1,0.1,0.2,0.2,0.4c0,0.1,0.1,0.1,0.1,0.2c0,0,0,0,0,0c0,0.1,0.1,0.1,0.1,0.2
		c0,0,0,0,0,0c0,0.1,0.1,0.1,0.1,0.2c0,0,0,0,0,0c0.2,0.2,0.3,0.4,0.5,0.6c0,0,0,0,0,0c0,0,0.1,0.1,0.1,0.1c0,0,0,0,0.1,0.1
		c0,0,0.1,0,0.1,0.1c0,0,0.1,0,0.1,0.1c0,0,0.1,0,0.1,0.1c0,0,0.1,0,0.1,0.1c0,0,0.1,0,0.1,0.1c0,0,0.1,0,0.1,0c0,0,0.1,0,0.1,0
		c0,0,0.1,0,0.1,0c0,0,0.1,0,0.1,0c0,0,0.1,0,0.1,0c0,0,0.1,0,0.1,0c0.1,0,0.1,0,0.2,0c0,0,0.1,0,0.1,0c0.1,0,0.2,0,0.3,0
		c0.9,0,1.5-0.3,2.1-0.8c0.6-0.5,1-1.2,1.4-2c0.8-1.7,1.2-3.7,1.7-5c0.9-2.3,2.6-7.9,3.2-9.8c0.1-0.3,0.2-1,0.2-1.8
		c0-1.5-0.3-3.4-1.3-4.8c-0.1-0.1-0.1-0.2-0.2-0.3c0,0,0,0,0,0c-0.1-0.1-0.1-0.2-0.2-0.2c0,0,0,0,0,0c-0.1-0.1-0.2-0.2-0.2-0.3
		c0,0,0,0,0,0c-0.1-0.1-0.2-0.2-0.3-0.3c-0.9-0.9-2.3-1.4-4.3-1.4c-3.1,0-5,1.6-6.3,3.5c-1.3,1.9-1.8,4-2,4.9c0,0.2-0.1,0.4-0.1,0.4
		l0,0c-0.1,0.4-0.5,0.8-0.9,0.7c-0.4-0.1-0.7-0.5-0.7-0.9c0-0.1,0.4-2.5,1.7-5c1.4-2.5,3.9-5.1,8.2-5.1c1.8,0,3.3,0.4,4.4,1.1
		c0,0,0,0,0,0c0.1,0.1,0.2,0.1,0.3,0.2c0,0,0.1,0,0.1,0.1c0.1,0.1,0.2,0.1,0.2,0.2c0,0,0.1,0.1,0.1,0.1c0.1,0.1,0.1,0.1,0.2,0.2
		c0,0,0.1,0.1,0.1,0.1c0.1,0.1,0.1,0.1,0.2,0.2c0,0,0.1,0.1,0.1,0.1c0,0.1,0.1,0.1,0.1,0.2c0,0.1,0.1,0.1,0.1,0.2
		c0,0,0.1,0.1,0.1,0.1c0.1,0.1,0.1,0.1,0.2,0.2c0,0,0.1,0.1,0.1,0.1c0.1,0.1,0.1,0.2,0.2,0.3C38.1,5.3,38.4,7.5,38.4,9.1z"/>
</g>
</svg>
