<?xml version="1.0" encoding="utf-8"?>
<!-- Generator: Adobe Illustrator 16.0.0, SVG Export Plug-In . SVG Version: 6.00 Build 0)  -->
<!DOCTYPE svg PUBLIC "-//W3C//DTD SVG 1.1//EN" "http://www.w3.org/Graphics/SVG/1.1/DTD/svg11.dtd">
<svg version="1.1" id="Calque_1" xmlns="http://www.w3.org/2000/svg" xmlns:xlink="http://www.w3.org/1999/xlink" x="0px" y="0px"
	 width="116.7px" height="25px" viewBox="0 0 116.7 25" style="enable-background:new 0 0 116.7 25;" xml:space="preserve">
<style type="text/css">
<![CDATA[
	.st0{fill:none;stroke:#6E8934;stroke-width:0.5;stroke-linecap:round;stroke-linejoin:round;stroke-miterlimit:10;}
	.st1{fill:#6E8934;}
]]>
</style>
<g>
	<g>
		<g>
			<path id="p2_5_" class="st1" d="M111.8,1.2c5.2,2.7,6.5,9.8,2.9,14.4c-2.7,3.7-7.1,4-11.3,2.9c-2.8-1.2-5.4-3.3-8-4.9
				c-0.5,3.1-0.1,7-2.5,9.3c-2.4,2.5-5.8,2-8.9,2.1c-11.4-0.2-22.9,0.1-34.3-0.2c0.4-1.9-0.4-5.6,1.6-6.6c6.3-0.9,12.9,0.3,19.3-0.6
				c4.6-0.7,9.1-1.9,13.6-2.8c-0.2-1.3-0.3-2.6-0.5-3.9c-4.3,1-8.7,2.1-13.1,2.8c-6.2,0.9-12.6-0.2-18.7,0.4
				c-2.5,0.3-4.9,1.6-5.7,4.2c-0.5,2.2-0.5,4.5-0.6,6.7c-13.9-0.1-27.8,0.1-41.7-0.1c-4.4,0.1-5.3-5.8-2.4-8.2
				C7,15,12.6,13.9,18.1,13.2c10.7-1.7,21.4-3.4,32.1-5C55.1,7.7,60.1,8,65,7.9c7.4,0.1,14.7-0.1,22.1,0c4-0.2,5.6,3,9.4,4.2
				c0.5-1.8,0.8-3.7,1.4-5.5C99.3,1.1,106.9-1.8,111.8,1.2z"/>
		</g>
		<path class="st0" d="M60.7,8.5"/>
		<path class="st0" d="M106,2.6"/>
		<path class="st0" d="M63.9,8.4"/>
		<path class="st0" d="M69.6,8.4"/>
		<path class="st0" d="M73.1,8.5"/>
		<path class="st0" d="M75.8,8.4"/>
		<path class="st0" d="M106.9,2.5"/>
		<path class="st0" d="M109.3,2.5"/>
		<path class="st0" d="M107.1,1.9"/>
	</g>
</g>
<ellipse class="st1" cx="57.2" cy="6.2" rx="5.2" ry="2.3"/>
<ellipse class="st1" cx="84" cy="6.2" rx="5.2" ry="2.3"/>
<ellipse transform="matrix(0.9795 -0.2012 0.2012 0.9795 -0.901 8.1374)" class="st1" cx="39.6" cy="8.5" rx="6.3" ry="2.3"/>
<ellipse class="st1" cx="70" cy="5.8" rx="6.1" ry="2.7"/>
</svg>
