<?xml version="1.0" encoding="utf-8"?>
<!-- Generator: Adobe Illustrator 19.2.1, SVG Export Plug-In . SVG Version: 6.00 Build 0)  -->
<svg version="1.1" id="Calque_1" xmlns="http://www.w3.org/2000/svg" xmlns:xlink="http://www.w3.org/1999/xlink" x="0px" y="0px"
	 viewBox="0 0 30 12.4" style="enable-background:new 0 0 30 12.4;" xml:space="preserve">
<style type="text/css">
	.st0{fill:#6E8935;}
	.st1{fill:#FFFFFF;stroke:#6E8935;stroke-width:0.1065;stroke-miterlimit:10;}
	.st2{fill:#FFFFFF;stroke:#6E8935;stroke-width:5.323644e-002;stroke-miterlimit:10;}
</style>
<path class="st0" d="M29.9,10.9c-0.1-0.1-0.3-0.4-0.4-0.6c-0.4-0.6-0.9-1.2-1.3-1.6c-0.3-0.4-0.9-0.6-1.3-0.6c-0.6,0-1,0.1-1.6,0.1
	c-0.4,0.1-1,0.1-1.5,0.1c-0.6,0-1,0-1.6,0c-0.3,0-0.6,0.1-0.7,0.3c0.3,0,0.4,0,0.6,0c0.3,0.1,0.4,0.3,0.4,0.6c0,0.3-0.1,0.3-0.3,0.4
	c0.3,0.1,0.7,0.1,1,0.1c0.6,0.1,1,0.1,1.6,0.1c0.3,0,0.4,0.1,0.7,0.3c0.1,0,0.1,0.1,0.1,0.1s0,0,0,0.1c-0.1,0-0.1,0-0.1-0.1
	c-0.3-0.1-0.4-0.1-0.6-0.1c-0.6-0.1-1.2-0.1-1.6-0.3c-0.4-0.1-0.9-0.1-1.3-0.3c-0.1,0-0.3,0-0.3-0.1c-0.3,0-0.4-0.1-0.4-0.4
	c-0.1-0.3,0-0.4,0.1-0.6c0.1,0,0.1-0.1,0.1-0.1c-0.4-0.3-0.9-0.4-1.5-0.7c-0.3-0.1-0.6-0.3-0.9-0.4c-0.4-0.3-0.7-0.3-1.2-0.1
	c0,0,0,0,0-0.1c0.1-0.1,0.3-0.1,0.4-0.1c-0.3-0.1-0.4-0.1-0.7,0.1c0.1-0.1,0.3-0.3,0.4-0.3c0.3,0.1,0.4,0.1,0.7,0.1
	C19,6.9,19.1,6.9,19.3,7v0.1C19,7,18.8,6.9,18.7,6.9c0.1,0,0.4,0,0.6,0.3c0.3,0.3,0.4,0.4,0.7,0.6h0.1c-0.1-0.3-0.4-0.4-0.7-0.6
	c0,0,0,0,0-0.1c0.1,0,0.3,0,0.3,0C19.9,7.2,20,7.2,20,7.3c0.3,0.3,0.6,0.4,0.9,0.7c0.3,0.1,0.4,0.3,0.7,0.1c0.3-0.1,0.6-0.1,0.9-0.1
	c0.4,0,0.9,0,1.3,0c0.7,0,1.5-0.1,2.1-0.3c0.6-0.1,1-0.1,1.6,0c0.4,0.1,0.7,0.3,0.9,0.6c0.4,0.6,0.9,1.2,1.3,1.8
	c0.1,0.1,0.1,0.1,0.1,0.1C29.9,10.7,29.9,10.9,29.9,10.9z"/>
<path class="st0" d="M27.3,12.2c-0.6-0.6-1.2-0.7-1.9-0.7c-0.4,0-1,0-1.5,0s-0.7,0-1-0.1c-0.1,0-0.3-0.1-0.4-0.1
	c-0.9-0.4-1.6-0.9-2.4-1.3c-0.4-0.3-0.9-0.6-1.2-0.7c0-0.1-0.1-0.3-0.1-0.3c-0.3-0.4-0.6-0.7-1-1c-0.1-0.1-0.1-0.1-0.3-0.1
	c0.3,0.1,0.4,0.3,0.6,0.4c0.1,0.1,0.1,0.1,0.3,0c-0.1-0.1-0.1-0.1-0.1-0.1c0.1,0.1,0.3,0.1,0.1,0.4c0,0,0,0,0,0.1
	c0.3,0.6,0.9,0.9,1.3,1.2c0.6,0.3,1,0.6,1.5,0.9c0.4,0.3,0.9,0.6,1.3,0.7c0.3,0.1,0.6,0.3,1,0.1c0.4,0,0.9-0.1,1.3-0.1
	c1.2-0.1,2.2,0.3,3.3,0.9c0.1,0.1,0.1,0.1,0.3,0.1C27.9,12.2,27.6,12.2,27.3,12.2z"/>
<path class="st0" d="M22.4,10.9c-0.1-0.1-0.1-0.1-0.1-0.1c-0.1-0.3-0.4-0.4-0.6-0.6c-0.3-0.3-0.7-0.4-1-0.7
	c-0.1-0.1-0.3-0.3-0.6-0.3c-0.3-0.1-0.6-0.3-0.9-0.6c-0.3-0.3-0.6-0.4-0.7-0.7c0.1,0.1,0.3,0.1,0.4,0.3c0.3,0.1,0.4,0.4,0.6,0.6
	C19.7,8.8,19.9,9,20,9.1c0.3,0.1,0.4,0.3,0.7,0.4c0.3,0.3,0.6,0.4,1,0.6c0.3,0.1,0.4,0.4,0.7,0.7C22.4,10.9,22.4,10.9,22.4,10.9
	L22.4,10.9z"/>
<path class="st0" d="M19.4,5.4c0.1-0.1,0.1-0.4,0.3-0.7c0.3-0.4,0.6-0.9,0.9-1.2c0.1-0.1,0.3-0.1,0.4-0.1c0.6,0.1,1,0.3,1.5,0.3
	c0.1,0,0.1,0.1,0.1,0.1c-0.1,0.1-0.3,0.3-0.4,0.4c-0.3,0.3-0.6,0.7-0.7,1.2c0,0.1,0,0.1,0,0.1c0.1,0,0.1,0,0.1-0.1
	c0.3-0.6,0.6-1,1-1.5c0.1-0.1,0.3-0.1,0.4,0c1.3,0.4,2.5,1,3.6,2.1c0.3,0.3,0.4,0.6,0.6,0.7c0.3,0.4,0,0.9-0.6,1.2
	c-0.4,0.3-0.9,0.3-1.5,0.4c-0.9,0.1-1.9,0.1-2.8,0c-1.2-0.1-2.4-0.3-3.6-0.4c-0.1,0-0.1-0.1-0.3-0.1L19.4,5.4z"/>
<path class="st1" d="M1.6,3.9c1,0,1.9,0,3-0.1C5.4,3.6,5.8,3.4,6.4,3C6.7,2.7,7,2.5,7.3,2.4c0.6-0.3,1-0.4,1.6-0.6
	c0.3-0.1,0.6-0.1,0.9-0.1c0.4,0.1,0.6,0.3,0.3,0.7C10,2.5,9.9,2.7,9.7,2.8C9.3,3,9,3.1,8.5,3.1C8.2,3.3,7.9,3.3,7.8,3.6
	s0.1,0.9,0.4,1c0.1,0,0.1,0,0.3,0C9,4.8,9.4,4.9,9.9,5.2c0.6,0.4,1,0.3,1.5-0.3c0.1-0.1,0.3-0.4,0.3-0.6C11.9,4,12.2,3.9,12.8,4
	c-0.1,0.3-0.3,0.6-0.6,0.9c0.3-0.1,0.4-0.3,0.7-0.3c0.1,0,0.4,0,0.6,0.3c0.1,0.3-0.1,0.4-0.3,0.6c-0.7,0.4-1.5,0.7-2.1,1.3
	c-0.9,0.9-1.9,0.9-3,0.7C6.9,7.5,5.7,7.3,4.3,6.9C3.3,6.4,2.2,6.6,1,6.7c-0.3,0-0.6,0-1,0"/>
<path class="st0" d="M11.6,4c0,0.1,0.1,0.3,0,0.3C11.6,4.2,11.3,4,11.6,4C11.6,4.2,11.6,4,11.6,4c0.1-0.4,0.9-1.5,1-1.8
	c0.1-0.1-1.2,0-1.6,0c-0.1,0-0.3,0.1-0.4,0.3C10.1,3,9.9,3.3,9.9,3.9C9.9,4,9.7,4,9.7,4c0-0.1-0.1-0.1-0.1-0.1
	C9.7,3.3,9.9,3,10.3,2.5l0.1-0.1c-0.1,0-0.3,0-0.4,0C9.1,2.5,8.2,2.8,7.5,3.3C7,3.6,6.7,3.7,6.4,4.2c-0.3,0.4-0.1,0.7,0.1,1
	c0.3,0.3,0.6,0.4,0.7,0.4C7.9,6,8.5,6.1,9.1,6.3c0.7,0.1,1.3,0.3,2.1,0.3c1.8-1.2,2.4-1.3,2.4-2.1c0,0,0.1-2.2-0.7-2.1h-0.6h-0.1
	c0,0-1.3,1.3-1,4.2"/>
<path class="st2" d="M11.5,6.3c0,0-0.3-4.3,1-4.2h0.6c0,0,0.4-0.3,0.6,0.6c0,0.1,0.1,1.5,0.1,1.5s-0.1,0.6-0.3,0.7L11.5,6.3z"/>
<g>
	<g>
		<path class="st0" d="M13.9,9.1l0.3-1.2c-0.6-0.3-1.2-0.6-1.5-1l0.6-0.7c0.3,0.4,0.7,0.7,1.3,1c0.7,0.3,1.3,0,1.6-0.6
			c0.3-0.6-0.1-1.2-0.7-1.8c-0.9-0.9-1.3-1.5-1-2.5c0.3-0.9,1.2-1.3,2.2-1.2l0.4-1l0.7,0.3l-0.4,1c0.6,0.3,1,0.6,1.2,0.9l-0.6,0.6
			c-0.1-0.3-0.6-0.6-1.2-0.9c-0.9-0.3-1.3,0.1-1.5,0.6c-0.3,0.6,0.1,1,0.9,1.6c0.9,0.9,1.3,1.6,0.9,2.7c-0.3,0.9-1.2,1.5-2.2,1.3
			l-0.4,1.2L13.9,9.1z"/>
	</g>
</g>
</svg>
