<?xml version="1.0" encoding="utf-8"?>
<!-- Generator: Adobe Illustrator 16.0.0, SVG Export Plug-In . SVG Version: 6.00 Build 0)  -->
<!DOCTYPE svg PUBLIC "-//W3C//DTD SVG 1.1//EN" "http://www.w3.org/Graphics/SVG/1.1/DTD/svg11.dtd">
<svg version="1.1" id="Calque_1" xmlns="http://www.w3.org/2000/svg" xmlns:xlink="http://www.w3.org/1999/xlink" x="0px" y="0px"
	 width="137.5px" height="107.2px" viewBox="0 0 137.5 107.2" style="enable-background:new 0 0 137.5 107.2;" xml:space="preserve"
	>
<style type="text/css">
<![CDATA[
	.st0{fill:#6E8934;}
]]>
</style>
<g>
	<path class="st0" d="M120.6,42.8l-7.8-30.7c0,0-5.1-12.1-17.3-12.1S68.8,0,68.8,0S54.3,0,42,0S24.7,12.1,24.7,12.1l-7.8,30.7
		c0,0-14.6-0.8-16.9,13.3v26.4c0,0,0.1,3.3,2.3,3.3s6.2,0,6.2,0L8.8,86v10.5h0.2c1,6.1,6.3,10.7,12.6,10.7s11.6-4.6,12.6-10.7h0.2
		V85.8l28-0.3h12.7l28,0.3l0.2,0.2v10.6h0.2c1,6.1,6.3,10.7,12.6,10.7c6.4,0,11.6-4.6,12.6-10.7h0.2V85.8l0,0c0,0,4,0,6.2,0
		s2.3-3.3,2.3-3.3V56.1C135.3,41.9,120.6,42.8,120.6,42.8z M21.6,75.3c-6.2,0-11.2-5-11.2-11.2c0-6.2,5-11.2,11.2-11.2
		c6.2,0,11.2,5,11.2,11.2C32.8,70.3,27.8,75.3,21.6,75.3z M26.9,42.7L32.5,13c0,0,0.5-3.8,4.6-3.8s29,0,29,0H72c0,0,24.8,0,29,0
		s4.6,3.8,4.6,3.8l5.7,29.7H26.9z M116.1,75.3c-6.2,0-11.2-5-11.2-11.2c0-6.2,5-11.2,11.2-11.2s11.2,5,11.2,11.2
		C127.2,70.3,122.2,75.3,116.1,75.3z"/>
	<circle class="st0" cx="98" cy="23.4" r="8.8"/>
	<circle class="st0" cx="68.8" cy="23.4" r="8.8"/>
	<circle class="st0" cx="39.6" cy="23.4" r="8.8"/>
	<path class="st0" d="M53.5,41.3c0,0-0.9-9.6,14.2-9.6h2.5c15,0,14.2,9.6,14.2,9.6H53.5z"/>
	<path class="st0" d="M82.9,41.3c0,0-0.9-9.6,14.2-9.6h2.5c15,0,14.2,9.6,14.2,9.6H82.9z"/>
	<path class="st0" d="M24.1,41.3c0,0-0.9-9.6,14.2-9.6h2.5c15,0,14.2,9.6,14.2,9.6H24.1z"/>
	<path class="st0" d="M68.1,32.1"/>
</g>
</svg>
