<?xml version="1.0" encoding="utf-8"?>
<!-- Generator: Adobe Illustrator 16.0.0, SVG Export Plug-In . SVG Version: 6.00 Build 0)  -->
<!DOCTYPE svg PUBLIC "-//W3C//DTD SVG 1.1//EN" "http://www.w3.org/Graphics/SVG/1.1/DTD/svg11.dtd">
<svg version="1.1" id="Calque_1" xmlns="http://www.w3.org/2000/svg" xmlns:xlink="http://www.w3.org/1999/xlink" x="0px" y="0px"
	 width="40.7px" height="49px" viewBox="0 0 40.7 49" style="enable-background:new 0 0 40.7 49;" xml:space="preserve">
<style type="text/css">
<![CDATA[
	.st0{fill:none;stroke:#FFFFFF;stroke-linecap:round;stroke-linejoin:round;stroke-miterlimit:10;}
	.st1{fill:#6E8934;}
]]>
</style>
<g>
	<path class="st1" d="M20.3,23.4c24.6,0,20,24,20,24h-40C0.3,47.5-4.3,23.4,20.3,23.4"/>
	<path class="st1" d="M31.6,11.1c0,6.2-5,11.1-11.3,11.1c-6.2,0-11.3-5-11.3-11.1C9.1,5,14.1,0,20.3,0C26.6,0,31.6,5,31.6,11.1z"/>
</g>
<g>
	<path class="st0" d="M14.5,32.5c0,0-2.8,1.5,0,4.3s-0.6,6.3-0.6,6.3s-2.9,2-0.6,4.3"/>
	<path class="st0" d="M28.5,32.5c0,0-2.8,1.5,0,4.3s-0.6,6.3-0.6,6.3s-2.9,2-0.6,4.3"/>
	<g>
		<path class="st0" d="M21.8,18.3c0,0-2.8,1.5,0,4.3c2.8,2.8-0.6,6.3-0.6,6.3s-2.9,2-0.6,4.3"/>
		<path class="st0" d="M19.8,48.5c0,0,2.8-1.5,0-4.3c-2.8-2.8,0.6-6.3,0.6-6.3s2.9-2,0.6-4.3"/>
	</g>
</g>
</svg>
