<?xml version="1.0" encoding="utf-8"?>
<!-- Generator: Adobe Illustrator 19.2.1, SVG Export Plug-In . SVG Version: 6.00 Build 0)  -->
<svg version="1.1" id="Calque_1" xmlns="http://www.w3.org/2000/svg" xmlns:xlink="http://www.w3.org/1999/xlink" x="0px" y="0px"
	 viewBox="0 0 30.1 19.4" style="enable-background:new 0 0 30.1 19.4;" xml:space="preserve">
<style type="text/css">
	.st0{fill:#6E8935;}
	.st1{fill:#FFFFFF;}
	.st2{fill:none;stroke:#6E8935;stroke-width:5.712833e-002;stroke-miterlimit:10;}
	.st3{fill:none;stroke:#FFFFFF;stroke-width:5.712833e-002;stroke-miterlimit:10;}
	.st4{fill:#6E8935;stroke:#FFFFFF;stroke-width:5.712833e-002;stroke-miterlimit:10;}
</style>
<path class="st0" d="M14.1,17.2c-3.6,0.2-9.2,1.2-11.5,1.9c0,0,0,0.1,0,0c1.5-0.2,5.4,1,13.1-1c0,0,0.3,0,0.3,0
	c0.1,0,5.3-0.4,12,1.1c0,0-4.3-1.2-5.6-1.4s-1.2-0.2-1.2-0.2S17.9,17,14.1,17.2z"/>
<polygon class="st0" points="12.8,15.8 12.8,6.4 10.7,6.4 10.7,3.1 5.1,3.1 5.1,15.6 5.1,15.8 "/>
<rect x="8.3" y="7" class="st1" width="1.2" height="1.5"/>
<rect x="8.3" y="9.6" class="st1" width="1.2" height="1.5"/>
<rect x="6.1" y="9.6" class="st1" width="1.2" height="1.5"/>
<rect x="6.1" y="7" class="st1" width="1.2" height="1.5"/>
<rect x="10.5" y="9.6" class="st1" width="1.2" height="1.5"/>
<rect x="10.5" y="7.1" class="st1" width="1.2" height="1.5"/>
<rect x="10.5" y="12.3" class="st1" width="1.2" height="1.5"/>
<rect x="6.2" y="12.3" class="st1" width="2.7" height="3.5"/>
<polygon class="st0" points="12.9,15.8 12.9,8.4 15,8.4 15,5.8 20.7,5.8 20.7,15.6 20.7,15.8 "/>
<rect x="16.1" y="7" class="st1" width="1.3" height="1.5"/>
<rect x="16.1" y="9.6" class="st1" width="1.3" height="1.5"/>
<rect x="18.4" y="9.6" class="st1" width="1.3" height="1.5"/>
<rect x="18.4" y="7" class="st1" width="1.3" height="1.5"/>
<rect x="6.1" y="4.4" class="st1" width="1.3" height="1.5"/>
<rect x="8.3" y="4.4" class="st1" width="1.3" height="1.5"/>
<rect x="13.9" y="9.6" class="st1" width="1.3" height="1.5"/>
<rect x="13.9" y="12.3" class="st1" width="1.3" height="1.5"/>
<rect x="16.8" y="12.3" class="st1" width="2.7" height="3.5"/>
<path class="st0" d="M14,1.6c0,0.6,0,1.2,0,1.8c-0.2,0-0.4,0-0.6,0v0c0,0,0,0,0,0c0,0,0,0,0,0c0,0,0.1-0.1,0.1-0.1
	c-0.1-0.1-0.2-0.2-0.3-0.3v0.4c0,0,0,0-0.1,0V1.3c-0.1,0-0.1,0-0.2,0c-0.3-0.1-0.6-0.1-0.9-0.2c-0.8-0.2-1.5-0.3-2.3-0.5
	C9.4,0.6,9.1,0.5,8.8,0.4c-0.2,0-0.2,0-0.2,0.2c0,0.5,0,1.1,0,1.6c0,0,0,0,0,0c0-0.5,0-1.1,0-1.6c0-0.1,0-0.1,0-0.2c0,0,0,0,0,0
	c0,0,0,0,0,0c0,0-0.1,0-0.1,0c0,0-0.1-0.1-0.1-0.1c0,0,0.1-0.1,0.1-0.1c0.1,0,0.1,0,0.2,0C8.8,0.2,9,0.1,9.3,0c0,0,0,0,0.1,0
	c0.1,0,0.3,0.1,0.4,0.1c0.5,0,0.9,0.1,1.4,0.1c0,0,0.1,0,0.1,0c0.1,0,0.1,0,0.2,0c0,0,0,0.1,0,0.1c0,0-0.1,0-0.1,0
	c-0.1,0-0.1,0-0.2,0c-0.2,0-0.5,0-0.7-0.1c-0.2,0-0.4,0-0.5-0.1c0.4,0.1,0.8,0.2,1.2,0.3c0.5,0.1,1,0.2,1.5,0.3c0,0,0.1,0.1,0.1,0.1
	c0.1,0.1,0.1,0.2,0.2,0.4C13,1.2,13,1.1,13,1c0,0,0-0.1,0-0.1c0-0.1,0.1-0.1,0.1-0.2c0-0.2,0-0.3,0.1-0.5c0,0,0-0.1,0-0.1
	c0,0,0-0.1,0-0.1c0,0,0,0,0,0c0,0,0,0.1,0,0.1c0,0.2,0,0.5,0.1,0.7c0,0,0,0,0,0c0,0,0,0.1,0,0.1c0,0.1,0,0.3,0,0.4
	c0.1,0,0.2,0,0.2-0.2c0,0,0-0.1,0-0.1c0,0,0.1,0,0.1,0c0,0,0,0.1,0,0.1c0,0,0,0.1,0,0.1c0,0,0.1,0,0.1,0c0,0,0.1,0,0.1,0
	c0,0,0.1,0,0.1,0.1c0,0,0,0.1,0,0.1C14,1.5,14,1.6,14,1.6z M8.8,0.2c0.1,0.2,0.2,0.1,0.3-0.1C9,0.2,8.9,0.2,8.8,0.2z M9.2,0.1
	C9.1,0.2,9,0.3,8.9,0.4c0.2,0,0.3,0.1,0.5,0.1C9.3,0.4,9.3,0.2,9.2,0.1z M9.8,0.2c-0.2,0-0.3-0.1-0.5-0.1c0,0,0,0,0,0
	c0.1,0.1,0.1,0.2,0.2,0.4C9.6,0.4,9.7,0.3,9.8,0.2C9.8,0.2,9.8,0.2,9.8,0.2z M9.5,0.5c0.2,0,0.3,0.1,0.5,0.1C10,0.5,9.9,0.4,9.8,0.3
	C9.7,0.3,9.6,0.4,9.5,0.5z M9.9,0.3C9.9,0.3,9.9,0.3,9.9,0.3c0,0.1,0.1,0.3,0.2,0.4c0.1-0.1,0.2-0.2,0.3-0.3
	C10.3,0.3,10.1,0.3,9.9,0.3z M10.2,0.7c0.2,0,0.4,0.1,0.6,0.1c-0.1-0.2-0.2-0.3-0.2-0.4C10.4,0.5,10.3,0.6,10.2,0.7z M11.1,0.5
	c-0.2,0-0.3-0.1-0.5-0.1c0.1,0.1,0.1,0.3,0.2,0.4C10.9,0.7,11,0.6,11.1,0.5L11.1,0.5z M10.9,0.8c0.2,0,0.4,0.1,0.6,0.1
	c-0.1-0.1-0.2-0.3-0.2-0.4C11.1,0.6,11,0.7,10.9,0.8z M11.2,0.5c0.1,0.2,0.2,0.3,0.2,0.4c0.1-0.1,0.2-0.2,0.3-0.3
	C11.6,0.6,11.4,0.6,11.2,0.5z M11.6,1c0.2,0,0.4,0.1,0.5,0.1c0,0,0,0,0,0C12,0.9,12,0.8,11.9,0.7C11.8,0.8,11.7,0.8,11.6,1z
	 M11.9,0.7c0.1,0.1,0.1,0.3,0.2,0.4c0.1-0.1,0.2-0.2,0.3-0.3C12.3,0.7,12.1,0.7,11.9,0.7z M12.6,0.8C12.6,0.8,12.5,0.8,12.6,0.8
	c-0.2,0.1-0.3,0.1-0.4,0.3c0.2,0,0.4,0.1,0.6,0.1C12.7,1.1,12.7,0.9,12.6,0.8z M13.4,3.3V2.7c-0.1,0.1-0.2,0.2-0.3,0.3
	C13.2,3.1,13.2,3.2,13.4,3.3z M13.4,2.7c-0.1-0.1-0.2-0.2-0.3-0.3v0.6C13.2,2.8,13.3,2.8,13.4,2.7z M13.4,2.6V2.1
	c-0.1,0.1-0.2,0.2-0.3,0.3C13.2,2.4,13.2,2.5,13.4,2.6z M13.1,1.7c0.1-0.1,0.2-0.2,0.3-0.3C13.1,1.4,13,1.3,13.1,1.7z M13.1,1.7
	c0.1,0.1,0.2,0.2,0.3,0.3V1.4C13.3,1.5,13.2,1.6,13.1,1.7z M13.2,0.3C13.2,0.3,13.2,0.3,13.2,0.3c0,0.2-0.1,0.3-0.1,0.5h0.2
	C13.3,0.6,13.2,0.5,13.2,0.3z M13.4,0.9c-0.1,0-0.2,0-0.3,0.1c0.1,0.2,0.1,0.2,0.3,0.2V0.9z M13.1,1.7v0.5c0.1-0.1,0.2-0.2,0.3-0.3
	C13.3,1.9,13.2,1.8,13.1,1.7z M13.3,3.1L13.3,3.1"/>
<rect x="13.4" y="3.3" class="st0" width="0.6" height="5.1"/>
<rect x="13" y="3.4" class="st0" width="0.1" height="5"/>
<polyline class="st2" points="13.4,3.3 13.1,3.6 13.4,3.9 13.1,4.2 "/>
<polyline class="st2" points="13.4,5.1 13.1,5.4 13.4,5.7 13.1,6 "/>
<polyline class="st2" points="13.4,6.9 13.1,7.2 13.4,7.5 13.1,7.7 "/>
<polyline class="st2" points="13.1,4.2 13.4,4.5 13.1,4.8 13.4,5.1 "/>
<polyline class="st2" points="13.1,6 13.4,6.3 13.1,6.6 13.4,6.9 "/>
<path class="st0" d="M12,5.6C12,5.6,12,5.6,12,5.6C12,5.6,12,5.6,12,5.6C12,5.6,11.9,5.6,12,5.6C11.9,5.6,12,5.7,12,5.6
	C12,5.6,12,5.6,12,5.6C12,5.6,12,5.6,12,5.6C12,5.7,12,5.6,12,5.6C12,5.7,12,5.7,12,5.6C12,5.7,12,5.7,12,5.6L12,5.6
	C12,5.7,12,5.7,12,5.6C12,5.7,12,5.7,12,5.6C12,5.7,12,5.7,12,5.6C12,5.7,12,5.7,12,5.6C11.9,5.7,11.9,5.7,12,5.6
	C12,5.7,12,5.7,12,5.6C11.9,5.7,11.9,5.7,12,5.6C11.9,5.7,11.9,5.7,12,5.6c-0.1,0-0.1,0-0.1,0c0,0,0,0,0,0c0,0,0,0,0,0c0,0,0,0,0,0
	c0,0,0,0,0,0c0,0,0,0,0,0c0,0,0,0,0,0c0,0,0,0-0.1,0c0,0,0,0,0,0c0,0,0,0,0,0c0,0,0,0,0,0c0,0,0,0,0,0c0,0,0,0,0,0c0,0,0,0,0,0
	c0,0,0,0,0,0c0,0,0,0,0,0c0,0,0,0,0,0c0,0,0,0,0,0c0,0,0,0,0,0c0,0,0,0,0,0c0,0,0,0,0,0c0,0,0,0,0,0c0,0,0,0,0,0c0,0,0,0,0,0
	c0,0,0,0,0,0c0,0,0,0,0,0c0,0,0,0,0,0c0,0,0,0,0,0c0,0,0,0,0,0c0,0,0,0,0,0c0,0,0,0,0,0c0,0,0,0,0,0c0,0,0,0,0,0c0,0,0,0,0,0
	c0,0,0,0,0,0c0,0,0,0,0,0c0,0,0,0,0,0c0,0,0,0,0,0c0,0,0,0,0,0c0,0,0,0,0,0c0,0,0,0,0,0c0,0,0,0,0,0c0,0,0,0,0,0c0,0,0,0,0,0
	c0,0,0,0,0,0c0,0,0,0,0,0c0,0,0,0,0,0c0,0,0,0,0,0c0,0,0,0,0,0c0,0,0,0,0,0c0,0,0,0,0,0c0,0,0,0,0,0c0,0,0,0,0,0c0,0,0,0,0,0
	c0,0,0,0,0,0c0,0,0,0,0,0c0,0,0,0,0,0c0,0,0,0,0,0c0,0,0,0,0,0c0,0,0,0,0,0c0,0,0,0,0,0c0,0,0,0,0,0c0,0,0,0,0,0c0,0,0,0,0,0
	c0,0,0,0,0,0c0,0,0,0,0,0c0,0,0,0,0,0c0,0,0,0,0,0c0,0,0,0,0,0c0,0,0,0,0,0c0,0,0,0,0,0l0,0c0,0,0,0,0,0c0,0,0,0,0,0c0,0,0,0,0,0
	c0,0,0,0,0,0c0,0,0,0,0,0c0,0,0,0,0,0c0,0,0,0,0,0c0,0,0,0,0,0c0,0,0,0,0,0c0,0,0,0,0,0c0,0,0,0,0,0c0,0,0,0,0,0c0,0,0,0,0,0
	c0,0,0,0,0,0c0,0,0,0,0,0c0,0,0,0,0,0c0,0,0,0,0,0c0,0,0,0,0,0l0,0c0,0,0,0,0,0c0,0,0,0,0,0c0,0,0,0,0,0c0,0,0,0,0,0c0,0,0,0,0,0
	c0,0,0,0,0,0c0,0,0,0,0,0c0,0,0,0,0,0c0,0,0,0,0,0c0,0,0,0,0,0c0,0,0,0,0,0c0,0,0,0,0,0c0,0,0,0,0,0c0,0,0,0,0,0c0,0,0,0,0,0
	c0,0,0,0,0,0c0,0,0,0,0,0c0,0,0,0,0,0c0,0,0,0,0,0c0,0,0,0,0,0c0,0,0,0,0,0c0,0,0,0,0,0c0,0,0,0,0,0c0,0,0,0,0,0c0,0,0,0,0,0
	c0,0.1,0,0.1,0,0.2c0,0,0,0.1,0,0.1c0,0.1,0,0.1,0,0.2c0,0,0,0.1,0,0.1c0,0,0,0,0,0c0,0,0,0-0.1,0c0,0,0,0,0,0c0,0,0-0.1,0-0.1
	c0-0.1,0-0.1,0-0.2c0,0,0-0.1,0-0.1c0,0,0,0,0-0.1c0,0,0-0.1,0-0.1c0,0,0,0,0,0c0,0,0,0,0,0c0,0,0,0,0,0c0,0,0,0,0,0c0,0,0,0,0,0
	c0,0,0,0,0,0c0,0,0,0,0,0c0,0,0,0,0,0c0,0,0,0,0,0c0,0,0,0,0,0c0,0,0,0,0,0c0,0,0,0,0,0c0,0,0,0,0,0c0,0,0,0,0,0c0,0,0,0-0.1,0
	c0,0,0,0,0,0c0,0,0,0,0,0c0,0,0,0,0,0c0,0,0,0,0,0c0,0,0,0,0,0c0,0,0,0,0,0c0,0,0,0,0,0c0,0,0,0,0,0c0,0,0,0,0,0c0,0,0,0,0,0
	c0,0,0,0,0,0c0,0,0,0,0,0c0,0,0,0,0,0c0,0,0,0,0,0c0,0,0,0,0,0c0,0,0,0,0,0c0,0,0,0,0,0c0,0,0,0,0,0c0,0,0,0,0,0c0,0,0,0,0,0
	c0,0,0,0,0,0c0,0,0,0,0,0c0,0,0,0,0,0c0,0,0,0,0,0c0,0,0,0,0,0c0,0,0,0,0,0c0,0,0,0,0,0c0,0,0,0,0,0c0,0,0,0,0,0c0,0,0,0,0,0
	c0,0,0,0,0,0c0,0,0,0,0,0c0,0,0,0,0,0c0,0,0,0,0,0c0,0,0,0,0,0c0,0,0,0,0,0c0,0,0,0,0,0c0,0,0,0,0,0c0,0,0,0,0,0c0,0,0,0,0,0
	c0,0,0,0,0,0c0,0,0,0,0,0c0,0,0,0,0,0c0,0,0,0,0,0c0,0,0,0,0,0c0,0,0,0,0,0c0,0,0,0,0,0c0,0,0,0,0,0c0,0,0,0,0,0c0,0,0,0,0,0
	c0,0,0,0,0,0c0,0,0,0,0,0c0,0,0,0,0,0c0,0,0,0,0,0c0,0,0,0,0,0c0,0,0,0,0,0c0,0,0,0,0,0c0,0,0,0,0,0c0,0,0,0,0,0c0,0,0,0,0,0
	c0,0,0,0,0,0c0,0,0,0,0,0c0,0,0,0,0,0c0,0,0,0,0,0c0,0,0,0,0,0c0,0,0,0,0,0c0,0,0,0,0,0c0,0,0,0,0,0c0,0,0,0,0,0c0,0,0,0,0,0
	c0,0,0,0,0,0c0,0,0,0,0,0c0,0,0,0,0,0c0,0,0,0,0,0c0,0,0,0,0,0c0,0,0,0,0,0c0,0,0,0,0,0c0,0,0,0,0,0c0,0,0,0,0,0c0,0,0,0,0,0
	c0,0,0,0,0,0c0,0,0,0,0,0c0,0,0,0,0,0c0,0,0,0,0,0c0,0,0,0,0,0c0,0,0,0,0,0c0,0,0,0,0,0c0,0,0,0,0,0c0,0,0,0,0,0c0,0,0,0,0,0
	c0,0,0,0,0,0c0,0,0,0,0,0c0,0,0,0,0,0c0,0,0,0,0,0c0,0,0,0,0,0c0,0,0,0,0,0c0,0,0,0,0,0c0,0,0,0,0,0c0,0,0,0,0,0c0,0,0,0,0,0
	c0,0,0,0,0,0c0,0,0,0,0,0c0,0,0,0,0,0c0,0,0,0,0,0c0,0,0,0,0,0c0,0,0,0,0,0c0,0,0,0,0,0c0,0,0,0,0,0c0,0,0,0,0,0c0,0,0,0,0,0
	c0,0,0,0,0,0c0,0,0,0,0,0c0,0,0,0,0,0c0,0,0,0,0,0c0,0,0,0,0,0c0,0,0,0,0,0c0,0,0,0,0,0c0,0,0,0,0,0c0,0,0,0,0,0c0,0,0,0,0,0
	c0,0,0,0,0,0c0,0,0,0,0,0c0,0,0,0,0,0c0,0,0,0,0,0c0,0,0,0,0,0c0,0,0,0,0,0c0,0,0,0,0,0c0,0,0,0,0,0c0,0,0,0,0,0c0,0,0,0,0,0
	c0,0,0,0,0,0c0,0,0,0,0,0c0,0,0,0,0,0c0,0,0,0,0,0c0,0,0,0,0,0c0,0,0,0,0,0c0,0,0,0,0,0c0,0,0,0,0,0c0,0,0,0,0,0c0,0,0,0,0,0
	c0,0,0,0,0,0c0,0,0,0,0,0c0,0,0,0,0,0c0,0,0,0,0,0c0,0,0,0,0,0c0,0,0,0,0,0c0,0,0,0,0,0c0,0,0,0,0,0c0,0,0,0,0,0c0,0,0,0,0,0
	c0,0,0,0,0,0c0,0,0,0,0,0c0,0,0,0,0,0c0,0,0,0,0,0c0,0,0,0,0,0c0,0,0,0,0,0c0,0,0,0,0,0c0,0,0,0,0,0c0,0,0,0,0,0c0,0,0,0,0,0
	c0,0,0,0,0,0c0,0,0,0,0,0c0,0,0,0,0,0c0,0,0,0,0,0c0,0,0,0,0,0c0,0,0,0,0,0c0,0,0,0,0,0c0,0,0,0,0,0c0,0,0,0,0,0c0,0,0,0,0,0
	c0,0,0,0,0,0c0,0,0,0,0,0c0,0,0,0,0,0c0,0,0,0,0,0c0,0,0,0,0,0c0,0,0,0,0,0c0,0,0,0,0,0c0,0,0,0,0,0c0,0,0,0,0,0c0,0,0,0,0,0
	c0,0,0,0,0,0c0,0,0,0,0,0c0,0,0,0,0,0c0,0,0,0,0,0c0,0,0,0,0,0c0,0,0,0,0,0c0,0,0,0,0,0c0,0,0,0,0,0c0,0,0,0,0,0c0,0,0,0,0,0
	c0,0,0,0,0,0c0,0,0,0,0,0c0,0,0,0,0,0c0,0,0,0,0,0c0,0,0,0,0,0c0,0,0,0,0,0c0,0,0,0,0,0c0,0,0,0,0,0c0,0,0,0,0,0c0,0,0,0,0,0
	c0,0,0,0,0,0c0,0,0,0,0,0c0,0,0,0,0,0c0,0,0,0,0,0c0,0,0,0,0,0c0,0,0,0,0,0c0,0,0,0,0,0c0,0,0,0,0,0c0,0,0,0,0,0c0,0,0,0,0,0
	c0,0,0,0,0,0c0,0,0,0,0,0c0,0,0,0,0,0c0,0,0,0,0,0c0,0,0,0,0,0c0,0,0,0,0,0c0,0,0,0,0,0c0,0,0,0,0,0c0,0,0,0,0,0c0,0,0,0,0,0
	c0,0,0,0,0,0c0,0,0,0,0,0c0,0,0,0,0,0c0,0,0,0,0,0c0,0,0,0,0,0c0,0,0,0,0,0c0,0,0,0,0,0c0,0,0,0,0,0c0,0,0,0,0,0c0,0,0,0,0,0
	c0,0,0,0,0,0c0,0,0,0,0,0c0,0,0,0,0,0c0,0,0,0,0,0c0,0,0,0,0,0c0,0,0,0,0,0c0,0,0,0,0,0c0,0,0,0,0,0c0,0,0,0,0,0c0,0,0,0,0,0
	c0,0,0,0,0,0c0,0,0,0,0,0c0,0,0,0,0,0c0,0,0,0,0,0c0,0,0,0,0,0c0,0,0,0,0,0c0,0,0,0,0,0c0,0,0,0,0,0c0,0,0,0,0,0c0,0,0,0,0,0
	c0,0,0,0,0,0c0,0,0,0,0,0c0,0,0,0,0,0c0,0,0,0,0,0c0,0,0,0,0,0c0,0,0,0,0,0c0,0,0,0,0,0c0,0,0,0,0,0c0,0,0,0,0,0c0,0,0,0,0,0
	c0,0,0,0,0,0c0,0,0,0,0,0c0,0,0,0,0,0c0,0,0,0,0,0c0,0,0,0,0,0c0,0,0,0,0,0c0,0,0,0,0,0c0,0,0,0,0,0c0,0,0,0,0,0c0,0,0,0,0,0
	c0,0,0,0,0,0c0,0,0,0,0,0c0,0,0,0,0,0c0,0,0,0,0,0c0,0,0,0,0,0c0,0,0,0,0,0c0,0,0,0,0,0c0,0,0,0,0,0c0,0,0,0,0,0c0,0,0,0,0,0
	c0,0,0,0,0,0c0,0,0,0,0,0c0,0,0,0,0,0c0,0,0,0,0,0c0,0,0,0,0,0c0,0,0,0,0,0c0,0,0,0,0,0c0,0,0,0,0,0c0,0,0,0,0,0c0,0,0,0,0,0
	c0,0,0,0,0,0c0,0,0,0,0,0c0,0,0,0,0,0c0,0,0,0,0,0c0,0,0,0,0,0c0,0,0,0,0,0c0,0,0,0,0,0c0,0,0,0,0,0c0,0,0,0,0,0c0,0,0,0,0,0
	c0,0,0,0,0,0c0,0,0,0,0,0c0,0,0,0,0,0c0,0,0,0,0,0c0,0,0,0,0,0c0,0,0,0,0,0c0,0,0,0,0,0c0,0,0,0,0,0c0,0,0,0,0,0c0,0,0,0,0,0
	c0,0,0,0,0,0c0,0,0,0,0,0c0,0,0,0,0,0c0,0,0,0,0,0c0,0,0,0,0,0c0,0,0,0,0,0c0,0,0,0,0,0c0,0,0,0,0,0c0,0,0,0,0,0c0,0,0,0,0,0
	c0,0,0,0,0,0c0,0,0,0,0,0c0,0,0,0,0,0c0,0,0,0,0,0c0,0,0,0,0,0c0,0,0,0,0,0c0,0,0,0,0,0c0,0,0,0,0,0c0,0,0,0,0,0c0,0,0,0,0,0
	c0,0,0,0,0,0c0,0,0,0,0,0c0,0,0,0,0,0c0,0,0,0,0,0c0,0,0,0,0,0c0,0,0,0,0,0c0,0,0,0,0,0c0,0,0,0,0,0c0,0,0,0,0,0c0,0,0,0,0,0
	c0,0,0,0,0,0c0,0,0,0,0,0c0,0,0,0,0,0c0,0,0,0,0,0c0,0,0,0,0,0c0,0,0,0,0,0c0,0,0,0,0,0c0,0,0,0,0,0c0,0,0,0,0,0c0,0,0,0,0,0
	c0,0,0,0,0,0c0,0,0,0,0.1,0c0,0,0,0,0,0c0,0,0,0,0,0c0,0,0,0,0,0l0,0c0,0,0,0,0,0c0,0,0,0,0,0c0,0,0,0,0,0c0,0,0,0,0,0c0,0,0,0,0,0
	c0,0,0,0,0,0c0,0,0,0,0,0c0,0,0,0,0,0c0,0,0,0,0,0c0,0,0,0,0,0c0,0,0,0,0,0c0,0,0,0,0,0c0,0,0,0,0,0c0,0,0,0,0,0c0,0,0,0,0,0
	c0,0,0,0,0,0c0,0,0,0,0,0c0,0,0,0,0,0c0,0,0,0,0,0c0,0,0,0,0,0c0,0,0,0,0,0c0,0,0,0,0,0c0,0,0,0,0,0c0,0,0,0,0,0c0,0,0,0,0,0
	c0,0,0,0,0,0c0,0,0,0,0,0c0,0,0,0,0,0c0,0,0,0,0,0c0,0,0,0,0,0c0,0,0,0,0,0c0,0,0,0,0,0c0,0,0,0,0,0c0,0,0,0,0,0c0,0,0,0,0,0
	c0,0,0,0,0,0c0,0,0,0,0,0c0,0,0,0,0,0c0,0,0,0,0,0c0,0,0,0,0,0c0,0,0,0,0,0c0,0,0,0,0,0c0,0,0,0,0,0c0,0,0,0,0,0c0,0,0,0,0,0
	c0,0,0,0,0,0c0,0,0,0,0,0c0,0,0,0,0,0c0,0,0,0,0,0c0,0,0,0,0,0c0,0,0,0,0,0c0,0,0,0,0,0c0,0,0,0,0,0c0,0,0,0,0,0c0,0,0,0,0,0
	c0,0,0,0,0,0c0,0,0,0,0,0c0,0,0,0,0,0c0,0,0,0,0,0c0,0,0,0,0,0c0,0,0,0,0,0c0,0,0,0,0,0c0,0,0,0,0,0c0,0,0,0,0,0c0,0,0,0,0,0
	c0,0,0,0,0,0c0,0,0,0,0,0c0,0,0,0,0,0c0,0,0,0,0,0c0,0,0,0,0,0c0,0,0,0,0,0c0,0,0,0,0,0c0,0,0,0,0,0c0,0,0,0,0,0c0,0,0,0,0,0
	c0,0,0,0,0,0c0,0,0,0,0,0c0,0,0,0,0,0c0,0,0,0,0,0c0,0,0,0,0,0c0,0,0,0,0,0c0,0,0,0,0,0c0,0,0,0,0,0c0,0,0,0,0,0c0,0,0,0,0,0
	c0,0,0,0,0,0c0,0,0,0,0,0c0,0,0,0,0,0c0,0,0,0,0,0c0,0,0,0,0,0c0,0,0,0,0,0c0,0,0,0,0,0c0,0,0,0,0,0c0,0,0,0,0,0c0,0,0,0,0,0
	c0,0,0,0,0,0c0,0,0,0,0,0c0,0,0,0,0,0c0,0,0,0,0,0c0,0,0,0,0,0c0,0,0,0,0,0c0,0,0,0,0,0c0,0,0,0,0,0c0,0,0,0,0,0c0,0,0,0,0,0
	c0,0,0,0,0,0c0,0,0,0,0,0c0,0,0,0,0,0c0,0,0,0-0.1,0c0,0,0,0,0,0c0,0,0,0,0,0c0,0,0,0,0,0c0,0,0,0,0,0c0,0,0,0,0,0c0,0,0,0,0,0
	c0,0,0,0,0,0c0,0,0,0,0,0c0,0,0,0,0,0c0,0,0,0,0,0c0,0,0,0,0,0c0,0,0,0,0,0c0,0,0,0,0,0c0,0,0,0,0,0c0,0,0,0,0,0c0,0,0,0,0,0
	c0,0,0,0,0,0c0,0,0,0,0,0c0,0,0,0,0,0c0,0,0,0,0,0c0,0,0,0,0,0c0,0,0,0,0,0c0,0,0,0,0,0c0,0,0,0,0,0c0,0,0,0,0,0c0,0,0,0,0,0
	c0,0,0,0,0,0c0,0,0,0,0,0c0,0,0,0,0,0c0,0,0,0,0,0c0,0,0,0,0,0c0,0,0,0,0,0c0,0,0,0,0,0c0,0,0,0,0,0c0,0,0,0,0,0c0,0,0,0,0,0
	c0,0,0,0,0,0c0,0,0,0,0,0c0,0,0,0,0,0c0,0,0,0,0,0c0,0,0,0,0,0c0,0,0,0,0,0c0,0,0,0,0,0c0,0,0,0,0,0c0,0,0,0,0,0c0,0,0,0,0,0
	c0,0,0,0,0,0c0,0,0,0,0,0c0,0,0,0,0,0c0,0,0,0,0,0c0,0,0,0,0,0c0,0,0,0,0,0c0,0,0,0,0,0c0,0,0,0,0,0c0,0,0,0,0,0c0,0,0,0,0,0
	c0,0,0,0,0,0c0,0,0,0,0,0c0,0,0,0,0,0c0,0,0,0,0,0c0,0,0,0,0,0C12,5.5,12,5.5,12,5.6C12,5.5,12,5.5,12,5.6C12,5.5,12,5.5,12,5.6
	C12,5.5,12,5.5,12,5.6C12.1,5.5,12.1,5.5,12,5.6C12.1,5.5,12.1,5.5,12,5.6C12.1,5.5,12.1,5.5,12,5.6C12.1,5.5,12.1,5.5,12,5.6
	C12.1,5.5,12.1,5.5,12,5.6C12.1,5.5,12.1,5.5,12,5.6C12.1,5.5,12.1,5.5,12,5.6c0.1-0.1,0.1-0.1,0.1-0.1c0,0,0,0,0,0c0,0,0,0,0,0
	c0,0,0,0,0,0c0,0,0,0,0,0c0,0,0,0,0,0c0,0,0,0,0,0c0,0,0,0,0,0c0,0,0,0,0,0c0,0,0,0,0,0c0,0,0,0,0,0c0,0,0,0,0,0c0,0,0,0,0,0
	c0,0,0,0,0,0c0,0,0,0,0,0c0,0,0,0,0,0c0,0,0,0,0,0l0,0c0,0,0,0,0,0c0,0,0,0,0,0c0,0,0,0,0,0c0,0,0,0,0,0c0,0,0,0,0,0c0,0,0,0,0,0
	c0,0,0,0,0,0c0,0,0,0,0,0c0,0,0,0,0,0c0,0,0,0,0,0c0,0,0,0,0,0c0,0,0,0,0,0C12.1,5.7,12.1,5.6,12,5.6c0.1,0,0.1,0.1,0.1,0.1
	C12.1,5.7,12.1,5.7,12,5.6C12.1,5.7,12.1,5.7,12,5.6C12.1,5.7,12.1,5.7,12,5.6C12.1,5.7,12.1,5.7,12,5.6C12.1,5.7,12.1,5.7,12,5.6
	C12.1,5.7,12.1,5.7,12,5.6C12.1,5.7,12.1,5.7,12,5.6C12.1,5.6,12.1,5.6,12,5.6C12.1,5.6,12.1,5.6,12,5.6C12.1,5.6,12.1,5.6,12,5.6
	C12.1,5.6,12.1,5.6,12,5.6C12.1,5.6,12.1,5.6,12,5.6C12.1,5.6,12.1,5.6,12,5.6C12.1,5.6,12.1,5.6,12,5.6C12.1,5.6,12.1,5.6,12,5.6
	C12,5.6,12,5.6,12,5.6C12,5.6,12,5.6,12,5.6C12,5.6,12,5.6,12,5.6C12,5.6,12,5.6,12,5.6C12,5.6,12,5.6,12,5.6C12,5.6,12,5.6,12,5.6
	C12,5.6,12,5.6,12,5.6C12,5.6,12,5.6,12,5.6C12,5.6,12,5.6,12,5.6z"/>
<path class="st0" d="M19.4,17.1C19.3,17.1,19.3,17.1,19.4,17.1c-0.1,0.1-0.1,0.1-0.2,0.1c0,0,0,0,0,0c0,0,0,0,0,0c0,0,0.1,0,0.1,0.1
	c0,0,0,0,0,0c0,0,0,0,0,0c0,0,0,0.1,0,0.1c0,0,0,0,0.1,0.1c0,0,0,0-0.1,0c0,0,0,0,0,0.1c0,0,0,0,0,0c0,0,0,0,0,0.1c0,0,0.1,0,0.1,0
	c0,0,0,0,0,0.1c0,0,0,0,0,0c0,0,0,0,0-0.1c0,0,0,0,0,0c0,0,0,0,0,0c0,0,0.1,0,0.1,0c0,0,0-0.1,0-0.1c0,0,0,0.1,0,0c0,0,0,0,0-0.1
	c0,0,0,0,0.1,0c0,0,0,0,0,0c0,0-0.1,0-0.1,0c0,0,0,0,0,0c0,0,0,0,0,0c0,0,0,0,0,0c0,0,0,0,0,0.1c0,0,0,0-0.1,0c0,0,0,0,0,0
	c0,0,0.1,0.1,0,0.1c0,0,0,0,0,0c0,0,0,0,0,0c0,0,0-0.1,0-0.1c0,0,0,0,0,0c0,0,0-0.1,0-0.1c0,0,0,0.1,0.1,0.1c0,0,0-0.1,0-0.1
	c0,0,0,0,0,0c0,0,0.1,0,0.1,0c0,0,0,0,0,0c0,0.1,0,0.1,0,0.2c0,0,0,0,0,0c0,0,0,0,0,0c0,0,0,0.1,0.1,0.1c0,0-0.1,0-0.1,0
	c-0.1,0-0.1,0.1-0.1,0.1c0,0,0,0,0,0V18c0,0,0,0-0.1,0c0,0,0,0,0,0c0,0,0,0,0-0.1c-0.1,0-0.1,0.1-0.2,0.1c0,0.1,0,0.1,0,0.1
	c0,0-0.1-0.1-0.1-0.1c0,0,0,0,0,0.1c0,0,0,0.1,0,0.1c0,0,0,0.1,0,0.1c0,0,0,0,0,0c0,0,0,0,0,0c0,0,0.1,0,0.1,0c0,0,0,0,0,0
	c0,0,0,0,0.1,0c0,0,0,0,0,0c0,0,0,0,0,0c0,0,0,0,0,0c0.1,0,0.1,0,0.2,0l0,0c0,0,0,0,0,0c0,0,0,0,0.1-0.1c0,0,0.1-0.1,0.1-0.1
	c0,0,0,0.1,0,0.1c0,0,0,0,0,0c0,0,0,0.1,0.1,0.1c0,0,0,0,0,0c0,0,0,0,0,0c0,0,0,0,0,0c0,0,0,0,0-0.1c0,0,0,0,0,0c0,0,0,0,0-0.1
	c0,0,0,0,0,0c0,0,0,0,0,0c0,0,0,0,0,0c0,0,0,0,0,0c0,0,0-0.1,0-0.1c0,0,0,0,0,0c0,0,0,0,0,0c0,0,0,0,0,0c0,0,0,0,0,0c0,0,0,0,0,0
	c0,0,0,0,0,0c0,0,0,0,0,0c0,0,0,0.1,0,0.1c0,0,0.1,0.1,0.1,0c0,0,0,0,0-0.1c0,0,0,0,0.1,0c0,0,0,0.1,0.1,0.1c0,0,0,0,0,0
	c0,0,0,0,0.1,0c0,0,0,0,0,0c0,0-0.1,0-0.1,0c0,0,0,0-0.1,0c0,0,0,0,0,0c0,0,0,0,0,0c0.5,0,1,0.1,1.6,0.1c0.1,0,0.2,0,0.3,0
	c0,0,0,0,0,0c0,0,0-0.1,0.1,0c0,0,0,0,0,0c0,0,0,0,0,0c0.1,0,0.1,0,0.2,0c0,0,0.1,0,0.1,0c0,0,0.1,0,0.1,0c0,0,0,0,0,0
	c0.1,0,0.1,0,0.1,0.1c0,0,0,0,0.1,0c0,0,0,0,0,0c0,0,0,0,0.1,0c0,0,0,0,0-0.1c0,0,0,0,0,0c0,0,0,0,0,0.1c0,0,0,0-0.1,0
	c0,0,0,0-0.1-0.1c0,0,0,0,0,0c0,0,0,0,0,0c0,0-0.1,0,0-0.1c0,0,0,0,0,0c0,0,0,0,0-0.1c0.1,0,0.1,0,0.2,0.1c0,0,0,0,0,0
	c0,0,0,0,0.1,0c0,0,0.1,0,0.1,0c0,0,0.1,0,0.1,0c0,0,0,0.1,0.1,0c0,0,0.1,0,0.1,0c0,0,0,0.1,0.1,0c0,0,0,0,0,0c0,0,0,0,0,0
	c0,0,0,0,0,0c0,0,0,0,0,0c0,0,0.1,0,0.1,0c0,0,0.1,0,0.1,0c0,0,0,0,0,0c0,0,0,0,0,0c0,0,0,0,0,0c0,0,0,0,0,0c0,0,0,0,0,0
	c0,0,0,0,0.1,0c0,0,0,0,0,0c0,0-0.1,0-0.1-0.1c0,0,0,0,0,0c-0.1,0-0.1,0-0.1,0c0,0,0,0-0.1,0c0,0,0,0,0.1,0c0,0,0.1,0,0.1-0.1
	c0,0,0.1,0,0.1,0c0,0,0,0,0,0c0,0,0,0,0,0c0,0,0,0,0,0c0-0.1,0.1-0.3,0.3-0.3c0,0,0,0,0,0c0,0-0.1-0.1-0.1,0c0,0,0,0,0,0
	c0,0,0,0,0,0c0,0,0,0,0,0c0,0,0-0.1-0.1,0c0,0,0,0,0,0c0,0,0,0-0.1,0c0,0,0,0,0-0.1c0,0,0,0.1,0,0.1c0,0,0,0,0,0
	c0-0.1,0-0.1-0.1-0.2c0,0,0,0,0-0.1c0,0,0,0,0,0c0,0,0,0,0.1,0c0,0,0,0.1,0,0.1c0,0,0,0,0,0c0,0,0,0,0.1-0.1c0,0,0,0,0.1,0
	c0,0,0.1,0,0.1,0c0,0,0,0,0,0c0,0,0,0,0,0c0,0,0,0,0,0c0,0,0,0,0.1,0.1l0,0c0,0,0,0,0-0.1c0,0,0,0,0,0c0,0,0,0,0,0
	c0,0,0-0.1,0.1-0.1c0,0,0,0.1,0,0.1c0,0,0.1,0,0.1,0c0,0,0,0,0,0c0,0,0,0,0,0c0,0,0-0.1,0-0.1c0,0,0,0,0,0c0,0,0-0.1,0-0.1
	c0,0,0,0,0,0c0,0,0,0,0,0c0,0,0,0,0,0c0-0.1,0.1,0,0.1-0.1c0,0-0.1,0-0.1-0.1v0c0,0,0,0,0,0c0,0,0,0,0,0.1c0,0,0,0,0,0
	c0,0,0-0.1,0.1-0.1c0,0,0,0,0,0c0,0,0,0,0-0.1c0,0,0,0,0-0.1c0,0,0,0-0.1,0v0c0,0,0,0,0-0.1c0,0,0,0,0,0c0,0,0,0,0,0c0,0,0,0,0,0
	c0,0,0,0,0,0c0,0,0,0,0,0c0,0-0.1,0-0.1,0.1c0,0,0,0,0,0c0,0,0,0,0,0c0,0,0,0,0,0c0,0,0,0,0,0c0,0,0,0.1,0,0V17c0,0,0,0,0,0.1
	c0,0,0,0,0,0c0,0,0,0,0,0c0,0,0-0.1-0.1-0.1c0,0.1-0.1,0.1-0.1,0.1c0,0,0-0.1,0-0.1c0,0,0,0-0.1,0c0,0,0,0,0,0c0,0,0-0.1,0-0.1
	c0.1,0,0.2-0.1,0.2-0.2c0,0-0.1,0.1-0.1,0.1c0,0-0.1,0-0.1,0c0,0,0.1-0.1,0.1-0.1c0,0,0,0,0-0.1c0,0,0,0,0,0c0,0,0,0,0,0
	c0,0,0,0,0,0.1c0,0-0.1,0-0.1,0c0,0,0,0.1,0,0.1c0,0,0,0,0,0c0,0,0-0.1,0.1-0.1c0,0,0,0,0,0c0,0,0,0,0,0c0,0,0,0,0-0.1
	c0-0.1,0-0.1,0.1-0.1c0,0,0,0,0.1,0c0,0,0,0,0,0c0,0,0,0,0,0c0,0,0,0,0,0c0,0,0,0.1,0,0.1c0,0,0,0,0-0.1c0,0,0,0,0,0c0,0,0,0,0,0
	c0,0,0,0,0,0c0,0,0,0,0,0c0,0,0,0,0.1,0c0,0-0.1,0,0-0.1c-0.1,0-0.1,0-0.1-0.1c0,0,0,0,0.1,0c0,0,0,0,0,0c0,0,0.1,0,0.1,0
	c0,0,0,0,0.1,0c0,0,0,0,0,0c0,0,0,0,0,0c0,0,0,0,0-0.1c0,0,0,0,0,0c0,0,0,0,0,0c0,0,0,0,0,0c0,0,0,0,0,0c0,0,0,0,0,0c0,0,0,0,0-0.1
	c0,0,0,0,0,0c0,0,0,0,0,0c0,0,0,0,0,0c0,0,0,0,0,0c0,0,0,0,0,0c0,0,0,0,0,0c0,0,0,0,0,0c0,0-0.1,0-0.1,0c0,0,0,0,0,0c0,0,0,0,0,0
	c0,0,0-0.1,0-0.1h-0.1c0,0,0-0.1,0-0.1c0,0,0-0.1,0-0.1c0,0,0,0,0,0c0,0-0.1,0-0.1,0c0,0,0-0.1,0-0.1c0,0-0.1,0-0.1,0.1
	c0,0,0.1,0,0.1,0c0,0,0,0,0,0c0,0-0.1,0-0.1,0.1c0,0,0,0-0.1,0.1c0,0,0,0.1,0,0.1c0,0,0,0,0,0c0,0,0,0,0,0c0,0,0-0.1,0-0.1
	c0,0,0,0,0,0c0,0,0,0,0.1,0.1c0,0,0,0.1,0,0.1c0,0-0.1,0.1-0.1,0.1c0,0,0,0.1,0,0.1c0,0,0,0,0,0c0,0,0,0,0,0.1c0,0,0,0,0,0
	c0,0,0,0,0,0c0,0,0,0,0-0.1c0,0,0-0.1,0-0.1c0,0,0,0-0.1,0c0,0,0,0,0.1,0c0,0,0,0,0,0c0,0,0,0,0,0c0,0,0,0,0,0c0,0-0.1,0-0.1,0
	c0,0,0,0.1,0,0.1c0,0,0,0-0.1,0c0,0,0,0,0,0.1c0,0,0,0,0,0c0,0,0,0,0,0c0,0,0,0,0,0c0,0,0,0,0,0c0,0.1,0,0.1,0.1,0.1
	c0,0,0,0,0.1,0.1c0,0-0.1,0-0.1,0.1c0,0,0-0.1-0.1-0.1c0,0,0,0.1-0.1,0.1v0c0,0,0,0-0.1,0c0,0,0,0,0,0c0,0,0.1,0,0.1,0
	c0-0.1,0,0,0.1-0.1c0,0,0-0.1,0-0.1c0,0,0-0.1,0-0.1c0,0,0,0,0.1,0c0,0,0,0,0-0.1c0,0,0,0,0-0.1c0,0,0-0.1-0.1-0.1c0,0,0,0,0,0
	c0,0,0-0.1,0-0.1c0,0-0.1,0-0.1-0.1c0,0.1,0,0.2-0.1,0.2c-0.1,0-0.1-0.1-0.2-0.1c0,0,0,0,0,0.1c0,0,0,0,0,0c0,0,0-0.1,0-0.1
	c0,0,0,0-0.1,0c0,0,0,0,0,0c-0.1,0-0.1,0-0.2-0.1c0,0,0,0,0.1,0c0,0,0-0.1,0-0.1c0,0,0,0,0,0c0,0,0,0,0,0c0,0,0,0-0.1,0.1
	c0,0,0-0.1,0-0.1c0,0,0,0,0,0c0-0.1-0.1-0.1-0.1-0.1c0,0,0,0,0,0c0,0,0,0,0-0.1c0,0,0,0,0-0.1c0,0,0,0,0,0c0,0,0,0-0.1,0
	c0,0,0,0,0,0c0,0,0,0,0,0h0c0,0,0,0,0,0c0,0,0,0,0,0c0,0,0,0-0.1,0c0,0,0,0,0,0c0,0,0,0,0,0c0,0,0,0,0,0c0,0,0,0-0.1,0
	c0,0,0,0.1,0,0.1c0,0,0,0,0,0c0,0,0,0,0-0.1c0,0,0,0-0.1,0c0,0,0,0,0,0c0,0,0-0.1,0-0.1c0,0,0,0.1-0.1,0.1c0,0,0,0,0,0c0,0,0,0,0,0
	c0,0,0,0,0-0.1c0,0,0-0.1,0,0c0,0.1,0,0.1,0,0.1c0,0,0-0.1,0-0.1c0,0,0,0,0,0c0,0,0,0,0,0h0c0.1,0,0,0.1,0,0.1c0,0,0,0,0,0V15
	c0,0,0,0-0.1,0c0,0,0-0.1,0-0.1c0,0,0-0.1,0-0.1c0,0,0,0.1-0.1,0c0,0,0,0-0.1,0c0,0,0,0.1-0.1,0.1c0,0,0,0,0,0v-0.1c0,0,0,0,0,0
	c0,0,0,0,0,0.1c0,0,0,0,0,0c0,0,0,0.1,0,0.1c0,0,0,0,0,0.1l0,0c0,0,0,0,0,0c0,0,0,0-0.1,0c0,0,0,0,0,0.1c0,0,0,0,0,0c0,0,0,0,0,0
	c0,0,0,0.1,0.1,0c0,0,0,0,0,0c0,0,0,0.1,0,0.1c0,0,0,0,0,0c0,0,0,0,0,0c0,0-0.1,0-0.1,0c0,0.1-0.1,0.1-0.1,0c0,0,0-0.1,0-0.1
	c0,0,0,0-0.1,0.1c0,0,0-0.1-0.1-0.1c0,0,0,0.1,0,0.1c0,0,0,0,0,0c0,0-0.1,0.1-0.1,0.1c0,0,0,0,0-0.1c0,0,0-0.1,0-0.1
	c-0.1,0-0.1,0-0.1,0.1c0,0,0,0.1,0,0.1c0,0,0,0.1-0.1,0c0,0,0-0.1,0-0.1c0,0,0,0,0-0.1c0,0,0,0,0,0c0,0-0.1,0-0.1,0.1
	c0,0,0,0.1,0,0.1c0,0,0,0,0,0c0,0,0,0,0,0.1c0,0,0,0,0,0c0,0.1,0,0.1-0.1,0.1c0-0.1,0-0.1,0-0.2c0,0,0,0,0-0.1c0,0,0,0,0,0
	c0,0,0,0-0.1,0.1c0,0,0,0,0,0c0,0,0,0,0,0c0,0,0,0,0,0c0,0,0,0,0,0.1c0,0,0,0,0,0.1c0,0,0,0,0,0.1c0.1,0,0.1,0,0.1,0
	c0,0,0.1,0,0.1,0c0,0,0,0,0,0.1c0,0.1,0,0.1-0.1,0.1c0,0,0,0,0,0c0,0,0,0,0,0c0,0,0,0,0,0c0,0,0,0-0.1,0c0,0,0,0-0.1,0.1
	c0,0,0-0.1,0-0.1c0,0,0,0.1-0.1,0.1c0,0-0.1,0-0.1,0c0,0,0,0-0.1,0c0,0,0,0,0-0.1c0,0,0,0,0,0c0,0,0,0,0,0c0,0,0,0,0,0c0,0,0,0,0,0
	l0,0c0,0.1,0,0.1,0,0.2c0,0,0.1-0.1,0.1,0c0,0,0,0.1-0.1,0.1c0,0,0,0,0,0.1c0,0,0,0,0,0c0,0,0,0,0,0.1c0,0,0,0,0,0c0,0,0,0,0,0
	c0,0,0,0,0,0c0,0,0,0,0-0.1c0,0,0.1,0,0.1,0c0,0,0,0,0,0.1c0,0,0,0-0.1,0c0,0,0,0,0.1,0c0,0,0-0.1,0-0.1c0,0,0,0,0,0l0,0
	c0,0,0,0,0,0c0,0-0.1,0-0.1,0.1c0,0,0.1,0,0.1,0c0,0,0,0.1,0,0.1c0,0-0.1-0.1-0.1-0.1c0,0,0,0-0.1,0c0,0,0,0,0,0c0,0,0,0,0,0.1
	c0,0-0.1,0-0.1,0c0,0,0,0.1,0,0.1c0,0,0,0,0,0c0,0,0,0,0,0c0,0-0.1-0.1-0.1-0.1c0,0,0,0-0.1,0c0,0,0,0,0,0c0,0-0.1,0-0.1,0
	c0,0-0.1,0-0.1,0c0,0,0,0,0.1,0c0,0,0,0.1-0.1,0c0,0,0,0,0,0c0,0,0,0,0,0.1c0,0,0,0.1,0,0.1c0,0,0,0,0,0
	C19.4,16.9,19.4,16.9,19.4,17.1C19.4,17,19.4,17,19.4,17.1c0-0.2,0-0.1,0-0.1c0,0,0,0,0,0c0,0,0,0,0-0.1c0,0,0,0,0,0c0,0,0,0,0,0
	C19.2,16.9,19.2,16.9,19.4,17.1C19.3,17,19.3,17,19.4,17.1C19.4,17,19.4,17,19.4,17.1C19.4,17,19.4,17,19.4,17.1c0.1,0,0.1,0,0.1,0
	c0,0,0,0,0,0c0,0,0,0,0,0C19.4,17.1,19.4,17.1,19.4,17.1z M23.7,18.3C23.7,18.2,23.7,18.2,23.7,18.3C23.7,18.2,23.7,18.2,23.7,18.3
	C23.7,18.3,23.7,18.3,23.7,18.3C23.7,18.3,23.7,18.3,23.7,18.3C23.6,18.3,23.7,18.3,23.7,18.3z M19.5,17.1
	C19.5,17.1,19.5,17.1,19.5,17.1C19.5,17.1,19.5,17.1,19.5,17.1C19.5,17.1,19.5,17.1,19.5,17.1C19.5,17.1,19.5,17.1,19.5,17.1z"/>
<path class="st0" d="M15.1,7.6C15,7.6,15,7.6,15.1,7.6C15,7.7,15,7.7,15.1,7.6C15,7.7,15,7.7,15.1,7.6C15,7.7,15,7.7,15.1,7.6
	C15,7.7,15,7.7,15.1,7.6C15,7.7,15,7.7,15.1,7.6C15.1,7.7,15.1,7.7,15.1,7.6C15.1,7.7,15.1,7.7,15.1,7.6C15.1,7.7,15.1,7.7,15.1,7.6
	C15.1,7.7,15.1,7.7,15.1,7.6C15.1,7.7,15,7.7,15.1,7.6C15,7.7,15,7.7,15.1,7.6C15,7.7,15,7.7,15.1,7.6C15,7.7,15,7.7,15.1,7.6
	C15,7.7,15,7.7,15.1,7.6C15,7.7,15,7.7,15.1,7.6C15,7.7,15,7.7,15.1,7.6C15,7.7,15,7.7,15.1,7.6c-0.1,0-0.1,0-0.1,0c0,0,0,0,0,0
	c0,0,0,0,0,0c0,0,0,0,0,0c0,0,0,0,0,0c0,0,0,0,0,0c0,0,0,0,0,0c0,0,0,0-0.1,0c0,0,0,0,0,0c0,0,0,0,0,0c0,0,0,0,0,0c0,0,0,0,0,0
	c0,0,0,0,0,0c0,0,0,0,0,0c0,0,0,0,0,0c0,0,0,0,0,0c0,0,0,0,0,0c0,0,0,0,0,0c0,0,0,0,0,0c0,0,0,0,0,0c0,0,0,0,0,0c0,0,0,0,0,0
	c0,0,0,0,0,0c0,0,0,0,0,0c0,0,0,0,0,0c0,0,0,0,0,0c0,0,0,0,0,0c0,0,0,0,0,0c0,0,0,0,0,0c0,0,0,0,0,0c0,0,0,0,0,0c0,0,0,0,0,0
	c0,0,0,0,0,0c0,0,0,0,0,0c0,0,0,0,0,0c0,0,0,0,0,0c0,0,0,0,0,0c0,0,0,0,0,0c0,0,0,0,0,0c0,0,0,0,0,0c0,0,0,0,0,0c0,0,0,0,0,0
	c0,0,0,0,0,0c0,0,0,0,0,0c0,0,0,0,0,0c0,0,0,0,0,0c0,0,0,0,0,0c0,0,0,0,0,0c0,0,0,0,0,0c0,0,0,0,0,0c0,0,0,0,0,0c0,0,0,0,0,0
	c0,0,0,0,0,0c0,0,0,0,0,0c0,0,0,0,0,0c0,0,0,0,0,0c0,0,0,0,0,0c0,0,0,0,0,0c0,0,0,0,0,0c0,0,0,0,0,0c0,0,0,0,0,0c0,0,0,0,0,0
	c0,0,0,0,0,0c0,0,0,0,0,0c0,0,0,0,0,0c0,0,0,0,0,0c0,0,0,0,0,0c0,0,0,0,0,0c0,0,0,0,0,0c0,0,0,0,0,0c0,0,0,0,0,0l0,0c0,0,0,0,0,0
	c0,0,0,0,0,0c0,0,0,0,0,0c0,0,0,0,0,0c0,0,0,0,0,0c0,0,0,0,0,0c0,0,0,0,0,0c0,0,0,0,0,0c0,0,0,0,0,0c0,0,0,0,0,0c0,0,0,0,0,0
	c0,0,0,0,0,0c0,0,0,0,0,0c0,0,0,0,0,0c0,0,0,0,0,0c0,0,0,0,0,0c0,0,0,0,0,0c0,0,0,0,0,0l0,0c0,0,0,0,0,0c0,0,0,0,0,0c0,0,0,0,0,0
	c0,0,0,0,0,0c0,0,0,0,0,0c0,0,0,0,0,0c0,0,0,0,0,0c0,0,0,0,0,0c0,0,0,0,0,0c0,0,0,0,0,0c0,0,0,0,0,0c0,0,0,0,0,0c0,0,0,0,0,0
	c0,0,0,0,0,0c0,0,0,0,0,0c0,0,0,0,0,0c0,0,0,0,0,0c0,0,0,0,0,0c0,0,0,0,0,0c0,0,0,0,0,0c0,0,0,0,0,0c0,0,0,0,0,0c0,0,0,0,0,0
	c0,0,0,0,0,0c0,0,0,0,0,0c0,0.1,0,0.1,0,0.2c0,0,0,0.1,0,0.1c0,0.1,0,0.1,0,0.2c0,0,0,0.1,0,0.1c0,0,0,0,0,0c0,0,0,0-0.1,0
	c0,0,0,0,0,0c0,0,0-0.1,0-0.1c0-0.1,0-0.1,0-0.2c0,0,0-0.1,0-0.1c0,0,0,0,0-0.1c0,0,0-0.1,0-0.1c0,0,0,0,0,0c0,0,0,0,0,0
	c0,0,0,0,0,0c0,0,0,0,0,0c0,0,0,0,0,0c0,0,0,0,0,0c0,0,0,0,0,0c0,0,0,0,0,0c0,0,0,0,0,0c0,0,0,0,0,0c0,0,0,0,0,0c0,0,0,0,0,0
	c0,0,0,0,0,0c0,0,0,0,0,0c0,0,0,0-0.1,0c0,0,0,0,0,0c0,0,0,0,0,0c0,0,0,0,0,0c0,0,0,0,0,0c0,0,0,0,0,0c0,0,0,0,0,0c0,0,0,0,0,0
	c0,0,0,0,0,0c0,0,0,0,0,0c0,0,0,0,0,0c0,0,0,0,0,0c0,0,0,0,0,0c0,0,0,0,0,0c0,0,0,0,0,0c0,0,0,0,0,0c0,0,0,0,0,0c0,0,0,0,0,0
	c0,0,0,0,0,0c0,0,0,0,0,0c0,0,0,0,0,0c0,0,0,0,0,0c0,0,0,0,0,0c0,0,0,0,0,0c0,0,0,0,0,0c0,0,0,0,0,0c0,0,0,0,0,0c0,0,0,0,0,0
	c0,0,0,0,0,0c0,0,0,0,0,0c0,0,0,0,0,0c0,0,0,0,0,0c0,0,0,0,0,0c0,0,0,0,0,0c0,0,0,0,0,0c0,0,0,0,0,0c0,0,0,0,0,0c0,0,0,0,0,0
	c0,0,0,0,0,0c0,0,0,0,0,0c0,0,0,0,0,0c0,0,0,0,0,0c0,0,0,0,0,0c0,0,0,0,0,0c0,0,0,0,0,0c0,0,0,0,0,0c0,0,0,0,0,0c0,0,0,0,0,0
	c0,0,0,0,0,0c0,0,0,0,0,0c0,0,0,0,0,0c0,0,0,0,0,0c0,0,0,0,0,0c0,0,0,0,0,0c0,0,0,0,0,0c0,0,0,0,0,0c0,0,0,0,0,0c0,0,0,0,0,0
	c0,0,0,0,0,0c0,0,0,0,0,0c0,0,0,0,0,0c0,0,0,0,0,0c0,0,0,0,0,0c0,0,0,0,0,0c0,0,0,0,0,0c0,0,0,0,0,0c0,0,0,0,0,0c0,0,0,0,0,0
	c0,0,0,0,0,0c0,0,0,0,0,0c0,0,0,0,0,0c0,0,0,0,0,0c0,0,0,0,0,0c0,0,0,0,0,0c0,0,0,0,0,0c0,0,0,0,0,0c0,0,0,0,0,0c0,0,0,0,0,0
	c0,0,0,0,0,0c0,0,0,0,0,0c0,0,0,0,0,0c0,0,0,0,0,0c0,0,0,0,0,0c0,0,0,0,0,0c0,0,0,0,0,0c0,0,0,0,0,0c0,0,0,0,0,0c0,0,0,0,0,0
	c0,0,0,0,0,0c0,0,0,0,0,0c0,0,0,0,0,0c0,0,0,0,0,0c0,0,0,0,0,0c0,0,0,0,0,0c0,0,0,0,0,0c0,0,0,0,0,0c0,0,0,0,0,0c0,0,0,0,0,0
	c0,0,0,0,0,0c0,0,0,0,0,0c0,0,0,0,0,0c0,0,0,0,0,0c0,0,0,0,0,0c0,0,0,0,0,0c0,0,0,0,0,0c0,0,0,0,0,0c0,0,0,0,0,0c0,0,0,0,0,0
	c0,0,0,0,0,0c0,0,0,0,0,0c0,0,0,0,0,0c0,0,0,0,0,0c0,0,0,0,0,0c0,0,0,0,0,0c0,0,0,0,0,0c0,0,0,0,0,0c0,0,0,0,0,0c0,0,0,0,0,0
	c0,0,0,0,0,0c0,0,0,0,0,0c0,0,0,0,0,0c0,0,0,0,0,0c0,0,0,0,0,0c0,0,0,0,0,0c0,0,0,0,0,0c0,0,0,0,0,0c0,0,0,0,0,0c0,0,0,0,0,0
	c0,0,0,0,0,0c0,0,0,0,0,0c0,0,0,0,0,0c0,0,0,0,0,0c0,0,0,0,0,0c0,0,0,0,0,0c0,0,0,0,0,0c0,0,0,0,0,0c0,0,0,0,0,0c0,0,0,0,0,0
	c0,0,0,0,0,0c0,0,0,0,0,0c0,0,0,0,0,0c0,0,0,0,0,0c0,0,0,0,0,0c0,0,0,0,0,0c0,0,0,0,0,0c0,0,0,0,0,0c0,0,0,0,0,0c0,0,0,0,0,0
	c0,0,0,0,0,0c0,0,0,0,0,0c0,0,0,0,0,0c0,0,0,0,0,0c0,0,0,0,0,0c0,0,0,0,0,0c0,0,0,0,0,0c0,0,0,0,0,0c0,0,0,0,0,0c0,0,0,0,0,0
	c0,0,0,0,0,0c0,0,0,0,0,0c0,0,0,0,0,0c0,0,0,0,0,0c0,0,0,0,0,0c0,0,0,0,0,0c0,0,0,0,0,0c0,0,0,0,0,0c0,0,0,0,0,0c0,0,0,0,0,0
	c0,0,0,0,0,0c0,0,0,0,0,0c0,0,0,0,0,0c0,0,0,0,0,0c0,0,0,0,0,0c0,0,0,0,0,0c0,0,0,0,0,0c0,0,0,0,0,0c0,0,0,0,0,0c0,0,0,0,0,0
	c0,0,0,0,0,0c0,0,0,0,0,0c0,0,0,0,0,0c0,0,0,0,0,0c0,0,0,0,0,0c0,0,0,0,0,0c0,0,0,0,0,0c0,0,0,0,0,0c0,0,0,0,0,0c0,0,0,0,0,0
	c0,0,0,0,0,0c0,0,0,0,0,0c0,0,0,0,0,0c0,0,0,0,0,0c0,0,0,0,0,0c0,0,0,0,0,0c0,0,0,0,0,0c0,0,0,0,0,0c0,0,0,0,0,0c0,0,0,0,0,0
	c0,0,0,0,0,0c0,0,0,0,0,0c0,0,0,0,0,0c0,0,0,0,0,0c0,0,0,0,0,0c0,0,0,0,0,0c0,0,0,0,0,0c0,0,0,0,0,0c0,0,0,0,0,0c0,0,0,0,0,0
	c0,0,0,0,0,0c0,0,0,0,0,0c0,0,0,0,0,0c0,0,0,0,0,0c0,0,0,0,0,0c0,0,0,0,0,0c0,0,0,0,0,0c0,0,0,0,0,0c0,0,0,0,0,0c0,0,0,0,0,0
	c0,0,0,0,0,0c0,0,0,0,0,0c0,0,0,0,0,0c0,0,0,0,0,0c0,0,0,0,0,0c0,0,0,0,0,0c0,0,0,0,0,0c0,0,0,0,0,0c0,0,0,0,0,0c0,0,0,0,0,0
	c0,0,0,0,0,0c0,0,0,0,0,0c0,0,0,0,0,0c0,0,0,0,0,0c0,0,0,0,0,0c0,0,0,0,0,0c0,0,0,0,0,0c0,0,0,0,0,0c0,0,0,0,0,0c0,0,0,0,0,0
	c0,0,0,0,0,0c0,0,0,0,0,0c0,0,0,0,0,0c0,0,0,0,0,0c0,0,0,0,0,0c0,0,0,0,0,0c0,0,0,0,0,0c0,0,0,0,0,0c0,0,0,0,0,0c0,0,0,0,0,0
	c0,0,0,0,0,0c0,0,0,0,0,0c0,0,0,0,0,0c0,0,0,0,0,0c0,0,0,0,0,0c0,0,0,0,0,0c0,0,0,0,0,0c0,0,0,0,0,0c0,0,0,0,0,0c0,0,0,0,0,0
	c0,0,0,0,0,0c0,0,0,0,0,0c0,0,0,0,0,0c0,0,0,0,0,0c0,0,0,0,0,0c0,0,0,0,0,0c0,0,0,0,0,0c0,0,0,0,0,0c0,0,0,0,0,0c0,0,0,0,0,0
	c0,0,0,0,0,0c0,0,0,0,0,0c0,0,0,0,0,0c0,0,0,0,0,0c0,0,0,0,0,0c0,0,0,0,0,0c0,0,0,0,0,0c0,0,0,0,0,0c0,0,0,0,0,0c0,0,0,0,0,0
	c0,0,0,0,0,0c0,0,0,0,0,0c0,0,0,0,0,0c0,0,0,0,0,0c0,0,0,0,0,0c0,0,0,0,0,0c0,0,0,0,0,0c0,0,0,0,0,0c0,0,0,0,0,0c0,0,0,0,0,0
	c0,0,0,0,0,0c0,0,0,0,0,0c0,0,0,0,0,0c0,0,0,0,0,0c0,0,0,0,0,0c0,0,0,0,0,0c0,0,0,0,0,0c0,0,0,0,0,0c0,0,0,0,0,0c0,0,0,0,0,0
	c0,0,0,0,0,0c0,0,0,0,0,0c0,0,0,0,0,0c0,0,0,0,0,0c0,0,0,0,0,0c0,0,0,0,0,0c0,0,0,0,0,0c0,0,0,0,0,0c0,0,0,0,0,0c0,0,0,0,0,0
	c0,0,0,0,0,0c0,0,0,0,0,0c0,0,0,0,0,0c0,0,0,0,0,0c0,0,0,0,0,0c0,0,0,0,0,0c0,0,0,0,0,0c0,0,0,0,0,0c0,0,0,0,0,0c0,0,0,0,0,0
	c0,0,0,0,0,0c0,0,0,0,0,0c0,0,0,0,0,0c0,0,0,0,0,0c0,0,0,0,0,0c0,0,0,0,0,0c0,0,0,0,0,0c0,0,0,0,0,0c0,0,0,0,0,0c0,0,0,0,0,0
	c0,0,0,0,0,0c0,0,0,0,0,0c0,0,0,0,0,0c0,0,0,0,0,0c0,0,0,0,0,0c0,0,0,0,0,0c0,0,0,0,0,0c0,0,0,0,0,0c0,0,0,0,0,0c0,0,0,0,0,0
	c0,0,0,0,0,0c0,0,0,0,0,0c0,0,0,0,0,0c0,0,0,0,0,0c0,0,0,0,0,0c0,0,0,0,0,0c0,0,0,0,0,0c0,0,0,0,0,0c0,0,0,0,0,0c0,0,0,0,0,0
	c0,0,0,0,0,0c0,0,0,0,0,0c0,0,0,0,0,0c0,0,0,0,0,0c0,0,0,0,0.1,0c0,0,0,0,0,0c0,0,0,0,0,0c0,0,0,0,0,0l0,0c0,0,0,0,0,0c0,0,0,0,0,0
	c0,0,0,0,0,0c0,0,0,0,0,0c0,0,0,0,0,0c0,0,0,0,0,0c0,0,0,0,0,0c0,0,0,0,0,0c0,0,0,0,0,0c0,0,0,0,0,0c0,0,0,0,0,0c0,0,0,0,0,0
	c0,0,0,0,0,0c0,0,0,0,0,0c0,0,0,0,0,0c0,0,0,0,0,0c0,0,0,0,0,0c0,0,0,0,0,0c0,0,0,0,0,0c0,0,0,0,0,0c0,0,0,0,0,0c0,0,0,0,0,0
	c0,0,0,0,0,0c0,0,0,0,0,0c0,0,0,0,0,0c0,0,0,0,0,0c0,0,0,0,0,0c0,0,0,0,0,0c0,0,0,0,0,0c0,0,0,0,0,0c0,0,0,0,0,0c0,0,0,0,0,0
	c0,0,0,0,0,0c0,0,0,0,0,0c0,0,0,0,0,0c0,0,0,0,0,0c0,0,0,0,0,0c0,0,0,0,0,0c0,0,0,0,0,0c0,0,0,0,0,0c0,0,0,0,0,0c0,0,0,0,0,0
	c0,0,0,0,0,0c0,0,0,0,0,0c0,0,0,0,0,0c0,0,0,0,0,0c0,0,0,0,0,0c0,0,0,0,0,0c0,0,0,0,0,0c0,0,0,0,0,0c0,0,0,0,0,0c0,0,0,0,0,0
	c0,0,0,0,0,0c0,0,0,0,0,0c0,0,0,0,0,0c0,0,0,0,0,0c0,0,0,0,0,0c0,0,0,0,0,0c0,0,0,0,0,0c0,0,0,0,0,0c0,0,0,0,0,0c0,0,0,0,0,0
	c0,0,0,0,0,0c0,0,0,0,0,0c0,0,0,0,0,0c0,0,0,0,0,0c0,0,0,0,0,0c0,0,0,0,0,0c0,0,0,0,0,0c0,0,0,0,0,0c0,0,0,0,0,0c0,0,0,0,0,0
	c0,0,0,0,0,0c0,0,0,0,0,0c0,0,0,0,0,0c0,0,0,0,0,0c0,0,0,0,0,0c0,0,0,0,0,0c0,0,0,0,0,0c0,0,0,0,0,0c0,0,0,0,0,0c0,0,0,0,0,0
	c0,0,0,0,0,0c0,0,0,0,0,0c0,0,0,0,0,0c0,0,0,0,0,0c0,0,0,0,0,0c0,0,0,0,0,0c0,0,0,0,0,0c0,0,0,0,0,0c0,0,0,0,0,0c0,0,0,0,0,0
	c0,0,0,0,0,0c0,0,0,0,0,0c0,0,0,0,0,0c0,0,0,0,0,0c0,0,0,0,0,0c0,0,0,0,0,0c0,0,0,0,0,0c0,0,0,0,0,0c0,0,0,0,0,0c0,0,0,0,0,0
	c0,0,0,0,0,0c0,0,0,0,0,0c0,0,0,0,0,0c0,0,0,0,0,0c0,0,0,0,0,0c0,0,0,0,0,0c0,0,0,0-0.1,0c0,0,0,0,0,0c0,0,0,0,0,0c0,0,0,0,0,0
	c0,0,0,0,0,0c0,0,0,0,0,0c0,0,0,0,0,0c0,0,0,0,0,0c0,0,0,0,0,0c0,0,0,0,0,0c0,0,0,0,0,0c0,0,0,0,0,0c0,0,0,0,0,0c0,0,0,0,0,0
	c0,0,0,0,0,0c0,0,0,0,0,0c0,0,0,0,0,0c0,0,0,0,0,0c0,0,0,0,0,0c0,0,0,0,0,0c0,0,0,0,0,0c0,0,0,0,0,0c0,0,0,0,0,0c0,0,0,0,0,0
	c0,0,0,0,0,0c0,0,0,0,0,0c0,0,0,0,0,0c0,0,0,0,0,0c0,0,0,0,0,0c0,0,0,0,0,0c0,0,0,0,0,0c0,0,0,0,0,0c0,0,0,0,0,0c0,0,0,0,0,0
	c0,0,0,0,0,0c0,0,0,0,0,0c0,0,0,0,0,0c0,0,0,0,0,0c0,0,0,0,0,0c0,0,0,0,0,0c0,0,0,0,0,0c0,0,0,0,0,0c0,0,0,0,0,0c0,0,0,0,0,0
	c0,0,0,0,0,0c0,0,0,0,0,0c0,0,0,0,0,0c0,0,0,0,0,0c0,0,0,0,0,0c0,0,0,0,0,0c0,0,0,0,0,0c0,0,0,0,0,0c0,0,0,0,0,0c0,0,0,0,0,0
	c0,0,0,0,0,0c0,0,0,0,0,0c0,0,0,0,0,0c0,0,0,0,0,0c0,0,0,0,0,0c0,0,0,0,0,0c0,0,0,0,0,0c0,0,0,0,0,0C15.1,7.5,15.1,7.5,15.1,7.6
	C15.1,7.6,15.1,7.6,15.1,7.6C15.1,7.6,15.1,7.6,15.1,7.6C15.1,7.6,15.1,7.6,15.1,7.6C15.1,7.6,15.1,7.6,15.1,7.6
	C15.1,7.6,15.1,7.6,15.1,7.6C15.1,7.6,15.1,7.6,15.1,7.6C15.1,7.6,15.1,7.6,15.1,7.6C15.1,7.6,15.1,7.6,15.1,7.6
	C15.1,7.6,15.1,7.6,15.1,7.6C15.1,7.6,15.2,7.6,15.1,7.6c0.1-0.1,0.1-0.1,0.1-0.1c0,0,0,0,0,0c0,0,0,0,0,0c0,0,0,0,0,0c0,0,0,0,0,0
	c0,0,0,0,0,0c0,0,0,0,0,0c0,0,0,0,0,0c0,0,0,0,0,0c0,0,0,0,0,0c0,0,0,0,0,0c0,0,0,0,0,0c0,0,0,0,0,0c0,0,0,0,0,0c0,0,0,0,0,0
	c0,0,0,0,0,0c0,0,0,0,0,0c0,0,0,0,0,0c0,0,0,0,0,0c0,0,0,0,0,0c0,0,0,0,0,0c0,0,0,0,0,0c0,0,0,0,0,0c0,0,0,0,0,0c0,0,0,0,0,0
	c0,0,0,0,0,0c0,0,0,0,0,0c0,0,0,0,0,0c0,0,0,0,0,0c0,0,0,0,0,0C15.2,7.7,15.1,7.7,15.1,7.6c0.1,0,0.1,0.1,0.1,0.1
	C15.1,7.7,15.1,7.7,15.1,7.6C15.1,7.7,15.1,7.7,15.1,7.6C15.1,7.7,15.1,7.7,15.1,7.6C15.1,7.7,15.1,7.7,15.1,7.6
	C15.1,7.7,15.1,7.7,15.1,7.6C15.1,7.7,15.1,7.7,15.1,7.6C15.1,7.7,15.1,7.7,15.1,7.6C15.1,7.7,15.1,7.7,15.1,7.6
	C15.1,7.7,15.1,7.7,15.1,7.6C15.1,7.7,15.1,7.7,15.1,7.6C15.1,7.7,15.1,7.7,15.1,7.6C15.1,7.7,15.1,7.7,15.1,7.6
	C15.1,7.7,15.1,7.7,15.1,7.6C15.1,7.7,15.1,7.7,15.1,7.6C15.1,7.7,15.1,7.6,15.1,7.6C15.1,7.6,15.1,7.6,15.1,7.6
	C15.1,7.7,15.1,7.7,15.1,7.6C15.1,7.7,15.1,7.7,15.1,7.6C15.1,7.6,15.1,7.6,15.1,7.6C15.1,7.6,15.1,7.6,15.1,7.6
	C15.1,7.6,15.1,7.6,15.1,7.6C15.1,7.6,15.1,7.6,15.1,7.6C15.1,7.6,15.1,7.6,15.1,7.6C15.1,7.6,15.1,7.6,15.1,7.6z"/>
<path class="st3" d="M17.4,12.2C17.4,12.2,17.4,12.2,17.4,12.2c-0.1,0-0.1,0-0.1,0c0,0.1,0,0.1-0.1,0.2c0,0,0-0.1,0-0.1
	C17.2,12.1,17.3,12.2,17.4,12.2c-0.1-0.1-0.2-0.1-0.3-0.1c0,0,0-0.1,0.1-0.1c0,0-0.1,0-0.1,0c0,0-0.1,0,0,0.1c0,0,0,0.1,0,0.1
	c0,0-0.1,0-0.1,0c-0.1,0,0-0.2,0.1-0.2c0.1,0,0.1-0.1,0.1-0.1c0,0,0,0,0,0c-0.1,0-0.2,0.1-0.3,0.1c0,0.1,0,0.1-0.1,0.2
	c-0.1,0-0.2,0-0.2,0c0,0.1,0,0.2,0.1,0.3c0,0,0,0,0,0l0,0c0,0.1,0,0.1,0,0.1c0.2-0.2,0.2-0.2,0.3-0.1c-0.1,0.1-0.1,0.1-0.2,0.1
	c0,0-0.1,0-0.1,0.1c0,0,0.1,0.1,0.1,0.1c0.1,0,0.2,0,0.2,0.1l0,0c-0.1,0.1-0.1,0.1-0.2-0.1c0,0,0,0,0.1-0.1c-0.1,0-0.1,0-0.1,0l0,0
	c0,0,0,0,0-0.1c-0.1,0-0.1-0.1-0.2,0c0,0.1-0.1,0-0.2,0c0-0.1,0.1-0.1,0.2-0.1c0.1,0,0.1,0,0.1,0c0-0.1-0.2-0.2-0.4-0.2
	c0,0,0.1,0,0.1-0.1c0,0,0,0-0.1,0c0,0,0,0,0,0c0.1,0,0.2,0.1,0.2,0.1c0-0.1,0-0.2-0.1-0.2c0,0,0,0,0.1,0c0-0.1-0.1-0.2,0-0.3
	c0,0,0,0,0,0c0,0.1,0,0.2,0.1,0.2c0.1,0,0.1,0,0.1,0c0,0,0.1-0.1,0.1-0.1c0,0,0.1,0,0.2,0c0,0,0,0,0,0c0,0-0.1,0-0.1,0
	c0,0-0.1-0.1-0.1-0.1c0,0,0-0.1,0-0.1c0,0,0.1,0,0.1,0c0,0,0,0.1,0.1,0.1c0,0,0,0,0,0c0.1,0,0.1,0,0.2,0c0.1,0,0.1,0,0.2,0
	c-0.1-0.1-0.1-0.1-0.2-0.1c0,0,0,0,0,0c0,0,0,0,0.1,0c0,0,0,0-0.1,0c0,0,0.1,0,0.1-0.1c0,0.1,0.1,0.2,0.2,0.2c0-0.1,0-0.2-0.1-0.3
	l0,0c0,0,0,0,0,0c0,0,0,0,0,0c0-0.1,0-0.1,0-0.2c0,0,0-0.1,0.1-0.1c0,0,0.1,0,0.1,0c0,0,0,0,0,0.1c0,0.1-0.1,0.1-0.2,0.1
	c0,0,0,0.1,0,0.1c0,0,0.1,0,0.1-0.1c0,0,0,0,0,0c0,0,0,0.1-0.1,0.1c0,0,0,0.1,0,0.1c0,0,0.1,0,0.1,0C17.2,11.9,17.3,12,17.4,12.2
	c0-0.1,0-0.1,0-0.2l0,0C17.4,12,17.4,12.1,17.4,12.2z"/>
<path class="st3" d="M16.8,13.4c-0.1,0-0.1-0.1-0.2-0.1c0,0,0-0.1,0-0.1c-0.1,0-0.1-0.1-0.1-0.2c0,0,0,0,0,0c0,0,0.2,0.1,0.2,0.1
	c0,0,0,0,0,0c0,0,0,0,0,0.1c0,0,0,0,0,0c0,0,0,0,0-0.1c0-0.1,0.1-0.2,0.2-0.1c0,0,0,0,0,0.1c0,0,0,0.1,0,0.1l0,0
	c-0.1,0-0.1,0.1-0.2,0C16.7,13.3,16.7,13.3,16.8,13.4C16.8,13.4,16.8,13.4,16.8,13.4L16.8,13.4z"/>
<path class="st3" d="M16.7,14.3c0,0-0.1,0.1-0.1,0.1c0,0,0,0.1,0.1,0.1c0,0-0.1-0.1-0.1-0.1c0,0-0.1,0-0.1,0c0,0-0.1,0-0.2,0
	c0,0,0-0.1,0-0.1c0,0,0.1,0,0.1,0c0,0,0.1,0.1,0.1,0.1c0,0,0,0,0.1,0.1c0,0,0,0,0,0c0,0,0-0.1,0-0.1c0,0,0-0.1,0-0.1
	c0,0,0.1-0.1,0.1-0.1c0,0,0,0,0,0C16.7,14.2,16.7,14.2,16.7,14.3z"/>
<path class="st3" d="M16.6,14.2c0-0.1,0-0.2,0-0.3c0-0.1,0-0.1,0-0.2c0,0,0,0,0,0c0,0,0.1,0,0.1,0c0,0,0,0,0,0c0,0,0,0.1,0,0.1
	c0,0-0.1,0-0.1,0.1C16.6,13.9,16.6,14.1,16.6,14.2C16.6,14.2,16.6,14.2,16.6,14.2z"/>
<path class="st3" d="M11.6,15.5C11.6,15.5,11.6,15.5,11.6,15.5c-0.1,0-0.1,0-0.1,0C11.5,15.5,11.5,15.5,11.6,15.5
	c-0.2,0.1-0.2,0.1-0.2,0.3c0,0,0,0,0.1,0l0,0c0,0-0.1,0.1-0.1,0.1c0,0,0,0,0,0c0,0,0,0,0,0c0,0.1-0.1,0.1-0.2,0.2c0.1,0,0.2,0,0.3,0
	c0,0,0,0,0,0c0.1,0.1,0.2,0,0.3-0.1c0,0,0,0.1,0,0.1c0,0,0,0,0,0c0,0,0.1,0,0.1,0.1c0,0.1-0.1,0.1-0.1,0.1c0,0-0.1,0-0.1,0l0,0
	c0,0-0.1,0-0.1,0c0,0.1,0.1,0.1,0.1,0.2c0,0,0,0,0,0c0,0,0-0.1,0-0.1c0,0,0,0,0,0.1c0-0.1,0-0.1,0-0.1c0,0,0,0.1-0.1,0.1
	c0-0.1,0-0.1-0.1-0.2c0,0.1,0,0.1,0,0.1c0,0,0,0.1,0,0.1c0,0-0.1,0-0.1,0c0,0,0-0.1,0-0.1c0,0,0.1,0,0.1-0.1c0,0,0-0.1-0.1-0.1
	c-0.1,0-0.3,0-0.4,0.1c0,0,0,0,0.1,0l0,0c0,0-0.1,0-0.1,0c0,0.1,0,0.1-0.1,0.1c-0.1,0.1-0.1,0.1-0.2,0c0,0,0,0,0.1,0
	c0-0.1-0.1-0.1-0.2-0.1c0,0,0.1,0,0.1,0c-0.1,0-0.1,0-0.2,0c0,0,0,0.1,0,0.1c0,0.1,0,0.1-0.1,0.1c0,0-0.1,0-0.1,0c0,0,0-0.1,0.1-0.1
	c0,0,0,0,0,0c-0.1,0-0.2,0.1-0.3,0.1c0,0,0,0,0-0.1c0,0-0.1,0.1-0.1,0.1c0,0,0-0.1,0-0.1c-0.1,0-0.1,0-0.2,0.1c0,0,0,0,0,0
	c0,0,0,0-0.1,0.1c0,0,0,0,0,0c-0.1,0-0.1,0-0.2,0c0,0-0.1,0-0.1-0.1c0,0,0-0.1,0-0.1c0,0,0.1,0,0.1,0c0,0,0.1,0.1,0.1,0.1
	c0,0,0,0,0,0c0.1,0,0.2-0.1,0.3-0.1c0,0-0.1-0.1-0.1-0.1c0,0,0,0,0,0c0,0,0.1,0,0.1,0.1C10,16.1,9.9,16,9.9,15.9l0,0c0,0,0,0,0.1,0
	c0,0,0-0.1,0-0.1c0-0.1,0-0.2,0.1-0.2c0.1,0.1,0.1,0.2-0.1,0.3c0,0.1,0,0.2,0,0.3c0,0,0-0.1,0-0.1l0,0c0,0,0,0.1,0,0.1
	c0,0,0,0,0-0.1c0,0.1,0,0.1,0.1,0.1c0-0.1,0-0.1,0-0.2c0,0,0-0.1,0-0.1c0,0,0,0,0,0c0,0,0,0.1,0,0.1c0,0.1-0.1,0.1,0,0.2
	c0,0.1,0.1,0,0.1,0c0.1,0,0.2-0.1,0.3-0.1c0,0-0.1,0-0.1,0c0,0.1-0.1,0-0.1,0c0,0-0.1-0.1-0.1-0.1c0,0,0,0,0,0c0,0,0.2-0.1,0.2,0
	c0,0.1,0.1,0.1,0.1,0.1c0,0,0-0.1,0-0.1c-0.1,0,0-0.1,0-0.1c0-0.1,0-0.1,0-0.1c0,0,0,0-0.1,0c0,0,0,0,0,0c0,0,0,0,0.1,0c0,0,0,0,0,0
	c0,0-0.1,0-0.1,0c0,0.1-0.1,0.1-0.2,0.1c-0.1,0,0-0.1,0-0.1c0,0,0,0,0,0c0.1,0,0.1,0,0.2,0c0,0,0,0,0,0c-0.1-0.1-0.1-0.1-0.2-0.1
	c0,0,0,0,0,0c0,0.1-0.1,0-0.1,0c0,0-0.1-0.1-0.1-0.1c0,0,0,0,0,0c0,0,0,0,0.1-0.1c0.1,0,0.1,0.1,0.2,0.1c0,0,0,0,0,0c0,0,0,0,0-0.1
	c-0.1,0,0-0.1,0-0.2c0,0,0-0.1,0-0.1c0,0,0,0,0,0c0,0,0,0,0,0c0,0,0.1,0.1,0.1,0.1c0,0,0,0.1-0.1,0.2c0.1,0.1,0.1,0.2,0.2,0.3
	c0-0.1,0-0.2-0.1-0.2c0,0,0.1,0,0.1,0c0-0.1,0-0.2,0-0.2c0-0.1,0-0.1,0-0.2c0-0.1,0.1-0.1,0.1-0.1c0,0,0,0,0.1,0.1
	c0,0.1,0,0.2-0.1,0.2c0,0.1,0,0.1,0,0.2c0,0,0.1,0,0.1,0c-0.1,0-0.1,0.1-0.1,0.2c0-0.1,0.1-0.2,0.1-0.2c-0.1-0.1-0.1-0.2,0-0.3
	c0,0,0,0,0,0c0,0,0.1,0.1,0.1,0.1c0,0,0,0.1-0.1,0.1c0,0,0,0,0,0.1l0,0c0,0,0,0.1-0.1,0.1c0,0,0,0,0.1,0c0,0-0.1,0.1-0.1,0.1
	c0,0.1,0.1,0.1,0.1,0.1c0,0,0,0.1,0,0.1c0,0,0,0,0,0c0.1,0.1,0.1,0.2,0.2,0.3c0,0,0,0,0,0c0-0.1,0-0.1,0-0.2c0,0,0,0,0-0.1
	c0-0.1,0-0.1,0-0.2l0,0c0,0.1,0,0.1,0,0.2c0,0,0.1,0,0.1,0c-0.1,0.1,0,0.2,0,0.2c0,0,0,0,0,0c0-0.1,0.1-0.2,0.1-0.2
	c-0.1-0.1-0.1-0.2,0-0.3c0,0,0,0,0,0c0.1,0.1,0.1,0.2,0,0.2c0,0,0,0,0,0.1c0,0,0,0,0,0c0.1-0.1,0.2-0.2,0.3-0.2c0,0,0.1-0.1,0-0.1
	c0,0-0.1,0.1-0.1,0.1c0,0-0.1,0-0.1-0.1c0.1-0.1,0.1-0.1,0.2,0c0-0.1,0-0.2-0.1-0.2c0,0,0.1,0,0.1,0c0,0,0,0,0,0c0,0-0.1,0-0.1,0
	c-0.1,0.1-0.1,0.1-0.1,0.1c0,0-0.1,0-0.1-0.1c0,0,0-0.1,0.1-0.1c0,0,0.1,0,0.1,0.1c0,0,0.1,0,0.1,0c0-0.1-0.1-0.2-0.2-0.2
	c0,0-0.1,0-0.1,0c-0.1-0.1-0.1-0.2,0-0.2c0.1,0,0.1,0.1,0.2,0.1c0,0,0,0,0,0c0,0,0-0.1,0-0.1c0,0,0-0.1,0-0.2c0-0.1,0-0.2-0.1-0.2
	c0,0.1,0,0.1-0.1,0.2c0-0.1,0-0.1,0-0.2c0,0,0.1,0,0.1-0.1c0-0.1-0.1-0.1-0.2-0.1c0,0,0,0,0-0.1c0,0,0,0,0,0c0,0-0.1,0-0.1,0.1
	c0,0,0,0,0-0.1c0,0,0,0,0,0c-0.1,0-0.1,0-0.2,0c0,0-0.1,0-0.1,0.1c0,0,0,0.1-0.1,0.1c0,0-0.1,0-0.1,0c0,0,0-0.1,0-0.1
	c0,0,0.1,0,0.1,0c0,0,0.1,0,0.1,0c0,0,0,0,0-0.1l0,0c0.1,0,0.2,0.1,0.3,0.1c0,0,0,0,0-0.1l0,0c0,0,0,0,0,0c0-0.1,0-0.1,0-0.2l0,0
	c0,0,0,0,0,0c0,0,0,0.1-0.1,0.1c0,0,0.1,0,0.1,0c-0.1,0.1-0.1,0.2,0,0.3c0,0,0,0,0,0l0,0c0,0,0,0.1,0,0.1c0,0,0,0,0,0
	c0,0,0,0.1,0,0.1c0.1,0,0.1,0.1,0.1,0.1c0,0,0,0.1,0,0.1c0,0,0,0,0,0c0.1,0.1,0.1,0.2,0.2,0.3c0-0.1,0-0.2-0.1-0.3c0,0,0.1,0,0.1,0
	c0,0,0-0.1,0-0.1c0,0,0,0,0,0c0,0,0,0.1,0,0.1c0,0,0.1,0,0.1,0c-0.1,0-0.1,0-0.1,0.3C11.5,15.5,11.5,15.4,11.6,15.5
	c0-0.1,0-0.1,0-0.2c0.1-0.1,0.1-0.2,0-0.3c0,0.1,0.1,0.3,0,0.4c0.1,0,0.1,0,0.2-0.1l0,0c0,0.1,0,0.1,0.1,0c0.1,0,0.1,0,0.2,0.1
	c0,0,0,0,0,0.1c-0.1,0.1-0.2,0-0.2-0.1C11.7,15.3,11.7,15.4,11.6,15.5C11.6,15.4,11.6,15.4,11.6,15.5L11.6,15.5z"/>
<path class="st3" d="M10.3,15.1C10.3,15.1,10.3,15.2,10.3,15.1c0,0-0.1,0-0.1,0c0,0.1,0,0.1-0.1,0.2c0,0,0-0.1,0-0.1
	C10.1,15.1,10.2,15.2,10.3,15.1c-0.1-0.1-0.2-0.1-0.2-0.1c0,0,0-0.1,0-0.1c0,0-0.1,0-0.1,0c0,0-0.1,0,0,0.1c0,0,0,0.1,0,0.1
	c0,0-0.1,0-0.1,0c0,0,0-0.2,0-0.2C10,15.1,10,15,10,15c0,0,0,0,0,0c-0.1,0-0.2,0.1-0.3,0.1c0,0.1,0,0.1,0,0.2c-0.1,0-0.1,0-0.2,0
	c0,0.1,0,0.2,0,0.3c0,0,0,0,0,0l0,0c0,0.1,0,0.1,0,0.1c0.1-0.2,0.1-0.2,0.2-0.1c0,0.1-0.1,0.1-0.2,0.1c0,0-0.1,0,0,0.1
	c0,0,0.1,0.1,0.1,0.1c0.1,0,0.1,0,0.1,0.1l0,0c-0.1,0.1-0.1,0.1-0.2-0.1c0,0,0,0,0-0.1c0,0-0.1,0-0.1,0l0,0c0,0,0,0,0-0.1
	c0,0-0.1-0.1-0.2,0c0,0.1-0.1,0-0.2,0c0-0.1,0.1-0.1,0.1-0.1c0,0,0.1,0,0.1,0c0-0.1-0.1-0.2-0.3-0.2c0,0,0.1,0,0.1-0.1
	c0,0,0,0-0.1,0c0,0,0,0,0,0c0.1,0,0.1,0.1,0.2,0.1c0-0.1,0-0.2-0.1-0.2c0,0,0,0,0.1,0c0-0.1-0.1-0.2,0-0.3c0,0,0,0,0,0
	c0,0.1,0,0.2,0.1,0.2c0.1,0,0.1,0,0.1,0c0,0,0.1-0.1,0.1-0.1c0,0,0.1,0,0.1,0c0,0,0,0,0,0c0,0-0.1,0-0.1,0c0,0-0.1-0.1-0.1-0.1
	c0,0,0-0.1,0-0.1c0,0,0.1,0,0.1,0c0,0,0,0.1,0,0.1c0,0,0,0,0,0c0.1,0,0.1,0,0.2,0c0.1,0,0.1,0,0.2,0c-0.1-0.1-0.1-0.1-0.2-0.1
	c0,0,0,0,0,0c0,0,0,0,0.1,0c0,0,0,0-0.1,0c0,0,0.1,0,0.1-0.1c0,0.1,0.1,0.2,0.2,0.2c0-0.1,0-0.2,0-0.3l0,0c0,0,0,0,0,0c0,0,0,0,0,0
	c0-0.1,0-0.1,0-0.2c0,0,0-0.1,0.1-0.1c0,0,0.1,0,0.1,0c0,0,0,0,0,0.1c0,0.1-0.1,0.1-0.1,0.1c0,0,0,0.1,0,0.1c0,0,0.1,0,0.1-0.1
	c0,0,0,0,0,0c0,0,0,0.1-0.1,0.1c0,0,0,0.1,0,0.1c0,0,0,0,0.1,0C10.1,14.9,10.2,15,10.3,15.1c0-0.1,0-0.1,0-0.2l0,0
	C10.3,15,10.3,15.1,10.3,15.1z"/>
<path class="st3" d="M11,14.7c0,0-0.1-0.1-0.1-0.1c0,0,0-0.1,0-0.1c-0.1,0-0.1-0.1-0.1-0.2c0,0,0,0,0,0c0,0,0.1,0.1,0.1,0.1
	c0,0,0,0,0,0c0,0,0,0,0,0.1c0,0,0,0,0,0c0,0,0,0,0-0.1c0-0.1,0.1-0.2,0.1-0.1c0,0,0,0,0,0.1c0,0,0,0.1,0,0.1l0,0c0,0-0.1,0.1-0.1,0
	C10.9,14.5,10.9,14.6,11,14.7C10.9,14.6,11,14.7,11,14.7L11,14.7z"/>
<path class="st3" d="M11.7,14.5c0,0-0.1,0.1-0.1,0.1c0,0,0,0.1,0,0.1c0,0,0-0.1-0.1-0.1c0,0-0.1,0-0.1,0c0,0-0.1,0-0.1,0
	c0,0,0-0.1,0-0.1c0,0,0.1,0,0.1,0c0,0,0.1,0.1,0.1,0.1c0,0,0,0,0.1,0.1c0,0,0,0,0,0c0,0,0-0.1,0-0.1c0,0,0-0.1,0-0.1
	c0,0,0.1-0.1,0.1-0.1c0,0,0,0,0,0C11.7,14.5,11.7,14.5,11.7,14.5z"/>
<path class="st3" d="M9.3,16.1C9.3,16,9.3,16,9.3,16.1c-0.1-0.2-0.1-0.2,0-0.3c0,0,0,0,0,0c0,0,0.1,0.1,0.1,0.1
	C9.4,15.9,9.4,16,9.3,16.1C9.4,16,9.4,16,9.3,16.1C9.3,16,9.3,16.1,9.3,16.1c0,0.1,0,0.1,0.1,0.1C9.4,16.1,9.3,16.1,9.3,16.1
	c-0.1,0-0.1,0-0.2,0.1c0,0,0,0,0,0c0,0,0-0.1,0-0.1c0,0,0.1-0.1,0.1-0.1C9.2,15.9,9.2,16,9.3,16.1C9.3,16,9.3,16,9.3,16.1
	C9.3,16.1,9.3,16.1,9.3,16.1z"/>
<path class="st3" d="M11.7,15.1c0-0.1,0-0.2,0-0.3c0-0.1,0-0.1,0-0.2c0,0,0,0,0,0c0,0,0.1,0,0.1,0c0,0,0,0,0,0c0,0,0,0.1,0,0.1
	c0,0-0.1,0-0.1,0.1C11.8,14.9,11.8,15,11.7,15.1C11.8,15.1,11.8,15.1,11.7,15.1z"/>
<path class="st3" d="M9.4,14.7c0-0.1,0-0.1,0-0.2c0,0-0.1-0.1-0.1-0.1c0,0,0-0.1,0-0.1c0,0,0,0,0,0c0,0,0.1,0,0.1,0.1
	c0,0,0,0.1,0,0.1C9.4,14.6,9.4,14.7,9.4,14.7L9.4,14.7z"/>
<path class="st3" d="M9.5,14.9C9.4,14.9,9.4,14.9,9.5,14.9C9.4,14.9,9.4,14.9,9.5,14.9c-0.1-0.1-0.1-0.1-0.1-0.2c0,0,0,0,0,0l0,0
	C9.4,14.8,9.4,14.8,9.5,14.9C9.4,14.9,9.4,14.9,9.5,14.9c0-0.1,0-0.1,0-0.1c0,0,0,0,0,0c0,0,0.1,0,0.1,0c0,0,0,0.1,0,0.1
	C9.6,15,9.5,15,9.5,14.9z"/>
<path class="st3" d="M9.8,14.4c0,0.1,0.1,0.2,0,0.2c0,0-0.1,0-0.1,0c-0.1-0.1-0.1-0.1,0-0.2C9.8,14.3,9.8,14.4,9.8,14.4z"/>
<path class="st3" d="M11.1,16.2c0,0,0.1-0.1,0.1,0c0,0,0.1,0.1,0.1,0.1c0,0,0,0,0,0c0,0-0.1,0-0.1,0C11.1,16.3,11.1,16.3,11.1,16.2
	C11.1,16.2,11.1,16.2,11.1,16.2z"/>
<path class="st3" d="M9.1,14.5c0,0,0-0.1,0-0.1c0.1,0,0.1,0.1,0.1,0.2c0,0.1,0,0.1-0.1,0.1C9.2,14.6,9.1,14.5,9.1,14.5z"/>
<path class="st3" d="M11.6,15.5c0,0,0.1,0,0.1,0c0,0,0.1,0.1,0.1,0.1c0,0,0,0,0,0c0,0,0,0-0.1,0C11.7,15.6,11.7,15.5,11.6,15.5
	L11.6,15.5z"/>
<path class="st3" d="M10.1,14.6c0,0-0.1,0-0.1,0c-0.1,0-0.1-0.1-0.1-0.2c0,0,0,0,0,0C10.1,14.4,10.1,14.5,10.1,14.6
	C10.1,14.6,10.1,14.6,10.1,14.6C10.1,14.6,10.1,14.6,10.1,14.6z"/>
<path class="st3" d="M9.2,14.9c0,0-0.1-0.1,0-0.1c0.1,0,0.2,0.1,0.1,0.1c0,0-0.1,0.1-0.1,0.1C9.3,15,9.2,14.9,9.2,14.9z"/>
<path class="st3" d="M9.2,16.4c0,0,0-0.1-0.1-0.1c0,0,0.1-0.1,0.1-0.1c0,0,0.1,0,0.1,0.1c0,0,0.1-0.1,0.1-0.1c0,0,0,0,0,0
	C9.4,16.3,9.3,16.4,9.2,16.4z"/>
<path class="st3" d="M10.4,14.6c-0.1,0-0.1,0.1-0.2,0c0,0,0-0.1,0-0.1c0-0.1,0.1-0.1,0.2,0C10.5,14.5,10.4,14.6,10.4,14.6z"/>
<path class="st3" d="M9.2,15.3c0-0.1-0.1-0.1-0.1-0.1c0,0,0-0.1,0-0.1c0,0,0.1,0.1,0.1,0.2C9.3,15.2,9.3,15.3,9.2,15.3z"/>
<path class="st3" d="M9.1,15.6C9.1,15.6,9.1,15.6,9.1,15.6c-0.1-0.1,0-0.2,0-0.2c0,0,0.1,0.1,0.1,0.1C9.3,15.5,9.2,15.6,9.1,15.6
	C9.2,15.6,9.2,15.6,9.1,15.6z"/>
<path class="st3" d="M9.5,14.6c0,0,0-0.1,0.1-0.1c0,0,0.1,0,0.1,0c0,0,0,0.1,0,0.1C9.6,14.6,9.6,14.6,9.5,14.6
	C9.5,14.6,9.5,14.6,9.5,14.6z"/>
<path class="st3" d="M10.7,14.7c0,0-0.1,0-0.1,0c0-0.1,0-0.1,0-0.1c0,0,0.1,0,0.1,0c0,0,0,0,0.1,0C10.7,14.5,10.7,14.6,10.7,14.7
	C10.7,14.6,10.7,14.6,10.7,14.7L10.7,14.7z"/>
<path class="st3" d="M10.7,14.9c0,0,0.1-0.1,0.1-0.1c0,0,0.1,0,0.1,0.1c0,0.1-0.1,0.2-0.1,0.1C10.7,15,10.7,15,10.7,14.9z"/>
<path class="st3" d="M11.1,14.4c0,0,0.1-0.1,0.1-0.1c0.1-0.1,0.1,0,0.1,0c0,0,0,0,0,0.1C11.3,14.5,11.2,14.5,11.1,14.4
	C11.1,14.4,11.1,14.4,11.1,14.4z"/>
<path class="st3" d="M11.8,15.3C11.8,15.3,11.8,15.2,11.8,15.3c0-0.1,0-0.2,0.1-0.2c0,0,0,0,0,0c0,0,0,0.1,0,0.1
	C11.9,15.2,11.9,15.3,11.8,15.3L11.8,15.3z"/>
<path class="st3" d="M11.6,16c0,0-0.1-0.1-0.1-0.1c0-0.1,0.1-0.1,0.1-0.1c0,0,0,0.1,0,0.1C11.7,15.9,11.7,16,11.6,16z"/>
<path class="st3" d="M10.3,15c0-0.1,0-0.2,0-0.2c0,0,0,0,0.1,0C10.4,14.8,10.4,14.9,10.3,15C10.4,14.9,10.3,14.9,10.3,15L10.3,15z"
	/>
<path class="st3" d="M16.5,15.5C16.5,15.5,16.4,15.5,16.5,15.5c-0.1,0-0.1,0-0.1,0C16.4,15.5,16.4,15.6,16.5,15.5
	c-0.2,0.1-0.2,0.1-0.2,0.3c0,0,0,0,0.1,0l0,0c0,0-0.1,0.1-0.1,0.1c0,0,0,0,0,0c0,0,0,0,0,0c0,0.1-0.1,0.1-0.1,0.2c0.1,0,0.2,0,0.3,0
	c0,0,0,0,0,0c0.1,0.1,0.2,0,0.3-0.1c0,0,0,0.1,0,0.1c0,0,0,0,0,0c0,0,0.1,0,0.1,0.1c0,0.1-0.1,0.1-0.1,0.1c0,0-0.1,0-0.1,0l0,0
	c0,0-0.1,0-0.1,0c0,0.1,0.1,0.1,0.1,0.2c0,0,0,0,0,0c0,0,0-0.1,0-0.1c0,0,0,0,0,0.1c0-0.1,0-0.1,0-0.1c0,0,0,0.1-0.1,0.1
	c0-0.1,0-0.1-0.1-0.2c0,0.1,0,0.1,0,0.1c0,0,0,0.1,0,0.1c0,0-0.1,0-0.1,0c0,0,0-0.1,0-0.1c0,0,0.1,0,0.1-0.1c0,0,0-0.1-0.1-0.1
	c-0.1,0-0.2,0-0.4,0.1c0,0,0,0,0.1,0l0,0c0,0-0.1,0-0.1,0c0,0.1,0,0.1-0.1,0.1c-0.1,0.1-0.1,0.1-0.2,0c0,0,0,0,0.1,0
	c0-0.1-0.1-0.1-0.1-0.1c0,0,0.1,0,0.1,0c-0.1,0-0.1,0-0.1,0c0,0,0,0.1,0,0.1c0,0.1,0,0.1-0.1,0.1c0,0-0.1,0-0.1,0c0,0,0-0.1,0.1-0.1
	c0,0,0,0,0,0c-0.1,0-0.2,0.1-0.3,0.1c0,0,0,0,0-0.1c0,0-0.1,0.1-0.1,0.1c0,0,0-0.1,0-0.1c-0.1,0-0.1,0-0.2,0.1c0,0,0,0,0,0
	c0,0,0,0-0.1,0.1c0,0,0,0,0,0c-0.1,0-0.1,0-0.2,0c0,0-0.1,0-0.1-0.1c0,0,0-0.1,0-0.1c0,0,0.1,0,0.1,0c0,0,0.1,0.1,0.1,0.1
	c0,0,0,0,0,0c0.1,0,0.2-0.1,0.3-0.1c0,0-0.1-0.1-0.1-0.1c0,0,0,0,0,0c0,0,0.1,0,0.1,0.1c-0.1-0.1-0.1-0.2-0.2-0.3l0,0c0,0,0,0,0.1,0
	c0,0,0-0.1,0-0.1c0-0.1,0-0.2,0.1-0.2c0.1,0.1,0.1,0.2-0.1,0.3c0,0.1,0,0.2,0,0.3c0,0,0-0.1,0-0.1l0,0c0,0,0,0.1,0,0.1
	c0,0,0,0,0-0.1c0,0.1,0,0.1,0.1,0.1c0-0.1,0-0.1,0-0.2c0,0,0-0.1,0-0.1c0,0,0,0,0,0c0,0,0,0.1,0,0.1c0,0.1-0.1,0.1,0,0.2
	c0,0.1,0.1,0,0.1,0c0.1,0,0.2-0.1,0.3-0.1c0,0-0.1,0-0.1,0c0,0.1-0.1,0-0.1,0c0,0-0.1-0.1-0.1-0.1c0,0,0,0,0,0c0,0,0.2-0.1,0.2,0
	c0,0.1,0.1,0.1,0.1,0.1c0,0,0-0.1,0-0.1c-0.1,0,0-0.1,0-0.1c0-0.1,0-0.1,0-0.1c0,0,0,0-0.1,0c0,0,0,0,0,0c0,0,0,0,0.1,0c0,0,0,0,0,0
	c0,0-0.1,0-0.1,0c0,0.1-0.1,0.1-0.2,0.1c-0.1,0,0-0.1,0-0.1c0,0,0,0,0,0c0.1,0,0.1,0,0.2,0c0,0,0,0,0,0c-0.1-0.1-0.1-0.1-0.2-0.1
	c0,0,0,0,0,0c0,0.1-0.1,0-0.1,0c0,0-0.1-0.1-0.1-0.1c0,0,0,0,0,0c0,0,0,0,0.1-0.1c0.1,0,0.1,0.1,0.2,0.1c0,0,0,0,0,0c0,0,0,0,0-0.1
	c-0.1,0,0-0.1,0-0.2c0,0,0-0.1,0-0.1c0,0,0,0,0,0c0,0,0,0,0,0c0,0,0.1,0.1,0.1,0.1c0,0,0,0.1-0.1,0.2c0.1,0.1,0.1,0.2,0.2,0.3
	c0-0.1,0-0.2-0.1-0.2c0,0,0.1,0,0.1,0c0-0.1,0-0.2,0-0.2c0-0.1,0-0.1,0-0.2c0-0.1,0.1-0.1,0.1-0.1c0,0,0,0,0.1,0.1
	c0,0.1,0,0.2-0.1,0.2c0,0.1,0,0.1,0,0.2c0,0,0.1,0,0.1,0c-0.1,0-0.1,0.1-0.1,0.2c0-0.1,0.1-0.2,0.1-0.2c-0.1-0.1-0.1-0.2,0-0.3
	c0,0,0,0,0,0c0,0,0.1,0.1,0.1,0.1c0,0,0,0.1-0.1,0.1c0,0,0,0,0,0.1l0,0c0,0,0,0.1-0.1,0.1c0,0,0,0,0.1,0c0,0-0.1,0.1-0.1,0.1
	c0,0.1,0.1,0.1,0.1,0.1c0,0,0,0.1,0,0.1c0,0,0,0,0,0c0.1,0.1,0.1,0.2,0.2,0.3c0,0,0,0,0,0c0-0.1,0-0.1,0-0.2c0,0,0,0,0-0.1
	c0-0.1,0-0.1,0-0.2l0,0c0,0.1,0,0.1,0,0.2c0,0,0.1,0,0.1,0c-0.1,0.1,0,0.2,0,0.2c0,0,0,0,0,0c0-0.1,0.1-0.2,0.1-0.2
	c-0.1-0.1-0.1-0.2,0-0.3c0,0,0,0,0,0c0.1,0.1,0.1,0.2,0,0.2c0,0,0,0,0,0.1c0,0,0,0,0,0c0.1-0.1,0.2-0.2,0.3-0.2c0,0,0.1-0.1,0-0.1
	c0,0-0.1,0.1-0.1,0.1c0,0-0.1,0-0.1-0.1c0.1-0.1,0.1-0.1,0.2,0c0-0.1,0-0.2-0.1-0.2c0,0,0.1,0,0.1,0c0,0,0,0,0,0c0,0-0.1,0-0.1,0
	C16,15.6,16,15.6,16,15.7c0,0-0.1,0-0.1-0.1c0,0,0-0.1,0.1-0.1c0,0,0.1,0,0.1,0.1c0,0,0.1,0,0.1,0c0-0.1-0.1-0.2-0.2-0.2
	c0,0-0.1,0-0.1,0c-0.1-0.1-0.1-0.2,0-0.2c0.1,0,0.1,0.1,0.2,0.1c0,0,0,0,0,0c0,0,0-0.1,0-0.1c0,0,0-0.1,0-0.2c0-0.1,0-0.2-0.1-0.2
	c0,0.1,0,0.1-0.1,0.2c0-0.1,0-0.1,0-0.2c0,0,0.1,0,0.1-0.1c0-0.1-0.1-0.1-0.1-0.1c0,0,0,0,0-0.1c0,0,0,0,0,0c0,0-0.1,0-0.1,0.1
	c0,0,0,0,0-0.1c0,0,0,0,0,0c-0.1,0-0.1,0-0.2,0c0,0-0.1,0-0.1,0.1c0,0,0,0.1-0.1,0.1c0,0-0.1,0-0.1,0c0,0,0-0.1,0-0.1
	c0,0,0.1,0,0.1,0c0,0,0.1,0,0.1,0c0,0,0,0,0-0.1l0,0c0.1,0,0.2,0.1,0.3,0.1c0,0,0,0,0-0.1l0,0c0,0,0,0,0,0c0-0.1,0-0.1,0-0.2l0,0
	c0,0,0,0,0,0c0,0,0,0.1-0.1,0.1c0,0,0.1,0,0.1,0c-0.1,0.1-0.1,0.2,0,0.3c0,0,0,0,0,0l0,0c0,0,0,0.1,0,0.1c0,0,0,0,0,0
	c0,0,0,0.1,0,0.1c0.1,0,0.1,0.1,0.1,0.1c0,0,0,0.1,0,0.1c0,0,0,0,0,0c0.1,0.1,0.1,0.2,0.2,0.3c0-0.1,0-0.2-0.1-0.3c0,0,0.1,0,0.1,0
	c0,0,0-0.1,0-0.1c0,0,0,0,0,0c0,0,0,0.1,0,0.1c0,0,0.1,0,0.1,0c-0.1,0-0.1,0-0.1,0.3C16.3,15.5,16.4,15.5,16.5,15.5
	c0-0.1,0-0.1,0-0.2c0.1-0.1,0.1-0.2,0-0.3c0,0.1,0.1,0.3,0,0.4c0.1,0,0.1,0,0.2-0.1l0,0c0,0.1,0,0.1,0.1,0c0.1,0,0.1,0,0.2,0.1
	c0,0,0,0,0,0.1c-0.1,0.1-0.1,0-0.2-0.1C16.6,15.3,16.5,15.4,16.5,15.5C16.4,15.5,16.5,15.5,16.5,15.5L16.5,15.5z"/>
<path class="st3" d="M14.9,15.2C14.9,15.2,14.9,15.2,14.9,15.2C14.9,15.2,14.8,15.2,14.9,15.2c-0.1,0.1-0.1,0.1-0.2,0.2
	c0,0,0-0.1,0-0.1C14.7,15.1,14.8,15.2,14.9,15.2c-0.1-0.1-0.2-0.1-0.2-0.1c0,0,0-0.1,0-0.1c0,0,0,0-0.1,0c0,0-0.1,0,0,0.1
	c0,0,0,0.1,0,0.1c0,0-0.1,0-0.1,0c0,0,0-0.2,0-0.2c0.1,0,0.1-0.1,0.1-0.1c0,0,0,0,0,0c-0.1,0-0.2,0.1-0.2,0.1c0,0.1,0,0.1,0,0.2
	c-0.1,0-0.1,0-0.2,0c0,0.1,0,0.2,0,0.3c0,0,0,0,0,0l0,0c0,0.1,0,0.1,0,0.1c0.1-0.2,0.1-0.2,0.2-0.1c0,0.1-0.1,0.1-0.1,0.1
	c0,0-0.1,0,0,0.1c0,0,0,0.1,0.1,0.1c0.1,0,0.1,0,0.1,0.1l0,0c-0.1,0.1-0.1,0.1-0.2-0.1c0,0,0,0,0-0.1c0,0-0.1,0-0.1,0l0,0
	c0,0,0,0,0-0.1c0,0-0.1-0.1-0.1,0c0,0.1-0.1,0-0.1,0c0-0.1,0.1-0.1,0.1-0.1c0,0,0.1,0,0.1,0c0-0.1-0.1-0.2-0.3-0.2
	c0,0,0.1,0,0.1-0.1c0,0,0,0,0,0c0,0,0,0,0,0c0.1,0,0.1,0.1,0.2,0.1c0-0.1,0-0.2-0.1-0.2c0,0,0,0,0.1,0c0-0.1-0.1-0.2,0-0.3
	c0,0,0,0,0,0c0,0.1,0,0.2,0.1,0.2c0.1,0,0.1,0,0.1,0c0,0,0-0.1,0.1-0.1c0,0,0.1,0,0.1,0c0,0,0,0,0,0c0,0-0.1,0-0.1,0
	c0,0-0.1-0.1-0.1-0.1c0,0,0-0.1,0-0.1c0,0,0.1,0,0.1,0c0,0,0,0.1,0,0.1c0,0,0,0,0,0c0,0,0.1,0,0.1,0c0,0,0.1,0,0.2,0
	c-0.1-0.1-0.1-0.1-0.2-0.1c0,0,0,0,0,0c0,0,0,0,0.1,0c0,0,0,0,0,0c0,0,0.1,0,0.1-0.1c0,0.1,0.1,0.2,0.1,0.2c0-0.1,0-0.2,0-0.3l0,0
	c0,0,0,0,0,0c0,0,0,0,0,0c0-0.1,0-0.1,0-0.2c0,0,0-0.1,0.1-0.1c0,0,0.1,0,0.1,0c0,0,0,0,0,0.1c0,0.1,0,0.1-0.1,0.1c0,0,0,0.1,0,0.1
	c0,0,0,0,0.1-0.1c0,0,0,0,0,0c0,0,0,0.1-0.1,0.1c0,0,0,0.1,0,0.1c0,0,0,0,0.1,0C14.8,14.9,14.8,15,14.9,15.2c0-0.1,0-0.1,0-0.2l0,0
	C14.9,15.1,14.9,15.1,14.9,15.2z"/>
<path class="st3" d="M15.5,14.7c0,0-0.1-0.1-0.1-0.1c0,0,0-0.1,0-0.1c-0.1,0-0.1-0.1-0.1-0.2c0,0,0,0,0,0c0,0,0.1,0.1,0.1,0.1
	c0,0,0,0,0,0c0,0,0,0,0,0.1c0,0,0,0,0,0c0,0,0,0,0-0.1c0-0.1,0.1-0.2,0.1-0.1c0,0,0,0,0,0.1c0,0,0,0.1,0,0.1l0,0c0,0-0.1,0.1-0.1,0
	C15.5,14.6,15.5,14.6,15.5,14.7C15.5,14.7,15.5,14.7,15.5,14.7L15.5,14.7z"/>
<path class="st3" d="M16.2,14.6c0,0,0,0.1-0.1,0.1c0,0,0,0.1,0,0.1c0,0,0-0.1-0.1-0.1c0,0-0.1,0-0.1,0c0,0-0.1,0-0.1,0
	c0,0,0-0.1,0-0.1c0,0,0.1,0,0.1,0c0,0,0.1,0.1,0.1,0.1c0,0,0,0,0,0.1c0,0,0,0,0,0c0,0,0-0.1,0-0.1c0,0,0-0.1,0-0.1
	c0,0,0.1-0.1,0.1-0.1c0,0,0,0,0,0C16.1,14.5,16.2,14.5,16.2,14.6z"/>
<path class="st3" d="M16.2,15.1c0-0.1,0-0.2,0-0.3c0-0.1,0-0.1,0-0.2c0,0,0,0,0,0c0,0,0.1,0,0.1,0c0,0,0,0,0,0c0,0,0,0.1,0,0.1
	c0,0-0.1,0-0.1,0.1C16.3,14.9,16.2,15,16.2,15.1C16.2,15.1,16.2,15.1,16.2,15.1z"/>
<path class="st3" d="M14.1,14.8c0-0.1,0-0.1,0-0.2c0,0-0.1-0.1-0.1-0.1c0,0,0-0.1,0-0.1c0,0,0,0,0,0c0,0,0.1,0,0.1,0.1
	c0,0,0,0.1,0,0.1C14.1,14.6,14.1,14.7,14.1,14.8C14.1,14.8,14.1,14.8,14.1,14.8z"/>
<path class="st3" d="M14.1,15C14.1,15,14.1,15,14.1,15C14.1,15,14.1,15,14.1,15c0-0.1,0-0.1,0-0.2c0,0,0,0,0,0c0,0,0,0,0,0
	C14.1,14.8,14.1,14.9,14.1,15C14.1,14.9,14.1,14.9,14.1,15c0-0.1,0-0.1,0-0.1c0,0,0,0,0,0c0,0,0.1,0,0.1,0c0,0,0,0.1,0,0.1
	C14.2,15,14.2,15,14.1,15z"/>
<path class="st3" d="M14.5,14.4c0,0.1,0,0.2,0,0.2c0,0-0.1,0-0.1,0c-0.1-0.1-0.1-0.1,0-0.2C14.4,14.3,14.5,14.5,14.5,14.4z"/>
<path class="st3" d="M15.6,16.2c0,0,0.1-0.1,0.1,0c0,0,0.1,0.1,0.1,0.1c0,0,0,0,0,0c0,0-0.1,0-0.1,0C15.7,16.4,15.6,16.3,15.6,16.2
	C15.6,16.2,15.6,16.2,15.6,16.2z"/>
<path class="st3" d="M13.8,14.5c0,0,0-0.1,0-0.1c0.1,0,0.1,0.1,0.1,0.2c0,0.1,0,0.1-0.1,0.1C13.9,14.7,13.8,14.6,13.8,14.5z"/>
<path class="st3" d="M16.1,15.5c0,0,0.1,0,0.1,0c0,0,0.1,0.1,0.1,0.1c0,0,0,0,0,0c0,0,0,0-0.1,0C16.2,15.6,16.2,15.6,16.1,15.5
	L16.1,15.5z"/>
<path class="st3" d="M13.9,14.9c0,0,0-0.1,0-0.1c0.1,0,0.1,0.1,0.1,0.1C14.1,15,14,15,13.9,14.9C14,15,13.9,15,13.9,14.9z"/>
<path class="st3" d="M15,14.7c-0.1,0-0.1,0.1-0.1,0c0,0,0-0.1,0-0.1c0-0.1,0.1-0.1,0.1,0C15.1,14.6,15,14.6,15,14.7z"/>
<path class="st3" d="M16.4,15.9c-0.1,0-0.1,0-0.1-0.1c0,0,0.1-0.1,0.1-0.1c0,0,0.1,0.1,0.1,0.1C16.4,15.8,16.4,15.9,16.4,15.9z"/>
<path class="st3" d="M13.9,15.3c0-0.1-0.1-0.1-0.1-0.1c0,0,0-0.1,0-0.1c0,0,0.1,0.1,0.1,0.2C14,15.3,14,15.3,13.9,15.3z"/>
<path class="st3" d="M14.2,14.6c0,0,0-0.1,0.1-0.1c0,0,0.1,0,0.1,0c0,0,0,0.1,0,0.1C14.3,14.6,14.3,14.6,14.2,14.6
	C14.2,14.6,14.2,14.6,14.2,14.6z"/>
<path class="st3" d="M15.3,14.7c0,0-0.1,0-0.1,0c0-0.1,0-0.1,0-0.1c0,0,0.1,0,0.1,0c0,0,0,0,0,0C15.3,14.6,15.3,14.6,15.3,14.7
	C15.3,14.7,15.3,14.7,15.3,14.7L15.3,14.7z"/>
<path class="st3" d="M15.3,15C15.3,14.9,15.3,14.9,15.3,15c0.1-0.1,0.2-0.1,0.2,0c0,0.1-0.1,0.2-0.1,0.1C15.3,15.1,15.3,15,15.3,15z
	"/>
<path class="st3" d="M15.6,14.4C15.7,14.4,15.7,14.4,15.6,14.4c0.1-0.1,0.2,0,0.2,0c0,0,0,0,0,0.1C15.8,14.5,15.7,14.5,15.6,14.4
	C15.7,14.5,15.7,14.5,15.6,14.4z"/>
<path class="st3" d="M16.3,15.3C16.3,15.3,16.3,15.3,16.3,15.3c0-0.1,0-0.2,0.1-0.2c0,0,0,0,0,0c0,0,0,0.1,0,0.1
	C16.4,15.3,16.3,15.3,16.3,15.3L16.3,15.3z"/>
<path class="st3" d="M16.1,16.1c0,0-0.1-0.1-0.1-0.1c0-0.1,0-0.1,0.1-0.1c0,0,0,0.1,0,0.1C16.2,16,16.2,16,16.1,16.1z"/>
<path class="st3" d="M14.9,15c0-0.1,0-0.2,0-0.2c0,0,0,0,0.1,0C15,14.9,15,14.9,14.9,15C15,15,14.9,15,14.9,15L14.9,15z"/>
<path class="st3" d="M13,13.4C13,13.5,13,13.5,13,13.4c0,0.1,0,0.1,0,0.2c0,0,0-0.1,0.1-0.1c0,0.1,0.1,0.2,0.2,0.2c0,0,0,0,0-0.1
	l0,0c0,0,0.1,0.1,0.1,0.1c0,0,0,0,0,0c0,0,0,0,0,0c0.1,0.1,0.1,0.1,0.2,0.2c0-0.1,0-0.3,0-0.4c0,0,0,0,0,0c0.1-0.1,0-0.3-0.1-0.4
	c0,0,0.1,0,0.1,0c0,0,0,0,0-0.1c0,0,0-0.1,0.1-0.1c0.1,0,0.1,0.1,0.1,0.2c0,0,0,0.1,0,0.1l0,0c0,0,0,0.1,0,0.1
	c0.1,0,0.1-0.1,0.2-0.1c0,0,0,0,0,0c0,0-0.1,0-0.1,0c0,0,0,0,0.1,0c-0.1,0-0.1,0-0.1,0c0,0,0.1,0,0.1,0.1c-0.1,0-0.1,0-0.2,0.1
	c0.1,0,0.1,0,0.1,0c0,0,0.1,0,0.1,0.1c0,0,0,0.1,0,0.1c0,0-0.1,0-0.1,0c0,0,0-0.1-0.1-0.1c0,0-0.1,0-0.1,0.1c0,0.2,0,0.3,0.1,0.5
	c0,0,0-0.1,0-0.1l0,0c0,0.1,0,0.1,0,0.2c0.1,0,0.1,0,0.1,0.1c0.1,0.1,0.1,0.1,0,0.2c0,0,0,0,0-0.1c-0.1,0-0.1,0.1-0.1,0.2
	c0,0,0-0.1,0-0.2c0,0.1,0,0.1,0,0.2c0,0,0.1,0,0.1,0c0.1,0,0.1,0,0.1,0.1c0,0,0,0.1,0,0.1c0,0-0.1,0-0.1-0.1c0,0,0,0,0,0
	c0,0.1,0.1,0.3,0.1,0.4c0,0,0,0-0.1,0c0,0,0.1,0.1,0.1,0.1c0,0-0.1,0-0.1,0c0,0.1,0,0.2,0.1,0.3c0,0,0,0,0,0c0,0,0,0.1,0.1,0.1
	c0,0,0,0,0,0c0,0.1,0,0.2,0,0.3c0,0,0,0.1-0.1,0.1c0,0-0.1,0-0.1,0c0,0,0-0.1,0-0.1c0,0,0.1-0.1,0.1-0.1c0,0,0,0,0,0
	c0-0.1-0.1-0.2-0.1-0.3c0,0.1-0.1,0.1-0.1,0.1c0,0,0,0,0,0c0,0,0-0.1,0.1-0.1c-0.1,0.1-0.2,0.1-0.3,0.2l0,0c0,0,0,0,0-0.1
	c0,0-0.1,0-0.1,0c-0.1,0-0.2,0-0.2-0.1c0.1-0.1,0.2-0.1,0.3,0.1c0.1,0,0.2,0,0.3-0.1c0,0-0.1,0-0.1-0.1l0,0c0,0,0.1,0,0.1,0
	c0,0,0,0-0.1-0.1c0.1,0,0.1,0,0.1-0.1c-0.1,0-0.1,0-0.2,0c0,0-0.1,0-0.1,0c0,0,0,0,0,0c0,0,0.1,0,0.1,0c0.1,0,0.1,0.1,0.2,0
	c0.1,0,0-0.1,0-0.2c0-0.1-0.1-0.2-0.1-0.3c0,0.1,0,0.1,0,0.2c0.1,0,0,0.1,0,0.1c0,0-0.1,0.1-0.1,0.1c0,0,0,0,0,0c0,0-0.1-0.2,0-0.2
	c0.1,0,0.1-0.1,0.1-0.2c0,0-0.1,0-0.1,0.1c0,0.1-0.1,0.1-0.1,0c-0.1,0-0.1,0-0.1,0.1c0,0,0,0.1,0,0.1c0,0,0,0,0,0c0,0,0-0.1,0-0.1
	c0,0,0,0,0,0c0,0,0,0.1,0,0.1c0.1,0.1,0.1,0.1,0.1,0.2c0,0.1-0.1,0-0.1,0c0,0,0,0,0,0c0-0.1,0-0.2,0-0.3c0,0,0,0,0,0
	C13.1,14.9,13,15,13,15.1c0,0,0,0,0,0c0.1,0,0,0.1,0,0.1c0,0-0.1,0.1-0.1,0.1c0,0,0,0,0,0c0,0,0-0.1-0.1-0.1c0-0.1,0.1-0.2,0.1-0.3
	c0,0,0,0,0,0c0,0,0,0-0.1,0c0,0.1-0.1,0-0.2,0c0,0-0.1,0-0.1,0c0,0,0,0,0,0c0,0,0,0,0,0c0,0,0.1-0.1,0.1-0.1c0,0,0.1,0,0.2,0.1
	c0.1-0.1,0.2-0.2,0.3-0.2c-0.1,0-0.2,0-0.2,0.1c0,0,0-0.1,0-0.1c-0.1,0-0.2,0-0.2,0c-0.1,0-0.1,0-0.2,0c-0.1,0-0.1-0.1-0.1-0.1
	c0,0,0,0,0.1-0.1c0.1,0,0.2,0,0.2,0.1c0.1,0,0.1,0,0.2,0c0-0.1,0-0.1,0-0.1c0,0.1,0.1,0.1,0.2,0.1c-0.1-0.1-0.2-0.1-0.2-0.2
	c-0.1,0.1-0.2,0.1-0.3,0c0,0,0,0,0,0c0,0,0.1-0.1,0.1-0.1c0,0,0.1,0,0.1,0.1c0,0,0,0,0.1,0l0,0c0,0,0.1,0.1,0.1,0.1c0,0,0,0,0-0.1
	c0,0.1,0.1,0.1,0.1,0.2c0.1,0,0.1-0.1,0.1-0.1c0,0,0.1,0,0.1,0c0,0,0,0,0,0c0.1-0.1,0.2-0.1,0.3-0.2c0,0,0,0,0,0
	c-0.1,0-0.1,0-0.2,0.1c0,0,0,0-0.1,0c-0.1,0-0.1,0-0.2,0l0,0c0.1,0,0.1,0,0.2,0c0,0,0-0.1,0-0.1c0.1,0.1,0.2,0,0.2,0.1c0,0,0,0,0,0
	c-0.1-0.1-0.2-0.1-0.2-0.2c-0.1,0.1-0.2,0.1-0.3,0c0,0,0,0,0,0c0.1-0.1,0.2-0.1,0.2,0c0,0,0,0,0.1,0c0,0,0,0,0,0
	c-0.1-0.1-0.2-0.2-0.2-0.3c0,0-0.1-0.1-0.1,0c0,0,0.1,0.1,0.1,0.1c0,0,0,0.1-0.1,0.1c-0.1-0.1-0.1-0.1,0-0.3c-0.1,0-0.2,0-0.2,0.1
	c0,0,0-0.1,0-0.1c0,0,0,0,0,0c0,0,0,0.1,0,0.1c0.1,0.1,0.1,0.1,0.1,0.2c0,0,0,0.1-0.1,0.1c0,0-0.1,0-0.1-0.1c0-0.1,0-0.1,0.1-0.2
	c0,0,0-0.1,0-0.1c-0.1,0.1-0.2,0.2-0.2,0.3c0,0.1,0,0.1,0,0.2c-0.1,0.1-0.2,0.1-0.2,0c0-0.1,0.1-0.2,0.1-0.3c0,0,0,0,0,0
	c0,0-0.1,0-0.1,0.1c0,0-0.1,0-0.2,0c-0.1,0-0.2,0-0.2,0.1c0.1,0,0.1,0,0.2,0.1c-0.1,0-0.1,0-0.2,0c0,0,0-0.1-0.1-0.2
	c-0.1,0-0.1,0.1-0.1,0.2c0,0,0,0-0.1,0c0,0,0,0,0,0c0,0,0,0.1,0.1,0.1c0,0,0,0-0.1,0c0,0,0,0,0,0c0,0.1,0,0.1,0,0.2
	c0,0,0,0.1,0.1,0.1c0,0,0.1,0,0.1,0.1c0,0,0,0.1,0,0.1c0,0-0.1,0-0.1,0c0,0,0-0.1,0-0.1c0,0,0-0.1,0-0.1c0,0,0,0-0.1,0l0,0
	c0-0.1,0.1-0.2,0.1-0.3c0,0,0,0-0.1,0l0,0c0,0,0,0,0,0c-0.1,0-0.1,0-0.2,0l0,0c0,0,0,0,0-0.1c0,0,0.1,0,0.1,0.1c0,0,0-0.1,0-0.1
	c0.1,0.1,0.2,0.1,0.3,0c0,0,0,0,0-0.1l0,0c0,0,0.1,0,0.1,0c0,0,0,0,0,0c0,0,0.1,0,0.1,0c0-0.1,0.1-0.1,0.1-0.1c0,0,0.1,0,0.1,0.1
	c0,0,0,0,0,0c0.1-0.1,0.2-0.1,0.3-0.2c-0.1,0-0.2,0-0.3,0.1c0-0.1,0-0.1,0-0.1c0,0-0.1,0-0.1,0c0,0,0,0,0,0c0,0,0.1,0,0.1,0
	c0,0,0-0.1,0-0.1c0,0.1,0,0.1,0.3,0.1C13,13.6,13,13.6,13,13.4c-0.1,0.1-0.1,0-0.2,0c-0.1-0.1-0.2-0.1-0.3-0.1
	c0.1-0.1,0.3-0.1,0.4,0c0-0.1,0-0.1-0.1-0.2l0,0c0.1,0,0.1,0,0-0.1c0-0.1,0-0.2,0.1-0.2c0,0,0,0,0.1,0c0.1,0.1,0,0.2-0.1,0.2
	C12.8,13.3,12.9,13.4,13,13.4C13,13.5,13,13.5,13,13.4L13,13.4z"/>
<path class="st3" d="M12.7,15C12.7,15,12.7,15.1,12.7,15c0,0.1,0,0.1,0,0.1c0.1,0,0.1,0,0.2,0.1c0,0-0.1,0-0.1,0
	C12.6,15.3,12.7,15.2,12.7,15c-0.1,0.1-0.1,0.2-0.1,0.3c0,0-0.1,0-0.1-0.1c0,0,0,0.1,0,0.1c0,0,0,0.1,0.1,0c0,0,0.1,0,0.1,0
	c0,0,0,0.1,0,0.1c0,0.1-0.2,0-0.2-0.1c0-0.1-0.1-0.1-0.1-0.1c0,0,0,0,0,0c0,0.1,0.1,0.2,0.1,0.3c0.1,0,0.1,0,0.2,0.1
	c0,0.1,0,0.2,0,0.2c0.1,0,0.2,0,0.3-0.1c0,0,0,0,0,0l0,0c0.1,0,0.1,0,0.1,0c-0.2-0.2-0.2-0.2-0.1-0.3c0.1,0.1,0.1,0.1,0.1,0.2
	c0,0,0,0.1,0.1,0.1c0,0,0.1-0.1,0.1-0.1c0-0.1,0-0.2,0.1-0.2l0,0c0.1,0.1,0.1,0.1-0.1,0.2c0,0,0,0-0.1-0.1c0,0.1,0,0.1,0,0.1l0,0
	c0,0,0,0-0.1,0c0,0.1-0.1,0.1,0,0.2c0.1,0,0,0.1,0,0.2c-0.1,0-0.1-0.1-0.1-0.2c0-0.1,0-0.1,0-0.1c-0.1,0-0.2,0.2-0.2,0.4
	c0,0,0-0.1-0.1-0.1c0,0,0,0,0,0.1c0,0,0,0,0,0c0-0.1,0.1-0.2,0.1-0.2c-0.1,0-0.2,0-0.2,0.1c0,0,0,0,0-0.1c-0.1,0-0.2,0.1-0.3,0
	c0,0,0,0,0,0c0.1,0,0.2,0,0.2-0.1c0-0.1,0-0.1,0-0.1c0,0-0.1-0.1-0.1-0.1c0,0,0-0.1,0-0.2c0,0,0,0,0,0c0,0,0,0.1,0,0.1
	c0,0-0.1,0.1-0.1,0.1c0,0-0.1,0-0.1,0c0,0,0-0.1,0-0.1c0,0,0.1,0,0.1-0.1c0,0,0,0,0,0c0-0.1,0-0.1,0-0.2c0-0.1,0-0.1,0-0.2
	c-0.1,0.1-0.1,0.1-0.1,0.2c0,0,0,0,0,0c0,0,0,0,0-0.1c0,0,0,0,0,0.1c0,0,0-0.1-0.1-0.1c0.1,0,0.2-0.1,0.2-0.2c-0.1,0-0.2,0-0.3,0.1
	l0,0c0,0,0,0,0,0c0,0,0,0,0,0c-0.1,0-0.1,0-0.2,0c0,0-0.1,0-0.1-0.1c0,0,0-0.1,0-0.1c0,0,0,0,0.1,0c0.1,0,0.1,0.1,0.1,0.2
	c0,0,0.1,0,0.1,0c0,0,0-0.1-0.1-0.1c0,0,0,0,0,0c0,0,0.1,0,0.1,0.1c0,0,0.1,0,0.1,0c0,0,0-0.1,0-0.1C12.4,15.2,12.5,15.2,12.7,15
	c-0.1,0-0.1,0-0.2,0l0,0C12.5,15.1,12.6,15,12.7,15z"/>
<path class="st3" d="M12.2,14.2c0,0.1-0.1,0.1-0.1,0.2c0,0-0.1,0-0.1,0c0,0.1-0.1,0.1-0.2,0.1c0,0,0,0,0,0c0,0,0.1-0.2,0.1-0.2
	c0,0,0,0,0,0c0,0,0,0,0.1,0c0,0,0,0,0,0c0,0,0,0-0.1,0c-0.1,0-0.2-0.1-0.1-0.2c0,0,0,0,0.1,0c0,0,0.1,0,0.1,0l0,0
	c0,0.1,0.1,0.1,0,0.2C12.1,14.3,12.1,14.3,12.2,14.2C12.1,14.3,12.2,14.2,12.2,14.2L12.2,14.2z"/>
<path class="st3" d="M12.1,13.4c0,0,0.1,0.1,0.1,0.1c0,0,0.1,0,0.1-0.1c0,0-0.1,0.1-0.1,0.1c0,0,0,0.1,0,0.1c0,0,0,0.1,0,0.2
	c0,0-0.1,0-0.1,0c0,0,0-0.1,0-0.1c0,0,0.1-0.1,0.1-0.1c0,0,0,0,0.1-0.1c0,0,0,0,0,0c0,0-0.1,0-0.1,0c0,0-0.1,0-0.1,0
	c0,0-0.1-0.1-0.1-0.1c0,0,0,0,0,0C12,13.4,12,13.4,12.1,13.4z"/>
<path class="st3" d="M12.6,13.3c-0.1,0-0.2,0-0.3,0c-0.1,0-0.1,0-0.2,0c0,0,0,0,0,0c0,0,0-0.1,0-0.1c0,0,0,0,0,0c0,0,0.1,0,0.1,0
	c0,0,0,0.1,0.1,0.1C12.4,13.3,12.5,13.3,12.6,13.3C12.6,13.3,12.6,13.3,12.6,13.3z"/>
<path class="st3" d="M12.5,16.1C12.5,16.1,12.5,16.1,12.5,16.1C12.5,16.1,12.5,16.1,12.5,16.1c-0.1,0.1-0.1,0.1-0.2,0.1c0,0,0,0,0,0
	c0,0,0,0,0,0C12.3,16.1,12.3,16.1,12.5,16.1C12.4,16.1,12.4,16.1,12.5,16.1c-0.1,0-0.1,0-0.1,0c0,0,0,0,0,0c0,0,0-0.1,0-0.1
	c0,0,0.1,0,0.1,0C12.5,15.9,12.5,16,12.5,16.1z"/>
<path class="st3" d="M11.9,15.6c0.1,0,0.2-0.1,0.2,0c0,0,0,0.1,0,0.1c-0.1,0.1-0.1,0.1-0.2,0C11.8,15.7,12,15.7,11.9,15.6z"/>
<path class="st3" d="M13.7,14.1c0-0.1-0.1-0.1,0-0.2c0,0,0.1-0.1,0.1-0.1c0,0,0,0,0,0c0,0,0,0.1,0,0.1C13.8,14,13.8,14.1,13.7,14.1
	C13.7,14.1,13.7,14.1,13.7,14.1z"/>
<path class="st3" d="M12,16.5c0,0-0.1,0-0.1,0c0-0.1,0.1-0.2,0.2-0.2c0.1,0,0.1,0.1,0.1,0.1C12.1,16.4,12,16.5,12,16.5z"/>
<path class="st3" d="M13,13.4c0-0.1,0-0.1,0-0.2c0,0,0.1-0.1,0.1-0.1c0,0,0,0,0,0c0,0,0,0.1,0,0.1C13.1,13.3,13,13.4,13,13.4
	L13,13.4z"/>
<path class="st3" d="M12.1,15.3c0,0,0,0.1,0,0.1c0,0.1-0.1,0.1-0.2,0.1c0,0,0,0,0,0C11.9,15.3,12,15.3,12.1,15.3
	C12.1,15.3,12.1,15.3,12.1,15.3C12.1,15.3,12.1,15.3,12.1,15.3z"/>
<path class="st3" d="M12.2,14.9c0,0.1,0.1,0.2,0,0.2c0,0-0.1,0-0.1,0c-0.1,0-0.1-0.1,0-0.2C12,14.8,12.1,14.9,12.2,14.9z"/>
<path class="st3" d="M13.4,13.1c0,0.1,0,0.1-0.1,0.1c0,0-0.1-0.1-0.1-0.1c0,0,0.1-0.1,0.1-0.1C13.3,13,13.4,13.1,13.4,13.1z"/>
<path class="st3" d="M13.2,16.5C13.2,16.5,13.1,16.5,13.2,16.5c-0.1,0.1-0.2,0-0.2-0.1c0,0,0.1-0.1,0.1-0.1c0,0,0.1,0,0.1,0
	C13.2,16.4,13.2,16.4,13.2,16.5z"/>
<path class="st3" d="M12.1,16c0,0-0.1,0-0.1-0.1c0,0,0-0.2,0-0.2c0,0,0.1,0,0.1,0.1c0,0,0,0,0,0.1C12.1,16,12.1,16,12.1,16z"/>
<path class="st3" d="M12.2,14.5c0,0.1,0,0.1,0,0.2c-0.1,0.1-0.1,0-0.1,0c0,0,0-0.1,0-0.1c0,0,0,0,0-0.1C12,14.6,12.1,14.6,12.2,14.5
	C12.2,14.6,12.2,14.6,12.2,14.5L12.2,14.5z"/>
<path class="st3" d="M12.4,14.6c0,0-0.1-0.1-0.1-0.1c0,0,0-0.1,0.1-0.1c0.1,0,0.2,0.1,0.1,0.1C12.5,14.5,12.5,14.6,12.4,14.6z"/>
<path class="st3" d="M11.9,14.1c0,0-0.1-0.1-0.1-0.1c-0.1-0.1,0-0.1,0-0.1c0,0,0,0,0.1,0C12,13.9,12,14,11.9,14.1
	C11.9,14,11.9,14.1,11.9,14.1z"/>
<path class="st3" d="M12.8,13.2C12.8,13.2,12.8,13.2,12.8,13.2c-0.1,0-0.2,0-0.2-0.1c0,0,0,0,0,0c0,0,0.1,0,0.1,0
	C12.7,13.1,12.8,13.1,12.8,13.2L12.8,13.2z"/>
<path class="st3" d="M13.6,13.4c0,0-0.1,0.1-0.1,0.1c-0.1,0-0.1-0.1-0.1-0.1c0,0,0.1-0.1,0.1,0C13.5,13.3,13.5,13.4,13.6,13.4z"/>
<path class="st3" d="M12.5,15.1c-0.1,0-0.2,0-0.2-0.1c0,0,0-0.1,0-0.1c0,0,0.1,0,0.1,0C12.5,15,12.5,15,12.5,15.1L12.5,15.1z"/>
<path class="st4" d="M23.6,6.2c0.1,0,0.3,0,0.4,0c0,0,0,0,0.1,0c0.4,0.1,0.8,0.3,1.1,0.6c0.1,0.1,0.1,0.2,0.2,0.3c0,0,0,0,0.1,0
	c0.5-0.2,0.9-0.3,1.4-0.1c0.5,0.2,0.9,0.5,1.1,0.9C28,8,28.1,8,28.2,8c1,0.2,1.7,1.2,1.4,2.2c0,0.1-0.1,0.3,0.1,0.4c0,0,0,0,0,0.1
	c0.3,0.5,0.4,1.1,0.1,1.6c-0.2,0.5-0.5,0.8-1,1c0,0-0.1,0.1-0.1,0.1c-0.1,0.4-0.2,0.7-0.5,1c-0.5,0.6-1.3,0.7-2,0.5
	c-0.1,0-0.2-0.1-0.3-0.2c-0.2,0.2-0.3,0.3-0.5,0.5c-0.2,0.2-0.3,0.4-0.4,0.6c0,0.4-0.1,0.8,0,1.2c0.1,0.5,0.2,1,0.3,1.5
	c-0.7,0-1.4,0-2.2,0c0,0,0,0,0-0.1c0.1-0.4,0.2-0.9,0.3-1.3c0.1-0.8,0-1.5,0-2.3c0,0,0,0-0.1-0.1c-0.1,0-0.2,0-0.2,0
	c-0.2-0.1-0.5-0.3-0.7-0.4c-0.1,0-0.1,0-0.2,0c-0.2,0.1-0.4,0.1-0.5,0.2c-1.1,0.1-2-0.7-2-1.8c0-0.1,0-0.1-0.1-0.2
	c-0.1-0.1-0.2-0.2-0.3-0.4c-0.3-0.6-0.4-1.1-0.1-1.7c0.1-0.3,0.3-0.5,0.6-0.7C20,9.6,20,9.6,20,9.5c0-0.4,0.1-0.9,0.4-1.2
	c0.4-0.5,0.9-0.7,1.5-0.7c0.1,0,0.1,0,0.1-0.1c0.2-0.7,0.6-1.2,1.3-1.4C23.5,6.2,23.6,6.2,23.6,6.2z M25.2,13.4
	c-0.1,0-0.1,0-0.1,0.1c-0.1,0-0.1,0.1-0.1,0.2c0,0.2-0.1,0.4-0.1,0.5c0,0.2,0,0.3,0,0.5c0,0.1,0.1,0.2,0.2,0.1
	c0.2-0.1,0.4-0.2,0.6-0.4C25.5,14.1,25.3,13.8,25.2,13.4z M23.6,13.5c0,0.1,0.1,0.1,0.1,0.2c0.1,0.2,0.3,0.5,0.4,0.7
	c0.1,0.2,0.2,0.1,0.3,0c0.1-0.2,0.1-0.3,0.2-0.5c0,0,0-0.1,0-0.2C24.2,13.7,23.9,13.6,23.6,13.5z M23.6,14.3
	c-0.1-0.3-0.2-0.5-0.4-0.7c-0.1,0.2-0.2,0.3-0.4,0.5C23.1,14.1,23.4,14.3,23.6,14.3z"/>
<path class="st4" d="M3.5,16.4c-0.2-0.5-0.3-0.9-0.5-1.3c-0.2,0.2-0.4,0.4-0.7,0.6C2.7,15.9,3,16.1,3.5,16.4z M2.7,13.6
	c0.4-0.3,0.9-0.1,1-0.7C3.4,13.2,2.7,12.5,2.7,13.6z M2.7,11.5c0.2-0.8,0.4-1.4,1.2-1.9c0.3,0.8,0.6,1.5,0.8,2.5
	c0.6,0.6,0.4,1.7,0.5,2.7c0.2,1.2-0.7,1.7-1.3,2.4c0,0.1,0.1,0.1,0.1,0.2c0.4-0.1,0.9-0.2,1.3-0.3c0.4-0.1,0.6,0.2,0.7,0.6
	c-0.2,0-0.3,0.1-0.5,0.1c-1.4,0-2.8-0.1-4.2-0.2c-0.4,0-0.6,0.1-0.5,0.6c0,0.2,0,0.4,0,0.6c-0.1,0-0.1,0-0.2,0c0-0.4,0.1-0.7,0-1.1
	c-0.1-0.5-0.5-1-0.5-1.6c-0.1-1.5-0.3-2.9,0-4.4C0.3,10.8,0.3,9.9,0.5,9c0.1-0.8,0.4-1.6,0.7-2.4C1.2,7,1.3,7.5,1.3,8
	c0,1.8,0.1,3.7,0.1,5.5c0,0.6,0.3,1.2,0.2,1.7c-0.1,0.6,0.1,1.4-0.5,1.9C1,17.2,1,17.3,0.9,17.5c0.9-0.1,1.8-0.2,2.7-0.2
	C3.4,17.1,3.4,17,3.3,17c-0.7-0.4-1-1.1-1-1.8c-0.1-0.9,0.1-1.8,0.3-2.7C2.5,12.1,2.6,11.8,2.7,11.5c0.2,0.1,0.3,0.2,0.5,0.4
	c0,0.1,0,0.2-0.1,0.3c0.1,0,0.2,0.1,0.2,0c0-0.1,0.1-0.2,0.1-0.4c0-0.2,0-0.4,0-0.6C3.2,11.4,2.9,11.5,2.7,11.5z"/>
</svg>
