<?xml version="1.0" encoding="utf-8"?>
<!-- Generator: Adobe Illustrator 16.0.0, SVG Export Plug-In . SVG Version: 6.00 Build 0)  -->
<!DOCTYPE svg PUBLIC "-//W3C//DTD SVG 1.1//EN" "http://www.w3.org/Graphics/SVG/1.1/DTD/svg11.dtd">
<svg version="1.1" id="Calque_1" xmlns="http://www.w3.org/2000/svg" xmlns:xlink="http://www.w3.org/1999/xlink" x="0px" y="0px"
	 width="116.7px" height="64px" viewBox="0 0 116.7 64" style="enable-background:new 0 0 116.7 64;" xml:space="preserve">
<style type="text/css">
<![CDATA[
	.st0{fill:none;stroke:#6E8934;stroke-width:0.5;stroke-linecap:round;stroke-linejoin:round;stroke-miterlimit:10;}
	.st1{fill:#6E8934;}
]]>
</style>
<g>
	<g>
		<g>
			<g>
				<path id="p2_4_" class="st1" d="M111.8,40.2c5.2,2.7,6.5,9.8,2.9,14.4c-2.7,3.7-7.1,4-11.3,2.9c-2.8-1.2-5.4-3.3-8-4.9
					c-0.5,3.1-0.1,7-2.5,9.3c-2.4,2.5-5.8,2-8.9,2.1c-11.4-0.2-22.9,0.1-34.3-0.2c0.4-1.9-0.4-5.6,1.6-6.6
					c6.3-0.9,12.9,0.3,19.3-0.6c4.6-0.7,9.1-1.9,13.6-2.8c-0.2-1.3-0.3-2.6-0.5-3.9c-4.3,1-8.7,2.1-13.1,2.8
					c-6.2,0.9-12.6-0.2-18.7,0.4c-2.5,0.3-4.9,1.6-5.7,4.2c-0.5,2.2-0.5,4.5-0.6,6.7c-13.9-0.1-27.8,0.1-41.7-0.1
					c-4.4,0.1-5.3-5.8-2.4-8.2C7,54,12.6,53,18.1,52.2c10.7-1.7,21.4-3.4,32.1-5C55.1,46.7,60.1,47,65,47c7.4,0.1,14.7-0.1,22.1,0
					c4-0.2,5.6,3,9.4,4.2c0.5-1.8,0.8-3.7,1.4-5.5C99.3,40.1,106.9,37.3,111.8,40.2z"/>
			</g>
			<path class="st0" d="M60.7,47.5"/>
			<path class="st0" d="M106,41.6"/>
			<path class="st0" d="M63.9,47.4"/>
			<path class="st0" d="M69.6,47.4"/>
			<path class="st0" d="M73.1,47.5"/>
			<path class="st0" d="M75.8,47.4"/>
			<path class="st0" d="M106.9,41.6"/>
			<path class="st0" d="M109.3,41.6"/>
			<path class="st0" d="M107.1,40.9"/>
		</g>
	</g>
	<g>
		<g>
			<path class="st1" d="M82.1,0c0,0,0.4,5.2,0.5,6.2C82.6,7.3,83,9,83,9.7c0,0.7,0.3,0.3,0.3,2.2c-0.1,1.9-0.2,1.5-0.4,2
				c-0.2,0.4-0.9,3.3-2.2,4.3c-0.4,0.4-0.4,0.5-0.8,0.8s-1,1.1-1.2,1.6c-0.2,0.5-0.2,1.3-0.5,1.5c-0.3,0.2-0.2,1.2-0.4,1.6
				c0,0-0.1,0.4,0.1,0.7c0.2,0.4,1.2,1.5,1.2,2c0,0.6-0.3,1-1,1c0,0-0.6-1.4-1.2-1.7c0,0-0.4,0.6-0.9,0.6v0.1c0,0,0.9,1.2,1,1.8
				c0.1,0.5,0.5,2.2-1,1.8l-0.3-0.4c0,0,0,1.2-0.4,1.5c-0.5,0.2-0.7,0.1-0.7,0.1s0,0.2-0.2-0.2c0,0-0.2,0.8-0.6,0.8
				c-0.4,0.1-0.6,0-0.6,0s-0.6-0.6-0.6-1.5c0,0,0-0.1-0.2-0.4c-0.2-0.2-0.6-1-0.6-2.1s-0.4-2.2-0.8-2.8c-0.4-0.6-0.3-0.9-0.3-1.6
				c0-0.7,0.3-2.3,0.3-2.3s0.7-1.2,0.6-2.9c0-1.7,0.2-1.8,0.6-2.2c0.4-0.5,3.9-4.8,4.4-6.5c0.5-1.6,0.7-2.3,0-5.3
				C75.8,1.4,75.5,0,75.5,0H82.1z"/>
			<path class="st1" d="M88.6,0c0,0-0.4,5.2-0.5,6.2c0,1.1-0.4,2.7-0.4,3.4c0,0.7-0.3,0.3-0.3,2.2c0.1,1.9,0.2,1.5,0.4,2
				c0.2,0.4,0.9,3.3,2.2,4.3c0.4,0.4,0.4,0.5,0.8,0.8c0.4,0.3,1,1.1,1.2,1.6c0.2,0.5,0.2,1.3,0.5,1.5s0.2,1.2,0.4,1.6
				c0,0,0.1,0.4-0.1,0.7c-0.2,0.4-1.2,1.5-1.2,2c0,0.6,0.3,1,1,1c0,0,0.6-1.4,1.2-1.7c0,0,0.4,0.6,0.9,0.6v0.1c0,0-0.9,1.2-1,1.8
				c-0.1,0.5-0.5,2.2,1,1.8l0.3-0.4c0,0,0,1.2,0.4,1.5c0.5,0.2,0.7,0.1,0.7,0.1s0,0.2,0.2-0.2c0,0,0.2,0.8,0.6,0.8
				c0.4,0.1,0.6,0,0.6,0s0.6-0.6,0.6-1.5c0,0,0-0.1,0.2-0.4c0.2-0.2,0.6-1,0.6-2.1c0-1.1,0.4-2.2,0.8-2.8c0.4-0.6,0.3-0.9,0.3-1.6
				c0-0.7-0.3-2.3-0.3-2.3s-0.7-1.2-0.6-2.9c0-1.7-0.2-1.8-0.6-2.2c-0.4-0.5-3.9-4.8-4.4-6.5c-0.5-1.6-0.7-2.3,0-5.3
				C94.9,1.4,95.2,0,95.2,0H88.6z"/>
		</g>
		<circle class="st1" cx="80.2" cy="34.3" r="2.9"/>
		<circle class="st1" cx="87.3" cy="35.2" r="1.9"/>
		<circle class="st1" cx="91.8" cy="39.6" r="2.6"/>
		<circle class="st1" cx="82.4" cy="41.3" r="1.7"/>
		<circle class="st1" cx="88.2" cy="29.7" r="1.8"/>
	</g>
</g>
</svg>
