<?xml version="1.0" encoding="utf-8"?>
<!-- Generator: Adobe Illustrator 19.2.1, SVG Export Plug-In . SVG Version: 6.00 Build 0)  -->
<svg version="1.1" id="Calque_1" xmlns="http://www.w3.org/2000/svg" xmlns:xlink="http://www.w3.org/1999/xlink" x="0px" y="0px"
	 viewBox="0 0 30.1 28.9" style="enable-background:new 0 0 30.1 28.9;" xml:space="preserve">
<style type="text/css">
	.st0{fill-rule:evenodd;clip-rule:evenodd;fill:none;stroke:#6E8935;stroke-width:0.1815;stroke-miterlimit:10;}
	.st1{fill:#6E8935;}
	.st2{fill:#FFFFFF;stroke:#6E8935;stroke-width:6.049313e-002;stroke-miterlimit:10;}
	.st3{fill:#FFFFFF;}
</style>
<g>
	<circle class="st0" cx="14.5" cy="14.5" r="14.4"/>
	<g>
		<path class="st1" d="M1.4,15.8c0.6-1,1.1-2,1.7-3.1c-0.5-0.3-1-0.6-1.5-0.9c0.1,0,0.1-0.1,0.1-0.1c1.7,0,3.3-0.1,5-0.1
			c0.2,0,0.4,0.1,0.5,0.2c0.9,1.5,1.7,3,2.5,4.6c-0.5-0.3-1-0.6-1.5-0.8c0,0-0.1,0-0.1,0c-1,1.6-1.9,3.3-2.8,4.9
			c-0.2,0.5-0.3,1-0.5,1.6c-1.1-1.9-2.2-3.8-3.3-5.7C1.4,16.2,1.4,16,1.4,15.8z"/>
		<path class="st1" d="M18.7,1.9c0.4,0.4,0.8,0.7,1.1,1.1c0.5,0.7,0.9,1.5,1.4,2.3c0.5-0.3,1-0.6,1.5-0.9c0,0,0.1,0,0.1,0.1
			C22.4,5,22,5.7,21.7,6.3c-0.5,0.9-0.9,1.7-1.4,2.6c-0.1,0.1-0.3,0.3-0.4,0.3c-1.7,0-3.4,0-5-0.1c0,0-0.1,0-0.1-0.1
			c0.5-0.3,1-0.6,1.5-0.9C16.1,8,16,7.8,15.9,7.7c-0.7-1.2-1.4-2.4-2.1-3.6c-0.5-0.8-1-1.6-1.8-2.2C14.2,1.9,16.4,1.9,18.7,1.9z"/>
		<path class="st1" d="M27.1,17c0,0.1-0.1,0.2-0.1,0.3c-0.5,1.2-1.3,1.8-2.5,1.9c-0.6,0-1.1,0-1.7,0c-0.2,0-0.4-0.2-0.4-0.3
			c-1-1.6-1.9-3.3-2.9-5c1.7-0.9,3.3-1.9,5-2.9c0.9,1.7,1.8,3.3,2.7,4.9C27.1,16.3,27.1,16.7,27.1,17z"/>
		<path class="st1" d="M27.1,19.3c-1,1.8-2.1,3.6-3.1,5.4c-0.3,0.5-0.8,0.6-1.3,0.6c-1,0-1.9,0-2.9,0c0,0.6,0,1.2,0,1.8
			c0,0-0.1,0-0.1,0c-0.5-0.7-0.9-1.5-1.4-2.2c-0.4-0.7-0.9-1.4-1.3-2.1c-0.1-0.1-0.1-0.4,0-0.5c0.9-1.5,1.8-2.9,2.7-4.6
			c0,0.7,0,1.3,0,1.9c0.2,0,0.4,0,0.6,0c1.6,0,3.2,0,4.8,0C25.8,19.5,26.4,19.4,27.1,19.3z"/>
		<path class="st1" d="M10.7,10.2c-1.7-1-3.3-1.9-5-2.9c0.9-1.5,1.7-3,2.7-4.4c0.9-1.3,2.9-1.3,3.9-0.2c0.5,0.6,0.9,1.3,1.3,2
			c0.1,0.1,0,0.3,0,0.4C12.6,6.8,11.7,8.5,10.7,10.2z"/>
		<path class="st1" d="M12.6,19.3c0,1.9,0,3.8,0,5.7c-0.6,0-1.1,0-1.6,0c-1,0-2,0-2.9,0c-2.1,0-3.4-1.9-2.6-3.8
			c0.2-0.6,0.6-1.1,0.9-1.7c0.1-0.1,0.2-0.2,0.3-0.2c1.8,0,3.6,0,5.4,0C12.3,19.3,12.4,19.3,12.6,19.3z"/>
	</g>
	<polygon class="st1" points="2.5,6.5 1.1,6.2 3.9,4.8 3.1,7.8 	"/>
	<polygon class="st1" points="28.7,16.2 30.1,15.9 28.3,18.4 27.6,15.3 	"/>
	<path class="st2" d="M17.9,6.7c0,0-0.3-0.6-0.3-1.1c0,0,0-0.6,0-0.8c0,0,0.7,0,1.1,0.7c0,0,0.3,0.5,0.2,1.1
		c-0.1,0.3-0.2,0.6-0.2,0.7c0,0.1,0,0.5,0.3,0.9c0,0-1.1-0.3-1.5-1c0,0-0.7-0.7-0.5-1.5c0,0,0.1-0.3,0.2-0.5c0,0,0.2-0.7-0.1-0.8
		c0,0,0.2-0.1,0.2-0.1s0.3,0.4,0.2,0.8c0,0-0.1,0.5,0,1.1C17.6,6.3,17.7,6.6,17.9,6.7l0,0.1L17.9,6.7z"/>
	<polygon class="st3" points="4.8,14.7 5,14.8 3.5,17 3.2,16.7 	"/>
	<polygon class="st3" points="5.3,14.7 5.1,14.7 5.9,16.4 5.9,16.4 	"/>
	<polygon class="st3" points="5.2,14.3 5.3,14.4 6.4,12.9 6.3,12.9 	"/>
	<polygon class="st3" points="4.8,14.6 4.9,14.4 3,14.3 3,14.3 	"/>
	<ellipse transform="matrix(0.6028 -0.7979 0.7979 0.6028 -9.5449 9.808)" class="st3" cx="5.1" cy="14.5" rx="0.1" ry="0.1"/>
	<path class="st3" d="M19.8,22l0.1-0.2l0.2,0.5l-0.5,0.1l0.1-0.1c0,0-0.3-0.1-0.4,0.3c0,0,0,0.4,0.5,0.4c0,0,0.2,0,0.3-0.2
		c0,0,0,0.2-0.1,0.2s-0.4,0.2-0.7-0.1c0,0-0.3-0.3,0-0.7C19.2,22.2,19.4,21.9,19.8,22L19.8,22z"/>
	<path class="st3" d="M20.1,21.8c0,0,0.2,0.1,0.2,0.4c0,0,0.1,0,0.2-0.1c0,0,0.3-0.3,0.7,0c0.2,0.1,0.2,0.1,0.2,0.1s0.2,0.1,0.4-0.1
		c0,0,0.4-0.5,0.8,0c0,0,0.4,0.3,0.7,0c0,0,0.4-0.3,0.7,0c0,0,0-0.5,0-0.5s-0.3-0.3-0.7,0c0,0-0.3,0.3-0.7,0c0,0-0.3-0.3-0.7,0
		c0,0-0.2,0.3-0.7,0c0,0-0.3-0.4-0.8,0C20.5,21.7,20.4,21.8,20.1,21.8C20.1,21.8,20.1,21.8,20.1,21.8z"/>
	<path class="st3" d="M20.1,22.6c0,0,0.2,0.1,0.2,0.3c0,0,0.1,0,0.2-0.1c0,0,0.3-0.2,0.7,0c0.2,0.1,0.2,0.1,0.2,0.1s0.2,0.1,0.4,0
		c0,0,0.4-0.3,0.8,0c0,0,0.4,0.2,0.7,0c0,0,0.4-0.2,0.7,0c0,0,0-0.3,0-0.3s-0.3-0.2-0.7,0c0,0-0.3,0.2-0.7,0c0,0-0.3-0.2-0.7,0
		c0,0-0.2,0.2-0.7,0c0,0-0.3-0.2-0.8,0C20.5,22.5,20.4,22.6,20.1,22.6C20.1,22.6,20.1,22.6,20.1,22.6z"/>
	<path class="st3" d="M19,22.4c0,0-0.2-0.3,0.1-0.5c0,0,0.2-0.1,0.2,0.1c0,0,0,0.1-0.1,0.1S19,22.2,19,22.4C19,22.4,19,22.4,19,22.4
		z"/>
	<path class="st1" d="M13.1,11.6c-0.4,0.1-0.8,0.1-1.1-0.2c0.1-0.1,0.1-0.1,0.1-0.1c0.1,0,0.1,0.1,0.2,0.1c0.2,0.1,0.4,0.1,0.7,0
		c0.1,0,0.3-0.1,0.4-0.1c0,0,0,0.1-0.1,0.1"/>
	<path class="st1" d="M12.9,11.4C13,11.4,13,11.4,12.9,11.4c0.1,0,0.2,0,0.2-0.1c0,0-0.1,0-0.1-0.1c0,0,0,0,0,0c0,0,0,0,0,0
		c-0.2-0.1-0.4-0.2-0.6-0.3c-0.2-0.1-0.4-0.2-0.7-0.2c-0.1,0-0.3,0-0.4,0c0,0,0,0.1,0.1,0.1c0.2,0,0.4,0,0.6,0
		C12.4,11.1,12.7,11.2,12.9,11.4C12.9,11.4,12.9,11.4,12.9,11.4z"/>
	<path class="st1" d="M13.9,19.2c-0.2,0-0.4-0.1-0.6-0.1c-0.8-0.2-1.4-0.6-1.9-1.2c-0.3-0.3-0.4-0.7-0.5-1.1c-0.1-0.5-0.1-0.9,0-1.3
		c0.1-0.5,0.3-1,0.5-1.4c0.2-0.5,0.5-1,0.8-1.4c0.2-0.3,0.5-0.6,0.8-0.9c0,0,0.1,0,0.1,0c0,0,0.1,0,0.1,0c0.7,0,1.3,0,2,0
		c0,0,0.1,0,0.1,0c0.3,0.3,0.6,0.7,0.9,1.1c0.3,0.4,0.5,0.8,0.7,1.3c0.3,0.6,0.5,1.3,0.6,2c0,0.5-0.1,1-0.3,1.5
		c-0.3,0.5-0.8,0.9-1.3,1.2c-0.4,0.2-0.9,0.4-1.4,0.4c0,0,0,0-0.1,0C14.1,19.2,14,19.2,13.9,19.2z"/>
	<path class="st1" d="M13.9,9.4c0.2,0,0.4,0.1,0.6,0.1c0.3,0.1,0.5,0.2,0.8,0.3c0,0,0,0,0,0c0,0.1-0.1,0.2-0.1,0.2
		c-0.1,0.3-0.2,0.6-0.3,0.9c0,0.1,0,0.1-0.1,0.1c-0.5,0-1.1,0-1.6,0c-0.1,0-0.1,0-0.1-0.1c-0.1-0.2-0.2-0.4-0.3-0.6c0,0,0,0,0-0.1
		c0.1,0,0.2,0,0.3,0c0.1,0,0.2,0,0.4,0c0.1,0,0.1-0.1,0.1-0.2c0-0.1,0-0.2-0.1-0.2c0-0.1-0.1-0.2-0.1-0.2c0-0.1,0-0.2,0.1-0.2
		c0,0,0.1,0,0.1,0C13.7,9.4,13.8,9.4,13.9,9.4z"/>
	<path class="st1" d="M14.1,11.5c-0.3,0-0.6,0-1,0c0,0-0.1,0-0.1,0c-0.1,0-0.1-0.1-0.1-0.1c0-0.1,0.1-0.1,0.1-0.1c0,0,0.1,0,0.1,0
		c0.6,0,1.3,0,1.9,0c0,0,0.1,0,0.1,0c0.1,0,0.1,0.1,0.1,0.1c0,0.1,0,0.1-0.1,0.1c0,0-0.1,0-0.1,0C14.7,11.5,14.4,11.5,14.1,11.5z"/>
	<g>
		<path class="st3" d="M12.3,15.1V15c0.2-0.1,0.3-0.2,0.3-0.4c0-0.1,0-0.1,0-0.2h-0.3v-0.2h0.2c0-0.1,0-0.2,0-0.3
			c0-0.3,0.2-0.5,0.5-0.5c0.1,0,0.2,0,0.3,0.1l0,0.2c0,0-0.1,0-0.2,0c-0.2,0-0.3,0.1-0.3,0.3c0,0.1,0,0.2,0,0.3h0.4v0.2h-0.3
			c0,0.1,0,0.2,0,0.3c0,0.1-0.1,0.2-0.2,0.3v0h0.7v0.2H12.3z"/>
	</g>
	<g>
		<path class="st3" d="M12.8,17.5v-0.3c-0.2,0-0.3,0-0.4-0.1l0.1-0.2c0.1,0.1,0.2,0.1,0.4,0.1c0.2,0,0.3-0.1,0.3-0.3
			c0-0.1-0.1-0.2-0.3-0.3c-0.3-0.1-0.4-0.2-0.4-0.5c0-0.2,0.2-0.4,0.4-0.4v-0.3H13v0.3c0.2,0,0.3,0,0.3,0.1l-0.1,0.2
			c-0.1,0-0.2-0.1-0.3-0.1c-0.2,0-0.3,0.1-0.3,0.2c0,0.1,0.1,0.2,0.3,0.3c0.3,0.1,0.4,0.2,0.4,0.5c0,0.2-0.1,0.4-0.4,0.4v0.3H12.8z"
			/>
	</g>
	<g>
		<path class="st3" d="M14.9,17.9c-0.1,0-0.2,0.1-0.3,0.1c-0.2,0-0.4-0.1-0.5-0.2c-0.1-0.1-0.1-0.2-0.2-0.4h-0.1v-0.1h0.1
			c0,0,0,0,0,0c0,0,0-0.1,0-0.1h-0.1V17h0.2c0-0.2,0.1-0.3,0.2-0.4c0.1-0.1,0.3-0.2,0.5-0.2c0.1,0,0.2,0,0.3,0.1l0,0.2
			c-0.1,0-0.2-0.1-0.3-0.1c-0.1,0-0.2,0-0.3,0.1c-0.1,0.1-0.1,0.2-0.1,0.3h0.6v0.1h-0.7c0,0,0,0.1,0,0.1c0,0,0,0,0,0h0.7v0.1h-0.7
			c0,0.1,0.1,0.2,0.1,0.3c0.1,0.1,0.2,0.1,0.3,0.1c0.1,0,0.2,0,0.3-0.1L14.9,17.9z"/>
	</g>
	<g>
		<path class="st3" d="M14,14.7v-0.4h-0.4v-0.1H14v-0.2h-0.4v-0.1h0.3L13.5,13h0.2l0.3,0.5c0,0.1,0.1,0.2,0.1,0.2h0
			c0-0.1,0.1-0.2,0.1-0.2l0.3-0.5h0.2l-0.5,0.8h0.3v0.1h-0.4v0.2h0.4v0.1h-0.4v0.4H14z"/>
	</g>
	<g>
		<path class="st3" d="M14.4,16.2c-0.1,0-0.2,0.1-0.3,0.1c-0.3,0-0.6-0.2-0.6-0.6c0-0.4,0.3-0.6,0.6-0.6c0.1,0,0.2,0,0.3,0.1l0,0.1
			c-0.1,0-0.1,0-0.2,0c-0.3,0-0.5,0.2-0.5,0.5c0,0.3,0.2,0.5,0.5,0.5c0.1,0,0.2,0,0.3,0L14.4,16.2z"/>
		<path class="st3" d="M14.8,15.1v0.5h0.6v-0.5h0.2v1.2h-0.2v-0.6h-0.6v0.6h-0.2v-1.2H14.8z"/>
		<path class="st3" d="M15.8,15.1h0.6v0.1h-0.5v0.4h0.5v0.1h-0.5v0.5h-0.2V15.1z"/>
	</g>
</g>
</svg>
