<?xml version="1.0" encoding="utf-8"?>
<!-- Generator: Adobe Illustrator 16.0.0, SVG Export Plug-In . SVG Version: 6.00 Build 0)  -->
<!DOCTYPE svg PUBLIC "-//W3C//DTD SVG 1.1//EN" "http://www.w3.org/Graphics/SVG/1.1/DTD/svg11.dtd">
<svg version="1.1" id="Calque_1" xmlns="http://www.w3.org/2000/svg" xmlns:xlink="http://www.w3.org/1999/xlink" x="0px" y="0px"
	 width="91.8px" height="109.7px" viewBox="0 0 91.8 109.7" style="enable-background:new 0 0 91.8 109.7;" xml:space="preserve">
<style type="text/css">
<![CDATA[
	.st0{fill:#FFFFFF;stroke:#6E8934;stroke-width:0.25;stroke-miterlimit:10;}
	.st1{fill:none;stroke:#FFFFFF;stroke-miterlimit:10;}
	.st2{fill:none;stroke:#6E8934;stroke-width:0.5;stroke-linecap:round;stroke-linejoin:round;stroke-miterlimit:10;}
	.st3{fill:#6E8934;}
]]>
</style>
<path d="M15.6,40.3"/>
<polygon class="st3" points="91.8,56.3 76.8,36.9 48.5,0 21.8,35.4 5.2,56.3 15.6,56.3 15.6,109.7 81.3,109.7 81.3,56.3 "/>
<path class="st0" d="M51.5,72.8l0-2.5l0.1-9.1l-1.9,0.1L35.3,61V48l-16-9.5l10.7-14l-1.2-1.3L16.4,39.2l1.9,1l15.2,9v13.6h16.2v7.4
	v2.6c-11.1,0-12,7.2-12,7.2s0,6.3,0,14.7s12,8.4,12,8.4v1.9h1.8v-2c0,0,12,0,12-8.4c0-8.4,0-14.7,0-14.7S62.5,72.8,51.5,72.8z"/>
<path class="st1" d="M43.2,56.6c0,0,1.5,0.6,0-3.1s-2.7-7.3,0-10.5s-0.5-9-0.5-9"/>
<path class="st1" d="M47.4,56.6c0,0,1.5,0.6,0-3.1c-1.5-3.7-2.7-7.3,0-10.5c2.7-3.2-0.5-9-0.5-9"/>
<circle class="st3" cx="8.8" cy="15.1" r="8.8"/>
<g>
	<line class="st2" x1="8.2" y1="27.5" x2="13.3" y2="32.7"/>
	<line class="st2" x1="13.3" y1="32.7" x2="12.7" y2="30.3"/>
	<line class="st2" x1="11" y1="32.1" x2="13.3" y2="32.7"/>
</g>
<g>
	<line class="st2" x1="13.8" y1="25.2" x2="18.9" y2="30.3"/>
	<line class="st2" x1="18.9" y1="30.3" x2="18.3" y2="27.9"/>
	<line class="st2" x1="16.6" y1="29.7" x2="18.9" y2="30.3"/>
</g>
<g>
	<line class="st2" x1="18.3" y1="20" x2="23.4" y2="25.2"/>
	<line class="st2" x1="23.4" y1="25.2" x2="22.8" y2="22.8"/>
	<line class="st2" x1="21.1" y1="24.5" x2="23.4" y2="25.2"/>
</g>
</svg>
