<?xml version="1.0" encoding="UTF-8" standalone="no"?>
<!DOCTYPE svg PUBLIC "-//W3C//DTD SVG 1.1//EN" "http://www.w3.org/Graphics/SVG/1.1/DTD/svg11.dtd">
<svg viewBox="0 0 180 195" xmlns:xlink="http://www.w3.org/1999/xlink" height="195.0pt" width="180.0pt" xmlns="http://www.w3.org/2000/svg" version="1.1"><defs>
<path d="M 0.00 0.00 L 180.00 0.00 L 180.00 195.00 L 0.00 195.00 L 0.00 0.00 Z" id="p0" />
<path d="M 154.92 31.29 C 157.29 31.94 156.50 34.07 157.12 35.92 C 158.10 36.24 158.63 36.77 158.71 37.52 C 158.14 37.31 157.56 37.15 156.98 37.04 C 155.62 39.34 154.69 43.80 152.22 44.98 C 152.38 42.16 155.75 40.34 155.28 36.99 C 155.88 35.74 155.84 32.10 154.16 32.13 C 153.29 34.21 152.69 35.60 151.81 37.74 L 151.13 37.80 C 151.21 36.48 152.22 35.40 152.48 34.09 C 153.05 32.73 152.93 30.88 154.92 31.29 Z" id="p1" />
<path d="M 160.31 38.26 C 160.97 38.27 161.12 38.77 160.76 39.75 C 158.82 40.72 158.62 38.96 160.31 38.26 Z" id="p2" />
<path d="M 170.38 38.49 C 170.77 39.21 171.14 39.92 171.50 40.64 C 170.81 42.82 170.18 44.99 169.21 47.07 C 168.19 48.27 167.39 48.81 167.54 50.55 C 166.78 50.35 166.02 50.09 165.27 49.78 C 165.33 48.29 167.81 47.91 168.39 46.39 C 170.07 44.46 168.93 42.98 167.28 41.66 C 167.57 39.98 168.17 37.81 170.38 38.49 Z" id="p3" />
<path d="M 149.56 39.42 L 150.67 39.27 C 151.24 41.75 147.45 44.25 147.91 47.00 C 147.96 47.92 147.92 48.83 147.81 49.72 C 143.58 49.36 144.21 52.81 142.27 55.26 C 139.09 56.76 136.38 59.69 134.40 62.57 L 133.21 62.03 L 132.70 63.69 C 130.90 63.94 129.27 64.95 129.05 66.84 C 130.44 67.62 131.37 66.06 132.46 65.44 C 133.89 65.07 134.51 66.92 135.89 66.03 C 135.73 65.44 135.55 64.85 135.37 64.26 C 137.43 64.08 138.98 63.59 140.40 65.46 C 141.17 65.03 141.94 64.73 142.71 64.54 C 142.15 63.82 140.91 63.34 141.20 62.28 C 143.65 62.03 143.71 60.16 144.22 58.20 C 144.73 58.43 145.24 58.63 145.76 58.78 C 146.81 58.02 147.47 56.85 148.94 57.20 C 148.67 58.01 148.47 58.83 148.34 59.65 C 149.70 58.87 150.43 56.75 150.33 55.26 C 150.83 55.48 151.33 55.69 151.84 55.88 C 152.14 54.58 152.59 53.42 153.20 52.24 C 154.12 52.40 154.79 53.32 155.68 53.67 C 155.59 52.57 154.51 51.56 155.77 50.76 C 155.67 50.23 155.50 49.72 155.25 49.20 C 156.10 48.74 156.96 48.30 157.83 47.88 C 158.05 47.02 158.19 46.13 158.23 45.23 C 160.28 45.14 158.54 48.05 160.13 49.01 C 158.66 50.92 160.77 52.39 159.76 54.70 C 157.56 56.23 155.10 55.42 153.67 57.66 C 153.07 58.44 152.17 58.87 150.98 58.95 C 151.11 59.54 151.28 60.11 151.51 60.68 C 150.56 61.69 150.57 61.47 149.29 61.24 C 148.92 61.88 148.25 61.96 147.29 61.48 C 147.07 62.11 147.22 62.89 147.75 63.80 C 146.51 63.80 145.31 63.89 144.14 64.06 C 144.00 64.94 143.87 65.83 143.75 66.72 C 141.37 68.32 139.24 66.95 137.31 65.39 C 137.46 66.15 137.63 66.91 137.82 67.66 C 136.00 68.81 135.45 68.94 133.41 68.30 C 133.64 68.77 133.82 69.26 133.95 69.76 C 132.21 70.84 130.30 70.80 128.47 71.47 C 128.19 72.23 127.94 73.00 127.72 73.78 C 125.26 74.84 125.02 72.43 123.01 72.75 C 121.58 73.84 120.19 74.85 119.69 76.67 C 119.08 76.45 118.47 76.25 117.85 76.08 L 117.71 77.77 C 117.23 77.50 116.74 77.32 116.24 77.21 C 115.48 78.22 114.45 78.67 113.40 79.29 C 113.67 79.59 114.13 79.80 114.78 79.92 C 114.37 81.70 113.01 83.12 112.73 85.01 C 113.46 86.17 114.01 87.61 115.09 88.48 C 117.42 85.86 118.35 89.95 119.69 91.30 C 122.63 92.59 123.03 94.90 126.74 94.26 C 127.25 94.76 127.76 95.26 128.27 95.77 C 130.21 96.29 131.40 95.68 132.27 97.91 C 132.72 97.81 133.18 97.68 133.63 97.55 C 134.53 97.90 135.41 98.29 136.27 98.72 C 137.82 98.14 138.46 99.19 139.99 99.12 C 141.30 98.54 142.19 97.82 143.70 98.30 C 143.94 99.00 143.90 99.77 143.59 100.59 C 140.77 100.47 138.91 101.66 136.27 101.77 C 136.59 101.25 136.84 100.70 137.02 100.14 C 135.52 99.54 133.87 99.53 132.31 99.10 C 131.94 100.13 131.43 101.10 130.76 102.01 C 132.17 105.90 134.13 108.11 137.34 110.56 C 138.06 113.07 140.60 113.63 142.26 115.75 C 144.64 119.75 150.16 119.27 152.50 123.47 C 153.06 124.62 152.39 126.88 151.00 127.07 C 148.98 125.65 146.88 125.26 144.98 123.56 C 143.42 123.71 143.34 125.47 141.94 125.82 C 140.51 125.84 139.90 124.62 138.48 125.48 C 138.25 122.88 137.02 123.87 136.71 125.76 C 135.21 126.33 134.23 125.93 133.23 124.77 C 131.56 123.30 132.18 121.12 130.01 119.82 C 129.33 120.35 128.66 120.87 127.98 121.40 C 126.22 120.86 124.78 119.95 123.53 118.61 C 123.01 116.81 122.37 115.63 120.32 115.58 C 120.47 113.94 120.32 112.97 118.85 112.03 C 118.03 111.47 116.40 111.30 116.50 110.01 C 117.55 107.51 115.15 107.11 117.64 105.02 L 117.04 104.13 C 114.97 104.87 112.68 104.60 111.45 102.62 C 109.10 101.43 105.77 99.66 104.49 97.30 C 104.34 94.88 107.71 96.41 108.68 97.29 C 108.54 97.77 108.49 98.22 108.53 98.64 C 111.99 100.02 114.72 102.51 118.50 103.51 C 121.07 106.55 120.58 109.35 120.59 113.04 C 121.05 115.10 123.53 114.60 124.71 116.30 C 125.98 117.29 125.97 118.89 127.17 119.90 C 128.30 119.97 128.80 118.23 130.00 118.14 C 131.34 118.39 131.44 120.18 132.93 120.33 C 134.20 120.54 134.75 121.84 136.03 121.97 C 137.63 122.13 138.15 122.78 139.20 123.86 C 139.82 123.73 140.41 123.46 141.00 123.05 C 141.65 123.44 142.33 123.72 143.02 123.86 C 143.31 122.06 144.00 121.87 145.72 122.27 C 147.45 123.71 148.14 126.29 150.86 124.90 C 150.53 124.00 150.15 123.12 149.71 122.25 C 147.44 121.33 146.56 119.21 144.01 118.87 C 141.35 119.17 138.59 116.88 137.31 114.72 C 137.48 114.22 137.66 113.72 137.85 113.22 C 136.88 111.87 135.74 112.05 134.26 111.77 C 134.47 111.26 134.66 110.74 134.82 110.22 C 133.77 109.10 132.93 108.08 131.38 107.68 C 130.38 105.56 130.68 103.61 129.90 101.23 C 129.06 101.05 128.22 100.88 127.38 100.71 C 127.53 100.21 127.68 99.71 127.83 99.21 C 126.32 98.54 125.86 97.80 124.27 98.80 C 123.83 95.23 121.87 96.05 119.16 95.85 C 119.39 95.31 119.63 94.77 119.86 94.23 C 118.45 93.56 116.41 92.99 115.51 91.66 C 115.64 91.17 115.78 90.70 115.91 90.22 C 114.90 89.11 114.00 88.51 112.47 88.45 C 111.89 87.44 110.71 86.23 111.30 85.03 C 112.22 82.66 110.34 81.98 109.48 80.39 C 113.74 79.71 111.78 76.60 114.72 74.73 L 115.34 72.98 C 115.14 71.24 113.34 72.23 113.30 70.44 C 114.56 70.92 115.63 71.97 116.96 72.40 C 118.83 71.56 120.35 70.43 122.01 69.28 C 123.45 69.93 124.92 69.98 125.58 71.55 C 127.12 71.65 129.41 70.35 126.39 69.81 C 125.79 67.64 125.57 67.71 123.41 67.67 C 124.56 67.05 125.89 67.52 126.90 65.98 C 128.99 64.68 130.91 63.62 132.57 61.65 C 134.49 60.80 135.42 59.17 136.46 57.46 C 138.69 56.26 140.40 53.99 142.16 52.19 C 145.26 48.61 148.51 44.09 149.56 39.42 Z" id="p4" />
<path d="M 159.24 41.16 C 160.27 40.84 160.73 41.04 160.63 41.74 C 159.53 42.24 159.06 42.05 159.24 41.16 Z" id="p5" />
<path d="M 159.31 43.31 C 159.71 43.71 159.71 43.71 159.31 43.31 Z" id="p6" />
<path d="M 165.62 43.36 C 165.97 44.83 164.71 45.27 165.81 46.81 C 165.00 47.90 163.10 47.68 162.89 49.00 C 163.18 49.57 163.47 50.14 163.75 50.71 C 162.77 50.63 161.82 50.65 160.89 50.78 L 160.61 50.02 C 162.20 47.76 163.82 45.45 165.62 43.36 Z" id="p7" />
<path d="M 154.98 45.27 C 155.90 47.23 154.16 48.84 152.20 47.78 C 151.32 45.92 153.60 45.27 154.98 45.27 Z" id="p8" />
<path d="M 165.44 51.59 C 167.50 53.37 168.98 51.60 170.73 53.18 C 170.76 54.36 170.76 55.54 170.75 56.73 C 169.25 58.27 167.90 59.81 165.94 60.78 C 164.70 61.53 163.55 62.92 164.63 64.34 C 165.10 66.00 166.71 66.43 167.17 68.02 C 165.88 71.48 163.24 73.66 159.90 74.95 C 159.77 77.39 160.43 79.55 159.12 82.06 C 157.20 84.02 154.60 85.98 152.04 86.97 C 150.93 87.47 148.99 88.06 150.52 89.49 C 152.92 90.48 151.45 88.64 152.72 88.29 C 152.57 89.68 152.73 91.10 152.55 92.48 C 150.41 93.90 148.35 93.50 145.93 93.50 C 145.42 93.87 144.91 94.23 144.40 94.59 C 144.42 93.66 144.24 92.79 143.86 92.01 C 143.01 92.39 142.18 92.61 141.36 92.66 C 142.24 90.95 143.57 91.36 145.08 91.87 C 146.84 92.69 148.22 91.62 149.85 91.05 C 150.24 89.70 148.11 89.53 147.35 88.69 C 148.24 88.05 149.22 87.77 149.85 86.77 C 149.74 86.31 149.62 85.85 149.49 85.40 C 151.80 85.56 153.96 84.93 156.00 83.90 C 156.54 81.92 156.75 80.16 154.32 79.63 C 153.57 77.62 155.11 77.15 155.32 75.20 C 155.93 75.47 156.50 75.88 157.04 76.41 C 158.52 75.75 158.83 73.35 160.23 72.25 C 160.76 72.48 161.30 72.69 161.85 72.87 L 162.35 71.36 C 162.84 71.64 163.36 71.85 163.90 71.99 C 164.34 71.31 164.18 70.52 163.42 69.64 C 163.89 67.91 164.54 67.52 162.82 66.16 C 162.32 66.34 161.84 66.44 161.37 66.44 C 160.88 65.73 160.51 64.99 160.27 64.22 C 160.78 63.73 161.36 63.36 162.01 63.10 C 163.89 62.52 164.07 60.69 165.71 59.76 C 167.76 58.48 169.19 56.53 169.87 54.23 C 168.97 53.76 168.11 53.41 167.29 53.17 C 165.97 54.39 164.81 53.74 163.22 53.73 C 162.89 53.30 162.60 52.84 162.34 52.37 C 163.41 52.24 164.45 51.98 165.44 51.59 Z" id="p9" />
<path d="M 26.40 54.47 C 27.58 56.80 27.88 59.25 29.46 61.44 C 29.58 63.35 30.48 64.05 31.77 65.25 C 31.91 66.12 32.03 66.99 32.14 67.86 C 35.58 70.16 35.43 74.02 38.96 76.13 C 41.37 77.02 41.12 80.02 43.65 81.33 C 44.14 83.31 46.38 84.22 46.84 85.86 C 46.11 85.69 45.38 85.55 44.64 85.43 C 43.11 81.41 38.79 79.25 36.88 75.19 C 35.93 74.81 35.05 74.34 34.25 73.76 C 34.08 72.17 34.25 71.21 32.83 70.17 C 31.58 69.26 31.25 66.10 29.16 67.15 C 28.53 69.10 28.93 70.92 28.84 72.84 C 27.04 71.72 25.11 70.88 23.11 70.12 C 22.00 72.26 24.08 73.04 23.82 74.97 C 23.20 74.71 22.58 74.44 21.96 74.16 C 20.26 75.88 24.61 78.08 24.89 79.80 C 23.93 80.11 23.11 80.08 22.42 79.70 C 22.19 77.87 20.81 77.45 19.48 76.49 C 18.48 74.62 18.87 72.19 16.55 71.41 C 15.49 68.81 14.21 66.48 11.32 65.63 C 11.11 64.46 10.70 63.95 10.11 64.07 C 9.62 65.84 9.41 67.74 11.01 69.00 C 12.63 70.37 13.93 70.73 13.94 73.18 L 15.66 73.39 C 15.63 74.20 15.66 75.01 15.78 75.84 C 12.79 75.59 12.84 70.65 9.35 70.59 C 9.66 68.43 9.43 67.36 8.51 65.42 C 8.82 64.76 9.15 64.10 9.50 63.46 C 10.22 63.29 10.91 63.31 11.55 63.51 C 14.03 65.81 15.74 67.71 17.18 70.82 C 17.90 71.14 18.32 70.69 18.44 69.46 C 18.97 69.79 19.49 70.15 20.00 70.56 L 20.79 70.01 C 19.34 67.82 23.24 67.28 24.62 67.35 C 25.48 68.19 25.94 69.45 27.29 68.41 C 28.48 67.09 27.61 66.16 29.82 65.80 C 29.70 65.09 29.19 64.39 28.29 63.70 C 28.23 61.18 27.83 58.97 25.90 57.14 C 24.04 57.06 23.69 59.61 23.63 61.01 C 24.32 62.17 25.73 63.40 25.87 64.79 C 24.98 65.35 24.28 62.99 23.62 62.49 C 23.03 60.44 23.15 58.16 23.37 56.06 C 23.57 54.55 25.07 54.04 26.40 54.47 Z" id="p10" />
<path d="M 98.08 58.26 C 100.91 57.13 104.03 59.29 106.50 60.56 C 108.54 62.36 110.91 65.06 111.66 67.64 C 110.55 66.70 109.70 65.36 108.77 64.24 C 107.98 64.03 107.19 63.84 106.39 63.68 C 106.53 63.19 106.68 62.69 106.82 62.20 C 105.82 60.94 103.66 60.49 102.13 60.31 C 100.19 61.25 98.97 60.82 96.96 60.45 C 95.95 60.55 95.50 61.27 95.60 62.61 C 95.09 62.46 94.59 62.30 94.09 62.14 C 93.38 64.03 93.67 66.60 96.03 67.00 C 99.55 66.90 98.83 70.40 100.72 72.30 C 100.84 75.09 102.30 76.84 101.62 79.65 C 100.91 78.34 99.77 77.58 100.01 76.01 C 99.98 74.28 100.11 70.26 97.52 70.52 C 97.69 70.06 97.83 69.59 97.94 69.11 C 96.35 68.82 94.66 68.89 93.05 68.94 C 91.86 69.52 90.55 70.95 89.18 70.82 C 88.78 69.54 90.30 68.84 90.95 67.94 C 90.81 67.39 90.63 66.85 90.43 66.32 C 91.19 65.11 92.58 64.31 93.14 63.02 C 92.66 62.45 92.35 61.85 92.23 61.24 C 92.88 60.56 93.56 59.91 94.26 59.29 C 95.87 59.49 96.72 58.95 98.08 58.26 Z" id="p11" />
<path d="M 96.30 65.29 C 96.74 65.74 96.74 65.74 96.30 65.29 Z" id="p12" />
<path d="M 26.12 66.31 L 26.73 66.24 L 26.78 66.82 L 26.21 66.94 L 26.12 66.31 Z" id="p13" />
<path d="M 127.07 68.17 L 127.77 68.15 L 127.81 68.81 L 127.14 68.83 L 127.07 68.17 Z" id="p14" />
<path d="M 19.00 72.23 L 19.77 72.16 L 19.83 72.88 L 19.10 72.99 L 19.00 72.23 Z" id="p15" />
<path d="M 9.44 76.46 C 11.15 75.52 12.31 75.50 13.95 76.55 C 12.09 76.96 12.34 77.31 11.38 78.51 C 10.79 77.95 10.05 78.11 9.17 78.99 C 9.01 78.18 9.10 77.33 9.44 76.46 Z" id="p16" />
<path d="M 15.01 77.14 C 15.52 77.05 18.17 78.70 17.64 79.60 C 15.95 80.75 12.75 78.73 15.01 77.14 Z" id="p17" />
<path d="M 25.28 77.38 C 25.69 77.73 25.69 77.73 25.28 77.38 Z" id="p18" />
<path d="M 11.67 80.21 C 11.77 82.86 13.82 82.39 15.69 83.29 C 16.09 84.87 17.12 85.84 18.24 86.93 C 19.05 86.80 19.89 86.54 20.79 86.16 C 20.46 87.01 20.08 87.85 19.64 88.68 C 18.75 88.72 17.88 88.85 17.04 89.09 C 17.21 89.58 17.34 90.07 17.44 90.55 C 15.20 90.83 15.97 94.28 16.17 95.84 C 18.22 96.70 20.84 94.72 21.26 97.79 C 22.07 97.98 22.89 98.15 23.71 98.29 C 25.45 99.36 24.27 101.09 26.70 101.31 C 25.68 102.34 24.30 102.35 23.60 104.42 C 23.15 104.45 22.67 104.37 22.16 104.19 L 21.77 105.02 C 23.42 108.96 26.20 107.68 28.94 110.28 C 29.58 110.94 32.07 110.90 31.77 111.91 C 30.08 112.13 28.01 111.17 26.47 110.50 C 25.92 108.76 25.02 108.79 23.42 108.50 C 22.41 107.85 21.48 107.11 20.43 106.53 C 19.88 105.06 20.08 103.65 19.18 102.21 C 20.57 102.17 22.65 102.38 21.74 100.28 C 19.12 98.18 16.67 96.55 13.33 95.62 C 13.69 95.22 14.10 94.87 14.56 94.55 C 13.81 93.37 12.85 92.61 11.43 92.40 C 11.56 91.31 11.92 90.23 12.19 89.17 C 12.72 89.41 13.25 89.65 13.78 89.89 C 13.59 88.82 13.72 87.92 14.18 87.20 C 14.84 87.55 15.49 87.84 16.15 88.07 C 17.89 86.23 13.25 83.78 11.91 83.08 C 11.60 82.02 8.89 79.61 11.67 80.21 Z" id="p19" />
<path d="M 26.83 80.18 C 27.91 81.18 29.24 83.65 30.97 83.08 C 30.69 83.88 30.63 84.75 30.78 85.70 C 30.37 85.71 30.10 85.20 29.97 84.18 C 29.06 84.59 28.22 84.77 27.46 84.71 C 27.70 84.23 27.86 83.73 27.95 83.22 C 27.27 82.08 26.34 81.58 25.19 81.71 C 25.41 80.72 25.95 80.21 26.83 80.18 Z" id="p20" />
<path d="M 29.02 80.21 C 33.02 79.45 30.76 81.54 34.15 82.92 C 35.21 84.12 34.26 84.67 34.03 85.93 C 35.71 87.65 39.00 88.11 40.26 89.97 L 39.77 90.81 C 37.40 90.80 35.09 86.30 32.43 87.63 C 33.06 86.62 32.82 86.41 32.46 85.38 C 33.62 83.96 32.44 83.08 30.97 83.08 C 30.83 81.68 28.78 81.55 29.02 80.21 Z" id="p21" />
<path d="M 83.53 82.55 C 84.74 83.83 86.24 84.34 87.57 85.35 C 86.97 87.92 88.12 88.47 88.62 90.55 C 86.62 90.68 85.02 91.76 83.02 91.94 C 81.33 92.17 81.38 94.02 80.29 94.71 C 80.06 93.52 80.04 92.38 80.24 91.29 C 81.79 91.20 82.55 90.57 82.51 89.39 C 83.29 89.84 83.93 91.08 84.86 90.92 C 85.61 90.30 86.32 89.65 86.98 88.96 C 86.70 87.87 86.00 86.59 85.39 85.63 C 82.99 83.68 79.69 85.82 76.97 83.93 C 75.43 84.67 72.39 85.60 71.59 86.98 C 72.02 89.68 68.34 92.02 67.61 94.49 C 67.06 94.36 66.52 94.22 65.98 94.08 C 65.48 96.34 69.19 98.97 68.31 101.78 C 69.46 104.87 68.53 107.52 66.67 110.01 C 68.34 111.67 66.34 114.99 64.12 114.96 C 64.01 115.90 63.89 116.84 63.77 117.78 C 62.19 118.23 60.94 117.64 59.44 117.28 C 59.55 117.76 59.66 118.24 59.78 118.72 L 58.13 119.13 C 58.30 119.61 58.45 120.09 58.57 120.58 C 56.94 121.25 56.14 122.02 54.23 122.18 C 53.34 124.31 51.12 125.64 50.65 127.71 C 49.66 127.56 48.79 127.68 48.03 128.08 C 47.67 128.94 47.63 129.92 47.91 131.03 C 47.82 132.85 45.92 133.75 45.75 135.74 C 44.55 136.17 43.38 136.65 42.26 137.24 C 40.25 138.61 40.65 141.24 37.93 141.58 C 34.94 141.80 35.66 144.82 32.27 143.75 C 32.49 142.44 33.75 142.13 34.85 141.80 C 36.98 139.98 39.81 139.47 40.57 136.56 C 42.94 136.24 45.36 132.87 45.45 130.57 L 46.97 130.07 C 47.15 128.02 48.85 126.26 48.86 124.33 C 48.36 123.70 47.98 122.98 47.73 122.17 C 46.32 121.49 44.51 123.52 43.59 124.42 C 43.09 124.26 42.58 124.09 42.07 123.92 C 40.30 125.08 35.59 126.11 35.16 123.15 C 37.12 123.16 39.05 123.00 41.01 123.30 C 42.91 123.69 44.11 121.53 45.46 120.50 C 46.74 120.00 48.11 120.17 49.39 119.51 C 50.48 120.39 51.33 120.57 51.93 120.05 C 51.75 119.44 51.56 118.83 51.34 118.22 C 52.13 118.37 52.94 118.60 53.77 118.92 C 54.86 116.94 57.10 117.52 57.44 115.45 C 57.96 115.62 58.48 115.84 58.99 116.10 C 60.53 115.78 60.79 114.71 61.48 113.51 C 62.54 112.86 63.74 112.52 64.77 111.82 C 65.13 110.44 65.60 109.27 66.28 108.02 C 66.31 105.65 65.02 103.11 64.05 100.98 C 62.56 98.36 57.93 98.77 56.34 96.68 C 54.92 94.61 52.46 96.80 50.27 95.77 C 49.98 93.84 48.50 93.76 47.01 92.82 C 44.88 93.29 43.50 90.76 41.23 90.71 C 41.48 90.18 41.69 89.64 41.87 89.08 C 40.48 87.59 36.71 87.07 35.99 85.15 C 39.71 86.35 42.69 86.35 45.14 89.87 C 47.58 89.01 48.29 92.22 49.88 90.88 C 49.56 89.74 49.57 89.23 49.83 88.08 C 49.32 87.87 48.83 87.63 48.34 87.37 C 49.07 87.36 49.80 87.42 50.51 87.56 C 53.85 90.90 57.87 91.31 60.32 95.63 C 60.77 95.50 61.21 95.40 61.66 95.32 C 63.21 96.75 64.68 96.33 64.54 94.07 C 64.42 92.46 65.93 92.49 67.04 92.07 C 67.51 90.83 68.12 89.65 68.55 88.40 C 69.74 87.09 71.27 86.45 71.57 84.58 C 75.58 82.15 78.90 81.79 83.53 82.55 Z" id="p22" />
<path d="M 101.16 83.19 C 102.19 82.85 102.23 85.41 102.73 86.09 C 103.66 88.42 102.02 91.39 103.62 93.37 C 104.34 94.61 104.05 96.53 102.16 95.84 C 101.77 94.31 102.14 92.60 102.11 91.03 C 100.29 88.76 101.02 85.92 101.16 83.19 Z" id="p23" />
<path d="M 114.28 84.24 L 114.70 84.09 C 114.62 84.91 114.48 84.96 114.28 84.24 Z" id="p24" />
<path d="M 58.36 95.34 C 58.73 95.67 58.73 95.67 58.36 95.34 Z" id="p25" />
<path d="M 79.80 96.29 C 79.91 98.09 79.05 99.61 79.47 101.40 C 79.23 103.93 80.19 106.90 78.75 109.01 C 78.45 110.39 78.69 111.54 79.47 112.45 C 76.77 114.67 77.33 117.79 75.38 120.49 C 74.62 121.42 73.87 122.28 73.35 123.39 C 70.55 124.99 67.24 128.20 63.87 127.85 C 63.65 130.39 62.03 128.84 61.64 130.99 C 61.55 133.85 59.14 135.45 59.38 138.52 C 58.25 139.82 56.90 140.64 56.39 142.39 C 54.45 142.89 54.06 144.87 52.07 144.77 C 51.35 144.43 50.66 144.01 50.02 143.48 C 48.58 144.09 48.41 146.46 47.75 147.77 C 46.24 148.24 45.01 148.71 43.75 149.71 C 42.04 149.26 41.52 148.36 39.72 149.67 C 38.09 149.07 36.30 149.02 36.05 147.01 C 34.40 146.99 33.11 149.00 31.35 149.46 C 30.06 149.11 28.66 149.08 27.43 148.57 C 26.95 147.39 27.59 145.80 27.49 144.49 C 28.55 144.50 29.60 144.44 30.65 144.32 C 30.04 145.76 29.36 146.02 30.28 147.70 C 31.37 147.10 32.25 146.04 33.29 145.33 C 34.92 145.66 34.59 147.25 36.38 145.46 C 36.95 145.91 37.52 146.34 38.08 146.78 C 38.99 146.65 39.78 146.59 40.69 146.69 C 41.26 146.25 41.82 145.80 42.39 145.36 C 42.62 145.83 42.81 146.34 42.96 146.87 C 44.24 146.56 45.39 145.99 46.71 145.77 C 48.14 144.87 49.09 141.68 50.70 141.25 L 51.05 142.91 C 51.65 143.02 52.13 142.57 52.50 141.56 C 55.01 141.14 56.57 140.26 56.39 137.45 C 56.84 137.67 57.31 137.83 57.79 137.93 C 58.70 135.97 59.17 134.52 59.37 132.35 C 61.41 130.55 61.14 129.85 61.30 127.30 C 62.63 125.04 64.15 127.06 65.81 125.80 C 67.33 124.79 71.59 124.96 71.46 122.48 C 71.95 122.70 72.45 122.86 72.96 122.95 C 73.11 121.85 73.55 120.97 74.29 120.31 C 76.72 117.94 76.31 113.45 78.35 111.03 C 78.18 108.56 78.65 105.71 77.56 103.48 C 77.39 102.21 78.16 100.65 78.35 99.35 C 79.77 98.66 78.63 95.92 79.80 96.29 Z" id="p26" />
<path d="M 62.50 97.50 C 62.51 97.52 62.51 97.52 62.50 97.50 Z" id="p27" />
<path d="M 130.88 98.89 C 129.45 100.02 129.51 99.80 128.65 98.38 C 126.77 95.82 131.54 97.24 130.88 98.89 Z" id="p28" />
<path d="M 65.18 100.04 L 65.91 100.04 L 65.91 100.80 L 65.17 100.80 L 65.18 100.04 Z" id="p29" />
<path d="M 133.78 102.07 C 134.71 102.67 135.06 103.28 134.82 103.90 C 133.65 104.54 132.03 102.02 133.78 102.07 Z" id="p30" />
<path d="M 24.30 110.27 C 24.99 110.30 25.17 110.82 24.84 111.84 C 22.85 112.84 22.35 110.97 24.30 110.27 Z" id="p31" />
<path d="M 25.50 113.50 C 25.50 113.50 25.50 113.50 25.50 113.50 Z" id="p32" />
<path d="M 30.92 113.17 C 32.76 116.14 35.64 115.38 38.71 115.33 C 40.41 116.51 39.18 117.86 39.72 119.75 C 38.83 119.31 38.42 119.13 37.45 119.49 C 37.41 116.71 35.43 117.66 33.51 117.37 C 31.24 116.53 28.24 117.01 26.44 115.30 C 27.44 114.36 29.47 112.38 30.92 113.17 Z" id="p33" />
<path d="M 62.50 114.50 C 62.50 114.50 62.50 114.50 62.50 114.50 Z" id="p34" />
<path d="M 73.16 149.18 C 83.18 148.71 93.88 149.13 104.00 148.99 C 107.56 149.13 111.29 148.69 114.80 149.20 C 115.21 151.73 114.94 154.43 114.99 157.00 C 114.81 164.20 115.36 171.66 114.80 178.80 C 113.89 179.00 112.96 179.08 112.00 179.03 C 99.36 178.86 85.66 179.28 73.16 178.82 C 72.87 169.11 72.94 158.91 73.16 149.18 Z" id="p35" />
<path d="M 77.99 151.95 C 81.31 153.35 83.91 156.27 87.01 158.00 C 91.34 158.00 95.69 158.10 100.02 157.98 C 102.61 157.65 103.33 155.44 105.67 154.67 C 106.88 153.62 109.12 151.54 110.83 152.18 C 111.28 153.16 111.01 153.78 110.01 154.05 C 108.21 154.86 107.32 156.72 105.23 157.22 L 105.16 157.88 C 107.97 158.34 111.00 157.63 113.78 158.21 C 114.12 159.61 114.12 161.39 113.79 162.79 C 111.30 163.28 108.55 162.87 106.00 163.00 C 103.27 162.84 100.59 163.57 98.24 162.21 C 98.39 164.65 95.13 163.67 96.71 165.21 C 100.61 167.52 103.66 169.93 107.33 172.64 C 108.48 173.20 110.74 174.51 110.84 175.87 C 108.89 176.56 107.96 175.39 106.31 174.67 C 104.09 172.50 101.32 170.89 98.77 169.24 C 97.29 167.80 94.91 166.15 93.21 165.19 L 92.73 166.72 C 90.85 167.36 89.60 168.90 87.80 169.78 C 86.31 171.65 84.32 172.08 82.69 173.69 C 80.32 174.54 80.03 176.75 77.15 175.86 C 76.98 174.62 78.87 174.34 78.84 173.15 C 76.69 172.67 74.77 173.76 73.96 171.02 C 74.84 168.20 77.13 166.87 78.31 164.32 C 79.35 164.10 79.94 163.66 80.08 163.00 C 79.15 160.42 77.38 161.24 75.21 160.84 C 74.77 159.40 77.83 160.56 78.29 159.28 C 79.20 158.28 78.92 156.51 79.80 155.23 C 78.34 155.26 75.31 152.49 77.99 151.95 Z" id="p36" />
<path d="M 89.73 162.23 C 90.34 162.84 92.16 163.89 91.78 164.87 C 90.42 165.95 87.52 162.55 89.73 162.23 Z" id="p37" />
<path d="M 89.14 165.09 C 90.16 166.84 87.55 166.84 86.75 167.75 C 85.91 168.26 85.18 169.85 84.16 169.77 C 84.89 168.16 86.84 164.34 89.14 165.09 Z" id="p38" />
<path d="M 81.35 171.34 C 81.68 171.68 81.68 171.68 81.35 171.34 Z" id="p39" /></defs><g stroke-width="10pt">
<use stroke="#547137" xlink:href="#p0" />
<use stroke="#fdfdfb" xlink:href="#p1" />
<use stroke="#fdfdfb" xlink:href="#p2" />
<use stroke="#fdfdfb" xlink:href="#p3" />
<use stroke="#fdfdfb" xlink:href="#p4" />
<use stroke="#fdfdfb" xlink:href="#p5" />
<use stroke="#fdfdfb" xlink:href="#p6" />
<use stroke="#fdfdfb" xlink:href="#p7" />
<use stroke="#fdfdfb" xlink:href="#p8" />
<use stroke="#fdfdfb" xlink:href="#p9" />
<use stroke="#fdfdfb" xlink:href="#p10" />
<use stroke="#fdfdfb" xlink:href="#p11" />
<use stroke="#fdfdfb" xlink:href="#p12" />
<use stroke="#fdfdfb" xlink:href="#p13" />
<use stroke="#547137" xlink:href="#p14" />
<use stroke="#547137" xlink:href="#p15" />
<use stroke="#fdfdfb" xlink:href="#p16" />
<use stroke="#fdfdfb" xlink:href="#p17" />
<use stroke="#fdfdfb" xlink:href="#p18" />
<use stroke="#fdfdfb" xlink:href="#p19" />
<use stroke="#fdfdfb" xlink:href="#p20" />
<use stroke="#fdfdfb" xlink:href="#p21" />
<use stroke="#fdfdfb" xlink:href="#p22" />
<use stroke="#fdfdfb" xlink:href="#p23" />
<use stroke="#fdfdfb" xlink:href="#p24" />
<use stroke="#547137" xlink:href="#p25" />
<use stroke="#fdfdfb" xlink:href="#p26" />
<use stroke="#547137" xlink:href="#p27" />
<use stroke="#547137" xlink:href="#p28" />
<use stroke="#547137" xlink:href="#p29" />
<use stroke="#fdfdfb" xlink:href="#p30" />
<use stroke="#fdfdfb" xlink:href="#p31" />
<use stroke="#fdfdfb" xlink:href="#p32" />
<use stroke="#fdfdfb" xlink:href="#p33" />
<use stroke="#547137" xlink:href="#p34" />
<use stroke="#fdfdfb" xlink:href="#p35" />
<use stroke="#547137" xlink:href="#p36" />
<use stroke="#fdfdfb" xlink:href="#p37" />
<use stroke="#fdfdfb" xlink:href="#p38" />
<use stroke="#fdfdfb" xlink:href="#p39" /></g>
<g>
<use xlink:href="#p0" fill="#547137" />
<use xlink:href="#p1" fill="#fdfdfb" />
<use xlink:href="#p2" fill="#fdfdfb" />
<use xlink:href="#p3" fill="#fdfdfb" />
<use xlink:href="#p4" fill="#fdfdfb" />
<use xlink:href="#p5" fill="#fdfdfb" />
<use xlink:href="#p6" fill="#fdfdfb" />
<use xlink:href="#p7" fill="#fdfdfb" />
<use xlink:href="#p8" fill="#fdfdfb" />
<use xlink:href="#p9" fill="#fdfdfb" />
<use xlink:href="#p10" fill="#fdfdfb" />
<use xlink:href="#p11" fill="#fdfdfb" />
<use xlink:href="#p12" fill="#fdfdfb" />
<use xlink:href="#p13" fill="#fdfdfb" />
<use xlink:href="#p14" fill="#547137" />
<use xlink:href="#p15" fill="#547137" />
<use xlink:href="#p16" fill="#fdfdfb" />
<use xlink:href="#p17" fill="#fdfdfb" />
<use xlink:href="#p18" fill="#fdfdfb" />
<use xlink:href="#p19" fill="#fdfdfb" />
<use xlink:href="#p20" fill="#fdfdfb" />
<use xlink:href="#p21" fill="#fdfdfb" />
<use xlink:href="#p22" fill="#fdfdfb" />
<use xlink:href="#p23" fill="#fdfdfb" />
<use xlink:href="#p24" fill="#fdfdfb" />
<use xlink:href="#p25" fill="#547137" />
<use xlink:href="#p26" fill="#fdfdfb" />
<use xlink:href="#p27" fill="#547137" />
<use xlink:href="#p28" fill="#547137" />
<use xlink:href="#p29" fill="#547137" />
<use xlink:href="#p30" fill="#fdfdfb" />
<use xlink:href="#p31" fill="#fdfdfb" />
<use xlink:href="#p32" fill="#fdfdfb" />
<use xlink:href="#p33" fill="#fdfdfb" />
<use xlink:href="#p34" fill="#547137" />
<use xlink:href="#p35" fill="#fdfdfb" />
<use xlink:href="#p36" fill="#547137" />
<use xlink:href="#p37" fill="#fdfdfb" />
<use xlink:href="#p38" fill="#fdfdfb" />
<use xlink:href="#p39" fill="#fdfdfb" /></g></svg>