<?xml version="1.0" encoding="utf-8"?>
<!-- Generator: Adobe Illustrator 19.2.1, SVG Export Plug-In . SVG Version: 6.00 Build 0)  -->
<svg version="1.1" id="Calque_1" xmlns="http://www.w3.org/2000/svg" xmlns:xlink="http://www.w3.org/1999/xlink" x="0px" y="0px"
	 viewBox="0 0 30 15.6" style="enable-background:new 0 0 30 15.6;" xml:space="preserve">
<style type="text/css">
	.st0{fill:none;stroke:#6E8935;stroke-width:0.3167;stroke-miterlimit:10;}
	.st1{fill:#6E8935;}
</style>
<line class="st0" x1="1.3" y1="15.2" x2="28.3" y2="8"/>
<polygon class="st1" points="2.6,14.7 2.6,2.5 3.6,2.5 3.6,0.5 5.3,0.5 5.3,6 6.1,6 6.1,2.8 7.3,2.8 7.3,5.2 7.7,5.2 8.1,5.2 
	8.1,4.2 9.1,4.2 9.1,6.6 9.9,6.6 9.9,3.9 12.2,3.9 12.2,6.5 13.2,6.5 13.2,3.9 14.1,3.9 14.1,1.6 16.1,1.6 16.1,7.4 16.8,7.4 
	16.8,3.8 17.9,3.8 17.9,6.5 18.6,6.5 18.6,5.5 19.6,5.5 19.6,7.8 20.6,7.8 20.6,0 22.5,0 22.5,5.8 23.9,5.8 23.9,3.6 25.5,3.6 
	25.5,8.6 "/>
<polygon class="st1" points="27.8,8.2 26.8,7.2 30,7.2 27.7,9.6 "/>
<rect x="0.9" y="15" transform="matrix(0.9664 -0.2569 0.2569 0.9664 -3.8716 0.7794)" class="st1" width="0.3" height="0.4"/>
<rect x="0.5" y="15.2" transform="matrix(0.9664 -0.2569 0.2569 0.9664 -3.9257 0.6764)" class="st1" width="0.2" height="0.4"/>
<rect x="0.2" y="15.2" transform="matrix(0.9664 -0.2569 0.2569 0.9664 -3.9572 0.5895)" class="st1" width="0.2" height="0.4"/>
<rect x="0" y="15.2" transform="matrix(0.9664 -0.2569 0.2569 0.9664 -3.9624 0.5403)" class="st1" width="0.1" height="0.4"/>
</svg>
