<?xml version="1.0" encoding="UTF-8" standalone="no"?>
<!DOCTYPE svg PUBLIC "-//W3C//DTD SVG 1.1//EN" "http://www.w3.org/Graphics/SVG/1.1/DTD/svg11.dtd">
<svg viewBox="0 0 800 600" xmlns:xlink="http://www.w3.org/1999/xlink" height="600.0pt" width="800.0pt" xmlns="http://www.w3.org/2000/svg" version="1.1"><defs>
<path d="M 0.00 0.00 L 800.00 0.00 L 800.00 600.00 L 0.00 600.00 L 0.00 0.00 Z" id="p0" />
<path d="M 427.90 118.17 C 434.39 119.01 440.68 120.79 445.34 125.67 C 449.38 129.45 450.66 134.66 451.04 139.99 C 451.17 144.50 450.92 149.37 448.18 153.15 C 446.50 155.67 443.88 157.45 440.89 157.96 C 433.07 158.50 425.00 157.30 417.24 158.28 C 411.34 160.13 406.77 163.43 400.14 162.90 C 397.19 162.63 395.60 160.07 393.81 158.04 C 387.88 157.92 381.94 157.92 376.00 157.97 C 369.89 157.99 364.13 158.58 358.15 156.90 C 352.95 155.78 348.35 152.92 345.86 148.11 C 343.50 144.01 343.88 139.52 344.00 134.95 C 344.16 130.21 346.37 125.62 348.36 121.39 C 349.55 122.41 350.79 123.07 351.35 124.62 C 352.92 128.46 353.62 132.79 354.41 136.85 C 360.37 135.97 365.59 136.10 371.47 137.50 C 368.28 141.15 363.82 143.18 360.66 146.92 C 366.41 147.45 371.33 145.14 375.86 141.85 C 382.72 136.72 389.40 131.38 396.24 126.22 C 399.85 123.27 404.67 121.61 409.00 119.97 C 415.15 117.67 421.43 117.62 427.90 118.17 Z" id="p1" />
<path d="M 406.17 194.90 C 403.47 196.53 400.98 197.48 397.86 197.90 C 393.04 197.78 388.61 197.51 383.95 199.09 C 383.89 202.04 383.25 204.60 384.99 207.21 C 387.46 210.93 389.67 214.62 391.21 218.83 C 385.64 221.96 380.78 226.00 375.57 229.65 C 372.04 232.19 368.02 231.07 363.94 231.26 C 359.90 231.16 355.72 233.33 351.80 234.40 C 352.07 232.21 351.60 229.95 353.29 228.28 C 356.84 224.35 361.22 223.03 365.61 220.49 C 368.31 219.02 368.94 215.82 369.92 213.17 C 370.64 213.65 371.37 214.14 372.09 214.63 C 372.69 213.66 373.28 212.68 373.86 211.70 C 368.34 211.78 365.54 216.32 360.90 219.04 C 357.40 221.56 352.96 220.78 349.45 222.31 C 346.16 225.25 343.63 229.60 341.30 233.32 C 339.85 235.70 337.50 236.94 335.73 238.95 C 334.99 240.40 334.66 242.09 334.22 243.65 C 332.87 243.07 331.47 242.50 330.20 241.76 C 329.88 238.94 331.44 237.42 333.12 235.45 C 333.09 235.02 333.05 234.59 333.02 234.17 C 331.36 236.03 329.73 237.91 328.15 239.84 C 326.75 238.72 325.34 237.49 323.80 236.58 C 321.92 236.22 319.73 237.25 317.99 237.91 C 321.63 235.62 321.58 232.42 322.45 228.65 C 324.05 228.70 325.65 228.75 327.25 228.79 C 328.22 226.82 329.24 225.35 330.90 223.91 C 334.24 220.91 336.22 216.53 339.51 213.55 C 342.98 211.62 346.52 210.07 349.77 207.71 C 359.22 202.59 369.44 198.58 379.85 195.90 C 389.10 194.81 396.83 191.94 406.17 194.90 Z" id="p2" />
<path d="M 407.97 195.84 C 410.67 196.47 413.30 197.88 415.79 199.08 C 419.64 200.79 422.63 202.55 424.66 206.40 C 422.89 206.16 421.12 205.88 419.35 205.63 C 419.84 206.45 420.36 207.24 420.91 208.01 C 423.29 208.76 426.02 208.60 428.50 208.79 C 427.72 210.39 427.15 212.33 425.97 213.68 C 423.97 214.61 421.46 214.62 419.30 214.96 C 420.42 217.23 421.77 219.73 422.21 222.24 C 421.89 223.99 420.85 225.67 420.09 227.27 C 420.59 228.84 421.13 230.40 421.67 231.96 C 419.94 231.86 418.20 231.77 416.47 231.69 C 416.31 228.65 416.02 225.63 415.52 222.62 C 413.34 224.88 411.95 227.25 412.65 230.50 C 413.06 233.16 416.62 233.62 418.66 234.59 C 416.29 235.42 414.02 236.49 411.68 237.39 C 407.58 239.52 402.62 233.84 398.31 235.07 C 393.78 236.35 390.94 241.25 387.22 244.12 C 384.56 246.59 381.26 247.48 381.78 251.83 C 382.10 255.04 385.36 254.05 387.61 254.16 C 383.01 256.37 381.73 261.07 376.35 262.10 C 375.57 257.96 375.37 254.22 375.71 250.01 C 374.42 249.66 373.13 249.30 371.84 248.95 C 370.90 251.29 370.26 253.49 368.08 255.03 C 366.62 256.41 363.43 258.02 363.63 260.37 C 364.08 262.43 365.71 264.23 366.53 266.17 C 367.94 269.02 367.83 271.90 368.03 274.99 C 365.00 274.26 362.01 273.40 359.00 272.58 C 357.47 276.07 355.98 279.57 354.42 283.04 C 355.43 284.62 356.42 286.22 357.46 287.79 C 352.66 291.21 349.52 295.67 344.13 298.18 C 340.02 300.18 336.78 303.41 336.02 308.07 C 335.40 312.74 333.48 318.16 334.46 322.82 C 335.90 326.43 338.99 329.55 341.10 332.81 C 342.49 334.77 343.50 336.97 345.81 337.99 C 348.71 339.30 351.66 340.42 354.44 342.02 C 353.95 340.87 353.47 339.71 353.00 338.55 C 356.80 340.71 360.29 341.04 364.59 341.08 C 364.76 341.79 364.92 342.49 365.09 343.20 C 365.77 343.40 366.45 343.61 367.12 343.84 L 367.40 344.02 C 369.03 345.94 371.13 346.54 373.42 347.28 C 373.42 352.01 375.12 355.83 377.14 359.98 C 379.08 363.93 379.15 368.06 380.09 372.23 C 383.24 379.01 390.01 382.58 390.76 390.59 C 396.85 391.46 402.90 391.13 408.58 388.62 C 413.24 386.09 416.95 381.17 420.20 377.12 C 422.42 374.42 427.74 373.11 428.47 369.51 C 428.63 366.03 426.88 362.50 426.95 359.01 C 427.08 356.99 428.63 356.18 429.98 354.93 C 436.42 349.51 440.50 342.76 444.34 335.39 C 445.28 333.40 445.67 331.18 446.13 329.04 C 442.31 330.10 438.69 331.39 435.06 332.98 C 430.85 329.12 426.44 326.34 423.50 321.53 C 420.65 316.86 417.95 312.26 415.86 307.20 C 420.53 311.48 423.40 317.05 427.84 321.51 C 430.39 324.07 431.93 327.10 433.20 330.44 C 438.12 329.35 441.73 326.95 445.60 323.89 C 450.47 320.97 453.46 315.16 454.58 309.76 C 455.26 306.56 451.04 304.91 449.03 303.27 C 451.49 303.24 454.16 303.66 456.57 303.15 C 457.96 302.44 459.05 301.04 460.19 300.00 C 461.99 301.10 463.81 302.45 465.81 303.15 C 467.61 303.63 469.57 303.64 471.43 303.76 C 473.64 310.25 479.32 315.61 484.99 319.26 C 485.17 313.56 480.83 309.75 481.53 304.23 C 482.14 297.96 483.88 292.25 485.60 286.24 C 490.40 286.99 494.99 290.53 495.91 295.47 C 496.86 298.80 495.27 302.56 495.40 305.98 C 495.51 307.95 496.33 309.98 496.97 311.84 C 497.99 310.58 498.99 309.32 499.90 307.98 C 499.45 310.01 498.83 311.98 498.16 313.94 L 496.58 313.31 C 496.46 315.22 496.38 317.13 496.27 319.04 L 496.05 319.81 C 491.81 325.65 489.71 333.22 488.33 340.22 L 487.99 340.87 C 483.48 345.28 480.77 350.62 478.27 356.32 C 477.29 357.62 476.26 358.88 475.29 360.19 C 473.06 359.79 471.74 361.26 472.38 363.43 L 471.88 363.80 C 467.71 366.21 460.77 369.43 459.90 374.69 C 456.85 377.12 453.70 379.40 450.27 381.27 C 446.75 382.40 443.83 383.63 441.26 386.39 C 439.05 387.80 436.63 388.47 434.15 389.23 C 431.37 388.99 429.91 389.22 427.85 391.20 L 427.30 391.24 C 424.23 390.58 423.17 390.85 421.00 393.11 C 419.44 393.56 417.87 393.99 416.28 394.33 C 410.83 394.42 405.37 394.24 399.91 394.36 C 402.63 394.80 405.36 395.21 408.10 395.56 C 402.71 396.24 397.46 396.02 392.06 395.97 C 391.65 394.97 390.92 394.60 389.85 394.88 L 388.12 394.92 C 385.71 393.48 384.54 393.41 381.89 394.34 C 379.24 393.67 376.66 392.89 374.10 391.91 C 369.46 390.09 364.56 390.26 360.01 388.06 C 359.85 387.33 359.70 386.61 359.55 385.88 C 357.31 385.35 355.08 384.76 352.86 384.14 C 351.17 383.27 349.52 382.32 347.82 381.48 C 348.06 379.36 346.40 378.92 344.64 379.23 C 339.74 376.42 335.37 372.93 331.36 368.98 L 330.99 368.65 C 326.71 365.07 322.89 360.99 319.76 356.36 C 319.00 354.57 318.32 352.81 317.43 351.09 C 316.80 350.95 316.16 350.83 315.52 350.71 C 315.06 350.08 314.61 349.45 314.16 348.82 C 312.66 345.27 312.06 341.51 310.91 337.87 C 309.90 334.64 305.65 332.81 304.69 329.78 C 304.74 320.26 303.22 310.89 298.51 302.49 C 298.73 296.67 295.91 289.75 298.48 284.51 C 300.29 280.00 300.54 275.46 301.79 270.79 C 303.73 263.48 306.10 256.37 309.70 249.70 C 311.92 245.57 314.17 240.76 317.99 237.91 C 319.73 237.25 321.92 236.22 323.80 236.58 C 325.34 237.49 326.75 238.72 328.15 239.84 C 329.73 237.91 331.36 236.03 333.02 234.17 C 333.05 234.59 333.09 235.02 333.12 235.45 C 331.44 237.42 329.88 238.94 330.20 241.76 C 331.47 242.50 332.87 243.07 334.22 243.65 C 334.66 242.09 334.99 240.40 335.73 238.95 C 337.50 236.94 339.85 235.70 341.30 233.32 C 343.63 229.60 346.16 225.25 349.45 222.31 C 352.96 220.78 357.40 221.56 360.90 219.04 C 365.54 216.32 368.34 211.78 373.86 211.70 C 373.28 212.68 372.69 213.66 372.09 214.63 C 371.37 214.14 370.64 213.65 369.92 213.17 C 368.94 215.82 368.31 219.02 365.61 220.49 C 361.22 223.03 356.84 224.35 353.29 228.28 C 351.60 229.95 352.07 232.21 351.80 234.40 C 355.72 233.33 359.90 231.16 363.94 231.26 C 368.02 231.07 372.04 232.19 375.57 229.65 C 380.78 226.00 385.64 221.96 391.21 218.83 C 389.67 214.62 387.46 210.93 384.99 207.21 C 383.25 204.60 383.89 202.04 383.95 199.09 C 388.61 197.51 393.04 197.78 397.86 197.90 C 401.32 197.63 404.54 196.15 407.97 195.84 Z" id="p3" />
<path d="M 415.32 196.47 C 421.71 197.42 427.88 199.98 434.02 201.95 C 438.86 204.55 443.33 207.68 447.91 210.68 C 450.15 212.28 452.43 212.38 455.08 212.45 C 462.59 215.83 467.98 223.38 473.95 229.04 C 478.10 232.85 481.33 237.05 484.21 241.88 C 483.11 241.77 482.02 241.65 480.92 241.52 C 485.36 244.59 488.84 248.89 491.07 253.78 C 492.33 257.38 492.47 261.16 494.26 264.64 C 498.71 273.95 498.13 283.09 499.38 293.08 C 499.40 298.06 499.79 303.02 499.90 307.98 C 498.99 309.32 497.99 310.58 496.97 311.84 C 496.33 309.98 495.51 307.95 495.40 305.98 C 495.27 302.56 496.86 298.80 495.91 295.47 C 494.99 290.53 490.40 286.99 485.60 286.24 C 483.88 292.25 482.14 297.96 481.53 304.23 C 480.83 309.75 485.17 313.56 484.99 319.26 C 479.32 315.61 473.64 310.25 471.43 303.76 C 469.57 303.64 467.61 303.63 465.81 303.15 C 463.81 302.45 461.99 301.10 460.19 300.00 C 459.05 301.04 457.96 302.44 456.57 303.15 C 454.16 303.66 451.49 303.24 449.03 303.27 C 451.04 304.91 455.26 306.56 454.58 309.76 C 453.46 315.16 450.47 320.97 445.60 323.89 C 441.73 326.95 438.12 329.35 433.20 330.44 C 431.93 327.10 430.39 324.07 427.84 321.51 C 423.40 317.05 420.53 311.48 415.86 307.20 C 417.95 312.26 420.65 316.86 423.50 321.53 C 426.44 326.34 430.85 329.12 435.06 332.98 C 438.69 331.39 442.31 330.10 446.13 329.04 C 445.67 331.18 445.28 333.40 444.34 335.39 C 440.50 342.76 436.42 349.51 429.98 354.93 C 428.63 356.18 427.08 356.99 426.95 359.01 C 426.88 362.50 428.63 366.03 428.47 369.51 C 427.74 373.11 422.42 374.42 420.20 377.12 C 416.95 381.17 413.24 386.09 408.58 388.62 C 402.90 391.13 396.85 391.46 390.76 390.59 C 390.01 382.58 383.24 379.01 380.09 372.23 C 379.15 368.06 379.08 363.93 377.14 359.98 C 375.12 355.83 373.42 352.01 373.42 347.28 C 371.13 346.54 369.03 345.94 367.40 344.02 C 367.33 343.93 367.23 343.87 367.12 343.84 C 366.45 343.61 365.77 343.40 365.09 343.20 C 364.92 342.49 364.76 341.79 364.59 341.08 C 360.29 341.04 356.80 340.71 353.00 338.55 C 353.47 339.71 353.95 340.87 354.44 342.02 C 351.66 340.42 348.71 339.30 345.81 337.99 C 343.50 336.97 342.49 334.77 341.10 332.81 C 338.99 329.55 335.90 326.43 334.46 322.82 C 333.48 318.16 335.40 312.74 336.02 308.07 C 336.78 303.41 340.02 300.18 344.13 298.18 C 349.52 295.67 352.66 291.21 357.46 287.79 C 356.42 286.22 355.43 284.62 354.42 283.04 C 355.98 279.57 357.47 276.07 359.00 272.58 C 362.01 273.40 365.00 274.26 368.03 274.99 C 367.83 271.90 367.94 269.02 366.53 266.17 C 365.71 264.23 364.08 262.43 363.63 260.37 C 363.43 258.02 366.62 256.41 368.08 255.03 C 370.26 253.49 370.90 251.29 371.84 248.95 C 373.13 249.30 374.42 249.66 375.71 250.01 C 375.37 254.22 375.57 257.96 376.35 262.10 C 381.73 261.07 383.01 256.37 387.61 254.16 C 385.36 254.05 382.10 255.04 381.78 251.83 C 381.26 247.48 384.56 246.59 387.22 244.12 C 390.94 241.25 393.78 236.35 398.31 235.07 C 402.62 233.84 407.58 239.52 411.68 237.39 C 414.02 236.49 416.29 235.42 418.66 234.59 C 416.62 233.62 413.06 233.16 412.65 230.50 C 411.95 227.25 413.34 224.88 415.52 222.62 C 416.02 225.63 416.31 228.65 416.47 231.69 C 418.20 231.77 419.94 231.86 421.67 231.96 C 421.13 230.40 420.59 228.84 420.09 227.27 C 420.85 225.67 421.89 223.99 422.21 222.24 C 421.77 219.73 420.42 217.23 419.30 214.96 C 421.46 214.62 423.97 214.61 425.97 213.68 C 427.15 212.33 427.72 210.39 428.50 208.79 C 426.02 208.60 423.29 208.76 420.91 208.01 C 420.36 207.24 419.84 206.45 419.35 205.63 C 421.12 205.88 422.89 206.16 424.66 206.40 C 422.63 202.55 419.64 200.79 415.79 199.08 C 415.63 198.21 415.47 197.34 415.32 196.47 Z" id="p4" />
<path d="M 434.02 201.95 C 437.98 203.34 441.94 204.46 445.70 206.38 C 449.12 208.03 451.96 210.35 455.08 212.45 C 452.43 212.38 450.15 212.28 447.91 210.68 C 443.33 207.68 438.86 204.55 434.02 201.95 Z" id="p5" />
<path d="M 355.90 209.06 C 355.64 211.05 355.36 213.03 355.11 215.02 C 351.24 216.22 347.37 217.40 343.46 218.47 C 346.32 213.39 350.92 211.48 355.90 209.06 Z" id="p6" />
<path d="M 395.85 221.44 C 397.20 221.90 398.51 222.48 399.82 223.03 C 399.59 224.26 399.36 225.49 399.12 226.72 C 397.35 226.88 395.58 227.04 393.81 227.18 C 394.40 225.26 394.97 223.25 395.85 221.44 Z" id="p7" />
<path d="M 368.04 235.17 C 370.10 235.59 374.01 235.45 374.52 238.00 C 373.67 241.02 368.95 239.93 366.60 240.14 C 367.02 238.49 367.43 236.77 368.04 235.17 Z" id="p8" />
<path d="M 577.13 245.05 C 581.11 244.44 584.95 244.18 588.42 246.61 C 591.74 248.77 592.88 251.93 595.02 255.02 C 598.05 256.78 602.40 257.13 604.93 260.06 C 608.39 264.27 609.52 271.24 605.46 275.46 C 601.37 280.28 595.19 281.46 589.31 282.62 C 587.23 290.71 587.95 299.76 588.86 308.00 C 589.45 313.71 592.88 317.23 595.15 322.44 C 591.61 321.64 588.30 320.08 584.75 319.38 C 580.13 318.57 575.58 320.05 571.15 321.18 C 573.92 316.24 576.56 311.42 577.86 305.85 C 579.53 299.30 579.32 292.87 578.99 286.18 C 576.06 288.90 572.56 292.89 568.20 292.65 C 564.07 291.56 560.72 287.69 559.11 283.87 C 558.06 281.50 558.90 279.41 559.38 277.03 C 557.10 276.31 553.73 275.72 552.30 273.63 C 551.28 269.24 552.03 264.60 555.34 261.35 C 558.05 258.28 561.49 257.85 565.31 257.28 C 565.99 254.72 566.50 251.37 568.38 249.39 C 570.62 247.03 573.98 245.65 577.13 245.05 Z" id="p9" />
<path d="M 254.99 245.43 C 259.35 247.69 263.64 250.66 265.14 255.61 C 266.43 259.64 268.22 265.02 265.91 268.94 C 263.55 272.78 260.62 276.47 258.66 280.54 C 257.72 284.52 256.90 287.98 254.32 291.28 C 256.50 294.94 258.76 298.98 261.83 301.95 C 264.70 302.70 267.31 303.19 269.78 304.99 C 266.37 305.65 262.61 306.37 259.15 305.87 C 256.70 305.50 255.07 303.27 253.29 301.72 C 250.44 299.18 247.41 296.88 244.66 294.22 C 242.68 294.68 240.64 295.05 238.72 295.74 C 236.69 297.36 235.35 299.99 233.91 302.13 C 234.47 303.49 235.04 304.84 235.61 306.20 C 232.73 306.76 229.97 307.02 227.03 307.00 C 227.77 302.12 228.60 297.24 229.54 292.40 C 223.43 293.17 218.08 291.30 212.25 289.86 C 211.36 292.68 210.23 295.46 209.51 298.34 C 209.03 299.96 209.90 301.79 211.57 302.26 C 214.13 303.23 216.44 304.23 218.53 306.06 C 214.08 307.22 208.97 308.18 205.24 304.77 C 202.23 302.46 201.49 299.82 201.60 296.17 C 198.86 298.75 195.72 300.62 192.52 302.55 C 190.49 303.68 189.91 305.56 188.82 307.48 C 186.52 307.39 184.22 307.28 181.92 307.13 C 182.72 304.91 183.40 302.56 184.51 300.48 C 186.45 297.89 188.77 295.97 189.74 292.74 C 191.43 287.88 194.51 283.76 196.15 278.89 C 189.98 279.59 184.02 282.59 178.83 285.85 C 176.53 287.46 173.13 290.39 174.22 293.55 C 176.18 295.91 179.93 297.40 181.23 300.15 C 181.28 302.96 179.43 304.53 177.82 306.56 C 177.30 304.11 177.26 301.80 177.49 299.32 C 175.12 297.54 171.88 296.00 171.58 292.69 C 171.20 288.93 174.12 285.97 176.79 283.78 C 182.53 279.36 189.29 276.15 196.23 274.14 C 200.29 272.95 203.68 271.22 207.98 271.05 C 214.39 270.86 220.64 269.53 227.05 269.44 C 229.69 269.38 232.15 269.01 234.30 267.36 C 237.96 265.08 238.84 259.81 241.28 256.29 C 244.20 251.13 249.43 247.27 254.99 245.43 Z" id="p10" />
<path d="M 395.84 253.66 C 395.76 255.58 395.66 257.50 395.55 259.42 C 394.01 259.84 392.48 260.27 390.94 260.71 C 390.62 260.09 390.29 259.46 389.96 258.84 C 391.82 256.98 393.74 255.24 395.84 253.66 Z" id="p11" />
<path d="M 429.62 273.34 C 431.73 274.40 434.00 275.57 435.69 277.25 C 437.12 279.45 437.76 282.25 438.63 284.71 C 437.68 284.98 436.73 285.24 435.78 285.50 C 434.09 282.50 431.99 279.80 430.11 276.92 C 429.23 275.78 429.50 274.65 429.62 273.34 Z" id="p12" />
<path d="M 408.31 276.50 C 411.24 277.16 414.21 277.52 417.16 278.05 C 419.51 278.41 421.28 280.26 423.09 281.67 C 417.35 281.76 411.73 282.14 406.02 282.70 C 406.71 280.63 407.40 278.48 408.31 276.50 Z" id="p13" />
<path d="M 380.93 278.89 C 383.03 281.12 384.62 283.82 386.62 286.15 C 385.65 287.17 384.68 288.19 383.72 289.21 C 384.42 290.02 385.13 290.82 385.83 291.63 C 387.72 290.09 389.62 288.54 391.52 287.01 C 392.91 288.68 394.42 291.43 396.61 292.05 C 403.03 293.48 409.57 291.93 415.86 292.92 C 415.86 295.41 415.84 297.90 415.82 300.39 C 413.10 300.71 410.37 301.20 407.63 301.31 C 404.89 301.37 402.05 299.83 399.35 299.60 C 396.40 299.62 393.53 300.78 390.62 300.91 C 386.01 298.69 383.60 292.46 379.43 289.43 C 377.84 288.67 375.78 288.72 374.05 288.66 C 369.38 288.63 364.71 288.65 360.05 288.78 C 361.68 288.25 363.35 287.74 364.94 287.09 C 368.65 285.96 369.54 280.27 373.44 279.54 C 375.76 279.00 378.58 278.29 380.93 278.89 Z" id="p14" />
<path d="M 380.95 279.42 C 381.20 281.57 381.39 283.72 381.57 285.88 C 380.49 286.55 379.40 287.22 378.31 287.88 C 378.19 286.38 377.88 284.79 378.10 283.29 C 378.74 281.86 379.95 280.62 380.95 279.42 Z" id="p15" />
<path d="M 448.13 303.61 C 446.77 304.86 445.40 306.10 444.03 307.35 C 441.26 305.31 438.58 303.23 436.46 300.48 C 440.44 301.28 444.00 303.20 448.13 303.61 Z" id="p16" />
<path d="M 298.51 302.49 C 303.22 310.89 304.74 320.26 304.69 329.78 C 305.65 332.81 309.90 334.64 310.91 337.87 C 312.06 341.51 312.66 345.27 314.16 348.82 C 311.13 344.89 309.04 340.52 306.94 336.06 C 304.96 331.87 301.70 327.52 301.11 322.93 C 300.05 315.92 297.61 309.75 298.51 302.49 Z" id="p17" />
<path d="M 496.58 313.31 L 498.16 313.94 C 497.55 315.65 496.89 317.34 496.27 319.04 C 496.38 317.13 496.46 315.22 496.58 313.31 Z" id="p18" />
<path d="M 496.05 319.81 C 494.45 326.86 492.11 334.01 488.33 340.22 C 489.71 333.22 491.81 325.65 496.05 319.81 Z" id="p19" />
<path d="M 487.99 340.87 C 485.56 346.54 482.28 351.65 478.27 356.32 C 480.77 350.62 483.48 345.28 487.99 340.87 Z" id="p20" />
<path d="M 367.40 344.02 L 367.12 343.84 C 367.23 343.87 367.33 343.93 367.40 344.02 Z" id="p21" />
<path d="M 317.43 351.09 C 318.32 352.81 319.00 354.57 319.76 356.36 C 318.31 354.50 316.88 352.63 315.52 350.71 C 316.16 350.83 316.80 350.95 317.43 351.09 Z" id="p22" />
<path d="M 475.29 360.19 C 474.47 361.43 473.64 362.60 472.38 363.43 C 471.74 361.26 473.06 359.79 475.29 360.19 Z" id="p23" />
<path d="M 441.07 364.14 C 441.30 366.35 441.96 369.16 441.14 371.27 C 439.33 374.44 436.28 377.04 433.75 379.65 C 432.88 379.62 432.02 379.60 431.15 379.58 C 431.69 376.71 432.05 374.07 433.78 371.62 C 435.84 368.83 438.45 366.40 441.07 364.14 Z" id="p24" />
<path d="M 471.88 363.80 C 468.31 367.89 464.23 371.44 459.90 374.69 C 460.77 369.43 467.71 366.21 471.88 363.80 Z" id="p25" />
<path d="M 330.99 368.65 L 331.36 368.98 L 330.99 368.65 Z" id="p26" />
<path d="M 344.64 379.23 C 346.40 378.92 348.06 379.36 347.82 381.48 C 346.36 380.99 345.60 380.42 344.64 379.23 Z" id="p27" />
<path d="M 450.27 381.27 C 447.34 383.12 444.30 384.74 441.26 386.39 C 443.83 383.63 446.75 382.40 450.27 381.27 Z" id="p28" />
<path d="M 352.86 384.14 C 355.08 384.76 357.31 385.35 359.55 385.88 C 359.70 386.61 359.85 387.33 360.01 388.06 C 357.62 386.75 355.24 385.44 352.86 384.14 Z" id="p29" />
<path d="M 434.15 389.23 C 431.90 390.99 430.75 391.45 427.85 391.20 C 429.91 389.22 431.37 388.99 434.15 389.23 Z" id="p30" />
<path d="M 427.30 391.24 C 425.13 392.59 423.57 393.12 421.00 393.11 C 423.17 390.85 424.23 390.58 427.30 391.24 Z" id="p31" />
<path d="M 381.89 394.34 C 384.54 393.41 385.71 393.48 388.12 394.92 C 385.70 395.44 384.15 395.43 381.89 394.34 Z" id="p32" />
<path d="M 416.28 394.33 C 413.62 394.94 410.82 395.25 408.10 395.56 C 405.36 395.21 402.63 394.80 399.91 394.36 C 405.37 394.24 410.83 394.42 416.28 394.33 Z" id="p33" />
<path d="M 389.85 394.88 C 390.92 394.60 391.65 394.97 392.06 395.97 C 391.01 396.23 390.27 395.87 389.85 394.88 Z" id="p34" />
<path d="M 413.16 419.08 C 416.40 418.60 420.73 418.47 423.52 420.48 C 425.85 423.33 425.08 427.19 425.14 430.59 C 427.81 431.47 431.64 432.24 433.39 434.64 C 435.00 437.37 434.45 441.12 432.56 443.60 C 430.42 446.45 427.69 448.84 425.42 451.60 C 427.38 453.20 429.62 454.83 431.21 456.81 C 432.68 458.71 433.54 461.27 434.73 463.36 C 435.75 464.69 437.26 465.67 438.56 466.71 C 437.05 467.40 435.33 467.96 434.00 468.98 C 431.65 471.39 429.99 474.14 427.20 476.19 C 421.65 480.29 414.62 481.96 407.90 482.92 C 399.28 483.54 389.69 483.02 381.77 479.25 C 378.86 477.96 376.46 475.80 373.60 474.47 C 370.15 473.77 366.85 474.07 363.52 472.49 C 357.05 469.31 353.46 461.41 355.45 454.44 C 356.65 449.68 360.37 446.86 364.06 444.02 C 361.20 440.95 358.40 440.94 354.45 440.39 C 356.79 439.53 358.90 438.38 361.39 439.55 C 362.90 440.62 364.12 442.15 365.55 443.33 C 367.41 443.62 369.46 443.04 371.32 442.83 C 370.43 441.47 369.57 439.88 368.35 438.79 C 366.41 438.50 364.41 438.58 362.45 438.42 C 363.98 437.15 364.91 436.67 366.95 436.91 C 370.74 436.68 371.61 440.84 373.98 442.99 C 376.60 445.05 379.62 446.57 382.29 448.57 C 382.33 441.98 386.28 437.96 390.21 433.22 C 396.32 426.81 404.39 420.98 413.16 419.08 Z" id="p35" /></defs><g stroke-width="10pt">
<use stroke="#ffffff" xlink:href="#p0" />
<use stroke="#548e56" xlink:href="#p1" />
<use stroke="#548e56" xlink:href="#p2" />
<use stroke="#0099fe" xlink:href="#p3" />
<use stroke="#548e56" xlink:href="#p4" />
<use stroke="#0099fe" xlink:href="#p5" />
<use stroke="#0099fe" xlink:href="#p6" />
<use stroke="#548e56" xlink:href="#p7" />
<use stroke="#548e56" xlink:href="#p8" />
<use stroke="#548e56" xlink:href="#p9" />
<use stroke="#548e56" xlink:href="#p10" />
<use stroke="#0099fe" xlink:href="#p11" />
<use stroke="#0099fe" xlink:href="#p12" />
<use stroke="#0099fe" xlink:href="#p13" />
<use stroke="#0099fe" xlink:href="#p14" />
<use stroke="#548e56" xlink:href="#p15" />
<use stroke="#0099fe" xlink:href="#p16" />
<use stroke="#548e56" xlink:href="#p17" />
<use stroke="#548e56" xlink:href="#p18" />
<use stroke="#548e56" xlink:href="#p19" />
<use stroke="#548e56" xlink:href="#p20" />
<use stroke="#ffffff" xlink:href="#p21" />
<use stroke="#548e56" xlink:href="#p22" />
<use stroke="#548e56" xlink:href="#p23" />
<use stroke="#548e56" xlink:href="#p24" />
<use stroke="#548e56" xlink:href="#p25" />
<use stroke="#548e56" xlink:href="#p26" />
<use stroke="#548e56" xlink:href="#p27" />
<use stroke="#548e56" xlink:href="#p28" />
<use stroke="#548e56" xlink:href="#p29" />
<use stroke="#548e56" xlink:href="#p30" />
<use stroke="#548e56" xlink:href="#p31" />
<use stroke="#548e56" xlink:href="#p32" />
<use stroke="#548e56" xlink:href="#p33" />
<use stroke="#548e56" xlink:href="#p34" />
<use stroke="#548e56" xlink:href="#p35" /></g>
<g>
<use xlink:href="#p0" fill="#ffffff" />
<use xlink:href="#p1" fill="#548e56" />
<use xlink:href="#p2" fill="#548e56" />
<use xlink:href="#p3" fill="#0099fe" />
<use xlink:href="#p4" fill="#548e56" />
<use xlink:href="#p5" fill="#0099fe" />
<use xlink:href="#p6" fill="#0099fe" />
<use xlink:href="#p7" fill="#548e56" />
<use xlink:href="#p8" fill="#548e56" />
<use xlink:href="#p9" fill="#548e56" />
<use xlink:href="#p10" fill="#548e56" />
<use xlink:href="#p11" fill="#0099fe" />
<use xlink:href="#p12" fill="#0099fe" />
<use xlink:href="#p13" fill="#0099fe" />
<use xlink:href="#p14" fill="#0099fe" />
<use xlink:href="#p15" fill="#548e56" />
<use xlink:href="#p16" fill="#0099fe" />
<use xlink:href="#p17" fill="#548e56" />
<use xlink:href="#p18" fill="#548e56" />
<use xlink:href="#p19" fill="#548e56" />
<use xlink:href="#p20" fill="#548e56" />
<use xlink:href="#p21" fill="#ffffff" />
<use xlink:href="#p22" fill="#548e56" />
<use xlink:href="#p23" fill="#548e56" />
<use xlink:href="#p24" fill="#548e56" />
<use xlink:href="#p25" fill="#548e56" />
<use xlink:href="#p26" fill="#548e56" />
<use xlink:href="#p27" fill="#548e56" />
<use xlink:href="#p28" fill="#548e56" />
<use xlink:href="#p29" fill="#548e56" />
<use xlink:href="#p30" fill="#548e56" />
<use xlink:href="#p31" fill="#548e56" />
<use xlink:href="#p32" fill="#548e56" />
<use xlink:href="#p33" fill="#548e56" />
<use xlink:href="#p34" fill="#548e56" />
<use xlink:href="#p35" fill="#548e56" /></g></svg>