<?xml version="1.0" encoding="UTF-8" standalone="no"?>
<!DOCTYPE svg PUBLIC "-//W3C//DTD SVG 1.1//EN" "http://www.w3.org/Graphics/SVG/1.1/DTD/svg11.dtd">
<svg viewBox="0 0 264 191" xmlns:xlink="http://www.w3.org/1999/xlink" height="191.0pt" width="264.0pt" xmlns="http://www.w3.org/2000/svg" version="1.1"><defs>
<path d="M 0.00 0.00 L 264.00 0.00 L 264.00 191.00 L 0.00 191.00 L 0.00 0.00 Z" id="p0" />
<path d="M 19.13 19.08 C 21.56 20.18 23.25 23.05 25.39 24.68 C 26.55 24.37 27.62 23.67 28.73 23.21 C 31.37 25.20 34.72 28.63 36.70 31.28 C 38.44 34.23 35.51 37.54 34.12 40.05 C 38.66 45.24 42.11 51.06 43.06 57.99 C 42.94 65.70 38.44 71.10 33.23 76.23 C 28.57 79.05 24.69 82.90 20.57 86.58 C 15.24 92.34 8.76 98.49 6.44 106.18 C 5.92 110.49 5.13 115.76 7.25 119.71 C 10.53 126.77 17.56 132.00 25.10 133.67 C 28.97 134.22 33.06 133.79 36.95 133.57 C 36.48 128.91 34.69 124.60 34.03 120.01 C 33.51 114.77 35.69 110.71 38.38 106.46 C 39.82 102.86 38.18 98.13 39.42 94.41 C 40.21 92.13 42.50 91.47 44.42 90.35 C 49.26 80.63 56.22 72.13 65.17 65.93 C 65.32 65.26 65.46 64.59 65.61 63.91 C 84.82 61.19 103.51 58.22 123.00 58.97 C 131.40 58.54 139.66 59.54 148.00 60.45 C 160.37 62.06 172.14 66.29 182.18 73.77 C 187.95 78.30 193.29 83.26 198.22 88.70 C 208.52 90.16 218.91 91.71 228.99 94.31 C 237.43 96.87 246.22 99.14 253.45 104.43 C 253.68 104.21 253.91 103.99 254.14 103.77 C 255.05 105.20 256.20 106.51 256.96 108.03 C 257.28 110.59 257.17 113.23 257.20 115.81 C 257.84 116.10 258.49 116.38 259.13 116.67 C 260.80 123.44 260.40 129.51 258.30 136.10 C 256.89 137.28 256.11 138.58 254.04 138.39 C 246.28 138.45 238.50 138.56 230.74 138.38 C 232.75 131.66 231.52 125.09 227.61 119.35 C 221.83 110.59 208.75 107.61 199.67 112.74 C 195.76 115.15 192.29 117.90 190.34 122.18 C 187.29 128.06 187.42 134.86 189.81 140.93 C 181.59 141.08 173.16 141.51 165.03 140.34 C 148.36 140.14 131.64 140.16 114.98 140.33 C 108.11 141.35 101.24 141.14 94.32 140.98 C 96.15 136.10 96.55 130.86 95.21 125.81 C 93.67 119.92 89.02 115.04 83.70 112.29 C 81.21 110.94 78.75 111.43 76.00 111.35 C 73.33 111.39 70.65 111.11 68.00 111.29 C 63.13 112.20 59.49 115.81 56.43 119.46 C 52.12 125.37 51.74 132.34 53.45 139.26 C 48.41 138.63 41.39 139.53 37.88 135.20 C 35.27 135.72 32.67 136.15 30.00 136.12 C 16.52 136.67 4.34 125.28 2.97 112.02 C 3.77 106.08 6.11 100.45 9.70 95.65 C 16.59 86.63 24.88 79.75 33.59 72.62 C 38.72 68.22 41.91 61.74 40.21 54.93 C 39.09 49.44 35.77 45.91 32.51 41.61 C 29.69 42.99 26.62 45.57 23.52 43.28 C 20.66 40.80 17.80 38.01 15.59 34.93 C 16.48 34.74 17.38 34.54 18.28 34.35 C 18.04 33.67 17.79 32.99 17.55 32.31 C 15.03 30.54 11.28 28.46 12.03 24.81 C 14.98 26.43 16.83 28.84 19.15 31.19 C 20.99 29.96 22.74 28.77 24.06 26.94 C 22.55 24.28 19.29 22.60 17.55 19.93 L 19.13 19.08 Z" id="p1" />
<path d="M 119.97 65.00 C 119.99 73.65 120.02 82.30 119.99 90.96 C 108.66 90.89 97.32 91.13 86.00 90.73 C 81.11 90.59 76.72 91.51 72.06 89.52 C 70.28 88.80 68.06 87.21 68.70 85.02 C 70.08 80.01 71.07 73.49 74.71 69.59 C 77.72 66.45 82.09 67.22 86.02 66.84 C 97.32 65.01 108.55 64.95 119.97 65.00 Z" id="p2" />
<path d="M 128.02 65.00 C 134.97 65.17 142.16 64.63 149.02 65.73 C 156.02 66.68 162.90 68.90 169.38 71.66 C 177.95 75.31 185.27 81.73 191.91 88.13 C 193.46 89.57 194.29 91.38 195.19 93.25 C 190.46 92.87 185.70 93.15 180.99 92.72 C 173.51 91.27 165.62 92.29 158.00 91.86 C 154.48 91.85 151.47 90.25 148.01 90.01 C 143.81 89.83 139.70 89.58 135.65 90.59 C 133.09 91.16 130.62 90.97 128.01 90.95 C 127.97 82.30 128.02 73.65 128.02 65.00 Z" id="p3" />
<path d="M 40.23 95.23 L 40.76 95.24 L 40.76 95.77 L 40.23 95.77 L 40.23 95.23 Z" id="p4" />
<path d="M 43.23 95.22 L 43.77 95.22 L 43.76 95.75 L 43.23 95.75 L 43.23 95.22 Z" id="p5" />
<path d="M 43.32 101.20 L 43.66 101.26 C 43.56 102.54 43.61 107.14 41.39 106.11 C 40.76 104.64 42.59 102.45 43.32 101.20 Z" id="p6" />
<path d="M 249.39 104.35 C 250.60 103.43 252.69 105.60 253.67 106.31 C 256.68 108.71 255.73 112.52 255.79 115.88 C 253.58 115.12 251.40 114.59 249.53 113.12 C 249.74 110.26 248.95 107.09 249.39 104.35 Z" id="p7" />
<path d="M 82.07 114.94 C 90.72 118.77 95.66 130.02 91.60 138.78 C 89.63 143.97 85.45 147.19 80.67 149.63 C 76.47 150.98 71.40 150.07 67.02 150.19 C 66.22 150.35 65.99 149.00 65.54 148.64 C 59.57 145.07 55.32 139.19 55.69 132.00 C 55.42 127.71 57.03 123.90 59.30 120.38 C 62.35 117.35 65.72 114.80 69.96 113.73 C 74.16 112.14 78.10 113.36 82.07 114.94 Z" id="p8" />
<path d="M 207.26 113.24 C 212.18 112.29 217.92 114.12 221.81 117.20 C 224.92 120.28 228.13 124.43 228.28 128.98 C 228.76 134.24 228.03 139.38 224.57 143.54 C 221.26 147.26 217.06 150.20 211.99 150.77 C 208.15 151.77 204.91 149.99 201.44 148.58 C 195.44 146.14 192.15 140.10 190.95 134.02 C 190.01 124.08 197.31 114.65 207.26 113.24 Z" id="p9" />
<path d="M 71.46 120.49 C 76.15 119.31 81.03 121.26 83.87 125.11 C 86.19 127.86 86.16 131.52 85.71 134.91 C 84.38 139.48 80.68 143.03 75.84 143.58 C 70.54 144.56 65.56 141.25 63.41 136.53 C 62.54 133.93 62.81 130.84 63.26 128.17 C 64.26 124.52 67.89 121.48 71.46 120.49 Z" id="p10" />
<path d="M 205.73 121.33 C 208.97 121.40 212.12 120.80 215.38 121.29 C 216.21 122.59 217.19 123.43 218.43 124.32 C 219.11 125.96 219.98 127.47 220.84 129.01 C 221.06 132.18 221.68 135.77 219.38 138.34 C 216.96 142.37 211.83 144.02 207.45 142.31 C 207.05 142.41 206.65 142.52 206.26 142.62 C 204.07 141.50 201.86 140.72 200.39 138.64 C 198.52 136.23 198.95 132.87 198.97 129.98 C 198.80 125.98 202.15 122.53 205.73 121.33 Z" id="p11" /></defs><g stroke-width="10pt">
<use stroke="#ffffff" xlink:href="#p0" />
<use stroke="#607d43" xlink:href="#p1" />
<use stroke="#ffffff" xlink:href="#p2" />
<use stroke="#ffffff" xlink:href="#p3" />
<use stroke="#ffffff" xlink:href="#p4" />
<use stroke="#ffffff" xlink:href="#p5" />
<use stroke="#ffffff" xlink:href="#p6" />
<use stroke="#ffffff" xlink:href="#p7" />
<use stroke="#607d43" xlink:href="#p8" />
<use stroke="#607d43" xlink:href="#p9" />
<use stroke="#ffffff" xlink:href="#p10" />
<use stroke="#ffffff" xlink:href="#p11" /></g>
<g>
<use xlink:href="#p0" fill="#ffffff" />
<use xlink:href="#p1" fill="#607d43" />
<use xlink:href="#p2" fill="#ffffff" />
<use xlink:href="#p3" fill="#ffffff" />
<use xlink:href="#p4" fill="#ffffff" />
<use xlink:href="#p5" fill="#ffffff" />
<use xlink:href="#p6" fill="#ffffff" />
<use xlink:href="#p7" fill="#ffffff" />
<use xlink:href="#p8" fill="#607d43" />
<use xlink:href="#p9" fill="#607d43" />
<use xlink:href="#p10" fill="#ffffff" />
<use xlink:href="#p11" fill="#ffffff" /></g></svg>