<?xml version="1.0" encoding="utf-8"?>
<!-- Generator: Adobe Illustrator 19.2.1, SVG Export Plug-In . SVG Version: 6.00 Build 0)  -->
<svg version="1.1" id="Calque_1" xmlns="http://www.w3.org/2000/svg" xmlns:xlink="http://www.w3.org/1999/xlink" x="0px" y="0px"
	 viewBox="0 0 30.2 23.8" style="enable-background:new 0 0 30.2 23.8;" xml:space="preserve">
<style type="text/css">
	.st0{fill:none;stroke:#6E8935;stroke-width:0.1392;stroke-miterlimit:10;}
	.st1{fill:#6E8935;}
	.st2{fill:none;}
</style>
<path class="st0" d="M10.1,23.2l0.2-6.5l0,0c0-0.2,0.3-2.1-1.2-3.6l0,0c-0.2-0.2-2.7-2-2.9-3.2L6,8.4c0,0,0,0,0-0.2
	C6.2,8,6.6,6.8,6.6,6.8S6.9,6,6.3,5.4l0,0l0,0V5.3C6.5,5,6.9,4.4,6.5,3.6V3.5c0-0.2,0.2-0.9-0.6-1.4c-0.2,0-0.2,0-0.3,0
	c-0.2,0-0.5,0.5-0.5,0.6l0,0c0,0.2-0.3,0.3-0.3,0.2L4.6,2.7c-0.2-0.2-0.3-0.2-0.3,0L1.8,6.5l0,0c0,0.2-0.9,1.5-0.6,2.3l0,0v0.2
	c0.2,0.3,0,0.3,0,0.3c-0.3,0-0.6,0-1.1,0.2c0,0-0.2,0.2,0,0.3c0.3,0.8,1.4,3.3,1.2,4.1c0,0,0,0,0,0.2c0,0.3,0.5,1.4,2.7,2.9
	c0,0,0,0,0.2,0c0.2,0,1.2,0.3,1.2,2.1l0,0c0,0.2-0.2,5-0.2,5"/>
<path class="st0" d="M1.6,9.5c0,0,0.8,0.5,0.9,1.8c0,0,0.2,1.7,2.4,2c0,0,3.5,0.3,3.8,2"/>
<g>
	<path class="st1" d="M5.1,3C4.6,4.4,3.9,5.6,3.3,6.9l0,0l0,0C3,7.5,3,8.1,3,8.7l0,0c0,0.6,0,1.1,0,1.7c0-0.6,0-1.2,0-1.7l0,0
		C2.8,8.1,3,7.5,3.3,6.9l0,0C3.9,5.6,4.5,4.2,5.1,3z"/>
</g>
<path class="st0" d="M6.3,3.5l-2,3.8c0,0-0.6,0.8-0.3,1.7c0,0,0.3,1.4,0.3,1.5"/>
<g>
	<path class="st1" d="M2.5,10.5c0,0,0.2,0,0.6-0.2c0.3,0,0.8,0,1.2,0c0.5,0,0.9,0.2,1.2,0.3S6,11,6,11s-0.8-0.5-1.7-0.5
		C3.4,10.4,2.5,10.5,2.5,10.5z"/>
</g>
<g>
	<path class="st1" d="M6,5.4c0,0-0.8,1.1-0.9,2.4c-0.2,0.6-0.2,1.4,0,1.8c0,0.5,0.2,0.8,0.2,0.8l0,0c0,0-0.2-0.3-0.3-0.8
		c-0.2-0.5-0.2-1.2,0-1.8C5.3,6.5,6,5.4,6,5.4L6,5.4z"/>
</g>
<path class="st0" d="M20.1,23.3l-0.3-6.9c0,0-0.6-2.1,1.7-3.9c0,0,2-1.4,2-1.8c0,0,0.6-0.6,0.6-2.1c0,0,0-0.9-0.2-1.1l-0.3-0.8
	c0,0-0.5-0.8,0.2-1.4l0.3-0.2l-0.5-0.8c0,0-0.5-0.6,0.2-1.1l0.3-0.2c0,0-0.8-1.1,0.6-1.7l0.5,0.8l0.2,0.3l0.3-0.3l2.7,3.8
	c0,0,0.8,1.5,0.6,2.3V9v0.2c0,0,0.9-0.3,1.2,0c0,0-1.4,2.9-1.1,3.2c0,0,0,2.3-2.4,3.5c0,0-2.3,0.5-2,2.9L25,23"/>
<g>
	<path class="st1" d="M25.3,3c-0.2,0.2,0,0.3,0,0.5c0,0.2,0.2,0.3,0.2,0.5l0.5,0.8l0.9,1.7v0.2c0,0,0.2-0.2,0-0.2l0,0l0,0l0,0v0.2
		l0.3,0.3c0,0.2,0.2,0.3,0.2,0.5c0.2,0.3,0.2,0.6,0.2,0.9c0,0.3,0,0.6,0,0.9v0.9V9c0-0.3,0-0.6,0-0.9c0-0.3-0.2-0.6-0.2-0.9
		c0-0.2-0.2-0.3-0.2-0.5l-0.2-0.2V6.5l0,0l0,0l0,0V6.3v0.2L26,4.8l-0.5-0.9c0-0.2-0.2-0.3-0.2-0.5C25.3,3.3,25.1,3.2,25.3,3z"/>
</g>
<path class="st0" d="M24.1,5.3c0,0,0.9,1.8,1.1,2.1c0,0,0.3,0.5,0.2,1.4v1.8"/>
<path class="st0" d="M24.1,3.5c0,0,1.8,3,1.8,3.5c0,0,0.5,0.8,0.3,2L26,10.4"/>
<g>
	<path class="st1" d="M28,10.5c0,0-0.3,0-0.6,0c-0.3,0-0.9,0-1.4,0s-0.9,0.2-1.2,0.3c-0.3,0.2-0.6,0.3-0.6,0.3s0.2-0.2,0.5-0.3
		c0.3-0.2,0.9-0.2,1.4-0.3c0.5,0,0.9-0.2,1.4,0C27.7,10.5,28,10.5,28,10.5z"/>
</g>
<g>
	<path class="st1" d="M28.9,9.3c-0.5,0.3-0.8,0.9-0.8,1.5v-0.2c0,0,0.2,0.2,0,0.2l0,0l0,0V11v0.3c0,0.2-0.2,0.3-0.2,0.5
		c-0.2,0.3-0.3,0.6-0.6,0.8c-0.5,0.5-1.1,0.8-1.8,0.8v-0.2c0,0,0,0,0,0.2l0,0l0,0l0,0h-0.2h-0.3c-0.2,0-0.3,0-0.6,0.2
		c-0.3,0-0.8,0.2-1.1,0.3c-0.9,0.5-1.5,0.9-1.8,1.5c0.2-0.3,0.3-0.6,0.6-0.9c0.3-0.3,0.6-0.5,1.1-0.6c0.3-0.2,0.8-0.3,1.1-0.3
		c0.2,0,0.3,0,0.6-0.2h0.3h0.2l0,0l0,0l0,0v0.2v-0.2c0.6,0,1.2-0.3,1.7-0.8c0.2-0.3,0.5-0.5,0.6-0.8c0-0.2,0.2-0.3,0.2-0.5V11v-0.2
		l0,0l0,0c0,0,0,0.2,0,0v-0.2C28,10.2,28.3,9.6,28.9,9.3z"/>
</g>
<g>
	<path class="st2" d="M18.3,6.9c0,2.6,0,5.1,0,7.7c1.2,0,2.6,0,3.8,0c0-2.6,0-5.1,0-7.7C20.9,6.9,19.5,6.9,18.3,6.9z M17.3,9.3
		c-1.2,0-2.6,0-3.8,0c0,1.8,0,3.6,0,5.4c1.2,0,2.6,0,3.8,0C17.3,12.8,17.3,11,17.3,9.3z M15.2,8.3c1.1-1.1,2.1-2,3.2-3
		c-0.5-0.5-0.8-0.8-1.2-1.2c-0.6,0.6-1.2,1.2-2,1.8c-0.6-0.6-1.2-1.1-1.7-1.7C12,5.9,10.4,7.4,8.9,8.9c0.3,0.5,0.8,0.8,1.1,1.2
		c1.2-1.2,2.4-2.4,3.5-3.5C14,7.1,14.6,7.7,15.2,8.3z M8.6,14.6c1.2,0,2.6,0,3.8,0c0-1.2,0-2.4,0-3.6c-1.2,0-2.6,0-3.8,0
		C8.6,12.2,8.6,13.4,8.6,14.6z M19.2,0.6C20,1.4,20.9,2.3,21.6,3c0.2-0.9,0.3-2,0.6-3C21.2,0.3,20.1,0.5,19.2,0.6z M17.6,3.5
		c0.5,0.5,0.8,0.8,1.2,1.2c0.2-0.2,0.3-0.5,0.6-0.6c-0.5-0.3-0.8-0.8-1.2-1.2C18,3.2,17.7,3.3,17.6,3.5z M18.8,2.4
		c0.3,0.5,0.8,0.8,1.1,1.2C20,3.5,20.1,3.3,20.4,3c-0.5-0.5-0.8-0.8-1.2-1.2C19.1,2.1,18.9,2.3,18.8,2.4z"/>
	<path class="st1" d="M18.3,6.9c1.2,0,2.6,0,3.8,0c0,2.6,0,5.1,0,7.7c-1.2,0-2.6,0-3.8,0C18.3,12,18.3,9.5,18.3,6.9z"/>
	<path class="st1" d="M17.3,9.3c0,1.8,0,3.6,0,5.4c-1.2,0-2.6,0-3.8,0c0-1.8,0-3.6,0-5.4C14.7,9.3,15.9,9.3,17.3,9.3z"/>
	<path class="st1" d="M15.2,8.3c-0.6-0.6-1.2-1.2-1.8-1.7c-1.2,1.2-2.3,2.3-3.5,3.5C9.5,9.6,9.2,9.3,8.9,8.9c1.5-1.5,3-3.2,4.7-4.7
		c0.6,0.6,1.1,1.1,1.7,1.7c0.6-0.6,1.2-1.2,2-1.8c0.5,0.5,0.8,0.8,1.2,1.2C17.3,6.2,16.2,7.2,15.2,8.3z"/>
	<path class="st1" d="M8.6,14.6c0-1.2,0-2.4,0-3.6c1.2,0,2.6,0,3.8,0c0,1.2,0,2.4,0,3.6C11.1,14.6,9.8,14.6,8.6,14.6z"/>
	<path class="st1" d="M19.2,0.6c1.1-0.2,2-0.3,3-0.5c-0.2,1.1-0.5,2-0.6,3C20.7,2.3,20,1.5,19.2,0.6z"/>
	<path class="st1" d="M17.6,3.5c0.2-0.2,0.5-0.3,0.6-0.6c0.5,0.5,0.8,0.8,1.2,1.2c-0.2,0.2-0.5,0.5-0.6,0.6
		C18.3,4.2,18,3.9,17.6,3.5z"/>
	<path class="st1" d="M18.8,2.4c0.2-0.2,0.3-0.5,0.5-0.6C19.7,2.3,20,2.6,20.4,3c-0.2,0.2-0.3,0.3-0.6,0.6
		C19.5,3.2,19.1,2.9,18.8,2.4z"/>
</g>
</svg>
