<?xml version="1.0" encoding="utf-8"?>
<!-- Generator: Adobe Illustrator 16.0.0, SVG Export Plug-In . SVG Version: 6.00 Build 0)  -->
<!DOCTYPE svg PUBLIC "-//W3C//DTD SVG 1.1//EN" "http://www.w3.org/Graphics/SVG/1.1/DTD/svg11.dtd">
<svg version="1.1" id="Calque_1" xmlns="http://www.w3.org/2000/svg" xmlns:xlink="http://www.w3.org/1999/xlink" x="0px" y="0px"
	 width="148.1px" height="52.8px" viewBox="0 0 148.1 52.8" style="enable-background:new 0 0 148.1 52.8;" xml:space="preserve">
<style type="text/css">
<![CDATA[
	.st0{fill:#6E8934;}
]]>
</style>
<g>
	<rect x="62.3" y="8.6" class="st0" width="44.5" height="2.4"/>
	<rect x="23" y="24.4" class="st0" width="45.1" height="2.4"/>
	<rect x="21.9" y="52.2" class="st0" width="10.2" height="0.5"/>
	<rect x="43.4" y="4.3" transform="matrix(0.8564 -0.5163 0.5163 0.8564 5.0456 27.1874)" class="st0" width="15.9" height="0.5"/>
	<rect x="65.7" y="24.4" class="st0" width="2.4" height="14"/>
	<rect x="8.7" y="36.3" class="st0" width="2.4" height="14"/>
	<rect x="23" y="9.8" class="st0" width="2.4" height="15.8"/>
	<rect y="10.4" class="st0" width="2.4" height="40.5"/>
	<rect x="84.5" y="8.6" class="st0" width="2.4" height="13.1"/>
	<rect x="84.5" y="29.8" class="st0" width="2.4" height="21.7"/>
	<rect x="104.3" y="9.8" class="st0" width="2.4" height="41.1"/>
	<rect y="8.6" class="st0" width="44.5" height="2.4"/>
	<rect y="50.3" class="st0" width="22.2" height="2.4"/>
	<rect x="32.2" y="50.3" class="st0" width="74.6" height="2.4"/>
</g>
<g>
	<polygon class="st0" points="133.3,6.2 133.8,6.2 133.8,0 131.3,0 131.3,6.2 132,6.2 132,8 132.3,8 133.3,8 	"/>
	<path class="st0" d="M148.1,52.2l-1.9-5.6c0.3-0.5,0.2-1.3-0.7-3.2c-0.4-0.8-1.1-2.6-2.2-5c1.2-0.5,2.5-1,3.7-1.7
		c0.5-0.2,0.8-0.7,0.8-1.3c0-0.8-0.6-1.4-1.4-1.4c-0.2,0-0.5,0.1-0.7,0.2c-0.2,0.1-1.6,0.8-3.6,1.5c-2.6-6.2-6-14.1-7.1-16.8
		c1.8-1,3-2.9,3-5c0-3.2-2.6-5.7-5.7-5.7s-5.7,2.6-5.7,5.7c0,2.3,1.4,4.3,3.3,5.2L123.5,36c-1.4-0.5-2.9-1.1-4.3-1.9c0,0,0,0,0,0
		c-0.2-0.1-0.4-0.2-0.6-0.2c-0.8,0-1.4,0.6-1.4,1.4c0,0.5,0.2,0.9,0.6,1.2l0,0c0.1,0.1,0.2,0.1,0.3,0.2c0.7,0.3,2.3,1.1,4.6,1.8
		l-2.4,6.5c0,0-0.4,1.4,0.4,2l0,0l-1,5.9l2.6-5.3c0.5-0.1,1-0.8,1.8-2.7c0.3-0.8,1.1-2.8,2.1-5.4c3.8,0.8,8.6,1.2,13.7,0l3.1,6.8
		c0,0,0.7,1.2,1.7,1.1l0,0L148.1,52.2z M128.6,13.7c0-2.1,1.7-3.8,3.8-3.8s3.8,1.7,3.8,3.8c0,1.3-0.7,2.5-1.8,3.2
		c-0.4-0.6-1.1-1-1.8-1c-0.8,0-1.6,0.5-1.9,1.2C129.4,16.5,128.6,15.2,128.6,13.7z M127.2,36.9c1.8-4.5,4-9.8,5.4-13.5l6,13.1
		C135.4,37.2,131.4,37.6,127.2,36.9z"/>
</g>
</svg>
