<?xml version="1.0" encoding="utf-8"?>
<!-- Generator: Adobe Illustrator 19.2.1, SVG Export Plug-In . SVG Version: 6.00 Build 0)  -->
<svg version="1.1" id="Calque_1" xmlns="http://www.w3.org/2000/svg" xmlns:xlink="http://www.w3.org/1999/xlink" x="0px" y="0px"
	 viewBox="0 0 39 17" style="enable-background:new 0 0 39 17;" xml:space="preserve">
<style type="text/css">
	.st0{fill:#FFFFFF;stroke:#6E8935;stroke-width:0.1391;stroke-miterlimit:10;}
	.st1{fill:#6E8935;}
	.st2{fill:#FFFFFF;stroke:#6E8935;stroke-width:6.955342e-002;stroke-miterlimit:10;}
	.st3{fill:none;}
	.st4{fill:#6E8935;stroke:#FFFFFF;stroke-width:6.955342e-002;stroke-miterlimit:10;}
	.st5{fill:#FFFFFF;}
</style>
<path class="st0" d="M2.1,6C3.4,6,4.7,6,6,5.9C6.8,5.8,7.6,5.6,8.3,5c0.3-0.3,0.8-0.5,1.2-0.7c0.7-0.3,1.4-0.6,2.2-0.8
	c0.4-0.1,0.8-0.2,1.2-0.1c0.6,0.1,0.7,0.4,0.4,0.9c-0.2,0.2-0.4,0.4-0.6,0.5c-0.5,0.2-1,0.3-1.6,0.4c-0.4,0.1-0.8,0.1-0.9,0.6
	c-0.2,0.3,0.1,1,0.5,1.2c0.1,0.1,0.2,0.1,0.4,0.1c0.6,0.2,1.2,0.4,1.7,0.7c0.8,0.5,1.4,0.4,1.9-0.4c0.1-0.2,0.3-0.5,0.4-0.7
	c0.4-0.4,0.8-0.5,1.5-0.3c-0.2,0.4-0.4,0.8-0.7,1.2c0.4-0.2,0.6-0.3,0.9-0.4C17.2,7,17.5,7,17.7,7.4c0.2,0.4-0.1,0.6-0.4,0.7
	c-0.9,0.6-2,1-2.8,1.7c-1.2,1.1-2.6,0.9-3.9,0.8c-1.7-0.2-3.3-0.4-5-1C4.3,9.4,2.8,9.5,1.4,9.7C0.9,9.8,0.5,9.8,0,9.9"/>
<path class="st1" d="M15.3,6.3c0,0.1,0.1,0.3,0,0.3c0-0.1-0.4-0.3-0.1-0.2C15.3,6.5,15.2,6.4,15.3,6.3c0.1-0.6,1.1-2,1.3-2.4
	c0.1-0.1-1.5,0-2.1,0c-0.2,0-0.4,0.1-0.6,0.3c-0.5,0.5-0.9,1-1,1.7C12.9,6,12.8,6,12.8,6c0-0.1-0.1-0.1-0.1-0.2
	c0.1-0.7,0.4-1.2,0.9-1.7L13.7,4c-0.2,0-0.3,0-0.5,0C12,4.2,10.9,4.5,9.9,5.1c-0.5,0.3-1,0.6-1.3,1.2c-0.3,0.5-0.2,1,0.2,1.4
	c0.3,0.3,0.7,0.5,1,0.6c0.7,0.4,1.5,0.5,2.3,0.7c0.9,0.2,1.8,0.3,2.7,0.4c2.4-1.5,3.1-1.8,3.2-2.7c0,0,0.1-3-0.9-2.7h-0.7l-0.2,0
	c0,0-1.7,1.8-1.3,5.4"/>
<path class="st2" d="M15.1,9.3c0,0-0.4-5.6,1.4-5.4h0.7c0,0,0.5-0.3,0.7,0.7c0,0.1,0.2,2,0.2,2S18,7.2,17.7,7.4
	C17.8,7.5,15.1,9.3,15.1,9.3z"/>
<path class="st1" d="M39,15.3c-0.2-0.2-0.4-0.5-0.6-0.7c-0.6-0.7-1.1-1.5-1.7-2.2c-0.4-0.6-1.1-0.8-1.8-0.7c-0.7,0-1.4,0.2-2.2,0.2
	C32.1,12,31.4,12,30.8,12c-0.7,0-1.4,0-2.1,0c-0.3,0-0.7,0.1-1,0.3c0.3,0,0.5,0,0.7,0c0.4,0.1,0.6,0.3,0.6,0.8
	c0,0.3-0.2,0.3-0.4,0.5c0.4,0.1,0.9,0.2,1.3,0.2c0.7,0.1,1.4,0.1,2.2,0.2c0.3,0,0.6,0.2,0.9,0.3c0.1,0,0.1,0.1,0.2,0.1
	c0,0,0,0,0,0.1c-0.1,0-0.2,0-0.2-0.1c-0.3-0.1-0.5-0.2-0.8-0.2C31.4,14.1,30.7,14,30,14c-0.6-0.1-1.2-0.2-1.8-0.3
	c-0.1,0-0.3,0-0.4-0.1c-0.3,0-0.5-0.2-0.6-0.5s0-0.5,0.2-0.7c0.1,0,0.1-0.1,0.1-0.1c-0.6-0.3-1.2-0.6-1.9-1
	c-0.4-0.2-0.7-0.4-1.1-0.6c-0.6-0.3-0.9-0.3-1.5-0.1c0,0,0,0,0-0.1c0.2-0.1,0.4-0.2,0.6-0.2c-0.3-0.2-0.6-0.1-1,0.1
	c0.2-0.2,0.4-0.3,0.6-0.3c0.3,0.1,0.6,0.1,0.9,0.2c0.3,0.1,0.6,0.2,0.8,0.3v-0.1c-0.3-0.2-0.5-0.3-0.8-0.4c0.2,0,0.5,0,0.8,0.3
	s0.6,0.5,1,0.7H26c-0.2-0.3-0.5-0.6-0.9-0.7c0,0,0,0,0-0.1c0.1,0,0.3,0,0.4,0c0.2,0.1,0.3,0.2,0.4,0.3c0.4,0.3,0.7,0.6,1.1,0.9
	c0.3,0.2,0.6,0.3,1,0.1c0.3-0.1,0.7-0.2,1.1-0.2c0.6,0,1.2,0,1.7,0c0.9,0,1.9-0.1,2.8-0.3c0.7-0.1,1.4-0.2,2.1,0
	c0.5,0.2,0.9,0.4,1.1,0.8c0.6,0.8,1.2,1.6,1.8,2.4c0.1,0.1,0.1,0.1,0.2,0.2C39,15.1,39,15.2,39,15.3z"/>
<path class="st1" d="M35.7,17c-0.7-0.7-1.6-0.9-2.5-1c-0.6,0-1.3,0-1.9,0c-0.5,0-1,0-1.4-0.1c-0.2,0-0.3-0.1-0.5-0.2
	c-1.1-0.6-2.1-1.2-3.1-1.8c-0.5-0.3-1.1-0.7-1.6-1c-0.1-0.1-0.3-0.2-0.4-0.3C24,12,23.4,11.7,23,11.3c-0.1-0.1-0.2-0.1-0.3-0.2
	c0.4,0.1,0.6,0.3,0.8,0.5c0.1,0.1,0.2,0.2,0.3,0c-0.1-0.1-0.1-0.1-0.2-0.2c0.2,0.1,0.4,0.2,0.2,0.5c0,0,0,0,0,0.1
	c0.4,0.7,1.1,1.1,1.7,1.5c0.7,0.4,1.3,0.8,2,1.2c0.6,0.4,1.2,0.7,1.8,1c0.4,0.2,0.8,0.3,1.3,0.2c0.6,0,1.2-0.1,1.7-0.1
	c1.5-0.1,2.9,0.4,4.2,1.1c0.1,0.1,0.2,0.1,0.3,0.2C36.4,17,36,17,35.7,17z"/>
<path class="st1" d="M29.2,15.4c-0.1-0.1-0.2-0.1-0.2-0.2c-0.2-0.3-0.5-0.6-0.8-0.8c-0.4-0.3-0.9-0.6-1.3-0.9
	c-0.2-0.1-0.4-0.3-0.7-0.4c-0.4-0.2-0.8-0.4-1.2-0.8c-0.3-0.3-0.7-0.6-1-0.9c0.2,0.1,0.3,0.2,0.5,0.3c0.3,0.2,0.5,0.5,0.8,0.7
	s0.5,0.4,0.8,0.5c0.3,0.2,0.6,0.4,1,0.6c0.4,0.3,0.8,0.6,1.3,0.8c0.4,0.2,0.6,0.5,0.9,0.9C29.2,15.2,29.2,15.3,29.2,15.4
	C29.2,15.3,29.2,15.4,29.2,15.4z"/>
<path class="st1" d="M25.4,8c0.2-0.2,0.2-0.6,0.3-0.9C26,6.5,26.4,6,26.9,5.5c0.2-0.1,0.3-0.2,0.6-0.2c0.7,0.2,1.3,0.3,2,0.4
	c0.1,0,0.1,0.1,0.2,0.1c-0.2,0.2-0.4,0.3-0.6,0.5c-0.4,0.4-0.7,0.9-0.9,1.5c0,0.1,0,0.2,0,0.2c0.1,0.1,0.1,0,0.2,0
	c0.3-0.8,0.8-1.4,1.4-1.9C30,6,30.1,6,30.3,6c1.7,0.6,3.3,1.3,4.6,2.7c0.3,0.3,0.5,0.7,0.7,1c0.4,0.7,0.1,1.4-0.6,1.8
	c-0.6,0.3-1.2,0.4-1.9,0.5c-1.2,0.2-2.5,0.1-3.7,0c-1.6-0.1-3.1-0.3-4.6-0.6c-0.1,0-0.2-0.1-0.3-0.1L25.4,8z"/>
<g>
	<path class="st3" d="M25.8,5.9c0-2.5-2-4.5-4.5-4.5s-4.4,2-4.5,4.4c0,2.5,2,4.5,4.4,4.5C23.8,10.4,25.8,8.4,25.8,5.9z"/>
	<path class="st4" d="M25.8,5.9c0,2.5-2,4.5-4.5,4.5s-4.5-2-4.4-4.5c0-2.4,2-4.4,4.5-4.4C23.8,1.4,25.8,3.4,25.8,5.9z M24,5.9
		L24,5.9c-0.1,0-0.1-0.1-0.1-0.1c-0.1-0.1-0.1-0.2-0.2-0.4c0-0.1-0.1-0.2-0.2-0.2h-0.1c0,0,0,0-0.1,0c-0.1,0.1-0.3,0-0.4-0.1L22.8,5
		c-0.2-0.1-0.4,0.1-0.6,0.1c-0.1,0-0.2,0.1-0.2,0.2c0,0,0,0.1-0.1,0.1c-0.2,0.2-0.2,0.4-0.2,0.6c0,0.1,0.1,0.2,0.2,0.3
		c0.1,0.1,0.2,0.1,0.3,0.1c0.2,0,0.3,0,0.5,0c0.1,0,0.1,0,0.1,0.1v0.1c0,0.1,0,0.1,0,0.2c0.1,0.1,0.1,0.3,0.1,0.5c0,0.1,0,0.1,0,0.2
		c0,0.3,0.1,0.5,0.2,0.7c0,0.1,0.1,0.1,0.1,0.2c0,0.1,0,0.1,0.1,0.1s0.1,0,0.2,0c0,0,0.1,0,0.1-0.1s0.1-0.1,0.1-0.2
		c0.1-0.1,0.1-0.2,0.1-0.3c0-0.1,0-0.2,0.1-0.3l0,0C24,7.5,24,7.4,24,7.3s0-0.3,0.1-0.4s0.1-0.1,0.2-0.2s0.1-0.2,0.2-0.4
		c-0.1,0-0.2,0-0.3,0c-0.1,0-0.1-0.1-0.1-0.2l0,0l0,0c0,0.1,0.1,0.1,0.2,0.1l0.1-0.1c0.2-0.1,0.3-0.2,0.3-0.3V5.7
		c-0.1,0-0.1-0.1-0.1-0.1l-0.1,0.1l-0.1-0.1c0,0,0-0.1-0.1-0.2l0,0c0,0,0,0.1,0.1,0.1c0,0,0,0,0.1,0s0.1,0,0.2,0.1
		c0.1,0,0.2,0,0.2,0.1l0,0l0,0c-0.1-0.7-0.3-1.3-0.8-1.9H24l-0.1,0.1h-0.1c0,0,0-0.1-0.1-0.1c0.1,0,0.2,0,0.2,0l0,0l-0.1-0.1
		c-0.1,0-0.1,0-0.2,0c-0.2-0.1-0.4-0.1-0.7,0c-0.1,0-0.2,0.1-0.2,0.2S22.6,4,22.6,4c-0.1,0-0.1,0-0.2,0.1C22.6,4,22.7,4,22.9,4
		c0,0,0,0.1,0.1,0.1l0,0V4c-0.1,0-0.1,0.1-0.1,0.2c-0.1,0.1-0.2,0.1-0.2,0.2l0,0h-0.1c0.1,0.1,0.1,0.1,0.1,0.2c-0.1,0-0.2,0-0.3,0
		c0,0.1,0,0.1,0,0.2s0,0.1,0.1,0.1s0.2,0,0.2,0c0-0.1,0.1-0.1,0.1-0.2c0,0,0.2-0.1,0.3-0.1c0.1,0.1,0.3,0.1,0.3,0.3
		c0,0,0-0.1,0.1-0.1c-0.1-0.1-0.1-0.1-0.2-0.2c0.1,0,0.2,0.1,0.2,0.2S23.6,5,23.6,5c0.1,0,0-0.1,0.1-0.2c0.1,0,0.1,0,0.1,0.1
		S23.9,5,24,5s0.1,0,0.2,0c0,0.1,0,0.2-0.1,0.3c0,0,0,0-0.1,0C23.8,5.5,23.9,5.7,24,5.9z M19.1,3.4C19,3.4,19,3.3,19,3.2
		c0,0-0.1,0-0.1,0.1c-0.3,0.3-0.6,0.6-0.8,1v0.1c0,0.1,0.1,0.2,0.1,0.2c0,0.2,0,0.3,0.1,0.4l0.1,0.1c0,0,0.1,0,0.1,0.1
		c0.1,0.1,0.1,0.2,0.2,0.4l0.1,0.1c-0.1-0.1-0.1-0.2-0.2-0.3c0,0,0.1,0,0.1,0.1c0,0,0,0.1,0.1,0.1C18.9,5.7,19,5.8,19,5.9L19.1,6
		c0.1,0,0.2,0,0.4,0.1c0.1,0.1,0.2,0.1,0.2,0.2c0.1,0.1,0.1,0.1,0.2,0.1c0,0.1,0,0.2,0,0.3c0,0,0,0-0.1,0c-0.1,0.1,0,0.2-0.1,0.4
		l0,0C20,7.2,20,7.3,20.1,7.4c0,0.1,0.1,0.1,0.1,0.2c0.1,0.1,0.1,0.1,0.1,0.2c0,0.2,0,0.3,0,0.5c0,0.1,0,0.2-0.1,0.2v0.1
		c0,0.1,0,0.1,0,0.2c0,0.1,0,0.2,0,0.4v0.1c0.1,0,0.2,0.1,0.2,0.1c0-0.1,0-0.1,0-0.1l0.1-0.1c-0.1-0.1,0-0.1,0-0.2l0.1-0.1
		c0-0.1,0.1-0.2,0.2-0.2s0.1,0,0.1-0.1s0.1-0.2,0.2-0.3l0,0c0.1,0,0.1-0.1,0.1-0.2c0-0.1,0-0.1,0.1-0.2s0.2-0.1,0.2-0.3
		c0-0.1,0-0.1,0-0.2s0-0.1,0.1-0.2s0.1-0.2,0-0.3c-0.1-0.1-0.2-0.1-0.3,0c0-0.1-0.1-0.1-0.2-0.1V6.7c0-0.1-0.1-0.2-0.1-0.2
		c-0.1,0-0.2-0.1-0.2-0.1s-0.1-0.1-0.2-0.1s-0.1,0-0.1-0.1c0,0,0,0-0.1,0c0,0,0,0-0.1,0s-0.2,0.1-0.2,0.1l0,0c0-0.1-0.1-0.1-0.1-0.1
		h-0.1c0,0,0-0.1-0.1-0.1c0-0.1,0-0.1,0-0.2l0,0h-0.1V5.8c0,0,0-0.1,0.1-0.2c-0.1,0-0.1,0-0.1,0.1c0,0-0.1,0-0.1,0.1h-0.1
		c-0.2-0.1-0.2-0.3-0.2-0.4s0.1-0.1,0.2-0.1s0.1,0,0.1-0.1c0.1,0,0.2,0,0.3,0.2l0,0c0,0,0,0,0-0.1s0-0.1,0-0.2s0-0.1,0-0.1
		C20,5.2,20,5.1,20.1,5s0.1-0.2,0.2-0.3l0,0c0-0.1,0.1-0.1,0.2-0.1c0,0,0,0,0,0.1c0.1,0,0.1-0.1,0.1-0.1c0-0.1-0.1-0.1-0.1-0.2
		c-0.1,0-0.1,0.1-0.2,0.1l0,0c0.1,0,0.1-0.1,0.2-0.1s0.2,0,0.3-0.1h0.1V4.2c-0.1-0.1-0.1-0.1-0.2-0.2l-0.1-0.1
		c-0.1,0.1-0.1,0.1-0.2,0S20.2,3.8,20,3.8c0,0.1,0,0.1,0,0.2c0,0,0,0.1,0,0.1c-0.2,0-0.1,0.1-0.1,0.2c0,0,0-0.1-0.1-0.1
		c0-0.1,0-0.1-0.1-0.1l0,0c-0.1,0-0.1,0-0.2-0.1c-0.1,0-0.1-0.1-0.2-0.2c0-0.1,0-0.1,0.1-0.1s0.2,0,0.2-0.1c0,0,0,0,0.1,0v0.1
		c0.1,0,0.1,0,0.2,0l-0.1-0.1c0.1,0,0.2-0.1,0.1-0.2h-0.1c0,0.1,0,0.1-0.1,0.2l-0.1-0.1c-0.1,0-0.1-0.1-0.1-0.1s0,0-0.1,0
		C19.3,3.3,19.3,3.5,19.1,3.4C19.2,3.4,19.2,3.4,19.1,3.4c0.1,0.1,0.1,0.1,0.1,0.1c-0.1,0-0.3,0-0.3-0.1C19,3.5,19,3.5,19.1,3.4z
		 M24.3,7.5c0,0-0.1,0-0.1,0.1c-0.1,0.1-0.1,0.3,0,0.4c0,0,0,0,0.1,0c0,0,0,0,0.1,0V7.9c0-0.1,0-0.2,0.1-0.4c0,0,0-0.1,0-0.2l0,0
		C24.3,7.5,24.3,7.5,24.3,7.5z M22.4,4c-0.1,0-0.1,0.1-0.1,0.1c0.1,0.1,0.1,0.1,0,0.2c0.2,0.1,0.2,0.1,0.3,0
		C22.5,4.2,22.4,4.1,22.4,4z M21.6,3.7c0.1,0.1,0.3,0,0.4-0.1c-0.1,0-0.1,0-0.2,0l0,0C21.6,3.6,21.6,3.7,21.6,3.7z M22.3,4.1
		c-0.1,0-0.1,0-0.2,0.1c0,0.1,0,0.1,0.1,0.1C22.3,4.3,22.3,4.2,22.3,4.1z M20.1,5.8c-0.1-0.1-0.2-0.1-0.3-0.1
		C20,5.8,20,5.9,20.1,5.8z M20.4,5.9c0-0.1-0.1-0.1-0.2,0C20.2,5.9,20.3,5.9,20.4,5.9z"/>
	<path class="st5" d="M24,5.9c-0.1-0.2-0.2-0.4-0.3-0.6c0,0,0,0,0.1,0c0-0.1,0-0.2,0.1-0.3c-0.1,0-0.1,0-0.2,0s-0.1,0-0.2-0.1
		c0-0.1,0-0.1-0.1-0.1c0,0.1,0.1,0.1-0.1,0.2c-0.1-0.1-0.1-0.2-0.1-0.2c0-0.1-0.1-0.1-0.2-0.2c0.1,0.1,0.1,0.1,0.2,0.2
		c0,0,0,0.1-0.1,0.1c0-0.2-0.2-0.2-0.3-0.3c0,0-0.2,0-0.3,0.1c0,0.1-0.1,0.2-0.1,0.2c0,0.1-0.1,0.1-0.2,0c-0.1,0-0.1-0.1-0.1-0.1
		c0-0.1,0-0.1,0-0.2c0.1,0,0.2,0,0.3,0c0-0.1,0-0.2-0.1-0.2c0.1,0,0.1,0,0.1,0l0,0c0-0.1,0.1-0.1,0.2-0.2c0-0.1,0-0.2,0.1-0.2v0.1
		l0,0c0,0,0-0.1-0.1-0.1c-0.2,0-0.2,0-0.3-0.1c0.1,0,0.1,0,0.2-0.1c0.1,0,0.1,0,0.1-0.1s0.1-0.2,0.2-0.2c0.2-0.1,0.4-0.1,0.7,0
		c0.1,0,0.1,0,0.2,0c0,0,0.1,0,0.1,0.1l0,0c-0.1,0-0.2,0-0.2,0l0.1,0.1h0.1l0.1-0.1H24c0.4,0.6,0.7,1.2,0.8,1.9l0,0l0,0
		c-0.1,0-0.2,0-0.2-0.1c-0.1,0-0.1,0-0.2-0.1c0,0,0,0-0.1,0c0,0,0-0.1-0.1-0.1l0,0c0,0.1,0,0.1,0.1,0.2l0.1,0.1c0,0,0.1,0,0.1-0.1
		c0,0,0,0.1,0.1,0.1v0.1c-0.1,0.2-0.2,0.3-0.3,0.3c0,0-0.1,0-0.1,0.1C24.1,6,24.1,6,24,5.9L24,5.9L24,5.9c0,0.1,0.1,0.2,0.1,0.2
		c0.1,0,0.2,0,0.3,0c0,0.1-0.1,0.3-0.2,0.4S24.1,6.6,24,6.7c-0.1,0.3-0.1,0.4,0,0.6c0,0.1,0,0.2,0,0.3l0,0c-0.1,0.1-0.1,0.2-0.1,0.3
		s0,0.2-0.1,0.3c-0.1,0-0.1,0.1-0.1,0.2l-0.1,0.1c-0.1,0-0.1,0-0.2,0c0,0-0.1,0-0.1-0.1s0-0.1-0.1-0.2C23,8,22.9,7.8,22.9,7.6
		c0-0.1,0-0.1,0-0.2c0-0.2,0-0.3-0.1-0.5c0,0,0-0.1,0-0.2V6.6c0-0.1,0-0.1-0.1-0.1c-0.2,0-0.3,0-0.5,0c-0.1,0-0.2-0.1-0.3-0.1
		c-0.1-0.1-0.2-0.2-0.2-0.3c0-0.2,0-0.5,0.2-0.6L22,5.4c0-0.1,0.1-0.2,0.2-0.2C22.5,5.1,22.6,5,22.8,5l0.1,0.1
		c0.1,0.1,0.3,0.2,0.4,0.1h0.1h0.1c0.1,0,0.2,0.1,0.2,0.2c0.1,0.1,0.1,0.2,0.2,0.4C23.9,5.9,24,5.9,24,5.9L24,5.9z M23.8,4.8h0.1H24
		V4.7c0-0.1-0.2-0.1-0.2-0.1c-0.1,0-0.1,0-0.1,0h-0.1c0,0.1-0.1,0.1-0.1,0.2c0,0,0,0.1,0.1,0.1C23.7,4.8,23.7,4.8,23.8,4.8z
		 M24.5,4.6C24.4,4.5,24.4,4.5,24.5,4.6c-0.2,0-0.2,0-0.2,0.1s0.1,0.1,0.1,0.2c0,0.1,0,0.1,0.1,0.1c0-0.1,0-0.1,0-0.2
		s-0.1-0.1-0.1-0.2C24.4,4.6,24.4,4.6,24.5,4.6z"/>
	<path class="st5" d="M19.1,3.4c0,0.1,0,0.1-0.2,0C18.9,3.5,19.1,3.5,19.1,3.4C19.2,3.5,19.2,3.5,19.1,3.4
		C19.2,3.4,19.2,3.4,19.1,3.4c0.2,0.1,0.2-0.1,0.3-0.1h0.1c0,0,0,0.1,0.1,0.1c0,0,0,0.1,0.1,0.1c0-0.1,0-0.1,0.1-0.2h0.1
		c0,0.1,0,0.1-0.1,0.2l0.1,0.1c-0.1,0-0.1,0-0.2,0V3.5h-0.1c0,0.1-0.1,0.1-0.2,0.1s-0.1,0.1-0.1,0.1c0,0.1,0.1,0.1,0.2,0.2
		c0.1,0,0.1,0.1,0.2,0.1l0,0c0.1,0,0.1,0,0.1,0.1c0,0,0,0.1,0.1,0.1C19.9,4.1,19.8,4,20,4c0,0.1,0,0,0,0s0-0.1,0-0.2
		c0.1,0,0.3,0,0.4,0.1s0.1,0.1,0.2,0c0,0,0,0.1,0.1,0.1c0.1,0.1,0.1,0.1,0.2,0.2v0.1c0,0,0,0-0.1,0c-0.1,0.1-0.2,0-0.3,0.1
		c-0.1,0-0.1,0.1-0.2,0.1l0,0c0.1,0,0.1-0.1,0.2-0.1c0,0.1,0.1,0.1,0.1,0.2c0,0-0.1,0-0.1,0.1V4.6c-0.1,0-0.1,0-0.2,0.1l0,0
		C20.2,4.8,20.1,5,20.1,5c0,0.1-0.1,0.1-0.1,0.2c0,0-0.1,0.1,0,0.1c0,0,0,0.1,0,0.2c0,0,0,0,0,0.1l0,0c0-0.2-0.1-0.2-0.3-0.2
		c0,0.1-0.1,0.1-0.1,0.1c-0.1,0-0.2,0-0.2,0.1c0,0.2,0,0.3,0.2,0.4c0,0,0,0,0.1,0c0-0.1,0-0.1,0.1-0.1c0,0,0.1,0,0.1-0.1
		c0,0.1-0.1,0.1-0.1,0.2v0.1h0.1l0,0c0,0.1,0,0.1,0,0.2c0,0,0,0.1,0.1,0.1h0.1c0.1,0,0.1,0,0.1,0.1l0,0c0-0.1,0.1-0.1,0.2-0.1
		c0,0,0,0,0.1,0h0.1c0,0.1,0.1,0.1,0.1,0.1c0.1,0,0.1,0,0.2,0.1s0.1,0.1,0.2,0.1s0.1,0.1,0.1,0.2V7c0.1,0,0.2,0.1,0.2,0.1
		c0.1,0,0.2,0,0.3,0c0.1,0.1,0.1,0.2,0,0.3c-0.1,0.1-0.1,0.1-0.1,0.2s0,0.1,0,0.2S21.5,8,21.4,8.1c-0.1,0-0.1,0.1-0.1,0.2
		c0,0.1,0,0.1-0.1,0.2l0,0c-0.1,0.1-0.1,0.2-0.2,0.3c0,0.1-0.1,0.1-0.1,0.1c-0.1,0-0.1,0.1-0.2,0.2c0,0,0,0.1-0.1,0.1
		c-0.1,0.1-0.1,0.1,0,0.2l-0.1,0.1v0.1c-0.1,0-0.2-0.1-0.2-0.1s0,0,0-0.1s0-0.2,0-0.4c0-0.1,0-0.1,0-0.2V8.7c0-0.1,0-0.2,0.1-0.2
		c0-0.2,0-0.3,0-0.5c0-0.1,0-0.2-0.1-0.2s-0.1-0.1-0.1-0.2S20.1,7.4,20,7.3l0,0c0-0.1,0-0.3,0.1-0.4c0,0,0,0,0.1,0
		c0-0.1,0-0.2,0-0.3c-0.1,0.1-0.2,0-0.2-0.1c-0.1-0.1-0.1-0.2-0.2-0.2C19.3,6,19.2,6,19,5.9l-0.1-0.1c0-0.1-0.1-0.3-0.2-0.3
		c0,0,0-0.1-0.1-0.1c0,0,0-0.1-0.1-0.1c0.1,0.1,0.1,0.2,0.2,0.3c-0.1,0-0.1,0-0.1-0.1c-0.1-0.1-0.1-0.2-0.2-0.4c0,0,0,0-0.1-0.1
		l-0.1-0.1c-0.1-0.1-0.1-0.3-0.1-0.4s0-0.2-0.1-0.2V4.2c0.2-0.4,0.4-0.7,0.8-1c0,0,0.1,0,0.1-0.1C19,3.3,19,3.4,19.1,3.4z"/>
	<path class="st5" d="M23.5,7.2c0,0,0-0.1,0.1-0.1l0,0c0,0,0,0.1,0,0.2c-0.1,0.1-0.1,0.2-0.1,0.4v0.1c0,0,0,0-0.1,0h-0.1
		c0-0.1-0.1-0.3,0-0.4C23.4,7.2,23.4,7.2,23.5,7.2z"/>
	<path class="st5" d="M22.4,4c0.1,0.1,0.1,0.2,0.2,0.3c-0.1,0.1-0.1,0.1-0.3,0c0.1-0.1,0.1-0.1,0-0.2C22.3,4.1,22.3,4,22.4,4z"/>
	<path class="st5" d="M21.6,3.7c0,0,0-0.1,0.1,0l0,0c0.1,0,0.1,0,0.2,0C21.9,3.7,21.8,3.8,21.6,3.7z"/>
	<path class="st5" d="M22.3,4.1c0,0.1,0,0.1-0.1,0.2c0,0-0.1,0-0.1-0.1C22.1,4.2,22.2,4.1,22.3,4.1z"/>
	<path class="st5" d="M19.3,5.5c-0.1,0-0.2-0.1-0.3-0.1C19.2,5.3,19.2,5.4,19.3,5.5z"/>
	<path class="st5" d="M19.5,5.6c-0.1,0-0.1,0-0.2,0C19.4,5.5,19.5,5.5,19.5,5.6z"/>
	<path class="st1" d="M23.8,4.8c-0.1,0-0.1,0-0.2,0s-0.1,0-0.1-0.1s0-0.1,0.1-0.2h0.1c0,0,0.1,0.1,0.1,0c0.1,0,0.2,0,0.2,0.1v0.1
		h-0.1C23.9,4.8,23.8,4.8,23.8,4.8z"/>
	<path class="st1" d="M23.7,4.3h-0.1c0.1,0.1,0.1,0.1,0.1,0.2s0,0.1,0,0.2c-0.1,0-0.1,0-0.1-0.1s0-0.1-0.1-0.2S23.5,4.2,23.7,4.3
		C23.6,4.2,23.6,4.2,23.7,4.3z"/>
	<path class="st1" d="M21.7,0.8c-0.2,0-0.3-0.1-0.4-0.2h0.1c0,0,0,0,0.1,0.1C21.5,0.7,21.6,0.7,21.7,0.8c0-0.1,0.1-0.1,0.2-0.1l0,0"
		/>
	<path class="st1" d="M21.7,0.7L21.7,0.7h0.1C21.8,0.7,21.8,0.7,21.7,0.7C21.8,0.7,21.8,0.7,21.7,0.7C21.8,0.7,21.7,0.7,21.7,0.7
		c0-0.1-0.1-0.2-0.1-0.2c-0.1-0.1-0.1-0.1-0.2-0.2c-0.1,0-0.1,0-0.2,0c0,0,0,0,0,0.1c0.1,0,0.2,0.1,0.2,0.1
		C21.5,0.5,21.6,0.6,21.7,0.7L21.7,0.7z"/>
	<path class="st4" d="M21,3.9c-0.1,0-0.2-0.1-0.2-0.1c-0.3-0.2-0.5-0.4-0.6-0.7c-0.1-0.2-0.1-0.3-0.1-0.5s0.1-0.4,0.2-0.5
		c0.1-0.2,0.2-0.4,0.4-0.5c0.2-0.2,0.3-0.3,0.5-0.5c0.1-0.1,0.3-0.2,0.4-0.2l0,0l0,0C22,1,22.2,1,22.5,1.1l0,0
		c0.1,0.2,0.1,0.4,0.2,0.5c0.1,0.2,0.1,0.4,0.1,0.6c0,0.3,0,0.6,0,0.9c-0.1,0.2-0.2,0.4-0.3,0.5C22.3,3.9,22,4,21.8,4s-0.4,0-0.6,0
		l0,0C21.1,4,21,3.9,21,3.9z"/>
	<path class="st1" d="M22.4,0c0.1,0,0.1,0.1,0.2,0.1c0.1,0.1,0.2,0.2,0.3,0.2l0,0l-0.1,0.1c-0.1,0.1-0.2,0.2-0.2,0.3l0,0
		c-0.2-0.1-0.4-0.1-0.6-0.2l0,0c0-0.1,0-0.2,0-0.3l0,0c0,0,0.1,0,0.1,0.1h0.1h0.1V0.2V0.1C22.3,0,22.3,0,22.4,0L22.4,0
		C22.3,0,22.3,0,22.4,0z"/>
	<path class="st1" d="M22.1,0.9c-0.1,0-0.3-0.1-0.4-0.1l0,0c0,0,0,0,0-0.1c0,0,0,0,0.1,0l0,0c0.3,0.1,0.5,0.2,0.8,0.3l0,0
		c0,0,0,0,0,0.1c0,0,0,0-0.1,0l0,0C22.4,1,22.3,1,22.1,0.9z"/>
	<g>
		<path class="st5" d="M20.9,2.1L20.9,2.1C21,2,21.1,2,21.1,1.9c0,0,0,0,0-0.1H21V1.7h0.1V1.6c0-0.1,0.1-0.2,0.3-0.1
			c0.1,0,0.1,0,0.1,0.1v0.1c0,0,0,0-0.1-0.1c-0.1,0-0.1,0-0.2,0.1v0.1h0.1v0.1h-0.1V2l-0.1,0.1l0,0l0.3,0.1v0.1L20.9,2.1z"/>
	</g>
	<g>
		<path class="st5" d="M20.8,3.1L20.8,3.1c-0.1-0.1-0.1-0.2-0.1-0.2V2.8l0.1,0.1C20.9,3,21,3,21,2.9s0-0.1-0.1-0.2
			c-0.1-0.1-0.1-0.1-0.1-0.2c0-0.1,0.1-0.1,0.2-0.1V2.3h0.1v0.1c0.1,0,0.1,0.1,0.1,0.1v0.1l-0.1-0.1c-0.1,0-0.1,0-0.1,0.1
			s0,0.1,0.1,0.2C21.2,2.9,21.2,3,21.2,3c-0.1,0-0.2,0.1-0.3,0L20.8,3.1L20.8,3.1z"/>
	</g>
	<g>
		<path class="st5" d="M21.6,3.6h-0.1c-0.1,0-0.1-0.1-0.2-0.1c0-0.1,0-0.1,0-0.2h-0.1l0,0h0.1l0,0l0,0h-0.1l0,0h0.1
			c0-0.1,0.1-0.1,0.1-0.1c0.1,0,0.1,0,0.2,0s0.1,0,0.1,0.1v0.1c0,0-0.1,0-0.1-0.1h-0.1l-0.1,0.1l0.3,0.1l0,0l-0.3-0.1l0,0l0,0
			l0.3,0.1l0,0l-0.3-0.1c0,0.1,0,0.1,0,0.1l0.1,0.1C21.5,3.5,21.5,3.5,21.6,3.6L21.6,3.6z"/>
	</g>
	<g>
		<path class="st5" d="M21.6,2.1L21.7,2l-0.2-0.1V1.8l0.2,0.1V1.8l-0.2-0.1V1.6h0.1l-0.1-0.4h0.1v0.2v0.1l0,0c0,0,0-0.1,0.1-0.1
			l0.2-0.2H22l-0.3,0.2h0.1v0.1l-0.2-0.1v0.1L22,2v0.1L21.8,2L21.6,2.1L21.6,2.1z"/>
	</g>
	<g>
		<path class="st5" d="M21.6,2.8h-0.1c-0.1,0-0.2-0.2-0.2-0.3c0.1-0.1,0.2-0.2,0.3-0.2c0.1,0,0.1,0,0.1,0.1l0,0c0,0,0,0-0.1-0.1
			c-0.1,0-0.2,0-0.3,0.1c0,0.1,0,0.2,0.1,0.3C21.5,2.8,21.6,2.8,21.6,2.8L21.6,2.8z"/>
		<path class="st5" d="M21.9,2.4l-0.1,0.2L22,2.7l0.1-0.2h0.1L22,3l0,0V2.8l-0.2-0.1l-0.1,0.2h-0.1L21.9,2.4L21.9,2.4z"/>
		<path class="st5" d="M22.3,2.6l0.3,0.1v0.1L22.3,2.6v0.2l0.2,0.1V3l-0.2-0.1l-0.1,0.2h-0.1L22.3,2.6z"/>
	</g>
</g>
</svg>
