<?xml version="1.0" encoding="UTF-8" standalone="no"?>
<!DOCTYPE svg PUBLIC "-//W3C//DTD SVG 1.1//EN" "http://www.w3.org/Graphics/SVG/1.1/DTD/svg11.dtd">
<svg viewBox="0 0 296 170" xmlns:xlink="http://www.w3.org/1999/xlink" height="170.0pt" width="296.0pt" xmlns="http://www.w3.org/2000/svg" version="1.1"><defs>
<path d="M 0.00 0.00 L 296.00 0.00 L 296.00 170.00 L 0.00 170.00 L 0.00 0.00 Z" id="p0" />
<path d="M 16.90 0.77 C 22.63 0.95 28.03 1.57 32.56 5.42 C 35.33 7.76 36.30 10.93 38.39 13.66 C 41.97 15.62 45.71 16.15 48.73 19.26 C 53.01 23.66 55.58 30.03 58.75 35.27 C 63.20 42.84 66.94 52.58 73.61 58.36 C 82.41 66.07 95.65 67.99 105.01 75.01 C 113.25 81.01 120.27 89.55 123.67 99.22 C 125.03 102.53 121.61 106.02 118.22 104.96 C 115.72 103.54 114.61 100.23 113.27 97.81 C 110.40 91.96 106.06 87.08 100.97 83.07 C 93.70 77.44 84.87 75.45 76.81 71.19 C 70.85 68.11 65.59 63.83 61.70 58.34 C 55.12 48.65 50.53 37.67 44.18 27.83 C 42.60 25.44 40.30 24.22 37.89 22.83 C 35.21 26.01 33.19 29.45 29.30 31.31 C 24.75 33.57 20.03 33.31 15.18 32.39 C 14.75 30.93 14.31 29.48 13.87 28.03 C 10.59 28.00 7.26 28.21 3.99 27.91 C 1.58 27.48 1.33 25.42 0.48 23.52 C 1.39 22.67 2.29 21.82 3.20 20.97 C 6.72 20.92 10.33 21.13 13.82 20.68 C 14.84 18.75 14.36 16.09 14.36 13.96 C 11.23 13.86 8.09 13.97 4.97 13.71 C 3.42 13.57 2.06 13.13 1.33 11.63 C 0.26 9.64 1.51 7.10 3.78 6.86 C 7.02 6.43 10.36 6.62 13.62 6.47 C 14.68 4.55 15.77 2.65 16.90 0.77 Z" id="p1" />
<path d="M 175.01 19.35 C 181.93 19.17 188.78 21.35 193.90 26.10 C 198.80 30.43 201.08 36.01 204.42 41.55 C 218.60 65.78 233.09 89.75 246.80 114.26 C 247.69 116.05 248.92 118.51 247.33 120.27 C 245.39 123.40 241.06 122.63 239.55 119.49 C 228.56 100.27 217.60 81.02 205.97 62.03 C 201.30 54.03 196.73 45.96 192.06 37.96 C 190.79 35.87 189.51 33.92 187.61 32.34 C 184.64 29.92 180.82 28.53 177.03 28.21 C 171.39 27.87 166.35 29.45 160.95 30.04 C 158.21 30.62 155.56 27.75 156.01 25.11 C 156.75 23.14 158.15 21.91 160.17 21.35 C 164.97 20.02 170.04 19.55 175.01 19.35 Z" id="p2" />
<path d="M 93.00 33.25 C 101.04 34.68 109.03 33.37 117.07 34.53 C 120.29 35.06 124.20 34.42 127.16 35.81 C 130.34 37.65 129.52 43.06 125.82 43.75 C 121.82 44.37 117.56 43.78 113.51 43.78 C 115.42 48.98 117.97 53.76 120.24 58.80 C 129.42 78.63 138.83 98.36 148.12 118.13 C 145.63 120.46 143.62 121.64 140.30 122.51 C 137.38 117.54 135.46 112.19 133.00 107.00 C 124.46 88.86 115.98 70.69 107.49 52.53 C 106.11 49.60 104.65 46.72 103.04 43.91 C 98.69 43.96 94.26 44.28 89.93 43.83 C 86.29 43.04 83.65 40.02 85.06 36.17 C 87.12 33.70 89.77 32.54 93.00 33.25 Z" id="p3" />
<path d="M 120.93 50.99 C 146.18 51.00 171.51 51.01 196.77 50.99 C 198.20 53.41 199.61 55.83 201.18 58.16 C 200.68 58.77 200.17 59.39 199.66 60.00 C 177.78 60.01 155.89 59.98 134.00 60.01 C 130.48 59.96 126.80 60.29 123.33 59.70 C 121.52 58.08 120.52 55.46 119.69 53.23 C 119.14 52.16 119.49 50.79 120.93 50.99 Z" id="p4" />
<path d="M 200.95 60.90 C 203.20 61.96 204.80 64.51 205.17 66.92 C 203.09 69.51 200.28 71.58 197.84 73.84 C 188.70 82.04 179.58 90.23 170.36 98.36 C 163.86 104.65 157.02 110.75 149.88 116.30 C 147.85 113.95 146.89 111.27 145.73 108.44 C 162.00 93.82 178.44 79.34 194.67 64.67 C 196.45 63.16 198.53 61.12 200.95 60.90 Z" id="p5" />
<path d="M 266.61 71.39 C 279.00 77.70 288.47 89.19 292.48 102.48 C 296.12 114.22 295.31 127.16 290.42 138.42 C 286.33 147.71 279.52 155.59 271.08 161.21 C 269.55 158.95 267.79 156.59 266.86 154.01 C 268.12 152.31 270.04 151.06 271.58 149.61 C 278.22 143.74 282.88 135.60 284.79 126.96 C 288.69 110.68 281.77 92.52 268.18 82.80 C 260.97 77.36 251.97 74.54 242.99 74.35 C 239.15 74.28 235.08 75.46 231.30 74.92 C 228.99 73.49 229.14 71.23 228.45 68.87 C 230.60 67.60 232.42 66.25 234.98 65.97 C 245.80 64.52 256.95 66.21 266.61 71.39 Z" id="p6" />
<path d="M 59.89 68.74 C 61.20 70.60 61.95 72.54 62.56 74.72 C 58.10 78.14 52.77 79.83 48.34 83.28 C 40.86 88.78 35.51 97.16 32.95 106.02 C 31.40 110.96 31.98 116.71 31.87 121.93 C 32.42 133.66 38.61 142.93 46.61 151.03 C 44.75 153.17 42.85 155.25 40.88 157.28 C 24.91 144.10 18.59 121.60 24.84 101.92 C 29.57 87.16 40.82 74.78 55.35 69.22 C 56.84 68.73 58.34 68.73 59.89 68.74 Z" id="p7" />
<path d="M 210.03 83.94 C 212.40 86.44 209.58 88.98 208.25 91.21 C 202.71 98.29 199.66 107.03 199.21 115.98 C 198.70 125.14 201.73 134.52 206.84 142.08 C 216.29 156.04 234.46 163.67 251.00 159.93 C 255.93 159.13 260.12 156.71 264.78 155.20 C 266.63 157.18 267.92 159.80 269.32 162.11 C 258.04 169.56 242.92 171.14 229.95 168.15 C 214.36 164.42 200.95 153.07 194.64 138.35 C 186.85 120.42 189.84 98.53 202.84 83.81 C 205.03 81.41 208.05 81.10 210.03 83.94 Z" id="p8" />
<path d="M 75.93 113.05 C 94.96 112.88 114.08 113.10 133.12 112.96 C 134.81 115.71 136.20 118.60 137.50 121.54 C 132.32 122.19 127.21 122.02 122.00 122.00 C 106.68 121.98 91.25 122.02 75.95 122.01 C 73.42 122.14 71.04 120.64 70.76 118.00 C 70.55 115.02 73.14 113.05 75.93 113.05 Z" id="p9" />
<path d="M 124.51 130.80 C 124.14 133.21 123.79 135.58 122.82 137.83 C 118.19 148.92 109.40 158.26 98.75 163.76 C 81.02 173.07 58.06 171.22 42.49 158.45 C 44.31 156.55 46.13 153.68 48.60 152.63 C 50.60 153.37 52.46 154.62 54.34 155.63 C 59.99 158.79 66.54 160.44 72.98 160.85 C 81.46 161.18 90.14 158.54 97.54 154.51 C 105.44 149.83 111.23 142.18 114.75 133.79 C 115.73 131.85 116.44 129.35 118.83 128.79 C 120.68 128.11 122.90 130.04 124.51 130.80 Z" id="p10" /></defs><g stroke-width="10pt">
<use stroke="#ffffff" xlink:href="#p0" />
<use stroke="#558d55" xlink:href="#p1" />
<use stroke="#558d55" xlink:href="#p2" />
<use stroke="#558d55" xlink:href="#p3" />
<use stroke="#558d55" xlink:href="#p4" />
<use stroke="#558d55" xlink:href="#p5" />
<use stroke="#558d55" xlink:href="#p6" />
<use stroke="#558d55" xlink:href="#p7" />
<use stroke="#558d55" xlink:href="#p8" />
<use stroke="#558d55" xlink:href="#p9" />
<use stroke="#558d55" xlink:href="#p10" /></g>
<g>
<use xlink:href="#p0" fill="#ffffff" />
<use xlink:href="#p1" fill="#558d55" />
<use xlink:href="#p2" fill="#558d55" />
<use xlink:href="#p3" fill="#558d55" />
<use xlink:href="#p4" fill="#558d55" />
<use xlink:href="#p5" fill="#558d55" />
<use xlink:href="#p6" fill="#558d55" />
<use xlink:href="#p7" fill="#558d55" />
<use xlink:href="#p8" fill="#558d55" />
<use xlink:href="#p9" fill="#558d55" />
<use xlink:href="#p10" fill="#558d55" /></g></svg>