<?xml version="1.0" encoding="utf-8"?>
<!-- Generator: Adobe Illustrator 19.2.1, SVG Export Plug-In . SVG Version: 6.00 Build 0)  -->
<svg version="1.1" id="Calque_1" xmlns="http://www.w3.org/2000/svg" xmlns:xlink="http://www.w3.org/1999/xlink" x="0px" y="0px"
	 viewBox="0 0 30 21.8" style="enable-background:new 0 0 30 21.8;" xml:space="preserve">
<style type="text/css">
	.st0{fill:#6E8935;}
	.st1{fill:#6E8935;stroke:#FFFFFF;stroke-width:5.247453e-002;stroke-miterlimit:10;}
</style>
<g>
	<polygon class="st0" points="21.1,13.2 27.5,12.7 21.2,13.7 	"/>
</g>
<g>
	<polygon class="st0" points="20.6,11.2 26.8,8.8 20.8,11.7 	"/>
</g>
<g>
	<polygon class="st0" points="19.5,9.5 24.8,5.8 19.8,9.8 	"/>
</g>
<g>
	<polygon class="st0" points="20.6,11.2 26.3,9.1 20.8,11.7 	"/>
</g>
<g>
	<polygon class="st0" points="7.2,9.5 2.2,5.1 7.5,9.2 	"/>
</g>
<g>
	<polygon class="st0" points="5.8,13.3 0,12.2 5.9,12.8 	"/>
</g>
<g>
	<polygon class="st0" points="21.2,13.2 27.1,12.8 21.2,13.7 	"/>
</g>
<g>
	<polygon class="st0" points="18,8 22.4,3 18.4,8.2 	"/>
</g>
<g>
	<polygon class="st0" points="16.4,7.1 19.2,1.1 16.8,7.2 	"/>
</g>
<g>
	<polygon class="st0" points="14.5,6.5 15.5,0.2 14.9,6.5 	"/>
</g>
<g>
	<polygon class="st0" points="12.5,6.4 11.9,0 12.9,6.4 	"/>
</g>
<g>
	<polygon class="st0" points="10.5,7.2 8.3,0.9 10.9,7.1 	"/>
</g>
<g>
	<polygon class="st0" points="8.7,8.1 5,2.5 9.1,7.8 	"/>
</g>
<g>
	<polygon class="st0" points="6.3,11.3 0.5,8.5 6.5,10.8 	"/>
</g>
<path class="st0" d="M20.3,14.2c0-0.2,0-0.3,0-0.5c0-3.5-3-6.4-6.7-6.4s-6.7,2.8-6.7,6.4c0,0.2,0,0.4,0,0.5c0,0,3.8-1.2,6.3-1.2
	c0,0,4.5-0.1,6.8,1C20,14.2,20.3,14.2,20.3,14.2z"/>
<path class="st1" d="M12.5,13.1c-3.5,0.3-9.1,2-10.9,3.1c0,0,6.8-2.5,12.8-2.2c0,0,4.8,0.1,11,2.2c0,0-4-1.8-5.2-2.2
	c-1.2-0.3-1.2-0.3-1.2-0.3S16,12.8,12.5,13.1z"/>
<path class="st0" d="M0.5,21c0.1-0.2,0.1-0.3,0.2-0.3c0.5-0.3,0.8-0.8,1.2-1.2c0.2-0.2,0.3-0.3,0.5-0.5c0.1-0.1,0.1-0.2,0.1-0.2
	c0,0,0,0-0.1-0.1c0.2-0.1,0.2-0.1,0.4-0.2c0,0,0,0-0.1-0.1c0.1-0.1,0.2-0.2,0.2-0.2c0.3-0.2,0.5-0.4,0.6-0.6C3.5,17.4,3.8,17.2,4,17
	c0.1-0.1,0.2-0.2,0.2-0.2c0.1-0.1,0.1-0.1,0.2-0.2l0.1-0.1c0-0.3,0.3-0.3,0.4-0.5c0.2-0.5,0.7-0.4,1.1-0.3c0.2,0,0.3,0.1,0.5,0.2
	c-0.1,0.2-0.2,0.5-0.3,0.7l0,0c-0.2,0.2-0.3,0.4-0.3,0.5c-0.1,0.2-0.1,0.5-0.4,0.6c0,0,0,0.2,0,0.2c-0.2,0.4-0.3,0.8-0.8,1.1
	c0,0.1,0.1,0.2,0.1,0.2c-0.2,0.1-0.2,0.1-0.4,0.2c0.1,0.1,0.2,0.2,0.2,0.2c-0.2,0.1-0.2,0.2-0.4,0.3c-0.1,0.1-0.1,0.2-0.2,0.3
	c0,0.1-0.1,0.2-0.2,0.2c-0.1,0.2-0.2,0.3-0.2,0.5c0,0.2-0.1,0.3-0.3,0.3s-0.5,0-0.7-0.1c-0.2-0.1-0.4-0.2-0.6-0.1
	c-0.2,0-0.4,0-0.5-0.2c-0.1-0.1-0.2-0.1-0.4-0.1C1.1,20.9,0.8,21,0.5,21z"/>
<path class="st0" d="M19,17.9c-0.1-0.2-0.1-0.3-0.1-0.3c-0.2-0.2-0.5-0.4-0.7-0.6c-0.2-0.2-0.3-0.4-0.5-0.6
	c-0.2-0.2-0.5-0.5-0.7-0.7c-0.3-0.3-0.5-0.6-0.8-0.9c0,0,0-0.1,0.1-0.1c0.5,0,1,0,1.5,0c0.1,0,0.2,0.1,0.2,0.2
	c0.3,0.2,0.5,0.5,0.8,0.7s0.6,0.4,0.9,0.7c0.3,0.2,0.5,0.5,0.8,0.8c0.2,0.2,0.5,0.3,0.7,0.5c0.2,0.2,0.5,0.2,0.4,0.5v0.1
	c0.4,0.2,0.7,0.5,1.1,0.8c0.2,0.2,0.3,0.3,0.5,0.5c0.1,0.1,0.2,0.2,0.3,0.3c0.4,0.2,0.8,0.2,0.9,0.8c0,0.1,0.2,0.2,0.2,0.2
	c0.5,0.3,0.8,0.5,1.3,0.8c0.1,0.1,0.2,0.2,0.2,0.2c-0.1,0-0.2,0.1-0.2,0.1c-0.3,0-0.6,0-0.8-0.2c-0.5-0.2-0.8,0.1-1.2,0.1
	c-0.5,0-0.9,0-1.5,0c-0.5-0.1-0.6-0.2-0.7-0.7c0-0.1-0.2-0.2-0.2-0.2c-0.2-0.1-0.4-0.2-0.4-0.5c0-0.1-0.2-0.2-0.3-0.2
	c-0.2-0.1-0.4-0.1-0.3-0.4c0,0-0.1-0.2-0.2-0.2c-0.3-0.2-0.6-0.2-0.6-0.6c0,0,0,0,0-0.1C19.5,18.5,19.2,18.2,19,17.9z"/>
<path class="st0" d="M23,18.2c-0.1-0.2-0.1-0.2-0.2-0.3c-0.2-0.2-0.5-0.3-0.7-0.5c-0.2-0.2-0.4-0.3-0.5-0.5
	c-0.2-0.2-0.5-0.3-0.7-0.5c-0.3-0.2-0.6-0.5-0.8-0.8v-0.1c0.5-0.1,0.8-0.2,1.3-0.2c0.1,0,0.2,0.1,0.2,0.2c0.3,0.2,0.5,0.4,0.8,0.5
	c0.3,0.2,0.6,0.3,0.9,0.5c0.3,0.2,0.6,0.5,0.9,0.6c0.2,0.2,0.5,0.2,0.7,0.4c0.2,0.1,0.5,0.1,0.4,0.4c0,0,0,0,0.1,0.1
	c0.4,0.2,0.7,0.4,1.1,0.5c0.2,0.1,0.3,0.2,0.5,0.4c0.1,0.1,0.2,0.2,0.4,0.2c0.3,0.2,0.8,0.2,0.9,0.5c0,0.1,0.2,0.1,0.2,0.2
	c0.5,0.2,0.8,0.4,1.3,0.6c0.1,0,0.2,0.1,0.2,0.2c-0.1,0.1-0.2,0.2-0.2,0.2c-0.2,0-0.5,0.1-0.8,0c-0.4-0.2-0.7,0.2-1,0.2
	c-0.5,0.1-0.8,0.2-1.3,0.2c-0.5,0-0.6-0.2-0.8-0.6c0-0.1-0.2-0.2-0.2-0.2c-0.2-0.1-0.4-0.1-0.4-0.4c0-0.1-0.2-0.2-0.3-0.2
	c-0.2-0.1-0.4,0-0.3-0.3c0,0-0.1-0.1-0.2-0.2c-0.3-0.1-0.6-0.2-0.6-0.5c0,0,0,0-0.1-0.1C23.5,18.5,23.2,18.3,23,18.2z"/>
<path class="st0" d="M4.1,21.7c0.1-0.2,0.1-0.3,0.2-0.4c0.5-0.4,0.8-1.1,1.1-1.6c0.2-0.2,0.3-0.4,0.5-0.6c0.1-0.1,0.1-0.2,0.1-0.3
	c0,0-0.1,0-0.1-0.1c0.2-0.1,0.2-0.2,0.4-0.2c0,0-0.1,0-0.1-0.1c0.1-0.1,0.1-0.2,0.2-0.3c0.3-0.2,0.4-0.5,0.5-0.8
	c0.2-0.3,0.4-0.5,0.6-0.8c0.1-0.1,0.2-0.2,0.2-0.3c0.1-0.1,0.1-0.2,0.2-0.2l0.1-0.1c-0.1-0.3,0.2-0.5,0.3-0.7
	c0.2-0.5,0.7-0.5,1.2-0.5c0.2,0,0.4,0,0.7,0.1c-0.1,0.3-0.2,0.5-0.2,0.8l0,0c-0.1,0.2-0.2,0.5-0.3,0.7c-0.1,0.3,0,0.5-0.3,0.8
	c0,0,0,0.2,0.1,0.3c-0.2,0.5-0.2,1.1-0.7,1.4c0.1,0.1,0.1,0.2,0.2,0.2c-0.2,0.1-0.2,0.2-0.4,0.2c0.1,0.1,0.2,0.2,0.2,0.2
	c-0.2,0.2-0.2,0.2-0.4,0.4c-0.1,0.1-0.1,0.2-0.1,0.4c0,0.1-0.1,0.2-0.1,0.3c-0.1,0.2-0.2,0.4-0.2,0.6c0,0.2-0.1,0.4-0.2,0.4
	c-0.3,0.1-0.5,0.2-0.8,0.1c-0.2-0.1-0.5-0.1-0.8,0c-0.2,0.1-0.4,0.1-0.6-0.1c-0.1-0.1-0.3-0.1-0.4-0.1C4.8,21.5,4.5,21.6,4.1,21.7z"
	/>
<path class="st0" d="M13,16.1c-0.1,0.2,0.1,1,0.2,1.2c-0.1,0.1-0.1,0.1-0.2,0.2c0.1,0.1,0.2,0.1,0.2,0.2c-0.1,0.2-0.1,0.3-0.1,0.4
	c0,0.2,0,0.2,0,0.4c0.1,0.2,0.4,0.2,0.1,0.5c0.3,0.2,0.3,0.3,0.2,0.6c-0.1,0.1,0,0.2,0,0.3c0,0.1,0.1,0.2,0,0.2
	c-0.2,0.2,0,0.4,0,0.5c0,0.5,0.3,0.6,0.5,0.9c0.1,0.1,0.1,0.2,0.1,0.3c-0.1,0-0.2,0.1-0.3,0c-0.5-0.4-0.9-0.1-1.5,0
	c-0.2,0-0.4,0.1-0.5,0c-0.5-0.2-1-0.2-1.5,0c-0.2,0-0.3,0.1-0.4,0.1v-0.1c0.2-0.2,0.3-0.3,0.5-0.5c-0.2-0.1-0.2-0.2-0.3-0.2
	c-0.2-0.2-0.1-0.5,0.2-0.6c0.2-0.1,0.2-0.2,0.2-0.4c0-0.3,0.1-0.5,0.1-0.8c0-0.2,0.1-0.5,0.1-0.7c0-0.1,0.1-0.2,0.1-0.2
	c0-0.2-0.1-0.5-0.1-0.7c0.4-0.1,0.3-0.5,0.2-0.6c-0.1-0.2,0-0.3,0.1-0.5c0.1-0.1,0-0.2,0-0.3c0-0.2,0.1-0.4,0.1-0.5s0.1-0.2,0.1-0.4
	c0-0.2,0.1-0.4,0.4-0.4c0.5,0,0.8,0,1.3,0C12.8,15.2,12.9,15.6,13,16.1z"/>
<path class="st0" d="M13.7,14.8c0.5,0,1,0,1.5,0c0.1,0,0.2,0.2,0.3,0.2c0.2,0.3,0.5,0.6,0.7,1c0.1,0.2,0.3,0.2,0.3,0.3
	c-0.1,0.3,0.3,0.5,0.4,0.7c0.1,0.4,0.4,0.6,0.7,0.8c0.2,0.1,0.2,0.3,0.3,0.5c0.1,0.2,0.1,0.2,0.2,0.4c0.2,0.3,0.4,0.6,0.8,0.8
	c0.2,0.2,0.4,0.5,0.4,0.8c0,0.3,0.4,0.6,0.6,0.9c0.1,0.1,0.2,0.1,0.3,0.2c-0.3,0.2-0.6,0.2-0.8,0.1c-0.3-0.1-0.5-0.2-0.8,0.1
	c-0.1,0.1-0.2,0-0.4,0c-0.5-0.3-0.9-0.2-1.4-0.1c-0.3,0.1-0.4,0-0.5-0.3c0-0.1-0.1-0.2-0.2-0.2c-0.2-0.2-0.3-0.4-0.5-0.6
	c0.2-0.1,0.2-0.2,0.3-0.2c-0.2-0.2-0.3-0.4-0.5-0.6c-0.1-0.2-0.1-0.4-0.1-0.6c-0.1-0.3-0.1-0.6-0.4-0.8c-0.2-0.2-0.3-0.3,0-0.5
	c-0.2-0.3-0.3-0.6-0.5-1c-0.1-0.2-0.2-0.4-0.2-0.7c0-0.2-0.4-0.2,0-0.4c-0.1-0.1-0.2-0.2-0.2-0.2C13.8,15.3,13.8,15.1,13.7,14.8z"/>
</svg>
