<?xml version="1.0" encoding="UTF-8" standalone="no"?>
<!DOCTYPE svg PUBLIC "-//W3C//DTD SVG 1.1//EN" "http://www.w3.org/Graphics/SVG/1.1/DTD/svg11.dtd">
<svg viewBox="0 0 225 225" xmlns:xlink="http://www.w3.org/1999/xlink" height="225.0pt" width="225.0pt" xmlns="http://www.w3.org/2000/svg" version="1.1"><defs>
<path d="M 0.00 0.00 L 225.00 0.00 L 225.00 225.00 L 0.00 225.00 L 0.00 0.00 Z" id="p0" />
<path d="M 99.59 12.33 C 110.99 12.17 122.47 12.27 133.88 12.41 C 132.77 16.31 131.17 19.92 129.72 23.70 C 120.52 48.18 111.13 72.66 101.92 97.13 C 119.19 87.41 136.45 77.56 153.87 68.12 C 146.03 103.80 137.94 139.67 129.91 175.32 C 136.00 174.15 141.92 172.09 148.04 171.18 C 147.48 172.20 146.90 173.21 146.21 174.15 C 136.13 187.72 126.22 201.42 116.14 214.99 C 114.12 209.38 112.79 203.52 111.06 197.80 C 107.54 186.09 104.17 174.31 100.86 162.55 C 106.27 166.01 111.48 169.76 116.98 173.10 C 116.89 170.02 117.02 167.06 117.47 164.01 C 118.98 146.15 120.25 128.16 121.89 110.34 C 105.15 120.06 88.59 130.09 71.87 139.84 C 73.47 131.53 75.54 123.30 77.14 114.99 C 84.54 81.60 92.16 45.55 99.59 12.33 Z" id="p1" /></defs><g stroke-width="10pt">
<use stroke="#ffffff" xlink:href="#p0" />
<use stroke="#536f37" xlink:href="#p1" /></g>
<g>
<use xlink:href="#p0" fill="#ffffff" />
<use xlink:href="#p1" fill="#536f37" /></g></svg>