<?xml version="1.0" encoding="utf-8"?>
<!-- Generator: Adobe Illustrator 16.0.0, SVG Export Plug-In . SVG Version: 6.00 Build 0)  -->
<!DOCTYPE svg PUBLIC "-//W3C//DTD SVG 1.1//EN" "http://www.w3.org/Graphics/SVG/1.1/DTD/svg11.dtd">
<svg version="1.1" id="Calque_1" xmlns="http://www.w3.org/2000/svg" xmlns:xlink="http://www.w3.org/1999/xlink" x="0px" y="0px"
	 width="116.7px" height="31.1px" viewBox="0 0 116.7 31.1" style="enable-background:new 0 0 116.7 31.1;" xml:space="preserve">
<style type="text/css">
<![CDATA[
	.st0{fill:none;stroke:#6E8934;stroke-width:0.5;stroke-linecap:round;stroke-linejoin:round;stroke-miterlimit:10;}
	.st1{fill:#6E8934;}
]]>
</style>
<g>
	<g>
		<path id="p2_1_" class="st1" d="M111.8,7.3c5.2,2.7,6.5,9.8,2.9,14.4c-2.7,3.7-7.1,4-11.3,2.9c-2.8-1.2-5.4-3.3-8-4.9
			c-0.5,3.1-0.1,7-2.5,9.3c-2.4,2.5-5.8,2-8.9,2.1C72.6,31,61.2,31.2,49.8,31c0.4-1.9-0.4-5.6,1.6-6.6c6.3-0.9,12.9,0.3,19.3-0.6
			c4.6-0.7,9.1-1.9,13.6-2.8c-0.2-1.3-0.3-2.6-0.5-3.9c-4.3,1-8.7,2.1-13.1,2.8c-6.2,0.9-12.6-0.2-18.7,0.4
			c-2.5,0.3-4.9,1.6-5.7,4.2c-0.5,2.2-0.5,4.5-0.6,6.7C31.9,31,17.9,31.2,4.1,31c-4.4,0.1-5.3-5.8-2.4-8.2
			c5.3-1.7,10.9-2.7,16.4-3.4c10.7-1.7,21.4-3.4,32.1-5c4.9-0.6,9.9-0.3,14.7-0.3c7.4,0.1,14.7-0.1,22.1,0c4-0.2,5.6,3,9.4,4.2
			c0.5-1.8,0.8-3.7,1.4-5.5C99.3,7.2,106.9,4.4,111.8,7.3z"/>
	</g>
	<line class="st0" x1="60.7" y1="14.6" x2="60.7" y2="6.1"/>
	<line class="st0" x1="106" y1="8.8" x2="106" y2="0.3"/>
	<line class="st0" x1="63.9" y1="14.5" x2="65.5" y2="6.2"/>
	<line class="st0" x1="69.6" y1="14.5" x2="67.7" y2="6.2"/>
	<line class="st0" x1="73.1" y1="14.6" x2="72.2" y2="6.1"/>
	<line class="st0" x1="75.8" y1="14.5" x2="77.5" y2="6.2"/>
	<line class="st0" x1="106.9" y1="8.7" x2="108.7" y2="0.3"/>
	<line class="st0" x1="109.3" y1="8.7" x2="111" y2="0.3"/>
	<line class="st0" x1="107.1" y1="8" x2="102.4" y2="1"/>
</g>
</svg>
