<?xml version="1.0" encoding="utf-8"?>
<!-- Generator: Adobe Illustrator 19.2.1, SVG Export Plug-In . SVG Version: 6.00 Build 0)  -->
<svg version="1.1" id="Calque_1" xmlns="http://www.w3.org/2000/svg" xmlns:xlink="http://www.w3.org/1999/xlink" x="0px" y="0px"
	 viewBox="0 0 595.3 595.3" style="enable-background:new 0 0 595.3 595.3;" xml:space="preserve">
<style type="text/css">
	.st0{fill:none;stroke:#6E8935;stroke-width:0.2572;stroke-miterlimit:10;}
	.st1{fill:#6E8935;}
	.st2{fill:#FFFFFF;stroke:#6E8935;stroke-width:8.573830e-002;stroke-miterlimit:10;}
	.st3{fill:#FFFFFF;}
</style>
<g>
	<circle class="st0" cx="313.4" cy="313" r="20.4"/>
	<g>
		<path class="st1" d="M294.9,314.9c0.8-1.4,1.6-2.9,2.4-4.4c-0.7-0.4-1.4-0.8-2.2-1.3c0.1-0.1,0.1-0.1,0.2-0.1
			c2.4-0.1,4.7-0.1,7.1-0.1c0.2,0,0.6,0.1,0.6,0.3c1.2,2.1,2.4,4.3,3.5,6.6c-0.7-0.4-1.4-0.8-2.1-1.2c-0.1,0-0.1,0-0.1,0.1
			c-1.4,2.3-2.7,4.6-4,7c-0.4,0.6-0.4,1.4-0.7,2.3c-1.6-2.7-3.1-5.4-4.7-8.1C294.9,315.5,294.9,315.2,294.9,314.9z"/>
		<path class="st1" d="M319.4,295.2c0.5,0.5,1.1,0.9,1.5,1.5c0.7,1,1.3,2.1,2,3.3c0.8-0.4,1.5-0.9,2.2-1.3l0.1,0.1
			c-0.5,0.9-1,1.8-1.5,2.7c-0.7,1.2-1.3,2.4-2,3.6c-0.1,0.2-0.4,0.4-0.6,0.4c-2.4,0-4.8-0.1-7.1-0.1c0,0-0.1-0.1-0.2-0.1
			c0.7-0.4,1.4-0.8,2.2-1.2c-0.1-0.2-0.2-0.4-0.3-0.6c-1-1.7-2-3.4-3-5.2c-0.7-1.2-1.4-2.3-2.6-3.1
			C313.1,295.2,316.2,295.2,319.4,295.2z"/>
		<path class="st1" d="M331.3,316.7c-0.1,0.1-0.1,0.3-0.2,0.4c-0.6,1.6-1.8,2.6-3.6,2.7c-0.8,0-1.6,0-2.4,0c-0.2,0-0.5-0.2-0.6-0.4
			c-1.4-2.3-2.7-4.6-4.1-7.1c2.3-1.3,4.7-2.7,7.1-4.1c1.3,2.3,2.6,4.6,3.8,6.9C331.3,315.6,331.3,316.2,331.3,316.7z"/>
		<path class="st1" d="M331.3,319.8c-1.4,2.5-2.9,5.1-4.5,7.7c-0.4,0.7-1.1,0.9-1.8,0.9c-1.4,0-2.7,0-4.2,0c0,0.9,0,1.7,0,2.5
			c-0.1,0-0.1,0-0.2,0c-0.6-1.1-1.3-2.1-1.9-3.2c-0.6-1-1.2-2-1.8-3c-0.1-0.2-0.1-0.6,0-0.8c1.2-2.1,2.5-4.2,3.9-6.5
			c0,1,0,1.8,0,2.7c0.3,0,0.6,0.1,0.8,0.1c2.3,0,4.6,0,6.8,0C329.4,320.2,330.4,320,331.3,319.8z"/>
		<path class="st1" d="M308,307c-2.4-1.4-4.7-2.7-7.1-4.1c1.3-2.1,2.4-4.3,3.8-6.3c1.3-1.8,4.1-1.9,5.6-0.2c0.8,0.8,1.3,1.9,1.9,2.9
			c0.1,0.1,0,0.4,0,0.6C310.8,302.2,309.4,304.6,308,307z"/>
		<path class="st1" d="M310.8,320c0,2.7,0,5.4,0,8.1c-0.8,0-1.5,0-2.3,0c-1.4,0-2.8,0-4.2,0c-3,0-4.8-2.6-3.7-5.4
			c0.3-0.8,0.8-1.6,1.3-2.4c0.1-0.1,0.3-0.3,0.5-0.3c2.6,0,5.1,0,7.7,0C310.4,319.9,310.6,319.9,310.8,320z"/>
	</g>
	<polygon class="st1" points="296.5,301.8 294.5,301.3 298.4,299.3 297.3,303.6 	"/>
	<polygon class="st1" points="333.6,315.5 335.6,315 333,318.6 332.1,314.3 	"/>
	<path class="st2" d="M318.3,302c0,0-0.5-0.9-0.4-1.5c0,0,0.1-0.9,0-1.1c0,0,1,0.1,1.5,1c0,0,0.5,0.7,0.3,1.6
		c-0.1,0.4-0.3,0.9-0.3,1s0,0.7,0.5,1.3c0,0-1.5-0.5-2.1-1.4c0,0-1-1-0.7-2.1c0,0,0.1-0.4,0.3-0.7c0,0,0.3-1-0.1-1.2l0.3-0.2
		c0,0,0.4,0.5,0.3,1.2c0,0-0.2,0.8,0,1.6c0,0,0.2,0.6,0.3,0.7l0.1,0.1L318.3,302z"/>
	<polygon class="st3" points="299.8,313.3 300,313.5 297.9,316.6 297.4,316.2 	"/>
	<polygon class="st3" points="300.4,313.3 300.1,313.4 301.3,315.8 301.3,315.8 	"/>
	<polygon class="st3" points="300.2,312.7 300.5,312.9 302,310.8 301.9,310.8 	"/>
	<polygon class="st3" points="299.8,313.2 299.8,312.9 297.2,312.8 297.2,312.8 	"/>
	
		<ellipse transform="matrix(0.6028 -0.7979 0.7979 0.6028 -130.6032 363.8351)" class="st3" cx="300.1" cy="313.1" rx="0.2" ry="0.2"/>
	<path class="st3" d="M321,323.7l0.1-0.2l0.3,0.7l-0.7,0.2l0.1-0.2c0,0-0.4-0.1-0.5,0.4c0,0,0,0.5,0.6,0.5c0,0,0.3,0,0.4-0.2
		c0,0-0.1,0.3-0.2,0.3c-0.2,0.1-0.6,0.2-1-0.2c0-0.1-0.4-0.4,0-1C320.2,323.9,320.5,323.6,321,323.7L321,323.7z"/>
	<path class="st3" d="M321.4,323.5c0,0,0.2,0.1,0.3,0.6c0,0,0.1,0,0.3-0.1c0,0,0.4-0.5,1,0c0.3,0.2,0.3,0.2,0.3,0.2s0.3,0.1,0.6-0.1
		c0,0,0.5-0.7,1.2-0.1c0,0,0.5,0.4,0.9,0c0,0,0.5-0.4,1.1,0v-0.7c0,0-0.4-0.5-1.1,0c0,0-0.4,0.4-1,0c0,0-0.4-0.4-0.9,0
		c0,0-0.3,0.4-1,0.1c0,0-0.4-0.5-1.1,0C321.9,323.3,321.9,323.5,321.4,323.5C321.5,323.4,321.4,323.5,321.4,323.5z"/>
	<path class="st3" d="M321.4,324.6c0,0,0.2,0.1,0.3,0.4c0,0,0.1,0,0.3-0.1c0,0,0.4-0.3,1,0c0.3,0.1,0.3,0.1,0.3,0.1s0.3,0.1,0.6-0.1
		c0,0,0.5-0.4,1.2,0c0,0,0.5,0.2,0.9,0c0,0,0.5-0.3,1.1,0v-0.4c0,0-0.4-0.3-1.1,0c0,0-0.4,0.3-1,0c0,0-0.4-0.2-0.9,0
		c0,0-0.3,0.3-1,0c0,0-0.4-0.3-1.1,0C321.9,324.5,321.8,324.6,321.4,324.6C321.5,324.6,321.4,324.6,321.4,324.6z"/>
	<path class="st3" d="M319.8,324.3c0,0-0.3-0.4,0.1-0.8c0,0,0.3-0.1,0.3,0.2c0,0,0,0.1-0.1,0.1C320,323.9,319.9,324,319.8,324.3
		C319.9,324.2,319.8,324.3,319.8,324.3z"/>
	<path class="st1" d="M311.5,308.9c-0.6,0.1-1.1,0.1-1.6-0.2c0.1-0.1,0.1-0.1,0.2-0.2c0.1,0,0.2,0.1,0.2,0.1
		c0.3,0.1,0.6,0.1,0.9,0.1c0.2,0,0.4-0.1,0.6-0.2c0,0.1,0,0.1-0.1,0.2"/>
	<path class="st1" d="M311.3,308.6L311.3,308.6c0.2,0,0.2-0.1,0.3-0.1c-0.1,0-0.1,0-0.1-0.1l0,0c0,0,0,0-0.1,0
		c-0.3-0.1-0.5-0.3-0.8-0.4s-0.6-0.2-1-0.3c-0.2,0-0.4,0-0.6,0c0,0.1,0.1,0.1,0.1,0.2c0.3-0.1,0.6,0,0.9,0.1
		C310.5,308.2,310.9,308.4,311.3,308.6C311.2,308.6,311.3,308.6,311.3,308.6z"/>
	<path class="st1" d="M312.6,319.7c-0.3,0-0.6-0.1-0.9-0.1c-1.1-0.3-2-0.8-2.7-1.7c-0.4-0.4-0.6-0.9-0.8-1.5
		c-0.1-0.6-0.1-1.3,0.1-1.9c0.1-0.7,0.4-1.4,0.7-2.1c0.3-0.7,0.7-1.4,1.2-2c0.3-0.4,0.7-0.9,1.1-1.2h0.1c0.1,0,0.1,0,0.2,0
		c0.9,0,1.9,0,2.8,0h0.1c0.5,0.5,0.9,1,1.2,1.5c0.4,0.6,0.8,1.2,1.1,1.8c0.4,0.9,0.7,1.8,0.8,2.8c0.1,0.8-0.1,1.5-0.5,2.1
		c-0.5,0.7-1.1,1.3-1.9,1.7c-0.6,0.3-1.3,0.5-2,0.6h-0.1C313,319.7,312.8,319.7,312.6,319.7z"/>
	<path class="st1" d="M312.7,305.8c0.3,0.1,0.6,0.1,0.8,0.2c0.4,0.1,0.8,0.3,1.1,0.4l0,0c-0.1,0.1-0.1,0.2-0.2,0.4
		c-0.2,0.4-0.3,0.8-0.4,1.2c0,0.1-0.1,0.1-0.1,0.1c-0.7,0-1.5,0-2.2,0c-0.1,0-0.1,0-0.2-0.1c-0.1-0.3-0.3-0.6-0.4-0.9
		c0,0,0-0.1-0.1-0.1c0.1,0,0.3,0.1,0.4,0.1c0.2,0,0.3,0,0.5,0c0.1,0,0.2-0.1,0.2-0.2s0-0.2-0.1-0.3c0-0.1-0.1-0.2-0.1-0.4
		c0-0.2,0-0.3,0.2-0.3h0.1C312.4,305.8,312.5,305.8,312.7,305.8z"/>
	<path class="st1" d="M312.9,308.8c-0.5,0-0.9,0-1.4,0h-0.1c-0.1,0-0.2-0.1-0.2-0.2s0.1-0.2,0.2-0.2h0.1c0.9,0,1.8,0,2.7,0h0.1
		c0.1,0,0.2,0.1,0.2,0.2s-0.1,0.2-0.2,0.2h-0.1C313.8,308.8,313.3,308.8,312.9,308.8z"/>
	<g>
		<path class="st3" d="M310.3,313.9v-0.2c0.2-0.1,0.4-0.4,0.4-0.6c0-0.1,0-0.2,0-0.2h-0.4v-0.2h0.3c0-0.1,0-0.2,0-0.4
			c0-0.4,0.3-0.7,0.7-0.7c0.2,0,0.3,0,0.4,0.1l-0.1,0.2c-0.1,0-0.2-0.1-0.3-0.1c-0.3,0-0.4,0.2-0.4,0.4c0,0.2,0,0.3,0,0.4h0.5v0.2
			H311c0,0.1,0,0.3,0,0.4c0,0.2-0.1,0.3-0.2,0.4l0,0h1v0.3L310.3,313.9L310.3,313.9z"/>
	</g>
	<g>
		<path class="st3" d="M311.1,317.4V317c-0.2,0-0.4-0.1-0.6-0.2l0.1-0.2c0.1,0.1,0.3,0.2,0.5,0.2c0.3,0,0.4-0.2,0.4-0.4
			c0-0.2-0.1-0.3-0.4-0.4c-0.4-0.1-0.6-0.3-0.6-0.6c0-0.3,0.2-0.5,0.6-0.6v-0.4h0.2v0.4c0.2,0,0.4,0.1,0.5,0.1l-0.1,0.2
			c-0.1,0-0.2-0.1-0.5-0.1s-0.4,0.2-0.4,0.3c0,0.2,0.1,0.3,0.5,0.4c0.4,0.2,0.6,0.3,0.6,0.7c0,0.3-0.2,0.6-0.6,0.6v0.4H311.1z"/>
	</g>
	<g>
		<path class="st3" d="M314.1,317.9c-0.1,0.1-0.3,0.1-0.5,0.1c-0.3,0-0.5-0.1-0.7-0.3c-0.1-0.1-0.2-0.3-0.2-0.6h-0.2V317h0.2
			c0,0,0,0,0-0.1s0-0.1,0-0.2h-0.2v-0.2h0.2c0-0.2,0.1-0.4,0.3-0.6c0.2-0.2,0.4-0.3,0.6-0.3s0.3,0.1,0.4,0.1l-0.1,0.2
			c-0.1-0.1-0.2-0.1-0.4-0.1c-0.2,0-0.3,0.1-0.4,0.2s-0.2,0.2-0.2,0.4h0.9v0.2h-0.9v0.1c0,0,0,0,0,0.1h0.9v0.2H313
			c0,0.2,0.1,0.3,0.2,0.4s0.3,0.2,0.5,0.2s0.3-0.1,0.4-0.1V317.9z"/>
	</g>
	<g>
		<path class="st3" d="M312.7,313.3v-0.6h-0.6v-0.2h0.6v-0.3h-0.6V312h0.5l-0.6-1h0.3l0.4,0.7c0.1,0.1,0.1,0.2,0.1,0.3l0,0
			c0-0.1,0.1-0.2,0.1-0.3l0.4-0.7h0.3l-0.7,1.1h0.5v0.2H313v0.3h0.6v0.2H313v0.6h-0.3V313.3z"/>
	</g>
	<g>
		<path class="st3" d="M313.4,315.6c-0.1,0-0.2,0.1-0.4,0.1c-0.5,0-0.8-0.3-0.8-0.9c0-0.5,0.4-0.9,0.9-0.9c0.2,0,0.3,0,0.4,0.1
			l-0.1,0.2c-0.1,0-0.2-0.1-0.3-0.1c-0.4,0-0.7,0.3-0.7,0.7c0,0.4,0.2,0.7,0.7,0.7c0.1,0,0.3,0,0.4-0.1L313.4,315.6z"/>
		<path class="st3" d="M313.9,313.9v0.7h0.8v-0.7h0.2v1.7h-0.2v-0.8h-0.8v0.8h-0.2v-1.7H313.9z"/>
		<path class="st3" d="M315.3,313.9h0.9v0.2h-0.7v0.6h0.6v0.2h-0.6v0.8h-0.2L315.3,313.9L315.3,313.9z"/>
	</g>
</g>
</svg>
