<?xml version="1.0" encoding="UTF-8" standalone="no"?>
<!DOCTYPE svg PUBLIC "-//W3C//DTD SVG 1.1//EN" "http://www.w3.org/Graphics/SVG/1.1/DTD/svg11.dtd">
<svg viewBox="0 0 1280 720" height="720.0pt" width="1280.0pt" xmlns="http://www.w3.org/2000/svg" version="1.1">
<path d="M 0.00 0.00 L 1280.00 0.00 L 1280.00 720.00 L 0.00 720.00 L 0.00 0.00 Z" fill="#ffffff" />
<path d="M 904.39 160.47 C 914.88 159.41 925.45 160.75 935.09 165.10 C 948.85 171.57 959.90 183.63 965.05 197.94 C 968.40 207.81 969.31 218.80 966.91 228.99 C 962.58 251.02 943.42 269.68 921.18 273.10 C 909.97 274.85 898.48 273.68 888.15 268.85 C 866.07 259.20 852.51 234.91 855.13 211.06 C 856.48 197.10 863.38 184.10 873.69 174.68 C 882.04 167.00 893.15 161.89 904.39 160.47 Z" fill="#71ac48" />
<path d="M 902.36 165.39 C 912.04 163.37 922.31 165.10 931.45 168.59 C 941.18 172.54 949.54 179.99 955.38 188.64 C 961.57 198.07 964.30 209.84 963.55 221.03 C 962.39 234.20 956.62 246.82 946.63 255.61 C 940.62 261.24 933.48 265.43 925.52 267.59 C 913.91 271.06 901.20 269.66 890.20 264.82 C 877.02 258.92 866.88 247.43 862.15 233.85 C 855.75 216.00 860.26 195.04 873.35 181.35 C 880.87 173.04 891.41 167.52 902.36 165.39 Z" fill="#ffffff" />
<path d="M 913.51 169.21 C 913.74 172.31 913.66 175.41 913.50 178.51 C 912.20 178.51 910.90 178.52 909.60 178.53 C 909.49 175.65 909.33 172.77 909.22 169.90 C 910.64 169.60 912.08 169.39 913.51 169.21 Z" fill="#71ac48" />
<path d="M 889.55 175.69 C 892.54 177.59 893.21 180.56 893.43 183.86 C 892.07 183.79 890.70 183.72 889.34 183.65 C 888.36 181.36 887.27 179.13 886.24 176.87 C 887.55 176.03 887.91 174.48 889.55 175.69 Z" fill="#71ac48" />
<path d="M 937.04 175.76 C 936.46 177.81 935.83 179.98 934.82 181.86 C 934.17 183.61 931.65 183.69 930.10 184.35 C 930.43 181.34 930.21 178.66 932.38 176.27 C 933.74 174.90 935.37 175.60 937.04 175.76 Z" fill="#71ac48" />
<path d="M 522.99 188.36 C 530.35 188.48 537.70 188.33 545.06 188.42 C 547.27 188.56 550.00 188.51 551.21 190.76 C 552.12 192.94 552.11 195.62 552.19 197.96 C 552.09 227.30 552.15 256.65 552.18 286.00 C 552.10 290.35 552.57 295.20 551.33 299.40 C 550.15 301.95 546.37 301.43 544.07 301.61 C 534.57 301.41 524.93 301.96 515.46 301.31 C 511.71 300.73 511.50 298.23 511.40 294.99 C 511.41 267.01 511.34 238.98 511.45 211.00 C 511.54 205.09 511.17 199.13 511.56 193.24 C 511.87 191.68 511.89 189.42 513.83 189.06 C 516.68 188.14 520.02 188.43 522.99 188.36 Z" fill="#71ac48" />
<path d="M 430.98 188.51 C 436.64 188.20 442.33 188.51 448.00 188.42 C 452.64 188.47 457.38 188.15 461.99 188.71 C 463.76 188.87 465.17 190.64 465.38 192.33 C 465.76 195.85 465.51 199.47 465.54 203.01 C 465.83 232.34 465.55 261.69 465.70 291.03 C 465.67 293.47 465.77 296.02 465.30 298.43 C 464.77 300.36 463.00 301.35 461.07 301.43 C 453.41 301.90 445.68 301.43 438.01 301.64 C 433.68 301.80 429.83 301.43 425.62 300.44 C 424.97 294.94 424.67 289.54 424.82 284.00 C 424.81 257.34 424.85 230.67 424.78 204.01 C 424.83 200.16 424.44 196.06 425.26 192.30 C 425.93 189.74 428.55 188.64 430.98 188.51 Z" fill="#71ac48" />
<path d="M 568.93 191.93 C 576.29 191.82 583.66 191.98 591.03 191.87 C 593.68 192.05 598.55 191.47 600.46 193.64 C 602.35 197.44 601.29 202.82 601.58 207.00 C 601.82 236.03 601.61 265.06 601.67 294.09 C 601.60 296.18 601.51 300.36 598.67 300.51 C 593.30 301.59 587.48 301.05 582.00 301.16 C 576.70 301.05 571.32 301.47 566.04 300.96 C 564.15 300.69 561.63 299.98 561.36 297.73 C 560.30 292.68 560.93 287.15 560.83 282.00 C 560.76 255.32 560.84 228.65 560.77 201.97 C 560.88 199.37 560.82 196.29 561.95 193.90 C 563.48 191.94 566.68 192.12 568.93 191.93 Z" fill="#71ac48" />
<path d="M 663.01 191.99 C 669.34 192.26 675.71 191.58 682.02 192.05 C 683.77 192.28 685.91 192.36 687.01 193.98 C 688.16 195.93 688.04 198.74 688.15 200.94 C 688.07 229.29 688.11 257.65 688.12 286.00 C 688.05 290.32 688.47 295.10 687.28 299.29 C 684.12 301.70 678.77 301.08 674.99 301.19 C 665.49 300.87 657.06 302.02 647.86 299.99 C 647.01 292.30 647.45 284.71 647.38 277.00 C 647.35 250.96 647.35 224.95 647.42 198.91 C 647.57 196.40 647.65 193.27 650.58 192.47 C 654.56 191.57 658.94 191.96 663.01 191.99 Z" fill="#71ac48" />
<path d="M 871.05 192.18 C 875.52 191.96 877.37 194.63 879.35 198.13 C 875.57 198.92 873.10 198.62 870.67 195.40 C 870.63 194.60 869.27 191.42 871.05 192.18 Z" fill="#71ac48" />
<path d="M 947.54 193.69 C 949.43 192.90 950.70 194.00 952.44 194.61 C 944.18 203.31 932.73 209.10 923.13 216.19 C 920.16 218.54 918.96 222.85 915.89 224.89 C 912.01 226.97 906.47 225.88 903.98 222.12 C 901.49 218.62 901.98 213.16 905.45 210.46 C 908.00 208.20 910.78 208.43 913.95 207.99 C 919.64 207.60 925.22 203.74 930.40 201.41 C 936.10 198.84 941.71 195.93 947.54 193.69 Z" fill="#71ac48" />
<path d="M 449.00 206.45 C 453.07 206.26 456.71 206.54 460.64 207.60 C 460.41 208.65 460.17 209.70 459.93 210.75 C 450.03 210.83 440.09 211.05 430.20 210.55 C 430.32 209.45 430.46 208.36 430.60 207.27 C 436.41 205.78 443.00 206.71 449.00 206.45 Z" fill="#ffffff" />
<path d="M 529.01 206.47 C 535.57 206.66 541.38 205.54 547.64 208.12 C 546.45 209.15 545.60 210.64 543.90 210.70 C 539.63 211.08 535.29 210.76 531.00 210.83 C 525.50 210.68 520.72 211.78 515.63 209.04 C 519.75 205.35 523.96 206.73 529.01 206.47 Z" fill="#ffffff" />
<path d="M 472.15 209.11 C 478.65 208.18 485.43 208.97 492.00 208.72 C 496.82 208.88 502.65 207.98 507.17 209.85 C 510.41 213.49 508.74 220.53 508.82 225.01 C 508.77 229.01 509.32 232.99 509.20 237.00 C 508.53 249.64 508.55 262.36 509.20 275.00 C 509.25 279.67 508.65 284.32 508.76 289.00 C 508.67 292.34 509.07 296.00 508.21 299.24 C 506.59 301.78 503.71 301.48 501.08 301.62 C 492.37 301.57 483.66 301.61 474.95 301.59 C 472.99 301.46 469.54 301.60 468.77 299.29 C 467.90 295.68 468.26 291.69 468.21 288.00 C 468.35 263.67 468.23 239.30 468.26 214.97 C 468.23 212.09 468.95 209.64 472.15 209.11 Z" fill="#71ac48" />
<path d="M 578.00 209.39 C 584.65 209.64 590.54 208.56 596.97 210.65 C 596.46 211.61 595.94 212.57 595.42 213.53 C 588.26 213.74 581.10 213.71 573.94 213.73 C 571.09 213.74 568.31 213.41 565.52 212.84 C 566.27 211.83 567.01 210.76 567.88 209.85 C 571.08 209.03 574.71 209.49 578.00 209.39 Z" fill="#ffffff" />
<path d="M 659.92 209.36 C 667.47 209.45 674.99 209.23 682.52 209.65 C 682.56 210.91 682.59 212.17 682.62 213.43 C 674.08 213.86 665.49 213.72 656.95 213.68 C 654.55 213.80 653.38 212.33 651.65 210.99 C 654.35 210.04 657.02 209.27 659.92 209.36 Z" fill="#ffffff" />
<path d="M 611.92 211.55 C 619.97 211.56 628.02 211.59 636.07 211.51 C 639.04 211.60 641.96 211.31 644.05 213.84 C 645.22 216.61 645.23 220.02 645.29 222.99 C 645.20 232.00 645.45 241.00 644.81 250.00 C 644.74 260.99 644.66 272.01 644.84 283.00 C 645.06 287.70 645.82 293.05 644.57 297.64 C 644.22 299.11 643.16 300.30 641.62 300.52 C 636.84 301.23 631.84 300.72 627.00 300.87 C 620.63 300.87 613.74 301.81 607.47 300.56 C 604.28 300.02 604.34 296.58 604.23 294.05 C 604.30 269.01 604.31 243.97 604.21 218.94 C 604.37 216.79 604.05 214.43 605.88 212.92 C 607.59 211.41 609.79 211.66 611.92 211.55 Z" fill="#71ac48" />
<path d="M 911.13 212.42 C 914.14 212.52 915.86 213.91 915.83 217.06 C 916.56 221.05 911.23 222.77 908.54 220.52 C 906.06 217.79 907.14 213.00 911.13 212.42 Z" fill="#ffffff" />
<path d="M 863.79 214.68 C 866.78 214.83 869.76 214.97 872.75 215.10 C 872.74 216.37 872.72 217.64 872.71 218.91 C 869.69 219.10 866.66 219.26 863.64 219.45 C 863.69 217.86 863.74 216.27 863.79 214.68 Z" fill="#71ac48" />
<path d="M 958.76 215.09 C 958.77 216.41 958.78 217.74 958.79 219.06 C 954.66 219.44 951.99 219.79 948.55 216.99 C 951.98 214.18 954.66 214.64 958.76 215.09 Z" fill="#71ac48" />
<path d="M 498.04 226.85 C 500.73 227.22 504.88 226.91 503.29 231.01 C 499.66 231.68 495.69 231.41 492.00 231.42 C 485.80 231.33 479.51 231.61 473.34 231.13 C 473.55 229.87 473.91 228.67 474.40 227.53 C 482.07 226.07 490.26 226.79 498.04 226.85 Z" fill="#ffffff" />
<path d="M 615.94 229.11 C 624.04 229.24 631.89 228.79 639.89 229.74 C 639.76 230.76 639.63 231.78 639.50 232.80 C 631.78 233.83 623.77 233.35 615.93 233.45 C 612.97 233.63 610.87 232.43 608.45 230.91 C 610.90 229.89 613.24 229.00 615.94 229.11 Z" fill="#ffffff" />
<path d="M 877.98 235.06 C 878.17 236.05 878.33 237.04 878.43 238.04 C 876.87 241.37 872.95 241.53 869.78 241.88 C 870.35 240.47 870.88 238.92 871.72 237.64 C 873.20 235.79 875.82 235.50 877.98 235.06 Z" fill="#71ac48" />
<path d="M 952.76 238.14 C 952.71 239.48 952.65 240.82 952.59 242.16 C 949.81 241.50 947.20 240.89 944.84 239.17 C 944.49 237.98 944.37 236.68 944.24 235.45 C 947.57 235.21 949.99 236.54 952.76 238.14 Z" fill="#71ac48" />
<path d="M 459.57 272.46 C 459.99 273.70 460.41 274.94 460.82 276.18 C 450.73 277.13 440.44 276.72 430.31 276.45 C 430.40 275.16 430.49 273.86 430.62 272.57 C 440.20 271.86 449.97 272.13 459.57 272.46 Z" fill="#ffffff" />
<path d="M 532.00 272.19 C 536.86 272.17 541.70 272.16 546.55 272.56 C 546.54 273.85 546.53 275.15 546.52 276.45 C 537.01 276.99 527.19 276.59 517.65 276.60 C 517.18 275.56 516.70 274.52 516.22 273.48 C 521.50 271.51 526.52 272.27 532.00 272.19 Z" fill="#ffffff" />
<path d="M 577.01 272.54 C 583.79 272.62 590.37 272.08 597.05 273.68 C 596.52 274.69 595.98 275.69 595.45 276.69 C 589.60 276.79 583.83 276.70 578.01 277.08 C 574.86 277.20 571.43 277.45 568.34 276.71 C 566.75 276.30 566.34 275.65 565.99 274.10 C 569.55 272.16 573.09 272.64 577.01 272.54 Z" fill="#ffffff" />
<path d="M 653.51 273.39 C 656.29 272.53 659.11 272.57 661.99 272.55 C 668.86 272.66 675.59 272.20 682.42 273.25 C 682.59 274.28 682.76 275.31 682.93 276.34 C 673.30 277.70 662.87 277.57 653.20 276.58 C 653.26 275.51 653.36 274.44 653.51 273.39 Z" fill="#ffffff" />
<path d="M 451.02 281.26 C 453.46 281.29 456.05 281.16 458.45 281.68 C 459.68 282.18 460.45 283.81 461.32 284.78 C 455.15 286.24 449.26 285.69 443.01 285.74 C 438.89 285.74 434.78 285.64 430.67 285.47 C 430.53 284.30 430.39 283.12 430.25 281.94 C 437.23 280.92 444.00 281.42 451.02 281.26 Z" fill="#ffffff" />
<path d="M 520.96 281.31 C 527.99 281.19 535.04 281.34 542.07 281.30 C 544.59 281.09 545.83 282.57 547.67 283.96 C 542.47 286.68 537.61 285.53 532.00 285.73 C 526.14 285.58 521.02 286.70 515.54 284.00 C 517.34 282.73 518.59 281.25 520.96 281.31 Z" fill="#ffffff" />
<path d="M 596.42 281.72 C 596.47 282.95 596.52 284.18 596.57 285.41 C 586.61 285.83 576.58 285.77 566.62 285.49 C 566.49 284.33 566.36 283.16 566.23 282.00 C 576.20 280.94 586.42 281.36 596.42 281.72 Z" fill="#ffffff" />
<path d="M 660.95 281.35 C 668.15 281.47 675.31 281.26 682.49 281.66 C 682.52 282.90 682.55 284.15 682.57 285.40 C 672.95 285.97 663.26 285.61 653.62 285.60 C 653.11 284.63 652.60 283.67 652.08 282.70 C 655.00 281.87 657.89 281.23 660.95 281.35 Z" fill="#ffffff" />
<path d="M 499.93 283.56 C 502.49 283.47 503.06 285.21 504.48 286.93 C 501.37 287.66 498.23 288.12 495.03 288.14 C 487.76 288.13 480.55 288.30 473.32 287.50 C 473.44 286.24 473.55 284.98 473.70 283.73 C 482.36 283.33 491.26 283.41 499.93 283.56 Z" fill="#ffffff" />
<path d="M 610.27 284.40 C 614.87 283.03 620.22 283.73 625.00 283.58 C 630.73 283.83 635.58 282.44 640.62 285.99 C 638.48 287.06 636.50 288.08 634.05 288.05 C 625.93 288.14 617.75 288.32 609.65 287.64 C 609.78 286.54 609.98 285.46 610.27 284.40 Z" fill="#ffffff" />
<path d="M 413.98 307.01 C 418.29 306.58 422.68 306.86 427.00 306.81 C 513.67 306.82 600.33 306.82 687.00 306.82 C 694.93 306.86 702.83 306.58 710.75 307.22 C 710.81 308.07 710.87 308.93 710.94 309.79 C 689.96 310.03 668.96 309.54 648.00 310.16 C 634.65 309.80 621.35 309.72 608.00 309.95 C 600.99 310.35 594.01 310.03 587.00 309.85 C 533.67 309.84 480.33 309.85 427.00 309.85 C 421.01 309.82 415.44 310.21 409.53 309.21 C 410.98 308.21 412.12 307.10 413.98 307.01 Z" fill="#71ac48" />
<path d="M 790.58 347.98 C 796.89 346.67 804.93 346.78 810.37 350.72 C 815.40 354.20 819.41 358.93 820.71 365.05 C 822.68 372.43 820.82 380.21 816.17 386.18 C 809.92 394.25 798.89 396.49 789.43 393.56 C 782.86 391.16 777.24 385.48 775.10 378.79 C 772.84 372.51 773.65 365.54 776.59 359.63 C 779.38 354.06 784.67 349.81 790.58 347.98 Z" fill="#71ac48" />
<path d="M 935.00 348.34 C 938.01 348.53 942.25 350.55 944.31 352.79 C 946.26 355.15 944.32 358.07 943.52 360.51 C 939.43 369.38 935.65 378.39 931.41 387.19 C 930.31 389.63 929.01 392.27 928.65 394.95 C 928.40 398.94 929.18 403.03 929.41 407.02 C 930.81 422.32 931.81 437.65 933.27 452.95 C 933.76 460.21 934.19 467.46 935.22 474.67 C 939.99 474.68 944.72 474.89 949.48 475.28 C 949.44 480.43 949.44 485.58 949.47 490.74 C 943.98 491.22 938.51 491.29 933.00 491.19 C 901.18 491.15 869.35 491.30 837.52 491.14 C 837.50 488.21 837.44 485.28 837.37 482.34 C 830.95 482.93 824.49 484.75 818.06 484.61 C 814.94 484.77 812.53 481.43 810.77 479.26 C 806.00 472.54 801.65 465.53 796.69 458.92 C 795.34 474.83 794.90 490.81 793.57 506.72 C 785.36 507.54 777.23 507.09 769.00 507.20 C 759.92 507.12 750.78 507.47 741.73 506.91 C 741.93 495.71 743.26 484.48 744.59 473.37 C 746.68 456.94 749.31 441.17 755.63 425.76 C 758.24 419.68 760.52 413.84 764.72 408.66 C 766.75 406.22 768.80 403.95 772.11 403.46 C 777.81 402.65 783.85 402.40 789.52 403.53 C 793.39 404.28 795.90 407.86 797.92 410.96 C 808.14 427.84 816.83 445.66 826.90 462.62 C 839.62 461.92 852.31 460.87 865.02 459.94 C 868.07 459.82 871.94 459.48 874.48 461.53 C 877.42 463.57 878.90 466.27 882.91 466.14 C 894.79 466.12 906.76 466.59 918.61 465.63 C 918.78 448.93 920.05 432.08 919.38 415.39 C 912.50 428.49 907.64 442.63 901.11 455.92 C 900.28 457.35 899.43 458.79 897.97 459.67 C 892.47 458.91 887.14 455.79 882.06 453.62 C 882.26 449.93 882.97 446.78 884.84 443.56 C 893.58 427.91 901.11 411.66 909.45 395.75 C 916.01 382.29 923.03 369.05 929.61 355.59 C 930.95 353.00 932.43 349.88 935.00 348.34 Z" fill="#71ac48" />
<path d="M 525.42 370.69 C 534.15 368.70 543.53 370.62 550.06 376.94 C 559.31 385.10 561.39 399.62 555.09 410.15 C 551.15 416.32 544.95 421.21 537.65 422.61 C 530.44 424.21 522.69 422.76 516.73 418.35 C 509.65 413.25 505.29 404.73 505.46 395.99 C 505.63 384.43 514.07 373.34 525.42 370.69 Z" fill="#71ac48" />
<path d="M 685.00 371.39 C 688.70 371.54 692.59 373.35 695.47 375.63 C 697.64 377.73 696.48 381.20 695.51 383.60 C 690.73 394.65 685.42 405.49 680.56 416.52 C 678.71 420.34 677.86 423.71 678.39 427.98 C 680.92 456.12 682.99 484.31 685.46 512.46 C 690.75 512.43 696.03 512.50 701.32 512.52 C 701.33 517.95 701.82 523.53 701.19 528.92 C 699.84 530.73 698.04 530.25 696.05 530.46 C 656.28 530.32 616.44 530.50 576.67 530.36 C 576.61 527.27 576.57 524.18 576.49 521.09 C 569.54 521.26 562.83 523.12 555.94 523.52 C 551.89 523.90 550.07 520.88 547.73 518.19 C 541.81 510.44 536.59 502.13 530.94 494.18 C 529.86 512.24 528.67 530.28 527.65 548.35 C 508.28 548.32 488.90 548.35 469.53 548.39 C 471.42 520.63 473.85 490.65 482.74 464.17 C 485.65 455.46 489.42 446.35 495.05 439.03 C 497.47 436.07 500.91 432.44 505.00 432.36 C 509.95 432.14 515.02 432.17 519.98 432.33 C 523.12 432.42 526.02 433.53 528.25 435.78 C 532.22 439.70 534.86 445.45 537.66 450.27 C 543.15 459.80 548.23 469.54 553.64 479.11 C 557.34 485.69 560.55 492.48 564.82 498.72 C 578.56 498.26 592.25 496.74 605.95 495.81 C 609.36 495.65 613.17 495.53 616.45 496.58 C 619.14 497.64 621.15 500.58 623.54 502.19 C 624.94 502.56 626.47 502.53 627.90 502.57 C 640.89 502.51 653.88 502.52 666.87 502.52 C 668.08 491.09 667.14 479.46 667.91 467.97 C 668.50 460.01 668.17 452.09 668.54 444.11 C 662.74 457.13 656.88 470.11 651.20 483.18 C 649.45 487.46 647.53 491.63 645.46 495.77 C 639.21 495.18 633.09 492.21 627.69 489.15 C 625.80 488.31 626.11 486.12 626.48 484.45 C 627.74 480.73 629.94 477.29 631.69 473.78 C 637.85 462.21 643.18 450.24 649.51 438.76 C 656.07 425.79 662.71 412.84 668.94 399.70 C 672.60 392.76 676.37 385.88 679.79 378.80 C 681.10 376.30 682.51 372.91 685.00 371.39 Z" fill="#71ac48" /></svg>