<?xml version="1.0" encoding="UTF-8" standalone="no"?>
<!DOCTYPE svg PUBLIC "-//W3C//DTD SVG 1.1//EN" "http://www.w3.org/Graphics/SVG/1.1/DTD/svg11.dtd">
<svg viewBox="0 0 218 194" xmlns:xlink="http://www.w3.org/1999/xlink" height="194.0pt" width="218.0pt" xmlns="http://www.w3.org/2000/svg" version="1.1"><defs>
<path d="M 0.00 0.00 L 218.00 0.00 L 218.00 194.00 L 0.00 194.00 L 0.00 0.00 Z" id="p0" />
<path d="M 131.64 40.36 C 134.38 42.50 135.59 46.57 135.79 49.91 C 134.83 54.39 131.70 56.92 128.11 59.38 C 128.05 60.26 127.98 61.13 127.92 62.01 C 132.19 62.11 136.53 61.82 140.77 62.30 C 143.38 62.62 145.57 63.93 146.52 66.47 C 148.63 72.26 151.23 77.38 151.19 83.69 C 149.59 84.25 148.00 84.81 146.40 85.36 C 145.82 87.87 146.15 90.23 143.86 91.89 C 141.68 93.62 138.87 95.84 136.01 96.04 C 132.98 96.70 130.83 91.29 133.46 89.52 C 136.81 86.81 140.72 84.79 144.21 82.24 C 143.23 79.54 142.33 76.82 141.60 74.04 C 140.03 74.01 138.46 73.98 136.89 73.96 C 137.68 76.26 138.50 78.55 139.31 80.84 C 135.79 83.29 130.16 85.47 128.69 89.76 C 127.40 92.22 129.04 95.49 129.70 97.98 C 127.21 97.97 124.72 97.98 122.22 98.01 C 123.30 94.55 124.92 90.84 122.45 87.54 C 119.81 84.74 115.99 82.98 112.84 80.78 C 113.56 78.53 114.33 76.29 115.07 74.05 C 113.49 74.05 111.91 74.04 110.32 74.04 C 109.64 76.86 108.54 79.68 108.23 82.56 C 112.51 85.63 117.10 87.88 120.69 91.87 C 119.66 93.20 118.66 94.61 117.48 95.82 C 114.56 96.84 111.13 93.78 108.90 92.17 C 106.68 90.69 107.18 88.42 106.61 86.07 C 104.21 86.01 101.81 85.92 99.41 85.83 C 99.52 80.47 102.22 75.07 103.84 69.91 C 105.05 67.02 105.48 63.80 108.91 62.79 C 113.95 61.34 119.63 62.37 124.85 61.62 C 121.95 57.89 117.07 56.81 115.34 52.65 C 114.62 51.03 113.81 49.00 114.11 47.21 C 115.35 43.39 117.82 40.05 121.71 38.65 C 125.07 37.25 128.72 38.55 131.64 40.36 Z" id="p1" />
<path d="M 162.76 97.24 C 167.95 99.95 169.26 107.08 165.68 111.66 C 162.97 115.37 158.57 115.69 154.43 114.57 C 151.58 113.35 149.03 111.32 146.42 109.65 C 145.94 112.71 146.35 116.68 143.93 118.94 C 141.56 121.39 138.16 120.95 135.04 121.06 C 123.61 120.90 112.19 121.14 100.76 120.90 C 101.15 118.96 100.36 115.33 102.38 114.27 C 108.72 113.33 115.32 114.61 121.71 113.65 C 126.27 112.92 130.77 111.77 135.30 110.86 C 135.15 109.54 135.00 108.22 134.84 106.91 C 130.51 107.87 126.13 109.03 121.75 109.70 C 115.59 110.59 109.17 109.53 103.08 110.13 C 100.54 110.42 98.13 111.78 97.36 114.34 C 96.85 116.49 96.87 118.81 96.75 121.01 C 82.86 120.91 68.93 121.15 55.05 120.93 C 50.68 121.00 49.74 115.16 52.68 112.70 C 57.99 111.03 63.60 109.99 69.12 109.27 C 79.83 107.61 90.53 105.90 101.26 104.30 C 106.11 103.73 111.11 104.05 116.00 104.00 C 123.36 104.09 130.72 103.89 138.07 104.00 C 142.10 103.81 143.70 107.04 147.44 108.15 C 147.94 106.33 148.28 104.49 148.84 102.70 C 150.26 97.13 157.92 94.28 162.76 97.24 Z" id="p2" />
<path d="M 152.29 119.30 C 157.09 118.48 162.25 118.93 167.04 119.72 C 167.00 124.43 166.97 129.13 166.81 133.83 C 156.55 134.25 146.27 133.98 136.00 134.05 C 107.34 133.97 78.68 134.23 50.02 133.92 C 50.04 130.89 50.06 127.86 50.10 124.83 C 54.06 125.39 57.94 126.11 61.97 126.03 C 84.66 125.99 107.34 125.96 130.03 126.03 C 134.34 126.08 138.57 125.51 142.80 124.75 C 146.23 123.97 149.07 120.64 152.29 119.30 Z" id="p3" /></defs><g stroke-width="10pt">
<use stroke="#548d56" xlink:href="#p0" />
<use stroke="#fefefe" xlink:href="#p1" />
<use stroke="#fefefe" xlink:href="#p2" />
<use stroke="#fefefe" xlink:href="#p3" /></g>
<g>
<use xlink:href="#p0" fill="#548d56" />
<use xlink:href="#p1" fill="#fefefe" />
<use xlink:href="#p2" fill="#fefefe" />
<use xlink:href="#p3" fill="#fefefe" /></g></svg>