<?xml version="1.0" encoding="utf-8"?>
<!-- Generator: Adobe Illustrator 16.0.0, SVG Export Plug-In . SVG Version: 6.00 Build 0)  -->
<!DOCTYPE svg PUBLIC "-//W3C//DTD SVG 1.1//EN" "http://www.w3.org/Graphics/SVG/1.1/DTD/svg11.dtd">
<svg version="1.1" id="Calque_1" xmlns="http://www.w3.org/2000/svg" xmlns:xlink="http://www.w3.org/1999/xlink" x="0px" y="0px"
	 width="87.9px" height="71.7px" viewBox="0 0 87.9 71.7" style="enable-background:new 0 0 87.9 71.7;" xml:space="preserve">
<style type="text/css">
<![CDATA[
	.st0{fill:#6E8934;}
]]>
</style>
<g>
	<path class="st0" d="M84.7,52.3c-0.1,0-0.2,0-0.3,0V29.5c0,0,0.9-0.8-5.9-7.6c-6.8-6.9-7.2-8.6-12.4-8.6s-7.6,0-7.6,0V3.4l0,0
		C58.4,1.5,56.8,0,55,0c0,0,0,0-0.1,0l0,0H3.5l0,0C1.7,0,0.2,1.4,0,3.2l0,0v51.9c0,1.9,1.5,3.5,3.4,3.5l0,0h3.2c0,0,0,0,0,0
		c0,7.2,5.8,13,13,13s13-5.8,13-13c0,0,0,0,0,0H52c0,0,0,0,0,0c0,7.2,5.8,13,13,13s13-5.8,13-13c0-0.2,0-0.5,0-0.7l0,0v0.7h6.5v0
		c0.1,0,0.2,0,0.3,0c1.7,0,3.2-1.4,3.2-3.2S86.5,52.3,84.7,52.3z M19.6,65.5c-3.7,0-6.7-3-6.7-6.7s3-6.7,6.7-6.7
		c3.7,0,6.7,3,6.7,6.7S23.3,65.5,19.6,65.5z M34.8,27C34.8,27,34.8,27,34.8,27l-0.3,14H21l-0.4-14c-3.5,0-6.3-2.8-6.3-6.3
		c0-3.5,2.8-6.3,6.3-6.3c0.5,0,1,0.1,1.5,0.2c1-2.2,3.2-3.8,5.7-3.8c2.5,0,4.7,1.5,5.7,3.7c0.4-0.1,0.8-0.1,1.3-0.1
		c3.5,0,6.3,2.8,6.3,6.3C41,24.2,38.3,27,34.8,27z M65.1,65.5c-3.7,0-6.7-3-6.7-6.7s3-6.7,6.7-6.7c3.7,0,6.7,3,6.7,6.7
		S68.9,65.5,65.1,65.5z M77.9,32.7H58.5V19.5h8.4l11,11.1V32.7z"/>
	<path class="st0" d="M24.2,27.4c0-0.1-0.1-0.3-0.3-0.3c-0.1,0-0.3,0.1-0.3,0.3V36h0c0,0.1,0.1,0.2,0.2,0.2c0.1,0,0.3-0.1,0.3-0.3
		c0,0,0,0,0,0L24.2,27.4C24.2,27.4,24.2,27.4,24.2,27.4z"/>
	<path class="st0" d="M31.9,27.4c0-0.1-0.1-0.3-0.3-0.3c-0.1,0-0.3,0.1-0.3,0.3V36h0c0,0.1,0.1,0.2,0.3,0.2c0.1,0,0.3-0.1,0.3-0.3
		c0,0,0,0,0,0L31.9,27.4C31.9,27.4,31.9,27.4,31.9,27.4z"/>
	<path class="st0" d="M28,27.4c0-0.1-0.1-0.3-0.3-0.3c-0.1,0-0.3,0.1-0.3,0.3V36h0c0,0.1,0.1,0.2,0.2,0.2c0.1,0,0.3-0.1,0.3-0.3
		c0,0,0,0,0,0L28,27.4C28,27.4,28,27.4,28,27.4z"/>
</g>
</svg>
