<?xml version="1.0" encoding="utf-8"?>
<!-- Generator: Adobe Illustrator 16.0.0, SVG Export Plug-In . SVG Version: 6.00 Build 0)  -->
<!DOCTYPE svg PUBLIC "-//W3C//DTD SVG 1.1//EN" "http://www.w3.org/Graphics/SVG/1.1/DTD/svg11.dtd">
<svg version="1.1" id="Calque_1" xmlns="http://www.w3.org/2000/svg" xmlns:xlink="http://www.w3.org/1999/xlink" x="0px" y="0px"
	 width="116.7px" height="111.2px" viewBox="0 0 116.7 111.2" style="enable-background:new 0 0 116.7 111.2;" xml:space="preserve"
	>
<style type="text/css">
<![CDATA[
	.st0{fill:none;stroke:#6E8934;stroke-width:0.5;stroke-linecap:round;stroke-linejoin:round;stroke-miterlimit:10;}
	.st1{fill:#6E8934;}
	.st2{fill:none;stroke:#6E8934;stroke-linecap:round;stroke-linejoin:round;stroke-miterlimit:10;}
]]>
</style>
<g>
	<g>
		<g>
			<path class="st1" d="M49.9,13.7h17.8c1,0,1.8-0.8,1.8-1.8c0-1-0.8-1.8-1.8-1.8H49.9c-1,0-1.8,0.8-1.8,1.8
				C48.1,12.9,48.9,13.7,49.9,13.7z"/>
			<path class="st1" d="M49.9,8.7h17.8c1,0,1.8-0.8,1.8-1.8S68.7,5,67.7,5H49.9c-1,0-1.8,0.8-1.8,1.8S48.9,8.7,49.9,8.7z"/>
			<path class="st1" d="M52.3,3.1c0-1.7,2.9-3.1,6.5-3.1s6.5,1.4,6.5,3.1H52.3z"/>
		</g>
		<path class="st1" d="M39,38.9c0,10.7,8.6,19.3,19.3,19.3c10.7,0,19.3-8.6,19.3-19.3c0-4.6-1.6-8.8-4.3-12.1h0
			c0,0-5.3-6.7-5.3-11.3h-9.7h-9.7c0,4.6-5.3,11.3-5.3,11.3l0,0C40.6,30.1,39,34.3,39,38.9z"/>
	</g>
	<g>
		<g>
			<path id="p2_2_" class="st1" d="M111.8,87.4c5.2,2.7,6.5,9.8,2.9,14.4c-2.7,3.7-7.1,4-11.3,2.9c-2.8-1.2-5.4-3.3-8-4.9
				c-0.5,3.1-0.1,7-2.5,9.3c-2.4,2.5-5.8,2-8.9,2.1c-11.4-0.2-22.9,0.1-34.3-0.2c0.4-1.9-0.4-5.6,1.6-6.6c6.3-0.9,12.9,0.3,19.3-0.6
				c4.6-0.7,9.1-1.9,13.6-2.8c-0.2-1.3-0.3-2.6-0.5-3.9c-4.3,1-8.7,2.1-13.1,2.8c-6.2,0.9-12.6-0.2-18.7,0.4
				c-2.5,0.3-4.9,1.6-5.7,4.2c-0.5,2.2-0.5,4.5-0.6,6.7c-13.9-0.1-27.8,0.1-41.7-0.1c-4.4,0.1-5.3-5.8-2.4-8.2
				c5.3-1.7,10.9-2.7,16.4-3.4c10.7-1.7,21.4-3.4,32.1-5c4.9-0.6,9.8-0.3,14.7-0.3c7.4,0.1,14.7-0.1,22.1,0c4-0.2,5.6,3,9.4,4.2
				c0.5-1.8,0.8-3.7,1.4-5.5C99.3,87.3,106.9,84.4,111.8,87.4z"/>
		</g>
		<path class="st0" d="M60.7,94.7"/>
		<path class="st0" d="M106,88.8"/>
		<path class="st0" d="M63.9,94.6"/>
		<path class="st0" d="M69.6,94.6"/>
		<path class="st0" d="M73.1,94.7"/>
		<path class="st0" d="M75.8,94.6"/>
		<path class="st0" d="M106.9,88.8"/>
		<path class="st0" d="M109.3,88.8"/>
		<path class="st0" d="M107.1,88.1"/>
	</g>
	<g>
		<line class="st2" x1="58.4" y1="61.8" x2="58.4" y2="80.2"/>
		<line class="st2" x1="50" y1="61.8" x2="37.1" y2="74.8"/>
		<line class="st2" x1="66.6" y1="61.8" x2="79.6" y2="74.8"/>
	</g>
</g>
</svg>
