<?xml version="1.0" encoding="UTF-8" standalone="no"?>
<!DOCTYPE svg PUBLIC "-//W3C//DTD SVG 1.1//EN" "http://www.w3.org/Graphics/SVG/1.1/DTD/svg11.dtd">
<svg viewBox="0 0 259 194" xmlns:xlink="http://www.w3.org/1999/xlink" height="194.0pt" width="259.0pt" xmlns="http://www.w3.org/2000/svg" version="1.1"><defs>
<path d="M 0.00 0.00 L 259.00 0.00 L 259.00 194.00 L 0.00 194.00 L 0.00 0.00 Z" id="p0" />
<path d="M 130.22 42.88 C 137.70 46.50 144.09 53.28 149.71 59.29 C 152.38 62.53 155.45 66.18 156.69 70.25 C 157.28 74.02 153.74 79.00 149.45 77.55 C 140.22 75.29 134.20 66.39 125.04 62.75 C 120.17 66.10 115.98 70.62 111.77 74.76 C 102.36 84.03 92.98 93.31 83.79 102.80 C 79.23 107.66 76.10 112.54 73.96 118.88 C 73.22 121.59 70.29 120.73 68.18 120.71 C 62.07 119.76 56.14 117.28 50.23 115.47 C 49.90 109.55 52.47 104.79 54.22 99.21 C 57.27 90.79 59.57 82.14 62.74 73.76 C 64.69 68.21 66.23 62.54 68.47 57.08 C 71.76 57.19 74.26 59.38 77.14 60.88 C 82.63 64.09 88.40 66.35 94.86 65.01 C 99.26 63.81 101.44 60.47 104.16 57.15 C 108.29 51.65 113.89 47.18 119.87 43.84 C 122.90 42.06 126.93 41.75 130.22 42.88 Z" id="p1" />
<path d="M 194.03 42.62 L 194.13 42.97 C 195.88 50.72 198.41 58.24 199.95 66.04 C 202.01 75.95 204.10 85.87 205.68 95.87 C 203.11 96.47 200.67 96.72 198.03 96.68 C 192.37 96.63 186.15 97.44 181.08 100.07 C 177.62 101.88 176.13 104.87 174.09 107.99 C 170.74 106.16 168.24 103.49 164.10 104.81 C 159.48 105.87 159.54 112.69 157.96 116.40 C 154.15 116.42 149.97 114.69 147.51 118.53 C 144.94 121.71 146.52 125.00 147.11 128.57 C 147.94 126.11 148.40 123.07 149.95 120.96 C 151.27 119.52 153.22 118.59 155.12 118.20 C 157.21 118.52 159.21 119.89 161.07 120.85 C 160.90 118.33 160.63 115.64 161.03 113.14 C 162.34 109.12 166.69 105.60 170.94 108.02 C 174.74 110.31 176.21 116.22 177.89 120.12 C 179.77 124.47 178.06 128.81 173.91 130.96 C 171.45 132.62 169.49 131.03 166.97 130.42 C 166.67 133.84 167.45 137.14 164.79 139.76 C 162.85 142.19 159.17 142.62 156.41 141.68 C 152.75 139.86 150.34 135.33 147.92 132.15 C 144.16 133.65 139.31 134.74 138.17 139.24 C 137.79 142.30 138.57 145.64 138.89 148.70 C 136.00 150.51 132.55 152.47 129.10 152.74 C 124.85 151.90 123.35 148.15 123.22 144.23 C 124.74 141.58 127.09 139.37 128.98 136.97 C 132.43 133.05 135.31 128.72 137.87 124.19 C 133.57 128.83 129.89 133.93 125.35 138.38 C 122.40 141.37 118.30 144.15 114.00 144.43 C 111.34 144.17 108.31 143.37 107.34 140.56 C 106.87 139.09 106.39 137.05 108.04 136.13 C 114.27 132.08 120.33 126.69 124.10 120.22 C 119.63 124.47 115.57 128.95 110.40 132.41 C 106.58 135.50 100.66 136.84 96.06 134.98 C 93.24 133.23 93.08 128.90 93.45 125.94 C 93.63 123.46 96.62 121.82 98.34 120.31 C 105.34 114.85 111.49 108.21 117.02 101.29 C 112.53 105.13 108.90 109.61 104.18 113.18 C 99.84 116.48 95.70 120.06 91.27 123.23 C 89.27 124.52 86.69 126.34 84.22 126.32 C 81.41 125.80 77.83 123.80 77.19 120.78 C 76.73 118.60 76.59 115.79 77.91 113.87 C 80.91 109.12 85.07 104.98 89.10 101.11 C 101.51 89.64 113.40 77.65 125.17 65.54 C 132.58 69.76 138.02 76.39 146.73 79.36 C 151.55 81.25 156.84 78.44 159.81 74.64 C 160.59 72.11 160.08 69.51 158.68 67.30 C 155.35 61.89 150.96 56.99 146.37 52.62 C 144.25 50.46 142.00 48.85 140.83 45.94 C 143.64 45.34 146.16 45.25 149.00 45.63 C 156.64 46.65 164.30 47.32 171.96 48.10 C 179.92 48.73 187.48 47.35 194.03 42.62 Z" id="p2" />
<path d="M 183.01 103.05 C 184.07 103.78 185.07 104.22 185.42 105.59 C 187.12 111.08 184.19 116.74 179.05 119.08 C 177.55 116.52 176.57 114.06 176.92 111.03 C 176.97 107.55 180.41 104.88 183.01 103.05 Z" id="p3" />
<path d="M 144.31 136.05 C 146.30 134.97 149.36 136.73 150.81 138.20 C 153.21 140.62 156.23 143.07 155.70 146.85 C 155.67 152.69 147.45 155.88 142.91 153.08 C 140.01 150.85 139.91 147.33 139.86 143.98 C 139.56 140.71 141.77 137.83 144.31 136.05 Z" id="p4" /></defs><g stroke-width="10pt">
<use stroke="#ffffff" xlink:href="#p0" />
<use stroke="#718d38" xlink:href="#p1" />
<use stroke="#718d38" xlink:href="#p2" />
<use stroke="#718d38" xlink:href="#p3" />
<use stroke="#718d38" xlink:href="#p4" /></g>
<g>
<use xlink:href="#p0" fill="#ffffff" />
<use xlink:href="#p1" fill="#718d38" />
<use xlink:href="#p2" fill="#718d38" />
<use xlink:href="#p3" fill="#718d38" />
<use xlink:href="#p4" fill="#718d38" /></g></svg>