<?xml version="1.0" encoding="UTF-8" standalone="no"?>
<!DOCTYPE svg PUBLIC "-//W3C//DTD SVG 1.1//EN" "http://www.w3.org/Graphics/SVG/1.1/DTD/svg11.dtd">
<svg viewBox="0 0 290 174" xmlns:xlink="http://www.w3.org/1999/xlink" height="174.0pt" width="290.0pt" xmlns="http://www.w3.org/2000/svg" version="1.1"><defs>
<path d="M 0.00 0.00 L 290.00 0.00 L 290.00 174.00 L 0.00 174.00 L 0.00 0.00 Z" id="p0" />
<path d="M 144.14 38.45 C 147.66 38.06 150.84 40.22 150.74 43.96 C 150.37 47.94 149.84 52.78 144.97 53.45 C 141.56 53.64 140.84 50.96 138.90 48.85 C 137.69 49.47 136.41 51.14 135.05 51.03 C 133.74 50.35 132.56 49.48 131.29 48.73 C 130.83 49.68 130.47 50.67 130.12 51.66 C 135.18 52.03 139.69 51.88 144.08 54.88 C 148.01 57.10 148.02 62.99 144.91 65.91 C 141.76 68.83 137.24 70.35 133.96 72.97 C 131.36 75.62 131.03 80.78 133.31 83.75 C 136.04 87.78 138.70 91.79 140.69 96.26 C 142.44 99.74 141.56 104.37 139.38 107.46 C 134.01 114.03 121.70 112.22 119.59 103.57 C 118.74 97.71 119.43 91.68 118.41 85.80 C 117.72 80.30 115.38 75.28 114.47 69.87 C 113.90 66.23 114.94 63.04 115.39 59.52 C 114.51 58.73 113.56 58.03 112.68 57.23 C 112.12 55.77 112.30 53.55 113.09 52.20 C 114.85 50.98 116.73 50.87 117.84 48.90 C 119.41 45.84 123.71 45.62 126.48 43.60 C 129.63 43.07 132.19 42.44 135.13 41.17 C 136.64 41.44 138.06 41.98 139.55 42.30 C 141.05 40.61 141.46 38.33 144.14 38.45 Z" id="p1" />
<path d="M 124.94 50.57 C 125.90 51.05 126.76 51.76 127.60 52.42 C 126.15 53.30 124.47 53.83 122.88 54.36 C 123.37 53.32 123.82 51.00 124.94 50.57 Z" id="p2" />
<path d="M 119.18 54.34 C 121.17 53.97 121.12 56.10 119.51 56.66 C 117.47 57.26 117.72 54.87 119.18 54.34 Z" id="p3" />
<path d="M 165.73 64.10 C 168.70 64.95 168.23 69.04 169.13 71.46 C 170.42 71.69 171.97 71.51 173.17 72.06 C 174.02 72.86 174.59 73.98 175.04 75.04 C 174.16 77.91 172.00 79.41 169.13 79.95 C 167.97 78.59 167.32 77.06 166.42 75.53 C 163.36 75.63 160.44 77.74 158.13 74.82 C 155.42 72.63 157.71 70.19 158.81 67.80 C 160.27 65.48 162.74 63.05 165.73 64.10 Z" id="p4" />
<path d="M 158.99 77.54 C 164.14 77.51 167.59 80.15 171.81 82.53 C 174.01 80.11 174.90 75.92 179.06 77.83 C 179.43 79.15 179.67 80.51 179.71 81.89 C 178.43 83.35 176.12 83.96 174.43 84.87 C 174.87 85.84 175.43 86.75 176.08 87.61 C 178.15 86.03 179.64 84.17 181.91 83.08 C 183.18 84.07 184.88 86.99 183.37 88.34 C 181.70 90.36 179.31 89.66 177.02 89.76 C 177.82 91.00 178.67 92.22 179.62 93.35 C 181.19 92.43 182.99 89.92 184.93 90.66 C 185.92 92.20 186.49 94.63 184.51 95.66 C 183.34 96.61 181.22 95.64 179.81 95.54 C 179.42 98.25 179.68 100.72 178.16 103.15 C 175.12 107.98 169.57 111.52 165.81 115.81 C 161.43 120.92 158.45 127.89 153.50 132.45 C 151.03 135.03 146.27 134.63 143.04 134.24 C 139.69 133.02 136.79 130.02 135.01 127.00 C 134.07 123.44 133.91 118.58 136.87 115.86 C 141.43 111.05 146.94 109.48 152.72 106.83 C 155.93 105.62 158.14 100.71 156.36 97.65 C 154.89 93.50 151.79 89.40 151.42 85.00 C 151.01 80.89 154.82 76.87 158.99 77.54 Z" id="p5" /></defs><g stroke-width="10pt">
<use stroke="#ffffff" xlink:href="#p0" />
<use stroke="#607d43" xlink:href="#p1" />
<use stroke="#ffffff" xlink:href="#p2" />
<use stroke="#ffffff" xlink:href="#p3" />
<use stroke="#607d43" xlink:href="#p4" />
<use stroke="#607d43" xlink:href="#p5" /></g>
<g>
<use xlink:href="#p0" fill="#ffffff" />
<use xlink:href="#p1" fill="#607d43" />
<use xlink:href="#p2" fill="#ffffff" />
<use xlink:href="#p3" fill="#ffffff" />
<use xlink:href="#p4" fill="#607d43" />
<use xlink:href="#p5" fill="#607d43" /></g></svg>