<?xml version="1.0" encoding="utf-8"?>
<!-- Generator: Adobe Illustrator 16.0.0, SVG Export Plug-In . SVG Version: 6.00 Build 0)  -->
<!DOCTYPE svg PUBLIC "-//W3C//DTD SVG 1.1//EN" "http://www.w3.org/Graphics/SVG/1.1/DTD/svg11.dtd">
<svg version="1.1" id="Calque_1" xmlns="http://www.w3.org/2000/svg" xmlns:xlink="http://www.w3.org/1999/xlink" x="0px" y="0px"
	 width="76.5px" height="38.3px" viewBox="0 0 76.5 38.3" style="enable-background:new 0 0 76.5 38.3;" xml:space="preserve">
<style type="text/css">
<![CDATA[
	.st0{fill:#6E8934;}
]]>
</style>
<path class="st0" d="M76.5,2.9c0,0-1.6-0.2-2.4,0.9s-0.8,1.4-1.9,1.4s-2.3,0-3.9,1c-1.6,1-10.4,6.6-11.8,7.3
	c-1.4,0.8-3.5,1.7-3.5,1.7l0.3,0.5l-1.5,0.8V17c0,0-0.2,0.4-1.8,0c-1.6-0.4-4.4-1.5-5.5-1.8c-1.1-0.3-2.8-0.2-3.2,0
	c-0.4,0.2-0.8,0.5-0.8,0.5s-0.6-0.6-0.8-0.6s-1.4-0.4-3.2,0.3c-1.8,0.7-5,2-5.7,1.8S30.1,17,30.1,17s-1.7-1.9-5.8-3.6
	s-5.3-2.8-7.9-4c-2.7-1.1-3.2-1.9-4.7-1.9s-1.6-0.2-1.6-0.2S8.2,4.8,6.2,3.8S2,1.8,1.2,1.1S0,0,0,0v25.8L19.3,35
	c0,0,3.1-4.9,3.5-6.2c0,0,1.5,0.9,1.8,0.9s1.1-1.9,1.1-1.9s0.9,0.4,1,0.7c0.1,0.3,0.3,0.1-0.3,1.1s-0.3,2.5,0,2.9s1.6,0.3,2-0.3
	c0.5-0.6,0.7-0.9,0.7-0.9s1.5,0.5,1.1,0.9c-0.3,0.3-0.6,2-0.3,2.5s1.1,1.2,1.7,0.9c0.7-0.3,0.9-0.3,0.9-0.3s-0.2,1.2,0.8,1.3
	c0.9,0.1,0.8,0.5,1.4,0.2s0.6-0.3,0.6-0.3s0.6,1.3,1.4,1.4c0.7,0,1.4,0.4,1.6,0c0.2-0.4,0-0.3,0.2-0.4c0.2,0,1.8,1,2.7,0.6
	c0.9-0.4,1.2-0.3,1.4-0.7c0.2-0.4,0.3-0.8,0.3-0.8s1.2,0.3,1.7-0.4c0.6-0.7,1.3-1.3,1.2-1.6c-0.1-0.3,0.8,0.3,1.8,0
	c1-0.3,1.5-1,1.5-1.7s0.2-1-0.1-1.4s-0.3-0.3-0.3-0.3s0.8-0.3,1.3,0.1c0.5,0.4,1.9,1,2.5,0.8c0.6-0.2,1.4-0.9,1.3-1.6
	c-0.1-0.7,0-1.1-0.5-1.4c0,0,1.7-0.1,2.8-1.7l0.9,0.1c0,0,0.3,0.7-0.1,0.7c-0.5,0,1.1,0.4,2,0.1c0,0,1,3.4,1.9,3.4
	c0.9,0,9.5-3.6,11.5-4.8s4-2.1,4-2.1V2.9z"/>
</svg>
