<?xml version="1.0" encoding="utf-8"?>
<!-- Generator: Adobe Illustrator 16.0.0, SVG Export Plug-In . SVG Version: 6.00 Build 0)  -->
<!DOCTYPE svg PUBLIC "-//W3C//DTD SVG 1.1//EN" "http://www.w3.org/Graphics/SVG/1.1/DTD/svg11.dtd">
<svg version="1.1" id="Calque_1" xmlns="http://www.w3.org/2000/svg" xmlns:xlink="http://www.w3.org/1999/xlink" x="0px" y="0px"
	 width="170.4px" height="59.2px" viewBox="0 0 170.4 59.2" style="enable-background:new 0 0 170.4 59.2;" xml:space="preserve">
<style type="text/css">
<![CDATA[
	.st0{fill:#6E8934;}
]]>
</style>
<g>
	<path class="st0" d="M50.8,25.4C50.8,11.4,39.4,0,25.4,0C11.4,0,0,11.4,0,25.4c0,11.2,7.3,20.8,17.4,24.1c-2.3,5.1-5.1,9.6-5.1,9.6
		h23.3c0,0,0,0,0.2-1c0.2-1-0.3-4.6-1.3-6.8c-0.2-0.4-0.4-1.1-0.7-1.9C43.7,45.9,50.8,36.5,50.8,25.4z M33,25.4
		c0,2.4-1.1,4.5-2.9,5.9c-0.4-5-1-12-1.1-12.6C31.4,20,33,22.5,33,25.4z M26.2,17.9c-0.1,0-0.2,0-0.4,0C26,17.9,26.1,17.9,26.2,17.9
		z M25.4,17.9c0.1,0,0.2,0,0.3,0c-1.6,0-2.8,0.4-2.8,0.4s-0.2,1.4-0.8,4.6c-0.6,3.3-0.6,4.3-0.2,7.5c0.1,0.6,0.1,1.2,0.1,1.8
		c-2.5-1.2-4.2-3.8-4.2-6.8C17.9,21.2,21.2,17.9,25.4,17.9z"/>
	<path class="st0" d="M110.6,25.4c0-14-11.4-25.4-25.4-25.4c-14,0-25.4,11.4-25.4,25.4c0,11.2,7.3,20.8,17.4,24.1
		c-2.3,5.1-5.1,9.6-5.1,9.6h23.3c0,0,0,0,0.2-1c0.2-1-0.3-4.6-1.3-6.8c-0.2-0.4-0.4-1.1-0.7-1.9C103.5,45.9,110.6,36.5,110.6,25.4z
		 M92.8,25.4c0,2.4-1.1,4.5-2.9,5.9c-0.4-5-1.1-12-1.1-12.6C91.1,20,92.8,22.5,92.8,25.4z M86,17.9c-0.1,0-0.2,0-0.4,0
		C85.8,17.9,85.9,17.9,86,17.9z M85.2,17.9c0.1,0,0.2,0,0.3,0c-1.6,0-2.8,0.4-2.8,0.4s-0.2,1.4-0.8,4.6c-0.6,3.3-0.6,4.3-0.2,7.5
		c0.1,0.6,0.1,1.2,0.1,1.8c-2.5-1.2-4.2-3.8-4.2-6.8C77.6,21.2,81,17.9,85.2,17.9z"/>
	<path class="st0" d="M170.4,25.4C170.4,11.4,159,0,145,0s-25.4,11.4-25.4,25.4c0,11.2,7.3,20.8,17.4,24.1c-2.3,5.1-5.1,9.6-5.1,9.6
		h23.3c0,0,0,0,0.2-1c0.2-1-0.3-4.6-1.3-6.8c-0.2-0.4-0.4-1.1-0.7-1.9C163.3,45.9,170.4,36.5,170.4,25.4z M152.5,25.4
		c0,2.4-1.1,4.5-2.9,5.9c-0.4-5-1.1-12-1.1-12.6C150.9,20,152.5,22.5,152.5,25.4z M145.8,17.9c-0.1,0-0.2,0-0.4,0
		C145.5,17.9,145.7,17.9,145.8,17.9z M145,17.9c0.1,0,0.2,0,0.3,0c-1.6,0-2.8,0.4-2.8,0.4s-0.2,1.4-0.8,4.6
		c-0.6,3.3-0.6,4.3-0.2,7.5c0.1,0.6,0.1,1.2,0.1,1.8c-2.5-1.2-4.2-3.8-4.2-6.8C137.4,21.2,140.8,17.9,145,17.9z"/>
</g>
</svg>
