<?xml version="1.0" encoding="utf-8"?>
<!-- Generator: Adobe Illustrator 19.2.1, SVG Export Plug-In . SVG Version: 6.00 Build 0)  -->
<svg version="1.1" id="Calque_1" xmlns="http://www.w3.org/2000/svg" xmlns:xlink="http://www.w3.org/1999/xlink" x="0px" y="0px"
	 viewBox="0 0 30 29.3" style="enable-background:new 0 0 30 29.3;" xml:space="preserve">
<style type="text/css">
	.st0{fill:#6E8935;}
	.st1{fill:#FFFFFF;}
	.st2{fill:none;stroke:#6E8935;stroke-width:0.1187;stroke-miterlimit:10;}
	.st3{fill:none;stroke:#6E8935;stroke-width:5.935865e-002;stroke-miterlimit:10;}
	.st4{fill:#FFFFFF;stroke:#6E8935;stroke-width:0.1187;stroke-miterlimit:10;}
</style>
<g>
	<path class="st0" d="M0,19.8c0.1-0.2,0.1-0.4,0.2-0.6c0.2-0.8,0.4-1.6,0.6-2.5c0.3,0.1,0.6,0.1,0.9,0.2c0.3,0.1,0.5,0.1,0.8,0.2
		c0.1,0,0.2,0,0.3-0.1c0.3-0.5,0.7-1,1.1-1.5c0.1-0.1,0.1-0.2,0-0.4c-0.3-0.5-0.6-0.9-0.9-1.4c0.9-0.6,1.8-1.1,2.8-1.7
		c0.2,0.3,0.4,0.6,0.5,0.9c0.1,0.2,0.3,0.4,0.4,0.6c0.1,0.1,0.1,0.2,0.3,0.1c0.6-0.2,1.2-0.3,1.9-0.3c0.1,0,0.2-0.1,0.2-0.2
		c0.1-0.5,0.2-1,0.4-1.5c0-0.1,0-0.1,0.1-0.2c1,0.2,2.1,0.5,3.2,0.7c0,0.2-0.1,0.3-0.1,0.5c-0.1,0.4-0.2,0.8-0.3,1.2
		c0,0.1,0,0.2,0.1,0.2c0.6,0.3,1.2,0.8,1.7,1.3c0.5-0.3,1.1-0.7,1.6-1c0.1,0.2,0.3,0.4,0.4,0.6c0.4,0.7,0.8,1.3,1.2,2
		c0.1,0.1,0.1,0.2-0.1,0.2c-0.4,0.3-0.9,0.5-1.3,0.8c-0.1,0.1-0.1,0.2-0.1,0.3c0.1,0.6,0.2,1.2,0.3,1.8c0,0.2,0.1,0.2,0.2,0.3
		c0.5,0.1,0.9,0.2,1.4,0.3c0.1,0,0.2,0,0.3,0.1c-0.2,1.1-0.5,2.1-0.7,3.2c-0.1,0-0.3,0-0.4-0.1c-0.4-0.1-0.9-0.2-1.3-0.3
		c-0.1,0-0.2,0-0.3,0.1c-0.3,0.6-0.7,1.1-1.1,1.6c0,0,0,0.2,0,0.3c0.3,0.5,0.6,1,0.9,1.5c-0.9,0.6-1.8,1.1-2.8,1.7
		c-0.2-0.4-0.5-0.8-0.7-1.1c-0.3-0.5-0.3-0.5-0.9-0.4c-0.5,0.1-1,0.1-1.5,0.2c-0.2,0-0.2,0.1-0.3,0.2c-0.1,0.6-0.3,1.1-0.4,1.7
		c-1.1-0.2-2.1-0.5-3.2-0.7c0.1-0.5,0.2-1,0.3-1.4c0.1-0.6,0.2-0.4-0.3-0.7c-0.4-0.3-0.8-0.6-1.2-0.9c-0.2-0.1-0.3-0.2-0.4,0
		c-0.4,0.3-0.8,0.5-1.3,0.8c-0.1,0.1-0.2,0-0.2-0.1c-0.5-0.9-1.1-1.7-1.6-2.6C1,23.4,1.3,23.2,1.7,23c0.2-0.1,0.5-0.2,0.5-0.4
		c0.1-0.2-0.1-0.4-0.1-0.6C2,21.5,2,21.1,1.9,20.6c0-0.2-0.1-0.2-0.2-0.3C1.1,20.2,0.6,20.1,0,20C0,19.9,0,19.9,0,19.8z M12.7,20.4
		c0-2.1-1.7-3.8-3.8-3.8c-2,0-3.8,1.7-3.8,3.8c0,2.1,1.7,3.8,3.8,3.8C11,24.2,12.7,22.5,12.7,20.4z"/>
	<path class="st0" d="M12.1,8.4c0.1-0.2,0.1-0.4,0.2-0.6c0.2-0.8,0.4-1.6,0.6-2.5c0.3,0.1,0.6,0.1,0.9,0.2c0.3,0.1,0.5,0.1,0.8,0.2
		c0.1,0,0.2,0,0.3-0.1c0.3-0.5,0.7-1,1.1-1.5C16,4,16,3.9,15.9,3.8c-0.3-0.5-0.6-0.9-0.9-1.4c0.9-0.6,1.8-1.1,2.8-1.7
		c0.2,0.3,0.4,0.6,0.5,0.9c0.1,0.2,0.3,0.4,0.4,0.6c0.1,0.1,0.1,0.2,0.3,0.1c0.6-0.2,1.2-0.3,1.9-0.3c0.1,0,0.2-0.1,0.2-0.2
		c0.1-0.5,0.2-1,0.4-1.5c0-0.1,0-0.1,0.1-0.2c1,0.2,2.1,0.5,3.2,0.7c0,0.2-0.1,0.3-0.1,0.5c-0.1,0.4-0.2,0.8-0.3,1.2
		c0,0.1,0,0.2,0.1,0.2C24.9,3,25.5,3.4,26,3.9c0.5-0.3,1.1-0.7,1.6-1c0.1,0.2,0.3,0.4,0.4,0.6c0.4,0.7,0.8,1.3,1.2,2
		c0.1,0.1,0.1,0.2-0.1,0.2c-0.4,0.3-0.9,0.5-1.3,0.8c-0.1,0.1-0.1,0.2-0.1,0.3c0.1,0.6,0.2,1.2,0.3,1.8c0,0.2,0.1,0.2,0.2,0.3
		c0.5,0.1,0.9,0.2,1.4,0.3c0.1,0,0.2,0,0.3,0.1c-0.2,1.1-0.5,2.1-0.7,3.2c-0.1,0-0.3,0-0.4-0.1c-0.4-0.1-0.9-0.2-1.3-0.3
		c-0.1,0-0.2,0-0.3,0.1c-0.3,0.6-0.7,1.1-1.1,1.6c0,0,0,0.2,0,0.3c0.3,0.5,0.6,1,0.9,1.5c-0.9,0.6-1.8,1.1-2.8,1.7
		c-0.2-0.4-0.5-0.8-0.7-1.1c-0.3-0.5-0.3-0.5-0.9-0.4c-0.5,0.1-1,0.1-1.5,0.2c-0.2,0-0.2,0.1-0.3,0.2c-0.1,0.6-0.3,1.1-0.4,1.7
		c-1.1-0.2-2.1-0.5-3.2-0.7c0.1-0.5,0.2-1,0.3-1.4c0.1-0.6,0.2-0.4-0.3-0.7c-0.4-0.3-0.8-0.6-1.2-0.9c-0.2-0.1-0.3-0.2-0.4,0
		c-0.4,0.3-0.8,0.5-1.3,0.8c-0.1,0.1-0.2,0-0.2-0.1c-0.5-0.9-1.1-1.7-1.6-2.6c0.4-0.2,0.7-0.4,1.1-0.7c0.2-0.1,0.5-0.2,0.5-0.4
		c0.1-0.2-0.1-0.4-0.1-0.6c-0.1-0.4-0.1-0.9-0.2-1.4C14,9,14,8.9,13.8,8.9c-0.6-0.1-1.1-0.3-1.7-0.4C12.1,8.5,12.1,8.4,12.1,8.4z
		 M24.9,9c0-2.1-1.7-3.8-3.8-3.8c-2,0-3.8,1.7-3.8,3.8c0,2.1,1.7,3.8,3.8,3.8C23.1,12.7,24.9,11,24.9,9z"/>
	<path class="st1" d="M27.1,9c0,3.2-2.8,6-6,6c-3.4,0-6.1-2.7-6.1-6c0-3.2,2.8-6,6-6C24.4,3,27.1,5.6,27.1,9z"/>
	<path class="st1" d="M14.9,20.4c0,3.2-2.8,6-6,6c-3.4,0-6.1-2.7-6.1-6c0-3.2,2.8-6,6-6C12.2,14.4,14.9,17,14.9,20.4z"/>
	<g>
		<path class="st0" d="M5.4,24h0.3v0.5c0,0.2-0.1,0.3-0.3,0.3H5c-0.2,0-0.3-0.1-0.3-0.3v-2.2c0-0.2,0.1-0.3,0.3-0.3h0.3
			c0.2,0,0.3,0.1,0.3,0.3v0.5H5.4v-0.5H5v2.2h0.3V24z"/>
		<path class="st0" d="M6.2,24.7H5.9V22h0.3l0,0.9c0,0,0.1,0,0.1,0h0.3c0.2,0,0.3,0.1,0.3,0.3v1.6H6.5v-1.6H6.2V24.7z"/>
		<path class="st0" d="M7.4,22.4l-0.2,0.3H7l0.3-0.5h0.3l0.3,0.5H7.6L7.4,22.4z M7.9,24.5c0,0.2-0.1,0.3-0.3,0.3H7.3
			c-0.2,0-0.3-0.1-0.3-0.3v-1.4c0-0.2,0.1-0.3,0.3-0.3h0.3c0.2,0,0.3,0.1,0.3,0.3V24.5z M7.6,23.1H7.3v1.4h0.3L7.6,23.1z"/>
		<path class="st0" d="M9,23.1v1.6H8.7v-1.6H8.4v1.6H8.1v-1.9h0.3l0,0c0,0,0.1,0,0.1,0h0.3c0.1,0,0.1,0,0.1,0.1
			c0-0.1,0.1-0.1,0.1-0.1h0.3c0.2,0,0.3,0.1,0.3,0.3v1.6H9.3v-1.6H9z"/>
		<path class="st0" d="M10.7,24.7h-0.6c-0.2,0-0.2-0.1-0.2-0.3l0-0.5c0-0.2,0.1-0.3,0.3-0.3l0.3,0v-0.6h-0.3l0,0.3H9.8v-0.3
			c0-0.2,0.1-0.3,0.3-0.3l0.3,0c0.2,0,0.3,0.1,0.3,0.3L10.7,24.7z M10.1,24.5h0.3l0-0.5h-0.3V24.5z"/>
		<path class="st0" d="M11.5,25.3v-0.6c0,0-0.1,0-0.1,0h-0.3c-0.2,0-0.3-0.1-0.3-0.3v-1.4c0-0.2,0.1-0.3,0.3-0.3h0.2
			c0,0,0.1,0,0.1,0v0h0.3v2.5c0,0.2-0.1,0.3-0.3,0.3h-0.3c-0.2,0-0.3-0.1-0.3-0.3v-0.3h0.3v0.3H11.5z M11.2,24.5h0.3v-1.4h-0.3V24.5
			z"/>
		<path class="st0" d="M12.3,24v0.5h0.3l0-0.3l0.3,0v0.3c0,0.2-0.1,0.3-0.3,0.3h-0.3c-0.2,0-0.3-0.1-0.3-0.3v-1.4
			c0-0.2,0.1-0.3,0.3-0.3h0.3c0.2,0,0.3,0.1,0.3,0.3v0.6c0,0.2-0.1,0.3-0.3,0.3H12.3z M12.6,23.3v-0.2h-0.3v0.6h0.3L12.6,23.3
			L12.6,23.3z"/>
	</g>
	<g>
		<path class="st0" d="M18.9,4.8V5l-0.3,0v1.1h0.5l0,0.3h-0.7c0,0-0.1,0-0.1-0.1V3.7c0,0,0-0.1,0.1-0.1h0.7v0.3h-0.5v0.9L18.9,4.8z"
			/>
		<path class="st0" d="M20.2,4.8v1.6h-0.3V4.8h-0.3v1.6h-0.3V4.5h0.3l0,0c0,0,0.1,0,0.1,0h0.3c0.1,0,0.1,0,0.1,0.1
			c0-0.1,0.1-0.1,0.1-0.1h0.3c0.2,0,0.3,0.1,0.3,0.3v1.6h-0.3V4.8H20.2z"/>
		<path class="st0" d="M21.9,6.1c0,0.2-0.1,0.3-0.3,0.3h-0.3c0,0-0.1,0-0.1,0l0,0.9H21V4.5h0.3l0,0c0,0,0.1,0,0.1,0h0.2
			c0.2,0,0.3,0.1,0.3,0.3V6.1z M21.6,4.8h-0.3v1.4h0.3V4.8z"/>
		<path class="st0" d="M22.1,6.4V3.7h0.3v2.7H22.1z"/>
		<path class="st0" d="M23.5,6.1c0,0.2-0.1,0.3-0.3,0.3h-0.3c-0.2,0-0.3-0.1-0.3-0.3V4.8c0-0.2,0.1-0.3,0.3-0.3h0.3
			c0.2,0,0.3,0.1,0.3,0.3V6.1z M23.2,4.8h-0.3v1.4h0.3L23.2,4.8z"/>
		<path class="st0" d="M23.8,4.2V4.1c0,0,0-0.1,0.1-0.1h0.1C24,4,24,4,24,4.1v0.1c0,0,0,0.1-0.1,0.1L23.8,4.2
			C23.8,4.2,23.8,4.2,23.8,4.2z M23.8,6.3V4.6c0,0,0-0.1,0.1-0.1h0.1c0,0,0.1,0,0.1,0.1v1.7c0,0,0,0.1-0.1,0.1L23.8,6.3
			C23.8,6.4,23.8,6.4,23.8,6.3z"/>
	</g>
</g>
<path class="st2" d="M16.5,9.1c0,0,0.3,0.7,0.2,2.4"/>
<polyline class="st3" points="16.7,10.9 17.4,10.9 17.4,11.6 "/>
<path class="st0" d="M17,8.9c0,0,0.2,0.1,0.3,0c0,0,0.1,0,0.1-0.1c0,0-0.1-0.3,0-0.4c0,0-0.2-0.4-0.7-0.1c0,0-0.3,0.2,0,0.7
	C16.7,8.9,17,8.9,17,8.9z"/>
<path class="st0" d="M16.8,9.1h0.5c0,0,0.2,0.5,0.8,0.5c0,0,0,0.3,0,0.3s-0.2-0.1-0.3,0.1c0,0-0.1,0.1-0.1,0.1l-0.5-0.4
	c0,0,0.1,0.5,0.1,0.6c0,0,0.5,0,0.5,0s0.2,0,0.2,0.2c0,0,0,1,0,1s-0.2,0.2-0.4,0c0,0,0-0.6,0-0.6s0-0.2-0.2-0.2c0,0-0.4,0-0.4,0
	s-0.2,0.1-0.1-0.2C16.9,10.5,16.8,9.2,16.8,9.1L16.8,9.1z"/>
<rect x="18.2" y="10.3" class="st0" width="0.7" height="1.3"/>
<line class="st3" x1="17.9" y1="10.1" x2="18.9" y2="10.1"/>
<g>
	<path class="st0" d="M17.9,10l0.7,0l0,0l0-0.1l0,0l0,0c0.1-0.1,0.1-0.2,0.1-0.4l0-0.4l0,0.4c0,0.1,0,0.1,0,0.2c0,0.1,0,0.1-0.1,0.2
		l0,0l0,0.1l0,0l0,0L17.9,10z"/>
</g>
<g>
	<g>
		<path class="st0" d="M16.8,10.9c0.2,0,0.3,0,0.5,0c0.1,0,0.4-0.2,0.1-0.2c-0.2,0-0.3,0-0.5,0C16.8,10.7,16.6,10.9,16.8,10.9
			L16.8,10.9z"/>
	</g>
</g>
<g>
	<g>
		<path class="st0" d="M19.4,10.9c0.2,0,0.3,0,0.5,0c0.1,0,0.4-0.2,0.1-0.2c-0.2,0-0.3,0-0.5,0C19.4,10.7,19.2,10.9,19.4,10.9
			L19.4,10.9z"/>
	</g>
</g>
<g>
	<g>
		<path class="st0" d="M22.9,10.8c0.2,0,0.3,0,0.5,0c0.1,0,0.4-0.2,0.1-0.2c-0.2,0-0.3,0-0.5,0C22.9,10.7,22.7,10.8,22.9,10.8
			L22.9,10.8z"/>
	</g>
</g>
<g>
	<g>
		<path class="st0" d="M20.7,9.9c0.1,0,0.3,0,0.4,0c0.1,0,0.4-0.2,0.1-0.2c-0.1,0-0.3,0-0.4,0C20.7,9.8,20.5,9.9,20.7,9.9L20.7,9.9z
			"/>
	</g>
</g>
<g>
	<path class="st0" d="M18,9.8l0.2,0l0,0l0,0c0,0,0,0,0,0.1c0,0,0.1,0,0.1,0c0,0,0,0-0.1,0c0,0-0.1,0-0.1-0.1l0,0L18,9.8z"/>
</g>
<path class="st2" d="M19.1,9.1c0,0,0.3,0.7,0.2,2.4"/>
<polyline class="st3" points="19.3,10.9 20,10.9 20,11.6 "/>
<path class="st0" d="M19.6,8.9c0,0,0.2,0.1,0.3,0c0,0,0.1,0,0.1-0.1c0,0-0.1-0.3,0-0.4c0,0-0.2-0.4-0.7-0.1c0,0-0.3,0.2,0,0.7
	C19.3,8.9,19.6,8.9,19.6,8.9z"/>
<path class="st0" d="M19.4,9.1h0.5c0,0,0.2,0.5,0.8,0.5c0,0,0,0.3,0,0.3s-0.2-0.1-0.3,0.1c0,0-0.1,0.1-0.1,0.1l-0.5-0.4
	c0,0,0.1,0.5,0.1,0.6c0,0,0.5,0,0.5,0s0.2,0,0.2,0.2c0,0,0,1,0,1s-0.2,0.2-0.4,0c0,0,0-0.6,0-0.6s0-0.2-0.2-0.2c0,0-0.4,0-0.4,0
	s-0.2,0.1-0.1-0.2C19.4,10.5,19.4,9.2,19.4,9.1L19.4,9.1z"/>
<rect x="20.8" y="10.3" class="st0" width="0.7" height="1.3"/>
<line class="st3" x1="20.5" y1="10.1" x2="21.5" y2="10.1"/>
<g>
	<path class="st0" d="M20.5,10l0.7,0l0,0l0-0.1l0,0l0,0c0.1-0.1,0.1-0.2,0.1-0.4l0-0.4l0,0.4c0,0.1,0,0.1,0,0.2c0,0.1,0,0.1-0.1,0.2
		l0,0l0,0.1l0,0l0,0L20.5,10z"/>
</g>
<g>
	<path class="st0" d="M20.6,9.8l0.2,0l0,0l0,0c0,0,0,0,0,0.1c0,0,0.1,0,0.1,0c0,0,0,0-0.1,0c0,0-0.1,0-0.1-0.1l0,0L20.6,9.8z"/>
</g>
<path class="st2" d="M22.6,9.1c0,0,0.3,0.7,0.2,2.4"/>
<polyline class="st3" points="22.8,10.8 23.5,10.8 23.5,11.5 "/>
<rect x="23.7" y="10.2" transform="matrix(0.9995 -3.218243e-002 3.218243e-002 0.9995 -0.3359 0.7782)" class="st0" width="0.7" height="1.3"/>
<line class="st3" x1="23.4" y1="10.1" x2="24.4" y2="10.1"/>
<g>
	<path class="st0" d="M23.4,9.9l0.7,0l0,0l0-0.1l0,0l0,0c0.1-0.1,0.1-0.2,0.1-0.4l0-0.4l0,0.4c0,0.1,0,0.1,0,0.2
		c0,0.1,0,0.1-0.1,0.2l0,0l0,0.1l0,0l0,0L23.4,9.9z"/>
</g>
<path class="st2" d="M20.5,8.6c0,0,0.3,0.5,0.1,1.8"/>
<polyline class="st3" points="20.7,9.9 21.1,9.9 21.1,10.4 "/>
<path class="st0" d="M20.8,8.4c0,0,0.1,0,0.2,0c0,0,0.1,0,0.1-0.1c0,0-0.1-0.2,0-0.3c0,0-0.1-0.3-0.5-0.1c0,0-0.2,0.1,0,0.5
	C20.7,8.4,20.8,8.4,20.8,8.4z"/>
<path class="st0" d="M20.7,8.6h0.4c0,0,0.2,0.4,0.6,0.4c0,0,0,0.2,0,0.2s-0.1,0-0.2,0.1c0,0-0.1,0.1-0.1,0.1L21,9c0,0,0,0.4,0.1,0.4
	c0,0,0.4,0,0.4,0s0.2,0,0.1,0.2c0,0,0,0.7,0,0.7s-0.2,0.2-0.3,0c0,0,0-0.4,0-0.4s0-0.2-0.1-0.1c0,0-0.3,0-0.3,0s-0.1,0.1-0.1-0.1
	C20.8,9.6,20.7,8.6,20.7,8.6L20.7,8.6z"/>
<line class="st3" x1="21.5" y1="9.3" x2="22.3" y2="9.3"/>
<g>
	<path class="st0" d="M21.6,9.2l0.5,0l0,0l0-0.1l0,0l0,0c0,0,0.1-0.2,0.1-0.3l0-0.3l0,0.3c0,0.1,0,0.2-0.1,0.3l0,0l0,0.1l0,0l0,0
		L21.6,9.2z"/>
</g>
<g>
	<path class="st0" d="M21.6,9.1l0.1,0l0,0l0,0c0,0,0,0,0,0c0,0,0,0,0,0C21.8,9.2,21.7,9.2,21.6,9.1L21.6,9.1L21.6,9.1z"/>
</g>
<path class="st0" d="M7.6,22v-1.1c0-0.1,0-0.1,0-0.2c0.1-0.2,0.4-0.5,0.8-0.5c0,0,0.9-0.1,1.5,0.1c0,0,0.5,0.1,0.5,0.7
	c0,0,0,0.9,0,0.9s-0.4,0.3-0.6,0.3c0,0-0.1-0.3-0.1-0.3l-0.1,0.4c0,0-0.7,0.2-1.5,0c0,0-0.1-0.4-0.1-0.4l0,0.3
	C8.2,22.3,7.7,22.2,7.6,22C7.7,22,7.6,22,7.6,22z"/>
<ellipse class="st0" cx="9.1" cy="19.2" rx="0.7" ry="0.8"/>
<path class="st4" d="M11.4,18.2c0,0.2,0.1,0.4,0.1,0.6c0.1,0.5,0.4,1,0.9,1.1c0.5,0.1,1-0.1,1.7-0.7c0.5-0.4,1-1,1.4-1.6
	c0.3-0.3,0.5-0.7,0.8-1c0,0,0-0.1,0.1-0.1c-0.4-0.3-0.8-0.6-1.2-0.8c1.6-1,3.2-1.9,4.7-2.8c-0.3,1.8-0.6,3.6-1,5.4c0,0,0,0,0,0
	c-0.4-0.3-0.7-0.5-1.1-0.8c0,0-0.1,0-0.1,0.1c-0.4,0.6-0.8,1.2-1.3,1.7c-0.5,0.6-1.1,1.1-1.6,1.6c-0.4,0.3-0.8,0.5-1.2,0.6
	c-0.6,0.2-1,0.1-1.4-0.2c-0.4-0.3-0.6-0.9-0.6-1.5C11.3,19.2,11.4,18.8,11.4,18.2C11.4,18.2,11.4,18.2,11.4,18.2
	C11.4,18.2,11.4,18.2,11.4,18.2z"/>
<path class="st0" d="M24.9,7.1C24.9,7,24.9,7,24.9,7.1c-0.1-0.2-0.1-0.2-0.2-0.2c-0.1,0-0.1,0.1-0.2,0.3c0,0.1-0.1,0.2-0.1,0.4
	c0,0.1,0,0.2-0.1,0.2c0,0,0,0,0,0c0.1,0,0.1,0,0.2,0c-0.2,0.3-0.3,0.6-0.5,0.9C24,8.3,24,8,24,7.7c0,0,0,0,0,0c0.1,0,0.1,0,0.2,0
	c0,0,0,0,0,0c0-0.1,0.1-0.3,0.1-0.4c0-0.1,0.1-0.3,0.1-0.4c0-0.1,0.1-0.2,0.1-0.2c0.1-0.1,0.1-0.1,0.2-0.1c0.1,0,0.1,0.1,0.1,0.2
	C24.9,6.9,24.9,6.9,24.9,7.1C24.9,7,24.9,7,24.9,7.1C24.9,7.1,24.9,7.1,24.9,7.1z"/>
</svg>
