<?xml version="1.0" encoding="utf-8"?>
<!-- Generator: Adobe Illustrator 19.2.1, SVG Export Plug-In . SVG Version: 6.00 Build 0)  -->
<svg version="1.1" id="Calque_1" xmlns="http://www.w3.org/2000/svg" xmlns:xlink="http://www.w3.org/1999/xlink" x="0px" y="0px"
	 viewBox="0 0 30 18.2" style="enable-background:new 0 0 30 18.2;" xml:space="preserve">
<style type="text/css">
	.st0{fill:#6E8935;}
	.st1{fill:#FFFFFF;}
	.st2{fill:none;}
	.st3{fill:none;stroke:#FFFFFF;stroke-width:5.957003e-002;stroke-miterlimit:10;}
</style>
<path class="st0" d="M6,12c-0.9,0-1.7,0-2.6-0.2c-0.8,0-1.4-0.2-2.1-0.3c-0.2,0-0.3-0.2-0.5-0.3c-0.3-0.3-0.6-0.6-0.8-0.9
	C0,10.2,0,10,0.1,10c0.2-0.2,0.5-0.2,0.6-0.2c0.9-0.2,1.8-0.2,2.7-0.3c2-0.2,3.9-0.2,5.9,0c1.1,0,2.3,0.2,3.3,0.3
	c0.2,0,0.3,0.2,0.6,0.2c0.2,0,0.2,0.2,0,0.3c-0.5,0.3-0.8,0.6-1.1,1.1c0,0-0.2,0.2-0.3,0.2c-0.6,0.2-1.1,0.2-1.7,0.3
	c-0.9,0-2,0-3,0.2c0,0.2,0,0.3,0.3,0.3c2.3,0,4.6,0,7,0h0.2c0-0.5,0-0.9,0-1.2c0-0.3,0-0.6,0-1.1c0-0.6-0.3-0.9-0.6-1.2
	c-0.2,0-0.3-0.2-0.5-0.2V8.5c0-0.3,0-0.3,0.3-0.5C15,7.9,16,7.9,17.1,8c0.2,0,0.2,0,0.2,0.2v0.2c0,0.2,0,0.2-0.2,0.2
	c-0.6,0.3-0.9,0.6-0.9,1.2c0,0.3,0,0.5,0,0.8c0,0.5,0,0.9,0,1.4V12h0.2c2.1,0,4.4,0,6.5,0c0.2,0,0.2,0,0.3,0c0-0.2,0-0.2-0.2-0.3
	c-0.5,0-0.9,0-1.2,0c-1.1,0-2.1-0.2-3.2-0.3c-0.2,0-0.2,0-0.3,0c-0.2,0-0.5-0.2-0.6-0.3c-0.3-0.3-0.6-0.6-0.9-0.9
	c-0.2-0.2-0.2-0.3,0-0.3c0.2-0.2,0.5-0.2,0.6-0.2c0.9-0.2,1.8-0.2,2.7-0.3c2-0.2,3.8-0.2,5.8,0c1.2,0,2.3,0.2,3.5,0.3
	c0.2,0,0.3,0.2,0.5,0.2c0.2,0,0.2,0.2,0,0.3c-0.3,0.3-0.6,0.8-0.9,1.1c-0.2,0.2-0.3,0.2-0.3,0.2c-0.6,0.2-1.1,0.2-1.7,0.3
	c-0.9,0-1.8,0.2-2.7,0.2h-0.2c-0.2,0.5-0.3,0.8-0.6,1.2h-0.2c-1.7,0-3.2,0-4.9,0c-0.8,0-1.7,0-2.4,0h-0.2c0,1.2,0,2.3,0,3.5
	c0.3,0,0.5,0,0.8,0c0.2,0,0.2,0,0.2,0.2c0.2,0.5,0.3,1.1,0.6,1.5c-1.5,0-3,0-4.6,0c0-0.2,0.2-0.3,0.2-0.5c0.5-0.3,0.6-0.6,0.6-1.1
	c0,0,0.2-0.2,0.3-0.2c0.3,0,0.5,0,0.8,0c0-1.2,0-2.3,0-3.5c-0.2,0-0.2,0-0.3,0c-2.6,0-5,0-7.6,0c-0.2,0-0.2,0-0.2-0.2
	s-0.2-0.3-0.2-0.3c0-0.2-0.2-0.3-0.3-0.5C6,12.1,6,12,6,12z"/>
<path class="st1" d="M13,10c-0.5,0.2-0.9,0.2-1.4,0.3c-2.9,0.2-5.8,0.2-8.6,0c-0.8,0-1.5-0.2-2.4-0.3H0.4l0,0c0.3,0,0.5-0.2,0.8-0.2
	c1.4-0.2,2.6-0.2,3.9-0.3c1.8,0,3.6,0,5.3,0.2c0.8,0,1.5,0.2,2.4,0.3C12.9,10,12.9,10,13,10L13,10z"/>
<path class="st1" d="M30,10.2c-0.5,0-0.9,0.2-1.4,0.2c-2.9,0.3-5.8,0.3-8.6,0.2c-0.8,0-1.5-0.2-2.4-0.3h-0.2l0,0
	c0.3,0,0.5-0.2,0.8-0.2c1.4-0.2,2.6-0.2,3.9-0.3c1.8,0,3.6,0,5.3,0.2c0.8,0,1.5,0.2,2.4,0.3C29.8,10,29.8,10,30,10.2
	C30,10,30,10.2,30,10.2z"/>
<path class="st0" d="M23,3.8c-0.5,0-0.8,0.2-1.1-0.2l0.2-0.2c0,0,0.2,0,0.2,0.2C22.4,3.8,22.7,3.8,23,3.8c0-0.2,0.2-0.2,0.3-0.3
	c0,0,0,0,0,0.2"/>
<path class="st0" d="M22.9,3.6L22.9,3.6c0.2,0,0.2,0,0.3,0C23,3.5,23,3.5,22.9,3.6C23,3.5,23,3.5,22.9,3.6
	C22.9,3.5,22.9,3.5,22.9,3.6c0-0.2-0.3-0.3-0.5-0.5C22.3,3,22,3,21.8,3c-0.2,0-0.3,0-0.5,0v0.2c0.3,0,0.5,0,0.6,0
	C22.3,3.3,22.6,3.5,22.9,3.6L22.9,3.6z"/>
<path class="st0" d="M21.7,10.5c-0.2-0.2-0.3-0.3-0.5-0.5c-0.3-0.3-0.5-0.6-0.5-1.1c-0.2-0.5,0-0.9,0-1.4c0.2-0.5,0.3-0.9,0.5-1.4
	c0.2-0.5,0.5-0.9,0.8-1.4c0.2-0.3,0.5-0.6,0.8-0.9c0,0,0,0,0.2,0H23c0.6,0,1.4,0,2,0l0,0c0.3,0.3,0.6,0.8,0.9,1.1
	c0.3,0.5,0.5,0.8,0.8,1.2c0.3,0.6,0.5,1.2,0.6,2c0,0.5,0,1.1-0.3,1.5c-0.2,0.3-0.5,0.5-0.6,0.8"/>
<path class="st0" d="M23.8,1.7c0.2,0,0.5,0.2,0.6,0.2C24.7,2,24.8,2,25.1,2.1l0,0c0,0.2-0.2,0.2-0.2,0.3c-0.2,0.3-0.2,0.6-0.3,0.9
	c0,0,0,0-0.2,0c-0.5,0-1.1,0-1.5,0c0,0-0.2,0-0.2-0.2c-0.2-0.2-0.2-0.5-0.3-0.6c0,0,0,0,0-0.2c0.2,0,0.2,0,0.3,0s0.3,0,0.3,0
	c0.2,0,0.2,0,0.2-0.2s0-0.2,0-0.3s0-0.2,0-0.3s0-0.2,0.2-0.2c0,0,0,0,0.2,0C23.6,1.7,23.6,1.7,23.8,1.7z"/>
<path class="st0" d="M23.9,3.8c-0.3,0-0.6,0-0.9,0c0,0,0,0-0.2,0c0,0-0.2,0-0.2-0.2c0,0,0-0.2,0.2-0.2c0,0,0,0,0.2,0
	c0.6,0,1.2,0,1.8,0c0,0,0,0,0.2,0c0,0,0.2,0,0.2,0.2c0,0,0,0.2-0.2,0.2c0,0,0,0-0.2,0C24.5,3.8,24.2,3.8,23.9,3.8z"/>
<g>
	<path class="st1" d="M22.1,7.3L22.1,7.3c0.2-0.2,0.3-0.3,0.3-0.6V6.5h-0.3V6.4h0.2c0,0,0-0.2,0-0.3c0-0.3,0.2-0.5,0.5-0.5
		c0.2,0,0.2,0,0.3,0v0.2h-0.2c-0.2,0.2-0.3,0.2-0.3,0.5c0,0.2,0,0.2,0,0.3h0.3v0.2h-0.3c0,0.2,0,0.2,0,0.3s-0.2,0.2-0.2,0.3l0,0h0.8
		v0.2L22.1,7.3L22.1,7.3z"/>
</g>
<g>
	<path class="st1" d="M22.7,9.7V9.4c-0.2,0-0.3,0-0.5-0.2V9.1c0.2,0,0.2,0.2,0.3,0.2s0.3-0.2,0.3-0.3s-0.2-0.3-0.3-0.3
		c-0.3-0.2-0.5-0.2-0.5-0.5c0-0.2,0.2-0.3,0.5-0.5V7.6h0.2v0.3c0.2,0,0.3,0,0.3,0.2v0.2c0,0-0.2-0.2-0.3-0.2s-0.3,0.2-0.3,0.2
		c0,0.2,0.2,0.2,0.3,0.3C23,8.6,23.2,8.8,23.2,9c0,0.2-0.2,0.5-0.5,0.5V9.7L22.7,9.7z"/>
</g>
<g>
	<path class="st1" d="M24.7,10.2c0,0-0.2,0.2-0.3,0.2s-0.3,0-0.5-0.2s-0.2-0.3-0.2-0.5h-0.2V9.4h0.2l0,0c0,0,0,0,0-0.2h-0.2l0,0h0.2
		c0-0.2,0.2-0.3,0.2-0.5c0.2-0.2,0.3-0.2,0.5-0.2s0.3,0,0.3,0v0.2c0,0-0.2,0-0.3,0s-0.2,0-0.3,0.2c0,0-0.2,0.2-0.2,0.3h0.6v0.2h-0.6
		c0,0,0,0,0,0.2l0,0h0.6v0.2h-0.6c0,0.2,0,0.3,0.2,0.3c0.2,0.2,0.2,0.2,0.3,0.2C24.5,10,24.7,10,24.7,10.2L24.7,10.2z"/>
</g>
<g>
	<path class="st1" d="M23.8,6.8V6.4h-0.5l0,0h0.5V6.1h-0.5l0,0h0.3l-0.5-0.8h0.3l0.3,0.5c0,0.2,0,0.2,0.2,0.3l0,0c0,0,0-0.2,0.2-0.3
		l0.2-0.5h0.3l-0.5,0.8h0.3v0.2h-0.5v0.2h0.5v0.2h-0.5V7L23.8,6.8L23.8,6.8z"/>
</g>
<g>
	<path class="st1" d="M24.2,8.5c0,0-0.2,0-0.3,0c-0.3,0-0.6-0.2-0.6-0.6c0-0.3,0.3-0.6,0.6-0.6c0.2,0,0.3,0,0.3,0v0.2
		c0,0-0.2,0-0.3,0c-0.3,0-0.5,0.2-0.5,0.5c0,0.3,0.2,0.5,0.5,0.5C24.1,8.3,24.2,8.3,24.2,8.5L24.2,8.5z"/>
	<path class="st1" d="M24.5,7.3v0.5h0.6V7.3h0.2v1.2h-0.2V7.9h-0.6v0.6h-0.2V7.3H24.5z"/>
	<path class="st1" d="M25.6,7.3h0.6v0.2h-0.5v0.5h0.5V8h-0.5v0.6h-0.2V7.3z"/>
</g>
<path class="st0" d="M11.3,2L11.3,2 M10.9,4.1L10.9,4.1L10.9,4.1C10.9,4.1,10.9,4.2,10.9,4.1c0,0.2,0,0.3,0,0.5c0,0.2,0,0.2,0,0.3
	c0,0.2,0,0.2,0,0.3c0,0.2,0,0.2,0,0.3s0,0.2,0,0.3s0,0.2,0,0.3c0,0.2,0,0.2,0,0.3s0,0.2,0,0.3c0,0.2,0,0.2,0,0.3s0,0.2,0,0.3
	c0,0.2,0,0.2,0,0.3v0.2c0,0.2,0,0.2,0,0.3c0,0.2,0,0.2,0,0.3s0,0.2,0,0.3s0,0.2,0,0.3s0,0.2,0,0.3v0.2c0,0.2,0,0.2,0,0.3v0.2
	c0,0.2,0,0.2,0,0.3c0,0.2,0,0.2,0,0.3s0,0.2,0,0.3l0,0l0,0l0,0c-0.6,0-1.4,0-2,0l0,0c0-0.2,0-0.2,0-0.3s0-0.3,0-0.3
	c0-0.2,0-0.2,0-0.3s0-0.2,0-0.3s0-0.2,0-0.3c0-0.2,0-0.2,0-0.3s0-0.3,0-0.5c0-0.2,0-0.3,0-0.3c0-0.2,0-0.3,0-0.5c0-0.2,0-0.3,0-0.3
	c0-0.2,0-0.3,0-0.5c0-0.2,0-0.3,0-0.5c0-0.2,0-0.2,0-0.3V6.1c0-0.2,0-0.2,0-0.3V5.6c0-0.2,0-0.3,0-0.5l0,0l0,0c0,0,0,0-0.2,0.2
	c0,0,0,0.2-0.2,0.2c0,0,0,0.2-0.2,0.2c0,0.2-0.2,0.3-0.2,0.5c0.8-0.5,0.8-0.5,0.6-0.3L8.8,5.9c0,0,0,0-0.2,0.2c0,0,0,0-0.2,0.2
	c0,0,0,0-0.2,0L8.2,6.4v0.2c0,0.2,0,0.2,0,0.3V7c0,0.2,0,0.3,0,0.3c0,0.2,0,0.3,0,0.3c0,0.2,0,0.2,0,0.3c0,0.2,0,0.2,0,0.3
	s0,0.3,0,0.5s0,0.2,0,0.3v0.2c0,0.2,0,0.2,0,0.3v0.2c0,0.2,0,0.2,0,0.3V10v0.3V10v0.3c-0.3,0.2-0.9,0.2-1.5,0.2v-0.3v0.3
	c0-0.2,0-0.6,0-0.6V9.7V9.6V9.4c0-0.2,0-0.2,0-0.3s0-0.2,0-0.3c0-0.2,0-0.2,0-0.3s0-0.2,0-0.3s0-0.2,0-0.3c0-0.2,0-0.2,0-0.3
	c0-0.2,0-0.2,0-0.3s0-0.2,0-0.3V6.8c0-0.2,0-0.2,0-0.3c0-0.2,0-0.3,0-0.5l0,0V5.9c0,0,0-0.2-0.2-0.2V5.6c0-0.2,0-0.2-0.2-0.3
	c0-0.2-0.2-0.3-0.2-0.5V4.7c0-0.2,0-0.2-0.2-0.3c0.5,0,0.5-0.3,0.3-0.5c0,0,0,0,0-0.2l0,0l0,0c0,0,0,0-0.2,0c0,0,0,0-0.2,0
	c0,0.3,0,0.5,0,0.5v0.2c0,0.2,0,0.3,0,0.5C6,5,6,5,6,5.2c0,0.2,0,0.2,0,0.3v0.2c0,0.2,0,0.2,0,0.3s0,0.2,0,0.3c0,0.2,0,0.2,0,0.3
	v0.2C6,6.8,6,6.8,6,7v0.2c0,0.2,0,0.3,0,0.3v0.2c0,0.2,0,0.2,0,0.3V8c0,0.2,0,0.2,0,0.3v0.2c0,0.2,0,0.2,0,0.3C6,9,6,9,6,9
	c0,0.2,0,0.2,0,0.3c0,0.2,0,0.2,0,0.3s0,0.2,0,0.3s0,0.2,0,0.3l0,0c0,0.3,0.2,0.3,0,0.3l0,0c-0.6,0-1.4,0-2,0H3.9v-0.3
	c0-0.2,0-0.2,0-0.3c0-0.2,0-0.2,0-0.3s0-0.2,0-0.3s0-0.2,0-0.3s0-0.2,0-0.3c0-0.2,0-0.2,0-0.3s0-0.2,0-0.3s0-0.2,0-0.3
	c0-0.2,0-0.2,0-0.3V7.3c0-0.2,0-0.2,0-0.3s0-0.2,0-0.3c0-0.2,0-0.2,0-0.3s0-0.2,0-0.3c0-0.2,0-0.2,0-0.3V5.6c0-0.2,0-0.2,0-0.3V5.2
	c0-0.2,0-0.2,0-0.3s0-0.2,0-0.3c0-0.2,0-0.2,0-0.3c0,0,0,0,0-0.2l0,0c0,0,0,0,0,0.2c0,0,0,0,0,0.2C4.7,4.9,4.5,5,4.5,5.2
	S4.4,5.3,4.4,5.5L4.2,5.6c0,0,0,0.2-0.2,0.2L3.9,5.9c0,0,0,0-0.2,0l0,0c-0.2,0-0.2,0.2-0.2,0.3v0.2c0,0.2,0,0.2,0,0.3v0.2
	c0,0.2,0,0.3,0,0.5v0.2c0,0.2,0,0.3,0,0.5c0,0.2,0,0.3,0,0.6c0,0.2,0,0.3,0,0.5s0,0.3,0,0.5c0,0.2,0,0.3,0,0.5s0,0.2,0,0.3l0,0l0,0
	l0,0c-0.5,0-1.1,0-1.5,0l0,0l0,0V10c0-0.2,0-0.2,0-0.3s0-0.2,0-0.3V9.3c0-0.2,0-0.2,0-0.3s0-0.2,0-0.3s0-0.2,0-0.3s0-0.2,0-0.3
	c0-0.2,0-0.2,0-0.3c0-0.2,0-0.2,0-0.3c0-0.2,0-0.2,0-0.3s0-0.2,0-0.3c0-0.2,0-0.2,0-0.3V6.4V6.2V6.1V5.9c0,0,0,0,0-0.2V5.6
	c0-0.2,0-0.2-0.2-0.3c0-0.2,0-0.2-0.2-0.3c0-0.2,0-0.3-0.2-0.5c0-0.2,0-0.2,0-0.3V4.1c0-0.2-0.2-0.3-0.2-0.3c0-0.2-0.2-0.3-0.2-0.5
	V3.2c0,0,0,0,0-0.2c0-0.2,0-0.2,0.2-0.2l0,0c0,0,0,0.2,0.2,0.2c0.2,0.2,0.2,0.3,0.3,0.5l0.2,0.2l0,0l0,0c0,0,0,0,0-0.2
	c0-0.2-0.2-0.3-0.2-0.6V2.7c0,0,0,0,0-0.2c0-0.2,0-0.2,0-0.3V2.1c0,0,0,0,0-0.2l0,0c0-0.2,0.2-0.2,0.2,0l0,0c0,0,0,0,0,0.2
	s0,0.2,0.2,0.3v0.2v0.2c0,0.2,0.2,0.3,0.2,0.5l0,0c0,0,0,0,0.2,0l0,0l0,0V3c0-0.2,0-0.3,0-0.5V2.4l0,0c0-0.2,0-0.2,0-0.3
	s0-0.2,0-0.3V1.7c0,0,0,0,0-0.2c0,0,0,0,0.2,0l0,0l0,0v0.2c0,0.2,0,0.2,0,0.3s0,0.3,0,0.5v0.2c0,0.2,0,0.3,0,0.3V3c0,0,0,0,0,0.2
	l0,0l0,0c0,0,0,0,0-0.2s0-0.2,0.2-0.3C2.8,2.6,3,2.4,3,2.3S3,2.1,3.1,2c0,0,0-0.2,0.2-0.2l0,0c0,0,0,0,0.2,0L3.6,2v0.2
	c0,0.2,0,0.2,0,0.3c0.6,1.1,0.5,1.4,0.5,1.7c0,0.2,0,0.3,0,0.3c0,0.2,0,0.2,0,0.3v0.2l0,0l0,0l0,0c0,0,0,0,0-0.2l0.2-0.2
	c0.2-0.2,0.2-0.2,0.3-0.2c0.2,0,0.2-0.2,0.3-0.2l0,0c0-0.2,0-0.2,0-0.3V3.8V3.6c0-0.2,0-0.2-0.2-0.3C4.5,3.2,4.5,3,4.5,2.9V2.7
	c0-0.2,0-0.2-0.2-0.3C4.2,2.3,4.2,2,4.1,1.8c0-0.2,0-0.2-0.2-0.3c0,0,0,0,0-0.2c0,0,0-0.2,0.2-0.2l0,0l0,0c0,0,0,0,0,0.2
	s0.2,0.2,0.2,0.3c0,0,0,0.2,0.2,0.2L4.5,2l0,0c0,0,0,0,0.2,0c0,0,0,0,0-0.2S4.5,1.4,4.5,1.2s0-0.2,0-0.3s0-0.2,0-0.3V0.5l0,0
	c0,0,0,0,0.2,0c0,0,0,0,0.2,0l0,0c0,0,0,0.2,0.2,0.2c0,0.2,0,0.2,0,0.3v0.2c0,0.2,0.2,0.3,0.2,0.6l0,0l0,0c0,0,0,0,0.2,0l0,0l0,0
	c0-0.2,0-0.3,0-0.3c0-0.2,0-0.2,0-0.3c0,0,0,0,0-0.2V0.8c0,0,0,0,0-0.2s0-0.2,0-0.3V0.2l0,0c0,0,0,0,0.2,0c0,0,0,0,0.2,0v0.2
	c0,0,0,0.2,0,0.3s0,0.5,0,0.6s0,0.3,0,0.3v0.2c0,0,0,0,0,0.2l0,0l0,0c0,0,0,0,0-0.2C6,1.8,6,1.7,6.2,1.5c0-0.2,0-0.2,0.2-0.3
	c0-0.2,0-0.2,0.2-0.3c0,0,0,0,0-0.2l0,0l0,0l0,0l0.2,0.2v0.2c0,0.2,0,0.2,0,0.3C6.5,1.7,6.3,2,6.3,2.1s0,0.2,0,0.3v0.2v0.2l0,0
	c0,0,0,0,0.2,0l0,0l0.2-0.2V2.4c0,0,0-0.2,0.2-0.2c0.2,0,0.2-0.2,0.3-0.2c0,0,0.2,0,0.2,0.2l0,0c0,0,0,0-0.2,0.2l0,0
	c0,0,0,0.2-0.2,0.2l0,0l0.2,0.2c0,0.2,0.2,0.2,0.2,0.3l0,0c0,0.2,0,0.2,0.2,0.3c0,0.2,0.2,0.3,0.2,0.5l0,0h0.2l0,0c0,0,0,0,0-0.2
	c0-0.2,0-0.2,0-0.3c0-0.2,0-0.2,0-0.3c0-0.2,0-0.2,0-0.3V2.6V2.4V2.3c0,0,0,0,0-0.2c0,0,0,0,0.2,0H8l0,0v0.2v0.2c0,0.2,0,0.2,0,0.3
	C8,2.9,8,2.9,8,3c0,0.2,0,0.3,0,0.3c0,0.2,0,0.2,0,0.3c0,0,0,0,0,0.2c0,0,0,0,0.2,0c0,0,0,0,0.2-0.2c0-0.2,0-0.2,0.2-0.3
	c0-0.2,0-0.2,0.2-0.3V2.9c0,0,0-0.2,0.2-0.2l0,0l0,0c0-0.2-0.2-0.3-0.2-0.5c0,0,0-0.2-0.2-0.2c0,0,0,0-0.2-0.2l0,0l0,0
	c0,0,0.2,0,0.3,0c0.2,0,0.2,0,0.2,0.2c0,0,0,0.2,0.2,0.2l0.2,0.2l0,0l0,0l0,0l0,0V2.3c0-0.2,0-0.2,0-0.3c0,0,0,0,0-0.2s0-0.2,0-0.3
	c0.2-0.2,0-0.3,0-0.5s0-0.2-0.2-0.3V0.6l0,0c0,0,0-0.2,0.2-0.2l0,0l0,0c0,0,0,0.2,0.2,0.2c0,0.2,0,0.2,0.2,0.3
	c0,0.2,0.2,0.3,0.2,0.6v0.2c0,0,0,0.2,0.2,0.2l0,0l0,0c0,0,0,0,0-0.2c0,0,0,0,0-0.2V1.4c0-0.2,0-0.3,0-0.5s0-0.3,0-0.5s0-0.2,0-0.3
	c0,0,0,0,0-0.2l0,0h0.2c0,0,0,0,0,0.2v0.2c0,0.2,0,0.2,0,0.3s0,0.3,0,0.3l0,0c0,0.2,0,0.3,0,0.5s0,0.2,0,0.3l0,0l0,0l0,0l0,0l0,0
	l0,0c0.6-0.3,0.8-0.6,0.8-0.8c0,0,0,0,0-0.2s0-0.2,0.2-0.3c0,0,0-0.2,0.2-0.2l0,0H11l0,0c0,0,0,0,0,0.2v0.2c0,0.2,0,0.2,0,0.3
	c0,0,0,0.2,0,0.3s-0.2,0.5-0.2,0.6c0,0,0,0,0,0.2l0,0l0,0l0,0c0,0,0-0.2,0.2-0.2c0-0.2,0.2-0.3,0.3-0.5l0,0c0,0,0-0.2,0.2-0.2l0,0
	h0.2l0,0c0,0,0,0,0,0.2v0.2c0,0,0,0.2-0.2,0.2c0,0.2-0.2,0.3-0.3,0.6 M9.1,3.3L9.1,3.3c0,0.2,0,0.2-0.2,0.3c0,0.3-0.2,0.5-0.2,0.8
	c0,0,0,0,0,0.2c0,0.2,0,0.2,0,0.3V5c0,0,0,0,0,0.2c0,0,0,0,0,0.2l0,0l0,0l0,0l0,0c0,0,0.2-0.2,0.2-0.3c0,0,0,0,0-0.2
	c0.3-0.3,0.3-0.5,0.5-0.5h0.2h0.2l0,0l0,0c0-0.2,0-0.2,0-0.3V3.9c0-0.2,0-0.2-0.2-0.3c0,0,0,0-0.2,0l0,0c0,0,0,0-0.2-0.2L9.1,3.3
	L9.1,3.3z M6.5,3.6L6.5,3.6c0.2,0.2,0.2,0.3,0.3,0.5l0.2,0.2l0,0l0,0c0,0,0,0,0-0.2c0-0.2-0.2-0.5-0.2-0.6V3.3V3.2l0,0
	C6.8,3.3,6.6,3.5,6.5,3.6z"/>
<g>
	<g>
		<g>
			
				<rect x="15.3" y="8.5" transform="matrix(0.9997 -2.491651e-002 2.491651e-002 0.9997 -0.2182 0.3893)" class="st2" width="0.5" height="0.9"/>
			<g>
				<polygon class="st1" points="15.7,9.4 15.4,8.5 15.3,9.4 				"/>
			</g>
		</g>
	</g>
</g>
<line class="st3" x1="15.4" y1="8.8" x2="15.4" y2="10.5"/>
<g>
	<path class="st1" d="M14.2,8.8c0,0,0.5-0.5,1.2-0.6c0.3,0,0.6,0.2,0.9,0.3c0.2,0.2,0.3,0.3,0.3,0.3s-0.2-0.2-0.3-0.3
		s-0.5-0.3-0.8-0.2c-0.3,0-0.6,0.2-0.8,0.3C14.4,8.6,14.2,8.8,14.2,8.8z"/>
</g>
</svg>
