<?xml version="1.0" encoding="UTF-8" standalone="no"?>
<!DOCTYPE svg PUBLIC "-//W3C//DTD SVG 1.1//EN" "http://www.w3.org/Graphics/SVG/1.1/DTD/svg11.dtd">
<svg viewBox="0 0 1280 720" height="720.0pt" width="1280.0pt" xmlns="http://www.w3.org/2000/svg" version="1.1">
<path d="M 0.00 0.00 L 1280.00 0.00 L 1280.00 720.00 L 0.00 720.00 L 0.00 0.00 Z" fill="#ffffff" />
<path d="M 687.91 148.60 C 691.90 150.43 694.45 153.58 697.00 157.02 C 697.60 157.90 698.28 158.91 698.43 159.98 C 697.80 163.10 696.31 166.06 695.71 169.21 L 696.94 170.84 C 700.13 170.12 703.91 167.32 705.34 164.35 C 706.02 160.76 705.41 156.92 705.70 153.27 C 707.41 156.09 708.83 158.79 708.36 162.21 C 708.18 167.03 704.41 169.30 701.39 172.46 C 709.27 175.56 716.81 176.32 724.12 181.01 C 726.51 182.48 728.05 184.61 729.59 186.90 C 724.92 184.72 720.72 181.77 715.91 179.87 C 719.94 184.13 726.32 188.45 728.22 194.13 C 728.85 197.42 728.94 201.61 725.44 203.33 C 720.75 206.37 716.35 205.11 711.22 205.96 C 709.12 207.06 707.31 208.70 705.27 209.87 C 703.66 210.66 701.58 210.59 699.82 210.82 C 697.59 214.14 695.69 218.07 692.18 220.21 C 690.22 221.39 688.14 222.61 685.92 223.22 C 682.41 222.63 679.37 220.00 678.18 216.64 C 676.24 211.72 675.98 205.89 675.13 200.69 C 674.20 205.70 673.77 210.76 673.62 215.84 C 672.94 215.76 672.26 215.69 671.59 215.62 C 671.47 211.94 671.28 208.12 671.87 204.48 C 672.85 197.86 675.60 191.91 677.05 185.29 C 673.97 185.80 670.52 186.89 667.40 186.42 C 663.11 185.06 660.17 181.90 658.09 178.02 C 661.94 179.78 665.07 183.03 669.03 184.43 C 673.21 184.31 676.34 182.25 679.43 179.67 C 675.81 177.98 671.18 177.39 667.98 175.04 C 665.73 170.94 665.03 165.83 664.04 161.30 C 664.77 161.46 665.51 161.63 666.24 161.80 C 667.16 165.12 667.94 168.55 669.26 171.73 C 670.20 175.12 675.14 175.12 677.94 176.02 C 675.98 173.03 672.35 170.16 673.58 166.17 C 674.48 163.18 676.18 159.16 679.09 157.67 C 682.03 157.33 685.19 157.71 687.89 158.93 C 691.23 160.59 691.87 164.37 693.19 167.51 C 693.89 164.96 696.95 160.63 694.65 158.33 C 692.35 155.07 689.63 152.27 687.91 148.60 Z" fill="#70ac48" />
<path d="M 700.69 177.67 C 706.76 180.34 712.47 184.18 717.65 188.29 C 720.96 190.83 722.83 194.28 724.46 198.04 C 719.72 200.50 714.67 201.96 709.60 199.42 C 705.37 196.83 702.25 192.26 700.38 187.74 C 698.98 184.72 700.10 180.81 700.69 177.67 Z" fill="#ffffff" />
<path d="M 681.84 188.36 C 685.35 189.38 689.11 190.61 690.98 194.00 C 693.68 198.43 695.65 204.42 694.36 209.58 C 693.17 213.14 689.84 217.14 685.96 217.69 C 683.76 218.31 682.96 215.13 682.28 213.62 C 679.94 205.60 680.28 196.50 681.84 188.36 Z" fill="#ffffff" />
<path d="M 602.17 228.67 C 605.63 227.91 609.82 227.79 612.56 230.41 C 616.93 233.91 616.84 241.10 612.97 244.94 C 608.95 249.29 601.50 248.72 597.93 244.07 C 593.35 239.05 596.21 230.98 602.17 228.67 Z" fill="#70ac48" />
<path d="M 582.23 254.30 C 585.50 254.06 589.26 254.97 591.51 257.49 C 595.47 262.38 593.90 270.56 588.11 273.31 C 583.60 276.01 577.30 273.28 574.90 268.96 C 571.12 263.56 575.81 254.71 582.23 254.30 Z" fill="#70ac48" />
<path d="M 613.68 256.78 C 617.06 255.48 621.76 255.89 624.51 258.41 C 629.85 262.77 628.77 272.72 622.08 275.31 C 617.30 277.74 611.85 275.08 609.01 271.02 C 606.26 265.70 608.39 259.46 613.68 256.78 Z" fill="#70ac48" />
<path d="M 523.39 269.66 C 524.99 270.59 525.84 272.54 526.64 274.12 C 529.49 280.53 532.10 287.05 534.62 293.59 C 532.51 293.58 529.77 292.96 527.79 293.85 C 523.75 296.56 522.51 301.81 523.81 306.33 C 525.72 311.78 533.47 314.63 538.30 311.30 C 538.89 308.85 538.81 306.18 538.99 303.68 C 541.42 308.53 543.51 313.52 545.59 318.53 C 542.27 319.24 538.90 319.71 535.55 320.30 C 527.30 321.87 519.34 324.86 512.11 329.13 C 507.42 331.87 503.18 335.55 498.84 338.80 C 494.39 329.65 490.61 320.17 486.56 310.84 C 484.03 304.51 480.67 298.35 478.87 291.77 C 477.70 287.85 481.16 285.84 484.16 284.43 C 493.81 280.28 503.67 276.66 513.15 272.10 C 516.33 270.74 519.83 268.69 523.39 269.66 Z" fill="#70ac48" />
<path d="M 557.57 280.84 C 562.18 279.32 567.37 280.92 570.07 285.03 C 573.66 290.10 571.08 297.52 565.40 299.75 C 561.29 301.58 556.95 300.10 553.93 297.02 C 549.22 292.56 551.63 283.00 557.57 280.84 Z" fill="#70ac48" />
<path d="M 594.18 287.72 C 597.80 286.76 602.37 287.08 605.07 289.99 C 609.75 294.22 608.39 303.06 602.75 305.89 C 598.05 308.82 591.33 306.53 588.90 301.72 C 586.91 296.52 588.62 289.83 594.18 287.72 Z" fill="#70ac48" />
<path d="M 631.35 288.76 C 635.00 288.45 640.26 291.53 641.48 295.05 C 642.04 298.13 642.34 302.54 640.17 305.09 C 638.32 307.55 635.10 309.33 632.00 309.31 C 628.22 308.83 624.22 306.49 622.61 302.92 C 622.00 299.51 622.07 295.23 624.44 292.46 C 626.18 290.48 628.77 289.20 631.35 288.76 Z" fill="#70ac48" />
<path d="M 546.97 329.33 C 563.73 328.58 580.79 335.55 592.56 347.44 C 599.82 354.33 604.15 362.76 607.90 371.90 C 613.14 383.84 617.80 396.02 623.17 407.90 C 630.00 424.07 637.19 440.07 643.91 456.27 C 646.18 461.98 649.17 467.50 650.94 473.38 C 652.47 478.33 650.19 483.23 646.70 486.70 C 643.23 490.03 637.81 491.75 633.46 493.73 C 612.43 502.60 591.60 511.79 570.62 520.76 C 565.61 522.93 560.64 525.60 555.38 527.13 C 550.99 528.16 545.59 528.08 542.00 524.96 C 537.88 521.66 536.15 516.39 534.08 511.72 C 522.76 484.46 510.76 457.55 499.34 430.36 C 495.44 421.23 490.74 411.87 488.64 402.13 C 483.21 375.86 497.94 346.37 522.49 335.33 C 530.28 331.76 538.32 329.26 546.97 329.33 Z" fill="#70ac48" />
<path d="M 557.45 387.90 C 574.69 384.94 592.91 393.10 601.23 408.63 C 605.89 417.02 606.66 426.52 605.19 435.86 C 602.25 451.87 589.06 465.37 573.03 468.35 C 566.35 469.01 558.85 469.21 552.46 466.88 C 542.59 463.58 533.60 456.68 528.87 447.27 C 523.69 437.62 522.97 425.96 526.46 415.62 C 530.77 401.91 543.16 390.32 557.45 387.90 Z" fill="#ffffff" />
<path d="M 571.66 398.31 C 563.92 416.85 556.84 435.66 549.18 454.24 C 541.96 450.01 537.12 442.95 535.27 434.85 C 531.72 420.35 540.88 403.64 555.21 399.19 C 560.59 397.15 566.08 397.37 571.66 398.31 Z" fill="#70ac48" />
<path d="M 582.14 402.83 C 590.48 408.26 595.92 417.94 595.61 427.98 C 596.29 440.37 587.75 452.63 576.22 456.91 C 570.55 459.16 564.97 458.63 559.00 458.50 C 562.09 447.34 567.10 437.59 571.05 426.76 C 573.96 419.62 576.78 412.45 579.59 405.28 C 580.09 404.52 580.83 401.83 582.14 402.83 Z" fill="#70ac48" /></svg>