<?xml version="1.0" encoding="utf-8"?>
<!-- Generator: Adobe Illustrator 19.2.1, SVG Export Plug-In . SVG Version: 6.00 Build 0)  -->
<svg version="1.1" id="Capa_1" xmlns="http://www.w3.org/2000/svg" xmlns:xlink="http://www.w3.org/1999/xlink" x="0px" y="0px"
	 viewBox="25.5 32.6 50 22" enable-background="new 25.5 32.6 50 22" xml:space="preserve">
<g>
	<path fill="#6E8935" d="M31.6,51.1c0,1.9,1.5,3.4,3.4,3.4c1.9,0,3.5-1.6,3.4-3.5c0-1.9-1.6-3.4-3.5-3.4
		C33.1,47.7,31.6,49.2,31.6,51.1z"/>
	<path fill="#6E8935" d="M64.6,47.7c-1.9,0-3.4,1.5-3.5,3.4c0,1.9,1.6,3.5,3.5,3.5c1.9,0,3.4-1.6,3.4-3.5
		C68.1,49.2,66.5,47.7,64.6,47.7z"/>
	<g>
		<path fill="#6E8935" d="M72.2,49.8c0.1-0.7,0.1-1.4,0.2-2.2c-1-0.1-1.9-0.1-2.8-0.2C69.8,48.3,71.2,49.6,72.2,49.8z"/>
		<path fill="#6E8935" d="M75.5,39.5c-0.2-1.1-0.3-2.1-0.6-3.2c-0.5-1.6-1.4-2.3-2.8-2.7c-0.4-0.1-0.8-0.3-1.2-0.5
			c-0.4-0.2-0.8-0.4-1.2-0.4c-14.3,0-28.6,0-42.9,0c-0.3,0-0.5,0-0.8,0c0,0.3-0.1,0.5-0.1,0.8c-0.2,3-0.4,6-0.4,8.9
			c0,3.2,0.3,6.4,0.5,9.6c0,0.2,0.3,0.5,0.4,0.5c1.5,0,3,0,4.5,0c0-0.5,0-0.8,0-1.2c0-2.4,1.8-4.2,4.1-4.2c2.3,0,4.1,1.8,4.1,4.1
			c0,0.4,0,0.8,0,1.2c3.2,0,6.2,0,9.3,0c0-7.6,0-13.5,0-17.6c0.1,0,0.2,0,0.3,0c0,4.2,0,10,0,17.6c2.1,0,4.1,0,6.1,0
			c0-7.6,0-13.4,0-17.5c0.2,0,0.2,0,0.2,0c0,4.1,0,9.9,0,17.5c1.9,0,3.6,0,5.4,0c0-0.6,0-1.1,0-1.7c0.2-2.1,2-3.7,4.1-3.7
			c2.2,0,3.9,1.7,4.1,3.9c0,0.5,0.1,0.9,0.1,1.5c1,0,2,0,3,0c0.5,0,0.7-0.2,0.7-0.6c0.2-1.9,0.4-3.7,0.5-5.6c0.2-4,0-8-1.5-11.8
			c0-0.1,0-0.1,0-0.2c0.4,0.2,0.8,0.3,1.2,0.5c0.8,0.2,1.1,0.9,1.2,1.6c0,0.3-0.3,0.6-0.3,0.8c0,0.9,0.1,1.8,0.1,2.6
			c0,0.4,0.3,0.7,0.7,0.6C75,40.1,75.6,40.3,75.5,39.5z M31.5,41.1c-0.9,0-1.9,0-2.8,0c-1.1,0-1.3-0.3-1.3-1.4c0-1.2,0-0.8,0-2
			c0-0.6,0-1.2,0-1.8c0-0.6,0.3-1,0.9-1c1.1,0,2.1,0,3.2,0c0.7,0,1,0.3,0.9,0.9c0,1,0,1.9,0,2.9c0,0,0,0,0,0c0,1,0,0.2,0,1.2
			C32.6,40.8,32.3,41.1,31.5,41.1z M38.4,40.3c0,0.6-0.3,0.9-0.9,0.9c-1.1,0-2.1,0-3.2,0c-0.8,0-1-0.2-1-1c0-1,0-0.2,0-1.2
			c0,0,0,0,0,0c0-1,0-2,0-3c0-0.7,0.2-1,1-1c1.1,0,2.1,0,3.2,0c0.5,0,0.9,0.2,0.9,0.8C38.4,37.8,38.4,38.2,38.4,40.3z M39.4,35.7
			c0.1-0.3,0.4-0.7,0.7-0.7c0.8-0.1,1.6,0,2.5,0c0,0.9,0,1.7,0,2.5c-1.1,0-2.1,0-3.2,0C39.4,36.9,39.3,36.3,39.4,35.7z M47.9,40.5
			c0,0.5-0.4,0.7-0.8,0.7c-2.3,0-4.5,0-6.8,0c-0.7,0-1-0.4-1-1c0-1.3,0-0.8,0-2.1c2.9,0,5.7,0,8.6,0C47.9,39.4,47.9,39.1,47.9,40.5z
			 M47.9,37.5c-1.5,0-3,0-4.6,0c0-0.8,0-1.6,0-2.5c1.3,0,2.6,0,4,0c0.2,0,0.6,0.4,0.6,0.7C48,36.3,47.9,36.9,47.9,37.5z M53.4,41.2
			c-1.1,0-2.1,0-3.2,0c-0.7,0-0.9-0.3-0.9-1c0-1,0-0.2,0-1.2c0-1,0-2,0-3c0-0.8,0.2-1,1-1c1,0,2.1,0,3.1,0c0.6,0,1,0.3,1,0.9
			c0,2,0,2.3,0,4.3C54.3,40.8,54.1,41.2,53.4,41.2z M62.1,40.2c0,0.6-0.3,1-0.9,1c-1.5,0-3.1,0-4.6,0c-0.7,0-0.9-0.3-0.9-1
			c0-1,0-0.3,0-1.3c0-1,0-1.9,0-2.9c0-0.7,0.3-1,1-1c1.5,0,3,0,4.5,0c0.7,0,1,0.3,1,1C62.1,38,62.1,38.2,62.1,40.2z M69.2,42.4
			c-1.8-0.3-3.6-0.7-5.4-1c-0.7-0.1-1-0.6-1-1.3c0-1.9,0-2.1,0-4.1c0-0.8,0.3-1,1-1c0.7,0,1.3,0,2,0c0.6,0,1.2,0,1.8,0
			c0.8,0,1.2,0.3,1.3,1.1c0.4,2.4,0.7,3,1,5.4C70.2,42.2,69.9,42.5,69.2,42.4z M72,44.1c-0.6,0-0.9-0.3-1-0.8
			c-0.4-2.6-0.8-5.3-1.2-7.9c0-0.3,0.2-0.6,0.4-0.8C71.5,37.6,72,40.8,72,44.1z"/>
	</g>
	<path fill="#6E8935" d="M31.6,51.1c0-1.9,1.5-3.5,3.4-3.5c1.9,0,3.5,1.5,3.5,3.4c0,1.9-1.5,3.5-3.4,3.5
		C33.1,54.6,31.6,53,31.6,51.1z M36.8,51.1c0-1.1-0.8-1.8-1.8-1.8c-1,0-1.8,0.8-1.8,1.8c0,0.9,0.8,1.8,1.8,1.8
		C36,52.9,36.8,52.1,36.8,51.1z"/>
	<path fill="#6E8935" d="M64.6,47.7c1.9,0,3.4,1.5,3.4,3.4c0,1.9-1.5,3.5-3.4,3.5c-1.9,0-3.5-1.6-3.5-3.5
		C61.2,49.2,62.7,47.7,64.6,47.7z M66.4,51.1c0-1-0.8-1.8-1.7-1.8c-1,0-1.8,0.8-1.8,1.8c0,0.9,0.8,1.8,1.8,1.8
		C65.6,52.9,66.4,52.1,66.4,51.1z"/>
</g>
<path fill="none" stroke="#6E8935" stroke-width="0.2971" stroke-linecap="round" stroke-miterlimit="10" d="M85.6,48.6"/>
<g>
	<path fill="none" stroke="#FFFFFF" stroke-width="0.4" stroke-linecap="round" stroke-miterlimit="10" d="M40.7,46.5
		c-1.4,1.2-1.4,3.4-0.2,4.6c1.1,1.1,3.1,1,4.3-0.2"/>
	<polyline fill="none" stroke="#FFFFFF" stroke-width="0.4" stroke-linecap="round" stroke-miterlimit="10" points="42.6,44.5 
		42.6,48.3 45.4,48.3 46.2,50.2 47.6,50.2 	"/>
	<circle fill="#FFFFFF" cx="42.6" cy="42.8" r="1.3"/>
</g>
</svg>
