<?xml version="1.0" encoding="utf-8"?>
<!-- Generator: Adobe Illustrator 19.2.1, SVG Export Plug-In . SVG Version: 6.00 Build 0)  -->
<svg version="1.1" xmlns="http://www.w3.org/2000/svg" xmlns:xlink="http://www.w3.org/1999/xlink" x="0px" y="0px"
	 viewBox="0 0 30 40.4" style="enable-background:new 0 0 30 40.4;" xml:space="preserve">
<style type="text/css">
	.st0{fill:#6E8935;}
</style>
<g id="Background">
</g>
<g id="Objects">
	<path class="st0" d="M6.3,22.3c0,1.2,0,2.3,0,3.4c0,0.2,0.2,0.4,0.3,0.6c0.1,0,0.2-0.1,0.3-0.1c0-1.3,0-2.6,0-3.9
		c0.3-0.1,0.6-0.2,1-0.3c-0.1-3.3-0.2-6.6-0.3-9.9c-0.1,0-0.2,0-0.3,0c-0.6,0.5-1.1,1-1.7,1.6c-0.1,0.1-0.2,0.3-0.2,0.4
		c0,2.7,0,5.3,0,8C5.8,22.2,6,22.2,6.3,22.3z"/>
	<path class="st0" d="M30,28.4c0,0.7,0,1.3,0,1.9c-0.3,0-0.7,0-1.1,0.1c0,8.8,0,1.2,0,10c-1.4,0-2.7,0-4.1,0c0-8.8,0-1.2,0-10
		c-6.6,0-13.1,0-19.7,0c0,8.8,0,1.2,0,10c-1.4,0-2.7,0-4.1,0c0-8.8,0-1.1,0-10c-0.4,0-0.6-0.1-1-0.1c0-0.6,0-1.1,0-1.8
		c5.3,0,10.6,0,15.9,0c0-0.6,0.1-1.1,0.1-1.7c0.7,0,1.5,0,2.2,0c0-5,0-9.9,0-14.8c1-0.4,2.1-0.9,3.1-1.3c0.2-0.1,0.4,0,0.6,0
		c1.2,0.2,2.1-0.3,2.4-1.3c0.3-1-0.1-2-1-2.4c-0.9-0.4-1.9-0.1-2.6,0.8c-0.1,0.2-0.3,0.4-0.7,0.5c0-1.1,0-2.3,0-3.4
		c-0.7-0.3-0.9-0.1-0.9,0.5c0,0.9,0,1.8,0,2.7C19.3,8.8,19,9,18.4,9c0-1.4,0-2.7,0-4.1c-0.3,0-0.5,0-0.9,0c0,1.6,0,3.1,0,4.5
		c-1-0.4-1.8-1-2.8-1.2c-0.9-0.2-1.9,0.1-2.9,0.2C11.3,6.6,10.5,6,8.9,6.2C8.2,5.6,7.5,5,6.9,4.5c0,0-0.1,0.1-0.1,0.1
		c0-0.1,0-0.3,0-0.4c0-1.1,0-1.1,1.1-1.1c1.3,0,2.7,0,4.1,0c0-1.1,0-2.1,0-3.1c3.7,0,7.3,0,11,0c0,1,0,2,0,3.1c0.7,0,1.3,0,2,0
		c0,3.1,0,6.1,0,9.1c-0.5,0-1,0-1.6,0.1c0,4.8,0,9.6,0,14.5c0.8,0,1.6,0,2.5,0c0,0.6,0.1,1.1,0.1,1.6C27.2,28.4,28.5,28.4,30,28.4z"
		/>
	<g>
		<path class="st0" d="M23.1,7.6c-0.6-0.3-1.3-0.1-1.7,0.6c-0.1,0.2-0.3,0.5-0.5,0.6c-1.3,0.5-2.5,1.1-3.8,1.6
			c-0.1-0.1-0.2-0.1-0.2-0.2c-1.6-1.7-3.7-1.9-5.4-0.4c-1.3,1.1-1.7,4.3,0.9,5.7c0.2,0.1,0.6,0.5,0.6,0.7c-0.1,1.3-0.3,2.5-0.5,3.8
			c0,0.2-0.3,0.4-0.4,0.6c-0.6,0.6-0.6,1.3-0.2,1.9c0.4,0.5,1.2,0.6,1.8,0.2c0.6-0.4,0.7-1.1,0.3-1.8c-0.1-0.3-0.3-0.6-0.2-0.8
			c0.1-1.2,0.3-2.3,0.5-3.5c0-0.2,0.3-0.5,0.5-0.6c2-0.6,2.9-1.8,2.9-3.8c0-0.2,0.2-0.6,0.4-0.7c1-0.5,2.1-0.9,3.2-1.3
			c0.3-0.1,0.6-0.1,0.9,0c0.8,0.2,1.4-0.1,1.6-0.8C24,8.6,23.7,7.9,23.1,7.6z M14,14.3c-1.1,0-1.9-0.9-1.9-1.9c0-1,0.9-1.9,1.9-1.9
			c1.1,0,2,0.9,2,2C15.9,13.4,15,14.3,14,14.3z"/>
	</g>
	<path class="st0" d="M8.6,21.9c-0.3-0.1-0.6-0.1-0.9-0.2c0-2.7,0-5.3,0-8c0-0.1,0.1-0.3,0.2-0.4c0.6-0.5,1.1-1.1,1.7-1.6
		c0.1,0,0.2,0,0.3,0c0.1,3.3,0.2,6.6,0.3,9.9c-0.4,0.1-0.6,0.2-1,0.3c0,1.3,0,2.6,0,3.9c-0.1,0-0.2,0.1-0.3,0.1
		c-0.1-0.2-0.3-0.4-0.3-0.6C8.6,24.2,8.6,23.1,8.6,21.9z"/>
	<path class="st0" d="M5.1,27.2c0.2-0.2,0.4-0.5,0.6-0.5c1.6,0,3.3,0,4.9,0c0.2,0,0.3,0.3,0.5,0.4c-0.1,0.1-0.3,0.4-0.4,0.4
		c-1.6,0-3.2,0-4.8,0c-0.2,0-0.4,0-0.7,0C5.2,27.3,5.2,27.3,5.1,27.2z"/>
</g>
</svg>
