<?xml version="1.0" encoding="utf-8"?>
<!-- Generator: Adobe Illustrator 19.2.1, SVG Export Plug-In . SVG Version: 6.00 Build 0)  -->
<svg version="1.1" id="Calque_1" xmlns="http://www.w3.org/2000/svg" xmlns:xlink="http://www.w3.org/1999/xlink" x="0px" y="0px"
	 viewBox="0 0 30 27.6" style="enable-background:new 0 0 30 27.6;" xml:space="preserve">
<style type="text/css">
	.st0{fill:#6E8935;}
	.st1{fill:#FFFFFF;}
	.st2{fill:#6E8935;stroke:#FFFFFF;stroke-width:6.758385e-002;stroke-miterlimit:10;}
	.st3{fill:none;}
	.st4{fill:#FFFFFF;stroke:#6E8935;stroke-width:0.1352;stroke-miterlimit:10;}
	.st5{fill:none;stroke:#6E8935;stroke-width:0.1352;stroke-miterlimit:10;}
</style>
<path class="st0" d="M13.7,25.2c-4.2,0.1-11,1.4-13.7,2.3l0,0c1.8-0.3,6.5,1.2,15.5-1.2h0.3c0.2,0,6.3-0.4,14.3,1.2
	c0,0-5.1-1.4-6.6-1.6c-1.5-0.3-1.5-0.3-1.5-0.3S18,24.9,13.7,25.2z"/>
<rect x="12.3" y="2.7" class="st1" width="3.1" height="3.8"/>
<rect x="18" y="2.7" class="st1" width="3.2" height="3.8"/>
<path class="st2" d="M20.1,24.6C20.1,24.8,20,24.8,20.1,24.6c-0.1,0.2-0.1,0.2-0.3,0.2l0,0l0,0c0,0,0,0,0.2,0.2l0,0l0,0
	c0,0,0,0,0,0.1l0,0c0,0,0,0-0.2,0l0,0l0,0l0,0c0,0,0,0,0.2,0l0,0l0,0c0,0,0,0,0-0.1l0,0l0,0l0,0c0,0,0,0,0-0.2c0,0,0,0.2,0,0l0,0
	c0,0,0,0,0.1,0l0,0H20l0,0l0,0l0,0l0,0l0,0l0,0c0,0,0,0,0,0.2l0,0l0,0c0,0,0,0,0-0.2l0,0C20,24.8,20,24.8,20.1,24.6
	c-0.1,0-0.1,0.2,0,0.2C20.1,24.8,20.1,24.8,20.1,24.6L20.1,24.6h0.2l0,0c0,0.2,0,0.2,0,0.2l0,0l0,0v0.2c0,0,0,0-0.2,0l-0.1,0.1l0,0
	v-0.1l0,0l0,0l0,0c0,0-0.1,0-0.1,0.1v0.1c0,0,0-0.1-0.2-0.1l0,0v0.1c0,0,0,0,0,0.2l0,0l0,0h0.2l0,0l0,0l0,0l0,0l0,0
	c0.1,0,0.1,0,0.3,0l0,0l0,0c0,0,0,0,0-0.2l0.1-0.1c0,0,0,0,0,0.1l0,0v0.2l0,0l0,0l0,0c0,0,0,0,0-0.2l0,0l0,0l0,0l0,0l0,0l0,0
	c0,0,0,0,0-0.1l0,0l0,0l0,0l0,0l0,0l0,0l0,0c0,0,0,0,0,0.1c0,0,0,0,0.2,0l0,0l0,0c0,0,0,0,0,0.2l0,0l0,0l0,0c0,0,0,0-0.2,0l0,0l0,0
	l0,0c0.6,0,1.2,0.2,1.8,0.2c0.1,0,0.3,0,0.4,0l0,0c0,0,0,0,0.2,0l0,0l0,0h0.1H23c0,0,0,0,0.1,0l0,0c0,0,0.2,0,0.2,0.1l0,0l0,0l0,0
	l0,0l0,0l0,0c0,0,0,0-0.2,0l0,0l0,0l0,0c0,0,0,0,0-0.1l0,0l0,0c0.2,0,0.2,0,0.2,0.1l0,0l0,0h0.1c0,0,0,0,0.2,0l0,0h0.1l0,0l0,0l0,0
	l0,0l0,0c0,0,0,0,0.2,0c0,0,0,0,0.1,0l0,0l0,0l0,0l0,0l0,0l0,0l0,0c0,0,0,0-0.2-0.1l0,0h-0.2l0,0l0,0c0,0,0,0,0.2,0c0,0,0,0,0.2,0
	l0,0l0,0l0,0c0-0.2,0.1-0.3,0.3-0.5l0,0c0,0,0,0-0.1,0l0,0l0,0l0,0c0,0,0-0.1-0.1,0l0,0c0,0,0,0-0.2,0c0,0,0,0,0-0.1v0.1l0,0
	c0-0.1,0-0.1-0.2-0.1c0,0,0,0,0-0.1l0,0l0,0v0.1l0,0l0,0l0,0c0,0,0,0,0.2,0l0,0l0,0l0,0l0,0l0,0l0,0l0,0l0,0c0,0,0-0.1,0.2,0
	c0,0,0,0,0,0.1c0,0,0,0,0.1,0l0,0l0,0c0,0,0,0,0-0.1l0,0c0,0,0,0,0-0.1l0,0l0,0l0,0c0-0.2,0.1,0,0.1-0.2h-0.1l0,0l0,0c0,0,0,0,0,0.2
	l0,0c0,0,0-0.2,0.1-0.2l0,0l0,0l0,0l0,0l0,0l0,0l0,0l0,0l0,0l0,0l0,0c0,0,0,0-0.1,0.2l0,0l0,0l0,0l0,0l0,0v-0.2l0,0l0,0l0,0
	c0,0,0,0-0.1-0.2c0,0.2,0,0.2-0.2,0.2v-0.2l0,0l0,0c0,0,0,0,0-0.1c0.2,0,0.2-0.1,0.3-0.1c0,0-0.1,0.1-0.1,0h-0.2c0,0,0.2,0,0.2-0.2
	l0,0l0,0l0,0c0,0,0,0,0,0.2h-0.2l0,0l0,0V24l0,0l0,0c0,0,0,0,0-0.2c0-0.1,0-0.1,0.2-0.1c0,0,0,0,0.1,0l0,0l0,0l0,0v0.1l0,0l0,0l0,0
	l0,0l0,0c0,0,0,0,0.1,0c0,0,0,0,0-0.1c-0.1,0-0.1,0-0.1,0l0,0l0,0h0.1c0,0,0,0,0.2,0l0,0l0,0c0,0,0,0,0-0.1l0,0l0,0l0,0l0,0l0,0l0,0
	l0,0l0,0l0,0l0,0l0,0l0,0l0,0h-0.2l0,0l0,0v-0.2h-0.1c0,0,0,0,0-0.2c0,0,0,0,0-0.1l0,0c0,0,0,0-0.1,0v-0.1c0,0-0.2,0-0.2,0.1
	c0,0,0,0,0.2,0l0,0c0,0,0,0-0.2,0c0,0,0,0-0.2,0.1c0,0,0,0,0,0.2l0,0l0,0v-0.2l0,0c0,0,0,0,0.2,0v0.2c0,0,0,0-0.2,0c0,0,0,0,0,0.2
	l0,0l0,0l0,0l0,0l0,0v-0.2c0,0,0,0-0.1,0c0,0,0,0,0.1,0l0,0l0,0l0,0h-0.1v0.2c0,0,0,0-0.1,0l0,0l0,0l0,0l0,0l0,0c0,0.1,0,0.1,0,0.1
	l0,0h-0.2c0,0,0-0.1-0.2-0.1c0,0,0,0.1-0.1,0.1l0,0l0,0l0,0h0.1c0,0,0,0,0-0.1c0,0,0,0,0-0.2c0,0,0,0,0-0.2l0,0c0,0,0,0,0-0.1
	c0,0,0,0,0-0.1c0,0,0,0,0-0.2l0,0v-0.2c0,0,0,0-0.1,0v0.2c0,0-0.1,0-0.1-0.2l0,0l0,0c0,0,0,0,0-0.1c0,0,0,0-0.2,0l0,0
	c0,0-0.2,0-0.2-0.1l0,0c0,0,0,0,0-0.2l0,0l0,0l0,0V22l0,0c0-0.1,0-0.1-0.1,0l0,0l0,0l0,0l0,0l0,0l0,0l0,0l0,0l0,0l0,0c0,0,0,0-0.1,0
	l0,0l0,0l0,0l0,0v0.2l0,0l0,0c0,0,0,0-0.2,0l0,0V22c0,0,0,0.2-0.2,0.2l0,0l0,0l0,0l0,0c0,0.2,0,0.2,0,0.2v-0.2l0,0l0,0l0,0v0.2l0,0
	v-0.2c0,0,0,0-0.1,0V22c0,0,0,0,0-0.1l0,0c0,0,0,0-0.1,0V22l0,0v-0.1l0,0c0,0,0,0,0,0.1l0,0v0.2l0,0l0,0l0,0c0,0,0,0-0.2,0
	c0,0,0,0,0,0.2l0,0l0,0c0,0,0,0,0.2,0l0,0c0,0,0,0,0,0.1l0,0l0,0c0,0,0,0-0.2,0c0,0.1,0,0.1-0.2,0c0,0,0-0.1,0,0l0,0
	c0,0,0-0.1-0.1-0.1c0,0,0,0,0,0.1l0,0c0,0-0.1,0-0.1,0.1l0,0v-0.1c-0.2,0-0.2,0-0.2,0.2v0.1c0,0,0,0.1-0.2,0c0,0,0,0,0-0.1
	c0,0,0,0,0-0.2l0,0c0,0-0.1,0-0.1,0.2v0.1l0,0l0,0l0,0c0,0,0,0.1-0.1,0.1v-0.1c0,0,0,0,0-0.1l0,0c0,0,0,0,0,0.1l0,0l0,0l0,0
	c0,0,0,0,0,0.1l0,0l0,0c0,0,0,0,0.1,0h0.1l0,0c0,0.2,0,0.2-0.1,0.2l0,0l0,0l0,0l0,0l0,0c0,0,0,0,0-0.2c0,0,0,0.2-0.1,0.2h-0.2l0,0
	l0,0l0,0l0,0l0,0l0,0l0,0v0.2c0,0,0,0,0.2,0c0,0,0,0-0.2,0.1c0,0,0,0,0,0.1l0,0l0,0l0,0l0,0l0,0l0,0c0,0,0,0,0.2,0l0,0l0,0l0,0
	c0,0,0,0,0-0.1l0,0l0,0l0,0c0,0-0.2,0-0.2,0.1c0,0,0,0,0.2,0v0.2c0,0-0.2,0-0.2-0.2l0,0l0,0l0,0h-0.2v0.2l0,0l0,0l-0.1-0.2l0,0l0,0
	c0,0,0,0-0.1,0c0,0,0,0-0.2,0l0,0c0,0,0,0-0.2,0l0,0l0,0c0,0,0,0,0,0.2l0,0C20.1,24.4,20.1,24.4,20.1,24.6L20.1,24.6
	C20.1,24.4,20.1,24.6,20.1,24.6c0-0.1,0-0.1,0-0.1l0,0l0,0l0,0C20,24.4,20,24.4,20.1,24.6C20,24.6,20,24.6,20.1,24.6L20.1,24.6
	L20.1,24.6L20.1,24.6c0.2,0,0.2,0,0.2,0l0,0C20.1,24.8,20.1,24.8,20.1,24.6z M25.2,26.1L25.2,26.1L25.2,26.1L25.2,26.1L25.2,26.1
	C25.1,26.1,25.1,26.1,25.2,26.1z M20.3,24.8L20.3,24.8L20.3,24.8L20.3,24.8L20.3,24.8z"/>
<g>
	<rect x="6.8" y="9.3" class="st3" width="3.1" height="3.8"/>
	<rect x="18" y="9.3" class="st3" width="3.2" height="3.8"/>
	<rect x="12.3" y="9.3" class="st3" width="3.1" height="3.8"/>
	<path class="st0" d="M9.3,0v6.5H3.9v18.5h19.5v-0.5V0H9.3z M9.8,19.8h-3V16h3.1L9.8,19.8L9.8,19.8z M9.8,13h-3V9.3h3.1L9.8,13
		L9.8,13z M12.3,9.3h3.1V13h-3.1V9.3z M20.7,24.6h-3.5l0,0l0,0H14V16h3.5v-0.3V16h3.4v8.5H20.7z M21,13h-3V9.3h3V13z"/>
</g>
<rect x="1.2" y="19.9" transform="matrix(0.233 -0.9725 0.9725 0.233 -18.2493 21.5373)" class="st4" width="6.8" height="4.8"/>
<path class="st2" d="M5.9,19.7l-1.7-0.5c-0.2,0-0.3-0.3-0.3-0.5v-0.2c0-0.1,0.3-0.3,0.5-0.3L6,18.8c0.1,0,0.3,0.3,0.3,0.5v0.1
	C6.3,19.7,6.1,19.8,5.9,19.7z"/>
<line class="st5" x1="3.4" y1="20.4" x2="4.8" y2="20.7"/>
<line class="st5" x1="3.1" y1="21.5" x2="5.7" y2="22"/>
<line class="st5" x1="3" y1="22.3" x2="5.6" y2="23"/>
<line class="st5" x1="2.8" y1="23.3" x2="5.4" y2="23.8"/>
<polygon class="st0" points="4.2,19.3 4.4,19.5 4.4,19.7 4.2,19.7 "/>
<path class="st0" d="M4.2,19.7L4.2,19.7L4.2,19.7L4.6,20c0,0,0,0,0,0.1l0,0l0,0l0,0l0,0v0.2l0,0H4.5C4.5,20.3,4.2,19.7,4.2,19.7z"/>
<path class="st0" d="M6,23.1l-1.5-2.7h0.1v-0.2l0,0l0,0l0,0c0,0,0,0,0-0.1l1.5,2.8L6,23.1z"/>
<path class="st0" d="M4.4,24.2c0.3,0,0.4,0.1,0.8,0.1c-0.2,0.4-0.3,0.9-0.3,1.5c-0.3,0-0.4-0.1-0.8-0.1C4.2,25.2,4.4,24.6,4.4,24.2z
	"/>
<path class="st0" d="M4.1,24.6c-0.2,0.3-0.2,0.6-0.3,1.1c-0.3,0-0.4-0.2-0.8-0.2c0.1-0.3,0.1-0.6,0.3-1.1
	C3.6,24.4,3.9,24.4,4.1,24.6z"/>
<path class="st0" d="M3.8,24.3C3.6,24.2,3.4,24,3.4,24c-0.3,0.2-0.6,0.3-0.8,0.4c0-0.1-0.1-0.1-0.1-0.3c0.3-0.2,0.7-0.5,1-0.6
	c0.1,0.1,0.1,0.3,0.3,0.3c0.1-0.2,0.3-0.2,0.5-0.3c0,0.1,0.1,0.1,0.1,0.3C4.2,24,3.9,24.2,3.8,24.3z"/>
<path class="st0" d="M2.3,25.2c0-0.3,0.2-0.4,0.2-0.8c0.3,0,0.5,0.1,0.7,0.1C3,24.9,3,25.1,3,25.3C2.7,25.3,2.6,25.2,2.3,25.2z"/>
<path class="st0" d="M4.4,23.4c0.1,0,0.4,0,0.6,0c-0.2,0.1-0.2,0.3-0.3,0.6C4.6,23.7,4.5,23.5,4.4,23.4z"/>
<path class="st0" d="M4.4,23.5L4.4,23.5c0.1,0,0.3,0.2,0.3,0.2s-0.2,0-0.2,0.1C4.4,23.7,4.4,23.7,4.4,23.5z"/>
</svg>
