<?xml version="1.0" encoding="utf-8"?>
<!-- Generator: Adobe Illustrator 16.0.0, SVG Export Plug-In . SVG Version: 6.00 Build 0)  -->
<!DOCTYPE svg PUBLIC "-//W3C//DTD SVG 1.1//EN" "http://www.w3.org/Graphics/SVG/1.1/DTD/svg11.dtd">
<svg version="1.1" id="Calque_1" xmlns="http://www.w3.org/2000/svg" xmlns:xlink="http://www.w3.org/1999/xlink" x="0px" y="0px"
	 width="66.1px" height="99.7px" viewBox="0 0 66.1 99.7" style="enable-background:new 0 0 66.1 99.7;" xml:space="preserve">
<style type="text/css">
<![CDATA[
	.st0{fill:#6E8934;}
]]>
</style>
<g>
	<g>
		<path class="st0" d="M47.5,76.2H17.1c-1.7,0-3.2,1.4-3.2,3.2c0,1.7,1.4,3.2,3.2,3.2h30.4c1.7,0,3.2-1.4,3.2-3.2
			C50.6,77.6,49.2,76.2,47.5,76.2z"/>
		<path class="st0" d="M47.5,84.8H17.1c-1.7,0-3.2,1.4-3.2,3.2c0,1.7,1.4,3.2,3.2,3.2h30.4c1.7,0,3.2-1.4,3.2-3.2
			C50.6,86.2,49.2,84.8,47.5,84.8z"/>
		<path class="st0" d="M43.4,94.4c0,2.9-5,5.3-11.1,5.3c-6.2,0-11.1-2.4-11.1-5.3H43.4z"/>
	</g>
	<path class="st0" d="M66.1,33.1C66.1,14.8,51.3,0,33.1,0C14.8,0,0,14.8,0,33.1c0,7.9,2.8,15.1,7.4,20.8l0,0c0,0,9.1,11.4,9.1,19.3
		h16.6h16.6c0-7.9,9.1-19.3,9.1-19.3l0,0C63.3,48.2,66.1,40.9,66.1,33.1z M15.5,33.4c0-2.5,2.5-5.8,2.5-5.8L15.4,26l8.3,0.4l4,7.2
		l-2.3-1.4c0,0-2.8,4.7-4.2,7c-1.4,2.3-0.7,4.6-0.7,4.6C17.4,39.1,15.5,35.9,15.5,33.4z M30.9,46.6l-8-0.7c0,0-1.2-0.5-1.7-2.5
		c-0.5-2.1-0.3-2.4,0.3-3.6c0.6-1.2,1.6-2.5,1.6-2.5l7.8,0.4L30.9,46.6z M28.6,26.6l-7.9-4.2l4.3-6.7c0,0,1-0.9,3-0.3s2.3,0.9,3,1.9
		c0.8,1,1.5,2.6,1.5,2.6L28.6,26.6z M31.8,17.3C30.4,15,28,14.6,28,14.6c5.6-0.7,9.3-0.9,11.5,0.3c2.2,1.2,4,4.9,4,4.9l2.6-1.6
		l-4.2,7.2l-8.2,0.2l2.3-1.4C36,24.3,33.2,19.7,31.8,17.3z M44.4,45.9c-2.1,1.4-6.2,1.2-6.2,1.2l0.1,3L34,43l3.7-7.4l0.1,2.7
		c0,0,5.4-0.3,8.1-0.4c2.7-0.1,4.2-2,4.2-2C48.1,41.1,46.5,44.5,44.4,45.9z M49.5,35.6c-1.5,1.6-1.8,1.6-3.1,1.8s-3,0.1-3,0.1
		l-4-6.7l7.4-4.9l3.9,7C50.7,32.7,51,34,49.5,35.6z"/>
</g>
</svg>
