<svg xmlns="http://www.w3.org/2000/svg" width="84.133" height="123.062" viewBox="0 0 84.133 123.062"><g transform="translate(-700.49 -839.969)"><path d="M300.63,906.934c-.862-.164-2.477-.484-4.1-.78a7.9,7.9,0,0,0-4.2.045,9.67,9.67,0,0,0-2.9,1.925c-1.065.91-2.087,1.877-3.2,2.723-2.208,1.671-4.106,1.675-6.308.009-1.116-.845-2.135-1.817-3.207-2.721-.488-.41-.991-.8-1.5-1.189a6.18,6.18,0,0,0-5.044-.893c-1.5.26-2.984.614-4.489.839a4.949,4.949,0,0,1-4.175-.807,6.183,6.183,0,0,1-1.727-2.683c-.51-1.367-.983-2.75-1.431-4.139a6.6,6.6,0,0,0-4.494-4.493c-1.463-.474-2.915-.987-4.358-1.522a5.889,5.889,0,0,1-2.377-1.529,4.1,4.1,0,0,1-.976-3.4c.213-1.631.557-3.246.835-4.868a7.83,7.83,0,0,0-.05-4.106,10.1,10.1,0,0,0-1.944-2.945c-1.03-1.228-2.123-2.412-3.059-3.708a4.222,4.222,0,0,1-.012-5.26c.835-1.176,1.825-2.244,2.751-3.356a9.754,9.754,0,0,0,2.378-3.68,8.747,8.747,0,0,0-.07-3.749c-.277-1.576-.609-3.143-.82-4.727a4.055,4.055,0,0,1,2.4-4.576c1.538-.724,3.18-1.228,4.781-1.818a9.918,9.918,0,0,0,3.061-1.552,7.565,7.565,0,0,0,2.059-3.444c.556-1.533,1.078-3.078,1.686-4.589a5.668,5.668,0,0,1,1.008-1.56,3.929,3.929,0,0,1,3.608-1.244c1.649.2,3.279.551,4.917.832a8.044,8.044,0,0,0,4.108-.047,9.739,9.739,0,0,0,3.007-2c1.1-.935,2.166-1.922,3.328-2.773a4.466,4.466,0,0,1,6.035.063c1.1.837,2.122,1.782,3.174,2.686a10.091,10.091,0,0,0,3.009,2.018,7.814,7.814,0,0,0,4.15.054c1.59-.278,3.174-.619,4.775-.818a4.016,4.016,0,0,1,4.461,2.276c.666,1.378,1.134,2.85,1.685,4.282.256.666.489,1.343.752,2.007a5.709,5.709,0,0,0,3.492,3.359c1.412.522,2.847.975,4.258,1.5a14.031,14.031,0,0,1,1.943.9A4.1,4.1,0,0,1,320,851.787c-.135,1.312-.431,2.606-.642,3.91-.152.935-.319,1.871-.42,2.813a5.564,5.564,0,0,0,1.453,4.256c.969,1.16,1.989,2.277,2.958,3.438a12.1,12.1,0,0,1,1.1,1.567,4.126,4.126,0,0,1-.128,4.749c-.956,1.357-2.084,2.595-3.152,3.872a10.12,10.12,0,0,0-1.949,2.942,7.786,7.786,0,0,0-.051,4.1c.277,1.592.612,3.174.825,4.775a4.065,4.065,0,0,1-2.418,4.567c-1.454.689-3.015,1.153-4.526,1.726-.668.252-1.337.5-1.989.8a5.785,5.785,0,0,0-3.081,3.52c-.551,1.517-1.039,3.057-1.616,4.564a9.362,9.362,0,0,1-1,1.893C304.414,906.67,303.011,907.085,300.63,906.934Zm12.1-36.861A29.654,29.654,0,1,0,283.1,899.7,29.643,29.643,0,0,0,312.732,870.073Z" transform="translate(459.489 11.969)" fill="#618226"/><path d="M275.435,901.046a24.309,24.309,0,0,0,4.712-3.63,28.575,28.575,0,0,1,2.55-1.966,5.424,5.424,0,0,1,3.939-.818c1.934.3,3.848.721,5.784,1a13.066,13.066,0,0,0,3.018.082,4.265,4.265,0,0,0,3.312-2.388,26.993,26.993,0,0,0,1.98-5.124,12.844,12.844,0,0,1,1.708-3.662c.22-.3.491-.557.806-.911.165.656.313,1.217.448,1.78q2.872,11.958,5.741,23.914,2.076,8.626,4.165,17.25a1.829,1.829,0,0,1-.507,1.926,1.782,1.782,0,0,1-1.964.314q-5.541-2.147-11.079-4.311c-.665-.26-1.326-.533-2-.78a1.783,1.783,0,0,0-2.093.451c-1.235,1.363-2.451,2.743-3.674,4.116q-2.862,3.214-5.722,6.428a1.781,1.781,0,0,1-1.884.627,1.84,1.84,0,0,1-1.358-1.507q-2.629-10.985-5.267-21.97C277.191,908.269,276.315,904.68,275.435,901.046Z" transform="translate(469.179 27.622)" fill="#618226"/><path d="M252.837,883.681a7.381,7.381,0,0,1,2.021,3.2c.625,1.69,1.153,3.416,1.811,5.092a9.222,9.222,0,0,0,1.243,2.177,4.153,4.153,0,0,0,3.879,1.626c1.574-.149,3.133-.458,4.7-.7,1.044-.163,2.082-.375,3.132-.489a5.835,5.835,0,0,1,4.3,1.2c1,.77,1.932,1.62,2.9,2.433a17.435,17.435,0,0,0,3.452,2.61.409.409,0,0,1,.247.552c-.732,3.034-1.442,6.075-2.169,9.111q-2.23,9.284-4.473,18.564c-.392,1.629-.8,3.255-1.185,4.885a1.743,1.743,0,0,1-1.353,1.39,1.714,1.714,0,0,1-1.772-.571q-2.478-2.774-4.95-5.549c-1.474-1.653-2.94-3.311-4.418-4.959a1.8,1.8,0,0,0-2.273-.514q-4.3,1.666-8.606,3.341c-1.462.568-2.922,1.143-4.384,1.708a1.786,1.786,0,0,1-1.964-.313,1.825,1.825,0,0,1-.506-1.926q2-8.29,3.988-16.582,1.123-4.665,2.244-9.329,2.024-8.4,4.049-16.8A.8.8,0,0,1,252.837,883.681Z" transform="translate(459.878 27.638)" fill="#618226"/></g></svg>