<svg xmlns="http://www.w3.org/2000/svg" width="108.638" height="99.776" viewBox="0 0 108.638 99.776"><g transform="translate(-907.954 -59.682)"><g transform="translate(907.954 59.683)"><g transform="translate(0 0)"><path d="M2312.141,1315.263v-8.006a1.5,1.5,0,0,1,1.511-1.5c1.012.01,2.032.017,3.05-.031a8.61,8.61,0,0,0,2.538-.449c13.689-5,27.36-10.055,41.059-15.033a5.581,5.581,0,0,1,3.276,0c13.557,4.928,27.084,9.936,40.637,14.879a12.752,12.752,0,0,0,3.384.6c.7.052,1.4.056,2.12.048a1.98,1.98,0,0,1,2.006,1.979v7.511a.8.8,0,0,1-.8.8h-97.988A.8.8,0,0,1,2312.141,1315.263Z" transform="translate(-2307.626 -1290)" fill="#618226"/><path d="M2414.9,1416.954H2306.265c0-3.068-.016-6.057.033-9.044,0-.227.442-.56.734-.641a4.99,4.99,0,0,1,1.3-.037h104.49c2.075,0,2.075,0,2.075,2.144C2414.9,1411.843,2414.9,1414.31,2414.9,1416.954Z" transform="translate(-2306.263 -1317.177)" fill="#618226"/></g><rect width="13.683" height="57.934" rx="3.907" transform="translate(36.026 29.084)" fill="#618226"/><rect width="13.683" height="57.934" rx="3.907" transform="translate(58.928 29.084)" fill="#618226"/><rect width="13.683" height="57.934" rx="3.907" transform="translate(81.83 29.084)" fill="#618226"/><rect width="13.683" height="57.934" rx="3.907" transform="translate(13.125 29.084)" fill="#618226"/></g></g></svg>