<svg xmlns="http://www.w3.org/2000/svg" viewBox="0 0 298.29 298.29"><defs><style>.cls-1{fill:#5770ad;}.cls-2,.cls-4{fill:#fff;}.cls-3{fill:none;}.cls-3,.cls-4{stroke:#fff;stroke-miterlimit:10;stroke-width:0.33px;}</style></defs><g id="Calque_2" data-name="Calque 2"><g id="Calque_1-2" data-name="Calque 1"><g id="Groupe_540" data-name="Groupe 540"><g id="Groupe_667-3" data-name="Groupe 667-3"><rect id="Rectangle_528-23" data-name="Rectangle 528-23" class="cls-1" width="298.29" height="298.29" rx="30.13"/></g><g id="Groupe_683" data-name="Groupe 683"><g id="Groupe_614" data-name="Groupe 614"><g id="Groupe_612" data-name="Groupe 612"><path id="Tracé_379" data-name="Tracé 379" class="cls-2" d="M230.28,241.7c.1,9-3.2,16.18-13.3,18.36h-3.49a15.26,15.26,0,0,1-12.86-12.83,21.88,21.88,0,0,1-.26-4.35q0-36.63,0-73.25a9.76,9.76,0,0,0-.26-2.8c-4.86-15.85-9.78-31.68-14.82-48q-5.7,4.89-11.36,9.7l-.13.12-.26.23-.3.26a255,255,0,0,1-23.5,18.71,11.79,11.79,0,0,1-16.13-4.17,10.25,10.25,0,0,1-.65-1.28,10.08,10.08,0,0,1,.72-10.09,28.47,28.47,0,0,1,4.42-4.82c5.91-5.52,11.82-11,18-16.22l27.14-23.1a29.81,29.81,0,0,1,3.5-2.62,14,14,0,0,1,18.4,3.51,26.17,26.17,0,0,1,4.76,8.69c6.57,20.59,12.93,41.24,19.26,61.9a26.07,26.07,0,0,1,1,7.29C230.22,191.87,230,216.79,230.28,241.7Z"/><path id="Tracé_380" data-name="Tracé 380" class="cls-2" d="M202.65,58.41a22.16,22.16,0,1,1-22.06-22.25h.07A22.29,22.29,0,0,1,202.65,58.41Z"/></g><path id="Tracé_381" data-name="Tracé 381" class="cls-2" d="M173.21,129.15c-1.66,1.47-6,5.31-10.85,9.26Z"/><path id="Tracé_382" data-name="Tracé 382" class="cls-2" d="M114.87,80.31c-2.52,2-5.16,4.29-7.82,6.84l65.41,64.06a3.83,3.83,0,1,1-5.37,5.47l-65.38-64a112.22,112.22,0,0,0-19,28.86.34.34,0,0,1-.45.15.32.32,0,0,1-.18-.31A57.59,57.59,0,0,1,96,87l-.1-.09a3.84,3.84,0,0,1,5.31-5.55l.06.06.21.2a58.22,58.22,0,0,1,9.84-6.69,3.25,3.25,0,0,1,3.59,5.37Z"/><g id="Groupe_613" data-name="Groupe 613"><path id="Tracé_383" data-name="Tracé 383" class="cls-3" d="M134.37,224.28c-30.79,7.92-28,26.52-27.77,26.66"/><path id="Tracé_384" data-name="Tracé 384" class="cls-3" d="M107.91,242.43S109.19,226,80,213.49"/><path id="Tracé_385" data-name="Tracé 385" class="cls-4" d="M103.33,230.25v.07c-30.26,12-34.47-22-34.47-22C116.4,197.86,103.85,229,103.33,230.25Z"/><path id="Tracé_386" data-name="Tracé 386" class="cls-2" d="M145.53,218.56s-2.47,32.16-32.13,16.15l-.26-.14v.09S106.41,211.55,145.53,218.56Z"/><path id="Tracé_387" data-name="Tracé 387" class="cls-2" d="M114.29,244.28c.25,4.52,1.37,3.8,1.76,3.87,1.14.21,2.26-.23,3.37,1.29.48.64,1-1.6,1.29-1.49.85.4,1.69,0,2.48.25.5.18.54.54,1-.81.53-1.73,1.06.93,1.17,2.07.22,2.41,1,2.36,1.13,1.89.51-1.51,1-.9,1.49-.64s.79.88.93-1.31c0-.48.45-2.19.84-.47.53,2.36.87-1,1.5-.5,1.46,1.27,3,1,4.52,1.77,1.06.51,1.77-2.3,2.45-4.65.28,2.75,1.35,2.94,1.7,2.87.9-.19,1.63-.37,2.18,2.41.54-2.24,1.51,2.71,2-1.51.33-2.58,1.16-1.66,1.66-.19.44,1.31.88,1.47,1.4,1.31.16,0,.45-.9.47.16.08,4,1,2.9,1.66,3,.85.12,1.23,1.29,1.38,4.12H66.32c-.27-4.32,1.19-5,1.56-4.88,1.17.3,2.09-3.71,3.27-1.71.09-2.41,1-.05,1.17-2.34.42.68.84,1.43,1.32.78.27-.36.62.52.83-.86s.3-1.05.49.27c.13.92.6,1.73,1,1.11.21-.32.47-.37.56,0,1,4,2.07.26,3.1.13.06,0,.17-.9.22-.45.51,4.32,1,.33,1.4-.14,1.28-1.39,2.58-1.22,3.77.58.77,1.16,1.55.82,2.31,1.36,1.51,1.09,2.88-3.68,4.32-2.91,1.1.59,2.09-1.15,3.21.12s2.32.63,3.48-.23c.43-.33.88-.85,1.29.13.18.44.36.84.48,0,.63-4.91,1,.82,1.46.42,0,1.32.35,1.78.54,1.57.94-1.06,2,.64,2.91-1.32.88-1.78,2-1,3-.74,1.55.44,3.1,1.74,4.63,1.53C113,250,114.07,248.52,114.29,244.28Z"/></g></g></g></g></g></g></svg>