<svg xmlns="http://www.w3.org/2000/svg" viewBox="0 0 298.29 298.29"><defs><style>.cls-1{fill:#5770ad;}.cls-2{fill:#fff;}</style></defs><g id="Calque_2" data-name="Calque 2"><g id="Calque_1-2" data-name="Calque 1"><g id="Groupe_537" data-name="Groupe 537"><rect id="Rectangle_528-24" data-name="Rectangle 528-24" class="cls-1" width="298.29" height="298.29" rx="30.13"/><g id="Groupe_600" data-name="Groupe 600"><g id="Groupe_599" data-name="Groupe 599"><path id="Tracé_340" data-name="Tracé 340" class="cls-2" d="M250.28,159.37a80.07,80.07,0,0,0-18.2-40.43,82.89,82.89,0,0,0-105-19q2.83,2.66,5.7,5.28a6.31,6.31,0,0,1,.66.71c1.06,1.18,1.9,2.63,2.87,3.9a4.69,4.69,0,0,0,1,.9,17.57,17.57,0,0,1,3.47,2.66q11.55,14.25,22.92,28.71c1.24,1.56,2.17,3.38,3.38,5.26.19,0,.72-.14,1.24-.27a16.79,16.79,0,0,1,20.79,11.25c2.47,7.74,4.66,15.67,6.47,23.59.6,2.63,1.53,6.22-.67,8.37-2.38,2.31-6.36,1.84-9.28,1.16-5.5-1.26-11-2.45-16.52-3.8a23.88,23.88,0,0,1-12.54-6.16,19.13,19.13,0,0,1-4.46-18.46,38,38,0,0,1-4.87-2.82q-13.73-10.89-27.34-22c-1.91-1.55-4.35-2.71-4.82-5.57,0-.23-.43-.42-.67-.6a36.42,36.42,0,0,1-4.77-3.7,3.32,3.32,0,0,0-.25-.27q-3-3.23-5.92-6.47a32,32,0,0,0-1.67,3.62c-1.2,3.15-1.85,6.51-2.74,9.76v7.39a13.92,13.92,0,0,1,.4,1.44,35.63,35.63,0,0,0,34.46,30.33,10.86,10.86,0,0,1,11.43,10.17c.4,4.3-2,7.26-4.77,10.23-10,10.77-13,23.39-7.84,37.14a33.2,33.2,0,0,0,30.73,22.79,80.75,80.75,0,0,0,49.91-13.2,82.78,82.78,0,0,0,36.88-82Zm-32.76,20.94a14.1,14.1,0,1,1,14-14.2,14.1,14.1,0,0,1-14,14.2Zm-45.67-45.22A14.11,14.11,0,1,1,186,121,14.27,14.27,0,0,1,171.85,135.09Zm21.49-4.22a14.11,14.11,0,1,1,14,14.21h0a14.19,14.19,0,0,1-14-14.22Zm14,57.85a14.08,14.08,0,0,1,.55,28.16h-.36a14.08,14.08,0,0,1-.56-28.16h.37Zm-40.23,16.05a14.09,14.09,0,0,1,.74,28.18h-.56a14.09,14.09,0,0,1-.18-28.18Z"/><path id="Tracé_341" data-name="Tracé 341" class="cls-2" d="M80.59,92Q66.43,76.63,52.29,61.19a5.89,5.89,0,0,1-.65-.84Q66.07,76.21,80.59,92Z"/><path id="Tracé_342" data-name="Tracé 342" class="cls-2" d="M118.06,132.41l-.46-.4.4.3A.27.27,0,0,0,118.06,132.41Z"/><path id="Tracé_343" data-name="Tracé 343" class="cls-2" d="M80.59,92Q66.43,76.63,52.29,61.19a5.89,5.89,0,0,1-.65-.84Q66.07,76.21,80.59,92Z"/></g><path id="Tracé_344" data-name="Tracé 344" class="cls-2" d="M193.8,186.17a3.66,3.66,0,0,1-3.18,2.87,6.52,6.52,0,0,1-2.41-.11c-5.72-1.26-11.45-2.45-17.15-3.86a24.8,24.8,0,0,1-10.1-4.3h0a12.6,12.6,0,0,1-1.42-1.31,17.43,17.43,0,0,1-4.16-16.64,2.1,2.1,0,0,1,.06-.24l-1.37-.74A17.23,17.23,0,0,1,151,160q-12.61-9.94-25.11-20.06c-.65-.53-1.35-1-2-1.51a6,6,0,0,1-2.26-2.85,3.47,3.47,0,0,1-.19-.72c-1.1-.83-2.32-1.55-3.34-2.44a.27.27,0,0,1-.06-.1l-.4-.3a9.6,9.6,0,0,1-1.2-1.1c-1.17-1.26-2.34-2.53-3.49-3.79a8.69,8.69,0,0,1-1.08-1c-.29-.32-.59-.62-.88-.94-1.91-2.1-3.83-4.17-5.75-6.28l-.08-.09c-2.11-2.27-4.18-4.55-6.28-6.83Q89.72,102,80.6,92.05q-14.52-15.83-29-31.69a15.84,15.84,0,0,1-2-4.42,57.71,57.71,0,0,1-1.34-7,4.24,4.24,0,0,1,5.17-5.25A63.48,63.48,0,0,1,60.71,45,14.91,14.91,0,0,1,65,47a6.06,6.06,0,0,1,.74.6q29,26.55,57.89,53.21l6.35,5.85,5.63,5.2a32.24,32.24,0,0,1,3.25,4.22,4.08,4.08,0,0,0,.9.81,22.87,22.87,0,0,1,2.92,2.15h0l.24.27q10.61,13,21.05,26.26a35.21,35.21,0,0,1,2.49,3.82c.21.33.4.66.6,1l.34-.08.8-.17a16.94,16.94,0,0,1,10.57.71,14.75,14.75,0,0,1,4.34,2.8,15.91,15.91,0,0,1,4.2,6.77c2.44,7.63,4.36,15.43,6.3,23.2a3.82,3.82,0,0,1,.11.57A5,5,0,0,1,193.8,186.17Z"/></g><g id="Groupe_607" data-name="Groupe 607"><g id="Groupe_606" data-name="Groupe 606"><path id="Tracé_366" data-name="Tracé 366" class="cls-2" d="M250.28,159.37a80.07,80.07,0,0,0-18.2-40.43,82.89,82.89,0,0,0-105-19q2.83,2.66,5.7,5.28a6.31,6.31,0,0,1,.66.71c1.06,1.18,1.9,2.63,2.87,3.9a4.69,4.69,0,0,0,1,.9,17.57,17.57,0,0,1,3.47,2.66q11.55,14.25,22.92,28.71c1.24,1.56,2.17,3.38,3.38,5.26.19,0,.72-.14,1.24-.27a16.79,16.79,0,0,1,20.79,11.25c2.47,7.74,4.66,15.67,6.47,23.59.6,2.63,1.53,6.22-.67,8.37-2.38,2.31-6.36,1.84-9.28,1.16-5.5-1.26-11-2.45-16.52-3.8a23.88,23.88,0,0,1-12.54-6.16,19.13,19.13,0,0,1-4.46-18.46,38,38,0,0,1-4.87-2.82q-13.73-10.89-27.34-22c-1.91-1.55-4.35-2.71-4.82-5.57,0-.23-.43-.42-.67-.6a36.42,36.42,0,0,1-4.77-3.7,3.32,3.32,0,0,0-.25-.27q-3-3.23-5.92-6.47a32,32,0,0,0-1.67,3.62c-1.2,3.15-1.85,6.51-2.74,9.76v7.39a13.92,13.92,0,0,1,.4,1.44,35.63,35.63,0,0,0,34.46,30.33,10.86,10.86,0,0,1,11.43,10.17c.4,4.3-2,7.26-4.77,10.23-10,10.77-13,23.39-7.84,37.14a33.2,33.2,0,0,0,30.73,22.79,80.75,80.75,0,0,0,49.91-13.2,82.78,82.78,0,0,0,36.88-82Zm-32.76,20.94a14.1,14.1,0,1,1,14-14.2,14.1,14.1,0,0,1-14,14.2Zm-45.67-45.22A14.11,14.11,0,1,1,186,121,14.27,14.27,0,0,1,171.85,135.09Zm21.49-4.22a14.11,14.11,0,1,1,14,14.21h0a14.19,14.19,0,0,1-14-14.22Zm14,57.85a14.08,14.08,0,0,1,.55,28.16h-.36a14.08,14.08,0,0,1-.56-28.16h.37Zm-40.23,16.05a14.09,14.09,0,0,1,.74,28.18h-.56a14.09,14.09,0,0,1-.18-28.18Z"/><path id="Tracé_367" data-name="Tracé 367" class="cls-2" d="M80.59,92Q66.43,76.63,52.29,61.19a5.89,5.89,0,0,1-.65-.84Q66.07,76.21,80.59,92Z"/><path id="Tracé_368" data-name="Tracé 368" class="cls-2" d="M118.06,132.41l-.46-.4.4.3A.27.27,0,0,0,118.06,132.41Z"/><path id="Tracé_369" data-name="Tracé 369" class="cls-2" d="M80.59,92Q66.43,76.63,52.29,61.19a5.89,5.89,0,0,1-.65-.84Q66.07,76.21,80.59,92Z"/></g><path id="Tracé_370" data-name="Tracé 370" class="cls-2" d="M193.8,186.17a3.66,3.66,0,0,1-3.18,2.87,6.52,6.52,0,0,1-2.41-.11c-5.72-1.26-11.45-2.45-17.15-3.86a24.8,24.8,0,0,1-10.1-4.3h0a12.6,12.6,0,0,1-1.42-1.31,17.43,17.43,0,0,1-4.16-16.64,2.1,2.1,0,0,1,.06-.24l-1.37-.74A17.23,17.23,0,0,1,151,160q-12.61-9.94-25.11-20.06c-.65-.53-1.35-1-2-1.51a6,6,0,0,1-2.26-2.85,3.47,3.47,0,0,1-.19-.72c-1.1-.83-2.32-1.55-3.34-2.44a.27.27,0,0,1-.06-.1l-.4-.3a9.6,9.6,0,0,1-1.2-1.1c-1.17-1.26-2.34-2.53-3.49-3.79a8.69,8.69,0,0,1-1.08-1c-.29-.32-.59-.62-.88-.94-1.91-2.1-3.83-4.17-5.75-6.28l-.08-.09c-2.11-2.27-4.18-4.55-6.28-6.83Q89.72,102,80.6,92.05q-14.52-15.83-29-31.69a15.84,15.84,0,0,1-2-4.42,57.71,57.71,0,0,1-1.34-7,4.24,4.24,0,0,1,5.17-5.25A63.48,63.48,0,0,1,60.71,45,14.91,14.91,0,0,1,65,47a6.06,6.06,0,0,1,.74.6q29,26.55,57.89,53.21l6.35,5.85,5.63,5.2a32.24,32.24,0,0,1,3.25,4.22,4.08,4.08,0,0,0,.9.81,22.87,22.87,0,0,1,2.92,2.15h0l.24.27q10.61,13,21.05,26.26a35.21,35.21,0,0,1,2.49,3.82c.21.33.4.66.6,1l.34-.08.8-.17a16.94,16.94,0,0,1,10.57.71,14.75,14.75,0,0,1,4.34,2.8,15.91,15.91,0,0,1,4.2,6.77c2.44,7.63,4.36,15.43,6.3,23.2a3.82,3.82,0,0,1,.11.57A5,5,0,0,1,193.8,186.17Z"/></g></g></g></g></svg>