<svg xmlns="http://www.w3.org/2000/svg" viewBox="0 0 298.29 298.29"><defs><style>.cls-1{fill:#5770ad;}.cls-2{fill:#fff;}</style></defs><g id="Calque_2" data-name="Calque 2"><g id="Calque_1-2" data-name="Calque 1"><g id="Groupe_539" data-name="Groupe 539"><g id="Groupe_578-3" data-name="Groupe 578-3"><rect id="Rectangle_528-21" data-name="Rectangle 528-21" class="cls-1" width="298.29" height="298.29" rx="30.13"/></g><g id="Groupe_677" data-name="Groupe 677"><g id="Groupe_601" data-name="Groupe 601"><path id="Tracé_345" data-name="Tracé 345" class="cls-2" d="M261.84,103.91c0-11.32-6.89-18.28-18.12-18.3H192.37c0-2.62,0-4.81,0-7a24.22,24.22,0,0,0-24-24.22q-18-.28-35.92,0A23.69,23.69,0,0,0,109,75.67c-.37,3.13-.37,6.33-.58,9.94h-3.67c-16.12,0-32.24,0-48.32,0a16.81,16.81,0,0,0-17.29,16.31c0,.33,0,.65,0,1q0,38.29,0,76.63a17.78,17.78,0,0,0,5.32,12.83,6.26,6.26,0,0,1,1.6,3.76c.13,10.92,0,21.85.07,32.77A15.27,15.27,0,0,0,54.36,243a23.37,23.37,0,0,0,10.27,2.51q85.88.21,171.74.1c.73,0,1.46,0,2.22-.07a16.67,16.67,0,0,0,16.27-17.05h0v-.18c0-10.69,0-21.41.08-32.12a5.57,5.57,0,0,1,1.35-3.55A18.37,18.37,0,0,0,261.9,179C261.81,153.92,261.84,128.91,261.84,103.91Zm-99.2,102.63a3.73,3.73,0,0,1-3,4.32,3.82,3.82,0,0,1-1.17,0c-5.29,0-10.58.06-15.85,0-2.84,0-4.2-1.48-4.2-4.38,0-8.68,0-17.34,0-26,0-3.23,1.2-4.41,4.38-4.43,5.19-.07,10.38-.05,15.54,0,3.16,0,4.28,1.23,4.3,4.49,0,4.32,0,8.65,0,13s0,8.68,0,13ZM185.41,80.6c-.08,1.48,0,3,0,4.85H116.13c-3.06-15.59,7.12-24.71,18.41-24.23,10.48.42,21,.42,31.5,0a18,18,0,0,1,19.38,16.51,19.64,19.64,0,0,1,0,2.87Z"/></g><g id="Groupe_611" data-name="Groupe 611"><path id="Tracé_378" data-name="Tracé 378" class="cls-2" d="M261.84,103.91c0-11.32-6.89-18.28-18.12-18.3H192.37c0-2.62,0-4.81,0-7a24.22,24.22,0,0,0-24-24.22q-18-.28-35.92,0A23.69,23.69,0,0,0,109,75.67c-.37,3.13-.37,6.33-.58,9.94h-3.67c-16.12,0-32.24,0-48.32,0a16.81,16.81,0,0,0-17.29,16.31c0,.33,0,.65,0,1q0,38.29,0,76.63a17.78,17.78,0,0,0,5.32,12.83,6.26,6.26,0,0,1,1.6,3.76c.13,10.92,0,21.85.07,32.77A15.27,15.27,0,0,0,54.36,243a23.37,23.37,0,0,0,10.27,2.51q85.88.21,171.74.1c.73,0,1.46,0,2.22-.07a16.67,16.67,0,0,0,16.27-17.05h0v-.18c0-10.69,0-21.41.08-32.12a5.57,5.57,0,0,1,1.35-3.55A18.37,18.37,0,0,0,261.9,179C261.81,153.92,261.84,128.91,261.84,103.91Zm-99.2,102.63a3.73,3.73,0,0,1-3,4.32,3.82,3.82,0,0,1-1.17,0c-5.29,0-10.58.06-15.85,0-2.84,0-4.2-1.48-4.2-4.38,0-8.68,0-17.34,0-26,0-3.23,1.2-4.41,4.38-4.43,5.19-.07,10.38-.05,15.54,0,3.16,0,4.28,1.23,4.3,4.49,0,4.32,0,8.65,0,13s0,8.68,0,13ZM185.41,80.6c-.08,1.48,0,3,0,4.85H116.13c-3.06-15.59,7.12-24.71,18.41-24.23,10.48.42,21,.42,31.5,0a18,18,0,0,1,19.38,16.51,19.64,19.64,0,0,1,0,2.87Z"/></g></g></g></g></g></svg>