<svg xmlns="http://www.w3.org/2000/svg" viewBox="0 0 298.29 298.29"><defs><style>.cls-1{fill:#5770ad;}.cls-2{fill:#fff;}</style></defs><g id="Calque_2" data-name="Calque 2"><g id="Calque_1-2" data-name="Calque 1"><g id="Groupe_538" data-name="Groupe 538"><g id="Groupe_577-3" data-name="Groupe 577-3"><rect id="Rectangle_528-20" data-name="Rectangle 528-20" class="cls-1" width="298.29" height="298.29" rx="30.13"/></g><g id="Groupe_676" data-name="Groupe 676"><g id="Groupe_598" data-name="Groupe 598"><path id="Tracé_329" data-name="Tracé 329" class="cls-2" d="M169.93,197.39c-1.3-.63-2.6-1.24-3.9-1.89-6.06-2.95-12.13-5.94-18.18-8.85-1.11-.54-2.32-.9-3.56-1.38a10.1,10.1,0,0,0-2.82-9.05,10.07,10.07,0,0,0,6.06-1.22c.2-.12.81.18,1.07.44,3.2,3.19,6.33,6.41,9.5,9.62l11.41,11.58A1.32,1.32,0,0,1,169.93,197.39Z"/><path id="Tracé_330" data-name="Tracé 330" class="cls-2" d="M135,161.69c-.5,1.21-1,2.33-1.54,3.61-.55-.73-1.08-1.42-1.6-2.13l-1.56-2.11,2.07-1.78C133.31,160.14,134.18,160.94,135,161.69Z"/><path id="Tracé_331" data-name="Tracé 331" class="cls-2" d="M144.59,171.29a4.59,4.59,0,0,1-6.18-6Z"/><path id="Tracé_332" data-name="Tracé 332" class="cls-2" d="M151.86,150.29c-.06.09-.13.15-.19.24-.25-.22-.52-.41-.76-.62q-6.27-5.73-12.54-11.53a13.89,13.89,0,0,0-6.65-4.31c1.45-1.08,2.69-2,4-2.94C141.15,137.57,146.5,143.93,151.86,150.29Z"/><path id="Tracé_333" data-name="Tracé 333" class="cls-2" d="M129.61,155.83a37.92,37.92,0,0,1-4.17,3.07,4.67,4.67,0,0,1-5.92-1.7,4.76,4.76,0,0,1,.38-6c.81-.85,1.7-1.6,2.38-2.23C124.7,151.25,127.05,153.44,129.61,155.83Z"/><path id="Tracé_334" data-name="Tracé 334" class="cls-2" d="M144.83,46q-13,9-26.08,17.85a7.72,7.72,0,0,1-10.67-2A7.83,7.83,0,0,1,110,51.13l.7-.51a64.86,64.86,0,0,0-15.93,4.46,29.43,29.43,0,0,0-3.43,1.57c-1.37.6-2.71,1.25-4,1.9l.09.07a122.36,122.36,0,0,0,29.48,18.3c6.63,3.19,13.15,6.54,19.73,9.81.27.13.52.28,1,.53-.44.29-.74.52-1.06.74Q122,97.36,107.42,106.71a8.35,8.35,0,0,0,2.18,15.11,8.23,8.23,0,0,0,6.89-1l.17.22-7.86,6.21c-.74.6-1.51,1.16-2.25,1.74A9.45,9.45,0,0,0,118,144c.79-.6,1.55-1.18,2.41-1.81a2.59,2.59,0,0,1-.9,3.07,20,20,0,0,0-3.45,3.31,9.34,9.34,0,0,0-.5,10.81,9.44,9.44,0,0,0,9.91,4.12c.62-.12,1-.13,1.44.44,4,5.42,8,10.85,12,16.27a5,5,0,0,1,1.07,3.71,2.84,2.84,0,0,1-1.74,2.62,3.63,3.63,0,0,0-1,.6,4,4,0,0,1-5.63-.28,3.9,3.9,0,0,1-.4-.51c-1.81-2.17-3.48-4.42-5.24-6.63q-11.94-15-23.91-29.86a52.11,52.11,0,0,0-4.1-4.31c-1.3-1.26-2.18-1.3-3.18-.43a2.38,2.38,0,0,0-.22,3.35l0,0L113,177.42c.86,1.4,1.77,2.77,2.61,4.15a3.89,3.89,0,0,1-1,5.4h0l-.16.1a3.78,3.78,0,0,1-5.21-1.2h0a1.18,1.18,0,0,1-.11-.19q-14.85-23.1-29.69-46.2-13.55-21.07-27.1-42.14A1.92,1.92,0,0,1,51.9,96,39.55,39.55,0,0,0,50,101.88c-.7,2.33-1.37,4.4-1.93,6.5a75.16,75.16,0,0,0-2.53,19.34A7.78,7.78,0,0,1,30,128.86c0-.26,0-.53,0-.79a92.79,92.79,0,0,1,15.75-52,94.63,94.63,0,0,1,24-24.86c.87-.61,1.75-1.2,2.64-1.78A97.09,97.09,0,0,1,91,39.89a92.63,92.63,0,0,1,20.19-5.2c.24,0,.49-.08,1.06-.21-1.3-.61-2.3-1.12-3.31-1.59a7.74,7.74,0,0,1,6.22-14.18h0l.36.17q14.16,6.74,28.28,13.56A7.69,7.69,0,0,1,144.83,46Z"/><path id="Tracé_335" data-name="Tracé 335" class="cls-2" d="M269.87,105.88a7.43,7.43,0,0,0-6.89,4.41c-.54,1.06-1,2.13-1.55,3.21a16.72,16.72,0,0,1-.69-3c-.17-1-.34-2.09-.55-3.12A95.22,95.22,0,0,0,209,41.09a87.4,87.4,0,0,0-26.57-8.33A129.82,129.82,0,0,0,167,31.62a7.46,7.46,0,0,0-7.32,7.59h0a1.93,1.93,0,0,0,0,.24A7.62,7.62,0,0,0,167.29,47a81.11,81.11,0,0,1,22.43,3.25c1.33.4,2.63.87,4.16,1.34a43.8,43.8,0,0,1,4.58,1.51Q182.31,63.54,166.08,74l-55.8,36.08a3.92,3.92,0,1,0,3.44,7l0,0a3.56,3.56,0,0,0,.66-.43q14.05-8.94,28.09-17.92c1.8-1.13,3.61-2.31,5.46-3.43a2.21,2.21,0,0,1,3,.43c.81,1,.85,1.62-.12,2.78a28.32,28.32,0,0,1-3.39,3.45q-12,9.9-24.2,19.73c-4.54,3.66-9.16,7.23-13.73,10.87a5,5,0,1,0,5.84,8h0a2.19,2.19,0,0,0,.25-.2c4.35-3.21,8.69-6.47,13-9.7,1.52-1.15,3.07-2.26,4.56-3.37a10.85,10.85,0,0,1-.57-7.17,9.44,9.44,0,0,1,16.23-3.48c3.12,3.43,6.2,6.93,9.31,10.42,1.41,1.58,2.85,3.15,4.27,4.74a2.3,2.3,0,0,0-.44-1c-3.32-4.52-6.67-9-9.95-13.58a9.51,9.51,0,0,1,15.07-11.59c.88,1.1,1.74,2.23,2.62,3.34l5.6,7.14a1.1,1.1,0,0,0-.14-.77,8.53,8.53,0,0,1,3-11.45,8.43,8.43,0,0,1,11.51,2.71q5.63,8.83,11.24,17.63c2.91,4.55,5.8,9.09,8.76,13.74a4.16,4.16,0,0,0,.32-.39c3.44-6.88,6.93-13.76,10.24-20.72a121.7,121.7,0,0,1,17.22-27.94c.6,1.31,1.17,2.67,1.69,4.06a40.35,40.35,0,0,1,3,7.14,46.44,46.44,0,0,1,2.93,12,5.32,5.32,0,0,1-.37-.46,7.75,7.75,0,0,0-12.83,8.7h0a3,3,0,0,0,.2.29q8.73,12.74,17.45,25.5a7.83,7.83,0,0,0,14-1.13c1.86-4,3.79-7.92,5.67-11.88,2.61-5.45,5.26-10.85,7.78-16.32a7.65,7.65,0,0,0-3.68-10.18,7.53,7.53,0,0,0-3.46-.72Zm-13.08,16.39a.89.89,0,0,0,0-.23v-.13a.43.43,0,0,1,0,.16Z"/><path id="Tracé_336" data-name="Tracé 336" class="cls-2" d="M264.2,167.26A92.24,92.24,0,0,1,259,198.41h0a87.17,87.17,0,0,1-4.64,10.85A93.81,93.81,0,0,1,199.25,257a85.37,85.37,0,0,1-16.47,3.8l-.73.18c1.32.67,2.43,1.19,3.51,1.75a7.72,7.72,0,0,1-.49,14.1,7.27,7.27,0,0,1-6.29-.2q-14.21-6.76-28.38-13.6a7.71,7.71,0,0,1-1.06-13.55q12.87-8.88,25.8-17.67a7.73,7.73,0,0,1,9.3,12.36c-.18.14-.36.26-.55.38l-.25.23c2.33.33,14.81-3.49,19-5.84a47.3,47.3,0,0,0,4.54-2.18,118.35,118.35,0,0,0-26.87-16.83c-13.09-6.32-26.1-12.84-39.15-19.28a5.35,5.35,0,0,1-3.12-6.9h0a1.34,1.34,0,0,0,.07-.18,5,5,0,0,1,1.37-1.43c.4-.33,1-.48,1.33-.85a3.66,3.66,0,0,1,4.76-.42c4.68,2.2,9.32,4.49,13.95,6.75,4.43,2.14,8.81,4.31,13.26,6.4a3.8,3.8,0,0,0,4.3-6.18L153,173.56q-13.29-13.38-26.57-26.82a4.64,4.64,0,0,1-1-5.36A4.72,4.72,0,0,1,130,138.5a5,5,0,0,1,3.57,1.58c6.32,5.83,12.62,11.7,19,17.45,5.06,4.56,10.24,9,15.37,13.45a21.62,21.62,0,0,0,2.46,1.66,2,2,0,0,0,2.69-.3,1.74,1.74,0,0,0,.22-2.46h0a69.84,69.84,0,0,0-4.33-6.18q-13.34-16-26.77-31.89c-1.45-1.72-2.93-3.42-4.39-5.15a4.9,4.9,0,0,1,.3-6.93h0a.86.86,0,0,1,.14-.13,5,5,0,0,1,7.08.53l.1.11c9.95,10.93,19.82,21.88,29.8,32.74,2.55,2.76,5.35,5.26,8.09,7.79.72.7,1.62,1.21,2.67.38a1.81,1.81,0,0,0,.83-2.42,1.92,1.92,0,0,0-.23-.35,57.44,57.44,0,0,0-3.87-6.32c-6.93-9.56-13.95-19.05-20.95-28.54-2-2.69-4-5.34-6-8a5,5,0,0,1,.42-7h0l.3-.25a5.12,5.12,0,0,1,7.15,1.13,1.27,1.27,0,0,1,.13.19q14.05,17.61,28.19,35.15a61.5,61.5,0,0,0,5.21,5.5,1.92,1.92,0,0,0,2.67.5,1.88,1.88,0,0,0,.64-.73,2.27,2.27,0,0,0-.12-2.68c-4-6.3-8-12.56-12-18.85q-4.59-7.17-9.19-14.39a3.92,3.92,0,0,1,6.3-4.65l.11.15c.08.11.15.23.22.35q10.72,16.6,21.47,33.16,17.53,27.12,35.09,54.24a4.15,4.15,0,0,1,.32.53c.56-1.34,1.09-2.71,1.58-4.14.9-3.25,1.81-6.17,2.5-9.13a76.16,76.16,0,0,0,1.94-17.35,7.73,7.73,0,0,1,15.46.06h0Z"/><path id="Tracé_337" data-name="Tracé 337" class="cls-2" d="M97,242a1.38,1.38,0,0,1-.43.19c1.7.64,3.46,1.23,5.3,1.76,2.11.62,4,1.26,5.93,1.78a73.09,73.09,0,0,0,20.33,2.7,7.85,7.85,0,0,1,7.41,10.81,8,8,0,0,1-7.2,4.7,96.74,96.74,0,0,1-19.2-2,94.72,94.72,0,0,1-70-61,90,90,0,0,1-4.41-17.95c-.05-.34-.14-.67-.25-1.35l-1.75,3.53a7.73,7.73,0,1,1-14.05-6.43l.13-.26c4.11-8.7,8.3-17.35,12.46-26,.53-1.1,1-2.23,1.61-3.26a7.71,7.71,0,0,1,10.59-2.61,7.79,7.79,0,0,1,2.4,2.28c5.33,7.7,10.58,15.43,15.88,23.15.68,1,1.37,2,2,3A7.73,7.73,0,0,1,51.21,184c-.18-.22-.38-.42-.77-.88a78.41,78.41,0,0,0,6.08,19.4,44.81,44.81,0,0,0,1.84,4.34c2.29-3,4.64-5.93,6.85-9a126.92,126.92,0,0,0,10.31-18.38l10-20.09c.14-.23.29-.46.45-.68,1,1.59,2,3.08,2.94,4.59,5.42,8.41,10.83,16.85,16.29,25.23a8.39,8.39,0,0,0,14.4-8.6,1.53,1.53,0,0,1-.26-.9c1,1.29,2.06,2.56,3.07,3.85,1.43,1.81,2.83,3.62,4.26,5.42a10.33,10.33,0,0,0,6.49,4.52,27,27,0,0,0,0,4.5,9.39,9.39,0,0,0,5.2,6.87c3.21,1.62,6.44,3.19,9.8,4.85-.38.3-.67.55-1,.74Q122.14,225.94,97,242Z"/><path id="Tracé_338" data-name="Tracé 338" class="cls-2" d="M242.15,100.14c-1-2-2-4.33-3-7.13A40.21,40.21,0,0,1,242.15,100.14Z"/><path id="Tracé_339" data-name="Tracé 339" class="cls-2" d="M94.74,55.08c-1,.48-2.17,1-3.42,1.57A29.29,29.29,0,0,1,94.74,55.08Z"/></g><g id="Groupe_605" data-name="Groupe 605"><path id="Tracé_355" data-name="Tracé 355" class="cls-2" d="M169.93,197.39c-1.3-.63-2.6-1.24-3.9-1.89-6.06-2.95-12.13-5.94-18.18-8.85-1.11-.54-2.32-.9-3.56-1.38a10.1,10.1,0,0,0-2.82-9.05,10.07,10.07,0,0,0,6.06-1.22c.2-.12.81.18,1.07.44,3.2,3.19,6.33,6.41,9.5,9.62l11.41,11.58A1.32,1.32,0,0,1,169.93,197.39Z"/><path id="Tracé_356" data-name="Tracé 356" class="cls-2" d="M135,161.69c-.5,1.21-1,2.33-1.54,3.61-.55-.73-1.08-1.42-1.6-2.13l-1.56-2.11,2.07-1.78C133.31,160.14,134.18,160.94,135,161.69Z"/><path id="Tracé_357" data-name="Tracé 357" class="cls-2" d="M144.59,171.29a4.59,4.59,0,0,1-6.18-6Z"/><path id="Tracé_358" data-name="Tracé 358" class="cls-2" d="M151.86,150.29c-.06.09-.13.15-.19.24-.25-.22-.52-.41-.76-.62q-6.27-5.73-12.54-11.53a13.89,13.89,0,0,0-6.65-4.31c1.45-1.08,2.69-2,4-2.94C141.15,137.57,146.5,143.93,151.86,150.29Z"/><path id="Tracé_359" data-name="Tracé 359" class="cls-2" d="M129.61,155.83a37.92,37.92,0,0,1-4.17,3.07,4.67,4.67,0,0,1-5.92-1.7,4.76,4.76,0,0,1,.38-6c.81-.85,1.7-1.6,2.38-2.23C124.7,151.25,127.05,153.44,129.61,155.83Z"/><path id="Tracé_360" data-name="Tracé 360" class="cls-2" d="M144.83,46q-13,9-26.08,17.85a7.72,7.72,0,0,1-10.67-2A7.83,7.83,0,0,1,110,51.13l.7-.51a64.86,64.86,0,0,0-15.93,4.46,29.43,29.43,0,0,0-3.43,1.57c-1.37.6-2.71,1.25-4,1.9l.09.07a122.36,122.36,0,0,0,29.48,18.3c6.63,3.19,13.15,6.54,19.73,9.81.27.13.52.28,1,.53-.44.29-.74.52-1.06.74Q122,97.36,107.42,106.71a8.35,8.35,0,0,0,2.18,15.11,8.23,8.23,0,0,0,6.89-1l.17.22-7.86,6.21c-.74.6-1.51,1.16-2.25,1.74A9.45,9.45,0,0,0,118,144c.79-.6,1.55-1.18,2.41-1.81a2.59,2.59,0,0,1-.9,3.07,20,20,0,0,0-3.45,3.31,9.34,9.34,0,0,0-.5,10.81,9.44,9.44,0,0,0,9.91,4.12c.62-.12,1-.13,1.44.44,4,5.42,8,10.85,12,16.27a5,5,0,0,1,1.07,3.71,2.84,2.84,0,0,1-1.74,2.62,3.63,3.63,0,0,0-1,.6,4,4,0,0,1-5.63-.28,3.9,3.9,0,0,1-.4-.51c-1.81-2.17-3.48-4.42-5.24-6.63q-11.94-15-23.91-29.86a52.11,52.11,0,0,0-4.1-4.31c-1.3-1.26-2.18-1.3-3.18-.43a2.38,2.38,0,0,0-.22,3.35l0,0L113,177.42c.86,1.4,1.77,2.77,2.61,4.15a3.89,3.89,0,0,1-1,5.4h0l-.16.1a3.78,3.78,0,0,1-5.21-1.2h0a1.18,1.18,0,0,1-.11-.19q-14.85-23.1-29.69-46.2-13.55-21.07-27.1-42.14A1.92,1.92,0,0,1,51.9,96,39.55,39.55,0,0,0,50,101.88c-.7,2.33-1.37,4.4-1.93,6.5a75.16,75.16,0,0,0-2.53,19.34A7.78,7.78,0,0,1,30,128.86c0-.26,0-.53,0-.79a92.79,92.79,0,0,1,15.75-52,94.63,94.63,0,0,1,24-24.86c.87-.61,1.75-1.2,2.64-1.78A97.09,97.09,0,0,1,91,39.89a92.63,92.63,0,0,1,20.19-5.2c.24,0,.49-.08,1.06-.21-1.3-.61-2.3-1.12-3.31-1.59a7.74,7.74,0,0,1,6.22-14.18h0l.36.17q14.16,6.74,28.28,13.56A7.69,7.69,0,0,1,144.83,46Z"/><path id="Tracé_361" data-name="Tracé 361" class="cls-2" d="M269.87,105.88a7.43,7.43,0,0,0-6.89,4.41c-.54,1.06-1,2.13-1.55,3.21a16.72,16.72,0,0,1-.69-3c-.17-1-.34-2.09-.55-3.12A95.22,95.22,0,0,0,209,41.09a87.4,87.4,0,0,0-26.57-8.33A129.82,129.82,0,0,0,167,31.62a7.46,7.46,0,0,0-7.32,7.59h0a1.93,1.93,0,0,0,0,.24A7.62,7.62,0,0,0,167.29,47a81.11,81.11,0,0,1,22.43,3.25c1.33.4,2.63.87,4.16,1.34a43.8,43.8,0,0,1,4.58,1.51Q182.31,63.54,166.08,74l-55.8,36.08a3.92,3.92,0,1,0,3.44,7l0,0a3.56,3.56,0,0,0,.66-.43q14.05-8.94,28.09-17.92c1.8-1.13,3.61-2.31,5.46-3.43a2.21,2.21,0,0,1,3,.43c.81,1,.85,1.62-.12,2.78a28.32,28.32,0,0,1-3.39,3.45q-12,9.9-24.2,19.73c-4.54,3.66-9.16,7.23-13.73,10.87a5,5,0,1,0,5.84,8h0a2.19,2.19,0,0,0,.25-.2c4.35-3.21,8.69-6.47,13-9.7,1.52-1.15,3.07-2.26,4.56-3.37a10.85,10.85,0,0,1-.57-7.17,9.44,9.44,0,0,1,16.23-3.48c3.12,3.43,6.2,6.93,9.31,10.42,1.41,1.58,2.85,3.15,4.27,4.74a2.3,2.3,0,0,0-.44-1c-3.32-4.52-6.67-9-9.95-13.58a9.51,9.51,0,0,1,15.07-11.59c.88,1.1,1.74,2.23,2.62,3.34l5.6,7.14a1.1,1.1,0,0,0-.14-.77,8.53,8.53,0,0,1,3-11.45,8.43,8.43,0,0,1,11.51,2.71q5.63,8.83,11.24,17.63c2.91,4.55,5.8,9.09,8.76,13.74a4.16,4.16,0,0,0,.32-.39c3.44-6.88,6.93-13.76,10.24-20.72a121.7,121.7,0,0,1,17.22-27.94c.6,1.31,1.17,2.67,1.69,4.06a40.35,40.35,0,0,1,3,7.14,46.44,46.44,0,0,1,2.93,12,5.32,5.32,0,0,1-.37-.46,7.75,7.75,0,0,0-12.83,8.7h0a3,3,0,0,0,.2.29q8.73,12.74,17.45,25.5a7.83,7.83,0,0,0,14-1.13c1.86-4,3.79-7.92,5.67-11.88,2.61-5.45,5.26-10.85,7.78-16.32a7.65,7.65,0,0,0-3.68-10.18,7.53,7.53,0,0,0-3.46-.72Zm-13.08,16.39a.89.89,0,0,0,0-.23v-.13a.43.43,0,0,1,0,.16Z"/><path id="Tracé_362" data-name="Tracé 362" class="cls-2" d="M264.2,167.26A92.24,92.24,0,0,1,259,198.41h0a87.17,87.17,0,0,1-4.64,10.85A93.81,93.81,0,0,1,199.25,257a85.37,85.37,0,0,1-16.47,3.8l-.73.18c1.32.67,2.43,1.19,3.51,1.75a7.72,7.72,0,0,1-.49,14.1,7.27,7.27,0,0,1-6.29-.2q-14.21-6.76-28.38-13.6a7.71,7.71,0,0,1-1.06-13.55q12.87-8.88,25.8-17.67a7.73,7.73,0,0,1,9.3,12.36c-.18.14-.36.26-.55.38l-.25.23c2.33.33,14.81-3.49,19-5.84a47.3,47.3,0,0,0,4.54-2.18,118.35,118.35,0,0,0-26.87-16.83c-13.09-6.32-26.1-12.84-39.15-19.28a5.35,5.35,0,0,1-3.12-6.9h0a1.34,1.34,0,0,0,.07-.18,5,5,0,0,1,1.37-1.43c.4-.33,1-.48,1.33-.85a3.66,3.66,0,0,1,4.76-.42c4.68,2.2,9.32,4.49,13.95,6.75,4.43,2.14,8.81,4.31,13.26,6.4a3.8,3.8,0,0,0,4.3-6.18L153,173.56q-13.29-13.38-26.57-26.82a4.64,4.64,0,0,1-1-5.36A4.72,4.72,0,0,1,130,138.5a5,5,0,0,1,3.57,1.58c6.32,5.83,12.62,11.7,19,17.45,5.06,4.56,10.24,9,15.37,13.45a21.62,21.62,0,0,0,2.46,1.66,2,2,0,0,0,2.69-.3,1.74,1.74,0,0,0,.22-2.46h0a69.84,69.84,0,0,0-4.33-6.18q-13.34-16-26.77-31.89c-1.45-1.72-2.93-3.42-4.39-5.15a4.9,4.9,0,0,1,.3-6.93h0a.86.86,0,0,1,.14-.13,5,5,0,0,1,7.08.53l.1.11c9.95,10.93,19.82,21.88,29.8,32.74,2.55,2.76,5.35,5.26,8.09,7.79.72.7,1.62,1.21,2.67.38a1.81,1.81,0,0,0,.83-2.42,1.92,1.92,0,0,0-.23-.35,57.44,57.44,0,0,0-3.87-6.32c-6.93-9.56-13.95-19.05-20.95-28.54-2-2.69-4-5.34-6-8a5,5,0,0,1,.42-7h0l.3-.25a5.12,5.12,0,0,1,7.15,1.13,1.27,1.27,0,0,1,.13.19q14.05,17.61,28.19,35.15a61.5,61.5,0,0,0,5.21,5.5,1.92,1.92,0,0,0,2.67.5,1.88,1.88,0,0,0,.64-.73,2.27,2.27,0,0,0-.12-2.68c-4-6.3-8-12.56-12-18.85q-4.59-7.17-9.19-14.39a3.92,3.92,0,0,1,6.3-4.65l.11.15c.08.11.15.23.22.35q10.72,16.6,21.47,33.16,17.53,27.12,35.09,54.24a4.15,4.15,0,0,1,.32.53c.56-1.34,1.09-2.71,1.58-4.14.9-3.25,1.81-6.17,2.5-9.13a76.16,76.16,0,0,0,1.94-17.35,7.73,7.73,0,0,1,15.46.06h0Z"/><path id="Tracé_363" data-name="Tracé 363" class="cls-2" d="M97,242a1.38,1.38,0,0,1-.43.19c1.7.64,3.46,1.23,5.3,1.76,2.11.62,4,1.26,5.93,1.78a73.09,73.09,0,0,0,20.33,2.7,7.85,7.85,0,0,1,7.41,10.81,8,8,0,0,1-7.2,4.7,96.74,96.74,0,0,1-19.2-2,94.72,94.72,0,0,1-70-61,90,90,0,0,1-4.41-17.95c-.05-.34-.14-.67-.25-1.35l-1.75,3.53a7.73,7.73,0,1,1-14.05-6.43l.13-.26c4.11-8.7,8.3-17.35,12.46-26,.53-1.1,1-2.23,1.61-3.26a7.71,7.71,0,0,1,10.59-2.61,7.79,7.79,0,0,1,2.4,2.28c5.33,7.7,10.58,15.43,15.88,23.15.68,1,1.37,2,2,3A7.73,7.73,0,0,1,51.21,184c-.18-.22-.38-.42-.77-.88a78.41,78.41,0,0,0,6.08,19.4,44.81,44.81,0,0,0,1.84,4.34c2.29-3,4.64-5.93,6.85-9a126.92,126.92,0,0,0,10.31-18.38l10-20.09c.14-.23.29-.46.45-.68,1,1.59,2,3.08,2.94,4.59,5.42,8.41,10.83,16.85,16.29,25.23a8.39,8.39,0,0,0,14.4-8.6,1.53,1.53,0,0,1-.26-.9c1,1.29,2.06,2.56,3.07,3.85,1.43,1.81,2.83,3.62,4.26,5.42a10.33,10.33,0,0,0,6.49,4.52,27,27,0,0,0,0,4.5,9.39,9.39,0,0,0,5.2,6.87c3.21,1.62,6.44,3.19,9.8,4.85-.38.3-.67.55-1,.74Q122.14,225.94,97,242Z"/><path id="Tracé_364" data-name="Tracé 364" class="cls-2" d="M242.15,100.14c-1-2-2-4.33-3-7.13A40.21,40.21,0,0,1,242.15,100.14Z"/><path id="Tracé_365" data-name="Tracé 365" class="cls-2" d="M94.74,55.08c-1,.48-2.17,1-3.42,1.57A29.29,29.29,0,0,1,94.74,55.08Z"/></g></g></g></g></g></svg>