<svg xmlns="http://www.w3.org/2000/svg" viewBox="0 0 298.05 298.05"><defs><style>.cls-1{fill:#5770ad;}.cls-2,.cls-3{fill:#fff;}.cls-3{stroke:#fff;stroke-miterlimit:10;stroke-width:0.46px;}</style></defs><g id="Calque_2" data-name="Calque 2"><g id="Calque_1-2" data-name="Calque 1"><g id="Groupe_546" data-name="Groupe 546"><g id="Groupe_581-3" data-name="Groupe 581-3"><rect id="Rectangle_528-26" data-name="Rectangle 528-26" class="cls-1" width="298.05" height="298.05" rx="30.13"/></g><g id="Groupe_688" data-name="Groupe 688"><g id="Groupe_623" data-name="Groupe 623"><g id="Groupe_622" data-name="Groupe 622"><g id="Groupe_621" data-name="Groupe 621"><path id="Tracé_406" data-name="Tracé 406" class="cls-2" d="M246.62,235.48h-2.36V107a3.68,3.68,0,0,0-1.87-3.66H187.62a3.69,3.69,0,0,0-1.89,3.65q0,8.28,0,16.57H142.62a3.13,3.13,0,0,0-1.62,3.1c0,3.34,0,6.7,0,10H102.46a2.75,2.75,0,0,0-1.44,2.75c0,7.62,0,15.24,0,22.86v1.2H63.65c-2.75,0-3.21.48-3.21,3.17v68.83a4.62,4.62,0,0,0-3.21,1.38,4.71,4.71,0,0,0,3.33,8H246.64a4.71,4.71,0,1,0,0-9.42ZM82.71,196c3.29,0,3.62.3,3.62,3.58s-.35,3.52-3.58,3.52-3.54-.33-3.54-3.55.32-3.54,3.51-3.54ZM72.06,215.29c-3.18,0-3.53-.34-3.53-3.53s.32-3.58,3.58-3.58,3.54.34,3.54,3.54-.31,3.59-3.56,3.59Zm3.57-14.21a2,2,0,0,1-2,2h0c-1,0-2,0-3,0a2,2,0,0,1-2.06-1.94V201c0-.89,0-1.8,0-2.71A2.08,2.08,0,0,1,70.86,196c.43,0,.88,0,1.31,0h.92c1.86,0,2.56.7,2.57,2.55,0,.85,0,1.7,0,2.54Zm3.56,10.64c0-3.21.34-3.54,3.55-3.54s3.58.3,3.58,3.62c0,3.17-.34,3.49-3.62,3.49s-3.5-.32-3.5-3.55Zm13.65,23.74h-8v-6.89h8Zm.6-20.17c-3.26,0-3.59-.32-3.59-3.57s.35-3.54,3.54-3.54,3.59.3,3.59,3.58-.34,3.55-3.52,3.55Zm0-12.19c-3.25,0-3.58-.32-3.58-3.58S90.19,196,93.4,196s3.58.3,3.58,3.58-.34,3.54-3.54,3.54Zm29.92-12.19c-3.21,0-3.54-.32-3.54-3.55s.3-3.55,3.63-3.55c3.13,0,3.49.35,3.49,3.49,0,3.31-.31,3.63-3.56,3.63Zm3.58,8.51v.1c0,3.27-.32,3.58-3.61,3.58s-3.51-.34-3.51-3.47c0-3.35.3-3.62,3.66-3.62,3.1,0,3.48.39,3.48,3.43Zm-3.61-20.7c-3.2,0-3.52-.33-3.52-3.57s.34-3.53,3.55-3.53,3.57.32,3.57,3.62-.3,3.5-3.57,3.5ZM112.71,215.3c-3.25,0-3.57-.33-3.57-3.59s.33-3.52,3.53-3.52,3.58.3,3.58,3.57-.32,3.55-3.51,3.55Zm-.06-12.19c-3.15,0-3.51-.35-3.51-3.46,0-3.35.3-3.65,3.61-3.65,3.15,0,3.5.35,3.5,3.45,0,3.38-.25,3.67-3.57,3.67Zm0-12.19c-3.24,0-3.56-.32-3.56-3.6s.34-3.51,3.56-3.51,3.55.3,3.55,3.61-.32,3.5-3.52,3.5Zm3.55-14.3a2,2,0,0,1-1.92,2.1h-.19c-.94,0-1.89,0-2.83,0a2,2,0,0,1-2.17-1.88,1.22,1.22,0,0,1,0-.27c0-.88,0-1.75,0-2.63a2.08,2.08,0,0,1,1.81-2.32,2,2,0,0,1,.49,0c.45,0,.88,0,1.32,0h.81c2,0,2.68.66,2.68,2.66,0,.79.07,1.57,0,2.35ZM122,215.3a2,2,0,0,1-2.2-1.81,1.51,1.51,0,0,1,0-.3c0-.88,0-1.76,0-2.64,0-1.62.78-2.33,2.41-2.35h1.2c3.16,0,3.51.34,3.51,3.48,0,3.33-.3,3.63-3.67,3.63-.39,0-.8,0-1.19,0Zm11.43,20.17h-8v-6.9h8Zm.5-20.17c-3.13,0-3.49-.36-3.49-3.47,0-3.34.3-3.64,3.62-3.64,3.14,0,3.5.35,3.5,3.46,0,3.36-.28,3.67-3.59,3.67Zm.07-12.19c-3.25,0-3.56-.32-3.56-3.61s.34-3.5,3.56-3.5,3.54.3,3.54,3.6-.3,3.53-3.51,3.53ZM134,190.92c-3.16,0-3.5-.34-3.5-3.55s.3-3.55,3.6-3.55,3.51.34,3.51,3.55-.29,3.56-3.57,3.56Zm0-12.18c-3.16,0-3.5-.34-3.5-3.56s.3-3.55,3.6-3.55,3.51.34,3.51,3.55-.29,3.57-3.57,3.57ZM166.09,163c3.65,0,4,.37,4,4.08s-.38,4-4,4-3.94-.38-3.94-4,.35-4,4-4Zm.09,13.76c3.52,0,3.92.4,3.92,3.94,0,3.72-.35,4.06-4,4.06s-4-.35-4-4,.34-4,4-4Zm0,13.74c3.45,0,3.89.43,3.89,3.86v.12c0,3.7-.35,4-4,4s-3.94-.39-3.94-3.92c0-3.76.31-4.1,4.07-4.1Zm-12.05,21.77c-3.64,0-4-.37-4-4s.37-4,4-4,4,.35,4,4-.37,4-4,4Zm-.08-13.75c-3.53,0-3.91-.39-3.91-3.9,0-3.77.32-4.13,4-4.13,3.52,0,3.92.41,3.92,3.9,0,3.8-.34,4.14-4,4.14Zm.07-13.76c-3.64,0-4-.34-4-4.05s.38-3.95,4-3.95,4,.36,4,4-.38,4-4,4Zm4-16.13A2.28,2.28,0,0,1,156,171h-.19c-1.05,0-2.11,0-3.17,0a2.28,2.28,0,0,1-2.44-2.1h0a1.61,1.61,0,0,1,0-.31c0-1,0-2,0-3a2.33,2.33,0,0,1,2-2.62h0a2.1,2.1,0,0,1,.56,0h2.38c2.26,0,3,.75,3,3,0,.87,0,1.76,0,2.63Zm6.48,43.63a2.26,2.26,0,0,1-2.47-2c0-.12,0-.23,0-.35,0-1,0-2,0-3a2.36,2.36,0,0,1,2-2.66,2.66,2.66,0,0,1,.69,0h1.37c3.53,0,3.91.38,3.91,3.92,0,3.75-.34,4.1-4.11,4.1-.47,0-.9,0-1.37,0Zm12.83,24h-9v-9h9Zm.55-24c-3.51,0-3.91-.42-3.91-3.91,0-3.79.31-4.12,4-4.12,3.52,0,3.92.4,3.92,3.9,0,3.78-.33,4.15-4,4.15Zm.07-13.75c-3.62,0-4-.37-4-4.07s.38-3.95,4-3.95,4,.36,4,4.06-.39,4-4,4ZM178,184.72c-3.54,0-3.92-.37-3.92-4s.35-4,4-4,3.94.38,3.94,4-.36,4-4.05,4ZM178,171c-3.54,0-3.92-.4-3.92-4s.35-4,4-4,3.94.39,3.94,4-.36,4-4.05,4Zm37-21.47c4.26,0,4.67.43,4.67,4.79S219.22,159,215,159s-4.6-.46-4.6-4.73.42-4.69,4.63-4.69Zm.1,16.13c4.12,0,4.57.47,4.57,4.63,0,4.35-.41,4.77-4.69,4.77s-4.61-.43-4.61-4.7.4-4.7,4.74-4.7Zm0,16.13c4,0,4.54.48,4.54,4.51v.14c0,4.33-.41,4.75-4.7,4.75s-4.6-.48-4.6-4.6c0-4.42.38-4.8,4.77-4.8Zm-14.05,25.51c-4.25,0-4.66-.43-4.66-4.73s.43-4.67,4.62-4.67,4.67.42,4.67,4.73-.44,4.68-4.63,4.68ZM201,191.18c-4.11,0-4.57-.47-4.57-4.58,0-4.43.37-4.82,4.72-4.82,4.1,0,4.57.47,4.57,4.57,0,4.43-.39,4.83-4.72,4.83Zm.08-16.13c-4.25,0-4.65-.42-4.65-4.76,0-4.19.43-4.64,4.64-4.64s4.65.43,4.65,4.76-.44,4.64-4.64,4.64Zm4.64-18.92a2.66,2.66,0,0,1-2.51,2.79h0a1,1,0,0,1-.25,0c-1.22,0-2.46,0-3.69,0a2.65,2.65,0,0,1-2.84-2.46h0a2.29,2.29,0,0,1,0-.37c0-1.16,0-2.32,0-3.48a2.75,2.75,0,0,1,2.37-3.08,3.42,3.42,0,0,1,.64,0h2.78c2.62,0,3.5.9,3.5,3.53,0,1,0,2.05,0,3.07Zm7.57,51.14a2.63,2.63,0,0,1-2.88-2.34,2.08,2.08,0,0,1,0-.43c-.07-1.18,0-2.35,0-3.5a2.74,2.74,0,0,1,2.31-3.11,2.51,2.51,0,0,1,.82,0c.54,0,1.07,0,1.6,0,4.12,0,4.57.44,4.57,4.6,0,4.4-.4,4.8-4.79,4.8-.54,0-1.07,0-1.6,0Zm15,28.12H217.7V224.84h10.54Zm.64-28.1c-4.09,0-4.57-.47-4.57-4.58,0-4.43.39-4.82,4.73-4.82,4.11,0,4.58.48,4.58,4.57,0,4.43-.39,4.83-4.74,4.83Zm.08-16.12c-4.22,0-4.64-.43-4.64-4.77,0-4.18.44-4.63,4.64-4.63s4.67.41,4.67,4.75-.46,4.66-4.67,4.66Zm-.06-16.12c-4.14,0-4.59-.45-4.59-4.7s.41-4.7,4.72-4.7c4.14,0,4.6.45,4.6,4.7s-.44,4.71-4.72,4.71Zm0-16.1c-4.14,0-4.59-.48-4.59-4.72s.41-4.7,4.72-4.7c4.14,0,4.6.47,4.6,4.7s-.44,4.72-4.72,4.72Z"/></g></g><path id="Tracé_407" data-name="Tracé 407" class="cls-3" d="M218.82,97.71l-7-17.39L37.45,150.65,33.14,140,207.49,69.62l-7.06-17.5,66.69-.9Z"/></g></g></g></g></g></svg>