<svg xmlns="http://www.w3.org/2000/svg" viewBox="0 0 298.29 298.29"><defs><style>.cls-1{fill:#5770ad;}.cls-2{fill:#fff;}</style></defs><g id="Calque_2" data-name="Calque 2"><g id="Calque_1-2" data-name="Calque 1"><g id="Groupe_542" data-name="Groupe 542"><g id="Groupe_580-3" data-name="Groupe 580-3"><rect id="Rectangle_528-25" data-name="Rectangle 528-25" class="cls-1" width="298.29" height="298.29" rx="30.13"/><path id="Tracé_273-3" data-name="Tracé 273-3" class="cls-2" d="M175.83,129.45c-1.72,1.53-6.22,5.48-11.2,9.57Q170.24,134.24,175.83,129.45Z"/></g><g id="Groupe_603" data-name="Groupe 603"><g id="Groupe_602" data-name="Groupe 602"><path id="Tracé_346" data-name="Tracé 346" class="cls-2" d="M247.7,256.75c-1-.06-2.06,0-3.25,0v-3.21q0-107.46,0-214.93a6.24,6.24,0,0,0-3.24-6.2H147.32a6.21,6.21,0,0,0-3.24,6.19c.1,17.1,0,34.2,0,51.29V92.6h-84c-6.15,0-7.2,1-7.2,7.09v157.1a35.14,35.14,0,0,0-3.7,0,4.53,4.53,0,0,0,0,9,19,19,0,0,0,2.5.05h194c.68,0,1.36,0,2,0a4.55,4.55,0,0,0,0-9.09Zm-122-.13h-18v-18h18Zm18.29-.07h-9v-2.37c0-6.54,0-13.07,0-19.59a4.6,4.6,0,0,0-5.21-5.19q-13,0-26,0c-3.56,0-5.25,1.74-5.26,5.37,0,7.22,0,14.42,0,21.8H62.23V101.83H144Zm72.95,0h-18V238.63h18Zm18.17,0H226.2v-2.62c0-6.38,0-12.76,0-19.14,0-3.74-1.69-5.4-5.46-5.41q-12.75,0-25.52,0c-3.86,0-5.47,1.67-5.48,5.62v21.57H153.37V233.23h0V41.63h81.75Z"/><path id="Tracé_347" data-name="Tracé 347" class="cls-2" d="M153.39,41.64v191.6h0v23.33h36.37V235c0-3.94,1.62-5.6,5.48-5.61q12.76,0,25.53,0c3.77,0,5.45,1.67,5.45,5.41,0,6.38,0,12.76,0,19.14v2.62h8.94V41.64Zm27.22,23.9a7.94,7.94,0,0,1,2.6-8.11,14.35,14.35,0,0,1,7.9-3.73,16.21,16.21,0,0,1,13.42,3.83c.15.12.29.26.48.44a15.55,15.55,0,0,0-5.77,4.75c-1.46,1.51-2.93,3-4.52,4.4a10.2,10.2,0,0,1-5.26,2.45,10.58,10.58,0,0,1-5.64-.74,20.74,20.74,0,0,1,7-8.67,3.8,3.8,0,0,0-.59.06,10.18,10.18,0,0,0-4.57,2.87A15.82,15.82,0,0,0,181,72.85a35.5,35.5,0,0,0,0,3.86,2.17,2.17,0,0,0,0,.36,2,2,0,0,1-2.3-1.95,19.45,19.45,0,0,1,1.77-8.5,1.82,1.82,0,0,0,.1-1.08ZM170.39,208.85c-7.3,0-8-.73-8-8,0-7.16.75-7.91,7.93-7.91s8,.71,8,8c0,7.16-.77,7.92-7.93,7.92Zm-.16-27.36c-7.06,0-7.86-.8-7.86-7.76,0-7.53.66-8.2,8.1-8.2,7.06,0,7.86.79,7.86,7.75,0,7.53-.66,8.21-8.1,8.21Zm.13-27.35c-7.28,0-8-.73-8-8.09,0-7.13.76-7.87,8-7.87s8,.71,8,8.07c0,7.13-.76,7.87-8,7.87Zm8-32.14a4.55,4.55,0,0,1-4.32,4.75h-.39c-2.11.07-4.24.06-6.36,0a4.57,4.57,0,0,1-4.87-4.24h0a5.61,5.61,0,0,1,0-.58c0-2,0-3.94,0-5.9a4.68,4.68,0,0,1,5.16-5.23h4.77c4.52,0,6,1.51,6,6,0,1.75,0,3.5,0,5.24Zm2.58-25.19A15,15,0,0,1,172.55,90a16.06,16.06,0,0,1-2.28-10.17c.07-.68.2-1.36.32-2.13a12.56,12.56,0,0,0,5.82,2.39c2.24.55,4.52,1,6.73,1.75a10.28,10.28,0,0,1,6.25,5,23.91,23.91,0,0,1,1.17,3.26c.14.4-.11.54-.47.6a16.82,16.82,0,0,1-5.57-.28,17.16,17.16,0,0,1-4.63-1.54.33.33,0,0,0-.32,0,8.14,8.14,0,0,0,.54.63A10.73,10.73,0,0,0,185.35,92a16.32,16.32,0,0,0,13.23-2.71l.57-.4a1.94,1.94,0,0,1-.21,2.74h0l-.25.18a18.45,18.45,0,0,1-7.53,2.64c-.36.05-.73.05-1.08.12a1,1,0,0,0-.51.24,7.83,7.83,0,0,1-8.67,2Zm13.14,112c-.9,0-1.81,0-2.73,0a4.52,4.52,0,0,1-4.95-4h0a4.12,4.12,0,0,1,0-.7c-.09-2-.07-4,0-5.93a4.69,4.69,0,0,1,4-5.28,4.5,4.5,0,0,1,1.37,0h2.74c7.07,0,7.85.77,7.85,7.83,0,7.45-.68,8.11-8.23,8.11Zm8.23-35.41c0,7.35-.7,8.05-8.09,8.05-7.1,0-7.88-.77-7.88-7.8,0-7.51.66-8.16,8.2-8.16,6.93,0,7.78.84,7.78,7.68Zm-8-19.3c-7.19,0-7.93-.75-7.93-8s.71-8,8.14-8c7,0,7.83.79,7.83,7.85,0,7.38-.71,8.09-8,8.09Zm0-27.37c-7.16,0-7.9-.74-7.9-8s.75-8,8-8,8,.73,8,8.12c0,7.11-.75,7.84-8.06,7.84ZM204,97.27l-.12,0a16.48,16.48,0,0,0-1.35-7.55,58.37,58.37,0,0,1-1.48-6,10.18,10.18,0,0,1,3.73-9.94l.27-.18A19.38,19.38,0,0,1,209,84h.14a7.2,7.2,0,0,0,.28-.9,11.47,11.47,0,0,0-.7-6.29A16.11,16.11,0,0,0,200,67.33c-.22-.1-.42-.21-.63-.3a1.93,1.93,0,0,1,2.47-1.17,1.73,1.73,0,0,1,.31.14,18.36,18.36,0,0,1,6.38,5.66,1.91,1.91,0,0,0,1.2.83,7.42,7.42,0,0,1,5.06,4.64,13.75,13.75,0,0,1-.34,10.61,16.25,16.25,0,0,1-10.07,9.46,1.67,1.67,0,0,1-.32.08Zm14.06,111.58c-7,0-7.83-.8-7.83-7.78,0-7.51.65-8.18,8.1-8.18,7,0,7.83.78,7.83,7.77,0,7.51-.67,8.2-8.1,8.2Zm.13-27.36c-7.27,0-8-.73-8-8.09,0-7.12.75-7.87,8-7.87s8,.71,8,8.09c0,7.1-.77,7.87-8,7.87Zm-.1-27.35c-7.12,0-7.87-.78-7.87-8s.7-8,8.08-8c7.13,0,7.88.76,7.88,8s-.73,8-8.08,8Zm0-27.37c-7.1,0-7.85-.76-7.85-8s.7-8,8.08-8c7.12,0,7.87.76,7.87,8s-.74,8-8.1,8Z"/><path id="Tracé_348" data-name="Tracé 348" class="cls-2" d="M62.21,101.83V256.55H98.54v-21.8c0-3.61,1.7-5.36,5.26-5.37q13,0,26,0a4.63,4.63,0,0,1,5.21,4,4.68,4.68,0,0,1,0,1.24c0,6.53,0,13.06,0,19.58v2.38h9V101.84Zm28.91,20.35a7.9,7.9,0,0,1,2.59-8.11,14.28,14.28,0,0,1,7.9-3.73A16.25,16.25,0,0,1,115,114.16c.15.13.29.27.48.45a15.33,15.33,0,0,0-5.77,4.76c-1.46,1.5-2.93,3-4.52,4.4a10.11,10.11,0,0,1-5.27,2.44,10.54,10.54,0,0,1-5.63-.74,20.76,20.76,0,0,1,7-8.68,4.09,4.09,0,0,0-.6.07,10.13,10.13,0,0,0-4.56,2.86,15.88,15.88,0,0,0-4.66,9.77,31.07,31.07,0,0,0,0,3.86,2.17,2.17,0,0,0,0,.36,2,2,0,0,1-2.26-1.6h0a2.19,2.19,0,0,1,0-.36,19.48,19.48,0,0,1,1.77-8.5,1.92,1.92,0,0,0,.09-1.06Zm-12,86.68c-7.15,0-7.91-.76-7.91-7.94s.7-8,8-8c7.17,0,7.91.76,7.91,7.93S86.42,208.86,79.09,208.86Zm8-31.88a4.47,4.47,0,0,1-4.43,4.5h0c-2.28.09-4.55.07-6.82,0a4.5,4.5,0,0,1-4.62-4.37v-.23c-.08-2,0-4.08,0-6.12a4.67,4.67,0,0,1,4.06-5.2,4.27,4.27,0,0,1,1.13,0c1,0,2,0,2.95,0h2c4.19,0,5.76,1.58,5.78,5.74,0,1.88.06,3.77,0,5.67Zm4.3-23.52a15,15,0,0,1-8.36-6.84,16,16,0,0,1-2.27-10.17c.06-.68.2-1.36.3-2.12a12.64,12.64,0,0,0,5.83,2.38c2.24.55,4.52,1,6.72,1.75a10.2,10.2,0,0,1,6.24,5,24,24,0,0,1,1.19,3.26c.13.4-.1.54-.48.6a19.31,19.31,0,0,1-10.2-1.81c-.07,0-.15-.05-.32,0a8.14,8.14,0,0,0,.54.63,10.77,10.77,0,0,0,5.24,2.51A16.35,16.35,0,0,0,109.08,146l.57-.4a2,2,0,0,1-.21,2.75,2.2,2.2,0,0,1-.25.17,18.42,18.42,0,0,1-7.53,2.65c-.37,0-.72,0-1.08.12a1,1,0,0,0-.51.24,7.79,7.79,0,0,1-8.65,1.94Zm11.6,55.4c-7.15,0-7.89-.74-7.89-8s.75-8,7.95-8,8,.72,8,8.14c0,7.08-.77,7.82-8.08,7.82Zm.06-27.35c-7.19,0-7.94-.75-7.94-8s.72-8,7.89-8c7.38,0,8.07.69,8.07,8.06,0,7.14-.76,7.89-8,7.89Zm11.48-27.59a.31.31,0,0,1-.13,0,16.24,16.24,0,0,0-1.35-7.53,61.27,61.27,0,0,1-1.48-6,10.2,10.2,0,0,1,3.72-9.94l.28-.18a19.41,19.41,0,0,1,3.9,10.4h.15c.08-.3.2-.58.27-.9a11.56,11.56,0,0,0-.69-6.29,16.21,16.21,0,0,0-8.74-9.45l-.62-.3a1.92,1.92,0,0,1,2.46-1.17h0l.32.14a18.55,18.55,0,0,1,6.38,5.66,2,2,0,0,0,1.18.83,7.46,7.46,0,0,1,5.07,4.64,13.8,13.8,0,0,1-.35,10.61,16.19,16.19,0,0,1-10,9.46,1.8,1.8,0,0,1-.32.06Zm12.56,54.94c-7.33,0-8-.71-8-8s.75-7.93,7.92-7.93c7.33,0,8,.71,8,8s-.76,7.94-7.92,7.94Zm0-27.35c-7.29,0-8-.72-8-8.07,0-7.14.76-7.89,8-7.89s8,.7,8,8.06c0,7.13-.76,7.89-8,7.89Z"/></g></g></g></g></g></svg>