<svg xmlns="http://www.w3.org/2000/svg" viewBox="0 0 298.29 298.29"><defs><style>.cls-1{fill:#5770ad;}.cls-2{fill:#fff;}</style></defs><g id="Calque_2" data-name="Calque 2"><g id="Calque_1-2" data-name="Calque 1"><g id="Groupe_533" data-name="Groupe 533"><path id="Rectangle_528-19" data-name="Rectangle 528-19" class="cls-1" d="M30.13,0h238a30.13,30.13,0,0,1,30.13,30.13h0v238a30.13,30.13,0,0,1-30.13,30.13h-238A30.13,30.13,0,0,1,0,268.16v-238A30.13,30.13,0,0,1,30.13,0Z"/><g id="Groupe_597" data-name="Groupe 597"><path id="Tracé_323" data-name="Tracé 323" class="cls-2" d="M35.88,182.08c9.77,7.5,20.68,9.31,32.19,9.17,23.35-.29,46.69-.36,70-.75,3.73-.06,4.58,1.09,4.58,4.63,0,17,.24,34,.38,51.08,0,1.34-.12,2.68-.19,4.33-1.56.1-2.89.26-4.22.28-18.12.22-36.25.2-54.36.76a14.84,14.84,0,0,1-13.68-6.66A143.21,143.21,0,0,1,61.83,231C53.17,215,44.73,198.79,35.88,182.08Z"/><path id="Tracé_324" data-name="Tracé 324" class="cls-2" d="M151.58,97.83l14.3-8.71c.07-.6.22-1,.1-1.13-7.76-13.12-15.18-26.46-23.42-39.27-7-10.93-17.68-17-30.51-19.79,2.19-.11,4.37-.33,6.55-.32q33,.15,65.91.43a39.93,39.93,0,0,1,8.12,1.28,13.23,13.23,0,0,1,9.05,7.09c4.22,7.66,8.84,15.12,13.46,23l15.55-9,.68.48c-2.18,5-4.34,9.9-6.53,14.85-4.91,11-9.86,22.07-14.73,33.14-.84,1.9-1.64,3.2-4.17,3-17.37-1.54-34.76-2.93-52.15-4.38A21.73,21.73,0,0,1,151.58,97.83Z"/><path id="Tracé_325" data-name="Tracé 325" class="cls-2" d="M187.86,269.68c-8.52-13.56-16.22-26.54-24.68-39-3.68-5.43-3.87-9.28-.09-14.78,7.83-11.42,14.8-23.44,22.14-35.2.54-.87,1.18-1.67,2.43-3.43,0,5.43.09,9.75,0,14.08-.08,2.61.84,3.67,3.57,3.63,13.45-.2,26.92,0,40.37-.47,12.86-.48,22.76-7.24,31.31-16.31a18,18,0,0,1,3.5-3.2,20.4,20.4,0,0,1-.93,2.62c-8.73,17.26-17.29,34.62-26.38,51.68a107.64,107.64,0,0,1-11.38,16.08,14.65,14.65,0,0,1-12.37,5.36c-7.84-.13-15.67.18-23.48.14-3,0-4.15,1.1-4,4.14C188,259.54,187.86,264.06,187.86,269.68Z"/><path id="Tracé_326" data-name="Tracé 326" class="cls-2" d="M58.7,91c6.54-10.85,12.77-21.15,19-31.48C81,54,84.59,48.59,87.56,42.88c4.56-8.79,12.22-11.15,21.06-10.16,17,1.89,28.68,11.48,36.29,26.41a3.91,3.91,0,0,1-.2,3.29q-18,27.31-36.21,54.53a6.32,6.32,0,0,1-1.2,1Z"/><path id="Tracé_327" data-name="Tracé 327" class="cls-2" d="M189.63,130.34l49.41-30c1.92,3.48,3.71,6.66,5.43,9.87l21.69,40.2a17.09,17.09,0,0,1-.84,18.05c-7.67,11.79-18.23,20.07-32.59,22.3a5.57,5.57,0,0,1-4.59-1.3C215.31,170,202.67,150.46,189.63,130.34Z"/><path id="Tracé_328" data-name="Tracé 328" class="cls-2" d="M42.27,129.74l-15.15-9.1.12-.76c4.41-.2,8.82-.45,13.25-.58,12.5-.39,25-.79,37.5-1,1.4,0,3.61.54,4.13,1.53,8.26,15.15,16.29,30.43,25,46.76-5.07-2.86-9.14-5-13-7.42a3.22,3.22,0,0,0-4.56.24h0a3.64,3.64,0,0,0-.36.49c-2.47,2.94-5.16,5.7-7.59,8.68-6.13,7.51-6,10.83.55,17.85-12.43,0-24.56,1.35-36.06-4.52a25.09,25.09,0,0,1-14.72-23.76A41.26,41.26,0,0,1,42.27,129.74Z"/></g><g id="Groupe_604" data-name="Groupe 604"><path id="Tracé_349" data-name="Tracé 349" class="cls-2" d="M35.88,182.08c9.77,7.5,20.68,9.31,32.19,9.17,23.35-.29,46.69-.36,70-.75,3.73-.06,4.58,1.09,4.58,4.63,0,17,.24,34,.38,51.08,0,1.34-.12,2.68-.19,4.33-1.56.1-2.89.26-4.22.28-18.12.22-36.25.2-54.36.76a14.84,14.84,0,0,1-13.68-6.66A143.21,143.21,0,0,1,61.83,231C53.17,215,44.73,198.79,35.88,182.08Z"/><path id="Tracé_350" data-name="Tracé 350" class="cls-2" d="M151.58,97.83l14.3-8.71c.07-.6.22-1,.1-1.13-7.76-13.12-15.18-26.46-23.42-39.27-7-10.93-17.68-17-30.51-19.79,2.19-.11,4.37-.33,6.55-.32q33,.15,65.91.43a39.93,39.93,0,0,1,8.12,1.28,13.23,13.23,0,0,1,9.05,7.09c4.22,7.66,8.84,15.12,13.46,23l15.55-9,.68.48c-2.18,5-4.34,9.9-6.53,14.85-4.91,11-9.86,22.07-14.73,33.14-.84,1.9-1.64,3.2-4.17,3-17.37-1.54-34.76-2.93-52.15-4.38A21.73,21.73,0,0,1,151.58,97.83Z"/><path id="Tracé_351" data-name="Tracé 351" class="cls-2" d="M187.86,269.68c-8.52-13.56-16.22-26.54-24.68-39-3.68-5.43-3.87-9.28-.09-14.78,7.83-11.42,14.8-23.44,22.14-35.2.54-.87,1.18-1.67,2.43-3.43,0,5.43.09,9.75,0,14.08-.08,2.61.84,3.67,3.57,3.63,13.45-.2,26.92,0,40.37-.47,12.86-.48,22.76-7.24,31.31-16.31a18,18,0,0,1,3.5-3.2,20.4,20.4,0,0,1-.93,2.62c-8.73,17.26-17.29,34.62-26.38,51.68a107.64,107.64,0,0,1-11.38,16.08,14.65,14.65,0,0,1-12.37,5.36c-7.84-.13-15.67.18-23.48.14-3,0-4.15,1.1-4,4.14C188,259.54,187.86,264.06,187.86,269.68Z"/><path id="Tracé_352" data-name="Tracé 352" class="cls-2" d="M58.7,91c6.54-10.85,12.77-21.15,19-31.48C81,54,84.59,48.59,87.56,42.88c4.56-8.79,12.22-11.15,21.06-10.16,17,1.89,28.68,11.48,36.29,26.41a3.91,3.91,0,0,1-.2,3.29q-18,27.31-36.21,54.53a6.32,6.32,0,0,1-1.2,1Z"/><path id="Tracé_353" data-name="Tracé 353" class="cls-2" d="M189.63,130.34l49.41-30c1.92,3.48,3.71,6.66,5.43,9.87l21.69,40.2a17.09,17.09,0,0,1-.84,18.05c-7.67,11.79-18.23,20.07-32.59,22.3a5.57,5.57,0,0,1-4.59-1.3C215.31,170,202.67,150.46,189.63,130.34Z"/><path id="Tracé_354" data-name="Tracé 354" class="cls-2" d="M42.27,129.74l-15.15-9.1.12-.76c4.41-.2,8.82-.45,13.25-.58,12.5-.39,25-.79,37.5-1,1.4,0,3.61.54,4.13,1.53,8.26,15.15,16.29,30.43,25,46.76-5.07-2.86-9.14-5-13-7.42a3.22,3.22,0,0,0-4.56.24h0a3.64,3.64,0,0,0-.36.49c-2.47,2.94-5.16,5.7-7.59,8.68-6.13,7.51-6,10.83.55,17.85-12.43,0-24.56,1.35-36.06-4.52a25.09,25.09,0,0,1-14.72-23.76A41.26,41.26,0,0,1,42.27,129.74Z"/></g></g></g></g></svg>