<svg xmlns="http://www.w3.org/2000/svg" viewBox="0 0 298.05 298.05"><defs><style>.cls-1{fill:#5770ad;}.cls-2,.cls-3{fill:#fff;}.cls-3{stroke:#fff;stroke-miterlimit:10;stroke-width:0.49px;}</style></defs><g id="Calque_2" data-name="Calque 2"><g id="Calque_1-2" data-name="Calque 1"><g id="Groupe_544" data-name="Groupe 544"><g id="Groupe_581-2" data-name="Groupe 581-2"><rect id="Rectangle_528-17" data-name="Rectangle 528-17" class="cls-1" width="298.05" height="298.05" rx="30.13"/></g><g id="Groupe_686" data-name="Groupe 686"><g id="Groupe_620" data-name="Groupe 620"><g id="Groupe_615" data-name="Groupe 615"><path id="Tracé_389" data-name="Tracé 389" class="cls-2" d="M225.61,166.2c0,3.42-5.33,6.56-14.32,9.07A136.7,136.7,0,0,1,193,178.85h0a283,283,0,0,1-36.69,2.25A247.19,247.19,0,0,1,108,176.88h0c-2.39-.49-4.61-1-6.62-1.61-8.42-2.36-13.63-5.24-14.27-8.42a56.15,56.15,0,0,0,7.23,2.5,189.62,189.62,0,0,0,39.45,5.46h0c5,.24,10.19.37,15.53.37q5.46,0,10.71-.18h.18a199.21,199.21,0,0,0,44.1-5.65c9-2.51,14.32-5.65,14.32-9.07a3,3,0,0,0-.07-.66C223.07,161.6,225.61,163.84,225.61,166.2Z"/></g><g id="Groupe_616" data-name="Groupe 616"><path id="Tracé_390" data-name="Tracé 390" class="cls-2" d="M219.14,157.36h0a1.49,1.49,0,0,1,0,.21,3.73,3.73,0,0,1-.63,2l0,0c-4.6,7.27-33.59,12.86-68.67,12.86-27.28,0-50.89-3.39-62.19-8.3-4.1-1.79-6.58-3.78-7-5.88a3.45,3.45,0,0,1-.08-.72v-.2h0V145.64a58,58,0,0,0,10.3,4.12c1.38.42,2.8.83,4.3,1.23a162.06,162.06,0,0,0,18.13,3.52h0a262.89,262.89,0,0,0,36.56,2.41,254.53,254.53,0,0,0,42.88-3.4h0c4-.71,7.81-1.5,11.25-2.39q2.55-.66,4.86-1.37a58.46,58.46,0,0,0,10.3-4.13Z"/><path id="Tracé_391" data-name="Tracé 391" class="cls-2" d="M219.14,139.43c0,3.42-5.34,6.55-14.33,9.07-1.78.49-3.69,1-5.74,1.41h0c-4.61,1-9.9,1.88-15.67,2.56h0a288.86,288.86,0,0,1-33.53,1.86c-9.57,0-18.68-.42-27-1.17h0a181.64,181.64,0,0,1-22.75-3.37c-1.85-.41-3.58-.83-5.2-1.29-9-2.52-14.33-5.65-14.33-9.07,0-8.22,31-14.9,69.3-14.9S219.14,131.2,219.14,139.43Z"/></g><g id="Groupe_617" data-name="Groupe 617"><path id="Tracé_392" data-name="Tracé 392" class="cls-2" d="M81.45,213.79c.54.26,1.14.51,1.76.77C82.59,214.32,82,214.06,81.45,213.79Z"/><path id="Tracé_393" data-name="Tracé 393" class="cls-2" d="M207.83,213.79c-.54.27-1.14.53-1.77.77C206.69,214.3,207.29,214.06,207.83,213.79Z"/><path id="Tracé_394" data-name="Tracé 394" class="cls-2" d="M198.67,198.33c.32.07.64.16,1,.26,1-.3,2-.6,3-.9C201.33,197.91,200,198.12,198.67,198.33Z"/><path id="Tracé_395" data-name="Tracé 395" class="cls-2" d="M199.62,198.59c-12.65,3.55-32.58,5.83-55,5.83s-42.32-2.28-55-5.83c-9-2.52-14.33-5.65-14.33-9.07,0-2.89,3.78-5.57,10.37-7.84v3.73h0a.81.81,0,0,0,0,.22c0,3.85,6.55,7.38,17.42,10.08a240.4,240.4,0,0,0,54.48,5.38,283.5,283.5,0,0,0,41.07-2.77Z"/></g><g id="Groupe_618" data-name="Groupe 618"><path id="Tracé_396" data-name="Tracé 396" class="cls-2" d="M85.63,233.53c13.69,4.24,34,7,56.8,7.15-25.26-.17-47.1-3.23-58.55-7.72C84.45,233.16,85,233.35,85.63,233.53Z"/><path id="Tracé_397" data-name="Tracé 397" class="cls-2" d="M203.66,233.53c.6-.18,1.17-.36,1.75-.57-11.45,4.48-33.3,7.55-58.55,7.72C169.65,240.51,190,237.77,203.66,233.53Z"/><path id="Tracé_398" data-name="Tracé 398" class="cls-2" d="M214,213.86v9.34c0,3.43-5.35,6.56-14.34,9.08-12.65,3.55-32.58,5.83-55,5.83s-42.32-2.28-55-5.83c-9-2.52-14.33-5.65-14.33-9.08v-9.34A50,50,0,0,0,82,216.79c1.14.42,2.34.8,3.58,1.21,14.13,4.38,35.33,7.16,59,7.16s44.89-2.78,59-7.16c1.24-.39,2.44-.78,3.58-1.21A50.17,50.17,0,0,0,214,213.86Z"/><path id="Tracé_399" data-name="Tracé 399" class="cls-2" d="M214,207.45h0a1.5,1.5,0,0,1,0,.2c0,.15,0,.28,0,.42a1.5,1.5,0,0,1-.06.29l0,.15c0,.1-.06.2-.1.3a3.43,3.43,0,0,1-.19.44,2.87,2.87,0,0,1-.28.48,6,6,0,0,1-.84,1l-.54.5-.57.46-.49.36-.4.27-.6.36-.69.4a1,1,0,0,0-.21.11l-.84.42-.27.13q-.82.39-1.77.78c-.72.3-1.49.58-2.29.87-1.27.45-2.65.88-4.14,1.3-2.54.7-5.38,1.37-8.48,2-.37.07-.76.15-1.15.21-1.85.35-3.8.68-5.82,1-.53.07-1.07.14-1.61.23l-.57.08-2.1.28c-.71.1-1.48.17-2.23.26l-1.48.17-2.19.23h0l-2.28.23c-1.06.1-2.14.19-3.21.27l-3.23.23-1.63.1c-.9.06-1.81.11-2.71.15-5.22.27-10.67.41-16.27.41s-11-.14-16.27-.41c-.9,0-1.83-.09-2.71-.15l-1.63-.1-3.23-.23-3.21-.27-2.28-.23h0l-2.19-.23-1.47-.17-2.23-.26c-.73-.07-1.4-.2-2.11-.28l-.56-.08c-.55-.09-1.09-.17-1.62-.23-2-.3-4-.64-5.82-1l-1.15-.21c-3.1-.6-5.93-1.27-8.47-2-1.51-.42-2.88-.85-4.15-1.3-.8-.3-1.57-.58-2.29-.87s-1.22-.52-1.76-.78l-.28-.13c-.28-.14-.57-.3-.84-.42l-.2-.11c-.23-.13-.47-.26-.69-.4l-.6-.36-.4-.27-.49-.36c-.2-.15-.39-.3-.57-.46s-.38-.34-.54-.5a6.54,6.54,0,0,1-.85-1,3.72,3.72,0,0,1-.27-.48c-.07-.14-.13-.29-.19-.44a1.71,1.71,0,0,1-.09-.3l0-.15a2.93,2.93,0,0,1,0-.29c0-.14,0-.27,0-.42v-.2h0V195.72a59.08,59.08,0,0,0,10.3,4.13c14.14,4.38,35.34,7.16,59,7.16s44.89-2.79,59-7.16a58.46,58.46,0,0,0,10.3-4.13Z"/></g><g id="Groupe_619" data-name="Groupe 619"><path id="Tracé_400" data-name="Tracé 400" class="cls-2" d="M214,241.14h0a1.5,1.5,0,0,1,0,.2c0,8.23-31,14.9-69.32,14.9s-69.3-6.66-69.3-14.9a.67.67,0,0,1,0-.2h0V229.41A54,54,0,0,0,83.88,233c.58.2,1.16.39,1.75.57,13.7,4.24,34,7,56.8,7.15h4.44c22.79-.17,43.1-2.91,56.8-7.15.6-.18,1.18-.36,1.75-.57a54.19,54.19,0,0,0,8.56-3.55Z"/></g><path id="Tracé_401" data-name="Tracé 401" class="cls-3" d="M152.19,106.29a16,16,0,0,1-.06-4.88,56.57,56.57,0,0,1,15.55-36.85,62.19,62.19,0,0,1,24.12-15,115.15,115.15,0,0,1,24.53-5.34c4.87-.65,6.36,57.93-54.36,68.94,0,0-4.74,1-2-4.07s25.54-36.35,25.54-36.35S165,89,155.2,107C155.2,107,153.23,109.52,152.19,106.29Z"/><path id="Tracé_402" data-name="Tracé 402" class="cls-3" d="M145.3,85.5a9.08,9.08,0,0,0,1-2.59,33.86,33.86,0,0,0,1.58-6.9,32.85,32.85,0,0,0-2.19-15.9,35.66,35.66,0,0,0-9.71-13,66,66,0,0,0-11.93-7.93c-2.46-1.35-15.39,29.46,14.59,47.91,0,0,2.31,1.51,1.92-1.75s-6-24.61-6-24.61a77.9,77.9,0,0,1,9,24.51S144.08,87,145.3,85.5Z"/><path id="Tracé_403" data-name="Tracé 403" class="cls-3" d="M141.34,108.64a12.59,12.59,0,0,0-1.29-3.68,47.17,47.17,0,0,0-4.71-8.7,45.79,45.79,0,0,0-17-14.68,49.71,49.71,0,0,0-22.16-4.67,90.94,90.94,0,0,0-19.84,2.68c-3.82.84,11,45.13,59.51,36.85,0,0,3.82-.55.41-3.61s-29-20.29-29-20.29S127,99.13,139.29,110C139.29,110,141.45,111.34,141.34,108.64Z"/><path id="Tracé_404" data-name="Tracé 404" class="cls-2" d="M218.51,159.58v0h0Z"/><path id="Tracé_405" data-name="Tracé 405" class="cls-2" d="M225.61,172.4v11.73h0a.67.67,0,0,1,0,.2c0,3.37-5.16,6.47-13.9,8.95A134.37,134.37,0,0,1,193,197a278.92,278.92,0,0,1-36.65,2.26A246.15,246.15,0,0,1,108,195c-13-2.69-21-6.49-21-10.67a1.23,1.23,0,0,1,0-.2h0V172.41a58,58,0,0,0,10.3,4.12c1.42.44,2.94.87,4.51,1.29a227.21,227.21,0,0,0,54.51,5.88,254.53,254.53,0,0,0,42.8-3.38,132.37,132.37,0,0,0,16.21-3.79A57.7,57.7,0,0,0,225.61,172.4Z"/></g></g></g></g></g></svg>