<svg xmlns="http://www.w3.org/2000/svg" viewBox="0 0 298.29 298.29"><defs><style>.cls-1{fill:#5770ad;}.cls-2{fill:#fff;}</style></defs><g id="Calque_2" data-name="Calque 2"><g id="Calque_1-2" data-name="Calque 1"><g id="Groupe_545" data-name="Groupe 545"><g id="Groupe_582-2" data-name="Groupe 582-2"><rect id="Rectangle_528-18" data-name="Rectangle 528-18" class="cls-1" width="298.29" height="298.29" rx="30.13"/></g><g id="Groupe_687" data-name="Groupe 687"><g id="Groupe_610" data-name="Groupe 610"><g id="Groupe_608" data-name="Groupe 608"><path id="Tracé_371" data-name="Tracé 371" class="cls-2" d="M172.06,168a2.52,2.52,0,0,1-1.12,3.38,3.27,3.27,0,0,1-.55.2,38.67,38.67,0,0,1-9,2.64,33.8,33.8,0,0,1-18.71-2A26.14,26.14,0,0,1,129,159.34a32.83,32.83,0,0,1-2.45-6.59.85.85,0,0,0-1-.77c-1.77.06-3.54,0-5.29,0s-2.39-.74-2.39-2.41c0-1.2,0-2.43,0-3.61a2,2,0,0,1,1.77-2.27,2.18,2.18,0,0,1,.51,0c1.65,0,3.31,0,5,0,0-1.18,0-2.31,0-3.53h-.66c-1.47,0-3,0-4.42,0a2,2,0,0,1-2.21-1.82h0a2.54,2.54,0,0,1,0-.39c0-1.31,0-2.62,0-3.95a2,2,0,0,1,1.79-2.15h.4c2,0,4,0,6,0a.65.65,0,0,0,.75-.54,31,31,0,0,1,4.65-9.31,26.53,26.53,0,0,1,13.66-9.64,34.17,34.17,0,0,1,8.14-1.44,4.85,4.85,0,0,0,.55-.09h3.74c1.27.18,2.55.34,3.83.54a34.45,34.45,0,0,1,9.15,2.72,2.67,2.67,0,0,1,1.82,3.32,2.53,2.53,0,0,1-.29.65c-.68,1.64-1.38,3.25-2.11,4.86a2.49,2.49,0,0,1-3,1.81h0a1.9,1.9,0,0,1-.4-.14c-2.57-.6-5.15-1.32-7.76-1.81a21,21,0,0,0-12.8,1.34,13.68,13.68,0,0,0-6.43,6.53c-.18.35-.32.69-.48,1a.67.67,0,0,0,0,.2h.71l12,0c1.75,0,2.48.75,2.46,2.48V138a2,2,0,0,1-1.78,2.24,1.93,1.93,0,0,1-.48,0q-7,0-14.1,0c-.23,0-.47,0-.77,0v3.54h.74c4.6,0,9.2,0,13.8.06,1.89,0,2.56.68,2.56,2.54v3.43a2,2,0,0,1-2.36,2.33c-4.22,0-8.48,0-12.71,0h-.73a17.66,17.66,0,0,0,3.64,6.47,15,15,0,0,0,9.5,4.45,30.71,30.71,0,0,0,12.12-1.27c1-.25,2-.5,3-.72a2.36,2.36,0,0,1,3.05,1.33.88.88,0,0,1,0,.15C170.56,164.27,171.35,166.11,172.06,168Z"/></g><g id="Groupe_609" data-name="Groupe 609"><path id="Tracé_372" data-name="Tracé 372" class="cls-2" d="M52.88,176.74c8.57,6.58,18.14,8.17,28.22,8,20.47-.25,40.93-.32,61.39-.66,3.28-.05,4,1,4,4.06,0,14.92.2,29.85.32,44.78,0,1.18-.1,2.36-.17,3.8-1.36.09-2.52.23-3.69.24-15.88.2-31.78.18-47.66.67a13,13,0,0,1-12-5.84,122.53,122.53,0,0,1-7.7-12.19C68.05,205.57,60.63,191.39,52.88,176.74Z"/><path id="Tracé_373" data-name="Tracé 373" class="cls-2" d="M154.33,102.86l12.53-7.63c.06-.54.19-.83.08-1-6.8-11.5-13.31-23.2-20.53-34.43a40.41,40.41,0,0,0-26.75-17.35c1.91-.09,3.83-.28,5.74-.28,19.26.1,38.52.19,57.78.38a35,35,0,0,1,7.12,1.12,11.57,11.57,0,0,1,7.94,6.22C202,56.61,206,63.16,210,70l13.64-7.91.6.43c-1.91,4.34-3.8,8.68-5.72,13-4.3,9.68-8.65,19.35-12.92,29.05-.73,1.67-1.43,2.8-3.66,2.61-15.22-1.35-30.47-2.57-45.71-3.85A16.24,16.24,0,0,1,154.33,102.86Z"/><path id="Tracé_374" data-name="Tracé 374" class="cls-2" d="M186.12,253.54c-7.47-11.9-14.22-23.26-21.63-34.18a9.77,9.77,0,0,1-.09-13c6.87-10,13-20.56,19.41-30.87.48-.76,1-1.46,2.14-3,0,4.76.08,8.55,0,12.33-.07,2.3.74,3.23,3.12,3.19,11.8-.18,23.6,0,35.39-.41,11.28-.42,20-6.36,27.45-14.3a15.45,15.45,0,0,1,3.07-2.81,19,19,0,0,1-.81,2.3C246.47,188,239,203.17,231,218.14a95.71,95.71,0,0,1-10,14.09,12.85,12.85,0,0,1-10.85,4.7c-6.86-.12-13.73.16-20.59.12-2.63,0-3.64,1-3.52,3.63C186.25,244.65,186.12,248.6,186.12,253.54Z"/><path id="Tracé_375" data-name="Tracé 375" class="cls-2" d="M72.88,96.86c5.72-9.5,11.19-18.54,16.64-27.58,2.91-4.84,6-9.58,8.65-14.58,4-7.7,10.72-9.78,18.47-8.91,14.88,1.65,25.15,10.06,31.81,23.15a3.38,3.38,0,0,1-.16,2.88q-15.79,24-31.75,47.81a5.92,5.92,0,0,1-1.06.87Z"/><path id="Tracé_376" data-name="Tracé 376" class="cls-2" d="M187.67,131.37,231,105.07c1.69,3.06,3.25,5.85,4.77,8.66q9.51,17.63,19,35.25a15,15,0,0,1-.74,15.83,41,41,0,0,1-28.57,19.55,4.85,4.85,0,0,1-4-1.13C210.18,166.18,199.1,149,187.67,131.37Z"/><path id="Tracé_377" data-name="Tracé 377" class="cls-2" d="M58.48,130.84l-13.29-8,.1-.67c3.88-.17,7.74-.39,11.62-.5,11-.34,21.91-.69,32.86-.9,1.24,0,3.16.47,3.64,1.33,7.23,13.29,14.28,26.68,21.88,41-4.44-2.51-8-4.38-11.45-6.52a2.83,2.83,0,0,0-4,.22h0a2.29,2.29,0,0,0-.32.43c-2.16,2.58-4.52,5-6.65,7.61-5.38,6.58-5.3,9.5.48,15.64-10.9,0-21.54,1.19-31.64-4a22,22,0,0,1-12.9-20.83A36.25,36.25,0,0,1,58.48,130.84Z"/></g></g></g></g></g></g></svg>