<svg xmlns="http://www.w3.org/2000/svg" viewBox="0 0 298.29 298.29"><defs><style>.cls-1{fill:#5770ad;}.cls-2,.cls-3{fill:#fff;}.cls-3{stroke:#fff;stroke-miterlimit:10;stroke-width:0.55px;}</style></defs><g id="Calque_2" data-name="Calque 2"><g id="Calque_1-2" data-name="Calque 1"><g id="Groupe_543" data-name="Groupe 543"><g id="Groupe_580-2" data-name="Groupe 580-2"><rect id="Rectangle_528-16" data-name="Rectangle 528-16" class="cls-1" width="298.29" height="298.29" rx="30.13"/><path id="Tracé_273-2" data-name="Tracé 273-2" class="cls-2" d="M175.83,129.45c-1.72,1.53-6.22,5.48-11.2,9.57Q170.24,134.25,175.83,129.45Z"/></g><g id="Groupe_685" data-name="Groupe 685"><g id="Groupe_594" data-name="Groupe 594"><g id="Groupe_593" data-name="Groupe 593"><path id="Tracé_316" data-name="Tracé 316" class="cls-3" d="M155.66,190.13c1.62,0,3.26.1,4.88,0a57.77,57.77,0,0,0,20.61-4.61c5.5-2.56,10.75-5.55,16-8.5,2.25-1.26,4.56-2.4,6.82-3.62a68.33,68.33,0,0,1,10.33-4.92,36.84,36.84,0,0,1,7.51-2.38,21.63,21.63,0,0,1,10.62.77,9.77,9.77,0,0,1,5.82,5.37,6.15,6.15,0,0,1-1.34,7.15c-2.07,2-4.29,3.82-6.46,5.7-.9.78-1.83,1.51-2.74,2.27-4.91,4.11-10.24,7.65-15.44,11.36-4.27,3-8.78,5.62-13.26,8.27-4.07,2.41-8.28,4.6-12.54,6.68a109.28,109.28,0,0,1-17.43,6.75,23.77,23.77,0,0,1-6.36,1.15,67.9,67.9,0,0,0-7.26.75,3,3,0,0,0-.43,0c-4.14.14-8.29.27-12.43.44a89.26,89.26,0,0,0-9.25.48c-4.65.68-9.3,0-13.93.39-5.91.48-11.83.36-17.74.4a6.9,6.9,0,0,0-1.42.3,40.86,40.86,0,0,0-13,6.81c-2.7,1.85-5.18,4-7.77,6a111,111,0,0,0-10.26,9c-1.16,1.16-1.29,1.14-2.54-.13-3.41-3.4-6.78-6.83-10.22-10.2-4.48-4.39-9-8.73-13.52-13.1L31.19,211.4c-1.32-1.29-1.37-1.35-.35-2.9,2.51-3.83,5.05-7.64,7.68-11.4,2-2.91,4.18-5.73,6.33-8.57,1.43-1.88,2.9-3.74,4.42-5.56a116.63,116.63,0,0,1,10.3-11.13,36.38,36.38,0,0,1,8.74-6.39A31.13,31.13,0,0,1,76.87,163c3.08-.52,6.19-.87,9.3-1.28l.2,0c2.6-.14,5.18-.3,7.77-.42,3.09-.16,6.2-.09,9.25-.52,1.9-.26,3.77-.2,5.65-.36,2.29-.18,4.56-.55,6.84-.79,1.73-.19,3.48-.26,5.21-.48,2.28-.29,4.55-.64,6.82-1s4.37-.75,6.57-1.1c2.88-.48,5.76-.92,8.63-1.4s6-1,9-1.58c2.11-.38,4.2-.93,6.33-1.16a46.71,46.71,0,0,1,10.3-.49,6.69,6.69,0,0,1,5.48,6.09,14.88,14.88,0,0,1-1.25,8.4,25.83,25.83,0,0,1-3.27,5.05,32.41,32.41,0,0,1-15.44,9.18c-4.58,1.37-9.22,2.54-13.8,3.88-2.33.68-4.61,1.51-6.91,2.3a2.61,2.61,0,0,0-.67.47,4.41,4.41,0,0,0,.7.23c3.16.5,6.31,1,9.49,1.36A89.61,89.61,0,0,0,155.66,190.13Z"/></g><path id="Tracé_317" data-name="Tracé 317" class="cls-3" d="M196.86,129.92a17.5,17.5,0,0,1-.06-5.5,66.77,66.77,0,0,1,2.06-13.85,64.81,64.81,0,0,1,15.47-27.71,70.12,70.12,0,0,1,27.2-16.93,129.81,129.81,0,0,1,27.67-6c5.49-.73,7.17,65.32-61.3,77.73,0,0-5.35,1.11-2.29-4.59s28.81-41,28.81-41-23.09,18.31-34.15,38.7C200.26,130.78,198,133.57,196.86,129.92Z"/><path id="Tracé_318" data-name="Tracé 318" class="cls-3" d="M189.09,106.48a10.35,10.35,0,0,0,1.18-2.91,37.92,37.92,0,0,0,1.78-7.79,37,37,0,0,0-2.48-17.94,40,40,0,0,0-10.94-14.62,73.2,73.2,0,0,0-13.46-8.94c-2.76-1.53-17.35,33.22,16.46,54,0,0,2.6,1.7,2.16-2S177,78.57,177,78.57a87.64,87.64,0,0,1,10.13,27.65S187.71,108.17,189.09,106.48Z"/><path id="Tracé_319" data-name="Tracé 319" class="cls-3" d="M184.63,132.57a14.47,14.47,0,0,0-1.45-4.14,53.21,53.21,0,0,0-5.31-9.82,51.58,51.58,0,0,0-19.15-16.55,56,56,0,0,0-25-5.27,102.94,102.94,0,0,0-22.37,3c-4.31,1,12.42,50.9,67.11,41.57,0,0,4.3-.63.46-4.07s-32.76-22.87-32.76-22.87,22.3,7.43,36.14,19.7C182.31,134.14,184.74,135.62,184.63,132.57Z"/></g></g></g></g></g></svg>