<svg xmlns="http://www.w3.org/2000/svg" viewBox="0 0 298.29 298.29"><defs><style>.cls-1{fill:#5770ad;}.cls-2,.cls-3{fill:#fff;}.cls-3{stroke:#fff;stroke-miterlimit:10;stroke-width:0.52px;}</style></defs><g id="Calque_2" data-name="Calque 2"><g id="Calque_1-2" data-name="Calque 1"><g id="Groupe_541" data-name="Groupe 541"><g id="Groupe_666-3" data-name="Groupe 666-3"><rect id="Rectangle_528-22" data-name="Rectangle 528-22" class="cls-1" width="298.29" height="298.29" rx="30.13"/></g><g id="Groupe_684" data-name="Groupe 684"><g id="Groupe_592" data-name="Groupe 592"><g id="Groupe_590" data-name="Groupe 590"><path id="Tracé_314" data-name="Tracé 314" class="cls-2" d="M117.12,47.78A60.36,60.36,0,1,0,200,68.07a60.36,60.36,0,0,0-82.91-20.29Zm55.44,19.58c-.84,2-1.68,4-2.55,5.89a3,3,0,0,1-3.7,2.2,2.46,2.46,0,0,1-.48-.16c-3.14-.74-6.26-1.62-9.42-2.2a25.5,25.5,0,0,0-15.56,1.64A16.52,16.52,0,0,0,133,82.67c-.21.41-.4.82-.58,1.23a1,1,0,0,0,0,.24c.3,0,.58,0,.87,0l14.54,0c2.13,0,3,.88,3,3V91.6a2.46,2.46,0,0,1-2.15,2.72,2.41,2.41,0,0,1-.6,0c-5.71,0-11.41,0-17.12,0l-.93,0c0,1.44,0,2.83,0,4.29h.9l16.75.06c2.3,0,3.12.84,3.11,3.11v4.16a2.5,2.5,0,0,1-2.11,2.84,2.63,2.63,0,0,1-.74,0c-5.16,0-10.3,0-15.46,0h-.9A21.73,21.73,0,0,0,136,116.5a18.21,18.21,0,0,0,11.54,5.4,37.53,37.53,0,0,0,14.74-1.54c1.2-.3,2.4-.6,3.6-.87a2.84,2.84,0,0,1,3.69,1.59h0a1.07,1.07,0,0,1,.07.19c1,2.22,2,4.42,2.84,6.68a3.07,3.07,0,0,1-1.37,4.11h0a3.71,3.71,0,0,1-.66.24,46.69,46.69,0,0,1-10.93,3.21,41,41,0,0,1-22.73-2.38,31.72,31.72,0,0,1-16.68-15.67,38.13,38.13,0,0,1-3-8,1,1,0,0,0-1.11-1h0l-.11,0c-2.15.06-4.3,0-6.44,0s-2.88-.9-2.9-2.93c0-1.46,0-3,0-4.4a2.46,2.46,0,0,1,2.12-2.76,2.29,2.29,0,0,1,.64,0c2,0,4.05,0,6.11,0V94.18h-.78c-1.8,0-3.59,0-5.37,0A2.44,2.44,0,0,1,106.65,92a2,2,0,0,1,0-.49c0-1.6,0-3.19,0-4.79a2.42,2.42,0,0,1,2.18-2.62h0a1.93,1.93,0,0,1,.48,0c2.46,0,4.9,0,7.36,0a.79.79,0,0,0,.9-.65h0a37.87,37.87,0,0,1,5.66-11.31,32.32,32.32,0,0,1,16.6-11.72,41,41,0,0,1,9.89-1.74c.22,0,.44-.06.66-.11h4.55c1.54.21,3.1.4,4.64.65a42.6,42.6,0,0,1,11.11,3.31,3.26,3.26,0,0,1,1.88,4.84Z"/></g><g id="Groupe_591" data-name="Groupe 591"><path id="Tracé_315" data-name="Tracé 315" class="cls-3" d="M168.63,206.16c1.51,0,3.05.09,4.56,0a54.09,54.09,0,0,0,19.29-4.32c5.14-2.38,10-5.19,15-7.94,2.11-1.17,4.27-2.24,6.38-3.4a63.89,63.89,0,0,1,9.67-4.6,35.3,35.3,0,0,1,7-2.24,20.21,20.21,0,0,1,9.94.73,9.13,9.13,0,0,1,5.44,5,5.71,5.71,0,0,1-1.26,6.68c-1.93,1.86-4,3.57-6,5.34-.84.73-1.72,1.41-2.57,2.12-4.6,3.84-9.57,7.15-14.44,10.62-4,2.85-8.22,5.26-12.41,7.74-3.81,2.25-7.75,4.3-11.73,6.24a101.44,101.44,0,0,1-16.3,6.33,22,22,0,0,1-5.95,1.07,67,67,0,0,0-6.79.7l-.4,0c-3.88.14-7.76.26-11.64.41a83.39,83.39,0,0,0-8.65.45c-4.35.63-8.7,0-13,.36-5.53.45-11.07.34-16.6.39a5.35,5.35,0,0,0-1.32.28,38.25,38.25,0,0,0-12.2,6.37c-2.53,1.73-4.86,3.74-7.27,5.61a102.48,102.48,0,0,0-9.61,8.42c-1.08,1.08-1.2,1.06-2.38-.12-3.18-3.18-6.33-6.39-9.55-9.54-4.19-4.11-8.43-8.17-12.65-12.24L52.21,226.06c-1.23-1.21-1.29-1.26-.34-2.71,2.36-3.58,4.73-7.15,7.19-10.66,1.9-2.71,3.91-5.37,5.91-8,1.34-1.77,2.72-3.5,4.13-5.21a111.68,111.68,0,0,1,9.64-10.41,33.83,33.83,0,0,1,8.18-6,29.08,29.08,0,0,1,8-2.31c2.88-.49,5.8-.81,8.69-1.21h.2l7.27-.4c2.89-.14,5.8-.09,8.64-.48,1.78-.24,3.53-.2,5.29-.34,2.14-.17,4.27-.51,6.4-.74,1.63-.18,3.27-.25,4.88-.45,2.14-.27,4.26-.6,6.37-.93s4.1-.69,6.15-1c2.69-.44,5.38-.86,8.07-1.31s5.62-1,8.44-1.47c2-.36,3.93-.88,5.92-1.09a43.21,43.21,0,0,1,9.64-.45,6.21,6.21,0,0,1,5.12,5.69,13.9,13.9,0,0,1-1.16,7.86,23.93,23.93,0,0,1-3.06,4.71,30.3,30.3,0,0,1-14.46,8.59c-4.28,1.29-8.61,2.38-12.9,3.63-2.17.63-4.31,1.42-6.46,2.15a2.74,2.74,0,0,0-.63.44,3.79,3.79,0,0,0,.65.21c2.95.47,5.9.92,8.88,1.27A84.12,84.12,0,0,0,168.63,206.16Z"/></g></g></g></g></g></g></svg>