<svg xmlns="http://www.w3.org/2000/svg" viewBox="0 0 298.29 298.29"><defs><style>.cls-1{fill:#5770ad;}.cls-2{fill:#fff;}</style></defs><g id="Calque_2" data-name="Calque 2"><g id="Calque_1-2" data-name="Calque 1"><g id="Groupe_536" data-name="Groupe 536"><g id="Groupe_666-2" data-name="Groupe 666-2"><rect id="Rectangle_528-13" data-name="Rectangle 528-13" class="cls-1" width="298.29" height="298.29" rx="30.13"/></g><g id="Groupe_681" data-name="Groupe 681"><g id="Groupe_589" data-name="Groupe 589"><path id="Tracé_311" data-name="Tracé 311" class="cls-2" d="M151.17,75.38a14,14,0,0,1,1.71,0,18.72,18.72,0,0,1,3.48.57,105.5,105.5,0,0,1,15.33,5.37c5.33,2.15,10.64,4.37,16,6.46,23.85,9.37,47.74,18.63,71.56,28,5.23,2.07,12.53,4.45,16.36,8.76a2.61,2.61,0,0,1,.62,3.64,2.8,2.8,0,0,1-.56.58,27.45,27.45,0,0,1-8.46,5.28,2.08,2.08,0,0,0-1.3,2.19c0,12.23.11,24.47,0,36.7a7.22,7.22,0,0,0,2.6,6.23c2.2,1.87,4.15,4.06,6.28,6.18l-18.12,18.84L238.1,185.62c3.78-3.44,7.68-7,11.6-10.53a2.43,2.43,0,0,0,.88-2q0-15.19,0-30.4v-1.32c-.6.23-1.07.39-1.53.6l-83.69,34.8a36.57,36.57,0,0,1-19.85,2.88,65.08,65.08,0,0,1-13.18-3.85c-26.68-10-53.41-19.89-79.58-31.21-7.15-3.09-14.16-6.53-21.09-10.09a24.2,24.2,0,0,1-6.19-4.93,4.17,4.17,0,0,1-.26-5.88h0a4.22,4.22,0,0,1,.49-.45,9.32,9.32,0,0,1,2.15-1.81,50.88,50.88,0,0,1,6.68-3.56c10.66-4.14,21.38-8.16,32.08-12.18q35.49-13.36,71-26.67a66,66,0,0,1,11.84-3.43C150,75.51,150.59,75.43,151.17,75.38Z"/><path id="Tracé_312" data-name="Tracé 312" class="cls-2" d="M149.11,224.74c-2.44-.17-4.87-.3-7.31-.51a109,109,0,0,1-62-25.35,2,2,0,0,1-.66-1.28c0-7.55,0-15.11,0-22.67a3.46,3.46,0,0,1,.14-.53l2.25.85c10.49,3.67,21.06,8.58,31.55,12.21a202.14,202.14,0,0,0,30.4,8.11c9.32,1.71,18.8-.84,27.69-3.71a277.41,277.41,0,0,0,47.1-21.3c.48-.22,1-.42,1.48-.6v1.4c0,8.55,0,17.09,0,25.63a2.87,2.87,0,0,1-1,2.33A94.21,94.21,0,0,1,190,217.24a101.11,101.11,0,0,1-34.58,7.31c-.55,0-1.1.13-1.64.2Z"/></g></g></g></g></g></svg>