<svg xmlns="http://www.w3.org/2000/svg" viewBox="0 0 298.29 298.29"><defs><style>.cls-1{fill:#5770ad;}.cls-2{fill:#fff;}</style></defs><g id="Calque_2" data-name="Calque 2"><g id="Calque_1-2" data-name="Calque 1"><g id="Groupe_535" data-name="Groupe 535"><g id="Groupe_667-2" data-name="Groupe 667-2"><rect id="Rectangle_528-14" data-name="Rectangle 528-14" class="cls-1" width="298.29" height="298.29" rx="30.13"/></g><g id="Groupe_680" data-name="Groupe 680"><g id="Groupe_588" data-name="Groupe 588"><path id="Tracé_309" data-name="Tracé 309" class="cls-2" d="M158.39,172.73a24.88,24.88,0,0,1-8.47,13.13,2.24,2.24,0,0,1-1.69.32,53.29,53.29,0,0,1-3.82-101,52,52,0,0,1,49.8,6.34l.9.6,25.58-25.61h-26.8V51.22h53.22v53.23H232V77.77l-25.57,25.58a53,53,0,0,1,8.21,46.43,52,52,0,0,1-17.85,26.83c.25-2.55.49-4.82.7-7.07a64.21,64.21,0,0,0-.68-14.59,5,5,0,0,1,.45-2.8A38.06,38.06,0,1,0,157,172.47Z"/><path id="Tracé_310" data-name="Tracé 310" class="cls-2" d="M77,210.32l12.84-12.91A53.07,53.07,0,0,1,81.48,151a52.1,52.1,0,0,1,18-27c-.2,1.69-.35,3-.51,4.39a63.31,63.31,0,0,0,.43,17.28,4.87,4.87,0,0,1-.43,2.81,38.11,38.11,0,1,0,40-20.3l-1.17-.23a20.2,20.2,0,0,1,3.33-7.52,68.67,68.67,0,0,1,4.71-5.38,2,2,0,0,1,2.43-.5c21.48,7.39,34.37,22.18,37.46,44.73a53,53,0,0,1-42.56,58.7,52.43,52.43,0,0,1-41.46-9c-.18-.13-.36-.26-.56-.38s-.16-.07-.12-.05L88.17,221.38l15,14.82-10.8,10.92-15.14-15.3L62.07,247.07,51.23,236.2l15.15-15-15.09-15L62.2,195.4Z"/></g></g></g></g></g></svg>