<svg xmlns="http://www.w3.org/2000/svg" viewBox="0 0 298.29 298.29"><defs><style>.cls-1{fill:#5770ad;}.cls-2{fill:#fff;}</style></defs><g id="Calque_2" data-name="Calque 2"><g id="Calque_1-2" data-name="Calque 1"><g id="Groupe_534" data-name="Groupe 534"><g id="Groupe_579-2" data-name="Groupe 579-2"><rect id="Rectangle_528-15" data-name="Rectangle 528-15" class="cls-1" width="298.29" height="298.29" rx="30.13"/></g><g id="Groupe_679" data-name="Groupe 679"><g id="Groupe_587" data-name="Groupe 587"><g id="Groupe_586" data-name="Groupe 586"><path id="Tracé_308" data-name="Tracé 308" class="cls-2" d="M259.68,269.32c-1.15-.06-2.3,0-3.63,0v-3.59q0-120,0-240a6.94,6.94,0,0,0-3.61-6.92H147.57A6.94,6.94,0,0,0,144,25.7c.12,19.1.05,38.18.05,57.27v3H50.2c-6.86,0-8,1.16-8,7.92V269.35a40.62,40.62,0,0,0-4.13,0,5,5,0,0,0-4.51,5A5.08,5.08,0,0,0,38,279.43a21.93,21.93,0,0,0,2.81.06H257.42c.76,0,1.53,0,2.29,0a5.07,5.07,0,0,0,.12-10.14h-.15ZM80.34,180.23a5,5,0,0,1-5,5h0c-2.54.1-5.09.09-7.62,0a5,5,0,0,1-5.15-4.86h0v-.28c-.09-2.27,0-4.56,0-6.83a5.19,5.19,0,0,1,4.5-5.81,4.65,4.65,0,0,1,1.29,0c1.1,0,2.19,0,3.29,0h2.28c4.68,0,6.43,1.76,6.46,6.42,0,2.1.06,4.21,0,6.34Zm0,26.63c0,8.16-.81,9-9,9-8,0-8.84-.85-8.84-8.86,0-8.17.78-9,9-9,8,0,8.84.85,8.84,8.84Zm8.91,0c0-8,.82-8.88,8.87-8.88s9,.8,9,9.07c0,7.94-.85,8.75-9,8.75-8,0-8.82-.83-8.82-8.94Zm0-30.49c0-8.13.8-8.93,8.81-8.93,8.24,0,9,.75,9,9,0,8-.86,8.83-9,8.83s-8.85-.84-8.85-8.9ZM116,206.84c0-8,.84-8.85,8.85-8.85,8.19,0,9,.79,9,9,0,8-.85,8.86-8.85,8.86C116.82,215.81,116,215,116,206.84Zm0-30.58c0-8,.86-8.81,8.89-8.81s8.94.78,8.94,9c0,8-.85,8.83-8.89,8.83s-8.94-.8-8.94-9Zm7.47,92.9h-20v-20h20ZM200,106.33c8.16,0,9,.81,9,9.06,0,7.94-.84,8.76-9,8.76-8,0-8.82-.83-8.82-9s.8-8.86,8.85-8.86Zm.22,30.56c7.85,0,8.74.88,8.74,8.77,0,8.24-.8,9-9,9s-8.85-.82-8.85-8.9.76-8.9,9.08-8.9Zm.06,30.54c7.72,0,8.68.95,8.68,8.6v.25c0,8.22-.78,9-9,9-7.92,0-8.8-.86-8.8-8.7,0-8.37.73-9.1,9.14-9.1Zm-26.9,48.38c-8.16,0-9-.8-9-9,0-8,.83-8.83,8.86-8.83s9,.78,9,9c0,8-.88,8.84-8.88,8.84Zm-.19-30.56c-7.89,0-8.77-.88-8.77-8.66,0-8.4.74-9.16,9-9.16,7.89,0,8.79.89,8.79,8.66,0,8.43-.78,9.18-9.08,9.18Zm.15-30.55c-8.13,0-8.92-.8-8.92-9,0-8,.85-8.8,8.9-8.8s8.92.8,8.92,9c0,8-.89,8.82-8.93,8.82Zm8.88-35.87a5.07,5.07,0,0,1-4.82,5.3,3.23,3.23,0,0,1-.44,0c-2.36.08-4.73.07-7.1,0a5.11,5.11,0,0,1-5.44-4.74c0-.22,0-.43,0-.65,0-2.19,0-4.39,0-6.59a5.22,5.22,0,0,1,4.56-5.82,4.9,4.9,0,0,1,1.21,0h5.33c5,0,6.7,1.67,6.73,6.66,0,2,0,3.92-.06,5.86Zm14.51,97a5.06,5.06,0,0,1-5.53-4.54h0a6.43,6.43,0,0,1,0-.76c-.1-2.2-.07-4.42,0-6.62.1-4.07,1.94-5.85,6-5.9h3.06c7.9,0,8.77.87,8.77,8.74,0,8.35-.75,9.08-9.2,9.08-1,0-2,0-3.07,0Zm28.66,53.27H205.25v-20h20.14Zm1.25-53.26c-7.85,0-8.76-.9-8.76-8.68,0-8.4.75-9.15,9.05-9.15,7.87,0,8.78.88,8.78,8.68,0,8.4-.8,9.14-9.1,9.14Zm.15-30.56c-8.12,0-8.91-.8-8.91-9,0-7.95.84-8.79,8.9-8.79s8.92.8,8.92,9c0,7.95-.91,8.8-9,8.8Zm-.11-30.55c-8,0-8.8-.86-8.8-8.9s.79-8.92,9-8.92c8,0,8.8.86,8.8,8.89s-.85,8.94-9.06,8.94Zm0-30.56c-7.94,0-8.79-.84-8.79-8.9s.79-8.91,9-8.91c8,0,8.8.84,8.8,8.91s-.86,8.92-9.09,8.92Z"/></g></g><g id="Groupe_678" data-name="Groupe 678"><g id="Groupe_586-2" data-name="Groupe 586-2"><path id="Tracé_308-2" data-name="Tracé 308-2" class="cls-2" d="M259.68,269.32c-1.15-.06-2.3,0-3.63,0v-3.59q0-120,0-240a6.94,6.94,0,0,0-3.61-6.92H147.57A6.94,6.94,0,0,0,144,25.7c.12,19.1.05,38.18.05,57.27v3H50.2c-6.86,0-8,1.16-8,7.92V269.35a40.62,40.62,0,0,0-4.13,0,5,5,0,0,0-4.51,5A5.08,5.08,0,0,0,38,279.43a21.93,21.93,0,0,0,2.81.06H257.42c.76,0,1.53,0,2.29,0a5.07,5.07,0,0,0,.12-10.14h-.15ZM80.34,180.23a5,5,0,0,1-5,5h0c-2.54.1-5.09.09-7.62,0a5,5,0,0,1-5.15-4.86h0v-.28c-.09-2.27,0-4.56,0-6.83a5.19,5.19,0,0,1,4.5-5.81,4.65,4.65,0,0,1,1.29,0c1.1,0,2.19,0,3.29,0h2.28c4.68,0,6.43,1.76,6.46,6.42,0,2.1.06,4.21,0,6.34Zm0,26.63c0,8.16-.81,9-9,9-8,0-8.84-.85-8.84-8.86,0-8.17.78-9,9-9,8,0,8.84.85,8.84,8.84Zm8.91,0c0-8,.82-8.88,8.87-8.88s9,.8,9,9.07c0,7.94-.85,8.75-9,8.75-8,0-8.82-.83-8.82-8.94Zm0-30.49c0-8.13.8-8.93,8.81-8.93,8.24,0,9,.75,9,9,0,8-.86,8.83-9,8.83s-8.85-.84-8.85-8.9ZM116,206.84c0-8,.84-8.85,8.85-8.85,8.19,0,9,.79,9,9,0,8-.85,8.86-8.85,8.86C116.82,215.81,116,215,116,206.84Zm0-30.58c0-8,.86-8.81,8.89-8.81s8.94.78,8.94,9c0,8-.85,8.83-8.89,8.83s-8.94-.8-8.94-9Zm7.47,92.9h-20v-20h20ZM200,106.33c8.16,0,9,.81,9,9.06,0,7.94-.84,8.76-9,8.76-8,0-8.82-.83-8.82-9s.8-8.86,8.85-8.86Zm.22,30.56c7.85,0,8.74.88,8.74,8.77,0,8.24-.8,9-9,9s-8.85-.82-8.85-8.9.76-8.9,9.08-8.9Zm.06,30.54c7.72,0,8.68.95,8.68,8.6v.25c0,8.22-.78,9-9,9-7.92,0-8.8-.86-8.8-8.7,0-8.37.73-9.1,9.14-9.1Zm-26.9,48.38c-8.16,0-9-.8-9-9,0-8,.83-8.83,8.86-8.83s9,.78,9,9c0,8-.88,8.84-8.88,8.84Zm-.19-30.56c-7.89,0-8.77-.88-8.77-8.66,0-8.4.74-9.16,9-9.16,7.89,0,8.79.89,8.79,8.66,0,8.43-.78,9.18-9.08,9.18Zm.15-30.55c-8.13,0-8.92-.8-8.92-9,0-8,.85-8.8,8.9-8.8s8.92.8,8.92,9c0,8-.89,8.82-8.93,8.82Zm8.88-35.87a5.07,5.07,0,0,1-4.82,5.3,3.23,3.23,0,0,1-.44,0c-2.36.08-4.73.07-7.1,0a5.11,5.11,0,0,1-5.44-4.74c0-.22,0-.43,0-.65,0-2.19,0-4.39,0-6.59a5.22,5.22,0,0,1,4.56-5.82,4.9,4.9,0,0,1,1.21,0h5.33c5,0,6.7,1.67,6.73,6.66,0,2,0,3.92-.06,5.86Zm14.51,97a5.06,5.06,0,0,1-5.53-4.54h0a6.43,6.43,0,0,1,0-.76c-.1-2.2-.07-4.42,0-6.62.1-4.07,1.94-5.85,6-5.9h3.06c7.9,0,8.77.87,8.77,8.74,0,8.35-.75,9.08-9.2,9.08-1,0-2,0-3.07,0Zm28.66,53.27H205.25v-20h20.14Zm1.25-53.26c-7.85,0-8.76-.9-8.76-8.68,0-8.4.75-9.15,9.05-9.15,7.87,0,8.78.88,8.78,8.68,0,8.4-.8,9.14-9.1,9.14Zm.15-30.56c-8.12,0-8.91-.8-8.91-9,0-7.95.84-8.79,8.9-8.79s8.92.8,8.92,9c0,7.95-.91,8.8-9,8.8Zm-.11-30.55c-8,0-8.8-.86-8.8-8.9s.79-8.92,9-8.92c8,0,8.8.86,8.8,8.89s-.85,8.94-9.06,8.94Zm0-30.56c-7.94,0-8.79-.84-8.79-8.9s.79-8.91,9-8.91c8,0,8.8.84,8.8,8.91s-.86,8.92-9.09,8.92Z"/></g></g></g></g></g></g></svg>