<svg xmlns="http://www.w3.org/2000/svg" viewBox="0 0 298.29 298.29"><defs><style>.cls-1{fill:#5770ad;}.cls-2{fill:#fff;stroke:#fff;stroke-miterlimit:10;stroke-width:0.78px;}</style></defs><g id="Calque_2" data-name="Calque 2"><g id="Calque_1-2" data-name="Calque 1"><g id="Groupe_532" data-name="Groupe 532"><g id="Groupe_578-2" data-name="Groupe 578-2"><rect id="Rectangle_528-12" data-name="Rectangle 528-12" class="cls-1" width="298.29" height="298.29" rx="30.13"/></g><g id="Groupe_673" data-name="Groupe 673"><path id="Tracé_95" data-name="Tracé 95" class="cls-2" d="M176.68,249.62a1.17,1.17,0,0,1-.32,0,.58.58,0,0,1,.32,0,4,4,0,0,1,3.68,4V255a4,4,0,0,1-4,4h-.86a10.38,10.38,0,0,1-9.22,5.4c-10.59.26-21.17.36-31.76-.07A9.49,9.49,0,0,1,126,259h-1a4,4,0,0,1-4-4h0v-1.32a3.94,3.94,0,0,1,2.71-3.76,3.18,3.18,0,0,1,1.21-.24,4.07,4.07,0,0,1-1.24-.24,3.92,3.92,0,0,1-2.69-3.76v-1.33a4,4,0,0,1,4-4h-.43a5.69,5.69,0,0,1-.83-.08,4,4,0,0,1-3.17-3.92V235a4,4,0,0,1,3.41-3.94,2.88,2.88,0,0,1,.59-.06,5.87,5.87,0,0,1-.59-.05,4,4,0,0,1-3.41-3.95v-1.33a4,4,0,0,1,3.38-3.95,3.14,3.14,0,0,1,.61-.05c-.2,0-.41,0-.61-.06a4,4,0,0,1-3.38-4v-1.33a3.9,3.9,0,0,1,3-3.87H135.7l29.2,0h11.81a4,4,0,0,1,3.22,3.92v1.33a4,4,0,0,1-3.46,4,.21.21,0,1,0-.41.11.21.21,0,0,0,.26.15.23.23,0,0,0,.15-.15,3.93,3.93,0,0,1,3.46,3.94V227a4,4,0,0,1-3.17,3.93,3.73,3.73,0,0,1-.82.07,5.56,5.56,0,0,1,.82.08,4,4,0,0,1,3.17,3.91v1.34a3.94,3.94,0,0,1-3.14,3.89,2.78,2.78,0,0,1-.86.11h.43a1.24,1.24,0,0,1,.43.06,3.94,3.94,0,0,1,3.57,3.94v1.33A4,4,0,0,1,176.68,249.62Z"/><path id="Tracé_96" data-name="Tracé 96" class="cls-2" d="M203.81,57.33a70.09,70.09,0,0,0-36.68-21.45,75.55,75.55,0,0,0-38.3.56,70.94,70.94,0,0,0-28.17,15A62.87,62.87,0,0,0,81,81.28a49.69,49.69,0,0,0,.3,32.81A121.89,121.89,0,0,0,95,138.57a258.51,258.51,0,0,1,19.31,31.19,82.4,82.4,0,0,1,8.56,27c.27,2.61.48,5.2.61,7.73H135.7l29.2,0h11.81a101.52,101.52,0,0,1,2.19-15,122.3,122.3,0,0,1,16.53-37.86c6.4-10.25,12.77-20.53,18.74-31a42.93,42.93,0,0,0,5.68-19.09A59.56,59.56,0,0,0,203.81,57.33Zm-59.56,62.44c-.41-.33-.83-.66-1.25-1-.83-.63-1.68-1.24-2.55-1.84-.72-.5-1.44-1-2.17-1.44s-1.19-.75-1.79-1.11q-2.12-1.28-4.3-2.4l-1-.49-1.13-.55-1.15-.54c-.64-.29-1.29-.57-1.94-.84s-1.1-.46-1.65-.67l-1.58-.6c-.48-.18-1-.35-1.45-.51a.71.71,0,0,1,.14.1l.16.1a1.05,1.05,0,0,1,.21.15c.11.06.23.16.37.25l.43.28.18.12.31.22.15.08.35.26c4.88,3.29,15.79,10.7,17.59,12.32,2.34,2.09-.28,2.48-.28,2.48-33.29,5.67-43.47-24.74-40.85-25.31A63.25,63.25,0,0,1,114.68,97a34.1,34.1,0,0,1,15.21,3.2,31.57,31.57,0,0,1,11.65,10.08,32.86,32.86,0,0,1,3.24,6,8.68,8.68,0,0,1,.88,2.52c.07,1.85-1.41,1-1.41,1Zm5.93-23.35a23.44,23.44,0,0,1-1.09,4.74,6,6,0,0,1-.71,1.77c-.84,1-1.21-.16-1.21-.16A53.26,53.26,0,0,0,141,85.94s3.87,14.66,4.14,16.89-1.32,1.21-1.32,1.21c-20.56-12.66-11.69-33.82-10-32.89A45.64,45.64,0,0,1,142,76.58a24.36,24.36,0,0,1,6.66,8.91,22.53,22.53,0,0,1,1.51,10.92Zm9.64,25.49s-3.24.67-1.38-2.81S175.54,94.74,176,94.17c-.43.34-14.15,11.32-20.78,23.54,0,0-1.36,1.71-2.07-.51a10.76,10.76,0,0,1,0-3.35,40.58,40.58,0,0,1,1.25-8.43,39.35,39.35,0,0,1,9.42-16.88,42.63,42.63,0,0,1,16.56-10.3,78.24,78.24,0,0,1,16.84-3.66c3.34-.45,4.36,39.77-37.32,47.32Z"/></g></g></g></g></svg>