<svg xmlns="http://www.w3.org/2000/svg" viewBox="0 0 298.29 298.29"><defs><style>.cls-1{fill:#5770ad;}.cls-2,.cls-3,.cls-4,.cls-5,.cls-6{fill:#fff;stroke:#fff;stroke-miterlimit:10;}.cls-2{stroke-width:0.45px;}.cls-3{stroke-width:0.32px;}.cls-4{stroke-width:0.35px;}.cls-5{stroke-width:0.4px;}.cls-6{stroke-width:0.26px;}</style></defs><g id="Calque_2" data-name="Calque 2"><g id="Calque_1-2" data-name="Calque 1"><g id="Groupe_530" data-name="Groupe 530"><g id="Groupe_576-2" data-name="Groupe 576-2"><rect id="Rectangle_528-10" data-name="Rectangle 528-10" class="cls-1" width="298.29" height="298.29" rx="30.13"/></g><g id="Groupe_672" data-name="Groupe 672"><g id="Groupe_583" data-name="Groupe 583"><path id="Tracé_302" data-name="Tracé 302" class="cls-2" d="M165.1,221.45c1.31,0,2.64.08,4,0a46.79,46.79,0,0,0,16.72-3.73c4.46-2.08,8.72-4.5,13-6.9,1.81-1,3.7-1.94,5.53-2.94a56.41,56.41,0,0,1,8.38-4,29.83,29.83,0,0,1,6.1-1.93,17.4,17.4,0,0,1,8.62.63,7.85,7.85,0,0,1,4.71,4.35,5,5,0,0,1-1.09,5.8c-1.67,1.61-3.47,3.1-5.23,4.62-.72.64-1.48,1.23-2.23,1.84-4,3.34-8.3,6.2-12.52,9.22-3.46,2.46-7.12,4.56-10.76,6.71-3.31,1.95-6.72,3.73-10.17,5.42A88.22,88.22,0,0,1,176,246a19.23,19.23,0,0,1-5.16.92,58.17,58.17,0,0,0-5.89.6,2.11,2.11,0,0,0-.35,0c-3.36.11-6.72.21-10.08.34a75,75,0,0,0-7.5.4c-3.78.55-7.53,0-11.3.3-4.8.39-9.6.3-14.4.34a4.92,4.92,0,0,0-1.14.24,33.15,33.15,0,0,0-10.58,5.53c-2.19,1.5-4.22,3.23-6.3,4.87a87.39,87.39,0,0,0-8.34,7.29c-.93.93-1,.92-2-.1-2.77-2.76-5.5-5.54-8.29-8.28-3.63-3.56-7.31-7.08-11-10.62l-9.5-9.18c-1.07-1-1.11-1.1-.3-2.34,2-3.11,4.1-6.2,6.23-9.25,1.65-2.36,3.4-4.65,5.12-6.95,1.16-1.53,2.35-3,3.58-4.52a95.32,95.32,0,0,1,8.36-9,29.64,29.64,0,0,1,7.09-5.18,25.38,25.38,0,0,1,6.93-2c2.5-.43,5-.71,7.53-1h.17l6.3-.34c2.51-.13,5-.08,7.5-.41,1.54-.22,3.06-.18,4.59-.3,1.85-.15,3.7-.45,5.55-.65,1.41-.15,2.82-.21,4.21-.38,1.85-.23,3.69-.52,5.53-.81s3.55-.6,5.33-.9c2.33-.38,4.67-.75,7-1.14s4.87-.84,7.31-1.28c1.71-.3,3.41-.76,5.12-1a37.76,37.76,0,0,1,8.36-.39,5.41,5.41,0,0,1,4.44,4.94,12.13,12.13,0,0,1-1,6.82,20.36,20.36,0,0,1-2.66,4.09,26.26,26.26,0,0,1-12.53,7.44c-3.71,1.11-7.47,2.07-11.2,3.15-1.88.55-3.73,1.23-5.6,1.86a2.92,2.92,0,0,0-.54.38,2.84,2.84,0,0,0,.56.19c2.57.41,5.12.8,7.7,1.1A72.43,72.43,0,0,0,165.1,221.45Z"/></g><rect id="Rectangle_594" data-name="Rectangle 594" class="cls-3" x="107.71" y="114.15" width="26.98" height="67.98"/><rect id="Rectangle_595" data-name="Rectangle 595" class="cls-4" x="143.33" y="97.96" width="26.98" height="84.17"/><rect id="Rectangle_596" data-name="Rectangle 596" class="cls-5" x="178.94" y="70.98" width="26.98" height="111.15"/><path id="Tracé_303" data-name="Tracé 303" class="cls-6" d="M190.22,58.49,185.48,49,90.57,96.53l-2.91-5.82L182.57,43.2l-4.77-9.53,37.49-3.54Z"/></g></g></g></g></svg>