<svg xmlns="http://www.w3.org/2000/svg" width="144.113" height="143.979" viewBox="0 0 144.113 143.979"><g transform="translate(-145.079 -1750.538)"><path d="M374.145,1848.267c0-.01-.005-.01-.005-.01v-.057A.32.32,0,0,1,374.145,1848.267Z" transform="translate(-104.273 -38.965)" fill="#618226"/><g transform="translate(145.079 1750.538)"><path d="M278.313,1913.188c-.724-.351-1.441-.69-2.164-1.048-3.362-1.637-6.73-3.294-10.092-4.911-.616-.3-1.285-.5-1.975-.764a5.6,5.6,0,0,0-1.562-5.025,5.606,5.606,0,0,0,3.362-.676c.115-.068.446.1.6.243,1.772,1.772,3.517,3.558,5.276,5.337l6.331,6.432A.738.738,0,0,1,278.313,1913.188Z" transform="translate(-194.027 -1813.665)" fill="#618226"/><path d="M255.971,1889.206c-.277.663-.548,1.292-.852,2-.3-.406-.6-.791-.886-1.184s-.568-.771-.873-1.177l1.15-.987C255.024,1888.34,255.511,1888.794,255.971,1889.206Z" transform="translate(-191.063 -1809.494)" fill="#618226"/><path d="M263.335,1896.147a2.55,2.55,0,0,1-2.936-.541,2.518,2.518,0,0,1-.494-2.766C261.028,1893.916,262.151,1895.011,263.335,1896.147Z" transform="translate(-193.11 -1811.105)" fill="#618226"/><path d="M265.694,1875.409c-.034.047-.068.081-.1.129-.142-.122-.291-.223-.426-.345q-3.48-3.186-6.96-6.4c-1.062-.974-2.043-2.063-3.686-2.394.8-.6,1.488-1.1,2.212-1.63C259.748,1868.348,262.718,1871.879,265.694,1875.409Z" transform="translate(-191.438 -1802.021)" fill="#618226"/><path d="M249.872,1883.231a20.646,20.646,0,0,1-2.313,1.7,2.586,2.586,0,0,1-3.28-.94,2.648,2.648,0,0,1,.21-3.314c.446-.466.94-.886,1.319-1.231C247.147,1880.688,248.452,1881.905,249.872,1883.231Z" transform="translate(-187.967 -1806.772)" fill="#618226"/><path d="M234.769,1787.516c-4.8,3.335-9.638,6.622-14.475,9.909a4.289,4.289,0,0,1-5.925-1.136,4.341,4.341,0,0,1,1.055-5.945c.122-.088.237-.169.386-.284-1.292-.054-5.857,1.265-8.84,2.475a15.961,15.961,0,0,0-1.9.873c-.764.338-1.508.69-2.225,1.055.013.014.034.027.047.041,4.856,4.356,10.538,7.352,16.362,10.153,3.673,1.772,7.3,3.632,10.951,5.445.149.074.291.156.541.291-.237.163-.406.291-.582.413Q222.077,1816,214,1821.186a4.635,4.635,0,0,0,1.211,8.387,4.54,4.54,0,0,0,3.822-.575c.027.041.061.081.095.122l-4.363,3.449c-.413.325-.839.643-1.251.967a5.24,5.24,0,0,0,6.338,8.346c.44-.325.866-.649,1.346-1a1.435,1.435,0,0,1-.507,1.7,11.448,11.448,0,0,0-1.914,1.833,5.209,5.209,0,0,0,5.222,8.286c.345-.068.568-.074.8.244,2.219,3.01,4.43,6.026,6.662,9.03a2.755,2.755,0,0,1,.6,2.063,1.565,1.565,0,0,1-.967,1.448,2.32,2.32,0,0,0-.528.338,2.213,2.213,0,0,1-3.341-.44c-.994-1.2-1.928-2.448-2.908-3.672q-6.625-8.3-13.271-16.571a28.061,28.061,0,0,0-2.273-2.394c-.724-.7-1.211-.724-1.765-.237a1.315,1.315,0,0,0-.108,1.873q5.093,8.035,10.186,16.057c.48.778.981,1.535,1.447,2.307a2.152,2.152,0,0,1-.649,3.051,2.1,2.1,0,0,1-2.956-.771q-8.238-12.824-16.477-25.648-7.518-11.7-15.043-23.389a1.09,1.09,0,0,1-.216-.737,22.334,22.334,0,0,0-1.075,3.26c-.386,1.292-.758,2.442-1.069,3.605a41.681,41.681,0,0,0-1.407,10.734,4.315,4.315,0,1,1-8.617.2,51.508,51.508,0,0,1,8.746-28.854,52.488,52.488,0,0,1,13.3-13.8c.48-.338.967-.67,1.461-.988a53.909,53.909,0,0,1,10.335-5.3,51.319,51.319,0,0,1,11.208-2.888c.135-.021.271-.047.588-.115-.724-.345-1.278-.622-1.84-.886a4.3,4.3,0,1,1,3.652-7.778c5.242,2.5,10.477,4.992,15.7,7.528A4.27,4.27,0,0,1,234.769,1787.516Z" transform="translate(-164.416 -1771.999)" fill="#618226"/><path d="M324.768,1824.328a4.117,4.117,0,0,0-3.822,2.448c-.3.589-.575,1.184-.866,1.779a9.5,9.5,0,0,1-.379-1.684c-.095-.582-.189-1.164-.3-1.731a53.305,53.305,0,0,0-1.4-5.364,52.789,52.789,0,0,0-27.021-31.411,48.632,48.632,0,0,0-14.745-4.619,72.123,72.123,0,0,0-8.543-.636,4.138,4.138,0,0,0-4.058,4.356,4.228,4.228,0,0,0,4.2,4.167,45.121,45.121,0,0,1,12.452,1.806c.737.223,1.454.48,2.306.744a25.238,25.238,0,0,1,2.543.825q-8.969,5.823-17.971,11.627-15.482,10.014-30.972,20.028a2.173,2.173,0,1,0,2.306,3.659q7.792-4.972,15.584-9.95c1-.629,2-1.285,3.03-1.907a1.235,1.235,0,0,1,1.671.243c.446.521.473.9-.068,1.535a15.241,15.241,0,0,1-1.88,1.914q-6.686,5.5-13.433,10.957c-2.523,2.03-5.086,4.018-7.623,6.034a2.755,2.755,0,1,0,3.382,4.349c2.415-1.786,4.823-3.592,7.231-5.384.845-.636,1.7-1.258,2.53-1.874a6.025,6.025,0,0,1-.311-3.977,5.232,5.232,0,0,1,9-1.934c1.732,1.907,3.443,3.849,5.168,5.783.785.879,1.583,1.752,2.374,2.631a1.238,1.238,0,0,0-.25-.575c-1.84-2.516-3.7-5.012-5.526-7.542a5.276,5.276,0,0,1,8.36-6.433c.487.609.967,1.238,1.454,1.86,1.035,1.319,2.076,2.638,3.111,3.964a.628.628,0,0,0-.081-.433,4.737,4.737,0,0,1,1.637-6.351,4.679,4.679,0,0,1,6.392,1.509c2.077,3.267,4.167,6.527,6.236,9.787,1.617,2.523,3.22,5.046,4.863,7.623.095-.122.156-.162.176-.217,1.907-3.821,3.842-7.636,5.688-11.5,2.645-5.52,5.526-10.876,9.557-15.51.338.73.649,1.481.94,2.259a22.311,22.311,0,0,1,1.671,3.957c.933,2.712,1.752,5.817,1.63,6.635-.081-.095-.149-.176-.21-.257a4.3,4.3,0,1,0-7.007,4.992q4.85,7.071,9.686,14.157a4.356,4.356,0,0,0,7.772-.629c1.035-2.205,2.1-4.4,3.152-6.595,1.447-3.023,2.915-6.02,4.315-9.057A4.252,4.252,0,0,0,324.768,1824.328Zm-7.258,9.1a.917.917,0,0,0-.007-.129v-.074a.421.421,0,0,1,.007.088Z" transform="translate(-185.011 -1775.594)" fill="#618226"/><path d="M326.258,1878.477a51.3,51.3,0,0,1-2.868,17.288v.007l-.007.007a48.154,48.154,0,0,1-2.577,6.013,52.074,52.074,0,0,1-30.6,26.507,47.1,47.1,0,0,1-9.145,2.11c-.074.021-.149.041-.406.1.737.372,1.353.656,1.948.967a4.3,4.3,0,0,1-3.761,7.724q-7.883-3.764-15.753-7.555a4.276,4.276,0,0,1-.588-7.515q7.143-4.931,14.319-9.808a4.293,4.293,0,1,1,4.863,7.068c-.047.04-.088.081-.142.128,1.292.182,8.225-1.934,10.552-3.24a26.3,26.3,0,0,0,2.523-1.211,65.452,65.452,0,0,0-14.921-9.341c-7.264-3.518-14.488-7.129-21.725-10.707a2.973,2.973,0,0,1-1.691-3.93,2.814,2.814,0,0,1,.758-.8c.223-.182.555-.264.744-.467a2.026,2.026,0,0,1,2.638-.237c2.6,1.224,5.174,2.5,7.745,3.747,2.455,1.19,4.89,2.394,7.359,3.551a2.11,2.11,0,0,0,2.388-3.429q-6.686-6.747-13.359-13.48-7.376-7.426-14.745-14.88a2.578,2.578,0,0,1-.588-2.976,2.62,2.62,0,0,1,2.543-1.6,2.749,2.749,0,0,1,1.982.88c3.5,3.233,7.007,6.493,10.552,9.686,2.807,2.53,5.682,4.985,8.536,7.46a12.768,12.768,0,0,0,1.366.927,1.091,1.091,0,0,0,1.495-.162.967.967,0,0,0,.115-1.373,38.4,38.4,0,0,0-2.4-3.429q-7.4-8.888-14.86-17.7c-.8-.953-1.623-1.894-2.435-2.861a2.721,2.721,0,0,1,.25-3.917,2.785,2.785,0,0,1,3.984.359c5.512,6.067,11,12.141,16.538,18.174,1.414,1.528,2.969,2.915,4.491,4.322.4.385.9.67,1.481.21a1,1,0,0,0,.338-1.535,32.562,32.562,0,0,0-2.151-3.518c-3.849-5.3-7.745-10.572-11.627-15.84-1.1-1.488-2.219-2.963-3.314-4.444a2.774,2.774,0,0,1,.4-4.052,2.837,2.837,0,0,1,4.045.731q7.8,9.77,15.645,19.507a33.2,33.2,0,0,0,2.888,3.051,1.068,1.068,0,0,0,1.833-.128,1.261,1.261,0,0,0-.068-1.488q-3.328-5.235-6.662-10.457-2.547-3.988-5.1-7.988a2.176,2.176,0,1,1,3.68-2.307q5.956,9.212,11.918,18.4,9.74,15.056,19.48,30.106a2.822,2.822,0,0,1,.176.3c.311-.744.6-1.508.879-2.3.5-1.8,1-3.422,1.387-5.066a42.627,42.627,0,0,0,1.075-9.625,4.292,4.292,0,1,1,8.583.027Z" transform="translate(-189.646 -1795.673)" fill="#618226"/><path d="M205.075,1930.156a.864.864,0,0,1-.237.1q1.41.537,2.942.974c1.17.352,2.219.7,3.287.994a40.556,40.556,0,0,0,11.282,1.495,4.363,4.363,0,0,1,4.119,6,4.462,4.462,0,0,1-4,2.611,53.21,53.21,0,0,1-10.66-1.082,52.557,52.557,0,0,1-38.838-33.86,49.519,49.519,0,0,1-2.449-9.963c-.027-.189-.074-.372-.142-.751-.372.751-.663,1.36-.967,1.962a4.288,4.288,0,1,1-7.731-3.713c2.286-4.829,4.606-9.631,6.919-14.448.291-.609.548-1.238.893-1.812a4.284,4.284,0,0,1,7.21-.183c2.956,4.275,5.871,8.563,8.813,12.851.379.561.764,1.109,1.136,1.664a4.294,4.294,0,0,1-7.007,4.965c-.1-.129-.21-.237-.426-.487a43.443,43.443,0,0,0,3.375,10.768,24.36,24.36,0,0,0,1.021,2.408c1.272-1.664,2.577-3.294,3.8-4.985a70.364,70.364,0,0,0,5.722-10.193q2.77-5.571,5.553-11.154a3.246,3.246,0,0,1,.25-.379c.568.879,1.1,1.711,1.63,2.55,3.017,4.667,6.013,9.348,9.043,14a4.658,4.658,0,0,0,7.988-4.776.868.868,0,0,1-.142-.493c.568.716,1.143,1.42,1.7,2.137.791,1,1.569,2,2.361,3a5.758,5.758,0,0,0,3.605,2.51,14.635,14.635,0,0,0,.02,2.5,5.185,5.185,0,0,0,2.888,3.815c1.779.9,3.571,1.772,5.438,2.692-.216.169-.372.3-.534.412Q219.018,1921.224,205.075,1930.156Z" transform="translate(-161.256 -1805.849)" fill="#618226"/><path d="M344.331,1837.447c-.534-1.1-1.089-2.408-1.671-3.957A22.3,22.3,0,0,1,344.331,1837.447Z" transform="translate(-219.962 -1791.898)" fill="#618226"/><path d="M223.261,1802.36c-.568.271-1.2.562-1.9.873A15.984,15.984,0,0,1,223.261,1802.36Z" transform="translate(-180.707 -1781.824)" fill="#618226"/></g></g></svg>