<svg xmlns="http://www.w3.org/2000/svg" width="141.799" height="83.88" viewBox="0 0 141.799 83.88"><g transform="translate(-403.884 -430)"><path d="M475.219,430.031a7.23,7.23,0,0,1,.954-.025,10.566,10.566,0,0,1,1.956.316,59.238,59.238,0,0,1,8.6,3.013c3,1.212,5.98,2.452,8.989,3.632,13.385,5.257,26.794,10.456,40.17,15.737,2.939,1.16,7.032,2.5,9.182,4.916a1.467,1.467,0,0,1,.035,2.359,15.373,15.373,0,0,1-4.751,2.964,1.164,1.164,0,0,0-.73,1.229c.024,6.869.06,13.738-.021,20.606a4.052,4.052,0,0,0,1.459,3.5c1.24,1.052,2.33,2.281,3.525,3.472l-10.168,10.57-10.4-10.4c2.125-1.932,4.31-3.933,6.514-5.911a1.355,1.355,0,0,0,.494-1.118q-.024-8.532-.01-17.064v-.744c-.339.13-.6.224-.862.332q-23.492,9.771-46.98,19.544a20.608,20.608,0,0,1-11.15,1.62,36.706,36.706,0,0,1-7.4-2.165c-14.98-5.614-29.986-11.164-44.673-17.52-4.015-1.737-7.952-3.667-11.845-5.663a13.638,13.638,0,0,1-3.473-2.768c-1.1-1.144-.957-2.385.125-3.545a5.45,5.45,0,0,1,1.207-1.024,28.147,28.147,0,0,1,3.753-1.995c5.985-2.327,12-4.581,18.01-6.843q19.925-7.5,39.86-14.971a36.37,36.37,0,0,1,6.647-1.923C474.567,430.105,474.893,430.059,475.219,430.031Z" fill="#618226"/><path d="M474.06,513.88c-1.367-.094-2.736-.173-4.1-.285a61.249,61.249,0,0,1-34.8-14.232,1.094,1.094,0,0,1-.373-.72c-.02-4.241-.012-8.483-.007-12.724a1.573,1.573,0,0,1,.08-.3c.431.161.844.324,1.263.471,5.884,2.059,11.819,4.819,17.709,6.859a114.5,114.5,0,0,0,17.066,4.555c5.232.957,10.554-.474,15.542-2.087,9-2.91,17.851-7.248,26.446-11.956.227-.124.478-.2.826-.343v.788c0,4.8-.01,9.592.014,14.387a1.607,1.607,0,0,1-.578,1.307,52.857,52.857,0,0,1-16.165,10.058,56.682,56.682,0,0,1-19.4,4.108c-.309.011-.616.071-.924.109Z" fill="#618226"/></g></svg>