<svg xmlns="http://www.w3.org/2000/svg" width="17.501" height="17.505" viewBox="0 0 17.501 17.505"><defs><style>.a{fill:#fff;}</style></defs><path class="a" d="M216.8,101.685v-.957c.022-.145.045-.29.065-.435a6.848,6.848,0,0,1,4.576-5.553,6.57,6.57,0,0,1,3.716-.192,6.657,6.657,0,0,1,4.48,3.407,6.584,6.584,0,0,1,.336,5.782c-.135.342-.312.668-.485,1.034a1.415,1.415,0,0,1,.146.115c1.3,1.3,2.6,2.6,3.906,3.9a2.223,2.223,0,0,1,.762,1.274v.342a.877.877,0,0,0-.028.1,1.632,1.632,0,0,1-.6,1.013,1.935,1.935,0,0,1-.846.361h-.342a2.2,2.2,0,0,1-1.263-.75c-1.3-1.315-2.616-2.621-3.925-3.929-.047-.047-.1-.092-.141-.134l-.136.072a6.6,6.6,0,0,1-6.61.088,6.672,6.672,0,0,1-3.542-5.012C216.843,102.032,216.824,101.858,216.8,101.685Zm11.484-.476a4.648,4.648,0,1,0-4.659,4.646A4.664,4.664,0,0,0,228.284,101.209Z" transform="translate(-216.8 -94.365)"/></svg>