<svg xmlns="http://www.w3.org/2000/svg" width="130.101" height="121.059" viewBox="0 0 130.101 121.059"><g transform="translate(-440.729 -112)"><path d="M570.83,141.513c-.764,1.939-1.265,4.049-2.377,5.762a9.782,9.782,0,0,1-3.8,3.158,5.9,5.9,0,0,1-7.417-2.357c-3.009-4.445-1.777-12.041,2.481-15.3,3.765-2.878,8.361-1.668,10.2,2.709.369.881.617,1.813.921,2.721Z" fill="#618226"/><path d="M543.88,181.713a13.18,13.18,0,0,1-7.132-2.233,1.458,1.458,0,0,0-1.817.027,14.587,14.587,0,1,1-14.47-25.308,2.789,2.789,0,0,0,1.225-1.558,14.546,14.546,0,0,1,21.4-9.221,13.63,13.63,0,0,1,6.753,8.666,3.459,3.459,0,0,0,1.879,2.438,14.57,14.57,0,0,1,6.832,16.539A14.723,14.723,0,0,1,543.88,181.713Z" fill="#618226"/><path d="M475.718,192.729a14.505,14.505,0,0,1,14.069,11.036,2.6,2.6,0,0,0,1.494,1.844,14.594,14.594,0,0,1,7.519,14.654c-1.074,6.6-5.746,11.474-11.958,12.506a14.047,14.047,0,0,1-10.2-2.019,1.551,1.551,0,0,0-1.913.028,13.944,13.944,0,0,1-14.606.415,13.788,13.788,0,0,1-7.608-12.493,14.032,14.032,0,0,1,7.648-13.1,2.67,2.67,0,0,0,1.439-1.878A14.576,14.576,0,0,1,475.718,192.729Z" fill="#618226"/><path d="M534,124.856a15.845,15.845,0,0,1-2.386,8.43c-3.444,5.457-9.514,5.873-13.659.914-4.169-4.989-4-14.272.356-19.1,4.052-4.492,9.858-3.99,13.176,1.106A15.835,15.835,0,0,1,534,124.856Z" fill="#618226"/><path d="M537.735,124.2c.106-3.6,1.187-7.556,4.712-10.343,3.8-3.007,8.1-2.291,11.357,1.691,4.1,5.006,3.925,14.17-.355,19-4.007,4.521-9.849,4.062-13.186-1.008A16.212,16.212,0,0,1,537.735,124.2Z" fill="#618226"/><path d="M477.549,175.676c.149-3.815,1.2-7.778,4.729-10.564,3.828-3.021,8.2-2.27,11.439,1.772,4.038,5.04,3.837,14.073-.422,18.9-3.972,4.506-9.855,4.056-13.191-1A16.207,16.207,0,0,1,477.549,175.676Z" fill="#618226"/><path d="M473.82,176.9c-.151,3.631-1.3,7.652-5.047,10.453a7.428,7.428,0,0,1-10.032-.861c-5.313-5.387-5.314-15.386,0-20.786,3.7-3.766,9.411-3.014,12.517,1.635A16.225,16.225,0,0,1,473.82,176.9Z" fill="#618226"/><path d="M510.675,190.4c-.124,4.092-1.055,7.133-3.488,9.583-3.426,3.452-8.265,2.777-10.619-1.472-2.406-4.341-.97-11.416,2.935-14.455,3.77-2.935,8.517-1.7,10.266,2.754A23.609,23.609,0,0,1,510.675,190.4Z" fill="#618226"/><path d="M516.18,142.286a9.9,9.9,0,0,1-1.964,6.163,6.25,6.25,0,0,1-9.673.428,12.073,12.073,0,0,1-3.011-12.636,6.447,6.447,0,0,1,5.246-4.933c2.966-.5,5.143.94,6.876,3.158A12.915,12.915,0,0,1,516.18,142.286Z" fill="#618226"/><path d="M455.989,193.278a9.84,9.84,0,0,1-1.923,6.406,6.242,6.242,0,0,1-9.669.458,12.052,12.052,0,0,1-3.079-12.507c.786-2.731,2.55-4.724,5.52-5.125s5.114,1.132,6.79,3.386A12.425,12.425,0,0,1,455.989,193.278Z" fill="#618226"/></g></svg>