<svg xmlns="http://www.w3.org/2000/svg" width="115.5" height="100.157" viewBox="0 0 115.5 100.157"><g transform="translate(-1133.583 -1267.844)"><rect width="115.131" height="11.174" transform="translate(1133.583 1330.346)" fill="#618226"/><g transform="translate(1221.923 1267.844)"><path d="M1301.058,1314.267h-1.482v.951c0,7,.017,14.01-.025,21.015a6.713,6.713,0,0,1-.566,2.255c-.252.662-1.983.965-2.874.724a2.958,2.958,0,0,1-2.215-3.241c.035-11.214.016-22.427.013-33.64v-1.215c-.1.073-.192.108-.206.16-.13.5-.043,1.036-.205,1.531-.6,1.829-.82,3.781-1.366,5.634a2.333,2.333,0,0,1-3.229,1.452c-.741-.391-1.5-.7-1.784-1.509a4.437,4.437,0,0,1,.28-3.147,20.141,20.141,0,0,0,.734-2.22c.469-1.83.907-3.668,1.328-5.509.4-1.767.713-3.561,1.185-5.309.62-2.3,2.429-3.994,5.864-2.871a13.368,13.368,0,0,0,7.964.056c3.566-1.057,5.013.125,5.85,2.569.467,1.361.561,2.845.91,4.251.71,2.863,1.421,5.728,2.254,8.557a6.4,6.4,0,0,1,.519,3.373,3.113,3.113,0,0,1-3.041,2,2.6,2.6,0,0,1-2.211-2.663,16.31,16.31,0,0,0-1.188-4.974,6.246,6.246,0,0,0-.421-1.31v1.3c0,11.238-.043,22.478.032,33.716a3.035,3.035,0,0,1-4.141,2.909c-1.573-.6-1.971-1.063-1.973-2.791q-.015-10.508-.007-21.015Z" transform="translate(-1286.936 -1276.8)" fill="#618226"/><path d="M1311.927,1273.225a5.33,5.33,0,1,1-10.659.025,5.289,5.289,0,0,1,5.36-5.406A5.232,5.232,0,0,1,1311.927,1273.225Z" transform="translate(-1293.011 -1267.844)" fill="#618226"/></g><path d="M1204.171,1420.725l16.117-28.47,17.141,28.489" transform="translate(-29.925 -52.743)" fill="#618226"/><g transform="translate(1133.882 1293.359)"><path d="M1140.832,1338.432a5.425,5.425,0,0,0-1.6,1.961,4.944,4.944,0,0,0-.449,2.339,7.307,7.307,0,0,0,.664,2.619,12.981,12.981,0,0,0,1.728,2.787,14.271,14.271,0,0,0,2.293,2.349,6.8,6.8,0,0,0,2.309,1.244,4.5,4.5,0,0,0,2.329.057,6.085,6.085,0,0,0,2.353-1.214,12.822,12.822,0,0,0,2-1.987,26.974,26.974,0,0,0,1.836-2.6l2.536,3.2a15.067,15.067,0,0,1-.837,1.345,14.37,14.37,0,0,1-.957,1.219q-.515.588-1.1,1.146t-1.315,1.133a11.464,11.464,0,0,1-4.131,2.193,8.5,8.5,0,0,1-4,.13,10,10,0,0,1-3.778-1.733,17.677,17.677,0,0,1-3.474-3.4,15.393,15.393,0,0,1-2.416-4.185,10.625,10.625,0,0,1-.7-4.221,9.314,9.314,0,0,1,1.128-4.01,11.5,11.5,0,0,1,3.075-3.55,14.017,14.017,0,0,1,2.956-1.793,17.36,17.36,0,0,1,3.313-1.115l1.228,4.076a25.982,25.982,0,0,0-2.693.772A7.73,7.73,0,0,0,1140.832,1338.432Z" transform="translate(-1134.102 -1320.706)" fill="#618226"/><path d="M1180.107,1317.492a17.65,17.65,0,0,1,2.518,4.175,10.228,10.228,0,0,1,.839,4.1,8.445,8.445,0,0,1-1.024,3.877,12.778,12.778,0,0,1-7.172,5.686,8.38,8.38,0,0,1-4,.107,10.3,10.3,0,0,1-3.8-1.763,19.274,19.274,0,0,1-6.027-7.6,10.086,10.086,0,0,1-.824-4.084,8.447,8.447,0,0,1,1.039-3.858,12.9,12.9,0,0,1,7.178-5.691,8.357,8.357,0,0,1,3.986-.115,10.234,10.234,0,0,1,3.788,1.745A17.714,17.714,0,0,1,1180.107,1317.492Zm-12.2,9.675a15.233,15.233,0,0,0,2.26,2.345,7.229,7.229,0,0,0,2.268,1.307,4.494,4.494,0,0,0,2.237.18,4.894,4.894,0,0,0,2.177-1.044,5.013,5.013,0,0,0,1.544-1.906,4.358,4.358,0,0,0,.328-2.214,7.345,7.345,0,0,0-.774-2.492,17.308,17.308,0,0,0-4.028-5.081,7.434,7.434,0,0,0-2.255-1.328,4.353,4.353,0,0,0-2.229-.2,4.926,4.926,0,0,0-2.19,1.054,4.988,4.988,0,0,0-1.526,1.891,4.442,4.442,0,0,0-.342,2.234,7.34,7.34,0,0,0,.76,2.513A15.238,15.238,0,0,0,1167.9,1327.167Z" transform="translate(-1145.34 -1312.137)" fill="#618226"/><path d="M1217.7,1324.38l-6.749,5.35-1.173-1.479.343-4.429q.066-.836.108-1.531a9.576,9.576,0,0,0,0-1.287,4.539,4.539,0,0,0-.216-1.106,3.2,3.2,0,0,0-.537-.975,1.3,1.3,0,0,0-.933-.548,1.484,1.484,0,0,0-1.046.37,2.793,2.793,0,0,0-.833,1.1,6.937,6.937,0,0,0-.447,1.6l-2.241-.453q.087-.528.219-1.053a5.692,5.692,0,0,1,.381-1.047,5.625,5.625,0,0,1,.641-1.029,5.836,5.836,0,0,1,1-.987,5.015,5.015,0,0,1,1.455-.828,3.575,3.575,0,0,1,1.43-.21,3.13,3.13,0,0,1,1.329.4,3.906,3.906,0,0,1,1.149,1,4.02,4.02,0,0,1,.691,1.3,6.432,6.432,0,0,1,.276,1.507,12.123,12.123,0,0,1-.011,1.689q-.065.885-.182,1.841l-.245,2.177.076.1,4.1-3.251Z" transform="translate(-1163.725 -1313.701)" fill="#618226"/></g></g></svg>