<svg xmlns="http://www.w3.org/2000/svg" width="136.783" height="115.881" viewBox="0 0 136.783 115.881"><g transform="translate(0 0)"><path d="M2398.151,1959.931c1.781-3.281,4.519-4.337,8.233-4.318q32.818.183,65.638-.008a10.127,10.127,0,0,1,8.035,3.347c5.367,5.656,10.834,11.225,16.439,16.644a7.613,7.613,0,0,0,4.655,2c8,.2,16,.18,24,.057,4.629-.071,8.1,1.414,9.779,5.987v3.04c-1.618,4.633-5.065,6.086-9.721,5.988-7.39-.158-14.823-.51-22.169.087-7.652.622-13.7-1.384-18.175-7.692-1.359-1.915-3.212-2.36-5.52-2.354-24.408.073-48.816.01-73.226.083-3.7.01-6.556-.937-7.972-4.624Z" transform="translate(-2398.151 -1876.98)" fill="#618226"/><path d="M2407.85,1962.292c3.288-8.25,6.392-16.12,9.563-23.963,1.7-4.214,3.61-8.347,5.258-12.582,1.181-3.032,3.336-4.641,6.455-4.586,7.217.126,14.441.355,19.7,6.553,8.628,10.178,19.586,16.593,32.364,20.2,3.483.982,4.9,3.28,4.718,6.213a5.35,5.35,0,0,1-4.56,5.309,7.96,7.96,0,0,1-4.1-.419c-6.357-2.321-12.848-4.4-18.91-7.356-3.7-1.8-6.719-5.023-10.143-7.684.26,3.92-2.413,6.372-5.054,9.028-2.238,2.249-3.927,5.04-5.9,7.557-.5.645-1.169,1.654-1.77,1.661C2426.4,1962.325,2417.32,1962.292,2407.85,1962.292Z" transform="translate(-2395.267 -1887.222)" fill="#618226"/><path d="M2486.053,1942.427a17.03,17.03,0,0,1-.089,34.059,17.137,17.137,0,0,1-17.033-17.262A16.957,16.957,0,0,1,2486.053,1942.427Z" transform="translate(-2377.105 -1880.898)" fill="#618226"/><path d="M2442.439,1927.793a16.4,16.4,0,1,1,16.417-16.348A16.335,16.335,0,0,1,2442.439,1927.793Z" transform="translate(-2389.864 -1895)" fill="#618226"/></g></svg>