<svg xmlns="http://www.w3.org/2000/svg" width="130.841" height="94.401" viewBox="0 0 130.841 94.401"><g transform="translate(-1184.858 -197.467)"><g transform="translate(1264.191 198.735)"><path d="M1283.746,253.845c0,3.583-2.061,6.04-5.065,6.04q-12.038.008-24.075,0H1247.3l-.107-.107s3.046-20.3-12.181-25.885c0,0,4.263-8.528-2.771-17.8a18.754,18.754,0,0,1,4.9-3.381l.02-.01c.057.167.112.31.122.345a19.113,19.113,0,0,0,4.173,6.786,18.442,18.442,0,0,0,5.375,3.918,18.785,18.785,0,0,0,15.354.265c4.487-1.954,8.426-6.487,10.232-11.152a19.739,19.739,0,0,1,6.919,5.832,24.13,24.13,0,0,1,4.273,11.359,20.952,20.952,0,0,1,.137,2.821Q1283.748,243.362,1283.746,253.845Z" transform="translate(-1232.238 -188.461)" fill="#618226"/><path d="M1271.333,216.662c-.253,5.438-3.218,10.544-7.6,14.171a14.562,14.562,0,0,1-3.945,2.409,18.249,18.249,0,0,1-14.49-.62,18.021,18.021,0,0,1-5.434-4.153,18.944,18.944,0,0,1-4.906-11.9,18.067,18.067,0,0,1,.457-4.117,18.424,18.424,0,0,1,5.167-9.085,18.04,18.04,0,0,1,24.52-.665,18.778,18.778,0,0,1,5.162,7.386A16.183,16.183,0,0,1,1271.333,216.662Z" transform="translate(-1230.404 -198.224)" fill="#618226"/></g><g transform="translate(1184.858 197.467)"><path d="M1218.632,259.278h-4.655q-12,0-24,0c-3.016,0-5.07-2.411-5.075-6.019-.022-7.336-.107-14.675.03-22.008a22.248,22.248,0,0,1,4.43-13.161q.547-.756,1.172-1.473a18.375,18.375,0,0,1,5.969-4.511l.02-.01c.057.167.112.308.122.345a19.127,19.127,0,0,0,4.173,6.786,18.445,18.445,0,0,0,5.375,3.918,18.783,18.783,0,0,0,15.354.263c4.486-1.954,8.426-6.487,10.233-11.15a20.778,20.778,0,0,1,3.938,2.634c-9.131,10.41-4.608,18.77-4.608,18.77C1216.941,241.965,1218.215,256.39,1218.632,259.278Z" transform="translate(-1184.858 -187.602)" fill="#618226"/><path d="M1227.833,215.905c-.251,5.437-3.217,10.542-7.6,14.169a14.574,14.574,0,0,1-3.945,2.409,18.253,18.253,0,0,1-14.492-.62,17.994,17.994,0,0,1-5.434-4.153,18.954,18.954,0,0,1-4.906-11.9,18.077,18.077,0,0,1,.457-4.117,18.443,18.443,0,0,1,5.167-9.085,18.046,18.046,0,0,1,24.522-.665,18.766,18.766,0,0,1,5.16,7.386A16.162,16.162,0,0,1,1227.833,215.905Z" transform="translate(-1180.408 -197.467)" fill="#618226"/></g><g transform="translate(1220.064 244.683)"><path d="M1264.142,266.81c-.005,3.583-2.059,6.04-5.065,6.04q-12.038.008-24.074,0-12,0-24,0c-3.014,0-5.07-2.411-5.075-6.019-.015-5.07-.06-10.142-.04-15.217,0-.5.005-.99.005-1.487q.023-2.657.065-5.3a22.27,22.27,0,0,1,4.431-13.161c.367-.5.757-.995,1.174-1.472a18.342,18.342,0,0,1,5.969-4.513l.02-.01.01.025c.05.157.1.285.111.32a19.138,19.138,0,0,0,4.172,6.786,18.47,18.47,0,0,0,5.375,3.918,17.187,17.187,0,0,0,1.716.7,18.8,18.8,0,0,0,13.638-.44c.234-.1.467-.214.695-.33a21.017,21.017,0,0,0,9.537-10.822c.178.09.35.183.524.28a19.622,19.622,0,0,1,6.395,5.552A24.119,24.119,0,0,1,1264,243.02a20.951,20.951,0,0,1,.137,2.821v5.3a2.8,2.8,0,0,1,0,.29Q1264.144,259.121,1264.142,266.81Z" transform="translate(-1205.884 -225.666)" fill="#618226"/></g><path d="M1248.86,229.475a17.317,17.317,0,0,1-1.248,5.629,21.628,21.628,0,0,1-6.356,8.538,16.11,16.11,0,0,1-2.441,1.695,11.538,11.538,0,0,1-1.5.717,18.255,18.255,0,0,1-12.826.09,17.37,17.37,0,0,1-1.664-.71,17.94,17.94,0,0,1-5.432-4.153,20.537,20.537,0,0,1-3.68-5.963,16.339,16.339,0,0,1-1.227-5.934,18.066,18.066,0,0,1,.457-4.116,18.4,18.4,0,0,1,4.988-8.908c.057-.062.117-.117.179-.179a18.3,18.3,0,0,1,1.792-1.522h.005A17.99,17.99,0,0,1,1240,213.605l.928.6a16.966,16.966,0,0,1,1.7,1.309,18.616,18.616,0,0,1,2.269,2.376,18.374,18.374,0,0,1,2.893,5.01A16.189,16.189,0,0,1,1248.86,229.475Z" transform="translate(18.63 9.152)" fill="#618226"/></g></svg>