<svg xmlns="http://www.w3.org/2000/svg" width="140.592" height="114.688" viewBox="0 0 140.592 114.688"><g transform="translate(-817.36 -976)"><path d="M932.106,1052.024c0,6.717-.09,13.435.027,20.15a12.506,12.506,0,0,1-10.938,12.465,28.746,28.746,0,0,1-2.87.219c-6.675.019-13.35.011-20.025.009-1.662,0-1.663,0-1.663-1.723q0-14.482-.005-28.965a10.726,10.726,0,0,0-2.266-6.881,9.492,9.492,0,0,0-7.48-3.47c-3.649-.111-7.308-.132-10.955,0a9.521,9.521,0,0,0-9.328,9.462q-.088,15.048.011,30.1c.007,1.241-.371,1.519-1.554,1.508-6.549-.056-13.1-.02-19.647-.028a12.849,12.849,0,0,1-13.019-12.947c-.011-13.685.009-27.371-.016-41.056a5.283,5.283,0,0,1,2.32-4.47q13.664-10.4,27.3-20.845c5.049-3.857,10.073-7.746,15.153-11.561a8.367,8.367,0,0,1,10.551.187q21.338,16.27,42.69,32.522a4.777,4.777,0,0,1,1.812,4.176q-.012,10.577,0,21.152Z" transform="translate(5.369 5.794)" fill="#618226"/><path d="M917.331,995.755c.121-1.028.227-1.769.293-2.513a4.672,4.672,0,0,1,4.761-4.538c3.312-.058,6.626-.071,9.937-.007a4.738,4.738,0,0,1,4.884,5.046c.023,4.869.03,9.74-.012,14.61a3.409,3.409,0,0,0,1.51,2.968c5.836,4.479,11.629,9.013,17.443,13.52a3.906,3.906,0,0,1,1.8,3.4,3.454,3.454,0,0,1-2.013,3.228,3.91,3.91,0,0,1-4.138-.482q-4.567-3.417-9.127-6.847-14.537-10.927-29.07-21.853-11.776-8.85-23.557-17.694c-1.88-1.406-2.877-1.4-4.73-.022q-7.742,5.771-15.447,11.59-12.474,9.381-24.94,18.771-9.97,7.5-19.939,15.009a17.767,17.767,0,0,1-2.187,1.465,3.613,3.613,0,0,1-4.9-1.334,3.725,3.725,0,0,1,.995-4.918q10.609-8.007,21.222-16.007,13.969-10.519,27.949-21.027c4.476-3.36,8.913-6.775,13.479-10.008,4.686-3.318,9.23-2.45,13.41.683,6.488,4.865,12.944,9.773,19.411,14.665C915.281,994.158,916.191,994.875,917.331,995.755Z" transform="translate(0 0)" fill="#618226"/></g></svg>