<svg xmlns="http://www.w3.org/2000/svg" width="133.406" height="150.469" viewBox="0 0 133.406 150.469"><g transform="translate(-1039.256 -559)"><path d="M1169.773,703.6c-.661-.038-1.328-.006-2.1-.006V701.52q0-69.258.026-138.523a4.01,4.01,0,0,0-2.084-4h-60.541a3.994,3.994,0,0,0-2.09,3.99c.07,11.021.032,22.035.032,33.056v1.744h-54.128c-3.965,0-4.645.667-4.645,4.569v101.25a22.7,22.7,0,0,0-2.385.013,2.9,2.9,0,0,0-2.606,2.889,2.939,2.939,0,0,0,2.58,2.914,12.617,12.617,0,0,0,1.618.032q62.5.009,125.01.006c.441,0,.881.019,1.322-.013a2.927,2.927,0,0,0-.013-5.853Zm-78.611-.082h-11.568V691.947h11.568Zm11.788-.044h-5.8v-1.536c0-4.21.012-8.421-.007-12.632-.012-2.215-1.139-3.342-3.361-3.348q-8.373-.02-16.748,0c-2.3.006-3.386,1.127-3.392,3.462-.013,4.651-.007,9.3-.007,14.054H1050.22V603.75h52.73Zm47.016-.006h-11.625v-11.55h11.625Zm11.713.006h-5.759v-1.693c0-4.11.013-8.226-.006-12.336-.006-2.411-1.089-3.481-3.518-3.487q-8.223-.02-16.453,0c-2.486.006-3.524,1.076-3.531,3.619-.006,4.6,0,9.2,0,13.9h-23.438V688.435l.012.006V564.954h52.693Z" fill="#618226"/><path d="M1108.986,564.954V688.441l-.012-.006v15.042h23.438c0-4.708-.006-9.3,0-13.9.007-2.543,1.045-3.613,3.531-3.619q8.223-.02,16.453,0c2.429.006,3.512,1.076,3.518,3.487.019,4.11.006,8.226.006,12.336v1.693h5.759V564.954Zm17.548,15.408a5.126,5.126,0,0,1,1.674-5.231,9.227,9.227,0,0,1,5.092-2.4,10.478,10.478,0,0,1,8.654,2.467c.094.082.183.17.308.283-1.649.567-2.6,1.914-3.719,3.066-.944.969-1.888,1.951-2.908,2.838a6.532,6.532,0,0,1-3.393,1.574,6.864,6.864,0,0,1-3.631-.472,13.391,13.391,0,0,1,4.532-5.6,2.769,2.769,0,0,0-.384.044,6.494,6.494,0,0,0-2.94,1.845,10.222,10.222,0,0,0-3.008,6.294,23.423,23.423,0,0,0-.006,2.486c0,.081.006.157.012.232a1.261,1.261,0,0,1-1.479-1.252,12.512,12.512,0,0,1,1.139-5.482A1.133,1.133,0,0,0,1126.534,580.362Zm-6.583,92.363c-4.708,0-5.174-.466-5.174-5.186,0-4.62.484-5.1,5.111-5.1,4.72,0,5.173.453,5.173,5.18C1125.061,672.234,1124.57,672.725,1119.951,672.725Zm-.108-17.635c-4.55,0-5.066-.51-5.066-5,0-4.852.428-5.287,5.217-5.287,4.551,0,5.067.51,5.067,5C1125.061,654.655,1124.633,655.09,1119.843,655.09Zm.082-17.63c-4.689,0-5.148-.465-5.148-5.211,0-4.6.491-5.073,5.136-5.073,4.7,0,5.148.459,5.148,5.2C1125.061,636.969,1124.57,637.46,1119.925,637.46Zm5.13-20.707a2.925,2.925,0,0,1-3.034,3.059c-1.366.044-2.731.038-4.1.006a2.942,2.942,0,0,1-3.141-3.109c-.031-1.265-.019-2.536-.006-3.8.031-2.222,1.133-3.324,3.329-3.368.636-.006,1.272,0,1.907,0h1.171c2.908.007,3.871.963,3.877,3.846C1125.061,614.506,1125.093,615.633,1125.055,616.753Zm1.668-16.238a9.658,9.658,0,0,1-5.388-4.412,10.334,10.334,0,0,1-1.466-6.552c.044-.441.132-.881.207-1.372a8.053,8.053,0,0,0,3.752,1.535c1.447.359,2.914.674,4.336,1.133a6.606,6.606,0,0,1,4.028,3.235,15.679,15.679,0,0,1,.755,2.1c.095.258-.069.346-.3.377a10.927,10.927,0,0,1-3.593-.176,11.174,11.174,0,0,1-2.984-.994c-.044-.026-.1-.032-.208.012a4.444,4.444,0,0,0,.353.4,6.892,6.892,0,0,0,3.373,1.618,10.507,10.507,0,0,0,8.529-1.75c.126-.088.251-.176.371-.258a1.259,1.259,0,0,1-.3,1.888,11.943,11.943,0,0,1-4.859,1.706c-.226.031-.465.031-.692.075a.614.614,0,0,0-.334.158A5.033,5.033,0,0,1,1126.723,600.515Zm8.465,72.21c-.591,0-1.177.013-1.762-.006a2.917,2.917,0,0,1-3.2-3.059c-.062-1.271-.044-2.549-.018-3.82.056-2.348,1.12-3.374,3.461-3.4.586-.006,1.177,0,1.763,0,4.556,0,5.06.5,5.06,5.041C1140.494,672.3,1140.06,672.725,1135.188,672.725Zm5.306-22.822c0,4.74-.453,5.187-5.212,5.187-4.575,0-5.079-.5-5.079-5.023,0-4.84.428-5.262,5.281-5.262,4.456,0,5.01.548,5.01,4.954Zm-5.18-12.443c-4.639,0-5.111-.478-5.111-5.142,0-4.7.453-5.142,5.249-5.142,4.532,0,5.042.51,5.042,5.06C1140.494,636.995,1140.034,637.46,1135.314,637.46Zm-.019-17.635c-4.62,0-5.092-.479-5.092-5.161,0-4.645.479-5.124,5.124-5.124,4.707,0,5.167.466,5.167,5.231C1140.494,619.352,1140.009,619.825,1135.3,619.825Zm6.338-19.014c-.019.006-.044-.013-.082-.019.321-1.731-.421-3.273-.868-4.865a38.011,38.011,0,0,1-.957-3.871,6.566,6.566,0,0,1,2.4-6.414,1.344,1.344,0,0,1,.177-.113,12.545,12.545,0,0,1,2.511,6.7h.094a5.655,5.655,0,0,0,.176-.579,7.425,7.425,0,0,0-.446-4.053,10.411,10.411,0,0,0-5.634-6.087c-.138-.069-.27-.138-.4-.2a1.247,1.247,0,0,1,1.793-.667,11.839,11.839,0,0,1,4.11,3.644,1.251,1.251,0,0,0,.768.535,4.786,4.786,0,0,1,3.261,3,8.853,8.853,0,0,1-.221,6.835,10.453,10.453,0,0,1-6.482,6.1A1.306,1.306,0,0,1,1141.633,600.811Zm9.057,71.914c-4.532,0-5.054-.516-5.054-5.01,0-4.846.422-5.274,5.224-5.274,4.544,0,5.06.5,5.06,5C1155.92,672.285,1155.48,672.725,1150.69,672.725Zm.088-17.635c-4.689,0-5.142-.466-5.142-5.212,0-4.588.485-5.073,5.136-5.073,4.689,0,5.148.46,5.148,5.212C1155.92,654.6,1155.417,655.09,1150.778,655.09Zm-.069-17.63c-4.588,0-5.073-.5-5.073-5.142,0-4.689.453-5.142,5.2-5.142,4.6,0,5.079.491,5.079,5.129C1155.92,636.995,1155.448,637.46,1150.709,637.46Zm-.006-17.635c-4.582,0-5.067-.491-5.067-5.143,0-4.689.453-5.142,5.211-5.142,4.589,0,5.073.491,5.073,5.142C1155.92,619.365,1155.448,619.825,1150.7,619.825Z" fill="#618226"/><path d="M1050.22,603.75v99.721h23.413c0-4.758-.006-9.4.007-14.054.006-2.335,1.095-3.456,3.392-3.462q8.375-.02,16.748,0c2.222.006,3.349,1.133,3.361,3.348.019,4.211.007,8.422.007,12.632v1.536h5.8V603.75Zm18.63,13.117a5.114,5.114,0,0,1,1.674-5.231,9.227,9.227,0,0,1,5.092-2.4,10.478,10.478,0,0,1,8.654,2.467c.095.082.183.17.3.283-1.649.567-2.593,1.914-3.713,3.066-.944.969-1.888,1.951-2.908,2.838a6.525,6.525,0,0,1-3.4,1.574,6.843,6.843,0,0,1-3.625-.472,13.285,13.285,0,0,1,4.532-5.6,2.68,2.68,0,0,0-.384.044,6.489,6.489,0,0,0-2.94,1.844,10.225,10.225,0,0,0-3.008,6.294,21.711,21.711,0,0,0-.006,2.486c0,.082.006.158.012.233a1.259,1.259,0,0,1-1.479-1.252,12.509,12.509,0,0,1,1.139-5.482A1.186,1.186,0,0,0,1068.85,616.867Zm-7.748,55.858c-4.607,0-5.1-.491-5.1-5.117,0-4.714.453-5.167,5.186-5.167,4.62,0,5.1.485,5.1,5.11C1066.288,672.259,1065.823,672.725,1061.1,672.725Zm5.168-20.55a2.884,2.884,0,0,1-2.883,2.9c-1.467.057-2.933.05-4.393,0a2.9,2.9,0,0,1-2.977-2.964c-.051-1.316-.026-2.631-.013-3.947.032-2.215,1.139-3.317,3.342-3.354.636-.013,1.265,0,1.9,0,.441,0,.881-.007,1.315,0,2.7.006,3.714,1.019,3.726,3.707C1066.288,649.733,1066.326,650.954,1066.27,652.175Zm2.769-15.155a9.662,9.662,0,0,1-5.388-4.412,10.333,10.333,0,0,1-1.466-6.552c.044-.441.132-.882.2-1.372a8.075,8.075,0,0,0,3.758,1.535c1.447.359,2.914.674,4.336,1.133a6.578,6.578,0,0,1,4.022,3.235,15.015,15.015,0,0,1,.762,2.1c.088.258-.07.347-.3.378a10.911,10.911,0,0,1-3.593-.176,11.033,11.033,0,0,1-2.984-.995.224.224,0,0,0-.208.013,4.532,4.532,0,0,0,.347.4,6.911,6.911,0,0,0,3.38,1.617,10.511,10.511,0,0,0,8.528-1.749c.126-.088.252-.177.371-.258a1.259,1.259,0,0,1-.3,1.888,11.977,11.977,0,0,1-4.859,1.705c-.233.032-.465.032-.7.076a.609.609,0,0,0-.327.157A5.036,5.036,0,0,1,1069.039,637.02Zm7.477,35.7c-4.613,0-5.085-.478-5.085-5.161,0-4.645.478-5.123,5.123-5.123,4.708,0,5.167.459,5.167,5.236C1081.721,672.253,1081.23,672.725,1076.516,672.725Zm.038-17.629c-4.639,0-5.123-.485-5.123-5.13,0-4.689.465-5.154,5.085-5.154,4.758,0,5.2.44,5.2,5.192C1081.721,654.611,1081.224,655.1,1076.554,655.1Zm7.4-17.781c-.019.007-.044-.012-.082-.018.321-1.731-.421-3.273-.868-4.866a38.062,38.062,0,0,1-.957-3.87,6.575,6.575,0,0,1,2.4-6.414,1.607,1.607,0,0,1,.183-.113,12.545,12.545,0,0,1,2.511,6.7h.094c.057-.189.133-.378.176-.579a7.424,7.424,0,0,0-.446-4.053,10.447,10.447,0,0,0-5.633-6.087c-.139-.069-.271-.138-.4-.2a1.246,1.246,0,0,1,1.794-.667,11.887,11.887,0,0,1,4.109,3.644,1.254,1.254,0,0,0,.762.535,4.8,4.8,0,0,1,3.267,3,8.88,8.88,0,0,1-.221,6.835,10.453,10.453,0,0,1-6.482,6.1A1.374,1.374,0,0,1,1083.949,637.315Zm8.094,35.41c-4.72,0-5.186-.459-5.186-5.174,0-4.632.485-5.11,5.1-5.11,4.727,0,5.187.453,5.187,5.167C1097.148,672.234,1096.657,672.725,1092.043,672.725Zm-.025-17.629c-4.695,0-5.161-.466-5.161-5.2,0-4.607.491-5.085,5.129-5.085,4.7,0,5.162.453,5.162,5.192C1097.148,654.6,1096.657,655.1,1092.018,655.1Z" fill="#618226"/></g></svg>