<?xml version="1.0" encoding="utf-8"?>
<!-- Generator: Adobe Illustrator 22.1.0, SVG Export Plug-In . SVG Version: 6.00 Build 0)  -->
<svg version="1.1" id="Calque_1" xmlns="http://www.w3.org/2000/svg" xmlns:xlink="http://www.w3.org/1999/xlink" x="0px" y="0px"
	 viewBox="0 0 43.3 62.1" style="enable-background:new 0 0 43.3 62.1;" xml:space="preserve">
<style type="text/css">
	.st0{fill:#61193C;}
	.st1{fill:#71274B;}
	.st2{fill:#78BA4A;}
	.st3{fill:#FFFFFF;}
	.st4{fill:#688746;}
</style>
<g>
	<path class="st0" d="M42.4,21.5c0,0,1.3,24.1-10.7,35.4s-26,0.8-26,0.8S-3.5,51,1.5,43.5s29.9-11.8,29.9-11.8l9.9-12L42.4,21.5z"/>
	<path class="st1" d="M41.5,22c0,0-1.3,23.3-12.4,30.6S4.5,51.4,0.5,44.8c0,0,2.3-6.9,10.5-10.9s13.6-20,13.6-20l7.6-1.1l8.6,4.9
		L41.5,22z"/>
	<path class="st2" d="M43.2,22.1c0,0-1.3-12.1-7.8-12.5s-9.3,2.3-11.4,4.9h4l0.3,6.9c0,0,3.9-3.4,5.4-3.5v6.5c0,0,3.8,0,4.9-2.4
		s2.1-3.3,3.1-1.3S43.4,23.9,43.2,22.1z"/>
	<path class="st3" d="M22.6,24.9c0,0-2.5,11.8-13,13.9c0,0-1.8-0.8,0.4-1.5s7.1-3.9,8.4-6.1S22.1,23.5,22.6,24.9z"/>
	<path class="st4" d="M35.5,9.6c0,0,0.4-7.4-4.6-9.6l-2.3,0.5l0.5,1.3c0,0,5.3,3.4,5.3,8.1C34.4,9.9,35.2,10.9,35.5,9.6z"/>
</g>
</svg>
