<svg xmlns="http://www.w3.org/2000/svg" width="94.455" height="124.32" viewBox="0 0 94.455 124.32"><g transform="translate(-1303.808 -175.999)"><g transform="translate(1303.808 176.442)"><path d="M1352.351,206.672a.207.207,0,0,1-.066-.008c0-.009.008-.017.008-.025A.2.2,0,0,1,1352.351,206.672Z" transform="translate(-1276.213 -159)" fill="#618226"/><path d="M1398.263,272.858c-.008,5.809-3.341,9.792-8.213,9.792q-19.516.012-39.03,0-19.455,0-38.908,0c-4.89,0-8.221-3.909-8.231-9.759-.033-11.892-.173-23.791.05-35.683a36.1,36.1,0,0,1,7.184-21.338c.593-.814,1.226-1.613,1.9-2.385a28.487,28.487,0,0,1,6.584-5.605s-1.745,9.111,9.422,9.111c.213.246.436.485.667.723a29.881,29.881,0,0,0,8.714,6.352,30.452,30.452,0,0,0,24.894.428c7.077-3.085,13.315-10.122,16.334-17.462a8.463,8.463,0,0,0,2.009.355,31.582,31.582,0,0,1,9.464,8.483q5.431,7.346,6.928,18.418a34.026,34.026,0,0,1,.223,4.574Q1398.267,255.86,1398.263,272.858Z" transform="translate(-1303.808 -158.776)" fill="#618226"/><path d="M1365.923,206.639c0,.008-.008.016-.008.025a.207.207,0,0,0,.066.008A.2.2,0,0,0,1365.923,206.639Zm-37.533,5.307c-.017.017-.033.042-.05.058" transform="translate(-1289.844 -159)" fill="#618226"/><path d="M1332.313,176.281a50.178,50.178,0,0,0-5.315,1A38.9,38.9,0,0,1,1332.313,176.281Z" transform="translate(-1290.607 -176.281)" fill="#618226"/><path d="M1352.351,206.672a.207.207,0,0,1-.066-.008c0-.009.008-.017.008-.025A.2.2,0,0,1,1352.351,206.672Z" transform="translate(-1276.213 -159)" fill="#618226"/></g><path d="M1369.576,222.081a35.816,35.816,0,0,1-9.218,11.422,23.638,23.638,0,0,1-6.393,3.909,29.58,29.58,0,0,1-23.495-1,28.545,28.545,0,0,1-6-3.975,134.707,134.707,0,0,0,13.517.9,39.275,39.275,0,0,0,5.794-.295c1.288-.184,2.79-.33,3.637-1.447,1.045-1.375.516-3.1-.317-4.441a8.107,8.107,0,0,0-2.379-2.693,9.827,9.827,0,0,0-5.53-.83,8.294,8.294,0,0,0-3.21.716,3.122,3.122,0,0,0-.954.749.725.725,0,0,1-.1.132,2.354,2.354,0,0,1-.774.7,10.552,10.552,0,0,1-4.64,1.02h-1.276c-1.276-.008-2.559-.041-3.835-.107-1.811-.1-3.769-.312-5.053-1.481a4.32,4.32,0,0,1-1.144-1.745,6.782,6.782,0,0,1-.32-1.218c3.826.246,3.448-6.624,3.448-6.624.025-.453.025-.905.025-1.35q-.014-6.826-.025-13.652a7.081,7.081,0,0,0-.568-3.383,4.768,4.768,0,0,0-2.872-2.189,30.108,30.108,0,0,1,4.929-6.213,29.25,29.25,0,0,1,39.755-1.078,30.7,30.7,0,0,1,6.009,7.159,4.456,4.456,0,0,0-1.885,1.852,7.272,7.272,0,0,0-.552,3.383q-.012,6.739-.023,13.488c0,.353,0,.708.016,1.061a8.035,8.035,0,0,0,.312,2.09C1366.868,218.928,1367.758,221.693,1369.576,222.081Z" transform="translate(8.015 2.641)" fill="#618226"/><path d="M1392.144,211.514c-.016-.584-.041-1.177-.082-1.769a10.946,10.946,0,0,0-1.441-4.987,10.065,10.065,0,0,0-2.271-2.5,14.573,14.573,0,0,0-2.09-1.373c-.347-.19-.692-.37-1.045-.535a2.9,2.9,0,0,1-.956-.6,1.956,1.956,0,0,1-.353-.814.074.074,0,0,0-.008-.041.9.9,0,0,0-.042-.14,26.5,26.5,0,0,0-4.13-8.756,29.063,29.063,0,0,0-3.894-4.386c-.4-.37-.814-.733-1.233-1.1a33.01,33.01,0,0,0-2.988-2.222q-.567-.381-1.16-.741a36.832,36.832,0,0,0-6.395-3.085,39.578,39.578,0,0,0-10.04-2.272,48.607,48.607,0,0,0-10.854.248,50.178,50.178,0,0,0-5.315,1,39.681,39.681,0,0,0-15.669,7.413,23.91,23.91,0,0,0-4.51,4.814,18.4,18.4,0,0,0-3.39,9.695c0,.082-.009.165-.017.246a1.584,1.584,0,0,1-.025.289,1.414,1.414,0,0,1-.231.617,2.98,2.98,0,0,1-1.332.822c-.05.017-.082.033-.124.05a8.94,8.94,0,0,0-2.189,1.324,14.461,14.461,0,0,0-2.395,7.637,15.831,15.831,0,0,0,1.729,8.689,10.568,10.568,0,0,0,7.545,5.284,2.768,2.768,0,0,1,1.07.271.878.878,0,0,1,.231.19,2.269,2.269,0,0,1,.477.929v.009c.74,2.418,1.062,5.324,3.448,6.641a7.337,7.337,0,0,0,2.906.741c.295.033.6.056.9.074.667.049,1.334.1,1.991.14q4.988.358,9.966.708l1.687.124,6.3.444a14.534,14.534,0,0,0,2.74-.017,4.189,4.189,0,0,0,2.732-1.21c.058-.066.115-.13.165-.2.058-.083.115-.165.165-.248a.77.77,0,0,1,.066-.122c.041-.091.074-.174.107-.264a1.547,1.547,0,0,0,.082-.337.127.127,0,0,0,.009-.058,1.593,1.593,0,0,0,.024-.279,2.4,2.4,0,0,0-.024-.337,1.956,1.956,0,0,0-.108-.345c-.015-.033-.033-.075-.049-.116s-.041-.082-.066-.132a.823.823,0,0,0-.083-.14.477.477,0,0,0-.049-.082,4.042,4.042,0,0,0-.246-.322,1.511,1.511,0,0,0-.108-.124c-.1-.107-.2-.206-.3-.3a2.831,2.831,0,0,0-.306-.246c-.049-.041-.107-.082-.156-.115s-.083-.058-.132-.091a3.233,3.233,0,0,0-.279-.165,11.381,11.381,0,0,0-6-.832,12.078,12.078,0,0,0-2.676.4,6.361,6.361,0,0,0-.807.314,3.732,3.732,0,0,0-.9.6,2.959,2.959,0,0,0-.527.593,2.029,2.029,0,0,0-.271.576,1.661,1.661,0,0,0-.083.692q-4.247.233-8.5.115h-.056c-1.054-.074-2.107-.157-3.16-.231-.256-.016-.52-.041-.774-.066a7.264,7.264,0,0,1-2.872-.723.259.259,0,0,1-.058-.041,5.833,5.833,0,0,1-2.469-3.63,11.847,11.847,0,0,1-.157-1.185c-.016-.107-.025-.215-.033-.322-.008-.066-.008-.132-.016-.2a6.116,6.116,0,0,0,1.036-.361,3.229,3.229,0,0,0,.3-.157.953.953,0,0,0,.157-.091,4.912,4.912,0,0,0,.913-.65,4.314,4.314,0,0,0,.618-.667,3.81,3.81,0,0,0,.452-.708.8.8,0,0,0,.049-.122,7.991,7.991,0,0,0,.479-3.35v-.731q-.014-6.457-.033-12.921a6.655,6.655,0,0,0-.611-3.39,4.648,4.648,0,0,0-2.213-1.852,9.5,9.5,0,0,0-4.8-.634,13.719,13.719,0,0,1,1-5.6,19.319,19.319,0,0,1,1.819-3.5,20.878,20.878,0,0,1,3.918-4.477c10.961-9.554,31.945-10.122,44.709-2.978a25.453,25.453,0,0,1,5.3,3.942,22.716,22.716,0,0,1,2.616,3l.37.518a.124.124,0,0,0,.025.033,20.951,20.951,0,0,1,2.074,3.818c.156.378,1.324,4.625,1.243,4.617a8.093,8.093,0,0,0-4.791,1.177,4.212,4.212,0,0,0-1.423,1.474,6.83,6.83,0,0,0-.592,3.382l-.025,12.072v1.423a8.834,8.834,0,0,0,.411,3.284,4.193,4.193,0,0,0,.543.995.9.9,0,0,0,.083.1,4.269,4.269,0,0,0,.962.88,5.6,5.6,0,0,0,1.053.552c.19.082.4.148.6.213a8.463,8.463,0,0,0,2.009.355,11.146,11.146,0,0,0,2.625-.124c4.173-.708,7.809-3.341,9.267-6.7A15.691,15.691,0,0,0,1392.144,211.514Zm-14.614,12.592c0-.009.008-.017.008-.025a.2.2,0,0,1,.058.033A.207.207,0,0,1,1377.53,224.105Z" transform="translate(2.35)" fill="#618226"/></g></svg>