<svg xmlns="http://www.w3.org/2000/svg" width="109.719" height="135.62" viewBox="0 0 109.719 135.62"><g transform="translate(-801.81 -563)"><path d="M911.293,578.967a8.86,8.86,0,0,0-.971-3.74c-1.8-3.093-6.048-3.461-9.629-3.467l-20-.035a6.971,6.971,0,0,0-2.934-7.219c-2.174-1.4-4.925-1.456-7.514-1.46L844.566,563c-2.916,0-5.971.023-8.541,1.4s-4.416,4.577-3.275,7.261c-.509-1.182-18.991.238-21.122.265-6.25.078-9.234,2.032-9.7,8.7-.219,3.118-.273,6.4,1.13,9.195s4.724,4.869,7.68,3.849l.046,91.514c0,4.017.24,8.576,3.3,11.183,2.5,2.127,6.078,2.232,9.357,2.234l67.169.014c2.983,0,6.221-.083,8.555-1.942,3.114-2.479,3.378-7.03,3.382-11.011q.044-46.035.087-92.074c3.076,1.068,6.5-1.236,7.834-4.206s1.123-6.375.888-9.622C911.335,579.5,911.315,579.234,911.293,578.967Zm-74.169-10.3a1.246,1.246,0,0,1,1.34-1.063c3.128-.061,6.258-.169,9.389-.173,8.194-.011,16.387.018,24.583.044.827,0,1.656.072,2.481.135a1.4,1.4,0,0,1,1.377,1.367c.051.893.011,1.793.011,2.762H836.934C836.99,570.7,836.98,569.671,837.124,568.665Zm17.138,95.749q-1.647,2.581-3.33,5.138c-.4.612-.834,1.2-1.326,1.908-1.143-.82-2.25-1.611-3.424-2.453l1.979-3.1c-.862,0-1.625.006-2.387,0-3.173-.027-6.35-.044-9.525-.092a6.557,6.557,0,0,1-6.724-5.073,5.563,5.563,0,0,1,.409-4.156c1.849-3.455,3.754-6.882,5.651-10.314.91-1.646,1.849-3.276,2.777-4.912.11-.195.231-.386.369-.619l3.681,2.086c-.693,1.257-1.351,2.459-2.015,3.658q-3.162,5.72-6.324,11.437a10.42,10.42,0,0,0-.634,1.371,1.323,1.323,0,0,0,1.01,1.931,16.144,16.144,0,0,0,2.878.29c3.5.034,7.006.014,10.508.014.086,0,.172-.018.31-.034-.578-.9-1.123-1.767-1.685-2.62a.468.468,0,0,1,.14-.747q1.3-.9,2.587-1.828a.482.482,0,0,1,.8.134q2.2,3.289,4.408,6.57A1.187,1.187,0,0,1,854.262,664.414Zm3.613-43.931c-.984-1.094-1.739-1.122-2.534.125-1.563,2.455-3.028,4.973-4.5,7.481-.906,1.54-1.753,3.114-2.744,4.881h4.122v4.459c-.162.011-.318.031-.475.031-2.972,0-5.945.01-8.919-.014a1,1,0,0,1-.723-.343c-1.449-2.178-2.854-4.388-4.3-6.571-.3-.457-.227-.707.211-.993.809-.526,1.6-1.084,2.372-1.657.409-.3.654-.255.938.173.62.938,1.285,1.847,1.942,2.763.142.2.313.38.55.665.848-1.433,1.657-2.786,2.453-4.144q2.4-4.092,4.794-8.2a6,6,0,0,1,5.81-3.228,5.711,5.711,0,0,1,5.036,2.721q3.957,6.851,7.927,13.693c.024.041.048.079.069.121.792,1.609.676,1.974-.875,2.815-.619.337-1.23.686-1.884,1.05-1.294-2.286-2.534-4.532-3.824-6.746-1.711-2.932-3.461-5.841-5.2-8.758A2.243,2.243,0,0,0,857.875,620.483Zm22.735,44.6a5.5,5.5,0,0,1-3.254.7c-5.544.075-11.09.09-16.635.123-.039,0-.08-.034-.163-.072v-4.3h.762q6.844-.015,13.692-.039c1.013,0,2.025-.072,3.038-.1,1.775-.044,2.469-1.134,1.626-2.7-1.444-2.686-2.938-5.346-4.436-8.006-.823-1.457-1.694-2.889-2.549-4.329-.135-.23-.3-.441-.534-.778-.958,1.343-1.86,2.608-2.842,3.982l-3.417-2.421c.626-.982,1.195-1.888,1.777-2.786.909-1.406,1.814-2.815,2.754-4.2a1.086,1.086,0,0,1,.723-.468c3.087-.03,6.176-.018,9.264-.016a2.636,2.636,0,0,1,.289.031v4.325h-4.122c.289.554.482.95.695,1.335,1.967,3.55,3.989,7.068,5.892,10.653C885.047,659.558,883.636,662.982,880.611,665.082Z" transform="translate(0)" fill="#618226"/></g></svg>