<?xml version="1.0" encoding="utf-8"?>
<!-- Generator: Adobe Illustrator 19.2.1, SVG Export Plug-In . SVG Version: 6.00 Build 0)  -->
<svg version="1.1" id="Calque_1" xmlns="http://www.w3.org/2000/svg" xmlns:xlink="http://www.w3.org/1999/xlink" x="0px" y="0px"
	 viewBox="0 0 40 40" style="enable-background:new 0 0 40 40;" xml:space="preserve">
<style type="text/css">
	.st0{opacity:0.2;fill:#6E8935;enable-background:new    ;}
	.st1{fill:#262626;}
	.st2{fill:#474747;}
	.st3{fill:#303030;}
	.st4{fill:#6D6D6D;}
	.st5{fill:none;stroke:#3F3F3F;stroke-width:0.4117;stroke-linecap:round;stroke-linejoin:round;stroke-miterlimit:10;}
</style>
<g id="Background">
</g>
<g id="Objects">
	<g>
		<g>
			<polygon class="st0" points="23.2,13.5 40,0 40,40 23.2,24.5 			"/>
			<polygon class="st0" points="23.2,17.4 40,10.1 40,26.7 23.2,21.3 			"/>
		</g>
		<g>
			<g>
				<path class="st1" d="M12.7,24c-0.4,1.3-1.6,2.3-3.1,2.3c-1.4,0-2.7-1-3.1-2.3C6.4,24,12.7,24,12.7,24z"/>
				<ellipse class="st2" cx="9.4" cy="25.9" rx="0.8" ry="0.8"/>
			</g>
			<g>
				<rect x="16.1" y="17" class="st3" width="2" height="4.6"/>
				<rect x="0.8" y="17.2" class="st3" width="2.3" height="2.1"/>
				<polygon class="st2" points="0,20 1.4,19.6 1.4,16.7 0,16.7 				"/>
				<path class="st2" d="M2.6,22.8c0,0.7,0.6,1.2,1.2,1.2h11.5c0.7,0,1.2-0.6,1.2-1.2v-6c0-0.7-0.6-1.2-1.2-1.2H3.8
					c-0.7,0-1.2,0.6-1.2,1.2V22.8z"/>
				<polygon class="st2" points="23.2,24.5 18.1,21.6 18.1,17 23.2,13.5 				"/>
				<g>
					<circle class="st3" cx="4.2" cy="22.6" r="0.8"/>
					<circle class="st4" cx="4.2" cy="22.6" r="0.3"/>
				</g>
				<g>
					<line class="st5" x1="15" y1="20.8" x2="12" y2="20.8"/>
					<line class="st5" x1="15" y1="21.8" x2="12" y2="21.8"/>
					<line class="st5" x1="15" y1="22.8" x2="12" y2="22.8"/>
				</g>
			</g>
		</g>
	</g>
</g>
</svg>
