<svg xmlns="http://www.w3.org/2000/svg" width="15.698" height="13.038" viewBox="0 0 15.698 13.038"><path d="M.653,13.038a.517.517,0,0,1-.409-.2A1.553,1.553,0,0,1,0,11.859V0H13.927V10.651a.7.7,0,0,0,.105.445.37.37,0,0,0,.307.135c.46,0,.535-.171.535-.58v-8.4H15.7V12.278a.731.731,0,0,1-.138.476.818.818,0,0,1-.685.268H.781A.479.479,0,0,1,.653,13.038ZM.659,6.452v5.6H5.985v-5.6Zm5.822,4.061v1.4h6.69v-1.4Zm0-1.96v1.4H13.17v-1.4Zm0-2.1v1.4h6.69v-1.4ZM.659,4.492V5.612H13.171V4.492Zm7.2-1.7v.174a.527.527,0,0,0,.157.05,1.117,1.117,0,0,0,.2.017.71.71,0,0,0,.2-.027A.418.418,0,0,0,8.57,2.93a.35.35,0,0,0,.1-.126.463.463,0,0,0,.011-.315.3.3,0,0,0-.068-.109A.439.439,0,0,0,8.5,2.3a1.2,1.2,0,0,0-.156-.072c-.052-.021-.1-.041-.138-.061A.388.388,0,0,1,8.113,2.1a.193.193,0,0,1-.049-.073.282.282,0,0,1-.014-.1.186.186,0,0,1,.065-.148A.28.28,0,0,1,8.3,1.727a.637.637,0,0,1,.167.022A.975.975,0,0,1,8.61,1.8l.065-.152a.829.829,0,0,0-.165-.056A.927.927,0,0,0,8.3,1.567a.551.551,0,0,0-.174.025.4.4,0,0,0-.135.07.325.325,0,0,0-.088.114.358.358,0,0,0-.031.153.493.493,0,0,0,.021.147.331.331,0,0,0,.061.115.458.458,0,0,0,.105.091.873.873,0,0,0,.151.075c.062.025.111.047.15.068a.439.439,0,0,1,.1.063.178.178,0,0,1,.049.072.257.257,0,0,1,.014.092.2.2,0,0,1-.075.167.368.368,0,0,1-.231.059.6.6,0,0,1-.1-.008.846.846,0,0,1-.1-.019.649.649,0,0,1-.089-.027A.618.618,0,0,1,7.855,2.794Zm-.985-1h0c.007.033.014.065.022.1l.008.035L6.917,2l.01.039c.005.022.011.043.016.063l.248.916h.184l.358-1.428H7.539l-.2.861c-.007.032-.013.065-.02.1s-.012.067-.017.1-.01.063-.014.092l0,.032c0,.018,0,.034-.006.049,0-.025-.009-.053-.015-.083s-.013-.063-.022-.1l0-.012c-.007-.031-.015-.062-.023-.093s-.015-.06-.024-.09l-.005-.019-.223-.836H6.776l-.22.838c-.01.035-.018.069-.024.1l0,.018c-.006.03-.012.059-.017.088s-.013.069-.017.1-.006.04-.009.057l0,.027c0-.019-.005-.039-.009-.06l0-.021c0-.02-.006-.041-.01-.062l-.005-.031c-.005-.031-.012-.064-.018-.1s-.014-.063-.022-.093L6.2,1.588H6.006l.376,1.428h.184L6.8,2.105c.009-.035.018-.071.026-.107s.015-.07.022-.1S6.864,1.83,6.871,1.8ZM5.125,1.588h0V3.016h.741v-.16H5.306V2.347h.522V2.19H5.306V1.748h.559v-.16H5.125Zm-1.309.247h.008l.7,1.182h.21V1.588h-.17v.781c0,.017,0,.036,0,.056s0,.04,0,.06v.069l0,.064c0,.025,0,.05,0,.076s0,.047,0,.071H4.574l-.7-1.176H3.667V3.016h.168V2.241c0-.037,0-.078,0-.125s0-.09-.006-.132-.006-.1-.01-.148Z" fill="#fff"/></svg>