<svg xmlns="http://www.w3.org/2000/svg" width="17.415" height="15.176" viewBox="0 0 17.415 15.176"><g transform="translate(0)"><path d="M0,12.822V3.992L7.12,0l7.089,3.992h0v8.83Z" transform="translate(1.981 2.354)" fill="#618226"/><path d="M.1,6.1A.758.758,0,0,1,.379,5.067L8.541.355A.755.755,0,0,1,9.085.271a.752.752,0,0,1,.3.092l4.325,2.4V.828a.828.828,0,1,1,1.655,0V3.587a.836.836,0,0,1,0,.087l1.665.923a.759.759,0,0,1-.736,1.328L8.962,1.864,1.138,6.381A.758.758,0,0,1,.1,6.1Z" transform="translate(0)" fill="#618226"/></g></svg>