<svg xmlns="http://www.w3.org/2000/svg" width="16.438" height="19.782" viewBox="0 0 16.438 19.782"><path d="M-230.872,56.547c-.342.473-1.629,3.211-8.123,3.4s-8.291-3.786-8.171-4.409,2.276-1.294,3.427-1.7,2.276-1.246,1.558-2.516a18.354,18.354,0,0,1-1.438-2.732,9.81,9.81,0,0,1,0-2.78c-.024-.695-.156-3.648.9-4.511s1.749-1.126,3.81-1.126,4.792.959,4.888,3.834c.048,1.821,0,2.828,0,2.828a1.365,1.365,0,0,1,.216,1.366c-.24.959-1.845,2.708-1.941,2.971a1.653,1.653,0,0,0,.869,2.061C-233.658,53.834-229.979,55.331-230.872,56.547Z" transform="translate(247.172 -40.175)" fill="#fff"/></svg>