<svg xmlns="http://www.w3.org/2000/svg" width="20.593" height="20.593" viewBox="0 0 20.593 20.593"><path d="M9.127,20.593V18.155a7.814,7.814,0,0,1-1.735-.486L6.162,19.8l-2.027-1.17,1.244-2.155a8.126,8.126,0,0,1-1.245-1.268l-2.17,1.253L.794,14.432l2.179-1.258a8.009,8.009,0,0,1-.46-1.707H0V9.127H2.491a8.007,8.007,0,0,1,.434-1.735L.794,6.162l1.17-2.027,2.087,1.2a8.092,8.092,0,0,1,.7-.8q.274-.277.57-.523L4.135,1.964,6.162.794l1.157,2a7.816,7.816,0,0,1,1.808-.516V0h2.34V2.259a7.807,7.807,0,0,1,1.838.488L14.432.794l2.027,1.17L15.325,3.927a8.114,8.114,0,0,1,1.325,1.35l1.979-1.142L19.8,6.162l-2,1.156a8.009,8.009,0,0,1,.462,1.809h2.335v2.34H18.236a8.011,8.011,0,0,1-.49,1.78L19.8,14.432l-1.17,2.027-2.063-1.191a8.115,8.115,0,0,1-1.3,1.292l1.195,2.07L14.432,19.8l-1.2-2.079a7.806,7.806,0,0,1-1.765.459v2.415ZM4.29,10.375a5.929,5.929,0,1,0,5.928-6.006A5.975,5.975,0,0,0,4.29,10.375Z" transform="translate(0 0)" fill="#fff"/><path d="M-144.757,247.625l1.914-1.9h.39l.807-1.061-.5-.49-1.061.771v.417l-1.923,1.914Z" transform="translate(156.107 -237.753)" fill="#fff"/><path d="M-171.345,269.056l-.37-.413L-174,270.908a1.077,1.077,0,0,0-.238,1.272,1.111,1.111,0,0,0,1.766.424l2.287-2.308-.368-.411-2.491,2.458s-.29.1-.231-.2c.156-.139,2.491-2.48,2.491-2.48l-.365-.408-2.469,2.528s-.344.123-.247-.236C-173.652,271.356-171.345,269.056-171.345,269.056Z" transform="translate(180.774 -258.402)" fill="#fff"/><path d="M7.314,8.124a1.146,1.146,0,0,1-.782-.355c-.341-.35-3.948-4.265-3.985-4.3a2.878,2.878,0,0,1-.823.124A1.608,1.608,0,0,1,.488,3.112,2.6,2.6,0,0,1,.016,1.1h0c.024,0,1.076,1.068,1.12,1.114a.43.43,0,0,0,.269.109.381.381,0,0,0,.257-.109A7.157,7.157,0,0,0,2.243,1.6a.42.42,0,0,0-.118-.5C1.887.846,1.214.124,1.138.042l0,0h0a3,3,0,0,1,.5-.04,1.94,1.94,0,0,1,1.52.59,2.357,2.357,0,0,1,.3,1.981C3.468,2.654,7.83,6.6,7.874,6.644a1.114,1.114,0,0,1,.183.345.877.877,0,0,1-.11.78A.743.743,0,0,1,7.314,8.124Zm-.08-1.3a.468.468,0,1,0,.468.468A.469.469,0,0,0,7.234,6.826Z" transform="translate(6.261 6.123)" fill="#fff"/></svg>