<svg xmlns="http://www.w3.org/2000/svg" width="18.628" height="20.391" viewBox="0 0 18.628 20.391"><path d="M15.6,20.391,0,18.931.783,4.541l2.066-.428,4.03.114c.037-.523.143-1.849.3-2.86C7.359.166,8.353,0,9.4,0c.1,0,.214,0,.338.005,1.251.036,1.441.579,1.443.584l.484,3.773,6.322.178.641,13.178L15.6,20.39ZM10.97,1.482h0L10.711,4.4h.6ZM9.144.372a1.232,1.232,0,0,0-.768.169c-.3.288.077,3.71.081,3.745l1.929.113a.05.05,0,0,1,0-.016,16.049,16.049,0,0,1,.163-2.14,1.87,1.87,0,0,0-.373-1.7A2.51,2.51,0,0,0,9.144.372ZM7.938.637h0c-.464.256-.711,3.63-.713,3.665l.988.1a4.262,4.262,0,0,0-.1-.632c-.081-.5-.21-3.11-.179-3.129Z" fill="#618226"/></svg>