<?xml version="1.0" encoding="utf-8"?>
<!-- Generator: Adobe Illustrator 19.2.1, SVG Export Plug-In . SVG Version: 6.00 Build 0)  -->
<svg version="1.1" id="Layer_1" xmlns="http://www.w3.org/2000/svg" xmlns:xlink="http://www.w3.org/1999/xlink" x="0px" y="0px"
	 viewBox="-316 275.5 43.1 44.5" enable-background="new -316 275.5 43.1 44.5" xml:space="preserve">
<g>
	<g>
		<g>
			<g>
				<path fill="#FFFFFF" d="M-274.1,291.7c0,0,0.1,0.2,0.2,0.6c0.1,0.4,0.3,1,0.4,1.8c0.1,0.4,0.2,0.8,0.2,1.3
					c0.1,0.5,0.1,1,0.1,1.5c0.1,1.1,0.1,2.4-0.1,3.7c0,0.7-0.2,1.4-0.3,2.1c-0.1,0.7-0.4,1.5-0.6,2.2c-0.5,1.5-1.1,3-2.1,4.5
					c-0.4,0.8-1,1.4-1.5,2.2c-0.6,0.7-1.1,1.4-1.8,2c-1.3,1.3-2.8,2.4-4.4,3.3c-1.6,0.9-3.3,1.7-5.1,2.1c-1.8,0.5-3.6,0.7-5.3,0.8
					c-0.4,0-0.9,0-1.3,0c-0.4,0-0.9-0.1-1.3-0.1c-0.8-0.1-1.7-0.2-2.4-0.4c-1.6-0.3-3-0.8-4.3-1.4c-1.3-0.6-2.4-1.2-3.4-1.9
					c-1-0.6-1.7-1.3-2.4-1.8c-0.6-0.6-1.1-1-1.4-1.3c-0.3-0.3-0.5-0.5-0.5-0.5c-0.3-0.4-0.3-0.9,0-1.3c0.4-0.3,0.9-0.3,1.3,0
					c0,0,0,0,0,0l0,0c0,0,0.1,0.2,0.4,0.5c0.3,0.3,0.7,0.7,1.2,1.3c0.6,0.5,1.3,1.1,2.1,1.7c0.9,0.6,1.9,1.3,3.1,1.8
					c1.2,0.6,2.5,1.1,4,1.4c0.7,0.2,1.5,0.3,2.3,0.4c0.4,0,0.8,0.1,1.2,0.1c0.4,0,0.8,0,1.2,0c1.7,0,3.4-0.2,5.1-0.6
					c1.7-0.4,3.4-1.1,4.9-1.9c1.5-0.9,3-1.9,4.3-3.1c0.7-0.6,1.2-1.3,1.8-1.9c0.5-0.7,1.1-1.3,1.5-2.1c1-1.4,1.6-2.9,2.2-4.3
					c0.2-0.7,0.5-1.4,0.6-2.2c0.1-0.7,0.3-1.4,0.4-2.1c0.2-1.3,0.2-2.6,0.2-3.7c0-0.5-0.1-1.1-0.1-1.5c-0.1-0.5-0.1-0.9-0.2-1.3
					c-0.1-0.8-0.3-1.4-0.4-1.8C-274,291.9-274.1,291.7-274.1,291.7C-274.1,291.7-274.1,291.7-274.1,291.7
					C-274.1,291.7-274.1,291.7-274.1,291.7z"/>
				<g>
					<path fill="#FFFFFF" d="M-313.7,306.9c2.4,1.8,5.9,3.7,8.6,4.4l-4.9,1.2l-3,4C-312.5,313.7-313,309.8-313.7,306.9z"/>
				</g>
			</g>
		</g>
	</g>
</g>
<g>
	<g>
		<g>
			<g>
				<path fill="#FFFFFF" d="M-314.6,304.6c0,0-0.1-0.2-0.2-0.6c-0.1-0.4-0.4-1-0.5-1.8c-0.1-0.4-0.2-0.8-0.3-1.3
					c-0.1-0.5-0.1-1-0.2-1.5c-0.1-1.1-0.2-2.4-0.1-3.7c0-0.7,0.2-1.4,0.3-2.1c0.1-0.7,0.3-1.5,0.5-2.2c0.3-0.7,0.5-1.5,0.8-2.3
					c0.2-0.4,0.3-0.8,0.5-1.2c0.2-0.4,0.4-0.8,0.6-1.1c0.9-1.5,1.9-3,3.2-4.3c1.3-1.3,2.7-2.5,4.3-3.5c3.2-2,6.9-3.1,10.5-3.2
					c0.4,0,0.9,0,1.3,0c0.4,0,0.9,0,1.3,0.1c0.9,0.1,1.7,0.2,2.5,0.3c1.6,0.3,3.1,0.8,4.4,1.3c1.3,0.6,2.4,1.2,3.4,1.8
					c1,0.6,1.8,1.3,2.4,1.8c0.6,0.5,1.1,1,1.4,1.3c0.3,0.3,0.5,0.5,0.5,0.5c0.4,0.4,0.4,1.1,0,1.5c-0.4,0.4-1.1,0.4-1.5,0l0,0
					c0,0-0.2-0.2-0.4-0.4c-0.3-0.3-0.7-0.7-1.3-1.2c-0.6-0.5-1.3-1-2.2-1.6c-0.9-0.6-1.9-1.1-3.1-1.6c-1.2-0.5-2.5-0.9-3.9-1.2
					c-0.7-0.1-1.5-0.3-2.2-0.3c-0.4,0-0.8,0-1.1-0.1c-0.4,0-0.8,0-1.2,0c-1.6,0-3.3,0.3-4.9,0.7c-1.6,0.5-3.2,1.1-4.7,2
					c-1.5,0.8-2.9,1.9-4.1,3.1c-1.2,1.2-2.3,2.5-3.2,3.9c-0.9,1.4-1.6,2.8-2.1,4.2c-0.2,0.7-0.5,1.4-0.6,2.1c-0.1,0.7-0.3,1.4-0.4,2
					c-0.2,1.3-0.3,2.5-0.2,3.6c0,0.5,0.1,1,0.1,1.5c0.1,0.5,0.1,0.9,0.2,1.3c0.1,0.8,0.3,1.4,0.4,1.8
					C-314.6,304.4-314.6,304.6-314.6,304.6C-314.6,304.6-314.6,304.6-314.6,304.6C-314.6,304.6-314.6,304.6-314.6,304.6z"/>
				<g>
					<path fill="#FFFFFF" d="M-275.4,288.4c-2.5-1.7-6-3.5-8.8-4.1l4.8-1.4l2.8-4.1C-276.8,281.7-276.2,285.5-275.4,288.4z"/>
				</g>
			</g>
		</g>
	</g>
</g>
<g>
	<g>
		<g>
			<g>
				<path fill="#FFFFFF" d="M-289.3,305c0,0-0.3,0.2-0.8,0.5c-0.5,0.3-1.3,0.7-2.3,1c-1,0.3-2.2,0.4-3.5,0.2
					c-0.6-0.1-1.3-0.3-1.9-0.5c-0.3-0.1-0.6-0.3-0.9-0.4c-0.3-0.1-0.6-0.4-0.9-0.5c-0.6-0.4-1.1-0.8-1.6-1.4
					c-0.5-0.5-0.9-1.1-1.2-1.6c-0.3-0.6-0.6-1.2-0.8-1.8c-0.2-0.6-0.3-1.2-0.4-1.7c-0.1-0.5-0.1-1-0.1-1.5c0-0.4,0.1-0.8,0.1-1.1
					c0.1-0.6,0.2-1,0.2-1c0.1-0.4,0.5-0.6,0.9-0.5c0.4,0.1,0.6,0.5,0.5,0.9c0,0,0,0,0,0l0,0c0,0-0.1,0.3-0.2,0.8
					c0,0.3-0.1,0.6-0.2,1c0,0.4-0.1,0.8,0,1.3c0,0.5,0.1,1,0.2,1.5c0.1,0.5,0.3,1,0.6,1.6c0.3,0.5,0.6,1,1,1.5
					c0.4,0.5,0.9,0.9,1.3,1.3c0.3,0.2,0.5,0.4,0.8,0.5c0.3,0.2,0.6,0.3,0.8,0.4c0.6,0.3,1.2,0.4,1.8,0.6c1.2,0.2,2.3,0.2,3.3,0
					c1-0.2,1.7-0.5,2.2-0.8c0.5-0.3,0.8-0.5,0.8-0.5c0.1,0,0.1,0,0.2,0C-289.2,304.9-289.2,304.9-289.3,305L-289.3,305z"/>
				<g>
					<path fill="#FFFFFF" d="M-286.6,301.6c-1.9,1-4.5,2.1-6.5,2.4l3.3,1.3l1.8,3.1C-288.1,306.3-287.4,303.6-286.6,301.6z"/>
				</g>
			</g>
		</g>
	</g>
</g>
<g>
	<g>
		<g>
			<g>
				<path fill="#FFFFFF" d="M-299.3,290.7c0,0,0.3-0.2,0.8-0.5c0.5-0.3,1.3-0.7,2.3-1c1-0.3,2.3-0.4,3.6-0.2c0.7,0.1,1.3,0.3,2,0.5
					c0.2,0.1,0.3,0.1,0.5,0.2l0.4,0.2c0.3,0.1,0.6,0.4,0.9,0.6c1.2,0.9,2.1,2,2.7,3.2c0.3,0.6,0.5,1.2,0.7,1.8
					c0.2,0.6,0.2,1.2,0.3,1.7c0,0.5,0,1,0,1.5c0,0.4-0.1,0.8-0.2,1.1c-0.1,0.3-0.2,0.5-0.2,0.7c-0.1,0.2-0.1,0.2-0.1,0.2
					c-0.1,0.4-0.5,0.6-0.9,0.5c-0.4-0.1-0.6-0.5-0.5-0.9l0,0c0,0,0.1-0.3,0.2-0.8c0-0.3,0.1-0.6,0.1-0.9c0-0.4,0-0.8,0-1.2
					c0-0.4-0.1-0.9-0.2-1.4c-0.1-0.5-0.3-1-0.6-1.5c-0.3-0.5-0.6-1-0.9-1.5c-0.4-0.5-0.8-0.9-1.3-1.3c-0.2-0.2-0.4-0.3-0.7-0.5
					l-0.4-0.2c-0.1,0-0.3-0.1-0.4-0.2c-0.5-0.3-1.1-0.5-1.7-0.6c-1.1-0.3-2.2-0.3-3.1-0.1c-0.9,0.2-1.7,0.4-2.2,0.7
					c-0.5,0.2-0.8,0.4-0.8,0.4c-0.2,0.1-0.4,0.1-0.5-0.1C-299.5,291-299.5,290.8-299.3,290.7L-299.3,290.7z"/>
				<g>
					<path fill="#FFFFFF" d="M-302,294.2c1.9-1,4.5-1.9,6.6-2.2l-3.3-1.4l-1.6-3.2C-300.4,289.5-301.2,292.2-302,294.2z"/>
				</g>
			</g>
		</g>
	</g>
</g>
</svg>
