<?xml version="1.0" encoding="utf-8"?>
<!-- Generator: Adobe Illustrator 19.2.1, SVG Export Plug-In . SVG Version: 6.00 Build 0)  -->
<svg version="1.1" id="Layer_1" xmlns="http://www.w3.org/2000/svg" xmlns:xlink="http://www.w3.org/1999/xlink" x="0px" y="0px"
	 viewBox="-321.7 276.3 30.6 44.2" enable-background="new -321.7 276.3 30.6 44.2" xml:space="preserve">
<g>
	<path fill="none" stroke="#FFFFFF" stroke-width="1.3529" stroke-miterlimit="10" d="M-306.4,290.7c-8,0-14.6,6.5-14.6,14.5
		c0,8,6.5,14.5,14.6,14.5c8,0,14.6-6.5,14.6-14.5C-291.9,297.2-298.4,290.7-306.4,290.7z M-303.6,302.7c0,0.2-0.2,0.4-0.4,0.7
		c-0.2,0.3-0.5,0.7-0.6,1.2c-0.2,0.9-0.1,1.8-0.1,2.9c0.1,0.9,0.1,2-0.1,2.6c-0.2,0.6-0.9,0.9-1.5,0.9h0c-0.3,0-1.1-0.1-1.4-0.9
		c-0.3-0.7-0.2-1.7-0.1-2.6c0.1-0.9,0.2-1.8,0-2.7c-0.1-0.6-0.5-1.1-0.7-1.5c-0.1-0.1-0.2-0.4-0.3-0.4c-0.2-0.8-0.1-1.6,0.4-2.2
		c0.4-0.6,1-1,1.7-1.1c0.2,0,0.4,0,0.5,0c0.8,0,1.5,0.3,2,0.9C-303.6,300.9-303.4,301.8-303.6,302.7z"/>
</g>
<g>
	
		<path fill="none" stroke="#FFFFFF" stroke-width="1.5629" stroke-linecap="round" stroke-linejoin="round" stroke-miterlimit="10" d="
		M-313.3,292.3c0.2-0.9,0.4-1.8,0.8-2.5c1.4-3.1,3.7-5,6.2-5.1c0.1,0,0.2,0,0.3,0c2.6,0,4.8,1.8,6,4.9c0.4,0.9,0.6,1.8,0.7,2.9
		c2.8,1,4.5,3.5,5.6,5.6c0.1-1.4,0.1-4,0.1-4.8c-0.2-8.3-5.1-15.3-11.1-15.9c-0.4,0-0.8-0.1-1.1-0.1c-3.3,0-6.2,1.5-8.7,4.4
		c-2.5,2.9-4.1,7.2-4.5,11.5c-0.1,0.7-0.1,3.4-0.1,4.8C-317.8,295.7-315.8,292.9-313.3,292.3z"/>
</g>
</svg>
