<?xml version="1.0" encoding="utf-8"?>
<!-- Generator: Adobe Illustrator 19.2.1, SVG Export Plug-In . SVG Version: 6.00 Build 0)  -->
<svg version="1.1" id="Layer_1" xmlns="http://www.w3.org/2000/svg" xmlns:xlink="http://www.w3.org/1999/xlink" x="0px" y="0px"
	 viewBox="-321.7 276.2 44.2 44.2" enable-background="new -321.7 276.2 44.2 44.2" xml:space="preserve">
<g>
	<path fill="none" stroke="#E9B208" stroke-width="1.4173" stroke-miterlimit="10" d="M-280.1,300.9l-2.3-0.8c0.2-1.6,0.1-3.3-0.2-5
		l2.2-1c1.4-0.6,2-2.2,1.3-3.6l-1.3-2.8c-0.6-1.4-2.2-2-3.6-1.3l-2.2,1c-1.1-1.3-2.3-2.5-3.7-3.4l0.8-2.3c0.5-1.4-0.2-3-1.6-3.5
		l-2.9-1.1c-1.4-0.5-3,0.2-3.5,1.6l-0.8,2.3c-1.6-0.2-3.3-0.1-5,0.2l-1-2.2c-0.6-1.4-2.2-2-3.6-1.3l-2.8,1.3c-1.4,0.6-2,2.3-1.3,3.6
		l1,2.2c-1.3,1.1-2.5,2.3-3.4,3.7l-2.3-0.8c-1.4-0.5-3,0.2-3.5,1.6l-1.1,2.9c-0.3,0.7-0.2,1.4,0.1,2.1c0.3,0.7,0.9,1.2,1.5,1.4
		l2.3,0.8c-0.2,1.6-0.1,3.3,0.2,5l-2.2,1c-1.4,0.6-2,2.2-1.3,3.6l1.3,2.8c0.6,1.4,2.2,2,3.6,1.3l2.2-1c1.1,1.3,2.3,2.5,3.7,3.4
		l-0.8,2.3c-0.3,0.7-0.2,1.4,0.1,2.1c0.3,0.7,0.8,1.2,1.5,1.4l2.9,1.1c0.7,0.3,1.4,0.2,2.1-0.1c0.7-0.3,1.2-0.8,1.4-1.5l0.8-2.3
		c1.6,0.2,3.3,0.1,5-0.2l1,2.2c0.6,1.4,2.2,2,3.6,1.3l2.8-1.3c1.4-0.6,2-2.2,1.3-3.6l-1-2.2c1.3-1.1,2.5-2.3,3.4-3.7l2.3,0.8
		c0.7,0.3,1.4,0.2,2.1-0.1c0.7-0.3,1.2-0.8,1.4-1.5l1.1-2.9C-278,303-278.7,301.5-280.1,300.9z M-295.1,308.1c-1.4,0.7-2.9,1-4.5,1
		c-4.2,0-8-2.5-9.8-6.3c-2.5-5.4-0.1-11.8,5.3-14.3c1.4-0.7,2.9-1,4.5-1c4.2,0,8,2.5,9.8,6.3C-287.4,299.2-289.7,305.6-295.1,308.1z
		"/>
</g>
</svg>
