<svg xmlns="http://www.w3.org/2000/svg" width="25%" height="25%" viewBox="0 0 668.5 116.389"><defs><style>.a{font-size:18px;font-family:DroidSans-Bold, Droid Sans;font-weight:700;}.b{fill:#fff;}.c{fill:#ff7900;}.d{fill:#1d1d1b;}</style></defs><g transform="translate(-537 -7954)"><text class="a" transform="translate(834.5 7954.889)"><tspan x="0" y="17">La réalisation de la phase 1 du </tspan><tspan x="0" y="38">Répertoire Vert a été possible par</tspan><tspan x="0" y="59">le soutien de la Loterie Romande.</tspan><tspan x="0" y="80">Avec nos remerciements. </tspan></text><g transform="translate(537 7954)"><rect class="b" width="238.096" height="82.935"/><g transform="translate(1.82 1.82)"><path class="c" d="M13.308,2.6H2.6V14.218A36.946,36.946,0,0,1,13.308,2.6Z" transform="translate(-2.6 -2.6)"/><path class="c" d="M37.305,61.25A26.175,26.175,0,1,0,11.2,35.075,26.12,26.12,0,0,0,37.305,61.25Zm0-37.513A16.693,16.693,0,1,1,20.788,40.464,16.638,16.638,0,0,1,37.305,23.737Z" transform="translate(-5.181 -4.491)"/><path class="c" d="M56.21,2.6A37.381,37.381,0,1,1,2.6,52.221V81.965H237.057V2.6Z" transform="translate(-2.6 -2.6)"/><path class="b" d="M34.724,70.628A37.423,37.423,0,0,0,56.14,2.6H13.308A36.946,36.946,0,0,0,2.6,14.218V52.151A37.285,37.285,0,0,0,34.724,70.628Zm0-63.618A26.175,26.175,0,1,1,8.619,33.184,26.12,26.12,0,0,1,34.724,7.009Z" transform="translate(-2.6 -2.6)"/><path class="b" d="M41.417,63.484A16.693,16.693,0,1,0,24.9,46.827,16.623,16.623,0,0,0,41.417,63.484Z" transform="translate(-9.293 -10.854)"/></g><g transform="translate(76.776 16.237)"><path class="b" d="M151.27,23.9h6.579V37.757h6.439v5.669H151.2V23.9Z" transform="translate(-122.155 -23.41)"/><path class="b" d="M173.4,33.348a10.227,10.227,0,0,1,.84-4.2,10.613,10.613,0,0,1,2.24-3.219,9.908,9.908,0,0,1,3.429-2.03,13.371,13.371,0,0,1,8.538,0,11.126,11.126,0,0,1,3.429,2.03,9.7,9.7,0,0,1,2.31,3.219,10.227,10.227,0,0,1,.84,4.2,10.563,10.563,0,0,1-.84,4.269,9.892,9.892,0,0,1-5.739,5.389,12.222,12.222,0,0,1-8.538,0,10.064,10.064,0,0,1-3.429-2.1,8.883,8.883,0,0,1-2.24-3.289A10.805,10.805,0,0,1,173.4,33.348Zm7,0a4.6,4.6,0,0,0,.28,1.75,6.618,6.618,0,0,0,.77,1.4,4.893,4.893,0,0,0,1.19.91,3.814,3.814,0,0,0,1.54.35,2.935,2.935,0,0,0,1.54-.35,3.239,3.239,0,0,0,1.26-.91,4.659,4.659,0,0,0,.84-1.4,5.608,5.608,0,0,0,0-3.5,4.3,4.3,0,0,0-.84-1.33,3.971,3.971,0,0,0-1.26-.84,4.374,4.374,0,0,0-3.079,0,3.041,3.041,0,0,0-1.19.84,2.793,2.793,0,0,0-.77,1.33A4.833,4.833,0,0,0,180.4,33.348Z" transform="translate(-128.818 -23.2)"/><path class="b" d="M218.738,43.426h-6.579v-14H207.4V23.9h16.1v5.529h-4.759Z" transform="translate(-139.023 -23.41)"/><path class="b" d="M235.6,23.9h13.438v5.459h-7.209v1.68h6.789v5.109h-6.789v1.82h7.7v5.459H235.67V23.9Z" transform="translate(-147.486 -23.41)"/><path class="b" d="M261.6,23.9H270a13.3,13.3,0,0,1,2.869.28,6.841,6.841,0,0,1,2.52,1.05,5.459,5.459,0,0,1,1.82,1.96,5.9,5.9,0,0,1,.7,3.079,5.595,5.595,0,0,1-3.429,5.249l4.969,7.909h-7.489l-3.709-7h-.21v7H261.67V23.9Zm6.3,8.258h1.26a2.381,2.381,0,0,0,.7-.07c.28-.07.49-.14.77-.21a1.887,1.887,0,0,0,.56-.49,1.785,1.785,0,0,0,0-1.68,1.635,1.635,0,0,0-.49-.49l-.63-.21c-.21,0-.49-.07-.63-.07H267.9Z" transform="translate(-155.289 -23.41)"/><path class="b" d="M290.6,23.9h6.579V43.356H290.6Z" transform="translate(-163.993 -23.41)"/><path class="b" d="M306,23.9h13.438v5.459h-7.209v1.68h6.789v5.109h-6.789v1.82h7.7v5.459H306Z" transform="translate(-168.615 -23.41)"/><path class="b" d="M109.7,64.6h8.4a13.3,13.3,0,0,1,2.869.28,8.012,8.012,0,0,1,2.52,1.05,5.459,5.459,0,0,1,1.82,1.96,5.9,5.9,0,0,1,.7,3.079,5.595,5.595,0,0,1-3.429,5.249l4.9,7.909h-7.489L116.279,77.2h-.21v6.929H109.7Zm6.3,8.188h1.26a2.381,2.381,0,0,0,.7-.07c.28-.07.49-.14.7-.21a1.887,1.887,0,0,0,.56-.49,1.785,1.785,0,0,0,0-1.68.941.941,0,0,0-.49-.42l-.63-.21c-.21,0-.49-.07-.63-.07h-1.54v3.149Z" transform="translate(-109.7 -35.625)"/><path class="b" d="M136.5,73.948a10.227,10.227,0,0,1,.84-4.2,10.614,10.614,0,0,1,2.24-3.219,9.908,9.908,0,0,1,3.429-2.03,13.371,13.371,0,0,1,8.538,0,9.908,9.908,0,0,1,3.429,2.03,9.7,9.7,0,0,1,2.31,3.219,10.227,10.227,0,0,1,.84,4.2,10.805,10.805,0,0,1-.84,4.269,9.892,9.892,0,0,1-5.739,5.389,12.222,12.222,0,0,1-8.538,0,10.064,10.064,0,0,1-3.429-2.1,8.883,8.883,0,0,1-2.24-3.289A10.805,10.805,0,0,1,136.5,73.948Zm7,0a4.6,4.6,0,0,0,.28,1.75,6.618,6.618,0,0,0,.77,1.4,4.893,4.893,0,0,0,1.19.91,3.562,3.562,0,0,0,3.079,0,3.017,3.017,0,0,0,1.19-.91,3.928,3.928,0,0,0,.84-1.4,5.608,5.608,0,0,0,0-3.5,4.3,4.3,0,0,0-.84-1.33,4.6,4.6,0,0,0-1.19-.84,4.374,4.374,0,0,0-3.079,0,3.041,3.041,0,0,0-1.19.84,2.793,2.793,0,0,0-.77,1.33A4.833,4.833,0,0,0,143.5,73.948Z" transform="translate(-117.743 -35.385)"/><path class="b" d="M177.109,73l.28,10.988H171.3V64.6h8.538l3.5,10.428h.14L186.557,64.6h8.818V84.056h-6.369l.21-10.918h-.14l-3.639,10.988h-4.619l-3.569-10.988h-.14Z" transform="translate(-128.188 -35.625)"/><path class="b" d="M216.669,64.6H223.6l7.559,19.456h-7.139l-1.05-2.869h-6.159l-.98,2.869H208.9Zm3.359,6.719-1.61,4.829h3.149Z" transform="translate(-139.473 -35.625)"/><path class="b" d="M244.07,64.6h6.509l5.529,9.868h.14L255.9,64.6h6.229V84.056h-6.649l-5.389-9.308h-.14l.28,9.308H244V64.6Z" transform="translate(-150.007 -35.625)"/><path class="b" d="M275.1,83.986V64.6h7.279a22.444,22.444,0,0,1,4.409.42,10.389,10.389,0,0,1,3.709,1.54,8.742,8.742,0,0,1,2.59,2.939,10.243,10.243,0,0,1,.98,4.619,9.089,9.089,0,0,1-3.359,7.489,10.621,10.621,0,0,1-3.569,1.75,16.438,16.438,0,0,1-4.2.56H275.1Zm6.3-13.857v8.258h1.19a5.852,5.852,0,0,0,3.569-.98,3.889,3.889,0,0,0,1.26-3.289,3.615,3.615,0,0,0-1.26-2.939,4.884,4.884,0,0,0-3.289-1.05H281.4Z" transform="translate(-159.341 -35.625)"/><path class="b" d="M306,64.6h13.368v5.459h-7.209v1.68h6.789v5.039h-6.789V78.6h7.7v5.459H306Z" transform="translate(-168.615 -35.625)"/></g><g transform="translate(0 93.853)"><path class="d" d="M0,145.5H4.689l2.869,8.888h.07l2.45-8.888h4.829l2.66,8.888H17.5l2.66-8.888h4.409L19.6,159.707H15.257l-2.939-9.448h-.07l-2.66,9.448H5.179Z" transform="translate(0 -137.521)"/><path class="d" d="M37.5,145.5h4.689l2.869,8.888h.07l2.45-8.888h4.759L55,154.388h.07l2.66-8.888h4.409L57.1,159.707H52.757l-3.009-9.448h0l-2.66,9.448H42.679Z" transform="translate(-11.255 -137.521)"/><path class="d" d="M74.9,145.5h4.689l2.869,8.888h.07l2.45-8.888h4.759l2.66,8.888h.07l2.66-8.888h4.409L94.5,159.707H90.157l-2.939-9.448h-.07l-2.66,9.448H80.079Z" transform="translate(-22.48 -137.521)"/><path class="d" d="M109.2,162.07a3.513,3.513,0,0,1,.14-.84,2.458,2.458,0,0,1,1.19-1.19,1.775,1.775,0,0,1,.84-.14,3.514,3.514,0,0,1,.84.14,2.458,2.458,0,0,1,1.19,1.19,1.775,1.775,0,0,1,.14.84,3.513,3.513,0,0,1-.14.84,2.458,2.458,0,0,1-1.19,1.19,1.775,1.775,0,0,1-.84.14,3.513,3.513,0,0,1-.84-.14,2.458,2.458,0,0,1-1.19-1.19A1.775,1.775,0,0,1,109.2,162.07Z" transform="translate(-32.774 -141.843)"/><path class="d" d="M132.827,157.078a7.106,7.106,0,0,1-2.66,2.1,7.819,7.819,0,0,1-3.359.7,8.908,8.908,0,0,1-3.079-.56,7.474,7.474,0,0,1-2.52-1.47,7.683,7.683,0,0,1-1.68-8.538,8.15,8.15,0,0,1,1.68-2.38,7.474,7.474,0,0,1,2.52-1.47,8.908,8.908,0,0,1,3.079-.56,5.785,5.785,0,0,1,2.729.56,5.687,5.687,0,0,1,2.1,1.47,6.032,6.032,0,0,1,1.33,2.38,10.515,10.515,0,0,1,.49,3.079v1.4H123.309a4.136,4.136,0,0,0,1.12,2.03,3.282,3.282,0,0,0,2.17.77,3.084,3.084,0,0,0,1.82-.49,5.606,5.606,0,0,0,1.33-1.26Zm-3.709-6.229a2.533,2.533,0,0,0-.7-1.89,2.749,2.749,0,0,0-1.96-.77,3.391,3.391,0,0,0-1.26.21,2.936,2.936,0,0,0-.98.63,2.414,2.414,0,0,0-.63.84,5.155,5.155,0,0,0-.28.98h5.809Z" transform="translate(-35.685 -137.341)"/><path class="d" d="M143.44,145.35h4.2v1.96h.07a5.838,5.838,0,0,1,.56-.84,4.493,4.493,0,0,1,.91-.7,6.2,6.2,0,0,1,1.19-.56,4.653,4.653,0,0,1,1.47-.21,5.639,5.639,0,0,1,2.66.49,4.5,4.5,0,0,1,1.61,1.4,6.839,6.839,0,0,1,.77,2.1,15.766,15.766,0,0,1,.21,2.66v7.839h-4.409v-6.929a7.606,7.606,0,0,0-.07-1.26,3.3,3.3,0,0,0-.28-1.19,1.792,1.792,0,0,0-.7-.91,2.318,2.318,0,0,0-1.33-.35,2.776,2.776,0,0,0-1.4.28,1.781,1.781,0,0,0-.77.84,3,3,0,0,0-.35,1.12,8.469,8.469,0,0,0-.07,1.33v7.069H143.3V145.35Z" transform="translate(-43.008 -137.371)"/><path class="d" d="M176.558,147.229h-3.849v4.759a4.634,4.634,0,0,0,.07,1.05,2.361,2.361,0,0,0,.28.84,1.653,1.653,0,0,0,.63.56,2.454,2.454,0,0,0,1.12.21,4.644,4.644,0,0,0,.91-.07c.35-.07.7-.14.84-.35v3.639a9.932,9.932,0,0,1-1.54.35,11.341,11.341,0,0,1-1.54.07,9.043,9.043,0,0,1-2.03-.21,3.836,3.836,0,0,1-1.61-.77,3.46,3.46,0,0,1-1.12-1.33,4.261,4.261,0,0,1-.42-1.96V147.3h-2.8v-3.5h2.8v-4.2h4.409v4.2h3.849Z" transform="translate(-49.671 -135.751)"/><path class="d" d="M186.3,145.38h4.409v2.31h.07a5.269,5.269,0,0,1,1.68-1.96,4.391,4.391,0,0,1,2.45-.63h.77a2.071,2.071,0,0,1,.7.14v3.989c-.28-.07-.63-.14-.91-.21a4.3,4.3,0,0,0-.98-.07,4.91,4.91,0,0,0-1.96.35,2.546,2.546,0,0,0-1.12.98,3.336,3.336,0,0,0-.49,1.54,16.1,16.1,0,0,0-.14,1.96v5.949H186.37V145.38Z" transform="translate(-55.914 -137.401)"/><path class="d" d="M211.858,157.868h0a4.112,4.112,0,0,1-2.03,1.61,6.555,6.555,0,0,1-2.59.49,5.621,5.621,0,0,1-1.89-.28,5.85,5.85,0,0,1-1.61-.84,3.684,3.684,0,0,1-1.12-1.4,4.167,4.167,0,0,1-.42-1.89,4.674,4.674,0,0,1,.42-2.1,3.456,3.456,0,0,1,1.26-1.4,6.753,6.753,0,0,1,1.75-.84,9.494,9.494,0,0,1,2.03-.42c.7-.07,1.4-.14,2.1-.14h1.96a2.165,2.165,0,0,0-.84-1.82,2.813,2.813,0,0,0-1.96-.7,4.471,4.471,0,0,0-1.96.42,5.323,5.323,0,0,0-1.61,1.26l-2.31-2.38a7.409,7.409,0,0,1,2.869-1.68,11.264,11.264,0,0,1,3.359-.56,8.271,8.271,0,0,1,3.149.49,4.558,4.558,0,0,1,1.96,1.4,5.847,5.847,0,0,1,1.05,2.31,14.235,14.235,0,0,1,.28,3.149v7.209h-3.849Zm-1.05-4.479a8.492,8.492,0,0,0-1.26.07,4.525,4.525,0,0,0-1.4.28,3.225,3.225,0,0,0-1.19.63,1.305,1.305,0,0,0-.49,1.12,1.231,1.231,0,0,0,.7,1.19,2.459,2.459,0,0,0,1.4.35,7.713,7.713,0,0,0,1.26-.14,3.657,3.657,0,0,0,1.05-.49,2.983,2.983,0,0,0,.77-.84,2.145,2.145,0,0,0,.28-1.19v-.91h-1.12Z" transform="translate(-60.686 -137.431)"/><path class="d" d="M227.1,137.99a2.63,2.63,0,1,1,.77,1.82A2.541,2.541,0,0,1,227.1,137.99Zm.35,4.479h4.409v14.207H227.45Z" transform="translate(-68.159 -134.49)"/><path class="d" d="M253.067,156.346h-4.059v-1.89h-.07a3.488,3.488,0,0,1-.7.77,4.968,4.968,0,0,1-.98.7,5.252,5.252,0,0,1-1.26.56,4.85,4.85,0,0,1-1.4.21,7.489,7.489,0,0,1-2.869-.56,6.121,6.121,0,0,1-2.24-1.54,6.391,6.391,0,0,1-1.4-2.31,8.106,8.106,0,0,1-.49-2.939,9.817,9.817,0,0,1,.42-2.869,7.054,7.054,0,0,1,1.26-2.38,6.684,6.684,0,0,1,2.03-1.68,5.617,5.617,0,0,1,2.729-.63,8.031,8.031,0,0,1,2.59.42,4.063,4.063,0,0,1,1.96,1.47h.07V134.3h4.409Zm-4.059-7.069a3.553,3.553,0,0,0-.91-2.59,3.912,3.912,0,0,0-5.179,0,4.14,4.14,0,0,0,0,5.179,3.912,3.912,0,0,0,5.179,0A3.665,3.665,0,0,0,249.008,149.277Z" transform="translate(-71.31 -134.16)"/><path class="d" d="M277.927,157.078a7.106,7.106,0,0,1-2.659,2.1,7.819,7.819,0,0,1-3.359.7,8.908,8.908,0,0,1-3.079-.56,7.474,7.474,0,0,1-2.52-1.47,7.683,7.683,0,0,1-1.68-8.538,8.15,8.15,0,0,1,1.68-2.38,7.474,7.474,0,0,1,2.52-1.47,8.908,8.908,0,0,1,3.079-.56,5.785,5.785,0,0,1,2.729.56,5.686,5.686,0,0,1,2.1,1.47,6.033,6.033,0,0,1,1.33,2.38,10.516,10.516,0,0,1,.49,3.079v1.4H268.409a4.136,4.136,0,0,0,1.12,2.03,3.282,3.282,0,0,0,2.17.77,3.084,3.084,0,0,0,1.82-.49,5.606,5.606,0,0,0,1.33-1.26Zm-3.709-6.229a2.533,2.533,0,0,0-.7-1.89,2.749,2.749,0,0,0-1.96-.77,3.39,3.39,0,0,0-1.26.21,2.935,2.935,0,0,0-.98.63,2.414,2.414,0,0,0-.63.84,5.154,5.154,0,0,0-.28.98h5.809Z" transform="translate(-79.234 -137.341)"/><path class="d" d="M288.7,162.07a3.515,3.515,0,0,1,.14-.84,2.458,2.458,0,0,1,1.19-1.19,1.775,1.775,0,0,1,.84-.14,3.513,3.513,0,0,1,.84.14,2.458,2.458,0,0,1,1.19,1.19,1.776,1.776,0,0,1,.14.84,3.513,3.513,0,0,1-.14.84,2.458,2.458,0,0,1-1.19,1.19,1.775,1.775,0,0,1-.84.14,3.513,3.513,0,0,1-.84-.14,2.458,2.458,0,0,1-1.19-1.19A3.512,3.512,0,0,1,288.7,162.07Z" transform="translate(-86.647 -141.843)"/><path class="d" d="M308.578,149.909a2.527,2.527,0,0,0-.91-.77,2.745,2.745,0,0,0-1.26-.28,3.482,3.482,0,0,0-2.59.98,4.14,4.14,0,0,0,0,5.179,3.482,3.482,0,0,0,2.59.98,2.417,2.417,0,0,0,1.26-.35,4.819,4.819,0,0,0,.91-.77l2.869,3.009a5.663,5.663,0,0,1-2.38,1.47,9.139,9.139,0,0,1-2.659.42,8.908,8.908,0,0,1-3.079-.56,7.474,7.474,0,0,1-2.52-1.47,7.683,7.683,0,0,1-1.68-8.538,8.15,8.15,0,0,1,1.68-2.38,7.474,7.474,0,0,1,2.52-1.47,8.908,8.908,0,0,1,3.079-.56,9.138,9.138,0,0,1,2.659.42,5.264,5.264,0,0,1,2.38,1.47Z" transform="translate(-89.588 -137.311)"/><path class="d" d="M324.949,134.24v9.8h.07a2.621,2.621,0,0,1,.49-.84,2.8,2.8,0,0,1,.84-.7,4.716,4.716,0,0,1,2.66-.77,5.638,5.638,0,0,1,2.66.49,4.494,4.494,0,0,1,1.61,1.4,6.839,6.839,0,0,1,.77,2.1,15.764,15.764,0,0,1,.21,2.66v7.839h-4.409v-6.929a7.6,7.6,0,0,0-.07-1.26,3.3,3.3,0,0,0-.28-1.19,1.792,1.792,0,0,0-.7-.91,2.318,2.318,0,0,0-1.33-.35,2.776,2.776,0,0,0-1.4.28,2.413,2.413,0,0,0-.84.84,3,3,0,0,0-.35,1.12,8.468,8.468,0,0,0-.07,1.33v7.069H320.4V134.1h4.549Z" transform="translate(-96.161 -134.1)"/></g></g></g></svg>