<svg xmlns="http://www.w3.org/2000/svg" width="30" height="30" viewBox="0 0 30 30"><path d="M10.814,15.346A.938.938,0,0,1,9.4,16.352L7.017,14.86l-2.98,4.77A1.878,1.878,0,0,0,5.626,22.5H8.672a.7.7,0,0,1,.7.7v2.344a.7.7,0,0,1-.7.7H5.632a5.629,5.629,0,0,1-4.77-8.606L3.84,12.875,1.453,11.384a.938.938,0,0,1,.286-1.708L8.2,8.184a.937.937,0,0,1,1.124.7l1.491,6.459ZM16.589,4.628,19.008,8.5,16.621,9.991a.938.938,0,0,0,.286,1.708l6.459,1.491a.937.937,0,0,0,1.124-.7l1.491-6.459a.938.938,0,0,0-1.41-1.006l-2.384,1.49L19.77,2.641a5.628,5.628,0,0,0-9.54,0L9.177,4.327A.7.7,0,0,0,9.4,5.3l1.987,1.242a.7.7,0,0,0,.969-.224L13.41,4.629A1.877,1.877,0,0,1,16.589,4.628ZM29.138,17.644l-1.612-2.582a.7.7,0,0,0-.969-.224l-1.984,1.24a.7.7,0,0,0-.224.969l1.615,2.585a1.878,1.878,0,0,1-1.59,2.869H18.75V19.689a.938.938,0,0,0-1.6-.663l-4.687,4.686a.937.937,0,0,0,0,1.326l4.687,4.687a.938.938,0,0,0,1.6-.663V26.25h5.618A5.629,5.629,0,0,0,29.138,17.644Z" transform="translate(0)"/></svg>