<svg xmlns="http://www.w3.org/2000/svg" width="30" height="34.286" viewBox="0 0 30 34.286"><path d="M29.2,32.143H27.857V1.607A1.607,1.607,0,0,0,26.25,0H3.75A1.607,1.607,0,0,0,2.143,1.607V32.143H.8a.8.8,0,0,0-.8.8v1.339H30V32.946A.8.8,0,0,0,29.2,32.143ZM8.571,5.089a.8.8,0,0,1,.8-.8h2.679a.8.8,0,0,1,.8.8V7.768a.8.8,0,0,1-.8.8H9.375a.8.8,0,0,1-.8-.8Zm0,6.429a.8.8,0,0,1,.8-.8h2.679a.8.8,0,0,1,.8.8V14.2a.8.8,0,0,1-.8.8H9.375a.8.8,0,0,1-.8-.8Zm3.482,9.911H9.375a.8.8,0,0,1-.8-.8V17.946a.8.8,0,0,1,.8-.8h2.679a.8.8,0,0,1,.8.8v2.679A.8.8,0,0,1,12.054,21.429Zm5.089,10.714H12.857V26.518a.8.8,0,0,1,.8-.8h2.679a.8.8,0,0,1,.8.8Zm4.286-11.518a.8.8,0,0,1-.8.8H17.946a.8.8,0,0,1-.8-.8V17.946a.8.8,0,0,1,.8-.8h2.679a.8.8,0,0,1,.8.8Zm0-6.429a.8.8,0,0,1-.8.8H17.946a.8.8,0,0,1-.8-.8V11.518a.8.8,0,0,1,.8-.8h2.679a.8.8,0,0,1,.8.8Zm0-6.429a.8.8,0,0,1-.8.8H17.946a.8.8,0,0,1-.8-.8V5.089a.8.8,0,0,1,.8-.8h2.679a.8.8,0,0,1,.8.8Z"/></svg>