<svg xmlns="http://www.w3.org/2000/svg" width="30" height="26.667" viewBox="0 0 30 26.667"><path d="M31.167,6H7.833A3.332,3.332,0,0,0,4.5,9.333v20a3.332,3.332,0,0,0,3.333,3.333H31.167A3.343,3.343,0,0,0,34.5,29.333v-20A3.343,3.343,0,0,0,31.167,6ZM17.833,24.333h-2.5V21H12v3.333H9.5v-10H12V18.5h3.333V14.333h2.5ZM29.5,22.667a1.672,1.672,0,0,1-1.667,1.667h-1.25v2.5h-2.5v-2.5h-1.25a1.672,1.672,0,0,1-1.667-1.667V16a1.672,1.672,0,0,1,1.667-1.667h5A1.672,1.672,0,0,1,29.5,16Zm-5.833-.833H27v-5H23.667Z" transform="translate(-4.5 -6)"/></svg>