<svg xmlns="http://www.w3.org/2000/svg" width="20" height="35.346" viewBox="0 0 20 35.346"><path d="M21.458,21.94c-4.458-1.159-5.891-2.347-5.891-4.212,0-2.14,1.973-3.643,5.3-3.643,3.5,0,4.791,1.669,4.909,4.124h4.34a7.817,7.817,0,0,0-6.3-7.482v-4.3H17.924v4.242c-3.81.835-6.873,3.289-6.873,7.089,0,4.536,3.76,6.794,9.229,8.11,4.919,1.178,5.891,2.9,5.891,4.742,0,1.345-.952,3.505-5.3,3.505-4.045,0-5.646-1.816-5.852-4.124h-4.33c.245,4.3,3.456,6.706,7.236,7.521v4.261h5.891V37.551c3.819-.736,6.873-2.946,6.873-6.981,0-5.557-4.772-7.462-9.229-8.63Z" transform="translate(-10.688 -6.427)"/></svg>