<svg xmlns="http://www.w3.org/2000/svg" width="30" height="33.708" viewBox="0 0 30 33.708"><path d="M19.861,3.864l6.931,4a3,3,0,1,1,2.886,4.987v8a3.006,3.006,0,1,1-2.956,4.92l-6.889,3.978a3.006,3.006,0,1,1-5.735.1l-6.933-4a3.006,3.006,0,1,1-2.882-5v-8A3.005,3.005,0,1,1,6.49,7.329a2.923,2.923,0,0,1,.674.529l6.935-4a3,3,0,1,1,5.761.008ZM19.137,5.1a1.114,1.114,0,0,1-.081.081L28.13,20.893c.037-.013.079-.022.115-.032V12.846a3,3,0,0,1-2.188-3.635c.008-.034.017-.069.027-.1L19.137,5.1ZM14.9,5.178l-.084-.084L7.872,9.1A3,3,0,0,1,5.82,12.815c-.037.011-.072.02-.107.029v8.017l.118.032L14.906,5.177h0Zm2.916.712a3.029,3.029,0,0,1-1.674,0L7.071,21.605a3.047,3.047,0,0,1,.843,1.462H26.047a3.021,3.021,0,0,1,.847-1.466ZM19.2,28.681,26.1,24.7c-.021-.066-.038-.132-.053-.2H7.91l-.029.117,6.937,4.006a3.01,3.01,0,0,1,4.386.063Z" transform="translate(-1.98)"/></svg>