<svg xmlns="http://www.w3.org/2000/svg" width="30" height="34.286" viewBox="0 0 30 34.286"><path d="M30.213,14.785H8.784A4.287,4.287,0,0,0,4.5,19.071v2.143a4.265,4.265,0,0,0,2.143,3.691v7.023h8.571v4.286h8.571V31.928h8.571V24.905A4.264,4.264,0,0,0,34.5,21.214V19.071A4.288,4.288,0,0,0,30.213,14.785Zm-17.143,15H8.784V21.214H6.642V19.071a2.144,2.144,0,0,1,2.143-2.143h2.736a4.238,4.238,0,0,0-.593,2.143v4.286a4.265,4.265,0,0,0,2.143,3.691v2.737ZM23.784,25.5V21.214H21.642V34.071H17.356V21.214H15.213V25.5a2.143,2.143,0,0,1-2.143-2.143V19.071a2.144,2.144,0,0,1,2.143-2.143h8.571a2.143,2.143,0,0,1,2.143,2.143v4.286A2.142,2.142,0,0,1,23.784,25.5Zm8.571-4.286H30.213v8.571H25.927V27.048a4.264,4.264,0,0,0,2.143-3.691V19.071a4.238,4.238,0,0,0-.594-2.143h2.737a2.143,2.143,0,0,1,2.143,2.143ZM14.667,12.554a6.348,6.348,0,0,0,9.664,0,4.28,4.28,0,1,0,1.417-5.648,6.411,6.411,0,0,0-12.5,0,4.289,4.289,0,1,0,1.417,5.648Zm13.4-4.2A2.143,2.143,0,1,1,25.927,10.5,2.141,2.141,0,0,1,28.07,8.357ZM19.5,4.071a4.286,4.286,0,1,1-4.286,4.286A4.288,4.288,0,0,1,19.5,4.071Zm-8.571,8.571A2.143,2.143,0,1,1,13.07,10.5,2.142,2.142,0,0,1,10.927,12.642Z" transform="translate(-4.499 -1.928)"/></svg>