<svg xmlns="http://www.w3.org/2000/svg" width="27" height="32.063" viewBox="0 0 27 32.063"><path d="M19.5,3C12.041,3,6,3.844,6,9.75V25.781a5.913,5.913,0,0,0,5.906,5.906L9.375,34.219v.844h20.25v-.844l-2.531-2.531A5.913,5.913,0,0,0,33,25.781V9.75C33,3.844,26.959,3,19.5,3ZM11.906,28.313a2.531,2.531,0,1,1,2.531-2.531A2.528,2.528,0,0,1,11.906,28.313Zm5.906-10.125H9.375V9.75h8.437Zm9.281,10.125a2.531,2.531,0,1,1,2.531-2.531A2.528,2.528,0,0,1,27.094,28.313Zm2.531-10.125H21.187V9.75h8.438Z" transform="translate(-6 -3)"/></svg>