<?xml version="1.0" encoding="utf-8"?>
<!-- Generator: Adobe Illustrator 19.2.1, SVG Export Plug-In . SVG Version: 6.00 Build 0)  -->
<svg version="1.1" id="Layer_1" xmlns="http://www.w3.org/2000/svg" xmlns:xlink="http://www.w3.org/1999/xlink" x="0px" y="0px"
	 viewBox="-321.8 275.6 30.7 44.2" enable-background="new -321.8 275.6 30.7 44.2" xml:space="preserve">
<g>
	
		<path fill="none" stroke="#FFFFFF" stroke-width="1.3287" stroke-linecap="round" stroke-linejoin="round" stroke-miterlimit="10" d="
		M-306.4,290.9c-8,0-14.6,6.3-14.6,14c0,7.7,6.5,14,14.6,14c8,0,14.6-6.3,14.6-14C-291.9,297.2-298.4,290.9-306.4,290.9z
		 M-303.6,302.5c0,0.2-0.2,0.4-0.4,0.6c-0.2,0.3-0.5,0.7-0.6,1.2c-0.2,0.8-0.1,1.8-0.1,2.8c0.1,0.9,0.1,1.9-0.1,2.5
		c-0.2,0.6-0.9,0.9-1.5,0.9h0c-0.3,0-1.1-0.1-1.4-0.9c-0.3-0.7-0.2-1.6-0.1-2.5c0.1-0.9,0.2-1.8,0-2.6c-0.1-0.6-0.5-1.1-0.7-1.5
		c-0.1-0.1-0.2-0.3-0.3-0.4c-0.2-0.8-0.1-1.5,0.4-2.2c0.4-0.6,1-0.9,1.7-1.1c0.2,0,0.4,0,0.5,0c0.8,0,1.5,0.3,2,0.9
		C-303.6,300.8-303.4,301.7-303.6,302.5z"/>
	
		<path fill="none" stroke="#FFFFFF" stroke-width="1.3287" stroke-linecap="round" stroke-linejoin="round" stroke-miterlimit="10" d="
		M-310.4,286.6c1.5-2.3,2.8-4,4.5-4.8c2.1-1,4.3-0.9,6.2,0.3c0.1,0,0.1,0.1,0.2,0.1c1.8,1.2,2.8,3.2,2.7,5.4
		c-0.1,1.3-0.7,2.6-1.6,3.9c1.4,0.8,2.6,1.7,3.7,2.8c0.5-0.7,1-1.4,1.3-1.8c2.7-4.4,1.5-10.3-2.7-13.5c-0.3-0.2-0.5-0.4-0.8-0.6
		c-2.4-1.6-5-2.2-7.8-1.8c-2.8,0.4-5.5,1.8-7.1,3.9c-0.6,0.7-2.4,3.4-2.8,4l3.9,2.5C-310.6,286.8-310.5,286.7-310.4,286.6z"/>
</g>
</svg>
