<?xml version="1.0" encoding="utf-8"?>
<!-- Generator: Adobe Illustrator 22.1.0, SVG Export Plug-In . SVG Version: 6.00 Build 0)  -->
<svg version="1.1" id="Calque_1" xmlns="http://www.w3.org/2000/svg" xmlns:xlink="http://www.w3.org/1999/xlink" x="0px" y="0px"
	 viewBox="0 0 116 118.4" style="enable-background:new 0 0 116 118.4;" xml:space="preserve">
<style type="text/css">
	.st0{fill:#8C8C8B;}
	.st1{fill:#FFFFFF;}
	.st2{fill:#B9B8BD;}
</style>
<rect x="9" y="60.5" class="st0" width="107" height="6"/>
<path class="st1" d="M65,8.8V5.7c2.6-0.4,4.5-1.5,4.5-2.8C69.5,1.3,66.6,0,63,0s-6.5,1.3-6.5,2.9c0,1.3,1.9,2.4,4.5,2.8v3.1
	C34.6,10,13.5,32.2,13.5,59.5H113C113,32,91.7,9.7,65,8.8z"/>
<path class="st1" d="M91,80.7c0-2.2-1.8-4-4-4c-0.4,0-0.8,0.1-1.2,0.2l0,0L85.6,77c-0.1,0-0.2,0.1-0.3,0.1L77,80.5
	c-5.5,2.1-11.5,4.9-15.5,6.5c-5,2-8,2-15,2s-1.5-4.5,1-5l8-1.5l0,0c1.7-0.1,2.9-1.6,2.8-3.2c-0.1-1.7-1.6-2.9-3.2-2.8H41
	c-15,0-18,2-18,2l-7,8v23c1.9-1.1,3.5-2.4,5-4c3-3,6-2,6-2h24c7,0,9-1,9-1l26.2-16.6l3-1.8l0,0C90.3,83.3,91,82,91,80.7z"/>
<path class="st2" d="M16,87.2V98c0,0,5-2.1,9.5-3.4s13.6-0.4,20.7,0c7.1,0.3,17.1-1.6,17.1-1.6l21.2-12.8l4.7-2.8
	c-1.7-1.1-3.3-0.4-3.3-0.4l0,0L85.6,77c-0.1,0-0.2,0.1-0.3,0.1L77,80.5c-5.5,2.1-11.5,4.9-15.5,6.5c-5,2-8,2-15,2s-1.5-4.5,1-5
	l8-1.5l0,0c1.7-0.1,2.9-1.6,2.8-3.2c-0.1-1.7-1.6-2.9-3.2-2.8H41c-15,0-18,2-18,2l-7,8"/>
<path class="st1" d="M0,80.4v38h15v-38H0z M4,116.4c-1.1,0-2-0.9-2-2s0.9-2,2-2s2,0.9,2,2S5.1,116.4,4,116.4z M10,116.4
	c-1.1,0-2-0.9-2-2s0.9-2,2-2s2,0.9,2,2S11.1,116.4,10,116.4z"/>
<path class="st0" d="M94.8,59.5H113c0,0,2.4-45.7-46.6-50.7C66.4,8.7,98.4,18.4,94.8,59.5z"/>
<path class="st2" d="M66.4,8.7c0,0,31.9,9.7,28.3,50.7h-9.1C85.6,59.5,94.3,31,66.4,8.7z"/>
</svg>
