<svg xmlns="http://www.w3.org/2000/svg" width="111.102" height="130.778" viewBox="0 0 111.102 130.778"><g transform="translate(-1092.6 -165.312)"><g transform="translate(1092.6 165.312)"><path d="M1189.392,229.334v7.4h-29.57v1.709q0,28,0,56.006c0,.545-.05,1.092-.078,1.637h-7.35l.022-56.129v-3.168h-29.588v-.3c.021-.01.044-.024.063-.035l11.632-6.715a5.231,5.231,0,0,0,.55-.364q6.379,0,12.759-.016v-.94h8.364v-36.5h-9.115v.253h-.009v24.331h.035v.629h-5.866V165.312h5.831q0,11.4,0,22.81h12.921v40.3h6.843v.915Z" transform="translate(-1078.289 -165.312)" fill="#618226"/><path d="M1092.693,280.255c-.031-.5-.088-1.006-.088-1.509q-.007-39.206,0-78.412v-1.578h7.41v48.11H1140.8v1.6q0,15.138,0,30.275c0,.505.027,1.012.041,1.518h-7.6a4.772,4.772,0,0,0,.114-.741q.009-12.152,0-24.3a4.683,4.683,0,0,0-.142-.818h-33.17v25.863Z" transform="translate(-1092.6 -149.477)" fill="#618226"/><path d="M1109.1,179.193a11.891,11.891,0,1,1-11.937,11.856A11.855,11.855,0,0,1,1109.1,179.193Z" transform="translate(-1090.441 -158.739)" fill="#618226"/></g><path d="M1152.02,273.659c0,3.368-1.7,5.536-4.852,6.617h-2.281c-3.631-1.4-4.78-4.186-4.739-7.9.1-9.165.032-18.332.032-27.5v-1.655h-1.6c-10.265,0-20.529-.018-30.793.018a8.646,8.646,0,0,1-5.011-1.447,5.343,5.343,0,0,1-2.648-4.73q.033-16.157,0-32.314a5.12,5.12,0,0,1,2.4-4.478,9.751,9.751,0,0,1,5.9-1.555c.122.006.242.013.363.024.049-.01.1-.016.144-.024a9.729,9.729,0,0,1,4.065,1.052l.56.324,17.068,9.852,9.258-5.346a5.383,5.383,0,0,1,5.934,8.96,5.232,5.232,0,0,1-.55.364l-11.632,6.715c-.019.012-.043.025-.063.035v-.231a5.343,5.343,0,0,1-2,.88,5.27,5.27,0,0,1-1.13.122,5.368,5.368,0,0,1-2.689-.722l-11.532-6.659-.507-.292v.292q0,5.981.007,11.955v1.587h1.518q13.626,0,27.247,0c4.5,0,7.512,2.9,7.524,7.4Q1152.064,254.335,1152.02,273.659Z" transform="translate(3.564 15.813)" fill="#618226"/><path d="M1123.465,213.46v.231a5.326,5.326,0,0,1-2,.648A5.343,5.343,0,0,0,1123.465,213.46Z" transform="translate(13.669 22.798)" fill="#618226"/></g></svg>