<svg xmlns="http://www.w3.org/2000/svg" width="55.77" height="134.391" viewBox="0 0 55.77 134.391"><g transform="translate(-708.891 -42.376)"><g transform="translate(708.891 42.375)"><ellipse cx="10.548" cy="12.746" rx="10.548" ry="12.746" transform="translate(16.096 0.001)" fill="#618226"/><rect width="20.803" height="57.945" rx="3.671" transform="translate(16.382 32.936)" fill="#618226"/><rect width="10.046" height="52.857" rx="5.023" transform="translate(16.382 81.534)" fill="#618226"/><path d="M2242.618,1386.65h0c-1.29,2.967-4.327,4.108-6.783,2.548l-20.227-12.847c-2.456-1.56-3.4-5.23-2.109-8.2h0c1.291-2.968,4.328-4.108,6.783-2.549l20.228,12.847C2242.964,1380.013,2243.909,1383.683,2242.618,1386.65Z" transform="translate(-2187.54 -1285.64)" fill="#618226"/><rect width="12.139" height="33.722" rx="6.069" transform="translate(22.048 105.235) rotate(-90)" fill="#618226"/><path d="M2186.891,1345.688h0a3.707,3.707,0,0,0,5.791-1.109L2207,1320.764a5.715,5.715,0,0,0-.918-7h0a3.706,3.706,0,0,0-5.79,1.109l-14.315,23.816A5.715,5.715,0,0,0,2186.891,1345.688Z" transform="translate(-2184.536 -1279.999)" fill="#618226"/><rect width="9.456" height="28.567" rx="4.728" transform="translate(0 67.585) rotate(-90)" fill="#618226"/><path d="M2239,1345.688h0a3.706,3.706,0,0,1-5.79-1.109l-14.315-23.815a5.716,5.716,0,0,1,.918-7h0a3.706,3.706,0,0,1,5.791,1.109l14.315,23.816A5.714,5.714,0,0,1,2239,1345.688Z" transform="translate(-2188.1 -1279.999)" fill="#618226"/><rect width="9.456" height="28.567" rx="4.728" transform="translate(24.683 67.585) rotate(-90)" fill="#618226"/></g></g></svg>