<svg xmlns="http://www.w3.org/2000/svg" width="136.313" height="124.457" viewBox="0 0 136.313 124.457"><g transform="translate(-963.177 -162.364)"><path d="M1029.967,210.864l6.924,6.9-7.52,7.52-3.219-3.1c-7.163-6.877-14.526-13.95-21.695-20.843l-4.346-4.143a.062.062,0,0,0-.081,0q-3.616,3.616-6.94,7.409c-11.081,12.615-19.968,26.631-28.629,41.142-.275.453-.539.907-.81,1.36a.594.594,0,0,1-.381.347c-.368-1.319.464-3.938.616-5.406q.375-3.455.952-6.883a113.725,113.725,0,0,1,3.169-13.518,98.316,98.316,0,0,1,18.235-34.707c.449-.539.9-1.08,1.356-1.61a.057.057,0,0,0-.005-.081l-2.747-2.619,8.4-8.2,2.395,2.354a.051.051,0,0,0,.076.005q1.614-1.536,3.3-3.032c4.382-3.892,9.2-7.305,13.849-10.882a2.544,2.544,0,0,1,1.844-.479c7.842,1.7,15.658,3.465,23.484,5.222a3.284,3.284,0,0,1,.474.28c-1.972,1.071-3.832,2.023-5.641,3.067a142.181,142.181,0,0,0-24.711,18.2.054.054,0,0,0,0,.082l3.751,3.694c.015-.016.031-.036.045-.05q2.11,2.116,4.173,4.2l.286.286c4.554,4.576,8.977,9.024,13.328,13.4Z" transform="translate(0 0)" fill="#618226"/><path d="M1076.009,269a5.151,5.151,0,0,1-7.378-.066q-21.116-22.025-42.258-44.067l-5.655-5.461,7.373-7.373,3.006,3,3.8,3.791q20.7,20.811,41.111,41.33A6.272,6.272,0,0,1,1076.009,269Z" transform="translate(18.884 16.3)" fill="#618226"/><path d="M1094.122,203.808a.216.216,0,0,0-.045.046q-5.9,5.885-11.958,11.927a3.824,3.824,0,0,1-3.954.525c-3.006-3-6.078-6.063-9.155-9.141q-1.819-1.827-3.643-3.652h-.005l-.189.173-4.03,3.8q-7.591,7.2-15.137,14.465l-18.949,18.52c-14.081,14.016-27.878,28.379-41.09,43.343a5.43,5.43,0,0,1-7.949.2,6.032,6.032,0,0,1,.032-8.492q21.558-21.636,43.149-43.323l.011.011,18.734-18.735-.052-.05q6.8-6.818,13.569-13.619l3.959-3.872.187-.189c-1.649-1.651-3.286-3.291-4.932-4.942l-.194-.194-10.678-10.49a3.83,3.83,0,0,1,.611-4.592l7.98-7.978,4.829-4.468a3.838,3.838,0,0,1,4.245.764l34.61,34.611A3.834,3.834,0,0,1,1094.122,203.808Z" transform="translate(4.302 0.126)" fill="#618226"/></g></svg>