<svg xmlns="http://www.w3.org/2000/svg" width="103.35" height="134.704" viewBox="0 0 103.35 134.704"><g transform="translate(-1143.225 -2605.361)"><g transform="translate(1143.225 2649.837)"><path d="M1246.078,2736.032c-3.593-2.565-7.169-5.164-10.814-7.655a1.619,1.619,0,0,1-.8-1.882,39.467,39.467,0,0,0-.558-16.45l11.972-9.589c-3.526-5.758-7-11.425-10.474-17.1l-13.974,6.288a42.643,42.643,0,0,0-6.507-4.657l-11.182,18.655a18.817,18.817,0,1,1-21.177,2.293l-11.353-18.466c-1.158.855-2.286,1.774-3.375,2.743a2,2,0,0,1-1.682.332c-4.071-1.493-8.115-3.077-12.152-4.667-.7-.274-1.237-.547-1.728.371-2.963,5.544-5.967,11.059-9.044,16.75.479.365.918.724,1.374,1.049,2.641,1.9,5.185,3.961,7.962,5.631,2.458,1.471,3.177,3.135,2.6,6-.883,4.316-.2,8.7.659,12.989a1.394,1.394,0,0,1-.6,1.637c-1.853,1.466-3.688,2.955-5.535,4.432-1.864,1.494-3.74,2.984-5.593,4.467,3.548,5.809,7.017,11.47,10.446,17.08,4.345-1.945,8.581-3.811,12.777-5.746a1.826,1.826,0,0,1,2.264.347,36.911,36.911,0,0,0,13.385,7.175,1.6,1.6,0,0,1,1.284,1.574c.628,4.333,1.279,8.667,1.88,13.006.1.712.354.991,1.095.94,1.186-.069,2.372-.024,3.558-.059,4.721-.143,9.443-.374,14.158-.409,1.226-.012,1.448-.348,1.533-1.454.341-4.157.79-8.3,1.228-12.448.079-.718.2-1.42,1.106-1.745a37.653,37.653,0,0,0,13.494-8.272,1.594,1.594,0,0,1,1.369-.223q6.279,2.4,12.518,4.923c.7.28,1.061.285,1.448-.491.974-1.979,2.068-3.9,3.122-5.84,1.87-3.433,3.728-6.866,5.642-10.277C1246.757,2736.653,1246.529,2736.351,1246.078,2736.032Z" transform="translate(-1143.225 -2683.359)" fill="#618226"/></g><path d="M1237.655,2650.835a9.379,9.379,0,0,1,.136-2.9,35.047,35.047,0,0,1,1.51-7.22,34.124,34.124,0,0,1,8.993-14.1c3.972-3.859,9.575-6.471,14.83-8.062a68.107,68.107,0,0,1,14.74-2.316c2.907-.215,1.757,34.583-34.646,39.009,0,0-2.843.417-1.057-2.489s16.417-20.677,16.417-20.677-12.71,8.919-19.16,19.307C1239.418,2651.389,1238.159,2652.787,1237.655,2650.835Z" transform="translate(-40.549 -4.674)" fill="#618226"/><path d="M1220.937,2633.589a5.375,5.375,0,0,0,.708-1.5,19.954,19.954,0,0,0,1.174-4.04,19.461,19.461,0,0,0-.749-9.51,21.074,21.074,0,0,0-5.306-8.035,38.834,38.834,0,0,0-6.8-5.116c-1.406-.887-10.154,16.941,6.988,28.927,0,0,1.32.972,1.2-.97s-2.724-14.811-2.724-14.811,4.009,7.9,4.473,14.856C1219.9,2633.4,1220.16,2634.437,1220.937,2633.589Z" transform="translate(-27.19)" fill="#618226"/><path d="M1197.7,2663.281a7.494,7.494,0,0,0-.635-2.225,27.965,27.965,0,0,0-2.493-5.326,27.2,27.2,0,0,0-9.56-9.3c-3.788-2.268-8.614-3.269-12.983-3.542a54.29,54.29,0,0,0-11.861.9c-2.3.365,4.966,27.157,34.023,23.93,0,0,2.282-.2.365-2.125s-16.524-13.041-16.524-13.041,11.5,4.6,18.4,11.476C1196.436,2664.033,1197.668,2664.887,1197.7,2663.281Z" transform="translate(-7.113 -16.103)" fill="#618226"/></g></svg>