<svg xmlns="http://www.w3.org/2000/svg" width="128.808" height="80.892" viewBox="0 0 128.808 80.892"><g transform="translate(-619.311 -147)"><g transform="translate(713.211 158.792)"><path d="M780.6,237.624c-2.325.116-4.658.12-6.992.144-2.265.025-4.53,0-6.795,0v-.156c-4.394,0-8.792.035-13.187-.012-3.189-.036-4.242-1.212-4.106-4.422.18-4.19.917-8.316,1.465-12.462.4-3.026.408-6.1.977-9.113a19.5,19.5,0,0,1,.608-3.505c.993-2.63-.752-4.715-1.649-6.916-1.6-3.934-1.429-5.238,1.6-8.292,2.493-2.513,5.478-4.49,7.808-7.183.3-.348.876-.628.928-1,.392-2.793,2.465-2.181,4.246-2.193.136,0,.268.008.4,0,3.085-.144,5.731-.3,7.776,3.23,1.673,2.886,4.927,4.886,7.588,7.155,2.745,2.337,3.389,5.227,1.585,8.116-2.418,3.874-1.445,7.776-.969,11.741.644,5.4,1.357,10.8,1.985,16.2.157,1.321.2,2.645.449,3.962C784.826,235.635,783.346,237.492,780.6,237.624Z" transform="translate(-749.506 -168.679)" fill="#618226"/><path d="M772.07,169.749c-2.184.578-3.068-.316-2.718-2.517.02-.129-.035-.275,0-.4.245-.841-1.8-1.553-.024-2.555,1.626-.917,3.185-1.33,4.867-.432.964.514,2.477.991.82,2.477-.186.167-.178.647-.129.961C775.243,169.57,774.2,170.271,772.07,169.749Z" transform="translate(-754.828 -163.349)" fill="#618226"/><path d="M776.6,178.094c-.18.9-.7.989-1.409.989-2.521-.008-5.038-.036-7.556,0-1.036.017-1.344-.4-1.388-1.412-.184-4.01-.216-4.006,3.706-4.01h1.589c.532,0,1.06,0,1.592,0C776.707,173.637,777.331,174.469,776.6,178.094Z" transform="translate(-754.156 -166.225)" fill="#618226"/></g><g transform="translate(619.311 147)"><path d="M648.9,228.474a12.9,12.9,0,0,1-.977,4.643,5.824,5.824,0,0,1-5.527,3.558c-2.8.052-5.6.012-8.4.012-2.2,0-4.406-.1-6.6.02-5.406.3-7.375-2.545-7.912-7.323-.452-4.014.669-7.936,1.008-11.906.248-2.9,1.013-5.742,1.365-8.648.424-3.481,1.164-6.927,1.812-10.377.672-3.569,1.389-7.127,2.113-10.685.384-1.877.812-3.75,1.256-5.615a3.529,3.529,0,0,1,3.69-2.773c2.581-.036,5.167.192,7.744.392A2.662,2.662,0,0,1,641.148,182c.336,1.557.8,3.085,1.2,4.626a3.389,3.389,0,0,1-.849,2.762c-1.112,1.749-.936,2.581.793,3.7,1.949,1.264,2.113,2.125.776,4.01-1.388,1.957-1.124,3.246.969,4.49a2.837,2.837,0,0,1,1.493,2.021c.721,5.463,2.105,10.821,2.537,16.328C648.291,222.787,649.011,225.569,648.9,228.474Z" transform="translate(-619.33 -156.025)" fill="#618226"/><path d="M644.262,154.941a27.467,27.467,0,0,0-4.958,3.6c-.34.26-.9.432-.872,1,.1,1.944-1.193,1.861-2.526,1.812-1.533-.056-3.069-.032-4.6-.068-1.069-.028-2.185.284-2.749-1.228-.281-.741-1.409-.516-2.2-.524-1.724-.025-3.47.292-5.166-.256-.728-.237-1.749-.208-1.7-1.317.048-1.272-.721-2.861.628-3.726a32.03,32.03,0,0,0,5.4-4.89,7.115,7.115,0,0,1,5.5-2.3c2.333.048,4.666.008,7,.008v-.016c2.665,0,5.334.024,8-.012.9-.016,1.264.237,1.352,1.213C647.623,151.1,647.372,153.5,644.262,154.941Z" transform="translate(-619.311 -147.007)" fill="#618226"/><path d="M642.713,173.427c-.036,1.212-.268,1.8-1.661,1.764-2.718-.088-5.442-.012-8.164.028-1.072.017-1.468-.372-1.517-1.512-.232-5.467-.268-5.467,5.079-5.639.332-.008.664,0,1,0C642.9,168.012,642.873,168.012,642.713,173.427Z" transform="translate(-622.652 -152.871)" fill="#618226"/><path d="M663.2,150.421c-.136.648.545,1.967-1.175,2.188-1.363.175-2.242-.126-2.167-1.717.035-.731.027-1.463.05-2.2.032-1.046.306-1.7,1.623-1.7s1.556.752,1.66,1.738C663.244,149.2,663.2,149.669,663.2,150.421Z" transform="translate(-630.615 -147)" fill="#618226"/></g><g transform="translate(654.451 148.57)"><path d="M717.517,198.68a57.361,57.361,0,0,0-9.532-16.34c-3.65-4.21-7.776-7.427-13.847-7.188-5.123.2-10.261.048-15.392-.008-1.4-.016-1.925.428-1.724,1.881.388,2.77-.4,5.39-1.248,7.988-2.057,6.259-4.883,12.233-6.34,18.724a53,53,0,0,0-1.208,16.424,22.5,22.5,0,0,0,3.766,11.377c1.8,2.513,3.774,4.274,7.323,4.062,5.447-.328,10.925-.088,16.392-.088v.012c5.8,0,11.6-.1,17.392.052a5.3,5.3,0,0,0,4.862-2.345,18.262,18.262,0,0,0,3.541-8.921C722.491,215.435,720.846,206.9,717.517,198.68Zm-3.878,16.44a5.853,5.853,0,0,1-6.019.02c-4.17-2.149-5.294-6.131-6.023-10.3a15.147,15.147,0,0,1-.025-2.749,15.189,15.189,0,0,1,1.557-8.324c.724-1.448,1.7-2.585,3.538-2.241,1.741.324,2.145,1.653,2.425,3.2.288,1.592-.268,3.142.107,4.754.6,2.585,2.366,4.366,3.906,6.319a9.183,9.183,0,0,1,2.237,3.658C715.8,211.646,715.768,213.8,713.639,215.119Z" transform="translate(-668.034 -156.415)" fill="#618226"/><path d="M699,169.626c-.208.909-1.052.849-1.8.845-2.533-.012-5.062,0-7.6,0s-5.067-.025-7.6.008c-1.156.016-1.729-.4-1.672-1.629.06-1.4.024-2.8,0-4.2a1.762,1.762,0,0,1,1.9-2.049c5.13-.036,10.261-.02,15.391-.032.5,0,.961.064,1.14.593A11.655,11.655,0,0,1,699,169.626Z" transform="translate(-671.462 -152.91)" fill="#618226"/><path d="M697.336,157.006c.036.9-.624.86-1.233.86-1.66,0-3.321,0-4.982,0v-.02c-1.729,0-3.458-.032-5.183.012-1.036.025-1.453-.444-1.42-1.428.063-1.729.063-3.458.192-5.179a1.939,1.939,0,0,1,2.041-2c2.657-.036,5.315-.036,7.972-.076,1.432-.024,1.945.973,2.273,2.081C697.544,153.14,697.26,155.089,697.336,157.006Z" transform="translate(-672.629 -149.177)" fill="#618226"/></g></g></svg>