<svg xmlns="http://www.w3.org/2000/svg" width="126.683" height="117.675" viewBox="0 0 126.683 117.675"><g transform="translate(-657 -607.882)"><path d="M693.93,607.909c6.681,0,12.98-.11,19.268.119.941.034,2.122,1.5,2.687,2.571,6.738,12.793,13.442,25.6,19.99,38.5a4.744,4.744,0,0,0,5.02,3c9.534-.142,19.075-.168,28.609.015A14.479,14.479,0,0,1,783.592,665.2,14.631,14.631,0,0,1,773.1,680.71a21.919,21.919,0,0,1-5.784.613c-8.5.063-17.013.223-25.506-.069-3.425-.118-5.009,1.112-6.486,4.055-6.282,12.51-12.889,24.855-19.25,37.327-1.078,2.109-2.282,3-4.719,2.917-5.71-.191-11.43-.061-17.44-.061,2.906-14.841,5.722-29.219,8.635-44.1-7.014,0-13.63-.063-20.239.086-.754.016-1.644,1.109-2.194,1.9-2.5,3.577-4.842,7.261-7.368,10.817a4.25,4.25,0,0,1-2.547,1.888c-4.33.2-8.673.088-13.2.088v-58.94c4.446,0,8.89-.109,13.321.092.872.039,1.9,1.125,2.5,1.978,2.519,3.562,4.847,7.26,7.377,10.811a4.157,4.157,0,0,0,2.58,1.835c6.413.157,12.832.084,19.764.084C699.647,637.2,696.828,622.753,693.93,607.909Z" transform="translate(0 0)" fill="#618226"/></g></svg>