<svg xmlns="http://www.w3.org/2000/svg" width="232" height="70" viewBox="0 0 232 70"><defs><style>.a{fill:#fff;}.b{font-size:20px;font-family:DroidSans, Droid Sans;}</style></defs><rect class="a" width="232" height="70" rx="10"/><text class="b" transform="translate(83 41)"><tspan x="0" y="0">Ville / Région</tspan></text><g transform="translate(23 17)"><path d="M7,14H9v2H7Z" transform="translate(1 2.963)"/><path d="M22.556,2H12.778a2.445,2.445,0,0,0-2.444,2.444v7.333H5.444A2.447,2.447,0,0,0,3,14.222v11a1.222,1.222,0,0,0,1.222,1.222H23.778A1.222,1.222,0,0,0,25,25.222V4.444A2.445,2.445,0,0,0,22.556,2ZM5.444,24V14.222h7.333V24Zm11-14.667H14V6.889h2.444Zm4.889,9.778H18.889V16.667h2.444Zm0-4.889H18.889V11.778h2.444Zm0-4.889H18.889V6.889h2.444Z" transform="translate(0 0)"/></g></svg>