<svg xmlns="http://www.w3.org/2000/svg" width="232" height="70" viewBox="0 0 232 70"><defs><style>.a{fill:#618226;stroke:#fff;stroke-width:3px;}.b,.c{fill:#fff;}.b{font-size:20px;font-family:DroidSans, Droid Sans;}.d{stroke:none;}.e{fill:none;}</style></defs><g class="a"><rect class="d" width="232" height="70" rx="10"/><rect class="e" x="1.5" y="1.5" width="229" height="67" rx="8.5"/></g><text class="b" transform="translate(101 41)"><tspan x="0" y="0">Entreprise</tspan></text><g transform="translate(24 17)"><path class="c" d="M23.25,2H6.75A2.753,2.753,0,0,0,4,4.75V28.125A1.375,1.375,0,0,0,5.375,29.5h19.25A1.375,1.375,0,0,0,26,28.125V4.75A2.753,2.753,0,0,0,23.25,2Zm0,24.75H6.75v-22h16.5Z" transform="translate(0 0)"/><path class="c" d="M8,6h3V8H8Zm5,0h3V8H13ZM8,10h3v2H8Zm5,.031h3V12H13ZM8,14h3v2H8Zm5,0h3v2H13Z" transform="translate(3 3)"/></g></svg>