<svg xmlns="http://www.w3.org/2000/svg" width="232" height="70" viewBox="0 0 232 70"><defs><style>.a{fill:#fff;}.b{font-size:20px;font-family:DroidSans, Droid Sans;}.c{fill:none;}</style></defs><rect class="a" width="232" height="70" rx="10"/><text class="b" transform="translate(101 41)"><tspan x="0" y="0">Individu</tspan></text><g transform="translate(24 18)"><circle class="c" cx="3" cy="3" r="3" transform="translate(11 4)"/><path d="M14,2a6.111,6.111,0,1,0,6.111,6.111A6.118,6.118,0,0,0,14,2Zm0,9.778a3.667,3.667,0,1,1,3.667-3.667A3.671,3.671,0,0,1,14,11.778ZM25,25.222V24a8.567,8.567,0,0,0-8.556-8.556H11.556A8.566,8.566,0,0,0,3,24v1.222H5.444V24a6.118,6.118,0,0,1,6.111-6.111h4.889A6.118,6.118,0,0,1,22.556,24v1.222Z" transform="translate(0 0)"/></g></svg>