<svg xmlns="http://www.w3.org/2000/svg" width="76.63" height="133.534" viewBox="0 0 76.63 133.534"><g transform="translate(-1005.913 -978.521)"><path d="M1073.242,978.521h-58.027a9.332,9.332,0,0,0-9.3,9.3v114.931a9.331,9.331,0,0,0,9.3,9.3h58.027a9.331,9.331,0,0,0,9.3-9.3V987.823A9.332,9.332,0,0,0,1073.242,978.521Zm7.405,122.7a8.964,8.964,0,0,1-8.938,8.938h-54.961a8.963,8.963,0,0,1-8.938-8.938V989.355a8.964,8.964,0,0,1,8.938-8.938h8.892v1.768a1.842,1.842,0,0,0,1.836,1.836h33.505a1.843,1.843,0,0,0,1.836-1.836v-1.768h8.892a8.965,8.965,0,0,1,8.938,8.938Z" fill="#618226"/><path d="M1080.139,988.847v111.865a8.964,8.964,0,0,1-8.938,8.938h-54.961a8.963,8.963,0,0,1-8.938-8.938V988.847a8.964,8.964,0,0,1,8.938-8.938h8.892v1.768a1.842,1.842,0,0,0,1.836,1.836h33.505a1.843,1.843,0,0,0,1.836-1.836v-1.768h8.892A8.965,8.965,0,0,1,1080.139,988.847Z" transform="translate(0.508 0.508)" fill="#618226"/><g transform="translate(0.508 0.508)" fill="#618226" stroke-miterlimit="10"><path d="M 1071.200317382812 1108.817626953125 L 1016.2392578125 1108.817626953125 C 1014.083557128906 1108.817626953125 1012.050720214844 1107.972045898438 1010.515197753906 1106.4365234375 C 1008.979675292969 1104.901000976562 1008.134033203125 1102.868041992188 1008.134033203125 1100.71240234375 L 1008.134033203125 988.8471069335938 C 1008.134033203125 986.6919555664062 1008.979675292969 984.6593017578125 1010.515197753906 983.1235961914062 C 1012.050903320312 981.5878295898438 1014.083740234375 980.7420043945312 1016.2392578125 980.7420043945312 L 1024.297973632812 980.7420043945312 L 1024.297973632812 981.6769409179688 C 1024.297973632812 983.1488037109375 1025.495361328125 984.3462524414062 1026.967163085938 984.3462524414062 L 1060.472412109375 984.3462524414062 C 1061.944213867188 984.3462524414062 1063.141723632812 983.1488037109375 1063.141723632812 981.6769409179688 L 1063.141723632812 980.7420043945312 L 1071.200317382812 980.7420043945312 C 1073.355346679688 980.7420043945312 1075.388061523438 981.5878295898438 1076.923950195312 983.1236572265625 C 1078.459838867188 984.6594848632812 1079.3056640625 986.692138671875 1079.3056640625 988.8471069335938 L 1079.3056640625 1100.71240234375 C 1079.3056640625 1102.867919921875 1078.459838867188 1104.900756835938 1076.923950195312 1106.436401367188 C 1075.388305664062 1107.972045898438 1073.355590820312 1108.817626953125 1071.200317382812 1108.817626953125 Z" stroke="none"/><path d="M 1016.2392578125 981.5748291015625 C 1014.306274414062 981.5748291015625 1012.482666015625 982.3341064453125 1011.104248046875 983.7125244140625 C 1009.725952148438 985.0909423828125 1008.967041015625 986.9144287109375 1008.967041015625 988.84716796875 L 1008.967041015625 1100.71240234375 C 1008.967041015625 1102.645629882812 1009.725952148438 1104.46923828125 1011.104248046875 1105.847412109375 C 1012.482421875 1107.2255859375 1014.306030273438 1107.984619140625 1016.2392578125 1107.984619140625 L 1071.200317382812 1107.984619140625 C 1073.133056640625 1107.984619140625 1074.95654296875 1107.2255859375 1076.3349609375 1105.847412109375 C 1077.713500976562 1104.468994140625 1078.47265625 1102.645385742188 1078.47265625 1100.71240234375 L 1078.47265625 988.84716796875 C 1078.47265625 986.9146728515625 1077.713500976562 985.0911865234375 1076.3349609375 983.712646484375 C 1074.956298828125 982.3341064453125 1073.1328125 981.5748291015625 1071.200317382812 981.5748291015625 L 1063.974609375 981.5748291015625 L 1063.974609375 981.677001953125 C 1063.974609375 983.6080322265625 1062.403564453125 985.17919921875 1060.472412109375 985.17919921875 L 1026.967163085938 985.17919921875 C 1025.0361328125 985.17919921875 1023.465087890625 983.6080322265625 1023.465087890625 981.677001953125 L 1023.465087890625 981.5748291015625 L 1016.2392578125 981.5748291015625 M 1016.2392578125 979.908935546875 L 1025.130981445312 979.908935546875 L 1025.130981445312 981.677001953125 C 1025.130981445312 982.686767578125 1025.95751953125 983.51318359375 1026.967163085938 983.51318359375 L 1060.472412109375 983.51318359375 C 1061.480712890625 983.51318359375 1062.308715820312 982.686767578125 1062.308715820312 981.677001953125 L 1062.308715820312 979.908935546875 L 1071.200317382812 979.908935546875 C 1076.1162109375 979.908935546875 1080.138671875 983.931396484375 1080.138671875 988.84716796875 L 1080.138671875 1100.71240234375 C 1080.138671875 1105.629638671875 1076.1162109375 1109.650634765625 1071.200317382812 1109.650634765625 L 1016.2392578125 1109.650634765625 C 1011.322021484375 1109.650634765625 1007.301025390625 1105.629638671875 1007.301025390625 1100.71240234375 L 1007.301025390625 988.84716796875 C 1007.301025390625 983.931396484375 1011.322021484375 979.908935546875 1016.2392578125 979.908935546875 Z" stroke="none" fill="#fff"/></g></g></svg>