<svg xmlns="http://www.w3.org/2000/svg" width="138.55" height="116.116" viewBox="0 0 138.55 116.116"><g transform="translate(-556.254 -988)"><g transform="translate(610.44 1021.625)"><path d="M605.284,1017.036a41.361,41.361,0,0,0-12.11-6.057c.065-.061.13-.114.2-.168a41.155,41.155,0,0,1,11.731,5.793,3.234,3.234,0,0,1,.13.308C605.251,1016.955,605.267,1016.993,605.284,1017.036Z" transform="translate(-593.174 -1010.811)" fill="#618226"/></g><path d="M582.007,993.911c-.06.006-.125.016-.184.022-.4,1.341-.79,2.683-1.212,4.11,1.108-.071,2.028-.124,3.078-.184C583.093,996.464,582.548,995.188,582.007,993.911Zm0,0c-.06.006-.125.016-.184.022-.4,1.341-.79,2.683-1.212,4.11,1.108-.071,2.028-.124,3.078-.184C583.093,996.464,582.548,995.188,582.007,993.911Zm0,0c-.06.006-.125.016-.184.022-.4,1.341-.79,2.683-1.212,4.11,1.108-.071,2.028-.124,3.078-.184C583.093,996.464,582.548,995.188,582.007,993.911Zm0,0c-.06.006-.125.016-.184.022-.4,1.341-.79,2.683-1.212,4.11,1.108-.071,2.028-.124,3.078-.184C583.093,996.464,582.548,995.188,582.007,993.911Zm0,0c-.06.006-.125.016-.184.022-.4,1.341-.79,2.683-1.212,4.11,1.108-.071,2.028-.124,3.078-.184C583.093,996.464,582.548,995.188,582.007,993.911Zm0,0c-.06.006-.125.016-.184.022-.4,1.341-.79,2.683-1.212,4.11,1.108-.071,2.028-.124,3.078-.184C583.093,996.464,582.548,995.188,582.007,993.911Zm0,0c-.06.006-.125.016-.184.022-.4,1.341-.79,2.683-1.212,4.11,1.108-.071,2.028-.124,3.078-.184C583.093,996.464,582.548,995.188,582.007,993.911Zm0,0c-.06.006-.125.016-.184.022-.4,1.341-.79,2.683-1.212,4.11,1.108-.071,2.028-.124,3.078-.184C583.093,996.464,582.548,995.188,582.007,993.911Zm0,0c-.06.006-.125.016-.184.022-.4,1.341-.79,2.683-1.212,4.11,1.108-.071,2.028-.124,3.078-.184C583.093,996.464,582.548,995.188,582.007,993.911Zm0,0c-.06.006-.125.016-.184.022-.4,1.341-.79,2.683-1.212,4.11,1.108-.071,2.028-.124,3.078-.184C583.093,996.464,582.548,995.188,582.007,993.911Zm0,0c-.06.006-.125.016-.184.022-.4,1.341-.79,2.683-1.212,4.11,1.108-.071,2.028-.124,3.078-.184C583.093,996.464,582.548,995.188,582.007,993.911Z" transform="translate(11.31 2.802)" fill="#618226"/><path d="M684.377,996.2l-48.276-7.1-3.9-.573a1.935,1.935,0,0,0-.952.093,1.964,1.964,0,0,0-1.281,1.563l-6.837,46.525-1.206-1.514,7.318-47.2-52.209,3.467a1.966,1.966,0,0,0-1.828,2.093l1.866,28.136c.718-.217,1.443-.417,2.179-.6.259-.065.519-.13.78-.189a42.163,42.163,0,0,1,9.66-1.027,43.289,43.289,0,0,1,12.006,1.909,41.36,41.36,0,0,1,12.109,6.057,41.957,41.957,0,0,1,9.266,9.266,41.248,41.248,0,0,1,7.864,22.12,44.846,44.846,0,0,1-.768,11.094l.243.037,42.149,6.2a1.979,1.979,0,0,0,2.235-1.66l11.244-76.473A1.977,1.977,0,0,0,684.377,996.2Zm-97.512,16.389a9.65,9.65,0,0,1-1.411-.736c.578.93,1.038,1.676,1.482,2.4-.92.049-1.893.108-2.845.162.34-.736.709-1.53,1.076-2.331l-.152-.1c-.183.172-.357.351-.551.509a2.025,2.025,0,0,1-2.32.178,1.88,1.88,0,0,1-.746-2.109c.535-1.866,1.958-3.013,3.418-4.111a.544.544,0,0,1,.513.044c1.082.839,2.174,1.66,3.191,2.574a2.774,2.774,0,0,1,.654,1.3A1.788,1.788,0,0,1,586.865,1012.594Zm-.606-7.968c-.037-.33-.069-.584-.1-.876.46-.077.861-.136,1.256-.2a.982.982,0,0,0-.016-.206c-.634-1.735-.634-1.735-2.472-1.621l-.411.016c-1.823.085-1.937.195-2.136,2.12h1.226c.028.286.05.541.083.871-.573.049-1.088.1-1.6.124s-1.038.006-1.605.006c-.032-.243-.065-.476-.1-.784.811-.032.979-.606,1.169-1.228.795-2.612,1.633-5.2,2.454-7.8.081-.26.19-.509.363-.979,1.38,3.056,2.656,5.921,3.976,8.766.156.346.541.6.817.887.087-.049.168-.1.254-.156.022.259.044.513.077.87C588.4,1004.5,587.363,1004.561,586.259,1004.626Zm15.637,17c.774-.671,1.563-1.319,2.342-1.98a.885.885,0,0,1,.784-.136,23.336,23.336,0,0,1,7.22,5.583,10.244,10.244,0,0,1,1.384,2.326A41.158,41.158,0,0,0,601.9,1021.625Zm35.464-10.369a10.212,10.212,0,0,1-1.222-1.017c.369,1.029.66,1.856.942,2.651-.91-.14-1.878-.292-2.818-.438.492-.649,1.017-1.346,1.546-2.049-.043-.044-.085-.093-.13-.136-.215.13-.422.27-.643.383a2.025,2.025,0,0,1-2.3-.313,1.88,1.88,0,0,1-.287-2.223c.914-1.71,2.547-2.532,4.208-3.3a.564.564,0,0,1,.492.152c.882,1.049,1.773,2.083,2.574,3.191a2.733,2.733,0,0,1,.369,1.412A1.79,1.79,0,0,1,637.359,1011.257Zm4.284-7.421c-1.081-.167-2.1-.33-3.2-.5.038-.33.06-.585.093-.877.47.022.87.049,1.271.071a.64.64,0,0,0,.026-.2c-.249-1.829-.254-1.829-2.071-2.109l-.411-.065c-1.8-.31-1.931-.223-2.537,1.617l1.207.26c-.038.286-.065.541-.109.865-.568-.075-1.082-.125-1.59-.211-.367-.065-.73-.152-1.113-.233-.152-.038-.3-.071-.456-.1.016-.237.038-.476.06-.789a1.127,1.127,0,0,0,.594-.032c.385-.142.59-.52.812-.92,1.325-2.385,2.687-4.744,4.045-7.108.136-.237.287-.454.563-.882.7,3.278,1.341,6.35,2.028,9.412a4.026,4.026,0,0,0,.616,1.038c.1-.032.189-.065.282-.1C641.72,1003.226,641.687,1003.479,641.643,1003.836Zm16.567,32.344a4.551,4.551,0,0,1-5.058-1.207,19.843,19.843,0,0,1-1.151-1.666,11.212,11.212,0,0,0,2.331,6.594,15.493,15.493,0,0,0-7.344-1.06,11.731,11.731,0,0,0,4.294-5.814c-.47.438-.79.772-1.147,1.054a4.255,4.255,0,0,1-6.956-2.19,4.739,4.739,0,0,1,.687-3.331,11.209,11.209,0,0,1,3.862-3.9c1.65-1.044,3.4-1.931,5.128-2.845a.868.868,0,0,1,.794.032,23.264,23.264,0,0,1,5.885,6.977,10.443,10.443,0,0,1,.924,2.894A4.038,4.038,0,0,1,658.21,1036.181Zm13.078,26.831c-.081-.053-.156-.113-.227-.167a4.963,4.963,0,0,0-1.007.94c-1.471,2.423-2.9,4.879-4.337,7.323-.136.233-.292.444-.541.817-.4-1.931-.758-3.678-1.115-5.431-.265-1.265-.535-2.537-.762-3.807-.1-.551-.233-1.017-.942-1.017.038-.3.065-.535.119-.914,1.054.168,2.071.33,3.175.509-.044.308-.077.563-.114.871-.45-.026-.845-.055-1.331-.087a12.621,12.621,0,0,0,.308,1.574.956.956,0,0,0,.569.525c.778.184,1.589.233,2.363.428a.951.951,0,0,0,1.3-.628,10.265,10.265,0,0,1,.578-1.076c-.432-.091-.795-.172-1.238-.27.032-.3.055-.553.091-.915,1.088.168,2.109.326,3.208.492C671.348,1062.5,671.315,1062.758,671.289,1063.012Zm.405-6.63a6.836,6.836,0,0,1-1.9,2.1c-3.017,1.834-2.4,1.941-4.661-.789a6.128,6.128,0,0,1-1.023-2.05,1.884,1.884,0,0,1,.93-2.4,2.055,2.055,0,0,1,2.488.74.434.434,0,0,0,.389.195c-.276-.827-.551-1.654-.817-2.434.893.152,1.893.314,2.851.476-.514.628-1.076,1.319-1.639,2.012l.13.119a5.911,5.911,0,0,1,1.066-.476,1.852,1.852,0,0,1,1.958.573A1.565,1.565,0,0,1,671.694,1056.381Z" transform="translate(8.745)" fill="#618226"/><path d="M610.635,1060.155a40.046,40.046,0,0,1-29.455,7.87c.772-.979,1.54-1.893,2.239-2.855.464-.638.817-1.358,1.249-2.024a.653.653,0,0,1,.422-.27,54.033,54.033,0,0,0,16.168-3.71c.821-.341,1.621-.736,2.444-1.092a.58.58,0,0,1,.417-.012c1.064.379,2.108.812,3.185,1.163S609.478,1059.836,610.635,1060.155Z" transform="translate(11.58 33.2)" fill="#618226"/><path d="M612.306,1050.6c-.243,1.1-.529,2.185-.87,3.25-.456-.936-.877-1.844-1.341-2.737-.162-.3-.336-.6-.509-.908h.032l-.038-.006c-.233-.406-.47-.8-.7-1.216a.822.822,0,0,1-.093-.515,44.7,44.7,0,0,0,1.315-12.126c-.059-2.148-.276-4.294-.444-6.436a.423.423,0,0,1,.239-.482c.318-.189.621-.416.935-.627A39.5,39.5,0,0,1,612.306,1050.6Z" transform="translate(24.664 19.34)" fill="#618226"/><path d="M618.08,1040.652a44.892,44.892,0,0,1-.843,9.125c-.114.606-.265,1.2-.422,1.8a.8.8,0,0,1-.281.417c-.557.405-1.125.8-1.7,1.179-.444.292-.887.578-1.337.859a54.582,54.582,0,0,1-7.518,4.03c-.449.184-.365-.173-1.125.081a.642.642,0,0,1-.5-.081c-1.3-1.044-2.6-2.1-3.884-3.165-3.4-2.817-6.728-5.706-9.968-8.707a.988.988,0,0,1-.341-.969c.389-2.985.795-5.966,1.1-8.956a49.033,49.033,0,0,0,.195-7.816.648.648,0,0,1,.4-.736c1.515-.762,3-1.585,4.522-2.342a72.323,72.323,0,0,1,9.113-3.688.681.681,0,0,1,.487.022,34.959,34.959,0,0,1,7.443,5.257,20.343,20.343,0,0,1,1.471,1.585,16.661,16.661,0,0,1,2.547,4.079,3.512,3.512,0,0,1,.227,1.1C617.853,1036.028,618.119,1040.647,618.08,1040.652Z" transform="translate(15.673 15.951)" fill="#618226"/><path d="M611.389,1025.579c-.049.3-.243.341-.448.417-1.872.7-3.765,1.368-5.615,2.13a67.339,67.339,0,0,0-8.307,4.1.7.7,0,0,1-.784,0,73.615,73.615,0,0,0-9.558-4.3c-1.319-.472-2.671-.877-4.024-1.25-1-.281-2.028-.46-3.05-.677-.2-.043-.324-.1-.363-.345-.379-2.484-.795-4.966-1.151-7.459-.164-1.185-.223-2.381-.314-3.575a.487.487,0,0,1,.146-.352,14.613,14.613,0,0,1,4.158-2.835,6.709,6.709,0,0,1,2.04-.318c1.129-.1,2.266-.152,2.829-.184a42.237,42.237,0,0,1,11.877,1.493,38.873,38.873,0,0,1,6.956,2.687c1.39.7,2.714,1.532,4.055,2.32a.88.88,0,0,1,.369.444c.383,1.26.833,2.51,1.108,3.787.016.081.038.151.049.227A10.164,10.164,0,0,1,611.389,1025.579Z" transform="translate(9.965 10.871)" fill="#618226"/><path d="M586.334,1025.568q-.5.429-.973.876a58.469,58.469,0,0,0-5.669,6.285q-2.222,2.766-4.407,5.565a1.393,1.393,0,0,1-.963.541q-4.462.763-8.908,1.6c-1.173.223-2.326.551-3.532.839a21.472,21.472,0,0,1-1.775-5.988,5.534,5.534,0,0,1,.644-3.455,39.716,39.716,0,0,1,14.624-15.984c1.2-.746,2.462-1.374,3.694-2.055a3.871,3.871,0,0,1,2.012-.509,28.062,28.062,0,0,1,3.424.237q.4.057.794.131c.077.843.109,1.67.227,2.493.352,2.5.736,5,1.1,7.5a4.155,4.155,0,0,0,.136.78C586.956,1024.946,586.713,1025.238,586.334,1025.568Z" transform="translate(1.563 11.987)" fill="#618226"/><path d="M569.549,1063.471a39.494,39.494,0,0,1-10.942-18.563c.509.952,1,1.915,1.52,2.857a52.955,52.955,0,0,0,7.773,10.779,1.856,1.856,0,0,1,.422.817c.373,1.288.778,2.575,1.173,3.856A.912.912,0,0,1,569.549,1063.471Z" transform="translate(0.879 26.979)" fill="#618226"/><path d="M585.114,1046.429a137.241,137.241,0,0,0-3.759,15.733c-.083.422-.174.839-.249,1.26a.448.448,0,0,1-.363.405,22.023,22.023,0,0,1-5.388.871c-1.005.049-2.017.01-3.023.01v-.032c-1.07,0-2.142-.021-3.212.006-.541.016-.768-.4-1.044-.7a58.15,58.15,0,0,1-9.465-14.7.9.9,0,0,1-.1-.432,44.151,44.151,0,0,1,1.368-9.51,18.053,18.053,0,0,1,2.6-5.425.883.883,0,0,1,.442-.292,97,97,0,0,1,12.176-2.429.406.406,0,0,1,.476.222c1.682,2.738,3.326,5.49,5.072,8.183,1.4,2.154,2.922,4.225,4.381,6.34A.633.633,0,0,1,585.114,1046.429Z" transform="translate(0.831 20.473)" fill="#618226"/><path d="M611.425,1051.414a36.29,36.29,0,0,1-4.434,14.776,1.173,1.173,0,0,1-.472.4,44.271,44.271,0,0,1-9.589,3.374,63.642,63.642,0,0,1-9.011,1.369,1.228,1.228,0,0,1-.286-.1,48.59,48.59,0,0,1-13.084-10.476.644.644,0,0,1-.14-.612,154.229,154.229,0,0,1,3.8-16.306c.152-.5.32-.784.91-.871.442-.06.882-.125,1.319-.206a67.2,67.2,0,0,0,7.112-1.66c3.023-.855,6.041-1.742,9.06-2.624a.5.5,0,0,1,.562.136c3.084,2.91,6.28,5.69,9.53,8.4q2.158,1.8,4.349,3.56A.857.857,0,0,1,611.425,1051.414Z" transform="translate(8.36 23.914)" fill="#618226"/><path d="M645.143,1062.8c.27,1.467.519,2.808.811,4.425.811-1.445,1.5-2.672,2.229-3.975C647.079,1063.083,646.171,1062.947,645.143,1062.8Zm0,0c.27,1.467.519,2.808.811,4.425.811-1.445,1.5-2.672,2.229-3.975C647.079,1063.083,646.171,1062.947,645.143,1062.8Zm-26.308-69.873-.184-.016c-.671,1.228-1.336,2.46-2.049,3.759,1.1.172,2.012.314,3.044.47C619.36,995.648,619.095,994.284,618.835,992.922Zm26.308,69.873c.27,1.467.519,2.808.811,4.425.811-1.445,1.5-2.672,2.229-3.975C647.079,1063.083,646.171,1062.947,645.143,1062.8Zm0,0c.27,1.467.519,2.808.811,4.425.811-1.445,1.5-2.672,2.229-3.975C647.079,1063.083,646.171,1062.947,645.143,1062.8Zm-26.308-69.873-.184-.016c-.671,1.228-1.336,2.46-2.049,3.759,1.1.172,2.012.314,3.044.47C619.36,995.648,619.095,994.284,618.835,992.922Zm0,0-.184-.016c-.671,1.228-1.336,2.46-2.049,3.759,1.1.172,2.012.314,3.044.47C619.36,995.648,619.095,994.284,618.835,992.922Zm26.308,69.873c.27,1.467.519,2.808.811,4.425.811-1.445,1.5-2.672,2.229-3.975C647.079,1063.083,646.171,1062.947,645.143,1062.8Zm0,0c.27,1.467.519,2.808.811,4.425.811-1.445,1.5-2.672,2.229-3.975C647.079,1063.083,646.171,1062.947,645.143,1062.8Zm-26.308-69.873-.184-.016c-.671,1.228-1.336,2.46-2.049,3.759,1.1.172,2.012.314,3.044.47C619.36,995.648,619.095,994.284,618.835,992.922Zm0,0-.184-.016c-.671,1.228-1.336,2.46-2.049,3.759,1.1.172,2.012.314,3.044.47C619.36,995.648,619.095,994.284,618.835,992.922Zm26.308,69.873c.27,1.467.519,2.808.811,4.425.811-1.445,1.5-2.672,2.229-3.975C647.079,1063.083,646.171,1062.947,645.143,1062.8Zm0,0c.27,1.467.519,2.808.811,4.425.811-1.445,1.5-2.672,2.229-3.975C647.079,1063.083,646.171,1062.947,645.143,1062.8Zm-26.308-69.873-.184-.016c-.671,1.228-1.336,2.46-2.049,3.759,1.1.172,2.012.314,3.044.47C619.36,995.648,619.095,994.284,618.835,992.922Zm26.308,69.873c.27,1.467.519,2.808.811,4.425.811-1.445,1.5-2.672,2.229-3.975C647.079,1063.083,646.171,1062.947,645.143,1062.8Zm-26.492-69.89c-.671,1.228-1.336,2.46-2.049,3.759,1.1.172,2.012.314,3.044.47-.286-1.487-.551-2.851-.811-4.213Zm.184.016-.184-.016c-.671,1.228-1.336,2.46-2.049,3.759,1.1.172,2.012.314,3.044.47C619.36,995.648,619.095,994.284,618.835,992.922Zm26.308,69.873c.27,1.467.519,2.808.811,4.425.811-1.445,1.5-2.672,2.229-3.975C647.079,1063.083,646.171,1062.947,645.143,1062.8Zm0,0c.27,1.467.519,2.808.811,4.425.811-1.445,1.5-2.672,2.229-3.975C647.079,1063.083,646.171,1062.947,645.143,1062.8Zm-26.308-69.873-.184-.016c-.671,1.228-1.336,2.46-2.049,3.759,1.1.172,2.012.314,3.044.47C619.36,995.648,619.095,994.284,618.835,992.922Zm0,0-.184-.016c-.671,1.228-1.336,2.46-2.049,3.759,1.1.172,2.012.314,3.044.47C619.36,995.648,619.095,994.284,618.835,992.922Zm26.308,69.873c.27,1.467.519,2.808.811,4.425.811-1.445,1.5-2.672,2.229-3.975C647.079,1063.083,646.171,1062.947,645.143,1062.8Zm0,0c.27,1.467.519,2.808.811,4.425.811-1.445,1.5-2.672,2.229-3.975C647.079,1063.083,646.171,1062.947,645.143,1062.8Zm-26.308-69.873-.184-.016c-.671,1.228-1.336,2.46-2.049,3.759,1.1.172,2.012.314,3.044.47C619.36,995.648,619.095,994.284,618.835,992.922Zm0,0-.184-.016c-.671,1.228-1.336,2.46-2.049,3.759,1.1.172,2.012.314,3.044.47C619.36,995.648,619.095,994.284,618.835,992.922Zm26.308,69.873c.27,1.467.519,2.808.811,4.425.811-1.445,1.5-2.672,2.229-3.975C647.079,1063.083,646.171,1062.947,645.143,1062.8Zm0,0c.27,1.467.519,2.808.811,4.425.811-1.445,1.5-2.672,2.229-3.975C647.079,1063.083,646.171,1062.947,645.143,1062.8Zm-26.308-69.873-.184-.016c-.671,1.228-1.336,2.46-2.049,3.759,1.1.172,2.012.314,3.044.47C619.36,995.648,619.095,994.284,618.835,992.922Z" transform="translate(28.373 2.326)" fill="#618226"/><path d="M640.047,1051.477a42.377,42.377,0,0,1-.892,8.669,41.683,41.683,0,1,1-51.161-49.267c.259-.065.519-.13.78-.189a41.4,41.4,0,0,1,33.6,6.507,41.987,41.987,0,0,1,17.676,34.28Z" transform="translate(0 10.221)" fill="none" stroke="#618226" stroke-miterlimit="10" stroke-width="1"/><path d="M614.9,997.177l-.2.924c-.152-.038-.3-.071-.456-.1.016-.237.038-.476.06-.789A1.127,1.127,0,0,0,614.9,997.177Z" transform="translate(27.254 4.351)" fill="#618226"/></g></svg>