<svg xmlns="http://www.w3.org/2000/svg" width="109.735" height="114.686" viewBox="0 0 109.735 114.686"><g transform="translate(-447.443 -52.228)"><g transform="translate(447.443 52.228)"><path d="M1242.277,173.134a29.073,29.073,0,0,1-1.477,4.062c-5.089,11.6-12.018,24.388-23.471,31.259a8.27,8.27,0,0,1-6.739,1.148c-1.627-.49-2.481-.006-3.675,1.252q-3.237,3.392-6.474,6.8-2.363,2.484-4.725,4.962-5.747,6.032-11.5,12.064-2.233,2.345-4.477,4.691-11.294,11.839-22.594,23.672c-4.119,4.316-8.21,8.672-12.393,12.924-3.035,3.092-6.785,4.189-9.554,1.108-.433-.479-.952-.877-1.391-1.35-1.529-1.621-1.546-4.281-.213-6.537,2.21-3.744,5.418-6.658,8.377-9.762q13.959-14.652,27.93-29.28,2.3-2.406,4.6-4.818,5.954-6.231,11.914-12.451,2.1-2.207,4.218-4.414,3.254-3.41,6.525-6.825a2.877,2.877,0,0,0,.964-3.15,9.551,9.551,0,0,1,.733-6.71,30.91,30.91,0,0,1,7.085-9.8c.4-.381.808-.756,1.217-1.125a87.011,87.011,0,0,1,17.759-12.462,49.778,49.778,0,0,1,9.37-4.166c.317.952-1.944,2.856-2.608,3.548q-5.175,5.374-10.345,10.754l-5.094,5.3a22.313,22.313,0,0,0-4.062,4.916,1.9,1.9,0,0,0-.219,1.8c.4.606,1.414.415,2.158-.006a12.649,12.649,0,0,0,2.827-2.423l17.707-18.52a5.451,5.451,0,0,1,2.025-1.54c2.054-.675,3.006,1.569,1.558,3.1-6.324,6.721-12.745,13.356-19.051,20.089a8.524,8.524,0,0,0-1.846,3.456c-.317,1.16.686,1.621,1.817,1.01a4.733,4.733,0,0,0,1.16-.912q6.292-6.569,12.554-13.166,2.536-2.665,5.066-5.325c.819-.865,1.656-1.708,2.458-2.585.4-.433,1.056-1.419,1.667-1.442a.262.262,0,0,1,.26.185A1.079,1.079,0,0,1,1242.277,173.134Z" transform="translate(-1132.622 -164.22)" fill="#618226"/><path d="M1186.6,212.789l-11.983,12.387q-5.1-5.149-10.125-10.356-9.546-9.9-18.93-19.968c-4.922-5.279-8.573-11.21-10-17.949-.808-3.8-.762-7.587,1.327-10.529,1.679-2.371,3.294-2.187,5.706.329q9.468,9.866,18.9,19.778Q1174.039,199.626,1186.6,212.789Z" transform="translate(-1133.657 -164.423)" fill="#618226"/><path d="M1279.287,316.015c-.808,2.844-2.51,5-5.579,5.412-2.625.346-4.846-1.442-6.756-3.427q-17.378-18.131-34.686-36.336a5.144,5.144,0,0,0-3.739-1.973,9.8,9.8,0,0,1-5.037-1.789l11.545-11.931q19.766,20.7,39.5,41.443a39,39,0,0,1,4.385,5.954A3.7,3.7,0,0,1,1279.287,316.015Z" transform="translate(-1171.063 -207.265)" fill="#618226"/></g></g></svg>