<svg xmlns="http://www.w3.org/2000/svg" width="131.915" height="105.313" viewBox="0 0 131.915 105.313"><g transform="translate(-1352.277 -56.914)"><g transform="translate(1352.277 56.914)"><g transform="translate(0 53.562)"><path d="M2331.559,1757.534c.889,0,1.782.054,2.666-.01a31.579,31.579,0,0,0,11.265-2.52c3.006-1.4,5.869-3.033,8.756-4.641,1.228-.685,2.491-1.309,3.726-1.981a37.516,37.516,0,0,1,5.648-2.688,20.233,20.233,0,0,1,4.1-1.3,11.8,11.8,0,0,1,5.8.424,5.321,5.321,0,0,1,3.179,2.936,3.358,3.358,0,0,1-.735,3.906c-1.128,1.087-2.34,2.085-3.523,3.113-.489.426-1,.826-1.5,1.242-2.683,2.245-5.592,4.178-8.437,6.2-2.332,1.661-4.8,3.072-7.247,4.52-2.225,1.316-4.524,2.515-6.849,3.647a59.321,59.321,0,0,1-9.527,3.693,12.837,12.837,0,0,1-3.474.623,38.784,38.784,0,0,0-3.969.413c-.076.009-.154.008-.231.01-2.265.078-4.529.148-6.795.237a48.615,48.615,0,0,0-5.051.267c-2.54.369-5.082.005-7.609.21-3.231.262-6.462.2-9.695.223a3.427,3.427,0,0,0-.771.167,22.325,22.325,0,0,0-7.125,3.721c-1.472,1.009-2.833,2.182-4.245,3.279a59.653,59.653,0,0,0-5.612,4.914c-.631.631-.7.62-1.389-.069-1.86-1.856-3.7-3.732-5.576-5.571-2.449-2.4-4.926-4.772-7.391-7.154q-3.2-3.092-6.4-6.184c-.721-.7-.749-.737-.2-1.58,1.375-2.091,2.762-4.175,4.2-6.226,1.11-1.589,2.285-3.133,3.455-4.679q1.172-1.546,2.413-3.04a64.41,64.41,0,0,1,5.629-6.083,19.983,19.983,0,0,1,4.778-3.49,17.185,17.185,0,0,1,4.677-1.347c1.684-.287,3.385-.473,5.079-.7.038-.005.077-.006.116-.008,1.415-.077,2.83-.157,4.245-.229,1.685-.085,3.385-.053,5.05-.282,1.037-.142,2.062-.114,3.089-.2,1.249-.1,2.49-.3,3.736-.435.949-.1,1.906-.143,2.852-.26,1.243-.155,2.483-.349,3.722-.544,1.2-.189,2.392-.4,3.589-.6,1.571-.258,3.146-.5,4.717-.766q2.466-.415,4.927-.862c1.154-.208,2.3-.51,3.46-.636a25.493,25.493,0,0,1,5.626-.263,3.638,3.638,0,0,1,2.991,3.325,8.119,8.119,0,0,1-.68,4.592,14.024,14.024,0,0,1-1.786,2.757,17.751,17.751,0,0,1-8.439,5.014c-2.5.747-5.032,1.389-7.538,2.12-1.273.37-2.521.828-3.776,1.256a1.668,1.668,0,0,0-.367.254,2.421,2.421,0,0,0,.381.127c1.725.274,3.448.541,5.187.743A48.607,48.607,0,0,0,2331.559,1757.534Z" transform="translate(-2262.977 -1736.849)" fill="#618226"/></g><path d="M2366.325,1717.843a9.745,9.745,0,0,1-.036-3.008,36.408,36.408,0,0,1,1.126-7.564,35.391,35.391,0,0,1,8.454-15.141c3.878-4.235,9.52-7.278,14.862-9.244a70.638,70.638,0,0,1,15.116-3.291c3-.4,3.915,35.691-33.5,42.478,0,0-2.919.6-1.245-2.512s15.739-22.4,15.739-22.4-12.615,10-18.663,21.145C2368.183,1718.309,2366.966,1719.833,2366.325,1717.843Z" transform="translate(-2275.23 -1676.489)" fill="#618226"/><path d="M2359.363,1704.616a5.543,5.543,0,0,0,.643-1.591,20.693,20.693,0,0,0,.97-4.253,20.175,20.175,0,0,0-1.352-9.8,21.851,21.851,0,0,0-5.98-7.993,40.311,40.311,0,0,0-7.35-4.883c-1.51-.833-9.481,18.152,8.99,29.517,0,0,1.425.926,1.183-1.077s-3.719-15.165-3.719-15.165,4.629,7.93,5.532,15.105C2358.279,1704.479,2358.611,1705.541,2359.363,1704.616Z" transform="translate(-2272.512 -1676.071)" fill="#618226"/><path d="M2353.321,1722.006a7.767,7.767,0,0,0-.792-2.264,28.979,28.979,0,0,0-2.9-5.362,28.221,28.221,0,0,0-10.458-9.044c-4.059-2.118-9.115-2.861-13.654-2.879a56.265,56.265,0,0,0-12.223,1.651c-2.353.517,6.786,27.809,36.667,22.708,0,0,2.351-.342.249-2.221s-17.893-12.5-17.893-12.5,12.177,4.06,19.742,10.763C2352.055,1722.86,2353.382,1723.67,2353.321,1722.006Z" transform="translate(-2268.909 -1679.204)" fill="#618226"/></g></g></svg>