<?xml version="1.0" encoding="utf-8"?>
<!-- Generator: Adobe Illustrator 19.2.1, SVG Export Plug-In . SVG Version: 6.00 Build 0)  -->
<svg version="1.1" id="Calque_1" xmlns="http://www.w3.org/2000/svg" xmlns:xlink="http://www.w3.org/1999/xlink" x="0px" y="0px"
	 viewBox="0 0 58.1 58.1" style="enable-background:new 0 0 58.1 58.1;" xml:space="preserve">
<style type="text/css">
	.st0{fill:#5E833A;}
</style>
<path class="st0" d="M29.1,1.9c15,0,27.2,12.2,27.2,27.2S44.1,56.3,29.1,56.3S1.9,44.1,1.9,29.1S14.2,1.9,29.1,1.9 M29.1,0.8
	C13.5,0.8,0.8,13.5,0.8,29.1s12.7,28.3,28.3,28.3s28.3-12.7,28.3-28.3S44.8,0.8,29.1,0.8L29.1,0.8z"/>
<path id="XMLID_19_" class="st0" d="M31.1,22v-2.6c0-1.3,0.9-1.6,1.4-1.6s3.7,0,3.7,0v-5.7h-5.1c-5.7,0-6.9,4.2-6.9,6.9v3H21v4v2.6
	h3.3c0,7.4,0,16.5,0,16.5h6.6c0,0,0-9.1,0-16.5h4.9l0.2-2.6l0.3-4h-5.2C31.1,22.1,31.1,22,31.1,22z"/>
</svg>
